G75*
%MOIN*%
%OFA0B0*%
%FSLAX25Y25*%
%IPPOS*%
%LPD*%
%AMOC8*
5,1,8,0,0,1.08239X$1,22.5*
%
%ADD10C,0.00800*%
%ADD11C,0.00512*%
%ADD12C,0.00600*%
%ADD13C,0.00000*%
D10*
X0119595Y0181433D02*
X0126845Y0188183D01*
X0116845Y0198183D02*
X0110095Y0190933D01*
X0129595Y0210433D02*
X0136345Y0217683D01*
X0146345Y0207683D02*
X0139095Y0200933D01*
X0158595Y0220433D02*
X0165845Y0227183D01*
X0155845Y0237183D02*
X0149095Y0229933D01*
X0178595Y0239933D02*
X0186595Y0247933D01*
X0176595Y0257933D02*
X0168595Y0249933D01*
X0066845Y0303934D02*
X0067780Y0307132D01*
X0068792Y0310307D01*
X0069881Y0313457D01*
X0071047Y0316579D01*
X0072289Y0319671D01*
X0073605Y0322733D01*
X0074996Y0325761D01*
X0076460Y0328755D01*
X0077997Y0331712D01*
X0079605Y0334631D01*
X0081284Y0337510D01*
X0083033Y0340347D01*
X0084850Y0343140D01*
X0086734Y0345889D01*
X0088686Y0348591D01*
X0090702Y0351244D01*
X0092782Y0353847D01*
X0094926Y0356399D01*
X0097130Y0358898D01*
X0099395Y0361343D01*
X0101719Y0363731D01*
X0104101Y0366063D01*
X0106538Y0368335D01*
X0109030Y0370548D01*
X0111576Y0372699D01*
X0114173Y0374787D01*
X0116820Y0376812D01*
X0119515Y0378771D01*
X0122258Y0380665D01*
X0125046Y0382490D01*
X0127877Y0384248D01*
X0130751Y0385935D01*
X0133665Y0387553D01*
X0136617Y0389099D01*
X0139606Y0390572D01*
X0142631Y0391972D01*
X0145688Y0393298D01*
X0148777Y0394549D01*
X0151895Y0395725D01*
X0155041Y0396824D01*
X0158213Y0397846D01*
X0161409Y0398791D01*
X0164627Y0399657D01*
X0167865Y0400445D01*
X0171121Y0401154D01*
X0174394Y0401783D01*
X0177681Y0402332D01*
X0180980Y0402801D01*
X0184290Y0403189D01*
X0187609Y0403497D01*
X0190933Y0403724D01*
X0194263Y0403869D01*
X0197595Y0403934D01*
X0126845Y0349683D02*
X0119595Y0356433D01*
X0110095Y0346933D02*
X0116845Y0339683D01*
X0129595Y0327433D02*
X0136345Y0320183D01*
X0146345Y0330183D02*
X0139095Y0336933D01*
X0158595Y0317433D02*
X0165845Y0310683D01*
X0155845Y0300683D02*
X0149095Y0307933D01*
X0168595Y0287933D02*
X0176595Y0279933D01*
X0186345Y0289933D02*
X0178595Y0297933D01*
X0186345Y0289933D02*
X0186595Y0289933D01*
X0208595Y0289933D02*
X0208845Y0289933D01*
X0216595Y0297933D01*
X0226595Y0287933D02*
X0218595Y0279933D01*
X0328095Y0303933D02*
X0327275Y0307054D01*
X0326378Y0310153D01*
X0325406Y0313230D01*
X0324358Y0316282D01*
X0323237Y0319307D01*
X0322042Y0322304D01*
X0320774Y0325271D01*
X0319434Y0328207D01*
X0318023Y0331108D01*
X0316541Y0333974D01*
X0314990Y0336803D01*
X0313370Y0339594D01*
X0311682Y0342344D01*
X0309928Y0345052D01*
X0308108Y0347716D01*
X0306223Y0350335D01*
X0304275Y0352907D01*
X0302265Y0355431D01*
X0300194Y0357905D01*
X0298063Y0360327D01*
X0295873Y0362697D01*
X0293626Y0365013D01*
X0291323Y0367273D01*
X0288966Y0369476D01*
X0286555Y0371621D01*
X0284093Y0373706D01*
X0281581Y0375731D01*
X0279020Y0377693D01*
X0276411Y0379592D01*
X0273758Y0381428D01*
X0271060Y0383197D01*
X0268319Y0384900D01*
X0265538Y0386536D01*
X0262718Y0388104D01*
X0259860Y0389602D01*
X0256967Y0391029D01*
X0254039Y0392386D01*
X0251079Y0393670D01*
X0248089Y0394882D01*
X0245070Y0396021D01*
X0242024Y0397085D01*
X0238953Y0398075D01*
X0235859Y0398989D01*
X0232743Y0399828D01*
X0229608Y0400590D01*
X0226455Y0401275D01*
X0223286Y0401883D01*
X0220103Y0402414D01*
X0216909Y0402866D01*
X0213704Y0403241D01*
X0210491Y0403537D01*
X0207272Y0403754D01*
X0204048Y0403893D01*
X0200822Y0403952D01*
X0197596Y0403933D01*
X0268345Y0349683D02*
X0275595Y0356433D01*
X0285095Y0346933D02*
X0278345Y0339683D01*
X0265595Y0327433D02*
X0258845Y0320183D01*
X0248845Y0330183D02*
X0256095Y0336933D01*
X0236595Y0317433D02*
X0229345Y0310683D01*
X0239345Y0300683D02*
X0246095Y0307933D01*
X0258845Y0320183D02*
X0260076Y0318705D01*
X0261271Y0317198D01*
X0262429Y0315662D01*
X0263549Y0314098D01*
X0264630Y0312508D01*
X0265673Y0310891D01*
X0266676Y0309250D01*
X0267638Y0307585D01*
X0268560Y0305897D01*
X0269440Y0304186D01*
X0270278Y0302455D01*
X0271074Y0300704D01*
X0271827Y0298934D01*
X0272536Y0297146D01*
X0273202Y0295342D01*
X0273823Y0293522D01*
X0274400Y0291687D01*
X0274933Y0289838D01*
X0275419Y0287978D01*
X0275861Y0286106D01*
X0276256Y0284223D01*
X0276606Y0282332D01*
X0276910Y0280433D01*
X0277167Y0278527D01*
X0277377Y0276615D01*
X0277541Y0274698D01*
X0277658Y0272778D01*
X0277729Y0270856D01*
X0277752Y0268933D01*
X0277729Y0267010D01*
X0277658Y0265088D01*
X0277541Y0263168D01*
X0277377Y0261251D01*
X0277167Y0259339D01*
X0276910Y0257433D01*
X0276606Y0255534D01*
X0276256Y0253643D01*
X0275861Y0251760D01*
X0275419Y0249888D01*
X0274933Y0248028D01*
X0274400Y0246179D01*
X0273823Y0244344D01*
X0273202Y0242524D01*
X0272536Y0240720D01*
X0271827Y0238932D01*
X0271074Y0237162D01*
X0270278Y0235411D01*
X0269440Y0233680D01*
X0268560Y0231969D01*
X0267638Y0230281D01*
X0266676Y0228616D01*
X0265673Y0226975D01*
X0264630Y0225358D01*
X0263549Y0223768D01*
X0262429Y0222204D01*
X0261271Y0220668D01*
X0260076Y0219161D01*
X0258845Y0217683D01*
X0265595Y0210433D01*
X0256095Y0200933D02*
X0248845Y0207683D01*
X0236595Y0220433D02*
X0229345Y0227183D01*
X0239345Y0237183D02*
X0246095Y0229933D01*
X0226595Y0249933D02*
X0218595Y0257933D01*
X0208595Y0247933D02*
X0216595Y0239933D01*
X0248845Y0207683D02*
X0247367Y0206452D01*
X0245860Y0205257D01*
X0244324Y0204099D01*
X0242760Y0202979D01*
X0241170Y0201898D01*
X0239553Y0200855D01*
X0237912Y0199852D01*
X0236247Y0198890D01*
X0234559Y0197968D01*
X0232848Y0197088D01*
X0231117Y0196250D01*
X0229366Y0195454D01*
X0227596Y0194701D01*
X0225808Y0193992D01*
X0224004Y0193326D01*
X0222184Y0192705D01*
X0220349Y0192128D01*
X0218500Y0191595D01*
X0216640Y0191109D01*
X0214768Y0190667D01*
X0212885Y0190272D01*
X0210994Y0189922D01*
X0209095Y0189618D01*
X0207189Y0189361D01*
X0205277Y0189151D01*
X0203360Y0188987D01*
X0201440Y0188870D01*
X0199518Y0188799D01*
X0197595Y0188776D01*
X0195672Y0188799D01*
X0193750Y0188870D01*
X0191830Y0188987D01*
X0189913Y0189151D01*
X0188001Y0189361D01*
X0186095Y0189618D01*
X0184196Y0189922D01*
X0182305Y0190272D01*
X0180422Y0190667D01*
X0178550Y0191109D01*
X0176690Y0191595D01*
X0174841Y0192128D01*
X0173006Y0192705D01*
X0171186Y0193326D01*
X0169382Y0193992D01*
X0167594Y0194701D01*
X0165824Y0195454D01*
X0164073Y0196250D01*
X0162342Y0197088D01*
X0160631Y0197968D01*
X0158943Y0198890D01*
X0157278Y0199852D01*
X0155637Y0200855D01*
X0154020Y0201898D01*
X0152430Y0202979D01*
X0150866Y0204099D01*
X0149330Y0205257D01*
X0147823Y0206452D01*
X0146345Y0207683D01*
X0067095Y0233933D02*
X0047595Y0233933D01*
X0047455Y0233935D01*
X0047315Y0233941D01*
X0047175Y0233951D01*
X0047035Y0233964D01*
X0046896Y0233982D01*
X0046757Y0234004D01*
X0046620Y0234029D01*
X0046482Y0234058D01*
X0046346Y0234091D01*
X0046211Y0234128D01*
X0046077Y0234169D01*
X0045944Y0234214D01*
X0045812Y0234262D01*
X0045682Y0234314D01*
X0045553Y0234369D01*
X0045426Y0234428D01*
X0045300Y0234491D01*
X0045176Y0234557D01*
X0045055Y0234626D01*
X0044935Y0234699D01*
X0044817Y0234776D01*
X0044702Y0234855D01*
X0044588Y0234938D01*
X0044478Y0235024D01*
X0044369Y0235113D01*
X0044263Y0235205D01*
X0044160Y0235300D01*
X0044059Y0235397D01*
X0043962Y0235498D01*
X0043867Y0235601D01*
X0043775Y0235707D01*
X0043686Y0235816D01*
X0043600Y0235926D01*
X0043517Y0236040D01*
X0043438Y0236155D01*
X0043361Y0236273D01*
X0043288Y0236393D01*
X0043219Y0236514D01*
X0043153Y0236638D01*
X0043090Y0236764D01*
X0043031Y0236891D01*
X0042976Y0237020D01*
X0042924Y0237150D01*
X0042876Y0237282D01*
X0042831Y0237415D01*
X0042790Y0237549D01*
X0042753Y0237684D01*
X0042720Y0237820D01*
X0042691Y0237958D01*
X0042666Y0238095D01*
X0042644Y0238234D01*
X0042626Y0238373D01*
X0042613Y0238513D01*
X0042603Y0238653D01*
X0042597Y0238793D01*
X0042595Y0238933D01*
X0042595Y0298933D01*
X0042597Y0299073D01*
X0042603Y0299213D01*
X0042613Y0299353D01*
X0042626Y0299493D01*
X0042644Y0299632D01*
X0042666Y0299771D01*
X0042691Y0299908D01*
X0042720Y0300046D01*
X0042753Y0300182D01*
X0042790Y0300317D01*
X0042831Y0300451D01*
X0042876Y0300584D01*
X0042924Y0300716D01*
X0042976Y0300846D01*
X0043031Y0300975D01*
X0043090Y0301102D01*
X0043153Y0301228D01*
X0043219Y0301352D01*
X0043288Y0301473D01*
X0043361Y0301593D01*
X0043438Y0301711D01*
X0043517Y0301826D01*
X0043600Y0301940D01*
X0043686Y0302050D01*
X0043775Y0302159D01*
X0043867Y0302265D01*
X0043962Y0302368D01*
X0044059Y0302469D01*
X0044160Y0302566D01*
X0044263Y0302661D01*
X0044369Y0302753D01*
X0044478Y0302842D01*
X0044588Y0302928D01*
X0044702Y0303011D01*
X0044817Y0303090D01*
X0044935Y0303167D01*
X0045055Y0303240D01*
X0045176Y0303309D01*
X0045300Y0303375D01*
X0045426Y0303438D01*
X0045553Y0303497D01*
X0045682Y0303552D01*
X0045812Y0303604D01*
X0045944Y0303652D01*
X0046077Y0303697D01*
X0046211Y0303738D01*
X0046346Y0303775D01*
X0046482Y0303808D01*
X0046620Y0303837D01*
X0046757Y0303862D01*
X0046896Y0303884D01*
X0047035Y0303902D01*
X0047175Y0303915D01*
X0047315Y0303925D01*
X0047455Y0303931D01*
X0047595Y0303933D01*
X0066845Y0303933D01*
X0136345Y0320183D02*
X0135114Y0318705D01*
X0133919Y0317198D01*
X0132761Y0315662D01*
X0131641Y0314098D01*
X0130560Y0312508D01*
X0129517Y0310891D01*
X0128514Y0309250D01*
X0127552Y0307585D01*
X0126630Y0305897D01*
X0125750Y0304186D01*
X0124912Y0302455D01*
X0124116Y0300704D01*
X0123363Y0298934D01*
X0122654Y0297146D01*
X0121988Y0295342D01*
X0121367Y0293522D01*
X0120790Y0291687D01*
X0120257Y0289838D01*
X0119771Y0287978D01*
X0119329Y0286106D01*
X0118934Y0284223D01*
X0118584Y0282332D01*
X0118280Y0280433D01*
X0118023Y0278527D01*
X0117813Y0276615D01*
X0117649Y0274698D01*
X0117532Y0272778D01*
X0117461Y0270856D01*
X0117438Y0268933D01*
X0117461Y0267010D01*
X0117532Y0265088D01*
X0117649Y0263168D01*
X0117813Y0261251D01*
X0118023Y0259339D01*
X0118280Y0257433D01*
X0118584Y0255534D01*
X0118934Y0253643D01*
X0119329Y0251760D01*
X0119771Y0249888D01*
X0120257Y0248028D01*
X0120790Y0246179D01*
X0121367Y0244344D01*
X0121988Y0242524D01*
X0122654Y0240720D01*
X0123363Y0238932D01*
X0124116Y0237162D01*
X0124912Y0235411D01*
X0125750Y0233680D01*
X0126630Y0231969D01*
X0127552Y0230281D01*
X0128514Y0228616D01*
X0129517Y0226975D01*
X0130560Y0225358D01*
X0131641Y0223768D01*
X0132761Y0222204D01*
X0133919Y0220668D01*
X0135114Y0219161D01*
X0136345Y0217683D01*
X0116845Y0198183D02*
X0115160Y0200134D01*
X0113523Y0202125D01*
X0111934Y0204156D01*
X0110395Y0206224D01*
X0108907Y0208328D01*
X0107469Y0210468D01*
X0106084Y0212642D01*
X0104751Y0214849D01*
X0103472Y0217087D01*
X0102248Y0219355D01*
X0101079Y0221653D01*
X0099965Y0223978D01*
X0098908Y0226329D01*
X0097908Y0228705D01*
X0096966Y0231104D01*
X0096082Y0233526D01*
X0095256Y0235968D01*
X0094490Y0238429D01*
X0093783Y0240908D01*
X0093137Y0243404D01*
X0092551Y0245914D01*
X0092025Y0248438D01*
X0091561Y0250973D01*
X0091158Y0253520D01*
X0090817Y0256075D01*
X0090538Y0258637D01*
X0090320Y0261206D01*
X0090164Y0263779D01*
X0090071Y0266355D01*
X0090040Y0268933D01*
X0090071Y0271511D01*
X0090164Y0274087D01*
X0090320Y0276660D01*
X0090538Y0279229D01*
X0090817Y0281791D01*
X0091158Y0284346D01*
X0091561Y0286893D01*
X0092025Y0289428D01*
X0092551Y0291952D01*
X0093137Y0294462D01*
X0093783Y0296958D01*
X0094490Y0299437D01*
X0095256Y0301898D01*
X0096082Y0304340D01*
X0096966Y0306762D01*
X0097908Y0309161D01*
X0098908Y0311537D01*
X0099965Y0313888D01*
X0101079Y0316213D01*
X0102248Y0318511D01*
X0103472Y0320779D01*
X0104751Y0323017D01*
X0106084Y0325224D01*
X0107469Y0327398D01*
X0108907Y0329538D01*
X0110395Y0331642D01*
X0111934Y0333710D01*
X0113523Y0335741D01*
X0115160Y0337732D01*
X0116845Y0339683D01*
X0146345Y0330183D02*
X0147823Y0331414D01*
X0149330Y0332609D01*
X0150866Y0333767D01*
X0152430Y0334887D01*
X0154020Y0335968D01*
X0155637Y0337011D01*
X0157278Y0338014D01*
X0158943Y0338976D01*
X0160631Y0339898D01*
X0162342Y0340778D01*
X0164073Y0341616D01*
X0165824Y0342412D01*
X0167594Y0343165D01*
X0169382Y0343874D01*
X0171186Y0344540D01*
X0173006Y0345161D01*
X0174841Y0345738D01*
X0176690Y0346271D01*
X0178550Y0346757D01*
X0180422Y0347199D01*
X0182305Y0347594D01*
X0184196Y0347944D01*
X0186095Y0348248D01*
X0188001Y0348505D01*
X0189913Y0348715D01*
X0191830Y0348879D01*
X0193750Y0348996D01*
X0195672Y0349067D01*
X0197595Y0349090D01*
X0199518Y0349067D01*
X0201440Y0348996D01*
X0203360Y0348879D01*
X0205277Y0348715D01*
X0207189Y0348505D01*
X0209095Y0348248D01*
X0210994Y0347944D01*
X0212885Y0347594D01*
X0214768Y0347199D01*
X0216640Y0346757D01*
X0218500Y0346271D01*
X0220349Y0345738D01*
X0222184Y0345161D01*
X0224004Y0344540D01*
X0225808Y0343874D01*
X0227596Y0343165D01*
X0229366Y0342412D01*
X0231117Y0341616D01*
X0232848Y0340778D01*
X0234559Y0339898D01*
X0236247Y0338976D01*
X0237912Y0338014D01*
X0239553Y0337011D01*
X0241170Y0335968D01*
X0242760Y0334887D01*
X0244324Y0333767D01*
X0245860Y0332609D01*
X0247367Y0331414D01*
X0248845Y0330183D01*
X0328095Y0303933D02*
X0376845Y0303933D01*
X0377095Y0303933D01*
X0372595Y0268933D02*
X0332595Y0268933D01*
X0439595Y0210433D02*
X0446345Y0217683D01*
X0456345Y0207683D02*
X0449095Y0200933D01*
X0436845Y0188183D02*
X0429595Y0181433D01*
X0420095Y0190933D02*
X0426845Y0198183D01*
X0468595Y0220433D02*
X0475845Y0227183D01*
X0465845Y0237183D02*
X0459095Y0229933D01*
X0488595Y0239933D02*
X0496595Y0247933D01*
X0486595Y0257933D02*
X0478595Y0249933D01*
X0446345Y0217683D02*
X0445114Y0219161D01*
X0443919Y0220668D01*
X0442761Y0222204D01*
X0441641Y0223768D01*
X0440560Y0225358D01*
X0439517Y0226975D01*
X0438514Y0228616D01*
X0437552Y0230281D01*
X0436630Y0231969D01*
X0435750Y0233680D01*
X0434912Y0235411D01*
X0434116Y0237162D01*
X0433363Y0238932D01*
X0432654Y0240720D01*
X0431988Y0242524D01*
X0431367Y0244344D01*
X0430790Y0246179D01*
X0430257Y0248028D01*
X0429771Y0249888D01*
X0429329Y0251760D01*
X0428934Y0253643D01*
X0428584Y0255534D01*
X0428280Y0257433D01*
X0428023Y0259339D01*
X0427813Y0261251D01*
X0427649Y0263168D01*
X0427532Y0265088D01*
X0427461Y0267010D01*
X0427438Y0268933D01*
X0427461Y0270856D01*
X0427532Y0272778D01*
X0427649Y0274698D01*
X0427813Y0276615D01*
X0428023Y0278527D01*
X0428280Y0280433D01*
X0428584Y0282332D01*
X0428934Y0284223D01*
X0429329Y0286106D01*
X0429771Y0287978D01*
X0430257Y0289838D01*
X0430790Y0291687D01*
X0431367Y0293522D01*
X0431988Y0295342D01*
X0432654Y0297146D01*
X0433363Y0298934D01*
X0434116Y0300704D01*
X0434912Y0302455D01*
X0435750Y0304186D01*
X0436630Y0305897D01*
X0437552Y0307585D01*
X0438514Y0309250D01*
X0439517Y0310891D01*
X0440560Y0312508D01*
X0441641Y0314098D01*
X0442761Y0315662D01*
X0443919Y0317198D01*
X0445114Y0318705D01*
X0446345Y0320183D01*
X0439595Y0327433D01*
X0449095Y0336933D02*
X0456345Y0330183D01*
X0468595Y0317433D02*
X0475845Y0310683D01*
X0465845Y0300683D02*
X0459095Y0307933D01*
X0478595Y0287933D02*
X0486595Y0279933D01*
X0496345Y0289933D02*
X0488595Y0297933D01*
X0496345Y0289933D02*
X0496595Y0289933D01*
X0518595Y0289933D02*
X0518845Y0289933D01*
X0526595Y0297933D01*
X0536595Y0287933D02*
X0528595Y0279933D01*
X0568845Y0320183D02*
X0570076Y0318705D01*
X0571271Y0317198D01*
X0572429Y0315662D01*
X0573549Y0314098D01*
X0574630Y0312508D01*
X0575673Y0310891D01*
X0576676Y0309250D01*
X0577638Y0307585D01*
X0578560Y0305897D01*
X0579440Y0304186D01*
X0580278Y0302455D01*
X0581074Y0300704D01*
X0581827Y0298934D01*
X0582536Y0297146D01*
X0583202Y0295342D01*
X0583823Y0293522D01*
X0584400Y0291687D01*
X0584933Y0289838D01*
X0585419Y0287978D01*
X0585861Y0286106D01*
X0586256Y0284223D01*
X0586606Y0282332D01*
X0586910Y0280433D01*
X0587167Y0278527D01*
X0587377Y0276615D01*
X0587541Y0274698D01*
X0587658Y0272778D01*
X0587729Y0270856D01*
X0587752Y0268933D01*
X0587729Y0267010D01*
X0587658Y0265088D01*
X0587541Y0263168D01*
X0587377Y0261251D01*
X0587167Y0259339D01*
X0586910Y0257433D01*
X0586606Y0255534D01*
X0586256Y0253643D01*
X0585861Y0251760D01*
X0585419Y0249888D01*
X0584933Y0248028D01*
X0584400Y0246179D01*
X0583823Y0244344D01*
X0583202Y0242524D01*
X0582536Y0240720D01*
X0581827Y0238932D01*
X0581074Y0237162D01*
X0580278Y0235411D01*
X0579440Y0233680D01*
X0578560Y0231969D01*
X0577638Y0230281D01*
X0576676Y0228616D01*
X0575673Y0226975D01*
X0574630Y0225358D01*
X0573549Y0223768D01*
X0572429Y0222204D01*
X0571271Y0220668D01*
X0570076Y0219161D01*
X0568845Y0217683D01*
X0575595Y0210433D01*
X0566095Y0200933D02*
X0558845Y0207683D01*
X0546595Y0220433D02*
X0539345Y0227183D01*
X0549345Y0237183D02*
X0556095Y0229933D01*
X0526595Y0239933D02*
X0518595Y0247933D01*
X0528595Y0257933D02*
X0536595Y0249933D01*
X0558845Y0207683D02*
X0557367Y0206452D01*
X0555860Y0205257D01*
X0554324Y0204099D01*
X0552760Y0202979D01*
X0551170Y0201898D01*
X0549553Y0200855D01*
X0547912Y0199852D01*
X0546247Y0198890D01*
X0544559Y0197968D01*
X0542848Y0197088D01*
X0541117Y0196250D01*
X0539366Y0195454D01*
X0537596Y0194701D01*
X0535808Y0193992D01*
X0534004Y0193326D01*
X0532184Y0192705D01*
X0530349Y0192128D01*
X0528500Y0191595D01*
X0526640Y0191109D01*
X0524768Y0190667D01*
X0522885Y0190272D01*
X0520994Y0189922D01*
X0519095Y0189618D01*
X0517189Y0189361D01*
X0515277Y0189151D01*
X0513360Y0188987D01*
X0511440Y0188870D01*
X0509518Y0188799D01*
X0507595Y0188776D01*
X0505672Y0188799D01*
X0503750Y0188870D01*
X0501830Y0188987D01*
X0499913Y0189151D01*
X0498001Y0189361D01*
X0496095Y0189618D01*
X0494196Y0189922D01*
X0492305Y0190272D01*
X0490422Y0190667D01*
X0488550Y0191109D01*
X0486690Y0191595D01*
X0484841Y0192128D01*
X0483006Y0192705D01*
X0481186Y0193326D01*
X0479382Y0193992D01*
X0477594Y0194701D01*
X0475824Y0195454D01*
X0474073Y0196250D01*
X0472342Y0197088D01*
X0470631Y0197968D01*
X0468943Y0198890D01*
X0467278Y0199852D01*
X0465637Y0200855D01*
X0464020Y0201898D01*
X0462430Y0202979D01*
X0460866Y0204099D01*
X0459330Y0205257D01*
X0457823Y0206452D01*
X0456345Y0207683D01*
X0436845Y0188183D02*
X0438796Y0186498D01*
X0440787Y0184861D01*
X0442818Y0183272D01*
X0444886Y0181733D01*
X0446990Y0180245D01*
X0449130Y0178807D01*
X0451304Y0177422D01*
X0453511Y0176089D01*
X0455749Y0174810D01*
X0458017Y0173586D01*
X0460315Y0172417D01*
X0462640Y0171303D01*
X0464991Y0170246D01*
X0467367Y0169246D01*
X0469766Y0168304D01*
X0472188Y0167420D01*
X0474630Y0166594D01*
X0477091Y0165828D01*
X0479570Y0165121D01*
X0482066Y0164475D01*
X0484576Y0163889D01*
X0487100Y0163363D01*
X0489635Y0162899D01*
X0492182Y0162496D01*
X0494737Y0162155D01*
X0497299Y0161876D01*
X0499868Y0161658D01*
X0502441Y0161502D01*
X0505017Y0161409D01*
X0507595Y0161378D01*
X0510173Y0161409D01*
X0512749Y0161502D01*
X0515322Y0161658D01*
X0517891Y0161876D01*
X0520453Y0162155D01*
X0523008Y0162496D01*
X0525555Y0162899D01*
X0528090Y0163363D01*
X0530614Y0163889D01*
X0533124Y0164475D01*
X0535620Y0165121D01*
X0538099Y0165828D01*
X0540560Y0166594D01*
X0543002Y0167420D01*
X0545424Y0168304D01*
X0547823Y0169246D01*
X0550199Y0170246D01*
X0552550Y0171303D01*
X0554875Y0172417D01*
X0557173Y0173586D01*
X0559441Y0174810D01*
X0561679Y0176089D01*
X0563886Y0177422D01*
X0566060Y0178807D01*
X0568200Y0180245D01*
X0570304Y0181733D01*
X0572372Y0183272D01*
X0574403Y0184861D01*
X0576394Y0186498D01*
X0578345Y0188183D01*
X0585595Y0181433D01*
X0595095Y0190933D02*
X0588345Y0198183D01*
X0638345Y0233933D02*
X0657595Y0233933D01*
X0657735Y0233935D01*
X0657875Y0233941D01*
X0658015Y0233951D01*
X0658155Y0233964D01*
X0658294Y0233982D01*
X0658433Y0234004D01*
X0658570Y0234029D01*
X0658708Y0234058D01*
X0658844Y0234091D01*
X0658979Y0234128D01*
X0659113Y0234169D01*
X0659246Y0234214D01*
X0659378Y0234262D01*
X0659508Y0234314D01*
X0659637Y0234369D01*
X0659764Y0234428D01*
X0659890Y0234491D01*
X0660014Y0234557D01*
X0660135Y0234626D01*
X0660255Y0234699D01*
X0660373Y0234776D01*
X0660488Y0234855D01*
X0660602Y0234938D01*
X0660712Y0235024D01*
X0660821Y0235113D01*
X0660927Y0235205D01*
X0661030Y0235300D01*
X0661131Y0235397D01*
X0661228Y0235498D01*
X0661323Y0235601D01*
X0661415Y0235707D01*
X0661504Y0235816D01*
X0661590Y0235926D01*
X0661673Y0236040D01*
X0661752Y0236155D01*
X0661829Y0236273D01*
X0661902Y0236393D01*
X0661971Y0236514D01*
X0662037Y0236638D01*
X0662100Y0236764D01*
X0662159Y0236891D01*
X0662214Y0237020D01*
X0662266Y0237150D01*
X0662314Y0237282D01*
X0662359Y0237415D01*
X0662400Y0237549D01*
X0662437Y0237684D01*
X0662470Y0237820D01*
X0662499Y0237958D01*
X0662524Y0238095D01*
X0662546Y0238234D01*
X0662564Y0238373D01*
X0662577Y0238513D01*
X0662587Y0238653D01*
X0662593Y0238793D01*
X0662595Y0238933D01*
X0662595Y0298933D01*
X0662593Y0299073D01*
X0662587Y0299213D01*
X0662577Y0299353D01*
X0662564Y0299493D01*
X0662546Y0299632D01*
X0662524Y0299771D01*
X0662499Y0299908D01*
X0662470Y0300046D01*
X0662437Y0300182D01*
X0662400Y0300317D01*
X0662359Y0300451D01*
X0662314Y0300584D01*
X0662266Y0300716D01*
X0662214Y0300846D01*
X0662159Y0300975D01*
X0662100Y0301102D01*
X0662037Y0301228D01*
X0661971Y0301352D01*
X0661902Y0301473D01*
X0661829Y0301593D01*
X0661752Y0301711D01*
X0661673Y0301826D01*
X0661590Y0301940D01*
X0661504Y0302050D01*
X0661415Y0302159D01*
X0661323Y0302265D01*
X0661228Y0302368D01*
X0661131Y0302469D01*
X0661030Y0302566D01*
X0660927Y0302661D01*
X0660821Y0302753D01*
X0660712Y0302842D01*
X0660602Y0302928D01*
X0660488Y0303011D01*
X0660373Y0303090D01*
X0660255Y0303167D01*
X0660135Y0303240D01*
X0660014Y0303309D01*
X0659890Y0303375D01*
X0659764Y0303438D01*
X0659637Y0303497D01*
X0659508Y0303552D01*
X0659378Y0303604D01*
X0659246Y0303652D01*
X0659113Y0303697D01*
X0658979Y0303738D01*
X0658844Y0303775D01*
X0658708Y0303808D01*
X0658570Y0303837D01*
X0658433Y0303862D01*
X0658294Y0303884D01*
X0658155Y0303902D01*
X0658015Y0303915D01*
X0657875Y0303925D01*
X0657735Y0303931D01*
X0657595Y0303933D01*
X0638095Y0303933D01*
X0595095Y0346933D02*
X0588345Y0339683D01*
X0578345Y0349683D02*
X0585595Y0356433D01*
X0566095Y0336933D02*
X0558845Y0330183D01*
X0568845Y0320183D02*
X0575595Y0327433D01*
X0546595Y0317433D02*
X0539345Y0310683D01*
X0549345Y0300683D02*
X0556095Y0307933D01*
X0558845Y0330183D02*
X0557367Y0331414D01*
X0555860Y0332609D01*
X0554324Y0333767D01*
X0552760Y0334887D01*
X0551170Y0335968D01*
X0549553Y0337011D01*
X0547912Y0338014D01*
X0546247Y0338976D01*
X0544559Y0339898D01*
X0542848Y0340778D01*
X0541117Y0341616D01*
X0539366Y0342412D01*
X0537596Y0343165D01*
X0535808Y0343874D01*
X0534004Y0344540D01*
X0532184Y0345161D01*
X0530349Y0345738D01*
X0528500Y0346271D01*
X0526640Y0346757D01*
X0524768Y0347199D01*
X0522885Y0347594D01*
X0520994Y0347944D01*
X0519095Y0348248D01*
X0517189Y0348505D01*
X0515277Y0348715D01*
X0513360Y0348879D01*
X0511440Y0348996D01*
X0509518Y0349067D01*
X0507595Y0349090D01*
X0505672Y0349067D01*
X0503750Y0348996D01*
X0501830Y0348879D01*
X0499913Y0348715D01*
X0498001Y0348505D01*
X0496095Y0348248D01*
X0494196Y0347944D01*
X0492305Y0347594D01*
X0490422Y0347199D01*
X0488550Y0346757D01*
X0486690Y0346271D01*
X0484841Y0345738D01*
X0483006Y0345161D01*
X0481186Y0344540D01*
X0479382Y0343874D01*
X0477594Y0343165D01*
X0475824Y0342412D01*
X0474073Y0341616D01*
X0472342Y0340778D01*
X0470631Y0339898D01*
X0468943Y0338976D01*
X0467278Y0338014D01*
X0465637Y0337011D01*
X0464020Y0335968D01*
X0462430Y0334887D01*
X0460866Y0333767D01*
X0459330Y0332609D01*
X0457823Y0331414D01*
X0456345Y0330183D01*
X0426845Y0339683D02*
X0420095Y0346933D01*
X0429595Y0356433D02*
X0436845Y0349683D01*
X0438796Y0351368D01*
X0440787Y0353005D01*
X0442818Y0354594D01*
X0444886Y0356133D01*
X0446990Y0357621D01*
X0449130Y0359059D01*
X0451304Y0360444D01*
X0453511Y0361777D01*
X0455749Y0363056D01*
X0458017Y0364280D01*
X0460315Y0365449D01*
X0462640Y0366563D01*
X0464991Y0367620D01*
X0467367Y0368620D01*
X0469766Y0369562D01*
X0472188Y0370446D01*
X0474630Y0371272D01*
X0477091Y0372038D01*
X0479570Y0372745D01*
X0482066Y0373391D01*
X0484576Y0373977D01*
X0487100Y0374503D01*
X0489635Y0374967D01*
X0492182Y0375370D01*
X0494737Y0375711D01*
X0497299Y0375990D01*
X0499868Y0376208D01*
X0502441Y0376364D01*
X0505017Y0376457D01*
X0507595Y0376488D01*
X0510173Y0376457D01*
X0512749Y0376364D01*
X0515322Y0376208D01*
X0517891Y0375990D01*
X0520453Y0375711D01*
X0523008Y0375370D01*
X0525555Y0374967D01*
X0528090Y0374503D01*
X0530614Y0373977D01*
X0533124Y0373391D01*
X0535620Y0372745D01*
X0538099Y0372038D01*
X0540560Y0371272D01*
X0543002Y0370446D01*
X0545424Y0369562D01*
X0547823Y0368620D01*
X0550199Y0367620D01*
X0552550Y0366563D01*
X0554875Y0365449D01*
X0557173Y0364280D01*
X0559441Y0363056D01*
X0561679Y0361777D01*
X0563886Y0360444D01*
X0566060Y0359059D01*
X0568200Y0357621D01*
X0570304Y0356133D01*
X0572372Y0354594D01*
X0574403Y0353005D01*
X0576394Y0351368D01*
X0578345Y0349683D01*
X0588345Y0339683D02*
X0590030Y0337732D01*
X0591667Y0335741D01*
X0593256Y0333710D01*
X0594795Y0331642D01*
X0596283Y0329538D01*
X0597721Y0327398D01*
X0599106Y0325224D01*
X0600439Y0323017D01*
X0601718Y0320779D01*
X0602942Y0318511D01*
X0604111Y0316213D01*
X0605225Y0313888D01*
X0606282Y0311537D01*
X0607282Y0309161D01*
X0608224Y0306762D01*
X0609108Y0304340D01*
X0609934Y0301898D01*
X0610700Y0299437D01*
X0611407Y0296958D01*
X0612053Y0294462D01*
X0612639Y0291952D01*
X0613165Y0289428D01*
X0613629Y0286893D01*
X0614032Y0284346D01*
X0614373Y0281791D01*
X0614652Y0279229D01*
X0614870Y0276660D01*
X0615026Y0274087D01*
X0615119Y0271511D01*
X0615150Y0268933D01*
X0615119Y0266355D01*
X0615026Y0263779D01*
X0614870Y0261206D01*
X0614652Y0258637D01*
X0614373Y0256075D01*
X0614032Y0253520D01*
X0613629Y0250973D01*
X0613165Y0248438D01*
X0612639Y0245914D01*
X0612053Y0243404D01*
X0611407Y0240908D01*
X0610700Y0238429D01*
X0609934Y0235968D01*
X0609108Y0233526D01*
X0608224Y0231104D01*
X0607282Y0228705D01*
X0606282Y0226329D01*
X0605225Y0223978D01*
X0604111Y0221653D01*
X0602942Y0219355D01*
X0601718Y0217087D01*
X0600439Y0214849D01*
X0599106Y0212642D01*
X0597721Y0210468D01*
X0596283Y0208328D01*
X0594795Y0206224D01*
X0593256Y0204156D01*
X0591667Y0202125D01*
X0590030Y0200134D01*
X0588345Y0198183D01*
X0420095Y0190933D02*
X0418237Y0193084D01*
X0416432Y0195279D01*
X0414681Y0197517D01*
X0412984Y0199797D01*
X0411343Y0202117D01*
X0409758Y0204477D01*
X0408231Y0206873D01*
X0406762Y0209306D01*
X0405352Y0211774D01*
X0404002Y0214275D01*
X0402713Y0216808D01*
X0401485Y0219371D01*
X0400320Y0221963D01*
X0399217Y0224582D01*
X0398179Y0227228D01*
X0397204Y0229897D01*
X0396294Y0232590D01*
X0395449Y0235303D01*
X0394670Y0238036D01*
X0393957Y0240788D01*
X0393311Y0243555D01*
X0392732Y0246337D01*
X0392220Y0249133D01*
X0391776Y0251940D01*
X0391400Y0254757D01*
X0391092Y0257582D01*
X0390852Y0260414D01*
X0390680Y0263251D01*
X0390577Y0266091D01*
X0390543Y0268933D01*
X0390577Y0271775D01*
X0390680Y0274615D01*
X0390852Y0277452D01*
X0391092Y0280284D01*
X0391400Y0283109D01*
X0391776Y0285926D01*
X0392220Y0288733D01*
X0392732Y0291529D01*
X0393311Y0294311D01*
X0393957Y0297078D01*
X0394670Y0299830D01*
X0395449Y0302563D01*
X0396294Y0305276D01*
X0397204Y0307969D01*
X0398179Y0310638D01*
X0399217Y0313284D01*
X0400320Y0315903D01*
X0401485Y0318495D01*
X0402713Y0321058D01*
X0404002Y0323591D01*
X0405352Y0326092D01*
X0406762Y0328560D01*
X0408231Y0330993D01*
X0409758Y0333389D01*
X0411343Y0335749D01*
X0412984Y0338069D01*
X0414681Y0340349D01*
X0416432Y0342587D01*
X0418237Y0344782D01*
X0420095Y0346933D01*
X0426845Y0339683D02*
X0425160Y0337732D01*
X0423523Y0335741D01*
X0421934Y0333710D01*
X0420395Y0331642D01*
X0418907Y0329538D01*
X0417469Y0327398D01*
X0416084Y0325224D01*
X0414751Y0323017D01*
X0413472Y0320779D01*
X0412248Y0318511D01*
X0411079Y0316213D01*
X0409965Y0313888D01*
X0408908Y0311537D01*
X0407908Y0309161D01*
X0406966Y0306762D01*
X0406082Y0304340D01*
X0405256Y0301898D01*
X0404490Y0299437D01*
X0403783Y0296958D01*
X0403137Y0294462D01*
X0402551Y0291952D01*
X0402025Y0289428D01*
X0401561Y0286893D01*
X0401158Y0284346D01*
X0400817Y0281791D01*
X0400538Y0279229D01*
X0400320Y0276660D01*
X0400164Y0274087D01*
X0400071Y0271511D01*
X0400040Y0268933D01*
X0400071Y0266355D01*
X0400164Y0263779D01*
X0400320Y0261206D01*
X0400538Y0258637D01*
X0400817Y0256075D01*
X0401158Y0253520D01*
X0401561Y0250973D01*
X0402025Y0248438D01*
X0402551Y0245914D01*
X0403137Y0243404D01*
X0403783Y0240908D01*
X0404490Y0238429D01*
X0405256Y0235968D01*
X0406082Y0233526D01*
X0406966Y0231104D01*
X0407908Y0228705D01*
X0408908Y0226329D01*
X0409965Y0223978D01*
X0411079Y0221653D01*
X0412248Y0219355D01*
X0413472Y0217087D01*
X0414751Y0214849D01*
X0416084Y0212642D01*
X0417469Y0210468D01*
X0418907Y0208328D01*
X0420395Y0206224D01*
X0421934Y0204156D01*
X0423523Y0202125D01*
X0425160Y0200134D01*
X0426845Y0198183D01*
X0595095Y0190933D02*
X0596953Y0193084D01*
X0598758Y0195279D01*
X0600509Y0197517D01*
X0602206Y0199797D01*
X0603847Y0202117D01*
X0605432Y0204477D01*
X0606959Y0206873D01*
X0608428Y0209306D01*
X0609838Y0211774D01*
X0611188Y0214275D01*
X0612477Y0216808D01*
X0613705Y0219371D01*
X0614870Y0221963D01*
X0615973Y0224582D01*
X0617011Y0227228D01*
X0617986Y0229897D01*
X0618896Y0232590D01*
X0619741Y0235303D01*
X0620520Y0238036D01*
X0621233Y0240788D01*
X0621879Y0243555D01*
X0622458Y0246337D01*
X0622970Y0249133D01*
X0623414Y0251940D01*
X0623790Y0254757D01*
X0624098Y0257582D01*
X0624338Y0260414D01*
X0624510Y0263251D01*
X0624613Y0266091D01*
X0624647Y0268933D01*
X0624613Y0271775D01*
X0624510Y0274615D01*
X0624338Y0277452D01*
X0624098Y0280284D01*
X0623790Y0283109D01*
X0623414Y0285926D01*
X0622970Y0288733D01*
X0622458Y0291529D01*
X0621879Y0294311D01*
X0621233Y0297078D01*
X0620520Y0299830D01*
X0619741Y0302563D01*
X0618896Y0305276D01*
X0617986Y0307969D01*
X0617011Y0310638D01*
X0615973Y0313284D01*
X0614870Y0315903D01*
X0613705Y0318495D01*
X0612477Y0321058D01*
X0611188Y0323591D01*
X0609838Y0326092D01*
X0608428Y0328560D01*
X0606959Y0330993D01*
X0605432Y0333389D01*
X0603847Y0335749D01*
X0602206Y0338069D01*
X0600509Y0340349D01*
X0598758Y0342587D01*
X0596953Y0344782D01*
X0595095Y0346933D01*
X0585595Y0181433D02*
X0583444Y0179575D01*
X0581249Y0177770D01*
X0579011Y0176019D01*
X0576731Y0174322D01*
X0574411Y0172681D01*
X0572051Y0171096D01*
X0569655Y0169569D01*
X0567222Y0168100D01*
X0564754Y0166690D01*
X0562253Y0165340D01*
X0559720Y0164051D01*
X0557157Y0162823D01*
X0554565Y0161658D01*
X0551946Y0160555D01*
X0549300Y0159517D01*
X0546631Y0158542D01*
X0543938Y0157632D01*
X0541225Y0156787D01*
X0538492Y0156008D01*
X0535740Y0155295D01*
X0532973Y0154649D01*
X0530191Y0154070D01*
X0527395Y0153558D01*
X0524588Y0153114D01*
X0521771Y0152738D01*
X0518946Y0152430D01*
X0516114Y0152190D01*
X0513277Y0152018D01*
X0510437Y0151915D01*
X0507595Y0151881D01*
X0504753Y0151915D01*
X0501913Y0152018D01*
X0499076Y0152190D01*
X0496244Y0152430D01*
X0493419Y0152738D01*
X0490602Y0153114D01*
X0487795Y0153558D01*
X0484999Y0154070D01*
X0482217Y0154649D01*
X0479450Y0155295D01*
X0476698Y0156008D01*
X0473965Y0156787D01*
X0471252Y0157632D01*
X0468559Y0158542D01*
X0465890Y0159517D01*
X0463244Y0160555D01*
X0460625Y0161658D01*
X0458033Y0162823D01*
X0455470Y0164051D01*
X0452937Y0165340D01*
X0450436Y0166690D01*
X0447968Y0168100D01*
X0445535Y0169569D01*
X0443139Y0171096D01*
X0440779Y0172681D01*
X0438459Y0174322D01*
X0436179Y0176019D01*
X0433941Y0177770D01*
X0431746Y0179575D01*
X0429595Y0181433D01*
X0429595Y0356433D02*
X0431746Y0358291D01*
X0433941Y0360096D01*
X0436179Y0361847D01*
X0438459Y0363544D01*
X0440779Y0365185D01*
X0443139Y0366770D01*
X0445535Y0368297D01*
X0447968Y0369766D01*
X0450436Y0371176D01*
X0452937Y0372526D01*
X0455470Y0373815D01*
X0458033Y0375043D01*
X0460625Y0376208D01*
X0463244Y0377311D01*
X0465890Y0378349D01*
X0468559Y0379324D01*
X0471252Y0380234D01*
X0473965Y0381079D01*
X0476698Y0381858D01*
X0479450Y0382571D01*
X0482217Y0383217D01*
X0484999Y0383796D01*
X0487795Y0384308D01*
X0490602Y0384752D01*
X0493419Y0385128D01*
X0496244Y0385436D01*
X0499076Y0385676D01*
X0501913Y0385848D01*
X0504753Y0385951D01*
X0507595Y0385985D01*
X0510437Y0385951D01*
X0513277Y0385848D01*
X0516114Y0385676D01*
X0518946Y0385436D01*
X0521771Y0385128D01*
X0524588Y0384752D01*
X0527395Y0384308D01*
X0530191Y0383796D01*
X0532973Y0383217D01*
X0535740Y0382571D01*
X0538492Y0381858D01*
X0541225Y0381079D01*
X0543938Y0380234D01*
X0546631Y0379324D01*
X0549300Y0378349D01*
X0551946Y0377311D01*
X0554565Y0376208D01*
X0557157Y0375043D01*
X0559720Y0373815D01*
X0562253Y0372526D01*
X0564754Y0371176D01*
X0567222Y0369766D01*
X0569655Y0368297D01*
X0572051Y0366770D01*
X0574411Y0365185D01*
X0576731Y0363544D01*
X0579011Y0361847D01*
X0581249Y0360096D01*
X0583444Y0358291D01*
X0585595Y0356433D01*
X0546595Y0220433D02*
X0545385Y0219495D01*
X0544153Y0218587D01*
X0542899Y0217709D01*
X0541624Y0216862D01*
X0540329Y0216046D01*
X0539014Y0215262D01*
X0537681Y0214511D01*
X0536329Y0213792D01*
X0534960Y0213107D01*
X0533575Y0212455D01*
X0532175Y0211837D01*
X0530759Y0211254D01*
X0529330Y0210705D01*
X0527888Y0210192D01*
X0526434Y0209714D01*
X0524968Y0209271D01*
X0523493Y0208865D01*
X0522007Y0208494D01*
X0520513Y0208160D01*
X0519012Y0207863D01*
X0517503Y0207603D01*
X0515989Y0207379D01*
X0514470Y0207192D01*
X0512946Y0207043D01*
X0511420Y0206931D01*
X0509891Y0206856D01*
X0508360Y0206819D01*
X0506830Y0206819D01*
X0505299Y0206856D01*
X0503770Y0206931D01*
X0502244Y0207043D01*
X0500720Y0207192D01*
X0499201Y0207379D01*
X0497687Y0207603D01*
X0496178Y0207863D01*
X0494677Y0208160D01*
X0493183Y0208494D01*
X0491697Y0208865D01*
X0490222Y0209271D01*
X0488756Y0209714D01*
X0487302Y0210192D01*
X0485860Y0210705D01*
X0484431Y0211254D01*
X0483015Y0211837D01*
X0481615Y0212455D01*
X0480230Y0213107D01*
X0478861Y0213792D01*
X0477509Y0214511D01*
X0476176Y0215262D01*
X0474861Y0216046D01*
X0473566Y0216862D01*
X0472291Y0217709D01*
X0471037Y0218587D01*
X0469805Y0219495D01*
X0468595Y0220433D01*
X0507595Y0403934D02*
X0510866Y0403889D01*
X0514135Y0403765D01*
X0517401Y0403563D01*
X0520660Y0403281D01*
X0523912Y0402921D01*
X0527154Y0402483D01*
X0530385Y0401966D01*
X0533602Y0401371D01*
X0536804Y0400699D01*
X0539988Y0399950D01*
X0543154Y0399124D01*
X0546299Y0398222D01*
X0549421Y0397244D01*
X0552518Y0396191D01*
X0555589Y0395063D01*
X0558633Y0393862D01*
X0561646Y0392587D01*
X0564627Y0391240D01*
X0567575Y0389821D01*
X0570488Y0388332D01*
X0573364Y0386772D01*
X0576202Y0385144D01*
X0578999Y0383448D01*
X0581755Y0381684D01*
X0584467Y0379855D01*
X0587134Y0377960D01*
X0589755Y0376002D01*
X0592328Y0373980D01*
X0594851Y0371898D01*
X0597323Y0369755D01*
X0599742Y0367553D01*
X0602108Y0365293D01*
X0604418Y0362976D01*
X0606672Y0360605D01*
X0608868Y0358179D01*
X0611005Y0355702D01*
X0613081Y0353173D01*
X0615095Y0350595D01*
X0617047Y0347969D01*
X0618934Y0345297D01*
X0620757Y0342580D01*
X0622513Y0339820D01*
X0624202Y0337018D01*
X0625823Y0334176D01*
X0627375Y0331296D01*
X0628857Y0328379D01*
X0630268Y0325427D01*
X0631607Y0322442D01*
X0632873Y0319426D01*
X0634067Y0316380D01*
X0635186Y0313306D01*
X0636231Y0310205D01*
X0637201Y0307081D01*
X0638095Y0303934D01*
X0459095Y0307933D02*
X0458157Y0306723D01*
X0457249Y0305491D01*
X0456371Y0304237D01*
X0455524Y0302962D01*
X0454708Y0301667D01*
X0453924Y0300352D01*
X0453173Y0299019D01*
X0452454Y0297667D01*
X0451769Y0296298D01*
X0451117Y0294913D01*
X0450499Y0293513D01*
X0449916Y0292097D01*
X0449367Y0290668D01*
X0448854Y0289226D01*
X0448376Y0287772D01*
X0447933Y0286306D01*
X0447527Y0284831D01*
X0447156Y0283345D01*
X0446822Y0281851D01*
X0446525Y0280350D01*
X0446265Y0278841D01*
X0446041Y0277327D01*
X0445854Y0275808D01*
X0445705Y0274284D01*
X0445593Y0272758D01*
X0445518Y0271229D01*
X0445481Y0269698D01*
X0445481Y0268168D01*
X0445518Y0266637D01*
X0445593Y0265108D01*
X0445705Y0263582D01*
X0445854Y0262058D01*
X0446041Y0260539D01*
X0446265Y0259025D01*
X0446525Y0257516D01*
X0446822Y0256015D01*
X0447156Y0254521D01*
X0447527Y0253035D01*
X0447933Y0251560D01*
X0448376Y0250094D01*
X0448854Y0248640D01*
X0449367Y0247198D01*
X0449916Y0245769D01*
X0450499Y0244353D01*
X0451117Y0242953D01*
X0451769Y0241568D01*
X0452454Y0240199D01*
X0453173Y0238847D01*
X0453924Y0237514D01*
X0454708Y0236199D01*
X0455524Y0234904D01*
X0456371Y0233629D01*
X0457249Y0232375D01*
X0458157Y0231143D01*
X0459095Y0229933D01*
X0556095Y0229933D02*
X0557033Y0231143D01*
X0557941Y0232375D01*
X0558819Y0233629D01*
X0559666Y0234904D01*
X0560482Y0236199D01*
X0561266Y0237514D01*
X0562017Y0238847D01*
X0562736Y0240199D01*
X0563421Y0241568D01*
X0564073Y0242953D01*
X0564691Y0244353D01*
X0565274Y0245769D01*
X0565823Y0247198D01*
X0566336Y0248640D01*
X0566814Y0250094D01*
X0567257Y0251560D01*
X0567663Y0253035D01*
X0568034Y0254521D01*
X0568368Y0256015D01*
X0568665Y0257516D01*
X0568925Y0259025D01*
X0569149Y0260539D01*
X0569336Y0262058D01*
X0569485Y0263582D01*
X0569597Y0265108D01*
X0569672Y0266637D01*
X0569709Y0268168D01*
X0569709Y0269698D01*
X0569672Y0271229D01*
X0569597Y0272758D01*
X0569485Y0274284D01*
X0569336Y0275808D01*
X0569149Y0277327D01*
X0568925Y0278841D01*
X0568665Y0280350D01*
X0568368Y0281851D01*
X0568034Y0283345D01*
X0567663Y0284831D01*
X0567257Y0286306D01*
X0566814Y0287772D01*
X0566336Y0289226D01*
X0565823Y0290668D01*
X0565274Y0292097D01*
X0564691Y0293513D01*
X0564073Y0294913D01*
X0563421Y0296298D01*
X0562736Y0297667D01*
X0562017Y0299019D01*
X0561266Y0300352D01*
X0560482Y0301667D01*
X0559666Y0302962D01*
X0558819Y0304237D01*
X0557941Y0305491D01*
X0557033Y0306723D01*
X0556095Y0307933D01*
X0439596Y0327433D02*
X0438190Y0325746D01*
X0436826Y0324025D01*
X0435505Y0322272D01*
X0434226Y0320487D01*
X0432992Y0318672D01*
X0431802Y0316827D01*
X0430657Y0314953D01*
X0429559Y0313052D01*
X0428507Y0311125D01*
X0427502Y0309173D01*
X0426545Y0307197D01*
X0425637Y0305198D01*
X0424778Y0303178D01*
X0423968Y0301137D01*
X0423208Y0299078D01*
X0422498Y0297000D01*
X0421840Y0294906D01*
X0421232Y0292796D01*
X0420677Y0290672D01*
X0420173Y0288535D01*
X0419721Y0286386D01*
X0419322Y0284227D01*
X0418976Y0282059D01*
X0418682Y0279884D01*
X0418442Y0277701D01*
X0418255Y0275514D01*
X0418121Y0273322D01*
X0418041Y0271128D01*
X0418014Y0268933D01*
X0418041Y0266738D01*
X0418121Y0264544D01*
X0418255Y0262352D01*
X0418442Y0260165D01*
X0418682Y0257982D01*
X0418976Y0255807D01*
X0419322Y0253639D01*
X0419721Y0251480D01*
X0420173Y0249331D01*
X0420677Y0247194D01*
X0421232Y0245070D01*
X0421840Y0242960D01*
X0422498Y0240866D01*
X0423208Y0238788D01*
X0423968Y0236729D01*
X0424778Y0234688D01*
X0425637Y0232668D01*
X0426545Y0230669D01*
X0427502Y0228693D01*
X0428507Y0226741D01*
X0429559Y0224814D01*
X0430657Y0222913D01*
X0431802Y0221039D01*
X0432992Y0219194D01*
X0434226Y0217379D01*
X0435505Y0215594D01*
X0436826Y0213841D01*
X0438190Y0212120D01*
X0439596Y0210433D01*
X0575594Y0210433D02*
X0577000Y0212120D01*
X0578364Y0213841D01*
X0579685Y0215594D01*
X0580964Y0217379D01*
X0582198Y0219194D01*
X0583388Y0221039D01*
X0584533Y0222913D01*
X0585631Y0224814D01*
X0586683Y0226741D01*
X0587688Y0228693D01*
X0588645Y0230669D01*
X0589553Y0232668D01*
X0590412Y0234688D01*
X0591222Y0236729D01*
X0591982Y0238788D01*
X0592692Y0240866D01*
X0593350Y0242960D01*
X0593958Y0245070D01*
X0594513Y0247194D01*
X0595017Y0249331D01*
X0595469Y0251480D01*
X0595868Y0253639D01*
X0596214Y0255807D01*
X0596508Y0257982D01*
X0596748Y0260165D01*
X0596935Y0262352D01*
X0597069Y0264544D01*
X0597149Y0266738D01*
X0597176Y0268933D01*
X0597149Y0271128D01*
X0597069Y0273322D01*
X0596935Y0275514D01*
X0596748Y0277701D01*
X0596508Y0279884D01*
X0596214Y0282059D01*
X0595868Y0284227D01*
X0595469Y0286386D01*
X0595017Y0288535D01*
X0594513Y0290672D01*
X0593958Y0292796D01*
X0593350Y0294906D01*
X0592692Y0297000D01*
X0591982Y0299078D01*
X0591222Y0301137D01*
X0590412Y0303178D01*
X0589553Y0305198D01*
X0588645Y0307197D01*
X0587688Y0309173D01*
X0586683Y0311125D01*
X0585631Y0313052D01*
X0584533Y0314953D01*
X0583388Y0316827D01*
X0582198Y0318672D01*
X0580964Y0320487D01*
X0579685Y0322272D01*
X0578364Y0324025D01*
X0577000Y0325746D01*
X0575594Y0327433D01*
X0536845Y0288183D02*
X0537302Y0287474D01*
X0537742Y0286753D01*
X0538164Y0286022D01*
X0538569Y0285281D01*
X0538955Y0284530D01*
X0539322Y0283771D01*
X0539672Y0283002D01*
X0540002Y0282225D01*
X0540313Y0281441D01*
X0540605Y0280648D01*
X0540878Y0279850D01*
X0541131Y0279044D01*
X0541364Y0278233D01*
X0541578Y0277416D01*
X0541771Y0276595D01*
X0541945Y0275769D01*
X0542098Y0274939D01*
X0542231Y0274105D01*
X0542344Y0273268D01*
X0542437Y0272429D01*
X0542508Y0271588D01*
X0542560Y0270746D01*
X0542591Y0269902D01*
X0542601Y0269058D01*
X0542591Y0268214D01*
X0542560Y0267370D01*
X0542508Y0266528D01*
X0542437Y0265687D01*
X0542344Y0264848D01*
X0542231Y0264011D01*
X0542098Y0263177D01*
X0541945Y0262347D01*
X0541771Y0261521D01*
X0541578Y0260700D01*
X0541364Y0259883D01*
X0541131Y0259072D01*
X0540878Y0258266D01*
X0540605Y0257468D01*
X0540313Y0256675D01*
X0540002Y0255891D01*
X0539672Y0255114D01*
X0539322Y0254345D01*
X0538955Y0253586D01*
X0538569Y0252835D01*
X0538164Y0252094D01*
X0537742Y0251363D01*
X0537302Y0250642D01*
X0536845Y0249933D01*
X0549345Y0237183D02*
X0550103Y0238195D01*
X0550835Y0239226D01*
X0551543Y0240273D01*
X0552225Y0241338D01*
X0552881Y0242419D01*
X0553510Y0243515D01*
X0554113Y0244627D01*
X0554688Y0245752D01*
X0555236Y0246891D01*
X0555757Y0248044D01*
X0556249Y0249208D01*
X0556713Y0250384D01*
X0557148Y0251571D01*
X0557555Y0252768D01*
X0557932Y0253975D01*
X0558280Y0255190D01*
X0558598Y0256414D01*
X0558887Y0257645D01*
X0559145Y0258882D01*
X0559374Y0260125D01*
X0559572Y0261374D01*
X0559740Y0262627D01*
X0559878Y0263884D01*
X0559985Y0265144D01*
X0560062Y0266405D01*
X0560108Y0267669D01*
X0560123Y0268933D01*
X0560108Y0270197D01*
X0560062Y0271461D01*
X0559985Y0272722D01*
X0559878Y0273982D01*
X0559740Y0275239D01*
X0559572Y0276492D01*
X0559374Y0277741D01*
X0559145Y0278984D01*
X0558887Y0280221D01*
X0558598Y0281452D01*
X0558280Y0282676D01*
X0557932Y0283891D01*
X0557555Y0285098D01*
X0557148Y0286295D01*
X0556713Y0287482D01*
X0556249Y0288658D01*
X0555757Y0289822D01*
X0555236Y0290975D01*
X0554688Y0292114D01*
X0554113Y0293239D01*
X0553510Y0294351D01*
X0552881Y0295447D01*
X0552225Y0296528D01*
X0551543Y0297593D01*
X0550835Y0298640D01*
X0550103Y0299671D01*
X0549345Y0300683D01*
X0566095Y0200934D02*
X0564408Y0199528D01*
X0562687Y0198164D01*
X0560934Y0196843D01*
X0559149Y0195564D01*
X0557334Y0194330D01*
X0555489Y0193140D01*
X0553615Y0191995D01*
X0551714Y0190897D01*
X0549787Y0189845D01*
X0547835Y0188840D01*
X0545859Y0187883D01*
X0543860Y0186975D01*
X0541840Y0186116D01*
X0539799Y0185306D01*
X0537740Y0184546D01*
X0535662Y0183836D01*
X0533568Y0183178D01*
X0531458Y0182570D01*
X0529334Y0182015D01*
X0527197Y0181511D01*
X0525048Y0181059D01*
X0522889Y0180660D01*
X0520721Y0180314D01*
X0518546Y0180020D01*
X0516363Y0179780D01*
X0514176Y0179593D01*
X0511984Y0179459D01*
X0509790Y0179379D01*
X0507595Y0179352D01*
X0505400Y0179379D01*
X0503206Y0179459D01*
X0501014Y0179593D01*
X0498827Y0179780D01*
X0496644Y0180020D01*
X0494469Y0180314D01*
X0492301Y0180660D01*
X0490142Y0181059D01*
X0487993Y0181511D01*
X0485856Y0182015D01*
X0483732Y0182570D01*
X0481622Y0183178D01*
X0479528Y0183836D01*
X0477450Y0184546D01*
X0475391Y0185306D01*
X0473350Y0186116D01*
X0471330Y0186975D01*
X0469331Y0187883D01*
X0467355Y0188840D01*
X0465403Y0189845D01*
X0463476Y0190897D01*
X0461575Y0191995D01*
X0459701Y0193140D01*
X0457856Y0194330D01*
X0456041Y0195564D01*
X0454256Y0196843D01*
X0452503Y0198164D01*
X0450782Y0199528D01*
X0449095Y0200934D01*
X0468595Y0317433D02*
X0469805Y0318371D01*
X0471037Y0319279D01*
X0472291Y0320157D01*
X0473566Y0321004D01*
X0474861Y0321820D01*
X0476176Y0322604D01*
X0477509Y0323355D01*
X0478861Y0324074D01*
X0480230Y0324759D01*
X0481615Y0325411D01*
X0483015Y0326029D01*
X0484431Y0326612D01*
X0485860Y0327161D01*
X0487302Y0327674D01*
X0488756Y0328152D01*
X0490222Y0328595D01*
X0491697Y0329001D01*
X0493183Y0329372D01*
X0494677Y0329706D01*
X0496178Y0330003D01*
X0497687Y0330263D01*
X0499201Y0330487D01*
X0500720Y0330674D01*
X0502244Y0330823D01*
X0503770Y0330935D01*
X0505299Y0331010D01*
X0506830Y0331047D01*
X0508360Y0331047D01*
X0509891Y0331010D01*
X0511420Y0330935D01*
X0512946Y0330823D01*
X0514470Y0330674D01*
X0515989Y0330487D01*
X0517503Y0330263D01*
X0519012Y0330003D01*
X0520513Y0329706D01*
X0522007Y0329372D01*
X0523493Y0329001D01*
X0524968Y0328595D01*
X0526434Y0328152D01*
X0527888Y0327674D01*
X0529330Y0327161D01*
X0530759Y0326612D01*
X0532175Y0326029D01*
X0533575Y0325411D01*
X0534960Y0324759D01*
X0536329Y0324074D01*
X0537681Y0323355D01*
X0539014Y0322604D01*
X0540329Y0321820D01*
X0541624Y0321004D01*
X0542899Y0320157D01*
X0544153Y0319279D01*
X0545385Y0318371D01*
X0546595Y0317433D01*
X0638345Y0233933D02*
X0637449Y0230782D01*
X0636477Y0227653D01*
X0635430Y0224549D01*
X0634308Y0221471D01*
X0633111Y0218422D01*
X0631842Y0215402D01*
X0630500Y0212413D01*
X0629085Y0209458D01*
X0627600Y0206538D01*
X0626045Y0203654D01*
X0624420Y0200810D01*
X0622727Y0198005D01*
X0620967Y0195242D01*
X0619141Y0192522D01*
X0617249Y0189848D01*
X0615293Y0187219D01*
X0613274Y0184639D01*
X0611193Y0182109D01*
X0609052Y0179629D01*
X0606852Y0177202D01*
X0604593Y0174829D01*
X0602278Y0172512D01*
X0599907Y0170251D01*
X0597482Y0168047D01*
X0595005Y0165904D01*
X0592477Y0163820D01*
X0589899Y0161799D01*
X0587273Y0159840D01*
X0584600Y0157946D01*
X0581882Y0156116D01*
X0579121Y0154353D01*
X0576318Y0152657D01*
X0573475Y0151030D01*
X0570593Y0149471D01*
X0567675Y0147983D01*
X0564721Y0146566D01*
X0561734Y0145221D01*
X0558715Y0143948D01*
X0555667Y0142748D01*
X0552590Y0141623D01*
X0549487Y0140572D01*
X0546359Y0139597D01*
X0543209Y0138698D01*
X0540038Y0137875D01*
X0536848Y0137129D01*
X0533641Y0136460D01*
X0530419Y0135869D01*
X0527183Y0135357D01*
X0523936Y0134922D01*
X0520679Y0134566D01*
X0517415Y0134289D01*
X0514145Y0134091D01*
X0510871Y0133973D01*
X0507595Y0133933D01*
X0566095Y0336932D02*
X0564408Y0338338D01*
X0562687Y0339702D01*
X0560934Y0341023D01*
X0559149Y0342302D01*
X0557334Y0343536D01*
X0555489Y0344726D01*
X0553615Y0345871D01*
X0551714Y0346969D01*
X0549787Y0348021D01*
X0547835Y0349026D01*
X0545859Y0349983D01*
X0543860Y0350891D01*
X0541840Y0351750D01*
X0539799Y0352560D01*
X0537740Y0353320D01*
X0535662Y0354030D01*
X0533568Y0354688D01*
X0531458Y0355296D01*
X0529334Y0355851D01*
X0527197Y0356355D01*
X0525048Y0356807D01*
X0522889Y0357206D01*
X0520721Y0357552D01*
X0518546Y0357846D01*
X0516363Y0358086D01*
X0514176Y0358273D01*
X0511984Y0358407D01*
X0509790Y0358487D01*
X0507595Y0358514D01*
X0505400Y0358487D01*
X0503206Y0358407D01*
X0501014Y0358273D01*
X0498827Y0358086D01*
X0496644Y0357846D01*
X0494469Y0357552D01*
X0492301Y0357206D01*
X0490142Y0356807D01*
X0487993Y0356355D01*
X0485856Y0355851D01*
X0483732Y0355296D01*
X0481622Y0354688D01*
X0479528Y0354030D01*
X0477450Y0353320D01*
X0475391Y0352560D01*
X0473350Y0351750D01*
X0471330Y0350891D01*
X0469331Y0349983D01*
X0467355Y0349026D01*
X0465403Y0348021D01*
X0463476Y0346969D01*
X0461575Y0345871D01*
X0459701Y0344726D01*
X0457856Y0343536D01*
X0456041Y0342302D01*
X0454256Y0341023D01*
X0452503Y0339702D01*
X0450782Y0338338D01*
X0449095Y0336932D01*
X0488345Y0298183D02*
X0489054Y0298640D01*
X0489775Y0299080D01*
X0490506Y0299502D01*
X0491247Y0299907D01*
X0491998Y0300293D01*
X0492757Y0300660D01*
X0493526Y0301010D01*
X0494303Y0301340D01*
X0495087Y0301651D01*
X0495880Y0301943D01*
X0496678Y0302216D01*
X0497484Y0302469D01*
X0498295Y0302702D01*
X0499112Y0302916D01*
X0499933Y0303109D01*
X0500759Y0303283D01*
X0501589Y0303436D01*
X0502423Y0303569D01*
X0503260Y0303682D01*
X0504099Y0303775D01*
X0504940Y0303846D01*
X0505782Y0303898D01*
X0506626Y0303929D01*
X0507470Y0303939D01*
X0508314Y0303929D01*
X0509158Y0303898D01*
X0510000Y0303846D01*
X0510841Y0303775D01*
X0511680Y0303682D01*
X0512517Y0303569D01*
X0513351Y0303436D01*
X0514181Y0303283D01*
X0515007Y0303109D01*
X0515828Y0302916D01*
X0516645Y0302702D01*
X0517456Y0302469D01*
X0518262Y0302216D01*
X0519060Y0301943D01*
X0519853Y0301651D01*
X0520637Y0301340D01*
X0521414Y0301010D01*
X0522183Y0300660D01*
X0522942Y0300293D01*
X0523693Y0299907D01*
X0524434Y0299502D01*
X0525165Y0299080D01*
X0525886Y0298640D01*
X0526595Y0298183D01*
X0539345Y0310683D02*
X0538333Y0311441D01*
X0537302Y0312173D01*
X0536255Y0312881D01*
X0535190Y0313563D01*
X0534109Y0314219D01*
X0533013Y0314848D01*
X0531901Y0315451D01*
X0530776Y0316026D01*
X0529637Y0316574D01*
X0528484Y0317095D01*
X0527320Y0317587D01*
X0526144Y0318051D01*
X0524957Y0318486D01*
X0523760Y0318893D01*
X0522553Y0319270D01*
X0521338Y0319618D01*
X0520114Y0319936D01*
X0518883Y0320225D01*
X0517646Y0320483D01*
X0516403Y0320712D01*
X0515154Y0320910D01*
X0513901Y0321078D01*
X0512644Y0321216D01*
X0511384Y0321323D01*
X0510123Y0321400D01*
X0508859Y0321446D01*
X0507595Y0321461D01*
X0506331Y0321446D01*
X0505067Y0321400D01*
X0503806Y0321323D01*
X0502546Y0321216D01*
X0501289Y0321078D01*
X0500036Y0320910D01*
X0498787Y0320712D01*
X0497544Y0320483D01*
X0496307Y0320225D01*
X0495076Y0319936D01*
X0493852Y0319618D01*
X0492637Y0319270D01*
X0491430Y0318893D01*
X0490233Y0318486D01*
X0489046Y0318051D01*
X0487870Y0317587D01*
X0486706Y0317095D01*
X0485553Y0316574D01*
X0484414Y0316026D01*
X0483289Y0315451D01*
X0482177Y0314848D01*
X0481081Y0314219D01*
X0480000Y0313563D01*
X0478935Y0312881D01*
X0477888Y0312173D01*
X0476857Y0311441D01*
X0475845Y0310683D01*
X0496595Y0289933D02*
X0497104Y0290196D01*
X0497619Y0290446D01*
X0498140Y0290683D01*
X0498666Y0290908D01*
X0499198Y0291120D01*
X0499735Y0291318D01*
X0500277Y0291504D01*
X0500823Y0291676D01*
X0501373Y0291835D01*
X0501927Y0291980D01*
X0502484Y0292112D01*
X0503044Y0292230D01*
X0503607Y0292334D01*
X0504172Y0292425D01*
X0504739Y0292501D01*
X0505309Y0292564D01*
X0505879Y0292613D01*
X0506450Y0292648D01*
X0507023Y0292669D01*
X0507595Y0292676D01*
X0508167Y0292669D01*
X0508740Y0292648D01*
X0509311Y0292613D01*
X0509881Y0292564D01*
X0510451Y0292501D01*
X0511018Y0292425D01*
X0511583Y0292334D01*
X0512146Y0292230D01*
X0512706Y0292112D01*
X0513263Y0291980D01*
X0513817Y0291835D01*
X0514367Y0291676D01*
X0514913Y0291504D01*
X0515455Y0291318D01*
X0515992Y0291120D01*
X0516524Y0290908D01*
X0517050Y0290683D01*
X0517571Y0290446D01*
X0518086Y0290196D01*
X0518595Y0289933D01*
X0528595Y0279933D02*
X0528858Y0279424D01*
X0529108Y0278909D01*
X0529345Y0278388D01*
X0529570Y0277862D01*
X0529782Y0277330D01*
X0529980Y0276793D01*
X0530166Y0276251D01*
X0530338Y0275705D01*
X0530497Y0275155D01*
X0530642Y0274601D01*
X0530774Y0274044D01*
X0530892Y0273484D01*
X0530996Y0272921D01*
X0531087Y0272356D01*
X0531163Y0271789D01*
X0531226Y0271219D01*
X0531275Y0270649D01*
X0531310Y0270078D01*
X0531331Y0269505D01*
X0531338Y0268933D01*
X0531331Y0268361D01*
X0531310Y0267788D01*
X0531275Y0267217D01*
X0531226Y0266647D01*
X0531163Y0266077D01*
X0531087Y0265510D01*
X0530996Y0264945D01*
X0530892Y0264382D01*
X0530774Y0263822D01*
X0530642Y0263265D01*
X0530497Y0262711D01*
X0530338Y0262161D01*
X0530166Y0261615D01*
X0529980Y0261073D01*
X0529782Y0260536D01*
X0529570Y0260004D01*
X0529345Y0259478D01*
X0529108Y0258957D01*
X0528858Y0258442D01*
X0528595Y0257933D01*
X0526845Y0239683D02*
X0526136Y0239226D01*
X0525415Y0238786D01*
X0524684Y0238364D01*
X0523943Y0237959D01*
X0523192Y0237573D01*
X0522433Y0237206D01*
X0521664Y0236856D01*
X0520887Y0236526D01*
X0520103Y0236215D01*
X0519310Y0235923D01*
X0518512Y0235650D01*
X0517706Y0235397D01*
X0516895Y0235164D01*
X0516078Y0234950D01*
X0515257Y0234757D01*
X0514431Y0234583D01*
X0513601Y0234430D01*
X0512767Y0234297D01*
X0511930Y0234184D01*
X0511091Y0234091D01*
X0510250Y0234020D01*
X0509408Y0233968D01*
X0508564Y0233937D01*
X0507720Y0233927D01*
X0506876Y0233937D01*
X0506032Y0233968D01*
X0505190Y0234020D01*
X0504349Y0234091D01*
X0503510Y0234184D01*
X0502673Y0234297D01*
X0501839Y0234430D01*
X0501009Y0234583D01*
X0500183Y0234757D01*
X0499362Y0234950D01*
X0498545Y0235164D01*
X0497734Y0235397D01*
X0496928Y0235650D01*
X0496130Y0235923D01*
X0495337Y0236215D01*
X0494553Y0236526D01*
X0493776Y0236856D01*
X0493007Y0237206D01*
X0492248Y0237573D01*
X0491497Y0237959D01*
X0490756Y0238364D01*
X0490025Y0238786D01*
X0489304Y0239226D01*
X0488595Y0239683D01*
X0475845Y0227183D02*
X0476857Y0226425D01*
X0477888Y0225693D01*
X0478935Y0224985D01*
X0480000Y0224303D01*
X0481081Y0223647D01*
X0482177Y0223018D01*
X0483289Y0222415D01*
X0484414Y0221840D01*
X0485553Y0221292D01*
X0486706Y0220771D01*
X0487870Y0220279D01*
X0489046Y0219815D01*
X0490233Y0219380D01*
X0491430Y0218973D01*
X0492637Y0218596D01*
X0493852Y0218248D01*
X0495076Y0217930D01*
X0496307Y0217641D01*
X0497544Y0217383D01*
X0498787Y0217154D01*
X0500036Y0216956D01*
X0501289Y0216788D01*
X0502546Y0216650D01*
X0503806Y0216543D01*
X0505067Y0216466D01*
X0506331Y0216420D01*
X0507595Y0216405D01*
X0508859Y0216420D01*
X0510123Y0216466D01*
X0511384Y0216543D01*
X0512644Y0216650D01*
X0513901Y0216788D01*
X0515154Y0216956D01*
X0516403Y0217154D01*
X0517646Y0217383D01*
X0518883Y0217641D01*
X0520114Y0217930D01*
X0521338Y0218248D01*
X0522553Y0218596D01*
X0523760Y0218973D01*
X0524957Y0219380D01*
X0526144Y0219815D01*
X0527320Y0220279D01*
X0528484Y0220771D01*
X0529637Y0221292D01*
X0530776Y0221840D01*
X0531901Y0222415D01*
X0533013Y0223018D01*
X0534109Y0223647D01*
X0535190Y0224303D01*
X0536255Y0224985D01*
X0537302Y0225693D01*
X0538333Y0226425D01*
X0539345Y0227183D01*
X0518595Y0247933D02*
X0518086Y0247670D01*
X0517571Y0247420D01*
X0517050Y0247183D01*
X0516524Y0246958D01*
X0515992Y0246746D01*
X0515455Y0246548D01*
X0514913Y0246362D01*
X0514367Y0246190D01*
X0513817Y0246031D01*
X0513263Y0245886D01*
X0512706Y0245754D01*
X0512146Y0245636D01*
X0511583Y0245532D01*
X0511018Y0245441D01*
X0510451Y0245365D01*
X0509881Y0245302D01*
X0509311Y0245253D01*
X0508740Y0245218D01*
X0508167Y0245197D01*
X0507595Y0245190D01*
X0507023Y0245197D01*
X0506450Y0245218D01*
X0505879Y0245253D01*
X0505309Y0245302D01*
X0504739Y0245365D01*
X0504172Y0245441D01*
X0503607Y0245532D01*
X0503044Y0245636D01*
X0502484Y0245754D01*
X0501927Y0245886D01*
X0501373Y0246031D01*
X0500823Y0246190D01*
X0500277Y0246362D01*
X0499735Y0246548D01*
X0499198Y0246746D01*
X0498666Y0246958D01*
X0498140Y0247183D01*
X0497619Y0247420D01*
X0497104Y0247670D01*
X0496595Y0247933D01*
X0376844Y0303933D02*
X0377736Y0307087D01*
X0378703Y0310218D01*
X0379747Y0313325D01*
X0380865Y0316406D01*
X0382058Y0319458D01*
X0383324Y0322481D01*
X0384663Y0325472D01*
X0386074Y0328430D01*
X0387557Y0331352D01*
X0389110Y0334238D01*
X0390732Y0337086D01*
X0392423Y0339893D01*
X0394182Y0342659D01*
X0396007Y0345381D01*
X0397897Y0348058D01*
X0399852Y0350688D01*
X0401870Y0353270D01*
X0403950Y0355803D01*
X0406091Y0358284D01*
X0408291Y0360713D01*
X0410550Y0363088D01*
X0412865Y0365407D01*
X0415236Y0367670D01*
X0417661Y0369874D01*
X0420139Y0372019D01*
X0422668Y0374103D01*
X0425247Y0376126D01*
X0427874Y0378085D01*
X0430548Y0379980D01*
X0433267Y0381809D01*
X0436029Y0383573D01*
X0438834Y0385268D01*
X0441678Y0386896D01*
X0444562Y0388453D01*
X0447482Y0389941D01*
X0450437Y0391357D01*
X0453426Y0392701D01*
X0456447Y0393973D01*
X0459497Y0395170D01*
X0462576Y0396294D01*
X0465681Y0397342D01*
X0468810Y0398315D01*
X0471962Y0399212D01*
X0475135Y0400032D01*
X0478327Y0400775D01*
X0481536Y0401441D01*
X0484760Y0402028D01*
X0487998Y0402537D01*
X0491247Y0402968D01*
X0494505Y0403319D01*
X0497771Y0403592D01*
X0501042Y0403785D01*
X0504318Y0403899D01*
X0507595Y0403934D01*
X0372595Y0268933D02*
X0372634Y0265671D01*
X0372753Y0262411D01*
X0372950Y0259154D01*
X0373225Y0255904D01*
X0373579Y0252661D01*
X0374012Y0249427D01*
X0374522Y0246205D01*
X0375110Y0242996D01*
X0375775Y0239802D01*
X0376518Y0236625D01*
X0377337Y0233468D01*
X0378232Y0230330D01*
X0379202Y0227216D01*
X0380248Y0224125D01*
X0381368Y0221061D01*
X0382561Y0218025D01*
X0383828Y0215019D01*
X0385167Y0212044D01*
X0386577Y0209102D01*
X0388058Y0206195D01*
X0389609Y0203325D01*
X0391229Y0200493D01*
X0392917Y0197702D01*
X0394672Y0194951D01*
X0396492Y0192244D01*
X0398378Y0189582D01*
X0400327Y0186966D01*
X0402339Y0184398D01*
X0404412Y0181879D01*
X0406546Y0179411D01*
X0408739Y0176996D01*
X0410989Y0174634D01*
X0413296Y0172327D01*
X0415658Y0170077D01*
X0418073Y0167884D01*
X0420541Y0165750D01*
X0423060Y0163677D01*
X0425628Y0161665D01*
X0428244Y0159716D01*
X0430906Y0157830D01*
X0433613Y0156010D01*
X0436364Y0154255D01*
X0439155Y0152567D01*
X0441987Y0150947D01*
X0444857Y0149396D01*
X0447764Y0147915D01*
X0450706Y0146505D01*
X0453681Y0145166D01*
X0456687Y0143899D01*
X0459723Y0142706D01*
X0462787Y0141586D01*
X0465878Y0140540D01*
X0468992Y0139570D01*
X0472130Y0138675D01*
X0475287Y0137856D01*
X0478464Y0137113D01*
X0481658Y0136448D01*
X0484867Y0135860D01*
X0488089Y0135350D01*
X0491323Y0134917D01*
X0494566Y0134563D01*
X0497816Y0134288D01*
X0501073Y0134091D01*
X0504333Y0133972D01*
X0507595Y0133933D01*
X0478345Y0249683D02*
X0477888Y0250392D01*
X0477448Y0251113D01*
X0477026Y0251844D01*
X0476621Y0252585D01*
X0476235Y0253336D01*
X0475868Y0254095D01*
X0475518Y0254864D01*
X0475188Y0255641D01*
X0474877Y0256425D01*
X0474585Y0257218D01*
X0474312Y0258016D01*
X0474059Y0258822D01*
X0473826Y0259633D01*
X0473612Y0260450D01*
X0473419Y0261271D01*
X0473245Y0262097D01*
X0473092Y0262927D01*
X0472959Y0263761D01*
X0472846Y0264598D01*
X0472753Y0265437D01*
X0472682Y0266278D01*
X0472630Y0267120D01*
X0472599Y0267964D01*
X0472589Y0268808D01*
X0472599Y0269652D01*
X0472630Y0270496D01*
X0472682Y0271338D01*
X0472753Y0272179D01*
X0472846Y0273018D01*
X0472959Y0273855D01*
X0473092Y0274689D01*
X0473245Y0275519D01*
X0473419Y0276345D01*
X0473612Y0277166D01*
X0473826Y0277983D01*
X0474059Y0278794D01*
X0474312Y0279600D01*
X0474585Y0280398D01*
X0474877Y0281191D01*
X0475188Y0281975D01*
X0475518Y0282752D01*
X0475868Y0283521D01*
X0476235Y0284280D01*
X0476621Y0285031D01*
X0477026Y0285772D01*
X0477448Y0286503D01*
X0477888Y0287224D01*
X0478345Y0287933D01*
X0465846Y0300683D02*
X0465088Y0299671D01*
X0464356Y0298640D01*
X0463648Y0297593D01*
X0462966Y0296528D01*
X0462310Y0295447D01*
X0461681Y0294351D01*
X0461078Y0293239D01*
X0460503Y0292114D01*
X0459955Y0290975D01*
X0459434Y0289822D01*
X0458942Y0288658D01*
X0458478Y0287482D01*
X0458043Y0286295D01*
X0457636Y0285098D01*
X0457259Y0283891D01*
X0456911Y0282676D01*
X0456593Y0281452D01*
X0456304Y0280221D01*
X0456046Y0278984D01*
X0455817Y0277741D01*
X0455619Y0276492D01*
X0455451Y0275239D01*
X0455313Y0273982D01*
X0455206Y0272722D01*
X0455129Y0271461D01*
X0455083Y0270197D01*
X0455068Y0268933D01*
X0455083Y0267669D01*
X0455129Y0266405D01*
X0455206Y0265144D01*
X0455313Y0263884D01*
X0455451Y0262627D01*
X0455619Y0261374D01*
X0455817Y0260125D01*
X0456046Y0258882D01*
X0456304Y0257645D01*
X0456593Y0256414D01*
X0456911Y0255190D01*
X0457259Y0253975D01*
X0457636Y0252768D01*
X0458043Y0251571D01*
X0458478Y0250384D01*
X0458942Y0249208D01*
X0459434Y0248044D01*
X0459955Y0246891D01*
X0460503Y0245752D01*
X0461078Y0244627D01*
X0461681Y0243515D01*
X0462310Y0242419D01*
X0462966Y0241338D01*
X0463648Y0240273D01*
X0464356Y0239226D01*
X0465088Y0238195D01*
X0465846Y0237183D01*
X0486595Y0257933D02*
X0486332Y0258442D01*
X0486082Y0258957D01*
X0485845Y0259478D01*
X0485620Y0260004D01*
X0485408Y0260536D01*
X0485210Y0261073D01*
X0485024Y0261615D01*
X0484852Y0262161D01*
X0484693Y0262711D01*
X0484548Y0263265D01*
X0484416Y0263822D01*
X0484298Y0264382D01*
X0484194Y0264945D01*
X0484103Y0265510D01*
X0484027Y0266077D01*
X0483964Y0266647D01*
X0483915Y0267217D01*
X0483880Y0267788D01*
X0483859Y0268361D01*
X0483852Y0268933D01*
X0483859Y0269505D01*
X0483880Y0270078D01*
X0483915Y0270649D01*
X0483964Y0271219D01*
X0484027Y0271789D01*
X0484103Y0272356D01*
X0484194Y0272921D01*
X0484298Y0273484D01*
X0484416Y0274044D01*
X0484548Y0274601D01*
X0484693Y0275155D01*
X0484852Y0275705D01*
X0485024Y0276251D01*
X0485210Y0276793D01*
X0485408Y0277330D01*
X0485620Y0277862D01*
X0485845Y0278388D01*
X0486082Y0278909D01*
X0486332Y0279424D01*
X0486595Y0279933D01*
X0285095Y0190933D02*
X0278345Y0198183D01*
X0268345Y0188183D02*
X0275595Y0181433D01*
X0268345Y0188183D02*
X0266394Y0186498D01*
X0264403Y0184861D01*
X0262372Y0183272D01*
X0260304Y0181733D01*
X0258200Y0180245D01*
X0256060Y0178807D01*
X0253886Y0177422D01*
X0251679Y0176089D01*
X0249441Y0174810D01*
X0247173Y0173586D01*
X0244875Y0172417D01*
X0242550Y0171303D01*
X0240199Y0170246D01*
X0237823Y0169246D01*
X0235424Y0168304D01*
X0233002Y0167420D01*
X0230560Y0166594D01*
X0228099Y0165828D01*
X0225620Y0165121D01*
X0223124Y0164475D01*
X0220614Y0163889D01*
X0218090Y0163363D01*
X0215555Y0162899D01*
X0213008Y0162496D01*
X0210453Y0162155D01*
X0207891Y0161876D01*
X0205322Y0161658D01*
X0202749Y0161502D01*
X0200173Y0161409D01*
X0197595Y0161378D01*
X0195017Y0161409D01*
X0192441Y0161502D01*
X0189868Y0161658D01*
X0187299Y0161876D01*
X0184737Y0162155D01*
X0182182Y0162496D01*
X0179635Y0162899D01*
X0177100Y0163363D01*
X0174576Y0163889D01*
X0172066Y0164475D01*
X0169570Y0165121D01*
X0167091Y0165828D01*
X0164630Y0166594D01*
X0162188Y0167420D01*
X0159766Y0168304D01*
X0157367Y0169246D01*
X0154991Y0170246D01*
X0152640Y0171303D01*
X0150315Y0172417D01*
X0148017Y0173586D01*
X0145749Y0174810D01*
X0143511Y0176089D01*
X0141304Y0177422D01*
X0139130Y0178807D01*
X0136990Y0180245D01*
X0134886Y0181733D01*
X0132818Y0183272D01*
X0130787Y0184861D01*
X0128796Y0186498D01*
X0126845Y0188183D01*
X0119595Y0356433D02*
X0121746Y0358291D01*
X0123941Y0360096D01*
X0126179Y0361847D01*
X0128459Y0363544D01*
X0130779Y0365185D01*
X0133139Y0366770D01*
X0135535Y0368297D01*
X0137968Y0369766D01*
X0140436Y0371176D01*
X0142937Y0372526D01*
X0145470Y0373815D01*
X0148033Y0375043D01*
X0150625Y0376208D01*
X0153244Y0377311D01*
X0155890Y0378349D01*
X0158559Y0379324D01*
X0161252Y0380234D01*
X0163965Y0381079D01*
X0166698Y0381858D01*
X0169450Y0382571D01*
X0172217Y0383217D01*
X0174999Y0383796D01*
X0177795Y0384308D01*
X0180602Y0384752D01*
X0183419Y0385128D01*
X0186244Y0385436D01*
X0189076Y0385676D01*
X0191913Y0385848D01*
X0194753Y0385951D01*
X0197595Y0385985D01*
X0200437Y0385951D01*
X0203277Y0385848D01*
X0206114Y0385676D01*
X0208946Y0385436D01*
X0211771Y0385128D01*
X0214588Y0384752D01*
X0217395Y0384308D01*
X0220191Y0383796D01*
X0222973Y0383217D01*
X0225740Y0382571D01*
X0228492Y0381858D01*
X0231225Y0381079D01*
X0233938Y0380234D01*
X0236631Y0379324D01*
X0239300Y0378349D01*
X0241946Y0377311D01*
X0244565Y0376208D01*
X0247157Y0375043D01*
X0249720Y0373815D01*
X0252253Y0372526D01*
X0254754Y0371176D01*
X0257222Y0369766D01*
X0259655Y0368297D01*
X0262051Y0366770D01*
X0264411Y0365185D01*
X0266731Y0363544D01*
X0269011Y0361847D01*
X0271249Y0360096D01*
X0273444Y0358291D01*
X0275595Y0356433D01*
X0268345Y0349683D02*
X0266394Y0351368D01*
X0264403Y0353005D01*
X0262372Y0354594D01*
X0260304Y0356133D01*
X0258200Y0357621D01*
X0256060Y0359059D01*
X0253886Y0360444D01*
X0251679Y0361777D01*
X0249441Y0363056D01*
X0247173Y0364280D01*
X0244875Y0365449D01*
X0242550Y0366563D01*
X0240199Y0367620D01*
X0237823Y0368620D01*
X0235424Y0369562D01*
X0233002Y0370446D01*
X0230560Y0371272D01*
X0228099Y0372038D01*
X0225620Y0372745D01*
X0223124Y0373391D01*
X0220614Y0373977D01*
X0218090Y0374503D01*
X0215555Y0374967D01*
X0213008Y0375370D01*
X0210453Y0375711D01*
X0207891Y0375990D01*
X0205322Y0376208D01*
X0202749Y0376364D01*
X0200173Y0376457D01*
X0197595Y0376488D01*
X0195017Y0376457D01*
X0192441Y0376364D01*
X0189868Y0376208D01*
X0187299Y0375990D01*
X0184737Y0375711D01*
X0182182Y0375370D01*
X0179635Y0374967D01*
X0177100Y0374503D01*
X0174576Y0373977D01*
X0172066Y0373391D01*
X0169570Y0372745D01*
X0167091Y0372038D01*
X0164630Y0371272D01*
X0162188Y0370446D01*
X0159766Y0369562D01*
X0157367Y0368620D01*
X0154991Y0367620D01*
X0152640Y0366563D01*
X0150315Y0365449D01*
X0148017Y0364280D01*
X0145749Y0363056D01*
X0143511Y0361777D01*
X0141304Y0360444D01*
X0139130Y0359059D01*
X0136990Y0357621D01*
X0134886Y0356133D01*
X0132818Y0354594D01*
X0130787Y0353005D01*
X0128796Y0351368D01*
X0126845Y0349683D01*
X0119595Y0181433D02*
X0121746Y0179575D01*
X0123941Y0177770D01*
X0126179Y0176019D01*
X0128459Y0174322D01*
X0130779Y0172681D01*
X0133139Y0171096D01*
X0135535Y0169569D01*
X0137968Y0168100D01*
X0140436Y0166690D01*
X0142937Y0165340D01*
X0145470Y0164051D01*
X0148033Y0162823D01*
X0150625Y0161658D01*
X0153244Y0160555D01*
X0155890Y0159517D01*
X0158559Y0158542D01*
X0161252Y0157632D01*
X0163965Y0156787D01*
X0166698Y0156008D01*
X0169450Y0155295D01*
X0172217Y0154649D01*
X0174999Y0154070D01*
X0177795Y0153558D01*
X0180602Y0153114D01*
X0183419Y0152738D01*
X0186244Y0152430D01*
X0189076Y0152190D01*
X0191913Y0152018D01*
X0194753Y0151915D01*
X0197595Y0151881D01*
X0200437Y0151915D01*
X0203277Y0152018D01*
X0206114Y0152190D01*
X0208946Y0152430D01*
X0211771Y0152738D01*
X0214588Y0153114D01*
X0217395Y0153558D01*
X0220191Y0154070D01*
X0222973Y0154649D01*
X0225740Y0155295D01*
X0228492Y0156008D01*
X0231225Y0156787D01*
X0233938Y0157632D01*
X0236631Y0158542D01*
X0239300Y0159517D01*
X0241946Y0160555D01*
X0244565Y0161658D01*
X0247157Y0162823D01*
X0249720Y0164051D01*
X0252253Y0165340D01*
X0254754Y0166690D01*
X0257222Y0168100D01*
X0259655Y0169569D01*
X0262051Y0171096D01*
X0264411Y0172681D01*
X0266731Y0174322D01*
X0269011Y0176019D01*
X0271249Y0177770D01*
X0273444Y0179575D01*
X0275595Y0181433D01*
X0278345Y0198183D02*
X0280030Y0200134D01*
X0281667Y0202125D01*
X0283256Y0204156D01*
X0284795Y0206224D01*
X0286283Y0208328D01*
X0287721Y0210468D01*
X0289106Y0212642D01*
X0290439Y0214849D01*
X0291718Y0217087D01*
X0292942Y0219355D01*
X0294111Y0221653D01*
X0295225Y0223978D01*
X0296282Y0226329D01*
X0297282Y0228705D01*
X0298224Y0231104D01*
X0299108Y0233526D01*
X0299934Y0235968D01*
X0300700Y0238429D01*
X0301407Y0240908D01*
X0302053Y0243404D01*
X0302639Y0245914D01*
X0303165Y0248438D01*
X0303629Y0250973D01*
X0304032Y0253520D01*
X0304373Y0256075D01*
X0304652Y0258637D01*
X0304870Y0261206D01*
X0305026Y0263779D01*
X0305119Y0266355D01*
X0305150Y0268933D01*
X0305119Y0271511D01*
X0305026Y0274087D01*
X0304870Y0276660D01*
X0304652Y0279229D01*
X0304373Y0281791D01*
X0304032Y0284346D01*
X0303629Y0286893D01*
X0303165Y0289428D01*
X0302639Y0291952D01*
X0302053Y0294462D01*
X0301407Y0296958D01*
X0300700Y0299437D01*
X0299934Y0301898D01*
X0299108Y0304340D01*
X0298224Y0306762D01*
X0297282Y0309161D01*
X0296282Y0311537D01*
X0295225Y0313888D01*
X0294111Y0316213D01*
X0292942Y0318511D01*
X0291718Y0320779D01*
X0290439Y0323017D01*
X0289106Y0325224D01*
X0287721Y0327398D01*
X0286283Y0329538D01*
X0284795Y0331642D01*
X0283256Y0333710D01*
X0281667Y0335741D01*
X0280030Y0337732D01*
X0278345Y0339683D01*
X0110095Y0346933D02*
X0108237Y0344782D01*
X0106432Y0342587D01*
X0104681Y0340349D01*
X0102984Y0338069D01*
X0101343Y0335749D01*
X0099758Y0333389D01*
X0098231Y0330993D01*
X0096762Y0328560D01*
X0095352Y0326092D01*
X0094002Y0323591D01*
X0092713Y0321058D01*
X0091485Y0318495D01*
X0090320Y0315903D01*
X0089217Y0313284D01*
X0088179Y0310638D01*
X0087204Y0307969D01*
X0086294Y0305276D01*
X0085449Y0302563D01*
X0084670Y0299830D01*
X0083957Y0297078D01*
X0083311Y0294311D01*
X0082732Y0291529D01*
X0082220Y0288733D01*
X0081776Y0285926D01*
X0081400Y0283109D01*
X0081092Y0280284D01*
X0080852Y0277452D01*
X0080680Y0274615D01*
X0080577Y0271775D01*
X0080543Y0268933D01*
X0080577Y0266091D01*
X0080680Y0263251D01*
X0080852Y0260414D01*
X0081092Y0257582D01*
X0081400Y0254757D01*
X0081776Y0251940D01*
X0082220Y0249133D01*
X0082732Y0246337D01*
X0083311Y0243555D01*
X0083957Y0240788D01*
X0084670Y0238036D01*
X0085449Y0235303D01*
X0086294Y0232590D01*
X0087204Y0229897D01*
X0088179Y0227228D01*
X0089217Y0224582D01*
X0090320Y0221963D01*
X0091485Y0219371D01*
X0092713Y0216808D01*
X0094002Y0214275D01*
X0095352Y0211774D01*
X0096762Y0209306D01*
X0098231Y0206873D01*
X0099758Y0204477D01*
X0101343Y0202117D01*
X0102984Y0199797D01*
X0104681Y0197517D01*
X0106432Y0195279D01*
X0108237Y0193084D01*
X0110095Y0190933D01*
X0285095Y0190933D02*
X0286953Y0193084D01*
X0288758Y0195279D01*
X0290509Y0197517D01*
X0292206Y0199797D01*
X0293847Y0202117D01*
X0295432Y0204477D01*
X0296959Y0206873D01*
X0298428Y0209306D01*
X0299838Y0211774D01*
X0301188Y0214275D01*
X0302477Y0216808D01*
X0303705Y0219371D01*
X0304870Y0221963D01*
X0305973Y0224582D01*
X0307011Y0227228D01*
X0307986Y0229897D01*
X0308896Y0232590D01*
X0309741Y0235303D01*
X0310520Y0238036D01*
X0311233Y0240788D01*
X0311879Y0243555D01*
X0312458Y0246337D01*
X0312970Y0249133D01*
X0313414Y0251940D01*
X0313790Y0254757D01*
X0314098Y0257582D01*
X0314338Y0260414D01*
X0314510Y0263251D01*
X0314613Y0266091D01*
X0314647Y0268933D01*
X0314613Y0271775D01*
X0314510Y0274615D01*
X0314338Y0277452D01*
X0314098Y0280284D01*
X0313790Y0283109D01*
X0313414Y0285926D01*
X0312970Y0288733D01*
X0312458Y0291529D01*
X0311879Y0294311D01*
X0311233Y0297078D01*
X0310520Y0299830D01*
X0309741Y0302563D01*
X0308896Y0305276D01*
X0307986Y0307969D01*
X0307011Y0310638D01*
X0305973Y0313284D01*
X0304870Y0315903D01*
X0303705Y0318495D01*
X0302477Y0321058D01*
X0301188Y0323591D01*
X0299838Y0326092D01*
X0298428Y0328560D01*
X0296959Y0330993D01*
X0295432Y0333389D01*
X0293847Y0335749D01*
X0292206Y0338069D01*
X0290509Y0340349D01*
X0288758Y0342587D01*
X0286953Y0344782D01*
X0285095Y0346933D01*
X0149095Y0307933D02*
X0148157Y0306723D01*
X0147249Y0305491D01*
X0146371Y0304237D01*
X0145524Y0302962D01*
X0144708Y0301667D01*
X0143924Y0300352D01*
X0143173Y0299019D01*
X0142454Y0297667D01*
X0141769Y0296298D01*
X0141117Y0294913D01*
X0140499Y0293513D01*
X0139916Y0292097D01*
X0139367Y0290668D01*
X0138854Y0289226D01*
X0138376Y0287772D01*
X0137933Y0286306D01*
X0137527Y0284831D01*
X0137156Y0283345D01*
X0136822Y0281851D01*
X0136525Y0280350D01*
X0136265Y0278841D01*
X0136041Y0277327D01*
X0135854Y0275808D01*
X0135705Y0274284D01*
X0135593Y0272758D01*
X0135518Y0271229D01*
X0135481Y0269698D01*
X0135481Y0268168D01*
X0135518Y0266637D01*
X0135593Y0265108D01*
X0135705Y0263582D01*
X0135854Y0262058D01*
X0136041Y0260539D01*
X0136265Y0259025D01*
X0136525Y0257516D01*
X0136822Y0256015D01*
X0137156Y0254521D01*
X0137527Y0253035D01*
X0137933Y0251560D01*
X0138376Y0250094D01*
X0138854Y0248640D01*
X0139367Y0247198D01*
X0139916Y0245769D01*
X0140499Y0244353D01*
X0141117Y0242953D01*
X0141769Y0241568D01*
X0142454Y0240199D01*
X0143173Y0238847D01*
X0143924Y0237514D01*
X0144708Y0236199D01*
X0145524Y0234904D01*
X0146371Y0233629D01*
X0147249Y0232375D01*
X0148157Y0231143D01*
X0149095Y0229933D01*
X0246095Y0229933D02*
X0247033Y0231143D01*
X0247941Y0232375D01*
X0248819Y0233629D01*
X0249666Y0234904D01*
X0250482Y0236199D01*
X0251266Y0237514D01*
X0252017Y0238847D01*
X0252736Y0240199D01*
X0253421Y0241568D01*
X0254073Y0242953D01*
X0254691Y0244353D01*
X0255274Y0245769D01*
X0255823Y0247198D01*
X0256336Y0248640D01*
X0256814Y0250094D01*
X0257257Y0251560D01*
X0257663Y0253035D01*
X0258034Y0254521D01*
X0258368Y0256015D01*
X0258665Y0257516D01*
X0258925Y0259025D01*
X0259149Y0260539D01*
X0259336Y0262058D01*
X0259485Y0263582D01*
X0259597Y0265108D01*
X0259672Y0266637D01*
X0259709Y0268168D01*
X0259709Y0269698D01*
X0259672Y0271229D01*
X0259597Y0272758D01*
X0259485Y0274284D01*
X0259336Y0275808D01*
X0259149Y0277327D01*
X0258925Y0278841D01*
X0258665Y0280350D01*
X0258368Y0281851D01*
X0258034Y0283345D01*
X0257663Y0284831D01*
X0257257Y0286306D01*
X0256814Y0287772D01*
X0256336Y0289226D01*
X0255823Y0290668D01*
X0255274Y0292097D01*
X0254691Y0293513D01*
X0254073Y0294913D01*
X0253421Y0296298D01*
X0252736Y0297667D01*
X0252017Y0299019D01*
X0251266Y0300352D01*
X0250482Y0301667D01*
X0249666Y0302962D01*
X0248819Y0304237D01*
X0247941Y0305491D01*
X0247033Y0306723D01*
X0246095Y0307933D01*
X0129596Y0327433D02*
X0128190Y0325746D01*
X0126826Y0324025D01*
X0125505Y0322272D01*
X0124226Y0320487D01*
X0122992Y0318672D01*
X0121802Y0316827D01*
X0120657Y0314953D01*
X0119559Y0313052D01*
X0118507Y0311125D01*
X0117502Y0309173D01*
X0116545Y0307197D01*
X0115637Y0305198D01*
X0114778Y0303178D01*
X0113968Y0301137D01*
X0113208Y0299078D01*
X0112498Y0297000D01*
X0111840Y0294906D01*
X0111232Y0292796D01*
X0110677Y0290672D01*
X0110173Y0288535D01*
X0109721Y0286386D01*
X0109322Y0284227D01*
X0108976Y0282059D01*
X0108682Y0279884D01*
X0108442Y0277701D01*
X0108255Y0275514D01*
X0108121Y0273322D01*
X0108041Y0271128D01*
X0108014Y0268933D01*
X0108041Y0266738D01*
X0108121Y0264544D01*
X0108255Y0262352D01*
X0108442Y0260165D01*
X0108682Y0257982D01*
X0108976Y0255807D01*
X0109322Y0253639D01*
X0109721Y0251480D01*
X0110173Y0249331D01*
X0110677Y0247194D01*
X0111232Y0245070D01*
X0111840Y0242960D01*
X0112498Y0240866D01*
X0113208Y0238788D01*
X0113968Y0236729D01*
X0114778Y0234688D01*
X0115637Y0232668D01*
X0116545Y0230669D01*
X0117502Y0228693D01*
X0118507Y0226741D01*
X0119559Y0224814D01*
X0120657Y0222913D01*
X0121802Y0221039D01*
X0122992Y0219194D01*
X0124226Y0217379D01*
X0125505Y0215594D01*
X0126826Y0213841D01*
X0128190Y0212120D01*
X0129596Y0210433D01*
X0265594Y0210433D02*
X0267000Y0212120D01*
X0268364Y0213841D01*
X0269685Y0215594D01*
X0270964Y0217379D01*
X0272198Y0219194D01*
X0273388Y0221039D01*
X0274533Y0222913D01*
X0275631Y0224814D01*
X0276683Y0226741D01*
X0277688Y0228693D01*
X0278645Y0230669D01*
X0279553Y0232668D01*
X0280412Y0234688D01*
X0281222Y0236729D01*
X0281982Y0238788D01*
X0282692Y0240866D01*
X0283350Y0242960D01*
X0283958Y0245070D01*
X0284513Y0247194D01*
X0285017Y0249331D01*
X0285469Y0251480D01*
X0285868Y0253639D01*
X0286214Y0255807D01*
X0286508Y0257982D01*
X0286748Y0260165D01*
X0286935Y0262352D01*
X0287069Y0264544D01*
X0287149Y0266738D01*
X0287176Y0268933D01*
X0287149Y0271128D01*
X0287069Y0273322D01*
X0286935Y0275514D01*
X0286748Y0277701D01*
X0286508Y0279884D01*
X0286214Y0282059D01*
X0285868Y0284227D01*
X0285469Y0286386D01*
X0285017Y0288535D01*
X0284513Y0290672D01*
X0283958Y0292796D01*
X0283350Y0294906D01*
X0282692Y0297000D01*
X0281982Y0299078D01*
X0281222Y0301137D01*
X0280412Y0303178D01*
X0279553Y0305198D01*
X0278645Y0307197D01*
X0277688Y0309173D01*
X0276683Y0311125D01*
X0275631Y0313052D01*
X0274533Y0314953D01*
X0273388Y0316827D01*
X0272198Y0318672D01*
X0270964Y0320487D01*
X0269685Y0322272D01*
X0268364Y0324025D01*
X0267000Y0325746D01*
X0265594Y0327433D01*
X0226845Y0288183D02*
X0227302Y0287474D01*
X0227742Y0286753D01*
X0228164Y0286022D01*
X0228569Y0285281D01*
X0228955Y0284530D01*
X0229322Y0283771D01*
X0229672Y0283002D01*
X0230002Y0282225D01*
X0230313Y0281441D01*
X0230605Y0280648D01*
X0230878Y0279850D01*
X0231131Y0279044D01*
X0231364Y0278233D01*
X0231578Y0277416D01*
X0231771Y0276595D01*
X0231945Y0275769D01*
X0232098Y0274939D01*
X0232231Y0274105D01*
X0232344Y0273268D01*
X0232437Y0272429D01*
X0232508Y0271588D01*
X0232560Y0270746D01*
X0232591Y0269902D01*
X0232601Y0269058D01*
X0232591Y0268214D01*
X0232560Y0267370D01*
X0232508Y0266528D01*
X0232437Y0265687D01*
X0232344Y0264848D01*
X0232231Y0264011D01*
X0232098Y0263177D01*
X0231945Y0262347D01*
X0231771Y0261521D01*
X0231578Y0260700D01*
X0231364Y0259883D01*
X0231131Y0259072D01*
X0230878Y0258266D01*
X0230605Y0257468D01*
X0230313Y0256675D01*
X0230002Y0255891D01*
X0229672Y0255114D01*
X0229322Y0254345D01*
X0228955Y0253586D01*
X0228569Y0252835D01*
X0228164Y0252094D01*
X0227742Y0251363D01*
X0227302Y0250642D01*
X0226845Y0249933D01*
X0239345Y0237183D02*
X0240103Y0238195D01*
X0240835Y0239226D01*
X0241543Y0240273D01*
X0242225Y0241338D01*
X0242881Y0242419D01*
X0243510Y0243515D01*
X0244113Y0244627D01*
X0244688Y0245752D01*
X0245236Y0246891D01*
X0245757Y0248044D01*
X0246249Y0249208D01*
X0246713Y0250384D01*
X0247148Y0251571D01*
X0247555Y0252768D01*
X0247932Y0253975D01*
X0248280Y0255190D01*
X0248598Y0256414D01*
X0248887Y0257645D01*
X0249145Y0258882D01*
X0249374Y0260125D01*
X0249572Y0261374D01*
X0249740Y0262627D01*
X0249878Y0263884D01*
X0249985Y0265144D01*
X0250062Y0266405D01*
X0250108Y0267669D01*
X0250123Y0268933D01*
X0250108Y0270197D01*
X0250062Y0271461D01*
X0249985Y0272722D01*
X0249878Y0273982D01*
X0249740Y0275239D01*
X0249572Y0276492D01*
X0249374Y0277741D01*
X0249145Y0278984D01*
X0248887Y0280221D01*
X0248598Y0281452D01*
X0248280Y0282676D01*
X0247932Y0283891D01*
X0247555Y0285098D01*
X0247148Y0286295D01*
X0246713Y0287482D01*
X0246249Y0288658D01*
X0245757Y0289822D01*
X0245236Y0290975D01*
X0244688Y0292114D01*
X0244113Y0293239D01*
X0243510Y0294351D01*
X0242881Y0295447D01*
X0242225Y0296528D01*
X0241543Y0297593D01*
X0240835Y0298640D01*
X0240103Y0299671D01*
X0239345Y0300683D01*
X0236595Y0220433D02*
X0235385Y0219495D01*
X0234153Y0218587D01*
X0232899Y0217709D01*
X0231624Y0216862D01*
X0230329Y0216046D01*
X0229014Y0215262D01*
X0227681Y0214511D01*
X0226329Y0213792D01*
X0224960Y0213107D01*
X0223575Y0212455D01*
X0222175Y0211837D01*
X0220759Y0211254D01*
X0219330Y0210705D01*
X0217888Y0210192D01*
X0216434Y0209714D01*
X0214968Y0209271D01*
X0213493Y0208865D01*
X0212007Y0208494D01*
X0210513Y0208160D01*
X0209012Y0207863D01*
X0207503Y0207603D01*
X0205989Y0207379D01*
X0204470Y0207192D01*
X0202946Y0207043D01*
X0201420Y0206931D01*
X0199891Y0206856D01*
X0198360Y0206819D01*
X0196830Y0206819D01*
X0195299Y0206856D01*
X0193770Y0206931D01*
X0192244Y0207043D01*
X0190720Y0207192D01*
X0189201Y0207379D01*
X0187687Y0207603D01*
X0186178Y0207863D01*
X0184677Y0208160D01*
X0183183Y0208494D01*
X0181697Y0208865D01*
X0180222Y0209271D01*
X0178756Y0209714D01*
X0177302Y0210192D01*
X0175860Y0210705D01*
X0174431Y0211254D01*
X0173015Y0211837D01*
X0171615Y0212455D01*
X0170230Y0213107D01*
X0168861Y0213792D01*
X0167509Y0214511D01*
X0166176Y0215262D01*
X0164861Y0216046D01*
X0163566Y0216862D01*
X0162291Y0217709D01*
X0161037Y0218587D01*
X0159805Y0219495D01*
X0158595Y0220433D01*
X0158595Y0317433D02*
X0159805Y0318371D01*
X0161037Y0319279D01*
X0162291Y0320157D01*
X0163566Y0321004D01*
X0164861Y0321820D01*
X0166176Y0322604D01*
X0167509Y0323355D01*
X0168861Y0324074D01*
X0170230Y0324759D01*
X0171615Y0325411D01*
X0173015Y0326029D01*
X0174431Y0326612D01*
X0175860Y0327161D01*
X0177302Y0327674D01*
X0178756Y0328152D01*
X0180222Y0328595D01*
X0181697Y0329001D01*
X0183183Y0329372D01*
X0184677Y0329706D01*
X0186178Y0330003D01*
X0187687Y0330263D01*
X0189201Y0330487D01*
X0190720Y0330674D01*
X0192244Y0330823D01*
X0193770Y0330935D01*
X0195299Y0331010D01*
X0196830Y0331047D01*
X0198360Y0331047D01*
X0199891Y0331010D01*
X0201420Y0330935D01*
X0202946Y0330823D01*
X0204470Y0330674D01*
X0205989Y0330487D01*
X0207503Y0330263D01*
X0209012Y0330003D01*
X0210513Y0329706D01*
X0212007Y0329372D01*
X0213493Y0329001D01*
X0214968Y0328595D01*
X0216434Y0328152D01*
X0217888Y0327674D01*
X0219330Y0327161D01*
X0220759Y0326612D01*
X0222175Y0326029D01*
X0223575Y0325411D01*
X0224960Y0324759D01*
X0226329Y0324074D01*
X0227681Y0323355D01*
X0229014Y0322604D01*
X0230329Y0321820D01*
X0231624Y0321004D01*
X0232899Y0320157D01*
X0234153Y0319279D01*
X0235385Y0318371D01*
X0236595Y0317433D01*
X0256095Y0200934D02*
X0254408Y0199528D01*
X0252687Y0198164D01*
X0250934Y0196843D01*
X0249149Y0195564D01*
X0247334Y0194330D01*
X0245489Y0193140D01*
X0243615Y0191995D01*
X0241714Y0190897D01*
X0239787Y0189845D01*
X0237835Y0188840D01*
X0235859Y0187883D01*
X0233860Y0186975D01*
X0231840Y0186116D01*
X0229799Y0185306D01*
X0227740Y0184546D01*
X0225662Y0183836D01*
X0223568Y0183178D01*
X0221458Y0182570D01*
X0219334Y0182015D01*
X0217197Y0181511D01*
X0215048Y0181059D01*
X0212889Y0180660D01*
X0210721Y0180314D01*
X0208546Y0180020D01*
X0206363Y0179780D01*
X0204176Y0179593D01*
X0201984Y0179459D01*
X0199790Y0179379D01*
X0197595Y0179352D01*
X0195400Y0179379D01*
X0193206Y0179459D01*
X0191014Y0179593D01*
X0188827Y0179780D01*
X0186644Y0180020D01*
X0184469Y0180314D01*
X0182301Y0180660D01*
X0180142Y0181059D01*
X0177993Y0181511D01*
X0175856Y0182015D01*
X0173732Y0182570D01*
X0171622Y0183178D01*
X0169528Y0183836D01*
X0167450Y0184546D01*
X0165391Y0185306D01*
X0163350Y0186116D01*
X0161330Y0186975D01*
X0159331Y0187883D01*
X0157355Y0188840D01*
X0155403Y0189845D01*
X0153476Y0190897D01*
X0151575Y0191995D01*
X0149701Y0193140D01*
X0147856Y0194330D01*
X0146041Y0195564D01*
X0144256Y0196843D01*
X0142503Y0198164D01*
X0140782Y0199528D01*
X0139095Y0200934D01*
X0139095Y0336932D02*
X0140782Y0338338D01*
X0142503Y0339702D01*
X0144256Y0341023D01*
X0146041Y0342302D01*
X0147856Y0343536D01*
X0149701Y0344726D01*
X0151575Y0345871D01*
X0153476Y0346969D01*
X0155403Y0348021D01*
X0157355Y0349026D01*
X0159331Y0349983D01*
X0161330Y0350891D01*
X0163350Y0351750D01*
X0165391Y0352560D01*
X0167450Y0353320D01*
X0169528Y0354030D01*
X0171622Y0354688D01*
X0173732Y0355296D01*
X0175856Y0355851D01*
X0177993Y0356355D01*
X0180142Y0356807D01*
X0182301Y0357206D01*
X0184469Y0357552D01*
X0186644Y0357846D01*
X0188827Y0358086D01*
X0191014Y0358273D01*
X0193206Y0358407D01*
X0195400Y0358487D01*
X0197595Y0358514D01*
X0199790Y0358487D01*
X0201984Y0358407D01*
X0204176Y0358273D01*
X0206363Y0358086D01*
X0208546Y0357846D01*
X0210721Y0357552D01*
X0212889Y0357206D01*
X0215048Y0356807D01*
X0217197Y0356355D01*
X0219334Y0355851D01*
X0221458Y0355296D01*
X0223568Y0354688D01*
X0225662Y0354030D01*
X0227740Y0353320D01*
X0229799Y0352560D01*
X0231840Y0351750D01*
X0233860Y0350891D01*
X0235859Y0349983D01*
X0237835Y0349026D01*
X0239787Y0348021D01*
X0241714Y0346969D01*
X0243615Y0345871D01*
X0245489Y0344726D01*
X0247334Y0343536D01*
X0249149Y0342302D01*
X0250934Y0341023D01*
X0252687Y0339702D01*
X0254408Y0338338D01*
X0256095Y0336932D01*
X0229345Y0310683D02*
X0228333Y0311441D01*
X0227302Y0312173D01*
X0226255Y0312881D01*
X0225190Y0313563D01*
X0224109Y0314219D01*
X0223013Y0314848D01*
X0221901Y0315451D01*
X0220776Y0316026D01*
X0219637Y0316574D01*
X0218484Y0317095D01*
X0217320Y0317587D01*
X0216144Y0318051D01*
X0214957Y0318486D01*
X0213760Y0318893D01*
X0212553Y0319270D01*
X0211338Y0319618D01*
X0210114Y0319936D01*
X0208883Y0320225D01*
X0207646Y0320483D01*
X0206403Y0320712D01*
X0205154Y0320910D01*
X0203901Y0321078D01*
X0202644Y0321216D01*
X0201384Y0321323D01*
X0200123Y0321400D01*
X0198859Y0321446D01*
X0197595Y0321461D01*
X0196331Y0321446D01*
X0195067Y0321400D01*
X0193806Y0321323D01*
X0192546Y0321216D01*
X0191289Y0321078D01*
X0190036Y0320910D01*
X0188787Y0320712D01*
X0187544Y0320483D01*
X0186307Y0320225D01*
X0185076Y0319936D01*
X0183852Y0319618D01*
X0182637Y0319270D01*
X0181430Y0318893D01*
X0180233Y0318486D01*
X0179046Y0318051D01*
X0177870Y0317587D01*
X0176706Y0317095D01*
X0175553Y0316574D01*
X0174414Y0316026D01*
X0173289Y0315451D01*
X0172177Y0314848D01*
X0171081Y0314219D01*
X0170000Y0313563D01*
X0168935Y0312881D01*
X0167888Y0312173D01*
X0166857Y0311441D01*
X0165845Y0310683D01*
X0178345Y0298183D02*
X0179054Y0298640D01*
X0179775Y0299080D01*
X0180506Y0299502D01*
X0181247Y0299907D01*
X0181998Y0300293D01*
X0182757Y0300660D01*
X0183526Y0301010D01*
X0184303Y0301340D01*
X0185087Y0301651D01*
X0185880Y0301943D01*
X0186678Y0302216D01*
X0187484Y0302469D01*
X0188295Y0302702D01*
X0189112Y0302916D01*
X0189933Y0303109D01*
X0190759Y0303283D01*
X0191589Y0303436D01*
X0192423Y0303569D01*
X0193260Y0303682D01*
X0194099Y0303775D01*
X0194940Y0303846D01*
X0195782Y0303898D01*
X0196626Y0303929D01*
X0197470Y0303939D01*
X0198314Y0303929D01*
X0199158Y0303898D01*
X0200000Y0303846D01*
X0200841Y0303775D01*
X0201680Y0303682D01*
X0202517Y0303569D01*
X0203351Y0303436D01*
X0204181Y0303283D01*
X0205007Y0303109D01*
X0205828Y0302916D01*
X0206645Y0302702D01*
X0207456Y0302469D01*
X0208262Y0302216D01*
X0209060Y0301943D01*
X0209853Y0301651D01*
X0210637Y0301340D01*
X0211414Y0301010D01*
X0212183Y0300660D01*
X0212942Y0300293D01*
X0213693Y0299907D01*
X0214434Y0299502D01*
X0215165Y0299080D01*
X0215886Y0298640D01*
X0216595Y0298183D01*
X0208595Y0289933D02*
X0208086Y0290196D01*
X0207571Y0290446D01*
X0207050Y0290683D01*
X0206524Y0290908D01*
X0205992Y0291120D01*
X0205455Y0291318D01*
X0204913Y0291504D01*
X0204367Y0291676D01*
X0203817Y0291835D01*
X0203263Y0291980D01*
X0202706Y0292112D01*
X0202146Y0292230D01*
X0201583Y0292334D01*
X0201018Y0292425D01*
X0200451Y0292501D01*
X0199881Y0292564D01*
X0199311Y0292613D01*
X0198740Y0292648D01*
X0198167Y0292669D01*
X0197595Y0292676D01*
X0197023Y0292669D01*
X0196450Y0292648D01*
X0195879Y0292613D01*
X0195309Y0292564D01*
X0194739Y0292501D01*
X0194172Y0292425D01*
X0193607Y0292334D01*
X0193044Y0292230D01*
X0192484Y0292112D01*
X0191927Y0291980D01*
X0191373Y0291835D01*
X0190823Y0291676D01*
X0190277Y0291504D01*
X0189735Y0291318D01*
X0189198Y0291120D01*
X0188666Y0290908D01*
X0188140Y0290683D01*
X0187619Y0290446D01*
X0187104Y0290196D01*
X0186595Y0289933D01*
X0155846Y0300683D02*
X0155088Y0299671D01*
X0154356Y0298640D01*
X0153648Y0297593D01*
X0152966Y0296528D01*
X0152310Y0295447D01*
X0151681Y0294351D01*
X0151078Y0293239D01*
X0150503Y0292114D01*
X0149955Y0290975D01*
X0149434Y0289822D01*
X0148942Y0288658D01*
X0148478Y0287482D01*
X0148043Y0286295D01*
X0147636Y0285098D01*
X0147259Y0283891D01*
X0146911Y0282676D01*
X0146593Y0281452D01*
X0146304Y0280221D01*
X0146046Y0278984D01*
X0145817Y0277741D01*
X0145619Y0276492D01*
X0145451Y0275239D01*
X0145313Y0273982D01*
X0145206Y0272722D01*
X0145129Y0271461D01*
X0145083Y0270197D01*
X0145068Y0268933D01*
X0145083Y0267669D01*
X0145129Y0266405D01*
X0145206Y0265144D01*
X0145313Y0263884D01*
X0145451Y0262627D01*
X0145619Y0261374D01*
X0145817Y0260125D01*
X0146046Y0258882D01*
X0146304Y0257645D01*
X0146593Y0256414D01*
X0146911Y0255190D01*
X0147259Y0253975D01*
X0147636Y0252768D01*
X0148043Y0251571D01*
X0148478Y0250384D01*
X0148942Y0249208D01*
X0149434Y0248044D01*
X0149955Y0246891D01*
X0150503Y0245752D01*
X0151078Y0244627D01*
X0151681Y0243515D01*
X0152310Y0242419D01*
X0152966Y0241338D01*
X0153648Y0240273D01*
X0154356Y0239226D01*
X0155088Y0238195D01*
X0155846Y0237183D01*
X0168345Y0249683D02*
X0167888Y0250392D01*
X0167448Y0251113D01*
X0167026Y0251844D01*
X0166621Y0252585D01*
X0166235Y0253336D01*
X0165868Y0254095D01*
X0165518Y0254864D01*
X0165188Y0255641D01*
X0164877Y0256425D01*
X0164585Y0257218D01*
X0164312Y0258016D01*
X0164059Y0258822D01*
X0163826Y0259633D01*
X0163612Y0260450D01*
X0163419Y0261271D01*
X0163245Y0262097D01*
X0163092Y0262927D01*
X0162959Y0263761D01*
X0162846Y0264598D01*
X0162753Y0265437D01*
X0162682Y0266278D01*
X0162630Y0267120D01*
X0162599Y0267964D01*
X0162589Y0268808D01*
X0162599Y0269652D01*
X0162630Y0270496D01*
X0162682Y0271338D01*
X0162753Y0272179D01*
X0162846Y0273018D01*
X0162959Y0273855D01*
X0163092Y0274689D01*
X0163245Y0275519D01*
X0163419Y0276345D01*
X0163612Y0277166D01*
X0163826Y0277983D01*
X0164059Y0278794D01*
X0164312Y0279600D01*
X0164585Y0280398D01*
X0164877Y0281191D01*
X0165188Y0281975D01*
X0165518Y0282752D01*
X0165868Y0283521D01*
X0166235Y0284280D01*
X0166621Y0285031D01*
X0167026Y0285772D01*
X0167448Y0286503D01*
X0167888Y0287224D01*
X0168345Y0287933D01*
X0176595Y0279933D02*
X0176332Y0279424D01*
X0176082Y0278909D01*
X0175845Y0278388D01*
X0175620Y0277862D01*
X0175408Y0277330D01*
X0175210Y0276793D01*
X0175024Y0276251D01*
X0174852Y0275705D01*
X0174693Y0275155D01*
X0174548Y0274601D01*
X0174416Y0274044D01*
X0174298Y0273484D01*
X0174194Y0272921D01*
X0174103Y0272356D01*
X0174027Y0271789D01*
X0173964Y0271219D01*
X0173915Y0270649D01*
X0173880Y0270078D01*
X0173859Y0269505D01*
X0173852Y0268933D01*
X0173859Y0268361D01*
X0173880Y0267788D01*
X0173915Y0267217D01*
X0173964Y0266647D01*
X0174027Y0266077D01*
X0174103Y0265510D01*
X0174194Y0264945D01*
X0174298Y0264382D01*
X0174416Y0263822D01*
X0174548Y0263265D01*
X0174693Y0262711D01*
X0174852Y0262161D01*
X0175024Y0261615D01*
X0175210Y0261073D01*
X0175408Y0260536D01*
X0175620Y0260004D01*
X0175845Y0259478D01*
X0176082Y0258957D01*
X0176332Y0258442D01*
X0176595Y0257933D01*
X0165845Y0227183D02*
X0166857Y0226425D01*
X0167888Y0225693D01*
X0168935Y0224985D01*
X0170000Y0224303D01*
X0171081Y0223647D01*
X0172177Y0223018D01*
X0173289Y0222415D01*
X0174414Y0221840D01*
X0175553Y0221292D01*
X0176706Y0220771D01*
X0177870Y0220279D01*
X0179046Y0219815D01*
X0180233Y0219380D01*
X0181430Y0218973D01*
X0182637Y0218596D01*
X0183852Y0218248D01*
X0185076Y0217930D01*
X0186307Y0217641D01*
X0187544Y0217383D01*
X0188787Y0217154D01*
X0190036Y0216956D01*
X0191289Y0216788D01*
X0192546Y0216650D01*
X0193806Y0216543D01*
X0195067Y0216466D01*
X0196331Y0216420D01*
X0197595Y0216405D01*
X0198859Y0216420D01*
X0200123Y0216466D01*
X0201384Y0216543D01*
X0202644Y0216650D01*
X0203901Y0216788D01*
X0205154Y0216956D01*
X0206403Y0217154D01*
X0207646Y0217383D01*
X0208883Y0217641D01*
X0210114Y0217930D01*
X0211338Y0218248D01*
X0212553Y0218596D01*
X0213760Y0218973D01*
X0214957Y0219380D01*
X0216144Y0219815D01*
X0217320Y0220279D01*
X0218484Y0220771D01*
X0219637Y0221292D01*
X0220776Y0221840D01*
X0221901Y0222415D01*
X0223013Y0223018D01*
X0224109Y0223647D01*
X0225190Y0224303D01*
X0226255Y0224985D01*
X0227302Y0225693D01*
X0228333Y0226425D01*
X0229345Y0227183D01*
X0216845Y0239683D02*
X0216136Y0239226D01*
X0215415Y0238786D01*
X0214684Y0238364D01*
X0213943Y0237959D01*
X0213192Y0237573D01*
X0212433Y0237206D01*
X0211664Y0236856D01*
X0210887Y0236526D01*
X0210103Y0236215D01*
X0209310Y0235923D01*
X0208512Y0235650D01*
X0207706Y0235397D01*
X0206895Y0235164D01*
X0206078Y0234950D01*
X0205257Y0234757D01*
X0204431Y0234583D01*
X0203601Y0234430D01*
X0202767Y0234297D01*
X0201930Y0234184D01*
X0201091Y0234091D01*
X0200250Y0234020D01*
X0199408Y0233968D01*
X0198564Y0233937D01*
X0197720Y0233927D01*
X0196876Y0233937D01*
X0196032Y0233968D01*
X0195190Y0234020D01*
X0194349Y0234091D01*
X0193510Y0234184D01*
X0192673Y0234297D01*
X0191839Y0234430D01*
X0191009Y0234583D01*
X0190183Y0234757D01*
X0189362Y0234950D01*
X0188545Y0235164D01*
X0187734Y0235397D01*
X0186928Y0235650D01*
X0186130Y0235923D01*
X0185337Y0236215D01*
X0184553Y0236526D01*
X0183776Y0236856D01*
X0183007Y0237206D01*
X0182248Y0237573D01*
X0181497Y0237959D01*
X0180756Y0238364D01*
X0180025Y0238786D01*
X0179304Y0239226D01*
X0178595Y0239683D01*
X0186595Y0247933D02*
X0187104Y0247670D01*
X0187619Y0247420D01*
X0188140Y0247183D01*
X0188666Y0246958D01*
X0189198Y0246746D01*
X0189735Y0246548D01*
X0190277Y0246362D01*
X0190823Y0246190D01*
X0191373Y0246031D01*
X0191927Y0245886D01*
X0192484Y0245754D01*
X0193044Y0245636D01*
X0193607Y0245532D01*
X0194172Y0245441D01*
X0194739Y0245365D01*
X0195309Y0245302D01*
X0195879Y0245253D01*
X0196450Y0245218D01*
X0197023Y0245197D01*
X0197595Y0245190D01*
X0198167Y0245197D01*
X0198740Y0245218D01*
X0199311Y0245253D01*
X0199881Y0245302D01*
X0200451Y0245365D01*
X0201018Y0245441D01*
X0201583Y0245532D01*
X0202146Y0245636D01*
X0202706Y0245754D01*
X0203263Y0245886D01*
X0203817Y0246031D01*
X0204367Y0246190D01*
X0204913Y0246362D01*
X0205455Y0246548D01*
X0205992Y0246746D01*
X0206524Y0246958D01*
X0207050Y0247183D01*
X0207571Y0247420D01*
X0208086Y0247670D01*
X0208595Y0247933D01*
X0218595Y0257933D02*
X0218858Y0258442D01*
X0219108Y0258957D01*
X0219345Y0259478D01*
X0219570Y0260004D01*
X0219782Y0260536D01*
X0219980Y0261073D01*
X0220166Y0261615D01*
X0220338Y0262161D01*
X0220497Y0262711D01*
X0220642Y0263265D01*
X0220774Y0263822D01*
X0220892Y0264382D01*
X0220996Y0264945D01*
X0221087Y0265510D01*
X0221163Y0266077D01*
X0221226Y0266647D01*
X0221275Y0267217D01*
X0221310Y0267788D01*
X0221331Y0268361D01*
X0221338Y0268933D01*
X0221331Y0269505D01*
X0221310Y0270078D01*
X0221275Y0270649D01*
X0221226Y0271219D01*
X0221163Y0271789D01*
X0221087Y0272356D01*
X0220996Y0272921D01*
X0220892Y0273484D01*
X0220774Y0274044D01*
X0220642Y0274601D01*
X0220497Y0275155D01*
X0220338Y0275705D01*
X0220166Y0276251D01*
X0219980Y0276793D01*
X0219782Y0277330D01*
X0219570Y0277862D01*
X0219345Y0278388D01*
X0219108Y0278909D01*
X0218858Y0279424D01*
X0218595Y0279933D01*
X0197595Y0133933D02*
X0194322Y0133973D01*
X0191052Y0134091D01*
X0187785Y0134289D01*
X0184524Y0134567D01*
X0181271Y0134923D01*
X0178027Y0135357D01*
X0174795Y0135870D01*
X0171576Y0136461D01*
X0168372Y0137130D01*
X0165185Y0137877D01*
X0162018Y0138700D01*
X0158871Y0139599D01*
X0155747Y0140575D01*
X0152648Y0141626D01*
X0149575Y0142752D01*
X0146530Y0143952D01*
X0143515Y0145225D01*
X0140531Y0146571D01*
X0137582Y0147988D01*
X0134667Y0149477D01*
X0131789Y0151036D01*
X0128950Y0152664D01*
X0126151Y0154360D01*
X0123394Y0156124D01*
X0120681Y0157953D01*
X0118012Y0159848D01*
X0115391Y0161807D01*
X0112817Y0163829D01*
X0110293Y0165913D01*
X0107821Y0168057D01*
X0105401Y0170261D01*
X0103035Y0172522D01*
X0100725Y0174840D01*
X0098471Y0177213D01*
X0096276Y0179640D01*
X0094139Y0182120D01*
X0092064Y0184651D01*
X0090051Y0187231D01*
X0088100Y0189859D01*
X0086214Y0192533D01*
X0084393Y0195253D01*
X0082638Y0198015D01*
X0080951Y0200820D01*
X0079332Y0203664D01*
X0077783Y0206547D01*
X0076304Y0209466D01*
X0074896Y0212421D01*
X0073560Y0215408D01*
X0072296Y0218428D01*
X0071107Y0221476D01*
X0069991Y0224553D01*
X0068950Y0227656D01*
X0067985Y0230783D01*
X0067095Y0233933D01*
X0197595Y0133933D02*
X0200857Y0133972D01*
X0204117Y0134091D01*
X0207374Y0134288D01*
X0210624Y0134563D01*
X0213867Y0134917D01*
X0217101Y0135350D01*
X0220323Y0135860D01*
X0223532Y0136448D01*
X0226726Y0137113D01*
X0229903Y0137856D01*
X0233060Y0138675D01*
X0236198Y0139570D01*
X0239312Y0140540D01*
X0242403Y0141586D01*
X0245467Y0142706D01*
X0248503Y0143899D01*
X0251509Y0145166D01*
X0254484Y0146505D01*
X0257426Y0147915D01*
X0260333Y0149396D01*
X0263203Y0150947D01*
X0266035Y0152567D01*
X0268826Y0154255D01*
X0271577Y0156010D01*
X0274284Y0157830D01*
X0276946Y0159716D01*
X0279562Y0161665D01*
X0282130Y0163677D01*
X0284649Y0165750D01*
X0287117Y0167884D01*
X0289532Y0170077D01*
X0291894Y0172327D01*
X0294201Y0174634D01*
X0296451Y0176996D01*
X0298644Y0179411D01*
X0300778Y0181879D01*
X0302851Y0184398D01*
X0304863Y0186966D01*
X0306812Y0189582D01*
X0308698Y0192244D01*
X0310518Y0194951D01*
X0312273Y0197702D01*
X0313961Y0200493D01*
X0315581Y0203325D01*
X0317132Y0206195D01*
X0318613Y0209102D01*
X0320023Y0212044D01*
X0321362Y0215019D01*
X0322629Y0218025D01*
X0323822Y0221061D01*
X0324942Y0224125D01*
X0325988Y0227216D01*
X0326958Y0230330D01*
X0327853Y0233468D01*
X0328672Y0236625D01*
X0329415Y0239802D01*
X0330080Y0242996D01*
X0330668Y0246205D01*
X0331178Y0249427D01*
X0331611Y0252661D01*
X0331965Y0255904D01*
X0332240Y0259154D01*
X0332437Y0262411D01*
X0332556Y0265671D01*
X0332595Y0268933D01*
D11*
X0062595Y0128933D02*
X0062595Y0001256D01*
X0062851Y0008933D02*
X0072831Y0007909D01*
X0072831Y0007676D02*
X0062851Y0008933D01*
X0072831Y0009957D01*
X0072831Y0010190D02*
X0072831Y0007676D01*
X0072831Y0008421D02*
X0062851Y0008933D01*
X0072831Y0009445D01*
X0072831Y0010190D02*
X0062851Y0008933D01*
X0507339Y0008933D01*
X0497359Y0007909D01*
X0497359Y0007676D02*
X0507339Y0008933D01*
X0497359Y0009957D01*
X0497359Y0010190D02*
X0497359Y0007676D01*
X0497359Y0008421D02*
X0507339Y0008933D01*
X0497359Y0009445D01*
X0497359Y0010190D02*
X0507339Y0008933D01*
X0507595Y0001256D02*
X0507595Y0128933D01*
X0286352Y0128933D02*
X0283838Y0128933D01*
X0285095Y0127676D02*
X0285095Y0130190D01*
X0053852Y0201433D02*
X0051338Y0201433D01*
X0052595Y0200176D02*
X0052595Y0202690D01*
X0018852Y0258697D02*
X0017595Y0268677D01*
X0018619Y0258697D01*
X0018852Y0258697D02*
X0016338Y0258697D01*
X0017595Y0268677D01*
X0016572Y0258697D01*
X0017083Y0258697D02*
X0017595Y0268677D01*
X0018107Y0258697D01*
X0017595Y0268677D02*
X0017595Y0134189D01*
X0018619Y0144169D01*
X0018852Y0144169D02*
X0017595Y0134189D01*
X0016572Y0144169D01*
X0016338Y0144169D02*
X0018852Y0144169D01*
X0018107Y0144169D02*
X0017595Y0134189D01*
X0017083Y0144169D01*
X0016338Y0144169D02*
X0017595Y0134189D01*
X0009918Y0133933D02*
X0052595Y0133933D01*
X0052595Y0268933D02*
X0009918Y0268933D01*
D12*
X0083959Y0265503D02*
X0086228Y0265503D01*
X0086795Y0266070D01*
X0086228Y0267391D02*
X0086795Y0267959D01*
X0086795Y0269093D01*
X0085661Y0269660D02*
X0085661Y0267391D01*
X0086228Y0267391D02*
X0085094Y0267391D01*
X0084527Y0267959D01*
X0084527Y0269093D01*
X0085094Y0269660D01*
X0085661Y0269660D01*
X0084527Y0266070D02*
X0084527Y0264936D01*
X0084527Y0263522D02*
X0086795Y0263522D01*
X0086795Y0261820D01*
X0086228Y0261253D01*
X0084527Y0261253D01*
X0085094Y0259838D02*
X0084527Y0259271D01*
X0084527Y0258137D01*
X0085094Y0257570D01*
X0086228Y0257570D01*
X0086795Y0258137D01*
X0086795Y0259271D01*
X0086228Y0259838D01*
X0085094Y0259838D01*
X0085094Y0256155D02*
X0085661Y0255588D01*
X0085661Y0253887D01*
X0085661Y0255021D02*
X0086795Y0256155D01*
X0085094Y0256155D02*
X0083959Y0256155D01*
X0083392Y0255588D01*
X0083392Y0253887D01*
X0086795Y0253887D01*
X0110892Y0253887D02*
X0110892Y0255588D01*
X0111459Y0256155D01*
X0112594Y0256155D01*
X0113161Y0255588D01*
X0113161Y0253887D01*
X0113161Y0255021D02*
X0114295Y0256155D01*
X0113728Y0257570D02*
X0114295Y0258137D01*
X0114295Y0259271D01*
X0113728Y0259838D01*
X0112594Y0259838D01*
X0112027Y0259271D01*
X0112027Y0258137D01*
X0112594Y0257570D01*
X0113728Y0257570D01*
X0113728Y0261253D02*
X0112027Y0261253D01*
X0113728Y0261253D02*
X0114295Y0261820D01*
X0114295Y0263522D01*
X0112027Y0263522D01*
X0112027Y0264936D02*
X0112027Y0266070D01*
X0111459Y0265503D02*
X0113728Y0265503D01*
X0114295Y0266070D01*
X0113728Y0267391D02*
X0112594Y0267391D01*
X0112027Y0267959D01*
X0112027Y0269093D01*
X0112594Y0269660D01*
X0113161Y0269660D01*
X0113161Y0267391D01*
X0113728Y0267391D02*
X0114295Y0267959D01*
X0114295Y0269093D01*
X0113728Y0274758D02*
X0112594Y0274758D01*
X0112027Y0275325D01*
X0112027Y0276459D01*
X0112594Y0277026D01*
X0113728Y0277026D01*
X0114295Y0276459D01*
X0114295Y0275325D01*
X0113728Y0274758D01*
X0113728Y0278441D02*
X0112027Y0278441D01*
X0113728Y0278441D02*
X0114295Y0279008D01*
X0114295Y0280710D01*
X0112027Y0280710D01*
X0112027Y0282124D02*
X0112027Y0283258D01*
X0111459Y0282691D02*
X0113728Y0282691D01*
X0114295Y0283258D01*
X0141459Y0282691D02*
X0143728Y0282691D01*
X0144295Y0283258D01*
X0142027Y0283258D02*
X0142027Y0282124D01*
X0142027Y0280710D02*
X0144295Y0280710D01*
X0144295Y0279008D01*
X0143728Y0278441D01*
X0142027Y0278441D01*
X0142594Y0277026D02*
X0142027Y0276459D01*
X0142027Y0275325D01*
X0142594Y0274758D01*
X0143728Y0274758D01*
X0144295Y0275325D01*
X0144295Y0276459D01*
X0143728Y0277026D01*
X0142594Y0277026D01*
X0142594Y0269660D02*
X0143161Y0269660D01*
X0143161Y0267391D01*
X0143728Y0267391D02*
X0142594Y0267391D01*
X0142027Y0267959D01*
X0142027Y0269093D01*
X0142594Y0269660D01*
X0144295Y0269093D02*
X0144295Y0267959D01*
X0143728Y0267391D01*
X0144295Y0266070D02*
X0143728Y0265503D01*
X0141459Y0265503D01*
X0142027Y0264936D02*
X0142027Y0266070D01*
X0142027Y0263522D02*
X0144295Y0263522D01*
X0144295Y0261820D01*
X0143728Y0261253D01*
X0142027Y0261253D01*
X0142594Y0259838D02*
X0142027Y0259271D01*
X0142027Y0258137D01*
X0142594Y0257570D01*
X0143728Y0257570D01*
X0144295Y0258137D01*
X0144295Y0259271D01*
X0143728Y0259838D01*
X0142594Y0259838D01*
X0142594Y0256155D02*
X0143161Y0255588D01*
X0143161Y0253887D01*
X0143161Y0255021D02*
X0144295Y0256155D01*
X0142594Y0256155D02*
X0141459Y0256155D01*
X0140892Y0255588D01*
X0140892Y0253887D01*
X0144295Y0253887D01*
X0167142Y0253887D02*
X0167142Y0255588D01*
X0167709Y0256155D01*
X0168844Y0256155D01*
X0169411Y0255588D01*
X0169411Y0253887D01*
X0169411Y0255021D02*
X0170545Y0256155D01*
X0169978Y0257570D02*
X0170545Y0258137D01*
X0170545Y0259271D01*
X0169978Y0259838D01*
X0168844Y0259838D01*
X0168277Y0259271D01*
X0168277Y0258137D01*
X0168844Y0257570D01*
X0169978Y0257570D01*
X0169978Y0261253D02*
X0170545Y0261820D01*
X0170545Y0263522D01*
X0168277Y0263522D01*
X0168277Y0264936D02*
X0168277Y0266070D01*
X0167709Y0265503D02*
X0169978Y0265503D01*
X0170545Y0266070D01*
X0169978Y0267391D02*
X0168844Y0267391D01*
X0168277Y0267959D01*
X0168277Y0269093D01*
X0168844Y0269660D01*
X0169411Y0269660D01*
X0169411Y0267391D01*
X0169978Y0267391D02*
X0170545Y0267959D01*
X0170545Y0269093D01*
X0169978Y0274758D02*
X0170545Y0275325D01*
X0170545Y0276459D01*
X0169978Y0277026D01*
X0168844Y0277026D01*
X0168277Y0276459D01*
X0168277Y0275325D01*
X0168844Y0274758D01*
X0169978Y0274758D01*
X0169978Y0278441D02*
X0170545Y0279008D01*
X0170545Y0280710D01*
X0168277Y0280710D01*
X0168277Y0282124D02*
X0168277Y0283258D01*
X0167709Y0282691D02*
X0169978Y0282691D01*
X0170545Y0283258D01*
X0169978Y0278441D02*
X0168277Y0278441D01*
X0168277Y0261253D02*
X0169978Y0261253D01*
X0170545Y0253887D02*
X0167142Y0253887D01*
X0182549Y0241886D02*
X0184250Y0241886D01*
X0184817Y0241319D01*
X0184817Y0240185D01*
X0184250Y0239617D01*
X0182549Y0239617D01*
X0182549Y0238483D02*
X0182549Y0241886D01*
X0183683Y0239617D02*
X0184817Y0238483D01*
X0186232Y0239050D02*
X0186232Y0240185D01*
X0186799Y0240752D01*
X0187933Y0240752D01*
X0188500Y0240185D01*
X0188500Y0239050D01*
X0187933Y0238483D01*
X0186799Y0238483D01*
X0186232Y0239050D01*
X0189915Y0239050D02*
X0190482Y0238483D01*
X0192184Y0238483D01*
X0192184Y0240752D01*
X0193598Y0240752D02*
X0194732Y0240752D01*
X0194165Y0241319D02*
X0194165Y0239050D01*
X0194732Y0238483D01*
X0196054Y0239050D02*
X0196054Y0240185D01*
X0196621Y0240752D01*
X0197755Y0240752D01*
X0198322Y0240185D01*
X0198322Y0239617D01*
X0196054Y0239617D01*
X0196054Y0239050D02*
X0196621Y0238483D01*
X0197755Y0238483D01*
X0203420Y0239050D02*
X0203420Y0240185D01*
X0203987Y0240752D01*
X0205121Y0240752D01*
X0205688Y0240185D01*
X0205688Y0239050D01*
X0205121Y0238483D01*
X0203987Y0238483D01*
X0203420Y0239050D01*
X0207103Y0239050D02*
X0207103Y0240752D01*
X0207103Y0239050D02*
X0207670Y0238483D01*
X0209372Y0238483D01*
X0209372Y0240752D01*
X0210786Y0240752D02*
X0211920Y0240752D01*
X0211353Y0241319D02*
X0211353Y0239050D01*
X0211920Y0238483D01*
X0189915Y0239050D02*
X0189915Y0240752D01*
X0224642Y0253887D02*
X0224642Y0255588D01*
X0225209Y0256155D01*
X0226344Y0256155D01*
X0226911Y0255588D01*
X0226911Y0253887D01*
X0226911Y0255021D02*
X0228045Y0256155D01*
X0227478Y0257570D02*
X0228045Y0258137D01*
X0228045Y0259271D01*
X0227478Y0259838D01*
X0226344Y0259838D01*
X0225777Y0259271D01*
X0225777Y0258137D01*
X0226344Y0257570D01*
X0227478Y0257570D01*
X0227478Y0261253D02*
X0225777Y0261253D01*
X0227478Y0261253D02*
X0228045Y0261820D01*
X0228045Y0263522D01*
X0225777Y0263522D01*
X0225777Y0264936D02*
X0225777Y0266070D01*
X0225209Y0265503D02*
X0227478Y0265503D01*
X0228045Y0266070D01*
X0227478Y0267391D02*
X0226344Y0267391D01*
X0225777Y0267959D01*
X0225777Y0269093D01*
X0226344Y0269660D01*
X0226911Y0269660D01*
X0226911Y0267391D01*
X0227478Y0267391D02*
X0228045Y0267959D01*
X0228045Y0269093D01*
X0227478Y0274758D02*
X0228045Y0275325D01*
X0228045Y0276459D01*
X0227478Y0277026D01*
X0226344Y0277026D01*
X0225777Y0276459D01*
X0225777Y0275325D01*
X0226344Y0274758D01*
X0227478Y0274758D01*
X0227478Y0278441D02*
X0225777Y0278441D01*
X0227478Y0278441D02*
X0228045Y0279008D01*
X0228045Y0280710D01*
X0225777Y0280710D01*
X0225777Y0282124D02*
X0225777Y0283258D01*
X0225209Y0282691D02*
X0227478Y0282691D01*
X0228045Y0283258D01*
X0251459Y0282691D02*
X0253728Y0282691D01*
X0254295Y0283258D01*
X0252027Y0283258D02*
X0252027Y0282124D01*
X0252027Y0280710D02*
X0254295Y0280710D01*
X0254295Y0279008D01*
X0253728Y0278441D01*
X0252027Y0278441D01*
X0252594Y0277026D02*
X0252027Y0276459D01*
X0252027Y0275325D01*
X0252594Y0274758D01*
X0253728Y0274758D01*
X0254295Y0275325D01*
X0254295Y0276459D01*
X0253728Y0277026D01*
X0252594Y0277026D01*
X0252594Y0269660D02*
X0253161Y0269660D01*
X0253161Y0267391D01*
X0253728Y0267391D02*
X0252594Y0267391D01*
X0252027Y0267959D01*
X0252027Y0269093D01*
X0252594Y0269660D01*
X0254295Y0269093D02*
X0254295Y0267959D01*
X0253728Y0267391D01*
X0254295Y0266070D02*
X0253728Y0265503D01*
X0251459Y0265503D01*
X0252027Y0264936D02*
X0252027Y0266070D01*
X0252027Y0263522D02*
X0254295Y0263522D01*
X0254295Y0261820D01*
X0253728Y0261253D01*
X0252027Y0261253D01*
X0252594Y0259838D02*
X0252027Y0259271D01*
X0252027Y0258137D01*
X0252594Y0257570D01*
X0253728Y0257570D01*
X0254295Y0258137D01*
X0254295Y0259271D01*
X0253728Y0259838D01*
X0252594Y0259838D01*
X0252594Y0256155D02*
X0253161Y0255588D01*
X0253161Y0253887D01*
X0253161Y0255021D02*
X0254295Y0256155D01*
X0252594Y0256155D02*
X0251459Y0256155D01*
X0250892Y0255588D01*
X0250892Y0253887D01*
X0254295Y0253887D01*
X0228045Y0253887D02*
X0224642Y0253887D01*
X0211353Y0215069D02*
X0211353Y0212800D01*
X0211920Y0212233D01*
X0211920Y0214502D02*
X0210786Y0214502D01*
X0209372Y0214502D02*
X0209372Y0212233D01*
X0207670Y0212233D01*
X0207103Y0212800D01*
X0207103Y0214502D01*
X0205688Y0213935D02*
X0205121Y0214502D01*
X0203987Y0214502D01*
X0203420Y0213935D01*
X0203420Y0212800D01*
X0203987Y0212233D01*
X0205121Y0212233D01*
X0205688Y0212800D01*
X0205688Y0213935D01*
X0198322Y0213935D02*
X0198322Y0213367D01*
X0196054Y0213367D01*
X0196054Y0212800D02*
X0196054Y0213935D01*
X0196621Y0214502D01*
X0197755Y0214502D01*
X0198322Y0213935D01*
X0197755Y0212233D02*
X0196621Y0212233D01*
X0196054Y0212800D01*
X0194732Y0212233D02*
X0194165Y0212800D01*
X0194165Y0215069D01*
X0193598Y0214502D02*
X0194732Y0214502D01*
X0192184Y0214502D02*
X0192184Y0212233D01*
X0190482Y0212233D01*
X0189915Y0212800D01*
X0189915Y0214502D01*
X0188500Y0213935D02*
X0187933Y0214502D01*
X0186799Y0214502D01*
X0186232Y0213935D01*
X0186232Y0212800D01*
X0186799Y0212233D01*
X0187933Y0212233D01*
X0188500Y0212800D01*
X0188500Y0213935D01*
X0184817Y0213935D02*
X0184817Y0215069D01*
X0184250Y0215636D01*
X0182549Y0215636D01*
X0182549Y0212233D01*
X0182549Y0213367D02*
X0184250Y0213367D01*
X0184817Y0213935D01*
X0183683Y0213367D02*
X0184817Y0212233D01*
X0184250Y0188136D02*
X0184817Y0187569D01*
X0184817Y0186435D01*
X0184250Y0185867D01*
X0182549Y0185867D01*
X0182549Y0184733D02*
X0182549Y0188136D01*
X0184250Y0188136D01*
X0183683Y0185867D02*
X0184817Y0184733D01*
X0186232Y0185300D02*
X0186799Y0184733D01*
X0187933Y0184733D01*
X0188500Y0185300D01*
X0188500Y0186435D01*
X0187933Y0187002D01*
X0186799Y0187002D01*
X0186232Y0186435D01*
X0186232Y0185300D01*
X0189915Y0185300D02*
X0190482Y0184733D01*
X0192184Y0184733D01*
X0192184Y0187002D01*
X0193598Y0187002D02*
X0194732Y0187002D01*
X0194165Y0187569D02*
X0194165Y0185300D01*
X0194732Y0184733D01*
X0196054Y0185300D02*
X0196054Y0186435D01*
X0196621Y0187002D01*
X0197755Y0187002D01*
X0198322Y0186435D01*
X0198322Y0185867D01*
X0196054Y0185867D01*
X0196054Y0185300D02*
X0196621Y0184733D01*
X0197755Y0184733D01*
X0203420Y0185300D02*
X0203987Y0184733D01*
X0205121Y0184733D01*
X0205688Y0185300D01*
X0205688Y0186435D01*
X0205121Y0187002D01*
X0203987Y0187002D01*
X0203420Y0186435D01*
X0203420Y0185300D01*
X0207103Y0185300D02*
X0207103Y0187002D01*
X0207103Y0185300D02*
X0207670Y0184733D01*
X0209372Y0184733D01*
X0209372Y0187002D01*
X0210786Y0187002D02*
X0211920Y0187002D01*
X0211353Y0187569D02*
X0211353Y0185300D01*
X0211920Y0184733D01*
X0189915Y0185300D02*
X0189915Y0187002D01*
X0184250Y0160636D02*
X0184817Y0160069D01*
X0184817Y0158935D01*
X0184250Y0158367D01*
X0182549Y0158367D01*
X0182549Y0157233D02*
X0182549Y0160636D01*
X0184250Y0160636D01*
X0183683Y0158367D02*
X0184817Y0157233D01*
X0186232Y0157800D02*
X0186232Y0158935D01*
X0186799Y0159502D01*
X0187933Y0159502D01*
X0188500Y0158935D01*
X0188500Y0157800D01*
X0187933Y0157233D01*
X0186799Y0157233D01*
X0186232Y0157800D01*
X0189915Y0157800D02*
X0190482Y0157233D01*
X0192184Y0157233D01*
X0192184Y0159502D01*
X0193598Y0159502D02*
X0194732Y0159502D01*
X0194165Y0160069D02*
X0194165Y0157800D01*
X0194732Y0157233D01*
X0196054Y0157800D02*
X0196054Y0158935D01*
X0196621Y0159502D01*
X0197755Y0159502D01*
X0198322Y0158935D01*
X0198322Y0158367D01*
X0196054Y0158367D01*
X0196054Y0157800D02*
X0196621Y0157233D01*
X0197755Y0157233D01*
X0203420Y0157800D02*
X0203420Y0158935D01*
X0203987Y0159502D01*
X0205121Y0159502D01*
X0205688Y0158935D01*
X0205688Y0157800D01*
X0205121Y0157233D01*
X0203987Y0157233D01*
X0203420Y0157800D01*
X0207103Y0157800D02*
X0207103Y0159502D01*
X0207103Y0157800D02*
X0207670Y0157233D01*
X0209372Y0157233D01*
X0209372Y0159502D01*
X0210786Y0159502D02*
X0211920Y0159502D01*
X0211353Y0160069D02*
X0211353Y0157800D01*
X0211920Y0157233D01*
X0189915Y0157800D02*
X0189915Y0159502D01*
X0114295Y0253887D02*
X0110892Y0253887D01*
X0086795Y0275325D02*
X0086228Y0274758D01*
X0085094Y0274758D01*
X0084527Y0275325D01*
X0084527Y0276459D01*
X0085094Y0277026D01*
X0086228Y0277026D01*
X0086795Y0276459D01*
X0086795Y0275325D01*
X0086228Y0278441D02*
X0086795Y0279008D01*
X0086795Y0280710D01*
X0084527Y0280710D01*
X0084527Y0282124D02*
X0084527Y0283258D01*
X0083959Y0282691D02*
X0086228Y0282691D01*
X0086795Y0283258D01*
X0086228Y0278441D02*
X0084527Y0278441D01*
X0182549Y0295983D02*
X0182549Y0299386D01*
X0184250Y0299386D01*
X0184817Y0298819D01*
X0184817Y0297685D01*
X0184250Y0297117D01*
X0182549Y0297117D01*
X0183683Y0297117D02*
X0184817Y0295983D01*
X0186232Y0296550D02*
X0186799Y0295983D01*
X0187933Y0295983D01*
X0188500Y0296550D01*
X0188500Y0297685D01*
X0187933Y0298252D01*
X0186799Y0298252D01*
X0186232Y0297685D01*
X0186232Y0296550D01*
X0189915Y0296550D02*
X0190482Y0295983D01*
X0192184Y0295983D01*
X0192184Y0298252D01*
X0193598Y0298252D02*
X0194732Y0298252D01*
X0194165Y0298819D02*
X0194165Y0296550D01*
X0194732Y0295983D01*
X0196054Y0296550D02*
X0196054Y0297685D01*
X0196621Y0298252D01*
X0197755Y0298252D01*
X0198322Y0297685D01*
X0198322Y0297117D01*
X0196054Y0297117D01*
X0196054Y0296550D02*
X0196621Y0295983D01*
X0197755Y0295983D01*
X0203420Y0296550D02*
X0203987Y0295983D01*
X0205121Y0295983D01*
X0205688Y0296550D01*
X0205688Y0297685D01*
X0205121Y0298252D01*
X0203987Y0298252D01*
X0203420Y0297685D01*
X0203420Y0296550D01*
X0207103Y0296550D02*
X0207670Y0295983D01*
X0209372Y0295983D01*
X0209372Y0298252D01*
X0210786Y0298252D02*
X0211920Y0298252D01*
X0211353Y0298819D02*
X0211353Y0296550D01*
X0211920Y0295983D01*
X0207103Y0296550D02*
X0207103Y0298252D01*
X0189915Y0298252D02*
X0189915Y0296550D01*
X0190482Y0323733D02*
X0192184Y0323733D01*
X0192184Y0326002D01*
X0193598Y0326002D02*
X0194732Y0326002D01*
X0194165Y0326569D02*
X0194165Y0324300D01*
X0194732Y0323733D01*
X0196054Y0324300D02*
X0196621Y0323733D01*
X0197755Y0323733D01*
X0198322Y0324867D02*
X0196054Y0324867D01*
X0196054Y0324300D02*
X0196054Y0325435D01*
X0196621Y0326002D01*
X0197755Y0326002D01*
X0198322Y0325435D01*
X0198322Y0324867D01*
X0203420Y0324300D02*
X0203987Y0323733D01*
X0205121Y0323733D01*
X0205688Y0324300D01*
X0205688Y0325435D01*
X0205121Y0326002D01*
X0203987Y0326002D01*
X0203420Y0325435D01*
X0203420Y0324300D01*
X0207103Y0324300D02*
X0207670Y0323733D01*
X0209372Y0323733D01*
X0209372Y0326002D01*
X0210786Y0326002D02*
X0211920Y0326002D01*
X0211353Y0326569D02*
X0211353Y0324300D01*
X0211920Y0323733D01*
X0207103Y0324300D02*
X0207103Y0326002D01*
X0190482Y0323733D02*
X0189915Y0324300D01*
X0189915Y0326002D01*
X0188500Y0325435D02*
X0187933Y0326002D01*
X0186799Y0326002D01*
X0186232Y0325435D01*
X0186232Y0324300D01*
X0186799Y0323733D01*
X0187933Y0323733D01*
X0188500Y0324300D01*
X0188500Y0325435D01*
X0184817Y0325435D02*
X0184250Y0324867D01*
X0182549Y0324867D01*
X0182549Y0323733D02*
X0182549Y0327136D01*
X0184250Y0327136D01*
X0184817Y0326569D01*
X0184817Y0325435D01*
X0183683Y0324867D02*
X0184817Y0323733D01*
X0184817Y0352233D02*
X0183683Y0353367D01*
X0184250Y0353367D02*
X0182549Y0353367D01*
X0182549Y0352233D02*
X0182549Y0355636D01*
X0184250Y0355636D01*
X0184817Y0355069D01*
X0184817Y0353935D01*
X0184250Y0353367D01*
X0186232Y0352800D02*
X0186799Y0352233D01*
X0187933Y0352233D01*
X0188500Y0352800D01*
X0188500Y0353935D01*
X0187933Y0354502D01*
X0186799Y0354502D01*
X0186232Y0353935D01*
X0186232Y0352800D01*
X0189915Y0352800D02*
X0190482Y0352233D01*
X0192184Y0352233D01*
X0192184Y0354502D01*
X0193598Y0354502D02*
X0194732Y0354502D01*
X0194165Y0355069D02*
X0194165Y0352800D01*
X0194732Y0352233D01*
X0196054Y0352800D02*
X0196621Y0352233D01*
X0197755Y0352233D01*
X0198322Y0353367D02*
X0196054Y0353367D01*
X0196054Y0352800D02*
X0196054Y0353935D01*
X0196621Y0354502D01*
X0197755Y0354502D01*
X0198322Y0353935D01*
X0198322Y0353367D01*
X0203420Y0352800D02*
X0203987Y0352233D01*
X0205121Y0352233D01*
X0205688Y0352800D01*
X0205688Y0353935D01*
X0205121Y0354502D01*
X0203987Y0354502D01*
X0203420Y0353935D01*
X0203420Y0352800D01*
X0207103Y0352800D02*
X0207670Y0352233D01*
X0209372Y0352233D01*
X0209372Y0354502D01*
X0210786Y0354502D02*
X0211920Y0354502D01*
X0211353Y0355069D02*
X0211353Y0352800D01*
X0211920Y0352233D01*
X0207103Y0352800D02*
X0207103Y0354502D01*
X0189915Y0354502D02*
X0189915Y0352800D01*
X0190482Y0379733D02*
X0192184Y0379733D01*
X0192184Y0382002D01*
X0193598Y0382002D02*
X0194732Y0382002D01*
X0194165Y0382569D02*
X0194165Y0380300D01*
X0194732Y0379733D01*
X0196054Y0380300D02*
X0196054Y0381435D01*
X0196621Y0382002D01*
X0197755Y0382002D01*
X0198322Y0381435D01*
X0198322Y0380867D01*
X0196054Y0380867D01*
X0196054Y0380300D02*
X0196621Y0379733D01*
X0197755Y0379733D01*
X0203420Y0380300D02*
X0203420Y0381435D01*
X0203987Y0382002D01*
X0205121Y0382002D01*
X0205688Y0381435D01*
X0205688Y0380300D01*
X0205121Y0379733D01*
X0203987Y0379733D01*
X0203420Y0380300D01*
X0207103Y0380300D02*
X0207103Y0382002D01*
X0207103Y0380300D02*
X0207670Y0379733D01*
X0209372Y0379733D01*
X0209372Y0382002D01*
X0210786Y0382002D02*
X0211920Y0382002D01*
X0211353Y0382569D02*
X0211353Y0380300D01*
X0211920Y0379733D01*
X0190482Y0379733D02*
X0189915Y0380300D01*
X0189915Y0382002D01*
X0188500Y0381435D02*
X0187933Y0382002D01*
X0186799Y0382002D01*
X0186232Y0381435D01*
X0186232Y0380300D01*
X0186799Y0379733D01*
X0187933Y0379733D01*
X0188500Y0380300D01*
X0188500Y0381435D01*
X0184817Y0381435D02*
X0184250Y0380867D01*
X0182549Y0380867D01*
X0182549Y0379733D02*
X0182549Y0383136D01*
X0184250Y0383136D01*
X0184817Y0382569D01*
X0184817Y0381435D01*
X0183683Y0380867D02*
X0184817Y0379733D01*
X0281459Y0282691D02*
X0283728Y0282691D01*
X0284295Y0283258D01*
X0282027Y0283258D02*
X0282027Y0282124D01*
X0282027Y0280710D02*
X0284295Y0280710D01*
X0284295Y0279008D01*
X0283728Y0278441D01*
X0282027Y0278441D01*
X0282594Y0277026D02*
X0282027Y0276459D01*
X0282027Y0275325D01*
X0282594Y0274758D01*
X0283728Y0274758D01*
X0284295Y0275325D01*
X0284295Y0276459D01*
X0283728Y0277026D01*
X0282594Y0277026D01*
X0282594Y0269660D02*
X0283161Y0269660D01*
X0283161Y0267391D01*
X0283728Y0267391D02*
X0282594Y0267391D01*
X0282027Y0267959D01*
X0282027Y0269093D01*
X0282594Y0269660D01*
X0284295Y0269093D02*
X0284295Y0267959D01*
X0283728Y0267391D01*
X0284295Y0266070D02*
X0283728Y0265503D01*
X0281459Y0265503D01*
X0282027Y0264936D02*
X0282027Y0266070D01*
X0282027Y0263522D02*
X0284295Y0263522D01*
X0284295Y0261820D01*
X0283728Y0261253D01*
X0282027Y0261253D01*
X0282594Y0259838D02*
X0282027Y0259271D01*
X0282027Y0258137D01*
X0282594Y0257570D01*
X0283728Y0257570D01*
X0284295Y0258137D01*
X0284295Y0259271D01*
X0283728Y0259838D01*
X0282594Y0259838D01*
X0282594Y0256155D02*
X0283161Y0255588D01*
X0283161Y0253887D01*
X0283161Y0255021D02*
X0284295Y0256155D01*
X0282594Y0256155D02*
X0281459Y0256155D01*
X0280892Y0255588D01*
X0280892Y0253887D01*
X0284295Y0253887D01*
X0308392Y0253887D02*
X0308392Y0255588D01*
X0308959Y0256155D01*
X0310094Y0256155D01*
X0310661Y0255588D01*
X0310661Y0253887D01*
X0310661Y0255021D02*
X0311795Y0256155D01*
X0311228Y0257570D02*
X0311795Y0258137D01*
X0311795Y0259271D01*
X0311228Y0259838D01*
X0310094Y0259838D01*
X0309527Y0259271D01*
X0309527Y0258137D01*
X0310094Y0257570D01*
X0311228Y0257570D01*
X0311228Y0261253D02*
X0311795Y0261820D01*
X0311795Y0263522D01*
X0309527Y0263522D01*
X0309527Y0264936D02*
X0309527Y0266070D01*
X0308959Y0265503D02*
X0311228Y0265503D01*
X0311795Y0266070D01*
X0311228Y0267391D02*
X0310094Y0267391D01*
X0309527Y0267959D01*
X0309527Y0269093D01*
X0310094Y0269660D01*
X0310661Y0269660D01*
X0310661Y0267391D01*
X0311228Y0267391D02*
X0311795Y0267959D01*
X0311795Y0269093D01*
X0311228Y0274758D02*
X0311795Y0275325D01*
X0311795Y0276459D01*
X0311228Y0277026D01*
X0310094Y0277026D01*
X0309527Y0276459D01*
X0309527Y0275325D01*
X0310094Y0274758D01*
X0311228Y0274758D01*
X0311228Y0278441D02*
X0311795Y0279008D01*
X0311795Y0280710D01*
X0309527Y0280710D01*
X0309527Y0282124D02*
X0309527Y0283258D01*
X0308959Y0282691D02*
X0311228Y0282691D01*
X0311795Y0283258D01*
X0311228Y0278441D02*
X0309527Y0278441D01*
X0309527Y0261253D02*
X0311228Y0261253D01*
X0311795Y0253887D02*
X0308392Y0253887D01*
X0393392Y0256387D02*
X0393392Y0258088D01*
X0393959Y0258655D01*
X0395094Y0258655D01*
X0395661Y0258088D01*
X0395661Y0256387D01*
X0395661Y0257521D02*
X0396795Y0258655D01*
X0396228Y0260070D02*
X0396795Y0260637D01*
X0396795Y0261771D01*
X0396228Y0262338D01*
X0395094Y0262338D01*
X0394527Y0261771D01*
X0394527Y0260637D01*
X0395094Y0260070D01*
X0396228Y0260070D01*
X0396228Y0263753D02*
X0396795Y0264320D01*
X0396795Y0266022D01*
X0394527Y0266022D01*
X0394527Y0267436D02*
X0394527Y0268570D01*
X0393959Y0268003D02*
X0396228Y0268003D01*
X0396795Y0268570D01*
X0396228Y0269891D02*
X0395094Y0269891D01*
X0394527Y0270459D01*
X0394527Y0271593D01*
X0395094Y0272160D01*
X0395661Y0272160D01*
X0395661Y0269891D01*
X0396228Y0269891D02*
X0396795Y0270459D01*
X0396795Y0271593D01*
X0396228Y0277258D02*
X0396795Y0277825D01*
X0396795Y0278959D01*
X0396228Y0279526D01*
X0395094Y0279526D01*
X0394527Y0278959D01*
X0394527Y0277825D01*
X0395094Y0277258D01*
X0396228Y0277258D01*
X0396228Y0280941D02*
X0396795Y0281508D01*
X0396795Y0283210D01*
X0394527Y0283210D01*
X0394527Y0284624D02*
X0394527Y0285758D01*
X0393959Y0285191D02*
X0396228Y0285191D01*
X0396795Y0285758D01*
X0396228Y0280941D02*
X0394527Y0280941D01*
X0394527Y0263753D02*
X0396228Y0263753D01*
X0396795Y0256387D02*
X0393392Y0256387D01*
X0420892Y0256387D02*
X0420892Y0258088D01*
X0421459Y0258655D01*
X0422594Y0258655D01*
X0423161Y0258088D01*
X0423161Y0256387D01*
X0423161Y0257521D02*
X0424295Y0258655D01*
X0423728Y0260070D02*
X0424295Y0260637D01*
X0424295Y0261771D01*
X0423728Y0262338D01*
X0422594Y0262338D01*
X0422027Y0261771D01*
X0422027Y0260637D01*
X0422594Y0260070D01*
X0423728Y0260070D01*
X0423728Y0263753D02*
X0424295Y0264320D01*
X0424295Y0266022D01*
X0422027Y0266022D01*
X0422027Y0267436D02*
X0422027Y0268570D01*
X0421459Y0268003D02*
X0423728Y0268003D01*
X0424295Y0268570D01*
X0423728Y0269891D02*
X0422594Y0269891D01*
X0422027Y0270459D01*
X0422027Y0271593D01*
X0422594Y0272160D01*
X0423161Y0272160D01*
X0423161Y0269891D01*
X0423728Y0269891D02*
X0424295Y0270459D01*
X0424295Y0271593D01*
X0423728Y0277258D02*
X0424295Y0277825D01*
X0424295Y0278959D01*
X0423728Y0279526D01*
X0422594Y0279526D01*
X0422027Y0278959D01*
X0422027Y0277825D01*
X0422594Y0277258D01*
X0423728Y0277258D01*
X0423728Y0280941D02*
X0424295Y0281508D01*
X0424295Y0283210D01*
X0422027Y0283210D01*
X0422027Y0284624D02*
X0422027Y0285758D01*
X0421459Y0285191D02*
X0423728Y0285191D01*
X0424295Y0285758D01*
X0423728Y0280941D02*
X0422027Y0280941D01*
X0422027Y0263753D02*
X0423728Y0263753D01*
X0424295Y0256387D02*
X0420892Y0256387D01*
X0448392Y0256387D02*
X0448392Y0258088D01*
X0448959Y0258655D01*
X0450094Y0258655D01*
X0450661Y0258088D01*
X0450661Y0256387D01*
X0450661Y0257521D02*
X0451795Y0258655D01*
X0451228Y0260070D02*
X0451795Y0260637D01*
X0451795Y0261771D01*
X0451228Y0262338D01*
X0450094Y0262338D01*
X0449527Y0261771D01*
X0449527Y0260637D01*
X0450094Y0260070D01*
X0451228Y0260070D01*
X0451228Y0263753D02*
X0451795Y0264320D01*
X0451795Y0266022D01*
X0449527Y0266022D01*
X0449527Y0267436D02*
X0449527Y0268570D01*
X0448959Y0268003D02*
X0451228Y0268003D01*
X0451795Y0268570D01*
X0451228Y0269891D02*
X0450094Y0269891D01*
X0449527Y0270459D01*
X0449527Y0271593D01*
X0450094Y0272160D01*
X0450661Y0272160D01*
X0450661Y0269891D01*
X0451228Y0269891D02*
X0451795Y0270459D01*
X0451795Y0271593D01*
X0451228Y0277258D02*
X0451795Y0277825D01*
X0451795Y0278959D01*
X0451228Y0279526D01*
X0450094Y0279526D01*
X0449527Y0278959D01*
X0449527Y0277825D01*
X0450094Y0277258D01*
X0451228Y0277258D01*
X0451228Y0280941D02*
X0451795Y0281508D01*
X0451795Y0283210D01*
X0449527Y0283210D01*
X0449527Y0284624D02*
X0449527Y0285758D01*
X0448959Y0285191D02*
X0451228Y0285191D01*
X0451795Y0285758D01*
X0451228Y0280941D02*
X0449527Y0280941D01*
X0449527Y0263753D02*
X0451228Y0263753D01*
X0451795Y0256387D02*
X0448392Y0256387D01*
X0477142Y0255588D02*
X0477142Y0253887D01*
X0480545Y0253887D01*
X0479411Y0253887D02*
X0479411Y0255588D01*
X0478844Y0256155D01*
X0477709Y0256155D01*
X0477142Y0255588D01*
X0479411Y0255021D02*
X0480545Y0256155D01*
X0479978Y0257570D02*
X0480545Y0258137D01*
X0480545Y0259271D01*
X0479978Y0259838D01*
X0478844Y0259838D01*
X0478277Y0259271D01*
X0478277Y0258137D01*
X0478844Y0257570D01*
X0479978Y0257570D01*
X0479978Y0261253D02*
X0478277Y0261253D01*
X0479978Y0261253D02*
X0480545Y0261820D01*
X0480545Y0263522D01*
X0478277Y0263522D01*
X0478277Y0264936D02*
X0478277Y0266070D01*
X0477709Y0265503D02*
X0479978Y0265503D01*
X0480545Y0266070D01*
X0479978Y0267391D02*
X0478844Y0267391D01*
X0478277Y0267959D01*
X0478277Y0269093D01*
X0478844Y0269660D01*
X0479411Y0269660D01*
X0479411Y0267391D01*
X0479978Y0267391D02*
X0480545Y0267959D01*
X0480545Y0269093D01*
X0479978Y0274758D02*
X0480545Y0275325D01*
X0480545Y0276459D01*
X0479978Y0277026D01*
X0478844Y0277026D01*
X0478277Y0276459D01*
X0478277Y0275325D01*
X0478844Y0274758D01*
X0479978Y0274758D01*
X0479978Y0278441D02*
X0478277Y0278441D01*
X0479978Y0278441D02*
X0480545Y0279008D01*
X0480545Y0280710D01*
X0478277Y0280710D01*
X0478277Y0282124D02*
X0478277Y0283258D01*
X0477709Y0282691D02*
X0479978Y0282691D01*
X0480545Y0283258D01*
X0492549Y0295733D02*
X0492549Y0299136D01*
X0494250Y0299136D01*
X0494817Y0298569D01*
X0494817Y0297435D01*
X0494250Y0296867D01*
X0492549Y0296867D01*
X0493683Y0296867D02*
X0494817Y0295733D01*
X0496232Y0296300D02*
X0496799Y0295733D01*
X0497933Y0295733D01*
X0498500Y0296300D01*
X0498500Y0297435D01*
X0497933Y0298002D01*
X0496799Y0298002D01*
X0496232Y0297435D01*
X0496232Y0296300D01*
X0499915Y0296300D02*
X0500482Y0295733D01*
X0502184Y0295733D01*
X0502184Y0298002D01*
X0503598Y0298002D02*
X0504732Y0298002D01*
X0504165Y0298569D02*
X0504165Y0296300D01*
X0504732Y0295733D01*
X0506054Y0296300D02*
X0506054Y0297435D01*
X0506621Y0298002D01*
X0507755Y0298002D01*
X0508322Y0297435D01*
X0508322Y0296867D01*
X0506054Y0296867D01*
X0506054Y0296300D02*
X0506621Y0295733D01*
X0507755Y0295733D01*
X0513420Y0296300D02*
X0513987Y0295733D01*
X0515121Y0295733D01*
X0515688Y0296300D01*
X0515688Y0297435D01*
X0515121Y0298002D01*
X0513987Y0298002D01*
X0513420Y0297435D01*
X0513420Y0296300D01*
X0517103Y0296300D02*
X0517670Y0295733D01*
X0519372Y0295733D01*
X0519372Y0298002D01*
X0520786Y0298002D02*
X0521920Y0298002D01*
X0521353Y0298569D02*
X0521353Y0296300D01*
X0521920Y0295733D01*
X0517103Y0296300D02*
X0517103Y0298002D01*
X0499915Y0298002D02*
X0499915Y0296300D01*
X0535209Y0282691D02*
X0537478Y0282691D01*
X0538045Y0283258D01*
X0535777Y0283258D02*
X0535777Y0282124D01*
X0535777Y0280710D02*
X0538045Y0280710D01*
X0538045Y0279008D01*
X0537478Y0278441D01*
X0535777Y0278441D01*
X0536344Y0277026D02*
X0535777Y0276459D01*
X0535777Y0275325D01*
X0536344Y0274758D01*
X0537478Y0274758D01*
X0538045Y0275325D01*
X0538045Y0276459D01*
X0537478Y0277026D01*
X0536344Y0277026D01*
X0536344Y0269660D02*
X0536911Y0269660D01*
X0536911Y0267391D01*
X0537478Y0267391D02*
X0536344Y0267391D01*
X0535777Y0267959D01*
X0535777Y0269093D01*
X0536344Y0269660D01*
X0538045Y0269093D02*
X0538045Y0267959D01*
X0537478Y0267391D01*
X0538045Y0266070D02*
X0537478Y0265503D01*
X0535209Y0265503D01*
X0535777Y0264936D02*
X0535777Y0266070D01*
X0535777Y0263522D02*
X0538045Y0263522D01*
X0538045Y0261820D01*
X0537478Y0261253D01*
X0535777Y0261253D01*
X0536344Y0259838D02*
X0535777Y0259271D01*
X0535777Y0258137D01*
X0536344Y0257570D01*
X0537478Y0257570D01*
X0538045Y0258137D01*
X0538045Y0259271D01*
X0537478Y0259838D01*
X0536344Y0259838D01*
X0536344Y0256155D02*
X0536911Y0255588D01*
X0536911Y0253887D01*
X0536911Y0255021D02*
X0538045Y0256155D01*
X0536344Y0256155D02*
X0535209Y0256155D01*
X0534642Y0255588D01*
X0534642Y0253887D01*
X0538045Y0253887D01*
X0521920Y0240752D02*
X0520786Y0240752D01*
X0521353Y0241319D02*
X0521353Y0239050D01*
X0521920Y0238483D01*
X0519372Y0238483D02*
X0519372Y0240752D01*
X0519372Y0238483D02*
X0517670Y0238483D01*
X0517103Y0239050D01*
X0517103Y0240752D01*
X0515688Y0240185D02*
X0515121Y0240752D01*
X0513987Y0240752D01*
X0513420Y0240185D01*
X0513420Y0239050D01*
X0513987Y0238483D01*
X0515121Y0238483D01*
X0515688Y0239050D01*
X0515688Y0240185D01*
X0508322Y0240185D02*
X0508322Y0239617D01*
X0506054Y0239617D01*
X0506054Y0239050D02*
X0506054Y0240185D01*
X0506621Y0240752D01*
X0507755Y0240752D01*
X0508322Y0240185D01*
X0507755Y0238483D02*
X0506621Y0238483D01*
X0506054Y0239050D01*
X0504732Y0238483D02*
X0504165Y0239050D01*
X0504165Y0241319D01*
X0503598Y0240752D02*
X0504732Y0240752D01*
X0502184Y0240752D02*
X0502184Y0238483D01*
X0500482Y0238483D01*
X0499915Y0239050D01*
X0499915Y0240752D01*
X0498500Y0240185D02*
X0498500Y0239050D01*
X0497933Y0238483D01*
X0496799Y0238483D01*
X0496232Y0239050D01*
X0496232Y0240185D01*
X0496799Y0240752D01*
X0497933Y0240752D01*
X0498500Y0240185D01*
X0494817Y0240185D02*
X0494250Y0239617D01*
X0492549Y0239617D01*
X0492549Y0238483D02*
X0492549Y0241886D01*
X0494250Y0241886D01*
X0494817Y0241319D01*
X0494817Y0240185D01*
X0493683Y0239617D02*
X0494817Y0238483D01*
X0494250Y0215636D02*
X0494817Y0215069D01*
X0494817Y0213935D01*
X0494250Y0213367D01*
X0492549Y0213367D01*
X0492549Y0212233D02*
X0492549Y0215636D01*
X0494250Y0215636D01*
X0493683Y0213367D02*
X0494817Y0212233D01*
X0496232Y0212800D02*
X0496799Y0212233D01*
X0497933Y0212233D01*
X0498500Y0212800D01*
X0498500Y0213935D01*
X0497933Y0214502D01*
X0496799Y0214502D01*
X0496232Y0213935D01*
X0496232Y0212800D01*
X0499915Y0212800D02*
X0500482Y0212233D01*
X0502184Y0212233D01*
X0502184Y0214502D01*
X0503598Y0214502D02*
X0504732Y0214502D01*
X0504165Y0215069D02*
X0504165Y0212800D01*
X0504732Y0212233D01*
X0506054Y0212800D02*
X0506054Y0213935D01*
X0506621Y0214502D01*
X0507755Y0214502D01*
X0508322Y0213935D01*
X0508322Y0213367D01*
X0506054Y0213367D01*
X0506054Y0212800D02*
X0506621Y0212233D01*
X0507755Y0212233D01*
X0513420Y0212800D02*
X0513987Y0212233D01*
X0515121Y0212233D01*
X0515688Y0212800D01*
X0515688Y0213935D01*
X0515121Y0214502D01*
X0513987Y0214502D01*
X0513420Y0213935D01*
X0513420Y0212800D01*
X0517103Y0212800D02*
X0517670Y0212233D01*
X0519372Y0212233D01*
X0519372Y0214502D01*
X0520786Y0214502D02*
X0521920Y0214502D01*
X0521353Y0215069D02*
X0521353Y0212800D01*
X0521920Y0212233D01*
X0517103Y0212800D02*
X0517103Y0214502D01*
X0499915Y0214502D02*
X0499915Y0212800D01*
X0494250Y0185636D02*
X0494817Y0185069D01*
X0494817Y0183935D01*
X0494250Y0183367D01*
X0492549Y0183367D01*
X0492549Y0182233D02*
X0492549Y0185636D01*
X0494250Y0185636D01*
X0493683Y0183367D02*
X0494817Y0182233D01*
X0496232Y0182800D02*
X0496799Y0182233D01*
X0497933Y0182233D01*
X0498500Y0182800D01*
X0498500Y0183935D01*
X0497933Y0184502D01*
X0496799Y0184502D01*
X0496232Y0183935D01*
X0496232Y0182800D01*
X0499915Y0182800D02*
X0500482Y0182233D01*
X0502184Y0182233D01*
X0502184Y0184502D01*
X0503598Y0184502D02*
X0504732Y0184502D01*
X0504165Y0185069D02*
X0504165Y0182800D01*
X0504732Y0182233D01*
X0506054Y0182800D02*
X0506054Y0183935D01*
X0506621Y0184502D01*
X0507755Y0184502D01*
X0508322Y0183935D01*
X0508322Y0183367D01*
X0506054Y0183367D01*
X0506054Y0182800D02*
X0506621Y0182233D01*
X0507755Y0182233D01*
X0513420Y0182800D02*
X0513987Y0182233D01*
X0515121Y0182233D01*
X0515688Y0182800D01*
X0515688Y0183935D01*
X0515121Y0184502D01*
X0513987Y0184502D01*
X0513420Y0183935D01*
X0513420Y0182800D01*
X0517103Y0182800D02*
X0517670Y0182233D01*
X0519372Y0182233D01*
X0519372Y0184502D01*
X0520786Y0184502D02*
X0521920Y0184502D01*
X0521353Y0185069D02*
X0521353Y0182800D01*
X0521920Y0182233D01*
X0517103Y0182800D02*
X0517103Y0184502D01*
X0499915Y0184502D02*
X0499915Y0182800D01*
X0494250Y0158136D02*
X0494817Y0157569D01*
X0494817Y0156435D01*
X0494250Y0155867D01*
X0492549Y0155867D01*
X0492549Y0154733D02*
X0492549Y0158136D01*
X0494250Y0158136D01*
X0493683Y0155867D02*
X0494817Y0154733D01*
X0496232Y0155300D02*
X0496799Y0154733D01*
X0497933Y0154733D01*
X0498500Y0155300D01*
X0498500Y0156435D01*
X0497933Y0157002D01*
X0496799Y0157002D01*
X0496232Y0156435D01*
X0496232Y0155300D01*
X0499915Y0155300D02*
X0500482Y0154733D01*
X0502184Y0154733D01*
X0502184Y0157002D01*
X0503598Y0157002D02*
X0504732Y0157002D01*
X0504165Y0157569D02*
X0504165Y0155300D01*
X0504732Y0154733D01*
X0506054Y0155300D02*
X0506054Y0156435D01*
X0506621Y0157002D01*
X0507755Y0157002D01*
X0508322Y0156435D01*
X0508322Y0155867D01*
X0506054Y0155867D01*
X0506054Y0155300D02*
X0506621Y0154733D01*
X0507755Y0154733D01*
X0513420Y0155300D02*
X0513987Y0154733D01*
X0515121Y0154733D01*
X0515688Y0155300D01*
X0515688Y0156435D01*
X0515121Y0157002D01*
X0513987Y0157002D01*
X0513420Y0156435D01*
X0513420Y0155300D01*
X0517103Y0155300D02*
X0517670Y0154733D01*
X0519372Y0154733D01*
X0519372Y0157002D01*
X0520786Y0157002D02*
X0521920Y0157002D01*
X0521353Y0157569D02*
X0521353Y0155300D01*
X0521920Y0154733D01*
X0517103Y0155300D02*
X0517103Y0157002D01*
X0499915Y0157002D02*
X0499915Y0155300D01*
X0560892Y0256387D02*
X0560892Y0258088D01*
X0561459Y0258655D01*
X0562594Y0258655D01*
X0563161Y0258088D01*
X0563161Y0256387D01*
X0563161Y0257521D02*
X0564295Y0258655D01*
X0563728Y0260070D02*
X0564295Y0260637D01*
X0564295Y0261771D01*
X0563728Y0262338D01*
X0562594Y0262338D01*
X0562027Y0261771D01*
X0562027Y0260637D01*
X0562594Y0260070D01*
X0563728Y0260070D01*
X0563728Y0263753D02*
X0564295Y0264320D01*
X0564295Y0266022D01*
X0562027Y0266022D01*
X0562027Y0267436D02*
X0562027Y0268570D01*
X0561459Y0268003D02*
X0563728Y0268003D01*
X0564295Y0268570D01*
X0563728Y0269891D02*
X0562594Y0269891D01*
X0562027Y0270459D01*
X0562027Y0271593D01*
X0562594Y0272160D01*
X0563161Y0272160D01*
X0563161Y0269891D01*
X0563728Y0269891D02*
X0564295Y0270459D01*
X0564295Y0271593D01*
X0563728Y0277258D02*
X0564295Y0277825D01*
X0564295Y0278959D01*
X0563728Y0279526D01*
X0562594Y0279526D01*
X0562027Y0278959D01*
X0562027Y0277825D01*
X0562594Y0277258D01*
X0563728Y0277258D01*
X0563728Y0280941D02*
X0564295Y0281508D01*
X0564295Y0283210D01*
X0562027Y0283210D01*
X0562027Y0284624D02*
X0562027Y0285758D01*
X0561459Y0285191D02*
X0563728Y0285191D01*
X0564295Y0285758D01*
X0563728Y0280941D02*
X0562027Y0280941D01*
X0562027Y0263753D02*
X0563728Y0263753D01*
X0564295Y0256387D02*
X0560892Y0256387D01*
X0588392Y0256387D02*
X0588392Y0258088D01*
X0588959Y0258655D01*
X0590094Y0258655D01*
X0590661Y0258088D01*
X0590661Y0256387D01*
X0590661Y0257521D02*
X0591795Y0258655D01*
X0591228Y0260070D02*
X0591795Y0260637D01*
X0591795Y0261771D01*
X0591228Y0262338D01*
X0590094Y0262338D01*
X0589527Y0261771D01*
X0589527Y0260637D01*
X0590094Y0260070D01*
X0591228Y0260070D01*
X0591228Y0263753D02*
X0591795Y0264320D01*
X0591795Y0266022D01*
X0589527Y0266022D01*
X0589527Y0267436D02*
X0589527Y0268570D01*
X0588959Y0268003D02*
X0591228Y0268003D01*
X0591795Y0268570D01*
X0591228Y0269891D02*
X0591795Y0270459D01*
X0591795Y0271593D01*
X0590661Y0272160D02*
X0590661Y0269891D01*
X0591228Y0269891D02*
X0590094Y0269891D01*
X0589527Y0270459D01*
X0589527Y0271593D01*
X0590094Y0272160D01*
X0590661Y0272160D01*
X0591228Y0277258D02*
X0591795Y0277825D01*
X0591795Y0278959D01*
X0591228Y0279526D01*
X0590094Y0279526D01*
X0589527Y0278959D01*
X0589527Y0277825D01*
X0590094Y0277258D01*
X0591228Y0277258D01*
X0591228Y0280941D02*
X0591795Y0281508D01*
X0591795Y0283210D01*
X0589527Y0283210D01*
X0589527Y0284624D02*
X0589527Y0285758D01*
X0588959Y0285191D02*
X0591228Y0285191D01*
X0591795Y0285758D01*
X0591228Y0280941D02*
X0589527Y0280941D01*
X0589527Y0263753D02*
X0591228Y0263753D01*
X0591795Y0256387D02*
X0588392Y0256387D01*
X0618392Y0256387D02*
X0618392Y0258088D01*
X0618959Y0258655D01*
X0620094Y0258655D01*
X0620661Y0258088D01*
X0620661Y0256387D01*
X0620661Y0257521D02*
X0621795Y0258655D01*
X0621228Y0260070D02*
X0621795Y0260637D01*
X0621795Y0261771D01*
X0621228Y0262338D01*
X0620094Y0262338D01*
X0619527Y0261771D01*
X0619527Y0260637D01*
X0620094Y0260070D01*
X0621228Y0260070D01*
X0621228Y0263753D02*
X0621795Y0264320D01*
X0621795Y0266022D01*
X0619527Y0266022D01*
X0619527Y0267436D02*
X0619527Y0268570D01*
X0618959Y0268003D02*
X0621228Y0268003D01*
X0621795Y0268570D01*
X0621228Y0269891D02*
X0620094Y0269891D01*
X0619527Y0270459D01*
X0619527Y0271593D01*
X0620094Y0272160D01*
X0620661Y0272160D01*
X0620661Y0269891D01*
X0621228Y0269891D02*
X0621795Y0270459D01*
X0621795Y0271593D01*
X0621228Y0277258D02*
X0621795Y0277825D01*
X0621795Y0278959D01*
X0621228Y0279526D01*
X0620094Y0279526D01*
X0619527Y0278959D01*
X0619527Y0277825D01*
X0620094Y0277258D01*
X0621228Y0277258D01*
X0621228Y0280941D02*
X0621795Y0281508D01*
X0621795Y0283210D01*
X0619527Y0283210D01*
X0619527Y0284624D02*
X0619527Y0285758D01*
X0618959Y0285191D02*
X0621228Y0285191D01*
X0621795Y0285758D01*
X0621228Y0280941D02*
X0619527Y0280941D01*
X0619527Y0263753D02*
X0621228Y0263753D01*
X0621795Y0256387D02*
X0618392Y0256387D01*
X0521920Y0324733D02*
X0521353Y0325300D01*
X0521353Y0327569D01*
X0520786Y0327002D02*
X0521920Y0327002D01*
X0519372Y0327002D02*
X0519372Y0324733D01*
X0517670Y0324733D01*
X0517103Y0325300D01*
X0517103Y0327002D01*
X0515688Y0326435D02*
X0515121Y0327002D01*
X0513987Y0327002D01*
X0513420Y0326435D01*
X0513420Y0325300D01*
X0513987Y0324733D01*
X0515121Y0324733D01*
X0515688Y0325300D01*
X0515688Y0326435D01*
X0508322Y0326435D02*
X0508322Y0325867D01*
X0506054Y0325867D01*
X0506054Y0325300D02*
X0506054Y0326435D01*
X0506621Y0327002D01*
X0507755Y0327002D01*
X0508322Y0326435D01*
X0507755Y0324733D02*
X0506621Y0324733D01*
X0506054Y0325300D01*
X0504732Y0324733D02*
X0504165Y0325300D01*
X0504165Y0327569D01*
X0503598Y0327002D02*
X0504732Y0327002D01*
X0502184Y0327002D02*
X0502184Y0324733D01*
X0500482Y0324733D01*
X0499915Y0325300D01*
X0499915Y0327002D01*
X0498500Y0326435D02*
X0497933Y0327002D01*
X0496799Y0327002D01*
X0496232Y0326435D01*
X0496232Y0325300D01*
X0496799Y0324733D01*
X0497933Y0324733D01*
X0498500Y0325300D01*
X0498500Y0326435D01*
X0494817Y0326435D02*
X0494250Y0325867D01*
X0492549Y0325867D01*
X0492549Y0324733D02*
X0492549Y0328136D01*
X0494250Y0328136D01*
X0494817Y0327569D01*
X0494817Y0326435D01*
X0493683Y0325867D02*
X0494817Y0324733D01*
X0494817Y0352233D02*
X0493683Y0353367D01*
X0494250Y0353367D02*
X0492549Y0353367D01*
X0492549Y0352233D02*
X0492549Y0355636D01*
X0494250Y0355636D01*
X0494817Y0355069D01*
X0494817Y0353935D01*
X0494250Y0353367D01*
X0496232Y0352800D02*
X0496799Y0352233D01*
X0497933Y0352233D01*
X0498500Y0352800D01*
X0498500Y0353935D01*
X0497933Y0354502D01*
X0496799Y0354502D01*
X0496232Y0353935D01*
X0496232Y0352800D01*
X0499915Y0352800D02*
X0500482Y0352233D01*
X0502184Y0352233D01*
X0502184Y0354502D01*
X0503598Y0354502D02*
X0504732Y0354502D01*
X0504165Y0355069D02*
X0504165Y0352800D01*
X0504732Y0352233D01*
X0506054Y0352800D02*
X0506054Y0353935D01*
X0506621Y0354502D01*
X0507755Y0354502D01*
X0508322Y0353935D01*
X0508322Y0353367D01*
X0506054Y0353367D01*
X0506054Y0352800D02*
X0506621Y0352233D01*
X0507755Y0352233D01*
X0513420Y0352800D02*
X0513987Y0352233D01*
X0515121Y0352233D01*
X0515688Y0352800D01*
X0515688Y0353935D01*
X0515121Y0354502D01*
X0513987Y0354502D01*
X0513420Y0353935D01*
X0513420Y0352800D01*
X0517103Y0352800D02*
X0517670Y0352233D01*
X0519372Y0352233D01*
X0519372Y0354502D01*
X0520786Y0354502D02*
X0521920Y0354502D01*
X0521353Y0355069D02*
X0521353Y0352800D01*
X0521920Y0352233D01*
X0517103Y0352800D02*
X0517103Y0354502D01*
X0499915Y0354502D02*
X0499915Y0352800D01*
X0500482Y0379733D02*
X0502184Y0379733D01*
X0502184Y0382002D01*
X0503598Y0382002D02*
X0504732Y0382002D01*
X0504165Y0382569D02*
X0504165Y0380300D01*
X0504732Y0379733D01*
X0506054Y0380300D02*
X0506054Y0381435D01*
X0506621Y0382002D01*
X0507755Y0382002D01*
X0508322Y0381435D01*
X0508322Y0380867D01*
X0506054Y0380867D01*
X0506054Y0380300D02*
X0506621Y0379733D01*
X0507755Y0379733D01*
X0513420Y0380300D02*
X0513420Y0381435D01*
X0513987Y0382002D01*
X0515121Y0382002D01*
X0515688Y0381435D01*
X0515688Y0380300D01*
X0515121Y0379733D01*
X0513987Y0379733D01*
X0513420Y0380300D01*
X0517103Y0380300D02*
X0517670Y0379733D01*
X0519372Y0379733D01*
X0519372Y0382002D01*
X0520786Y0382002D02*
X0521920Y0382002D01*
X0521353Y0382569D02*
X0521353Y0380300D01*
X0521920Y0379733D01*
X0517103Y0380300D02*
X0517103Y0382002D01*
X0500482Y0379733D02*
X0499915Y0380300D01*
X0499915Y0382002D01*
X0498500Y0381435D02*
X0498500Y0380300D01*
X0497933Y0379733D01*
X0496799Y0379733D01*
X0496232Y0380300D01*
X0496232Y0381435D01*
X0496799Y0382002D01*
X0497933Y0382002D01*
X0498500Y0381435D01*
X0494817Y0381435D02*
X0494250Y0380867D01*
X0492549Y0380867D01*
X0492549Y0379733D02*
X0492549Y0383136D01*
X0494250Y0383136D01*
X0494817Y0382569D01*
X0494817Y0381435D01*
X0493683Y0380867D02*
X0494817Y0379733D01*
X0015033Y0211315D02*
X0015033Y0209180D01*
X0013966Y0208113D01*
X0011831Y0208113D02*
X0010763Y0210248D01*
X0010763Y0211315D01*
X0011831Y0212383D01*
X0013966Y0212383D01*
X0015033Y0211315D01*
X0011831Y0208113D02*
X0008628Y0208113D01*
X0008628Y0212383D01*
X0009695Y0205938D02*
X0010763Y0205938D01*
X0011831Y0204870D01*
X0012898Y0205938D01*
X0013966Y0205938D01*
X0015033Y0204870D01*
X0015033Y0202735D01*
X0013966Y0201667D01*
X0013966Y0199512D02*
X0015033Y0199512D01*
X0015033Y0198444D01*
X0013966Y0198444D01*
X0013966Y0199512D01*
X0015033Y0196269D02*
X0015033Y0191999D01*
X0015033Y0194134D02*
X0008628Y0194134D01*
X0010763Y0191999D01*
X0009695Y0201667D02*
X0008628Y0202735D01*
X0008628Y0204870D01*
X0009695Y0205938D01*
X0011831Y0204870D02*
X0011831Y0203802D01*
X0275661Y0014698D02*
X0278864Y0017900D01*
X0278864Y0011495D01*
X0282107Y0011495D02*
X0282107Y0012562D01*
X0283174Y0012562D01*
X0283174Y0011495D01*
X0282107Y0011495D01*
X0279931Y0014698D02*
X0275661Y0014698D01*
X0285329Y0014698D02*
X0289600Y0014698D01*
X0291775Y0014698D02*
X0293910Y0015765D01*
X0294977Y0015765D01*
X0296045Y0014698D01*
X0296045Y0012562D01*
X0294977Y0011495D01*
X0292842Y0011495D01*
X0291775Y0012562D01*
X0291775Y0014698D02*
X0291775Y0017900D01*
X0296045Y0017900D01*
X0288532Y0017900D02*
X0285329Y0014698D01*
X0288532Y0011495D02*
X0288532Y0017900D01*
D13*
X0046095Y0243933D02*
X0046097Y0244094D01*
X0046103Y0244254D01*
X0046113Y0244415D01*
X0046127Y0244575D01*
X0046145Y0244735D01*
X0046166Y0244894D01*
X0046192Y0245053D01*
X0046222Y0245211D01*
X0046255Y0245368D01*
X0046293Y0245525D01*
X0046334Y0245680D01*
X0046379Y0245834D01*
X0046428Y0245987D01*
X0046481Y0246139D01*
X0046537Y0246290D01*
X0046598Y0246439D01*
X0046661Y0246587D01*
X0046729Y0246733D01*
X0046800Y0246877D01*
X0046874Y0247019D01*
X0046952Y0247160D01*
X0047034Y0247298D01*
X0047119Y0247435D01*
X0047207Y0247569D01*
X0047299Y0247701D01*
X0047394Y0247831D01*
X0047492Y0247959D01*
X0047593Y0248084D01*
X0047697Y0248206D01*
X0047804Y0248326D01*
X0047914Y0248443D01*
X0048027Y0248558D01*
X0048143Y0248669D01*
X0048262Y0248778D01*
X0048383Y0248883D01*
X0048507Y0248986D01*
X0048633Y0249086D01*
X0048761Y0249182D01*
X0048892Y0249275D01*
X0049026Y0249365D01*
X0049161Y0249452D01*
X0049299Y0249535D01*
X0049438Y0249615D01*
X0049580Y0249691D01*
X0049723Y0249764D01*
X0049868Y0249833D01*
X0050015Y0249899D01*
X0050163Y0249961D01*
X0050313Y0250019D01*
X0050464Y0250074D01*
X0050617Y0250125D01*
X0050771Y0250172D01*
X0050926Y0250215D01*
X0051082Y0250254D01*
X0051238Y0250290D01*
X0051396Y0250321D01*
X0051554Y0250349D01*
X0051713Y0250373D01*
X0051873Y0250393D01*
X0052033Y0250409D01*
X0052193Y0250421D01*
X0052354Y0250429D01*
X0052515Y0250433D01*
X0052675Y0250433D01*
X0052836Y0250429D01*
X0052997Y0250421D01*
X0053157Y0250409D01*
X0053317Y0250393D01*
X0053477Y0250373D01*
X0053636Y0250349D01*
X0053794Y0250321D01*
X0053952Y0250290D01*
X0054108Y0250254D01*
X0054264Y0250215D01*
X0054419Y0250172D01*
X0054573Y0250125D01*
X0054726Y0250074D01*
X0054877Y0250019D01*
X0055027Y0249961D01*
X0055175Y0249899D01*
X0055322Y0249833D01*
X0055467Y0249764D01*
X0055610Y0249691D01*
X0055752Y0249615D01*
X0055891Y0249535D01*
X0056029Y0249452D01*
X0056164Y0249365D01*
X0056298Y0249275D01*
X0056429Y0249182D01*
X0056557Y0249086D01*
X0056683Y0248986D01*
X0056807Y0248883D01*
X0056928Y0248778D01*
X0057047Y0248669D01*
X0057163Y0248558D01*
X0057276Y0248443D01*
X0057386Y0248326D01*
X0057493Y0248206D01*
X0057597Y0248084D01*
X0057698Y0247959D01*
X0057796Y0247831D01*
X0057891Y0247701D01*
X0057983Y0247569D01*
X0058071Y0247435D01*
X0058156Y0247298D01*
X0058238Y0247160D01*
X0058316Y0247019D01*
X0058390Y0246877D01*
X0058461Y0246733D01*
X0058529Y0246587D01*
X0058592Y0246439D01*
X0058653Y0246290D01*
X0058709Y0246139D01*
X0058762Y0245987D01*
X0058811Y0245834D01*
X0058856Y0245680D01*
X0058897Y0245525D01*
X0058935Y0245368D01*
X0058968Y0245211D01*
X0058998Y0245053D01*
X0059024Y0244894D01*
X0059045Y0244735D01*
X0059063Y0244575D01*
X0059077Y0244415D01*
X0059087Y0244254D01*
X0059093Y0244094D01*
X0059095Y0243933D01*
X0059093Y0243772D01*
X0059087Y0243612D01*
X0059077Y0243451D01*
X0059063Y0243291D01*
X0059045Y0243131D01*
X0059024Y0242972D01*
X0058998Y0242813D01*
X0058968Y0242655D01*
X0058935Y0242498D01*
X0058897Y0242341D01*
X0058856Y0242186D01*
X0058811Y0242032D01*
X0058762Y0241879D01*
X0058709Y0241727D01*
X0058653Y0241576D01*
X0058592Y0241427D01*
X0058529Y0241279D01*
X0058461Y0241133D01*
X0058390Y0240989D01*
X0058316Y0240847D01*
X0058238Y0240706D01*
X0058156Y0240568D01*
X0058071Y0240431D01*
X0057983Y0240297D01*
X0057891Y0240165D01*
X0057796Y0240035D01*
X0057698Y0239907D01*
X0057597Y0239782D01*
X0057493Y0239660D01*
X0057386Y0239540D01*
X0057276Y0239423D01*
X0057163Y0239308D01*
X0057047Y0239197D01*
X0056928Y0239088D01*
X0056807Y0238983D01*
X0056683Y0238880D01*
X0056557Y0238780D01*
X0056429Y0238684D01*
X0056298Y0238591D01*
X0056164Y0238501D01*
X0056029Y0238414D01*
X0055891Y0238331D01*
X0055752Y0238251D01*
X0055610Y0238175D01*
X0055467Y0238102D01*
X0055322Y0238033D01*
X0055175Y0237967D01*
X0055027Y0237905D01*
X0054877Y0237847D01*
X0054726Y0237792D01*
X0054573Y0237741D01*
X0054419Y0237694D01*
X0054264Y0237651D01*
X0054108Y0237612D01*
X0053952Y0237576D01*
X0053794Y0237545D01*
X0053636Y0237517D01*
X0053477Y0237493D01*
X0053317Y0237473D01*
X0053157Y0237457D01*
X0052997Y0237445D01*
X0052836Y0237437D01*
X0052675Y0237433D01*
X0052515Y0237433D01*
X0052354Y0237437D01*
X0052193Y0237445D01*
X0052033Y0237457D01*
X0051873Y0237473D01*
X0051713Y0237493D01*
X0051554Y0237517D01*
X0051396Y0237545D01*
X0051238Y0237576D01*
X0051082Y0237612D01*
X0050926Y0237651D01*
X0050771Y0237694D01*
X0050617Y0237741D01*
X0050464Y0237792D01*
X0050313Y0237847D01*
X0050163Y0237905D01*
X0050015Y0237967D01*
X0049868Y0238033D01*
X0049723Y0238102D01*
X0049580Y0238175D01*
X0049438Y0238251D01*
X0049299Y0238331D01*
X0049161Y0238414D01*
X0049026Y0238501D01*
X0048892Y0238591D01*
X0048761Y0238684D01*
X0048633Y0238780D01*
X0048507Y0238880D01*
X0048383Y0238983D01*
X0048262Y0239088D01*
X0048143Y0239197D01*
X0048027Y0239308D01*
X0047914Y0239423D01*
X0047804Y0239540D01*
X0047697Y0239660D01*
X0047593Y0239782D01*
X0047492Y0239907D01*
X0047394Y0240035D01*
X0047299Y0240165D01*
X0047207Y0240297D01*
X0047119Y0240431D01*
X0047034Y0240568D01*
X0046952Y0240706D01*
X0046874Y0240847D01*
X0046800Y0240989D01*
X0046729Y0241133D01*
X0046661Y0241279D01*
X0046598Y0241427D01*
X0046537Y0241576D01*
X0046481Y0241727D01*
X0046428Y0241879D01*
X0046379Y0242032D01*
X0046334Y0242186D01*
X0046293Y0242341D01*
X0046255Y0242498D01*
X0046222Y0242655D01*
X0046192Y0242813D01*
X0046166Y0242972D01*
X0046145Y0243131D01*
X0046127Y0243291D01*
X0046113Y0243451D01*
X0046103Y0243612D01*
X0046097Y0243772D01*
X0046095Y0243933D01*
X0046095Y0293933D02*
X0046097Y0294094D01*
X0046103Y0294254D01*
X0046113Y0294415D01*
X0046127Y0294575D01*
X0046145Y0294735D01*
X0046166Y0294894D01*
X0046192Y0295053D01*
X0046222Y0295211D01*
X0046255Y0295368D01*
X0046293Y0295525D01*
X0046334Y0295680D01*
X0046379Y0295834D01*
X0046428Y0295987D01*
X0046481Y0296139D01*
X0046537Y0296290D01*
X0046598Y0296439D01*
X0046661Y0296587D01*
X0046729Y0296733D01*
X0046800Y0296877D01*
X0046874Y0297019D01*
X0046952Y0297160D01*
X0047034Y0297298D01*
X0047119Y0297435D01*
X0047207Y0297569D01*
X0047299Y0297701D01*
X0047394Y0297831D01*
X0047492Y0297959D01*
X0047593Y0298084D01*
X0047697Y0298206D01*
X0047804Y0298326D01*
X0047914Y0298443D01*
X0048027Y0298558D01*
X0048143Y0298669D01*
X0048262Y0298778D01*
X0048383Y0298883D01*
X0048507Y0298986D01*
X0048633Y0299086D01*
X0048761Y0299182D01*
X0048892Y0299275D01*
X0049026Y0299365D01*
X0049161Y0299452D01*
X0049299Y0299535D01*
X0049438Y0299615D01*
X0049580Y0299691D01*
X0049723Y0299764D01*
X0049868Y0299833D01*
X0050015Y0299899D01*
X0050163Y0299961D01*
X0050313Y0300019D01*
X0050464Y0300074D01*
X0050617Y0300125D01*
X0050771Y0300172D01*
X0050926Y0300215D01*
X0051082Y0300254D01*
X0051238Y0300290D01*
X0051396Y0300321D01*
X0051554Y0300349D01*
X0051713Y0300373D01*
X0051873Y0300393D01*
X0052033Y0300409D01*
X0052193Y0300421D01*
X0052354Y0300429D01*
X0052515Y0300433D01*
X0052675Y0300433D01*
X0052836Y0300429D01*
X0052997Y0300421D01*
X0053157Y0300409D01*
X0053317Y0300393D01*
X0053477Y0300373D01*
X0053636Y0300349D01*
X0053794Y0300321D01*
X0053952Y0300290D01*
X0054108Y0300254D01*
X0054264Y0300215D01*
X0054419Y0300172D01*
X0054573Y0300125D01*
X0054726Y0300074D01*
X0054877Y0300019D01*
X0055027Y0299961D01*
X0055175Y0299899D01*
X0055322Y0299833D01*
X0055467Y0299764D01*
X0055610Y0299691D01*
X0055752Y0299615D01*
X0055891Y0299535D01*
X0056029Y0299452D01*
X0056164Y0299365D01*
X0056298Y0299275D01*
X0056429Y0299182D01*
X0056557Y0299086D01*
X0056683Y0298986D01*
X0056807Y0298883D01*
X0056928Y0298778D01*
X0057047Y0298669D01*
X0057163Y0298558D01*
X0057276Y0298443D01*
X0057386Y0298326D01*
X0057493Y0298206D01*
X0057597Y0298084D01*
X0057698Y0297959D01*
X0057796Y0297831D01*
X0057891Y0297701D01*
X0057983Y0297569D01*
X0058071Y0297435D01*
X0058156Y0297298D01*
X0058238Y0297160D01*
X0058316Y0297019D01*
X0058390Y0296877D01*
X0058461Y0296733D01*
X0058529Y0296587D01*
X0058592Y0296439D01*
X0058653Y0296290D01*
X0058709Y0296139D01*
X0058762Y0295987D01*
X0058811Y0295834D01*
X0058856Y0295680D01*
X0058897Y0295525D01*
X0058935Y0295368D01*
X0058968Y0295211D01*
X0058998Y0295053D01*
X0059024Y0294894D01*
X0059045Y0294735D01*
X0059063Y0294575D01*
X0059077Y0294415D01*
X0059087Y0294254D01*
X0059093Y0294094D01*
X0059095Y0293933D01*
X0059093Y0293772D01*
X0059087Y0293612D01*
X0059077Y0293451D01*
X0059063Y0293291D01*
X0059045Y0293131D01*
X0059024Y0292972D01*
X0058998Y0292813D01*
X0058968Y0292655D01*
X0058935Y0292498D01*
X0058897Y0292341D01*
X0058856Y0292186D01*
X0058811Y0292032D01*
X0058762Y0291879D01*
X0058709Y0291727D01*
X0058653Y0291576D01*
X0058592Y0291427D01*
X0058529Y0291279D01*
X0058461Y0291133D01*
X0058390Y0290989D01*
X0058316Y0290847D01*
X0058238Y0290706D01*
X0058156Y0290568D01*
X0058071Y0290431D01*
X0057983Y0290297D01*
X0057891Y0290165D01*
X0057796Y0290035D01*
X0057698Y0289907D01*
X0057597Y0289782D01*
X0057493Y0289660D01*
X0057386Y0289540D01*
X0057276Y0289423D01*
X0057163Y0289308D01*
X0057047Y0289197D01*
X0056928Y0289088D01*
X0056807Y0288983D01*
X0056683Y0288880D01*
X0056557Y0288780D01*
X0056429Y0288684D01*
X0056298Y0288591D01*
X0056164Y0288501D01*
X0056029Y0288414D01*
X0055891Y0288331D01*
X0055752Y0288251D01*
X0055610Y0288175D01*
X0055467Y0288102D01*
X0055322Y0288033D01*
X0055175Y0287967D01*
X0055027Y0287905D01*
X0054877Y0287847D01*
X0054726Y0287792D01*
X0054573Y0287741D01*
X0054419Y0287694D01*
X0054264Y0287651D01*
X0054108Y0287612D01*
X0053952Y0287576D01*
X0053794Y0287545D01*
X0053636Y0287517D01*
X0053477Y0287493D01*
X0053317Y0287473D01*
X0053157Y0287457D01*
X0052997Y0287445D01*
X0052836Y0287437D01*
X0052675Y0287433D01*
X0052515Y0287433D01*
X0052354Y0287437D01*
X0052193Y0287445D01*
X0052033Y0287457D01*
X0051873Y0287473D01*
X0051713Y0287493D01*
X0051554Y0287517D01*
X0051396Y0287545D01*
X0051238Y0287576D01*
X0051082Y0287612D01*
X0050926Y0287651D01*
X0050771Y0287694D01*
X0050617Y0287741D01*
X0050464Y0287792D01*
X0050313Y0287847D01*
X0050163Y0287905D01*
X0050015Y0287967D01*
X0049868Y0288033D01*
X0049723Y0288102D01*
X0049580Y0288175D01*
X0049438Y0288251D01*
X0049299Y0288331D01*
X0049161Y0288414D01*
X0049026Y0288501D01*
X0048892Y0288591D01*
X0048761Y0288684D01*
X0048633Y0288780D01*
X0048507Y0288880D01*
X0048383Y0288983D01*
X0048262Y0289088D01*
X0048143Y0289197D01*
X0048027Y0289308D01*
X0047914Y0289423D01*
X0047804Y0289540D01*
X0047697Y0289660D01*
X0047593Y0289782D01*
X0047492Y0289907D01*
X0047394Y0290035D01*
X0047299Y0290165D01*
X0047207Y0290297D01*
X0047119Y0290431D01*
X0047034Y0290568D01*
X0046952Y0290706D01*
X0046874Y0290847D01*
X0046800Y0290989D01*
X0046729Y0291133D01*
X0046661Y0291279D01*
X0046598Y0291427D01*
X0046537Y0291576D01*
X0046481Y0291727D01*
X0046428Y0291879D01*
X0046379Y0292032D01*
X0046334Y0292186D01*
X0046293Y0292341D01*
X0046255Y0292498D01*
X0046222Y0292655D01*
X0046192Y0292813D01*
X0046166Y0292972D01*
X0046145Y0293131D01*
X0046127Y0293291D01*
X0046113Y0293451D01*
X0046103Y0293612D01*
X0046097Y0293772D01*
X0046095Y0293933D01*
X0646095Y0293933D02*
X0646097Y0294094D01*
X0646103Y0294254D01*
X0646113Y0294415D01*
X0646127Y0294575D01*
X0646145Y0294735D01*
X0646166Y0294894D01*
X0646192Y0295053D01*
X0646222Y0295211D01*
X0646255Y0295368D01*
X0646293Y0295525D01*
X0646334Y0295680D01*
X0646379Y0295834D01*
X0646428Y0295987D01*
X0646481Y0296139D01*
X0646537Y0296290D01*
X0646598Y0296439D01*
X0646661Y0296587D01*
X0646729Y0296733D01*
X0646800Y0296877D01*
X0646874Y0297019D01*
X0646952Y0297160D01*
X0647034Y0297298D01*
X0647119Y0297435D01*
X0647207Y0297569D01*
X0647299Y0297701D01*
X0647394Y0297831D01*
X0647492Y0297959D01*
X0647593Y0298084D01*
X0647697Y0298206D01*
X0647804Y0298326D01*
X0647914Y0298443D01*
X0648027Y0298558D01*
X0648143Y0298669D01*
X0648262Y0298778D01*
X0648383Y0298883D01*
X0648507Y0298986D01*
X0648633Y0299086D01*
X0648761Y0299182D01*
X0648892Y0299275D01*
X0649026Y0299365D01*
X0649161Y0299452D01*
X0649299Y0299535D01*
X0649438Y0299615D01*
X0649580Y0299691D01*
X0649723Y0299764D01*
X0649868Y0299833D01*
X0650015Y0299899D01*
X0650163Y0299961D01*
X0650313Y0300019D01*
X0650464Y0300074D01*
X0650617Y0300125D01*
X0650771Y0300172D01*
X0650926Y0300215D01*
X0651082Y0300254D01*
X0651238Y0300290D01*
X0651396Y0300321D01*
X0651554Y0300349D01*
X0651713Y0300373D01*
X0651873Y0300393D01*
X0652033Y0300409D01*
X0652193Y0300421D01*
X0652354Y0300429D01*
X0652515Y0300433D01*
X0652675Y0300433D01*
X0652836Y0300429D01*
X0652997Y0300421D01*
X0653157Y0300409D01*
X0653317Y0300393D01*
X0653477Y0300373D01*
X0653636Y0300349D01*
X0653794Y0300321D01*
X0653952Y0300290D01*
X0654108Y0300254D01*
X0654264Y0300215D01*
X0654419Y0300172D01*
X0654573Y0300125D01*
X0654726Y0300074D01*
X0654877Y0300019D01*
X0655027Y0299961D01*
X0655175Y0299899D01*
X0655322Y0299833D01*
X0655467Y0299764D01*
X0655610Y0299691D01*
X0655752Y0299615D01*
X0655891Y0299535D01*
X0656029Y0299452D01*
X0656164Y0299365D01*
X0656298Y0299275D01*
X0656429Y0299182D01*
X0656557Y0299086D01*
X0656683Y0298986D01*
X0656807Y0298883D01*
X0656928Y0298778D01*
X0657047Y0298669D01*
X0657163Y0298558D01*
X0657276Y0298443D01*
X0657386Y0298326D01*
X0657493Y0298206D01*
X0657597Y0298084D01*
X0657698Y0297959D01*
X0657796Y0297831D01*
X0657891Y0297701D01*
X0657983Y0297569D01*
X0658071Y0297435D01*
X0658156Y0297298D01*
X0658238Y0297160D01*
X0658316Y0297019D01*
X0658390Y0296877D01*
X0658461Y0296733D01*
X0658529Y0296587D01*
X0658592Y0296439D01*
X0658653Y0296290D01*
X0658709Y0296139D01*
X0658762Y0295987D01*
X0658811Y0295834D01*
X0658856Y0295680D01*
X0658897Y0295525D01*
X0658935Y0295368D01*
X0658968Y0295211D01*
X0658998Y0295053D01*
X0659024Y0294894D01*
X0659045Y0294735D01*
X0659063Y0294575D01*
X0659077Y0294415D01*
X0659087Y0294254D01*
X0659093Y0294094D01*
X0659095Y0293933D01*
X0659093Y0293772D01*
X0659087Y0293612D01*
X0659077Y0293451D01*
X0659063Y0293291D01*
X0659045Y0293131D01*
X0659024Y0292972D01*
X0658998Y0292813D01*
X0658968Y0292655D01*
X0658935Y0292498D01*
X0658897Y0292341D01*
X0658856Y0292186D01*
X0658811Y0292032D01*
X0658762Y0291879D01*
X0658709Y0291727D01*
X0658653Y0291576D01*
X0658592Y0291427D01*
X0658529Y0291279D01*
X0658461Y0291133D01*
X0658390Y0290989D01*
X0658316Y0290847D01*
X0658238Y0290706D01*
X0658156Y0290568D01*
X0658071Y0290431D01*
X0657983Y0290297D01*
X0657891Y0290165D01*
X0657796Y0290035D01*
X0657698Y0289907D01*
X0657597Y0289782D01*
X0657493Y0289660D01*
X0657386Y0289540D01*
X0657276Y0289423D01*
X0657163Y0289308D01*
X0657047Y0289197D01*
X0656928Y0289088D01*
X0656807Y0288983D01*
X0656683Y0288880D01*
X0656557Y0288780D01*
X0656429Y0288684D01*
X0656298Y0288591D01*
X0656164Y0288501D01*
X0656029Y0288414D01*
X0655891Y0288331D01*
X0655752Y0288251D01*
X0655610Y0288175D01*
X0655467Y0288102D01*
X0655322Y0288033D01*
X0655175Y0287967D01*
X0655027Y0287905D01*
X0654877Y0287847D01*
X0654726Y0287792D01*
X0654573Y0287741D01*
X0654419Y0287694D01*
X0654264Y0287651D01*
X0654108Y0287612D01*
X0653952Y0287576D01*
X0653794Y0287545D01*
X0653636Y0287517D01*
X0653477Y0287493D01*
X0653317Y0287473D01*
X0653157Y0287457D01*
X0652997Y0287445D01*
X0652836Y0287437D01*
X0652675Y0287433D01*
X0652515Y0287433D01*
X0652354Y0287437D01*
X0652193Y0287445D01*
X0652033Y0287457D01*
X0651873Y0287473D01*
X0651713Y0287493D01*
X0651554Y0287517D01*
X0651396Y0287545D01*
X0651238Y0287576D01*
X0651082Y0287612D01*
X0650926Y0287651D01*
X0650771Y0287694D01*
X0650617Y0287741D01*
X0650464Y0287792D01*
X0650313Y0287847D01*
X0650163Y0287905D01*
X0650015Y0287967D01*
X0649868Y0288033D01*
X0649723Y0288102D01*
X0649580Y0288175D01*
X0649438Y0288251D01*
X0649299Y0288331D01*
X0649161Y0288414D01*
X0649026Y0288501D01*
X0648892Y0288591D01*
X0648761Y0288684D01*
X0648633Y0288780D01*
X0648507Y0288880D01*
X0648383Y0288983D01*
X0648262Y0289088D01*
X0648143Y0289197D01*
X0648027Y0289308D01*
X0647914Y0289423D01*
X0647804Y0289540D01*
X0647697Y0289660D01*
X0647593Y0289782D01*
X0647492Y0289907D01*
X0647394Y0290035D01*
X0647299Y0290165D01*
X0647207Y0290297D01*
X0647119Y0290431D01*
X0647034Y0290568D01*
X0646952Y0290706D01*
X0646874Y0290847D01*
X0646800Y0290989D01*
X0646729Y0291133D01*
X0646661Y0291279D01*
X0646598Y0291427D01*
X0646537Y0291576D01*
X0646481Y0291727D01*
X0646428Y0291879D01*
X0646379Y0292032D01*
X0646334Y0292186D01*
X0646293Y0292341D01*
X0646255Y0292498D01*
X0646222Y0292655D01*
X0646192Y0292813D01*
X0646166Y0292972D01*
X0646145Y0293131D01*
X0646127Y0293291D01*
X0646113Y0293451D01*
X0646103Y0293612D01*
X0646097Y0293772D01*
X0646095Y0293933D01*
X0646095Y0243933D02*
X0646097Y0244094D01*
X0646103Y0244254D01*
X0646113Y0244415D01*
X0646127Y0244575D01*
X0646145Y0244735D01*
X0646166Y0244894D01*
X0646192Y0245053D01*
X0646222Y0245211D01*
X0646255Y0245368D01*
X0646293Y0245525D01*
X0646334Y0245680D01*
X0646379Y0245834D01*
X0646428Y0245987D01*
X0646481Y0246139D01*
X0646537Y0246290D01*
X0646598Y0246439D01*
X0646661Y0246587D01*
X0646729Y0246733D01*
X0646800Y0246877D01*
X0646874Y0247019D01*
X0646952Y0247160D01*
X0647034Y0247298D01*
X0647119Y0247435D01*
X0647207Y0247569D01*
X0647299Y0247701D01*
X0647394Y0247831D01*
X0647492Y0247959D01*
X0647593Y0248084D01*
X0647697Y0248206D01*
X0647804Y0248326D01*
X0647914Y0248443D01*
X0648027Y0248558D01*
X0648143Y0248669D01*
X0648262Y0248778D01*
X0648383Y0248883D01*
X0648507Y0248986D01*
X0648633Y0249086D01*
X0648761Y0249182D01*
X0648892Y0249275D01*
X0649026Y0249365D01*
X0649161Y0249452D01*
X0649299Y0249535D01*
X0649438Y0249615D01*
X0649580Y0249691D01*
X0649723Y0249764D01*
X0649868Y0249833D01*
X0650015Y0249899D01*
X0650163Y0249961D01*
X0650313Y0250019D01*
X0650464Y0250074D01*
X0650617Y0250125D01*
X0650771Y0250172D01*
X0650926Y0250215D01*
X0651082Y0250254D01*
X0651238Y0250290D01*
X0651396Y0250321D01*
X0651554Y0250349D01*
X0651713Y0250373D01*
X0651873Y0250393D01*
X0652033Y0250409D01*
X0652193Y0250421D01*
X0652354Y0250429D01*
X0652515Y0250433D01*
X0652675Y0250433D01*
X0652836Y0250429D01*
X0652997Y0250421D01*
X0653157Y0250409D01*
X0653317Y0250393D01*
X0653477Y0250373D01*
X0653636Y0250349D01*
X0653794Y0250321D01*
X0653952Y0250290D01*
X0654108Y0250254D01*
X0654264Y0250215D01*
X0654419Y0250172D01*
X0654573Y0250125D01*
X0654726Y0250074D01*
X0654877Y0250019D01*
X0655027Y0249961D01*
X0655175Y0249899D01*
X0655322Y0249833D01*
X0655467Y0249764D01*
X0655610Y0249691D01*
X0655752Y0249615D01*
X0655891Y0249535D01*
X0656029Y0249452D01*
X0656164Y0249365D01*
X0656298Y0249275D01*
X0656429Y0249182D01*
X0656557Y0249086D01*
X0656683Y0248986D01*
X0656807Y0248883D01*
X0656928Y0248778D01*
X0657047Y0248669D01*
X0657163Y0248558D01*
X0657276Y0248443D01*
X0657386Y0248326D01*
X0657493Y0248206D01*
X0657597Y0248084D01*
X0657698Y0247959D01*
X0657796Y0247831D01*
X0657891Y0247701D01*
X0657983Y0247569D01*
X0658071Y0247435D01*
X0658156Y0247298D01*
X0658238Y0247160D01*
X0658316Y0247019D01*
X0658390Y0246877D01*
X0658461Y0246733D01*
X0658529Y0246587D01*
X0658592Y0246439D01*
X0658653Y0246290D01*
X0658709Y0246139D01*
X0658762Y0245987D01*
X0658811Y0245834D01*
X0658856Y0245680D01*
X0658897Y0245525D01*
X0658935Y0245368D01*
X0658968Y0245211D01*
X0658998Y0245053D01*
X0659024Y0244894D01*
X0659045Y0244735D01*
X0659063Y0244575D01*
X0659077Y0244415D01*
X0659087Y0244254D01*
X0659093Y0244094D01*
X0659095Y0243933D01*
X0659093Y0243772D01*
X0659087Y0243612D01*
X0659077Y0243451D01*
X0659063Y0243291D01*
X0659045Y0243131D01*
X0659024Y0242972D01*
X0658998Y0242813D01*
X0658968Y0242655D01*
X0658935Y0242498D01*
X0658897Y0242341D01*
X0658856Y0242186D01*
X0658811Y0242032D01*
X0658762Y0241879D01*
X0658709Y0241727D01*
X0658653Y0241576D01*
X0658592Y0241427D01*
X0658529Y0241279D01*
X0658461Y0241133D01*
X0658390Y0240989D01*
X0658316Y0240847D01*
X0658238Y0240706D01*
X0658156Y0240568D01*
X0658071Y0240431D01*
X0657983Y0240297D01*
X0657891Y0240165D01*
X0657796Y0240035D01*
X0657698Y0239907D01*
X0657597Y0239782D01*
X0657493Y0239660D01*
X0657386Y0239540D01*
X0657276Y0239423D01*
X0657163Y0239308D01*
X0657047Y0239197D01*
X0656928Y0239088D01*
X0656807Y0238983D01*
X0656683Y0238880D01*
X0656557Y0238780D01*
X0656429Y0238684D01*
X0656298Y0238591D01*
X0656164Y0238501D01*
X0656029Y0238414D01*
X0655891Y0238331D01*
X0655752Y0238251D01*
X0655610Y0238175D01*
X0655467Y0238102D01*
X0655322Y0238033D01*
X0655175Y0237967D01*
X0655027Y0237905D01*
X0654877Y0237847D01*
X0654726Y0237792D01*
X0654573Y0237741D01*
X0654419Y0237694D01*
X0654264Y0237651D01*
X0654108Y0237612D01*
X0653952Y0237576D01*
X0653794Y0237545D01*
X0653636Y0237517D01*
X0653477Y0237493D01*
X0653317Y0237473D01*
X0653157Y0237457D01*
X0652997Y0237445D01*
X0652836Y0237437D01*
X0652675Y0237433D01*
X0652515Y0237433D01*
X0652354Y0237437D01*
X0652193Y0237445D01*
X0652033Y0237457D01*
X0651873Y0237473D01*
X0651713Y0237493D01*
X0651554Y0237517D01*
X0651396Y0237545D01*
X0651238Y0237576D01*
X0651082Y0237612D01*
X0650926Y0237651D01*
X0650771Y0237694D01*
X0650617Y0237741D01*
X0650464Y0237792D01*
X0650313Y0237847D01*
X0650163Y0237905D01*
X0650015Y0237967D01*
X0649868Y0238033D01*
X0649723Y0238102D01*
X0649580Y0238175D01*
X0649438Y0238251D01*
X0649299Y0238331D01*
X0649161Y0238414D01*
X0649026Y0238501D01*
X0648892Y0238591D01*
X0648761Y0238684D01*
X0648633Y0238780D01*
X0648507Y0238880D01*
X0648383Y0238983D01*
X0648262Y0239088D01*
X0648143Y0239197D01*
X0648027Y0239308D01*
X0647914Y0239423D01*
X0647804Y0239540D01*
X0647697Y0239660D01*
X0647593Y0239782D01*
X0647492Y0239907D01*
X0647394Y0240035D01*
X0647299Y0240165D01*
X0647207Y0240297D01*
X0647119Y0240431D01*
X0647034Y0240568D01*
X0646952Y0240706D01*
X0646874Y0240847D01*
X0646800Y0240989D01*
X0646729Y0241133D01*
X0646661Y0241279D01*
X0646598Y0241427D01*
X0646537Y0241576D01*
X0646481Y0241727D01*
X0646428Y0241879D01*
X0646379Y0242032D01*
X0646334Y0242186D01*
X0646293Y0242341D01*
X0646255Y0242498D01*
X0646222Y0242655D01*
X0646192Y0242813D01*
X0646166Y0242972D01*
X0646145Y0243131D01*
X0646127Y0243291D01*
X0646113Y0243451D01*
X0646103Y0243612D01*
X0646097Y0243772D01*
X0646095Y0243933D01*
M02*
