G75*
%MOIN*%
%OFA0B0*%
%FSLAX25Y25*%
%IPPOS*%
%LPD*%
%AMOC8*
5,1,8,0,0,1.08239X$1,22.5*
%
%ADD10C,0.00787*%
%ADD11R,0.05236X0.01772*%
%ADD12R,0.01772X0.05236*%
D10*
X0174726Y0137601D02*
X0188013Y0135970D01*
X0189692Y0149647D01*
X0176406Y0151278D01*
X0174726Y0137601D01*
X0169601Y0138598D02*
X0173167Y0151908D01*
X0160238Y0155372D01*
X0156671Y0142062D01*
X0169601Y0138598D01*
X0151734Y0143762D02*
X0157118Y0156446D01*
X0144797Y0161677D01*
X0139412Y0148992D01*
X0151734Y0143762D01*
X0134760Y0151363D02*
X0141857Y0163174D01*
X0130383Y0170068D01*
X0123286Y0158257D01*
X0134760Y0151363D01*
X0119009Y0161252D02*
X0127681Y0171961D01*
X0117278Y0180385D01*
X0108606Y0169676D01*
X0119009Y0161252D01*
X0104787Y0173237D02*
X0114865Y0182635D01*
X0105736Y0192424D01*
X0095658Y0183027D01*
X0104787Y0173237D01*
X0092372Y0187085D02*
X0103660Y0194988D01*
X0095982Y0205953D01*
X0084695Y0198050D01*
X0092372Y0187085D01*
X0082005Y0202525D02*
X0094283Y0208781D01*
X0088206Y0220708D01*
X0075928Y0214452D01*
X0082005Y0202525D01*
X0104682Y0218222D02*
X0117170Y0224045D01*
X0111513Y0236177D01*
X0099024Y0230354D01*
X0104682Y0218222D01*
X0107221Y0213823D02*
X0114899Y0202858D01*
X0126187Y0210762D01*
X0118509Y0221727D01*
X0107221Y0213823D01*
X0118164Y0198967D02*
X0127629Y0189502D01*
X0137373Y0199245D01*
X0127908Y0208711D01*
X0118164Y0198967D01*
X0131520Y0186237D02*
X0139424Y0197524D01*
X0150389Y0189847D01*
X0142485Y0178559D01*
X0131520Y0186237D01*
X0146884Y0176019D02*
X0159016Y0170362D01*
X0164839Y0182851D01*
X0152707Y0188508D01*
X0146884Y0176019D01*
X0163789Y0168625D02*
X0176718Y0165161D01*
X0180285Y0178471D01*
X0167355Y0181935D01*
X0163789Y0168625D01*
X0181721Y0164279D02*
X0195055Y0163112D01*
X0196256Y0176839D01*
X0182922Y0178006D01*
X0181721Y0164279D01*
X0200135Y0163112D02*
X0198934Y0176839D01*
X0212269Y0178006D01*
X0213470Y0164279D01*
X0200135Y0163112D01*
X0218472Y0165161D02*
X0231402Y0168625D01*
X0227835Y0181935D01*
X0214905Y0178471D01*
X0218472Y0165161D01*
X0222878Y0152089D02*
X0209657Y0149995D01*
X0211812Y0136385D01*
X0225033Y0138479D01*
X0222878Y0152089D01*
X0226092Y0152831D02*
X0230121Y0139654D01*
X0242922Y0143568D01*
X0238893Y0156745D01*
X0226092Y0152831D01*
X0241973Y0157927D02*
X0247797Y0145439D01*
X0259928Y0151096D01*
X0254105Y0163584D01*
X0241973Y0157927D01*
X0256990Y0165184D02*
X0264495Y0153627D01*
X0275721Y0160918D01*
X0268217Y0172474D01*
X0256990Y0165184D01*
X0248306Y0176019D02*
X0242483Y0188508D01*
X0230351Y0182851D01*
X0236175Y0170362D01*
X0248306Y0176019D01*
X0252705Y0178559D02*
X0263670Y0186237D01*
X0255767Y0197524D01*
X0244801Y0189847D01*
X0252705Y0178559D01*
X0267561Y0189502D02*
X0277026Y0198967D01*
X0267283Y0208711D01*
X0257818Y0199245D01*
X0267561Y0189502D01*
X0280954Y0183242D02*
X0289994Y0172842D01*
X0279891Y0164060D01*
X0270851Y0174460D01*
X0280954Y0183242D01*
X0283287Y0185575D02*
X0293686Y0176534D01*
X0302468Y0186637D01*
X0292068Y0195677D01*
X0283287Y0185575D01*
X0294054Y0198312D02*
X0305610Y0190807D01*
X0312901Y0202033D01*
X0301344Y0209538D01*
X0294054Y0198312D01*
X0280291Y0202858D02*
X0287969Y0213823D01*
X0276682Y0221727D01*
X0269004Y0210762D01*
X0280291Y0202858D01*
X0290509Y0218222D02*
X0296166Y0230354D01*
X0283677Y0236177D01*
X0278020Y0224045D01*
X0290509Y0218222D01*
X0302944Y0212423D02*
X0315432Y0206600D01*
X0321089Y0218732D01*
X0308601Y0224555D01*
X0302944Y0212423D01*
X0309783Y0227635D02*
X0322961Y0223606D01*
X0326874Y0236407D01*
X0313697Y0240436D01*
X0309783Y0227635D01*
X0297903Y0235127D02*
X0301368Y0248056D01*
X0288058Y0251623D01*
X0284593Y0238693D01*
X0297903Y0235127D01*
X0314439Y0243650D02*
X0328049Y0241495D01*
X0330143Y0254716D01*
X0316533Y0256872D01*
X0314439Y0243650D01*
X0302250Y0253059D02*
X0303416Y0266393D01*
X0289689Y0267594D01*
X0288522Y0254259D01*
X0302250Y0253059D01*
X0316820Y0260158D02*
X0330598Y0259918D01*
X0330831Y0273301D01*
X0317054Y0273542D01*
X0316820Y0260158D01*
X0303416Y0271473D02*
X0302250Y0284808D01*
X0288522Y0283607D01*
X0289689Y0270272D01*
X0303416Y0271473D01*
X0316881Y0276836D02*
X0330558Y0278516D01*
X0328927Y0291802D01*
X0315250Y0290122D01*
X0316881Y0276836D01*
X0301368Y0289810D02*
X0297903Y0302740D01*
X0284593Y0299173D01*
X0288058Y0286243D01*
X0301368Y0289810D01*
X0314621Y0293361D02*
X0327931Y0296927D01*
X0324466Y0309857D01*
X0311156Y0306291D01*
X0314621Y0293361D01*
X0296166Y0307513D02*
X0290509Y0319644D01*
X0278020Y0313821D01*
X0283677Y0301689D01*
X0296166Y0307513D01*
X0310082Y0309410D02*
X0322766Y0314794D01*
X0317536Y0327116D01*
X0304852Y0321732D01*
X0310082Y0309410D01*
X0287969Y0324043D02*
X0280291Y0335008D01*
X0269004Y0327104D01*
X0276682Y0316139D01*
X0287969Y0324043D01*
X0296460Y0336145D02*
X0303354Y0324671D01*
X0315165Y0331768D01*
X0308271Y0343242D01*
X0296460Y0336145D01*
X0294567Y0338848D02*
X0305276Y0347519D01*
X0296852Y0357922D01*
X0286143Y0349250D01*
X0294567Y0338848D01*
X0283894Y0351663D02*
X0293291Y0361741D01*
X0283501Y0370870D01*
X0274104Y0360792D01*
X0283894Y0351663D01*
X0277026Y0338899D02*
X0267561Y0348364D01*
X0257818Y0338621D01*
X0267283Y0329155D01*
X0277026Y0338899D01*
X0263670Y0351629D02*
X0252705Y0359307D01*
X0244801Y0348019D01*
X0255767Y0340342D01*
X0263670Y0351629D01*
X0271540Y0362868D02*
X0279443Y0374156D01*
X0268478Y0381834D01*
X0260575Y0370546D01*
X0271540Y0362868D01*
X0257747Y0372245D02*
X0264003Y0384523D01*
X0252076Y0390600D01*
X0245820Y0378322D01*
X0257747Y0372245D01*
X0248306Y0361847D02*
X0236175Y0367504D01*
X0230351Y0355015D01*
X0242483Y0349358D01*
X0248306Y0361847D01*
X0231402Y0369241D02*
X0227835Y0355931D01*
X0214905Y0359395D01*
X0218472Y0372705D01*
X0231402Y0369241D01*
X0230127Y0383969D02*
X0242783Y0379611D01*
X0247269Y0392640D01*
X0234613Y0396998D01*
X0230127Y0383969D01*
X0226940Y0384823D02*
X0229569Y0398350D01*
X0216429Y0400904D01*
X0213800Y0387377D01*
X0226940Y0384823D01*
X0213470Y0373588D02*
X0200135Y0374754D01*
X0198934Y0361027D01*
X0212269Y0359860D01*
X0213470Y0373588D01*
X0210526Y0387779D02*
X0197158Y0388480D01*
X0197879Y0402241D01*
X0211247Y0401540D01*
X0210526Y0387779D01*
X0193860Y0388422D02*
X0192659Y0402150D01*
X0179324Y0400983D01*
X0180525Y0387256D01*
X0193860Y0388422D01*
X0195055Y0374754D02*
X0181721Y0373588D01*
X0182922Y0359860D01*
X0196256Y0361027D01*
X0195055Y0374754D01*
X0176718Y0372705D02*
X0163789Y0369241D01*
X0167355Y0355931D01*
X0180285Y0359395D01*
X0176718Y0372705D01*
X0177266Y0386740D02*
X0164224Y0383729D01*
X0161124Y0397155D01*
X0174167Y0400166D01*
X0177266Y0386740D01*
X0161069Y0382764D02*
X0156130Y0395628D01*
X0143634Y0390831D01*
X0148572Y0377967D01*
X0161069Y0382764D01*
X0145582Y0376573D02*
X0138901Y0388625D01*
X0127194Y0382135D01*
X0133874Y0370083D01*
X0145582Y0376573D01*
X0146884Y0361847D02*
X0159016Y0367504D01*
X0164839Y0355015D01*
X0152707Y0349358D01*
X0146884Y0361847D01*
X0142485Y0359307D02*
X0131520Y0351629D01*
X0139424Y0340342D01*
X0150389Y0348019D01*
X0142485Y0359307D01*
X0131108Y0368286D02*
X0122815Y0379291D01*
X0112124Y0371235D01*
X0120417Y0360230D01*
X0131108Y0368286D01*
X0117927Y0358066D02*
X0108184Y0367810D01*
X0098719Y0358344D01*
X0108462Y0348601D01*
X0117927Y0358066D01*
X0127629Y0348364D02*
X0118164Y0338899D01*
X0127908Y0329155D01*
X0137373Y0338621D01*
X0127629Y0348364D01*
X0114899Y0335008D02*
X0107221Y0324043D01*
X0118509Y0316139D01*
X0126187Y0327104D01*
X0114899Y0335008D01*
X0106298Y0346111D02*
X0095293Y0354404D01*
X0087237Y0343713D01*
X0098242Y0335421D01*
X0106298Y0346111D01*
X0096445Y0332654D02*
X0084393Y0339334D01*
X0077904Y0327627D01*
X0089956Y0320946D01*
X0096445Y0332654D01*
X0088561Y0317956D02*
X0075697Y0322894D01*
X0070900Y0310398D01*
X0083764Y0305460D01*
X0088561Y0317956D01*
X0099024Y0307513D02*
X0104682Y0319644D01*
X0117170Y0313821D01*
X0111513Y0301689D01*
X0099024Y0307513D01*
X0097287Y0302740D02*
X0093823Y0289810D01*
X0107133Y0286243D01*
X0110597Y0299173D01*
X0097287Y0302740D01*
X0082800Y0302305D02*
X0069373Y0305404D01*
X0066362Y0292362D01*
X0079789Y0289262D01*
X0082800Y0302305D01*
X0079272Y0286003D02*
X0065545Y0287204D01*
X0064379Y0273870D01*
X0078106Y0272669D01*
X0079272Y0286003D01*
X0092941Y0284808D02*
X0091774Y0271473D01*
X0105501Y0270272D01*
X0106668Y0283607D01*
X0092941Y0284808D01*
X0091774Y0266393D02*
X0105501Y0267594D01*
X0106668Y0254259D01*
X0092941Y0253059D01*
X0091774Y0266393D01*
X0078048Y0269370D02*
X0078749Y0256002D01*
X0064988Y0255281D01*
X0064288Y0268649D01*
X0078048Y0269370D01*
X0079151Y0252728D02*
X0065624Y0250099D01*
X0068179Y0236959D01*
X0081705Y0239588D01*
X0079151Y0252728D01*
X0093823Y0248056D02*
X0097287Y0235127D01*
X0110597Y0238693D01*
X0107133Y0251623D01*
X0093823Y0248056D01*
X0082559Y0236401D02*
X0069530Y0231915D01*
X0073888Y0219259D01*
X0086917Y0223745D01*
X0082559Y0236401D01*
X0122797Y0245356D02*
X0136245Y0248362D01*
X0133325Y0261425D01*
X0119877Y0258419D01*
X0122797Y0245356D01*
X0124934Y0239422D02*
X0131011Y0227495D01*
X0143288Y0233751D01*
X0137211Y0245678D01*
X0124934Y0239422D01*
X0134556Y0222279D02*
X0144892Y0231391D01*
X0153744Y0221350D01*
X0143408Y0212238D01*
X0134556Y0222279D01*
X0148138Y0208067D02*
X0159210Y0200543D01*
X0166955Y0211940D01*
X0155884Y0219464D01*
X0148138Y0208067D01*
X0164829Y0197680D02*
X0177423Y0193146D01*
X0182091Y0206111D01*
X0169497Y0210645D01*
X0164829Y0197680D01*
X0183578Y0191770D02*
X0196905Y0190510D01*
X0198202Y0204229D01*
X0184875Y0205488D01*
X0183578Y0191770D01*
X0203208Y0190708D02*
X0201053Y0204318D01*
X0214274Y0206412D01*
X0216429Y0192802D01*
X0203208Y0190708D01*
X0222486Y0194562D02*
X0234771Y0199878D01*
X0229298Y0212524D01*
X0217013Y0207208D01*
X0222486Y0194562D01*
X0240199Y0203088D02*
X0250776Y0211293D01*
X0242330Y0222181D01*
X0231754Y0213976D01*
X0240199Y0203088D01*
X0255236Y0215752D02*
X0263440Y0226329D01*
X0252552Y0234775D01*
X0244348Y0224198D01*
X0255236Y0215752D01*
X0266650Y0231758D02*
X0271966Y0244042D01*
X0259320Y0249515D01*
X0254004Y0237230D01*
X0266650Y0231758D01*
X0273726Y0250099D02*
X0275820Y0263320D01*
X0262210Y0265475D01*
X0260116Y0252254D01*
X0273726Y0250099D01*
X0247172Y0255642D02*
X0234442Y0260915D01*
X0229319Y0248548D01*
X0242050Y0243275D01*
X0247172Y0255642D01*
X0248485Y0262240D02*
X0248485Y0275626D01*
X0234705Y0275626D01*
X0234705Y0262240D01*
X0248485Y0262240D01*
X0262300Y0268327D02*
X0276018Y0269623D01*
X0274758Y0282950D01*
X0261040Y0281653D01*
X0262300Y0268327D01*
X0247172Y0282224D02*
X0242050Y0294591D01*
X0229319Y0289318D01*
X0234442Y0276951D01*
X0247172Y0282224D01*
X0260418Y0284437D02*
X0273382Y0289105D01*
X0268848Y0301699D01*
X0255883Y0297032D01*
X0260418Y0284437D01*
X0254588Y0299573D02*
X0265985Y0307319D01*
X0258461Y0318390D01*
X0247064Y0310644D01*
X0254588Y0299573D01*
X0238312Y0300185D02*
X0228847Y0309650D01*
X0219103Y0299907D01*
X0228569Y0290441D01*
X0238312Y0300185D01*
X0245178Y0312784D02*
X0254290Y0323120D01*
X0244249Y0331973D01*
X0235137Y0321636D01*
X0245178Y0312784D01*
X0232777Y0323240D02*
X0239033Y0335518D01*
X0227106Y0341595D01*
X0220851Y0329317D01*
X0232777Y0323240D01*
X0223253Y0313388D02*
X0210886Y0318510D01*
X0205613Y0305780D01*
X0217980Y0300657D01*
X0223253Y0313388D01*
X0204288Y0319823D02*
X0204288Y0306043D01*
X0190902Y0306043D01*
X0190902Y0319823D01*
X0204288Y0319823D01*
X0205103Y0333203D02*
X0218167Y0330283D01*
X0221173Y0343731D01*
X0208109Y0346651D01*
X0205103Y0333203D01*
X0202263Y0333472D02*
X0201830Y0347245D01*
X0188451Y0346824D01*
X0188884Y0333051D01*
X0202263Y0333472D01*
X0186066Y0332605D02*
X0182222Y0345837D01*
X0169368Y0342103D01*
X0173212Y0328871D01*
X0186066Y0332605D01*
X0170594Y0327738D02*
X0163580Y0339598D01*
X0152058Y0332784D01*
X0159072Y0320924D01*
X0170594Y0327738D01*
X0171937Y0313388D02*
X0184304Y0318510D01*
X0189577Y0305780D01*
X0177210Y0300657D01*
X0171937Y0313388D01*
X0166343Y0309650D02*
X0156878Y0300185D01*
X0166622Y0290441D01*
X0176087Y0299907D01*
X0166343Y0309650D01*
X0156818Y0319175D02*
X0147075Y0328919D01*
X0137609Y0319454D01*
X0147353Y0309710D01*
X0156818Y0319175D01*
X0145605Y0307456D02*
X0133744Y0314470D01*
X0126930Y0302949D01*
X0138791Y0295934D01*
X0145605Y0307456D01*
X0153140Y0294591D02*
X0148018Y0282224D01*
X0160748Y0276951D01*
X0165871Y0289318D01*
X0153140Y0294591D01*
X0137658Y0293316D02*
X0133923Y0280462D01*
X0120691Y0284306D01*
X0124425Y0297161D01*
X0137658Y0293316D01*
X0133477Y0277644D02*
X0119704Y0278077D01*
X0119284Y0264698D01*
X0133056Y0264265D01*
X0133477Y0277644D01*
X0146705Y0275626D02*
X0146705Y0262240D01*
X0160485Y0262240D01*
X0160485Y0275626D01*
X0146705Y0275626D01*
X0148018Y0255642D02*
X0160748Y0260915D01*
X0165871Y0248548D01*
X0153140Y0243275D01*
X0148018Y0255642D01*
X0156878Y0237681D02*
X0166622Y0247425D01*
X0176087Y0237960D01*
X0166343Y0228216D01*
X0156878Y0237681D01*
X0171937Y0224478D02*
X0184304Y0219356D01*
X0189577Y0232086D01*
X0177210Y0237209D01*
X0171937Y0224478D01*
X0190902Y0218043D02*
X0204288Y0218043D01*
X0204288Y0231823D01*
X0190902Y0231823D01*
X0190902Y0218043D01*
X0210886Y0219356D02*
X0223253Y0224478D01*
X0217980Y0237209D01*
X0205613Y0232086D01*
X0210886Y0219356D01*
X0228847Y0228216D02*
X0238312Y0237681D01*
X0228569Y0247425D01*
X0219103Y0237960D01*
X0228847Y0228216D01*
X0208341Y0248722D02*
X0217806Y0258187D01*
X0208063Y0267931D01*
X0198597Y0258466D01*
X0208341Y0248722D01*
X0196593Y0258466D02*
X0186849Y0248722D01*
X0177384Y0258187D01*
X0187128Y0267931D01*
X0196593Y0258466D01*
X0187128Y0269935D02*
X0177384Y0279679D01*
X0186849Y0289144D01*
X0196593Y0279400D01*
X0187128Y0269935D01*
X0198597Y0279400D02*
X0208341Y0289144D01*
X0217806Y0279679D01*
X0208063Y0269935D01*
X0198597Y0279400D01*
X0374359Y0273301D02*
X0374592Y0259918D01*
X0388370Y0260158D01*
X0388136Y0273542D01*
X0374359Y0273301D01*
X0374632Y0278516D02*
X0388309Y0276836D01*
X0389940Y0290122D01*
X0376263Y0291802D01*
X0374632Y0278516D01*
X0377260Y0296927D02*
X0390570Y0293361D01*
X0394034Y0306291D01*
X0380724Y0309857D01*
X0377260Y0296927D01*
X0382424Y0314794D02*
X0395108Y0309410D01*
X0400339Y0321732D01*
X0387654Y0327116D01*
X0382424Y0314794D01*
X0390025Y0331768D02*
X0401836Y0324671D01*
X0408731Y0336145D01*
X0396919Y0343242D01*
X0390025Y0331768D01*
X0399914Y0347519D02*
X0410623Y0338848D01*
X0419047Y0349250D01*
X0408338Y0357922D01*
X0399914Y0347519D01*
X0411899Y0361741D02*
X0421297Y0351663D01*
X0431087Y0360792D01*
X0421689Y0370870D01*
X0411899Y0361741D01*
X0425747Y0374156D02*
X0433650Y0362868D01*
X0444615Y0370546D01*
X0436712Y0381834D01*
X0425747Y0374156D01*
X0441188Y0384523D02*
X0447443Y0372245D01*
X0459370Y0378322D01*
X0453114Y0390600D01*
X0441188Y0384523D01*
X0457921Y0392640D02*
X0462407Y0379611D01*
X0475064Y0383969D01*
X0470577Y0396998D01*
X0457921Y0392640D01*
X0475621Y0398350D02*
X0478250Y0384823D01*
X0491390Y0387377D01*
X0488761Y0400904D01*
X0475621Y0398350D01*
X0493943Y0401540D02*
X0494665Y0387779D01*
X0508032Y0388480D01*
X0507311Y0402241D01*
X0493943Y0401540D01*
X0512532Y0402150D02*
X0511331Y0388422D01*
X0524666Y0387256D01*
X0525866Y0400983D01*
X0512532Y0402150D01*
X0531024Y0400166D02*
X0527924Y0386740D01*
X0540967Y0383729D01*
X0544066Y0397155D01*
X0531024Y0400166D01*
X0549060Y0395628D02*
X0544122Y0382764D01*
X0556618Y0377967D01*
X0561557Y0390831D01*
X0549060Y0395628D01*
X0566289Y0388625D02*
X0559608Y0376573D01*
X0571316Y0370083D01*
X0577996Y0382135D01*
X0566289Y0388625D01*
X0582375Y0379291D02*
X0574083Y0368286D01*
X0584773Y0360230D01*
X0593066Y0371235D01*
X0582375Y0379291D01*
X0597007Y0367810D02*
X0587263Y0358066D01*
X0596728Y0348601D01*
X0606472Y0358344D01*
X0597007Y0367810D01*
X0609897Y0354404D02*
X0598893Y0346111D01*
X0606948Y0335421D01*
X0617953Y0343713D01*
X0609897Y0354404D01*
X0620797Y0339334D02*
X0608745Y0332654D01*
X0615235Y0320946D01*
X0627287Y0327627D01*
X0620797Y0339334D01*
X0629493Y0322894D02*
X0616629Y0317956D01*
X0621426Y0305460D01*
X0634290Y0310398D01*
X0629493Y0322894D01*
X0635817Y0305404D02*
X0622391Y0302305D01*
X0625402Y0289262D01*
X0638828Y0292362D01*
X0635817Y0305404D01*
X0607903Y0302740D02*
X0611368Y0289810D01*
X0598058Y0286243D01*
X0594593Y0299173D01*
X0607903Y0302740D01*
X0606166Y0307513D02*
X0600509Y0319644D01*
X0588020Y0313821D01*
X0593677Y0301689D01*
X0606166Y0307513D01*
X0597969Y0324043D02*
X0586682Y0316139D01*
X0579004Y0327104D01*
X0590291Y0335008D01*
X0597969Y0324043D01*
X0587026Y0338899D02*
X0577283Y0329155D01*
X0567818Y0338621D01*
X0577561Y0348364D01*
X0587026Y0338899D01*
X0573670Y0351629D02*
X0562705Y0359307D01*
X0554801Y0348019D01*
X0565767Y0340342D01*
X0573670Y0351629D01*
X0558306Y0361847D02*
X0546175Y0367504D01*
X0540351Y0355015D01*
X0552483Y0349358D01*
X0558306Y0361847D01*
X0541402Y0369241D02*
X0528472Y0372705D01*
X0524905Y0359395D01*
X0537835Y0355931D01*
X0541402Y0369241D01*
X0523470Y0373588D02*
X0522269Y0359860D01*
X0508934Y0361027D01*
X0510135Y0374754D01*
X0523470Y0373588D01*
X0505055Y0374754D02*
X0506256Y0361027D01*
X0492922Y0359860D01*
X0491721Y0373588D01*
X0505055Y0374754D01*
X0486718Y0372705D02*
X0473789Y0369241D01*
X0477355Y0355931D01*
X0490285Y0359395D01*
X0486718Y0372705D01*
X0469016Y0367504D02*
X0456884Y0361847D01*
X0462707Y0349358D01*
X0474839Y0355015D01*
X0469016Y0367504D01*
X0452485Y0359307D02*
X0441520Y0351629D01*
X0449424Y0340342D01*
X0460389Y0348019D01*
X0452485Y0359307D01*
X0437629Y0348364D02*
X0428164Y0338899D01*
X0437908Y0329155D01*
X0447373Y0338621D01*
X0437629Y0348364D01*
X0424899Y0335008D02*
X0417221Y0324043D01*
X0428509Y0316139D01*
X0436187Y0327104D01*
X0424899Y0335008D01*
X0414682Y0319644D02*
X0409024Y0307513D01*
X0421513Y0301689D01*
X0427170Y0313821D01*
X0414682Y0319644D01*
X0407287Y0302740D02*
X0403823Y0289810D01*
X0417133Y0286243D01*
X0420597Y0299173D01*
X0407287Y0302740D01*
X0431808Y0289105D02*
X0444773Y0284437D01*
X0449307Y0297032D01*
X0436342Y0301699D01*
X0431808Y0289105D01*
X0430432Y0282950D02*
X0429172Y0269623D01*
X0442891Y0268327D01*
X0444150Y0281653D01*
X0430432Y0282950D01*
X0416668Y0283607D02*
X0402941Y0284808D01*
X0401774Y0271473D01*
X0415501Y0270272D01*
X0416668Y0283607D01*
X0415501Y0267594D02*
X0401774Y0266393D01*
X0402941Y0253059D01*
X0416668Y0254259D01*
X0415501Y0267594D01*
X0429370Y0263320D02*
X0431464Y0250099D01*
X0445074Y0252254D01*
X0442980Y0265475D01*
X0429370Y0263320D01*
X0417133Y0251623D02*
X0403823Y0248056D01*
X0407287Y0235127D01*
X0420597Y0238693D01*
X0417133Y0251623D01*
X0433224Y0244042D02*
X0438540Y0231758D01*
X0451186Y0237230D01*
X0445870Y0249515D01*
X0433224Y0244042D01*
X0421513Y0236177D02*
X0409024Y0230354D01*
X0414682Y0218222D01*
X0427170Y0224045D01*
X0421513Y0236177D01*
X0441750Y0226329D02*
X0449955Y0215752D01*
X0460843Y0224198D01*
X0452638Y0234775D01*
X0441750Y0226329D01*
X0428509Y0221727D02*
X0417221Y0213823D01*
X0424899Y0202858D01*
X0436187Y0210762D01*
X0428509Y0221727D01*
X0437908Y0208711D02*
X0428164Y0198967D01*
X0437629Y0189502D01*
X0447373Y0199245D01*
X0437908Y0208711D01*
X0449424Y0197524D02*
X0441520Y0186237D01*
X0452485Y0178559D01*
X0460389Y0189847D01*
X0449424Y0197524D01*
X0454414Y0211293D02*
X0464991Y0203088D01*
X0473437Y0213976D01*
X0462860Y0222181D01*
X0454414Y0211293D01*
X0470420Y0199878D02*
X0482705Y0194562D01*
X0488177Y0207208D01*
X0475892Y0212524D01*
X0470420Y0199878D01*
X0462707Y0188508D02*
X0456884Y0176019D01*
X0469016Y0170362D01*
X0474839Y0182851D01*
X0462707Y0188508D01*
X0477355Y0181935D02*
X0473789Y0168625D01*
X0486718Y0165161D01*
X0490285Y0178471D01*
X0477355Y0181935D01*
X0488761Y0192802D02*
X0501982Y0190708D01*
X0504137Y0204318D01*
X0490916Y0206412D01*
X0488761Y0192802D01*
X0508286Y0190510D02*
X0506989Y0204229D01*
X0520315Y0205488D01*
X0521612Y0191770D01*
X0508286Y0190510D01*
X0524905Y0178471D02*
X0528472Y0165161D01*
X0541402Y0168625D01*
X0537835Y0181935D01*
X0524905Y0178471D01*
X0522269Y0178006D02*
X0523470Y0164279D01*
X0510135Y0163112D01*
X0508934Y0176839D01*
X0522269Y0178006D01*
X0506256Y0176839D02*
X0505055Y0163112D01*
X0491721Y0164279D01*
X0492922Y0178006D01*
X0506256Y0176839D01*
X0527767Y0193146D02*
X0540361Y0197680D01*
X0535694Y0210645D01*
X0523099Y0206111D01*
X0527767Y0193146D01*
X0540351Y0182851D02*
X0546175Y0170362D01*
X0558306Y0176019D01*
X0552483Y0188508D01*
X0540351Y0182851D01*
X0554801Y0189847D02*
X0562705Y0178559D01*
X0573670Y0186237D01*
X0565767Y0197524D01*
X0554801Y0189847D01*
X0545981Y0200543D02*
X0557052Y0208067D01*
X0549307Y0219464D01*
X0538235Y0211940D01*
X0545981Y0200543D01*
X0561783Y0212238D02*
X0570635Y0222279D01*
X0560299Y0231391D01*
X0551446Y0221350D01*
X0561783Y0212238D01*
X0567818Y0199245D02*
X0577283Y0208711D01*
X0587026Y0198967D01*
X0577561Y0189502D01*
X0567818Y0199245D01*
X0579004Y0210762D02*
X0590291Y0202858D01*
X0597969Y0213823D01*
X0586682Y0221727D01*
X0579004Y0210762D01*
X0588020Y0224045D02*
X0600509Y0218222D01*
X0606166Y0230354D01*
X0593677Y0236177D01*
X0588020Y0224045D01*
X0574180Y0227495D02*
X0580257Y0239422D01*
X0567979Y0245678D01*
X0561902Y0233751D01*
X0574180Y0227495D01*
X0594593Y0238693D02*
X0607903Y0235127D01*
X0611368Y0248056D01*
X0598058Y0251623D01*
X0594593Y0238693D01*
X0582393Y0245356D02*
X0585313Y0258419D01*
X0571865Y0261425D01*
X0568945Y0248362D01*
X0582393Y0245356D01*
X0598522Y0254259D02*
X0612250Y0253059D01*
X0613416Y0266393D01*
X0599689Y0267594D01*
X0598522Y0254259D01*
X0585875Y0264151D02*
X0585548Y0277533D01*
X0571773Y0277196D01*
X0572100Y0263815D01*
X0585875Y0264151D01*
X0599689Y0270272D02*
X0613416Y0271473D01*
X0612250Y0284808D01*
X0598522Y0283607D01*
X0599689Y0270272D01*
X0584605Y0283769D02*
X0580960Y0296649D01*
X0567701Y0292897D01*
X0571346Y0280017D01*
X0584605Y0283769D01*
X0578496Y0302454D02*
X0566587Y0295523D01*
X0559853Y0307092D01*
X0571763Y0314023D01*
X0578496Y0302454D01*
X0567581Y0319454D02*
X0558116Y0328919D01*
X0548372Y0319175D01*
X0557837Y0309710D01*
X0567581Y0319454D01*
X0553132Y0332784D02*
X0546118Y0320924D01*
X0534596Y0327738D01*
X0541611Y0339598D01*
X0553132Y0332784D01*
X0535823Y0342103D02*
X0531978Y0328871D01*
X0519124Y0332605D01*
X0522968Y0345837D01*
X0535823Y0342103D01*
X0516739Y0346824D02*
X0516306Y0333051D01*
X0502927Y0333472D01*
X0503360Y0347245D01*
X0516739Y0346824D01*
X0497081Y0346651D02*
X0500087Y0333203D01*
X0487024Y0330283D01*
X0484018Y0343731D01*
X0497081Y0346651D01*
X0478084Y0341595D02*
X0466157Y0335518D01*
X0472413Y0323240D01*
X0484340Y0329317D01*
X0478084Y0341595D01*
X0460941Y0331973D02*
X0450900Y0323120D01*
X0460013Y0312784D01*
X0470053Y0321636D01*
X0460941Y0331973D01*
X0446729Y0318390D02*
X0439205Y0307319D01*
X0450602Y0299573D01*
X0458126Y0310644D01*
X0446729Y0318390D01*
X0466878Y0300185D02*
X0476622Y0290441D01*
X0486087Y0299907D01*
X0476343Y0309650D01*
X0466878Y0300185D01*
X0463140Y0294591D02*
X0458018Y0282224D01*
X0470748Y0276951D01*
X0475871Y0289318D01*
X0463140Y0294591D01*
X0487210Y0300657D02*
X0481937Y0313388D01*
X0494304Y0318510D01*
X0499577Y0305780D01*
X0487210Y0300657D01*
X0500902Y0306043D02*
X0500902Y0319823D01*
X0514288Y0319823D01*
X0514288Y0306043D01*
X0500902Y0306043D01*
X0515613Y0305780D02*
X0520886Y0318510D01*
X0533253Y0313388D01*
X0527980Y0300657D01*
X0515613Y0305780D01*
X0529103Y0299907D02*
X0538847Y0309650D01*
X0548312Y0300185D01*
X0538569Y0290441D01*
X0529103Y0299907D01*
X0539319Y0289318D02*
X0552050Y0294591D01*
X0557172Y0282224D01*
X0544442Y0276951D01*
X0539319Y0289318D01*
X0527806Y0279679D02*
X0518341Y0289144D01*
X0508597Y0279400D01*
X0518063Y0269935D01*
X0527806Y0279679D01*
X0518063Y0267931D02*
X0527806Y0258187D01*
X0518341Y0248722D01*
X0508597Y0258466D01*
X0518063Y0267931D01*
X0506593Y0279400D02*
X0496849Y0289144D01*
X0487384Y0279679D01*
X0497128Y0269935D01*
X0506593Y0279400D01*
X0497128Y0267931D02*
X0487384Y0258187D01*
X0496849Y0248722D01*
X0506593Y0258466D01*
X0497128Y0267931D01*
X0470485Y0262240D02*
X0456705Y0262240D01*
X0456705Y0275626D01*
X0470485Y0275626D01*
X0470485Y0262240D01*
X0470748Y0260915D02*
X0458018Y0255642D01*
X0463140Y0243275D01*
X0475871Y0248548D01*
X0470748Y0260915D01*
X0476622Y0247425D02*
X0466878Y0237681D01*
X0476343Y0228216D01*
X0486087Y0237960D01*
X0476622Y0247425D01*
X0487210Y0237209D02*
X0481937Y0224478D01*
X0494304Y0219356D01*
X0499577Y0232086D01*
X0487210Y0237209D01*
X0500902Y0231823D02*
X0500902Y0218043D01*
X0514288Y0218043D01*
X0514288Y0231823D01*
X0500902Y0231823D01*
X0515613Y0232086D02*
X0520886Y0219356D01*
X0533253Y0224478D01*
X0527980Y0237209D01*
X0515613Y0232086D01*
X0529103Y0237960D02*
X0538847Y0228216D01*
X0548312Y0237681D01*
X0538569Y0247425D01*
X0529103Y0237960D01*
X0539319Y0248548D02*
X0552050Y0243275D01*
X0557172Y0255642D01*
X0544442Y0260915D01*
X0539319Y0248548D01*
X0544705Y0262240D02*
X0558485Y0262240D01*
X0558485Y0275626D01*
X0544705Y0275626D01*
X0544705Y0262240D01*
X0622631Y0236401D02*
X0618273Y0223745D01*
X0631302Y0219259D01*
X0635660Y0231915D01*
X0622631Y0236401D01*
X0623485Y0239588D02*
X0637012Y0236959D01*
X0639566Y0250099D01*
X0626039Y0252728D01*
X0623485Y0239588D01*
X0626442Y0256002D02*
X0640202Y0255281D01*
X0640903Y0268649D01*
X0627142Y0269370D01*
X0626442Y0256002D01*
X0627084Y0272669D02*
X0640812Y0273870D01*
X0639645Y0287204D01*
X0625918Y0286003D01*
X0627084Y0272669D01*
X0616984Y0220708D02*
X0629262Y0214452D01*
X0623185Y0202525D01*
X0610907Y0208781D01*
X0616984Y0220708D01*
X0609208Y0205953D02*
X0620496Y0198050D01*
X0612818Y0187085D01*
X0601530Y0194988D01*
X0609208Y0205953D01*
X0599454Y0192424D02*
X0609532Y0183027D01*
X0600403Y0173237D01*
X0590325Y0182635D01*
X0599454Y0192424D01*
X0587912Y0180385D02*
X0596584Y0169676D01*
X0586181Y0161252D01*
X0577510Y0171961D01*
X0587912Y0180385D01*
X0574807Y0170068D02*
X0581904Y0158257D01*
X0570430Y0151363D01*
X0563333Y0163174D01*
X0574807Y0170068D01*
X0560394Y0161677D02*
X0565778Y0148992D01*
X0553456Y0143762D01*
X0548072Y0156446D01*
X0560394Y0161677D01*
X0544953Y0155372D02*
X0548519Y0142062D01*
X0535589Y0138598D01*
X0532023Y0151908D01*
X0544953Y0155372D01*
X0528785Y0151278D02*
X0530464Y0137601D01*
X0517178Y0135970D01*
X0515498Y0149647D01*
X0528785Y0151278D01*
X0512204Y0149474D02*
X0511963Y0135697D01*
X0498580Y0135930D01*
X0498820Y0149708D01*
X0512204Y0149474D01*
X0495534Y0149995D02*
X0493378Y0136385D01*
X0480157Y0138479D01*
X0482313Y0152089D01*
X0495534Y0149995D01*
X0479098Y0152831D02*
X0475069Y0139654D01*
X0462268Y0143568D01*
X0466297Y0156745D01*
X0479098Y0152831D01*
X0463217Y0157927D02*
X0457394Y0145439D01*
X0445262Y0151096D01*
X0451085Y0163584D01*
X0463217Y0157927D01*
X0448200Y0165184D02*
X0440695Y0153627D01*
X0429469Y0160918D01*
X0436974Y0172474D01*
X0448200Y0165184D01*
X0434339Y0174460D02*
X0425299Y0164060D01*
X0415196Y0172842D01*
X0424237Y0183242D01*
X0434339Y0174460D01*
X0421904Y0185575D02*
X0411504Y0176534D01*
X0402722Y0186637D01*
X0413122Y0195677D01*
X0421904Y0185575D01*
X0411136Y0198312D02*
X0399580Y0190807D01*
X0392290Y0202033D01*
X0403846Y0209538D01*
X0411136Y0198312D01*
X0402247Y0212423D02*
X0389758Y0206600D01*
X0384101Y0218732D01*
X0396589Y0224555D01*
X0402247Y0212423D01*
X0395407Y0227635D02*
X0382230Y0223606D01*
X0378316Y0236407D01*
X0391494Y0240436D01*
X0395407Y0227635D01*
X0390751Y0243650D02*
X0377142Y0241495D01*
X0375048Y0254716D01*
X0388657Y0256872D01*
X0390751Y0243650D01*
X0206370Y0149708D02*
X0206611Y0135930D01*
X0193227Y0135697D01*
X0192986Y0149474D01*
X0206370Y0149708D01*
D11*
G36*
X0201135Y0149616D02*
X0206370Y0149707D01*
X0206401Y0147936D01*
X0201166Y0147845D01*
X0201135Y0149616D01*
G37*
G36*
X0184495Y0150285D02*
X0189691Y0149647D01*
X0189475Y0147889D01*
X0184279Y0148527D01*
X0184495Y0150285D01*
G37*
G36*
X0168110Y0153263D02*
X0173167Y0151908D01*
X0172708Y0150197D01*
X0167651Y0151552D01*
X0168110Y0153263D01*
G37*
G36*
X0152299Y0158492D02*
X0157118Y0156447D01*
X0156425Y0154816D01*
X0151606Y0156861D01*
X0152299Y0158492D01*
G37*
G36*
X0137370Y0165870D02*
X0141857Y0163175D01*
X0140944Y0161656D01*
X0136457Y0164351D01*
X0137370Y0165870D01*
G37*
G36*
X0123613Y0175256D02*
X0127681Y0171961D01*
X0126565Y0170584D01*
X0122497Y0173879D01*
X0123613Y0175256D01*
G37*
G36*
X0111295Y0186463D02*
X0114865Y0182635D01*
X0113569Y0181427D01*
X0109999Y0185255D01*
X0111295Y0186463D01*
G37*
G36*
X0100658Y0199277D02*
X0103660Y0194989D01*
X0102208Y0193973D01*
X0099206Y0198261D01*
X0100658Y0199277D01*
G37*
G36*
X0091906Y0213446D02*
X0094282Y0208782D01*
X0092704Y0207978D01*
X0090328Y0212642D01*
X0091906Y0213446D01*
G37*
G36*
X0085213Y0228695D02*
X0086917Y0223746D01*
X0085241Y0223169D01*
X0083537Y0228118D01*
X0085213Y0228695D01*
G37*
G36*
X0080706Y0244727D02*
X0081705Y0239589D01*
X0079966Y0239251D01*
X0078967Y0244389D01*
X0080706Y0244727D01*
G37*
G36*
X0078474Y0261231D02*
X0078748Y0256003D01*
X0076980Y0255911D01*
X0076706Y0261139D01*
X0078474Y0261231D01*
G37*
G36*
X0078562Y0277884D02*
X0078106Y0272669D01*
X0076342Y0272824D01*
X0076798Y0278039D01*
X0078562Y0277884D01*
G37*
G36*
X0080966Y0294363D02*
X0079788Y0289262D01*
X0078062Y0289661D01*
X0079240Y0294762D01*
X0080966Y0294363D01*
G37*
G36*
X0085640Y0310347D02*
X0083764Y0305460D01*
X0082110Y0306095D01*
X0083986Y0310982D01*
X0085640Y0310347D01*
G37*
G36*
X0092494Y0325526D02*
X0089956Y0320947D01*
X0088406Y0321806D01*
X0090944Y0326385D01*
X0092494Y0325526D01*
G37*
G36*
X0101393Y0339602D02*
X0098243Y0335421D01*
X0096827Y0336488D01*
X0099977Y0340669D01*
X0101393Y0339602D01*
G37*
G36*
X0112164Y0352303D02*
X0108463Y0348602D01*
X0107210Y0349855D01*
X0110911Y0353556D01*
X0112164Y0352303D01*
G37*
G36*
X0124599Y0363381D02*
X0120418Y0360231D01*
X0119351Y0361647D01*
X0123532Y0364797D01*
X0124599Y0363381D01*
G37*
G36*
X0138454Y0372621D02*
X0133875Y0370083D01*
X0133016Y0371633D01*
X0137595Y0374171D01*
X0138454Y0372621D01*
G37*
G36*
X0153460Y0379843D02*
X0148573Y0377967D01*
X0147938Y0379621D01*
X0152825Y0381497D01*
X0153460Y0379843D01*
G37*
G36*
X0169325Y0384907D02*
X0164224Y0383729D01*
X0163825Y0385455D01*
X0168926Y0386633D01*
X0169325Y0384907D01*
G37*
G36*
X0185741Y0387712D02*
X0180526Y0387256D01*
X0180371Y0389020D01*
X0185586Y0389476D01*
X0185741Y0387712D01*
G37*
G36*
X0202387Y0388207D02*
X0197159Y0388481D01*
X0197251Y0390249D01*
X0202479Y0389975D01*
X0202387Y0388207D01*
G37*
G36*
X0218939Y0386378D02*
X0213801Y0387377D01*
X0214139Y0389116D01*
X0219277Y0388117D01*
X0218939Y0386378D01*
G37*
G36*
X0235077Y0382265D02*
X0230128Y0383969D01*
X0230705Y0385645D01*
X0235654Y0383941D01*
X0235077Y0382265D01*
G37*
G36*
X0250485Y0375946D02*
X0245821Y0378322D01*
X0246625Y0379900D01*
X0251289Y0377524D01*
X0250485Y0375946D01*
G37*
G36*
X0264864Y0367543D02*
X0260576Y0370545D01*
X0261592Y0371997D01*
X0265880Y0368995D01*
X0264864Y0367543D01*
G37*
G36*
X0277933Y0357221D02*
X0274105Y0360791D01*
X0275313Y0362087D01*
X0279141Y0358517D01*
X0277933Y0357221D01*
G37*
G36*
X0289439Y0345181D02*
X0286144Y0349249D01*
X0287521Y0350365D01*
X0290816Y0346297D01*
X0289439Y0345181D01*
G37*
G36*
X0299155Y0331657D02*
X0296460Y0336144D01*
X0297979Y0337057D01*
X0300674Y0332570D01*
X0299155Y0331657D01*
G37*
G36*
X0306897Y0316912D02*
X0304852Y0321731D01*
X0306483Y0322424D01*
X0308528Y0317605D01*
X0306897Y0316912D01*
G37*
G36*
X0312511Y0301233D02*
X0311156Y0306290D01*
X0312867Y0306749D01*
X0314222Y0301692D01*
X0312511Y0301233D01*
G37*
G36*
X0315888Y0284926D02*
X0315250Y0290122D01*
X0317008Y0290338D01*
X0317646Y0285142D01*
X0315888Y0284926D01*
G37*
G36*
X0316963Y0268307D02*
X0317054Y0273542D01*
X0318825Y0273511D01*
X0318734Y0268276D01*
X0316963Y0268307D01*
G37*
G36*
X0315714Y0251700D02*
X0316533Y0256871D01*
X0318282Y0256594D01*
X0317463Y0251423D01*
X0315714Y0251700D01*
G37*
G36*
X0312166Y0235429D02*
X0313697Y0240435D01*
X0315390Y0239917D01*
X0313859Y0234911D01*
X0312166Y0235429D01*
G37*
G36*
X0286703Y0246566D02*
X0288058Y0251623D01*
X0289769Y0251164D01*
X0288414Y0246107D01*
X0286703Y0246566D01*
G37*
G36*
X0281465Y0231432D02*
X0283677Y0236177D01*
X0285283Y0235428D01*
X0283071Y0230683D01*
X0281465Y0231432D01*
G37*
G36*
X0273678Y0217438D02*
X0276680Y0221726D01*
X0278132Y0220710D01*
X0275130Y0216422D01*
X0273678Y0217438D01*
G37*
G36*
X0263581Y0205009D02*
X0267282Y0208710D01*
X0268535Y0207457D01*
X0264834Y0203756D01*
X0263581Y0205009D01*
G37*
G36*
X0251478Y0194522D02*
X0255766Y0197524D01*
X0256782Y0196072D01*
X0252494Y0193070D01*
X0251478Y0194522D01*
G37*
G36*
X0237737Y0186296D02*
X0242482Y0188508D01*
X0243231Y0186902D01*
X0238486Y0184690D01*
X0237737Y0186296D01*
G37*
G36*
X0222778Y0180580D02*
X0227835Y0181935D01*
X0228294Y0180224D01*
X0223237Y0178869D01*
X0222778Y0180580D01*
G37*
G36*
X0207053Y0177549D02*
X0212268Y0178005D01*
X0212423Y0176241D01*
X0207208Y0175785D01*
X0207053Y0177549D01*
G37*
G36*
X0191041Y0177295D02*
X0196256Y0176839D01*
X0196101Y0175075D01*
X0190886Y0175531D01*
X0191041Y0177295D01*
G37*
G36*
X0175228Y0179826D02*
X0180285Y0178471D01*
X0179826Y0176760D01*
X0174769Y0178115D01*
X0175228Y0179826D01*
G37*
G36*
X0160094Y0185064D02*
X0164839Y0182852D01*
X0164090Y0181246D01*
X0159345Y0183458D01*
X0160094Y0185064D01*
G37*
G36*
X0146100Y0192850D02*
X0150388Y0189848D01*
X0149372Y0188396D01*
X0145084Y0191398D01*
X0146100Y0192850D01*
G37*
G36*
X0133671Y0202947D02*
X0137372Y0199246D01*
X0136119Y0197993D01*
X0132418Y0201694D01*
X0133671Y0202947D01*
G37*
G36*
X0123184Y0215050D02*
X0126186Y0210762D01*
X0124734Y0209746D01*
X0121732Y0214034D01*
X0123184Y0215050D01*
G37*
G36*
X0114958Y0228791D02*
X0117170Y0224046D01*
X0115564Y0223297D01*
X0113352Y0228042D01*
X0114958Y0228791D01*
G37*
G36*
X0109242Y0243751D02*
X0110597Y0238694D01*
X0108886Y0238235D01*
X0107531Y0243292D01*
X0109242Y0243751D01*
G37*
G36*
X0106211Y0259475D02*
X0106667Y0254260D01*
X0104903Y0254105D01*
X0104447Y0259320D01*
X0106211Y0259475D01*
G37*
G36*
X0105957Y0275487D02*
X0105501Y0270272D01*
X0103737Y0270427D01*
X0104193Y0275642D01*
X0105957Y0275487D01*
G37*
G36*
X0108488Y0291301D02*
X0107133Y0286244D01*
X0105422Y0286703D01*
X0106777Y0291760D01*
X0108488Y0291301D01*
G37*
G36*
X0113726Y0306434D02*
X0111514Y0301689D01*
X0109908Y0302438D01*
X0112120Y0307183D01*
X0113726Y0306434D01*
G37*
G36*
X0121512Y0320428D02*
X0118510Y0316140D01*
X0117058Y0317156D01*
X0120060Y0321444D01*
X0121512Y0320428D01*
G37*
G36*
X0131609Y0332857D02*
X0127908Y0329156D01*
X0126655Y0330409D01*
X0130356Y0334110D01*
X0131609Y0332857D01*
G37*
G36*
X0143712Y0343344D02*
X0139424Y0340342D01*
X0138408Y0341794D01*
X0142696Y0344796D01*
X0143712Y0343344D01*
G37*
G36*
X0157453Y0351570D02*
X0152708Y0349358D01*
X0151959Y0350964D01*
X0156704Y0353176D01*
X0157453Y0351570D01*
G37*
G36*
X0172413Y0357286D02*
X0167356Y0355931D01*
X0166897Y0357642D01*
X0171954Y0358997D01*
X0172413Y0357286D01*
G37*
G36*
X0188137Y0360317D02*
X0182922Y0359861D01*
X0182767Y0361625D01*
X0187982Y0362081D01*
X0188137Y0360317D01*
G37*
G36*
X0204149Y0360571D02*
X0198934Y0361027D01*
X0199089Y0362791D01*
X0204304Y0362335D01*
X0204149Y0360571D01*
G37*
G36*
X0219963Y0358041D02*
X0214906Y0359396D01*
X0215365Y0361107D01*
X0220422Y0359752D01*
X0219963Y0358041D01*
G37*
G36*
X0235096Y0352803D02*
X0230351Y0355015D01*
X0231100Y0356621D01*
X0235845Y0354409D01*
X0235096Y0352803D01*
G37*
G36*
X0249090Y0345016D02*
X0244802Y0348018D01*
X0245818Y0349470D01*
X0250106Y0346468D01*
X0249090Y0345016D01*
G37*
G36*
X0261519Y0334919D02*
X0257818Y0338620D01*
X0259071Y0339873D01*
X0262772Y0336172D01*
X0261519Y0334919D01*
G37*
G36*
X0272006Y0322816D02*
X0269004Y0327104D01*
X0270456Y0328120D01*
X0273458Y0323832D01*
X0272006Y0322816D01*
G37*
G36*
X0280233Y0309075D02*
X0278021Y0313820D01*
X0279627Y0314569D01*
X0281839Y0309824D01*
X0280233Y0309075D01*
G37*
G36*
X0285948Y0294115D02*
X0284593Y0299172D01*
X0286304Y0299631D01*
X0287659Y0294574D01*
X0285948Y0294115D01*
G37*
G36*
X0288979Y0278391D02*
X0288523Y0283606D01*
X0290287Y0283761D01*
X0290743Y0278546D01*
X0288979Y0278391D01*
G37*
G36*
X0289233Y0262379D02*
X0289689Y0267594D01*
X0291453Y0267439D01*
X0290997Y0262224D01*
X0289233Y0262379D01*
G37*
G36*
X0261391Y0260304D02*
X0262210Y0265475D01*
X0263959Y0265198D01*
X0263140Y0260027D01*
X0261391Y0260304D01*
G37*
G36*
X0257241Y0244710D02*
X0259319Y0249514D01*
X0260945Y0248810D01*
X0258867Y0244006D01*
X0257241Y0244710D01*
G37*
G36*
X0249343Y0230638D02*
X0252551Y0234774D01*
X0253951Y0233688D01*
X0250743Y0229552D01*
X0249343Y0230638D01*
G37*
G36*
X0238194Y0218972D02*
X0242330Y0222180D01*
X0243416Y0220780D01*
X0239280Y0217572D01*
X0238194Y0218972D01*
G37*
G36*
X0224493Y0210445D02*
X0229297Y0212523D01*
X0230001Y0210897D01*
X0225197Y0208819D01*
X0224493Y0210445D01*
G37*
G36*
X0209103Y0205593D02*
X0214274Y0206412D01*
X0214551Y0204663D01*
X0209380Y0203844D01*
X0209103Y0205593D01*
G37*
G36*
X0192989Y0204721D02*
X0198201Y0204228D01*
X0198035Y0202465D01*
X0192823Y0202958D01*
X0192989Y0204721D01*
G37*
G36*
X0177165Y0207884D02*
X0182091Y0206111D01*
X0181491Y0204444D01*
X0176565Y0206217D01*
X0177165Y0207884D01*
G37*
G36*
X0162625Y0214883D02*
X0166955Y0211941D01*
X0165959Y0210475D01*
X0161629Y0213417D01*
X0162625Y0214883D01*
G37*
G36*
X0150282Y0225278D02*
X0153743Y0221352D01*
X0152414Y0220180D01*
X0148953Y0224106D01*
X0150282Y0225278D01*
G37*
G36*
X0140911Y0238415D02*
X0143287Y0233751D01*
X0141709Y0232947D01*
X0139333Y0237611D01*
X0140911Y0238415D01*
G37*
G36*
X0135102Y0253471D02*
X0136244Y0248362D01*
X0134516Y0247975D01*
X0133374Y0253084D01*
X0135102Y0253471D01*
G37*
G36*
X0133220Y0269498D02*
X0133056Y0264266D01*
X0131286Y0264322D01*
X0131450Y0269554D01*
X0133220Y0269498D01*
G37*
G36*
X0135384Y0285489D02*
X0133923Y0280462D01*
X0132222Y0280957D01*
X0133683Y0285984D01*
X0135384Y0285489D01*
G37*
G36*
X0141456Y0300441D02*
X0138791Y0295935D01*
X0137266Y0296837D01*
X0139931Y0301343D01*
X0141456Y0300441D01*
G37*
G36*
X0151055Y0313412D02*
X0147354Y0309711D01*
X0146101Y0310964D01*
X0149802Y0314665D01*
X0151055Y0313412D01*
G37*
G36*
X0163579Y0323589D02*
X0159073Y0320924D01*
X0158171Y0322449D01*
X0162677Y0325114D01*
X0163579Y0323589D01*
G37*
G36*
X0178240Y0330332D02*
X0173213Y0328871D01*
X0172718Y0330572D01*
X0177745Y0332033D01*
X0178240Y0330332D01*
G37*
G36*
X0194117Y0333216D02*
X0188885Y0333052D01*
X0188829Y0334822D01*
X0194061Y0334986D01*
X0194117Y0333216D01*
G37*
G36*
X0210212Y0332062D02*
X0205103Y0333204D01*
X0205490Y0334932D01*
X0210599Y0333790D01*
X0210212Y0332062D01*
G37*
G36*
X0225516Y0326941D02*
X0220852Y0329317D01*
X0221656Y0330895D01*
X0226320Y0328519D01*
X0225516Y0326941D01*
G37*
G36*
X0239064Y0318175D02*
X0235138Y0321636D01*
X0236310Y0322965D01*
X0240236Y0319504D01*
X0239064Y0318175D01*
G37*
G36*
X0250007Y0306314D02*
X0247065Y0310644D01*
X0248531Y0311640D01*
X0251473Y0307310D01*
X0250007Y0306314D01*
G37*
G36*
X0257657Y0292105D02*
X0255884Y0297031D01*
X0257551Y0297631D01*
X0259324Y0292705D01*
X0257657Y0292105D01*
G37*
G36*
X0261533Y0276441D02*
X0261040Y0281653D01*
X0262803Y0281819D01*
X0263296Y0276607D01*
X0261533Y0276441D01*
G37*
G36*
X0231323Y0284481D02*
X0229320Y0289317D01*
X0230957Y0289995D01*
X0232960Y0285159D01*
X0231323Y0284481D01*
G37*
G36*
X0222805Y0296205D02*
X0219104Y0299906D01*
X0220357Y0301159D01*
X0224058Y0297458D01*
X0222805Y0296205D01*
G37*
G36*
X0210450Y0303776D02*
X0205614Y0305779D01*
X0206292Y0307416D01*
X0211128Y0305413D01*
X0210450Y0303776D01*
G37*
X0193520Y0306929D03*
G36*
X0182047Y0302660D02*
X0177211Y0300657D01*
X0176533Y0302294D01*
X0181369Y0304297D01*
X0182047Y0302660D01*
G37*
G36*
X0170324Y0294143D02*
X0166623Y0290442D01*
X0165370Y0291695D01*
X0169071Y0295396D01*
X0170324Y0294143D01*
G37*
G36*
X0162752Y0281788D02*
X0160749Y0276952D01*
X0159112Y0277630D01*
X0161115Y0282466D01*
X0162752Y0281788D01*
G37*
G36*
X0190830Y0273637D02*
X0187129Y0269936D01*
X0185876Y0271189D01*
X0189577Y0274890D01*
X0190830Y0273637D01*
G37*
G36*
X0202299Y0275699D02*
X0198598Y0279400D01*
X0199851Y0280653D01*
X0203552Y0276952D01*
X0202299Y0275699D01*
G37*
G36*
X0204361Y0264229D02*
X0208062Y0267930D01*
X0209315Y0266677D01*
X0205614Y0262976D01*
X0204361Y0264229D01*
G37*
G36*
X0192891Y0262168D02*
X0196592Y0258467D01*
X0195339Y0257214D01*
X0191638Y0260915D01*
X0192891Y0262168D01*
G37*
G36*
X0172385Y0241661D02*
X0176086Y0237960D01*
X0174833Y0236707D01*
X0171132Y0240408D01*
X0172385Y0241661D01*
G37*
G36*
X0163868Y0253385D02*
X0165871Y0248549D01*
X0164234Y0247871D01*
X0162231Y0252707D01*
X0163868Y0253385D01*
G37*
G36*
X0184740Y0234090D02*
X0189576Y0232087D01*
X0188898Y0230450D01*
X0184062Y0232453D01*
X0184740Y0234090D01*
G37*
X0201670Y0230937D03*
G36*
X0213143Y0235206D02*
X0217979Y0237209D01*
X0218657Y0235572D01*
X0213821Y0233569D01*
X0213143Y0235206D01*
G37*
G36*
X0224867Y0243723D02*
X0228568Y0247424D01*
X0229821Y0246171D01*
X0226120Y0242470D01*
X0224867Y0243723D01*
G37*
G36*
X0232438Y0256078D02*
X0234441Y0260914D01*
X0236078Y0260236D01*
X0234075Y0255400D01*
X0232438Y0256078D01*
G37*
G36*
X0306388Y0219810D02*
X0308600Y0224555D01*
X0310206Y0223806D01*
X0307994Y0219061D01*
X0306388Y0219810D01*
G37*
G36*
X0298493Y0205147D02*
X0301343Y0209538D01*
X0302829Y0208573D01*
X0299979Y0204182D01*
X0298493Y0205147D01*
G37*
G36*
X0288633Y0191726D02*
X0292067Y0195677D01*
X0293405Y0194514D01*
X0289971Y0190563D01*
X0288633Y0191726D01*
G37*
G36*
X0277002Y0179808D02*
X0280953Y0183242D01*
X0282116Y0181904D01*
X0278165Y0178470D01*
X0277002Y0179808D01*
G37*
G36*
X0263825Y0169624D02*
X0268216Y0172474D01*
X0269181Y0170988D01*
X0264790Y0168138D01*
X0263825Y0169624D01*
G37*
G36*
X0249359Y0161372D02*
X0254104Y0163584D01*
X0254853Y0161978D01*
X0250108Y0159766D01*
X0249359Y0161372D01*
G37*
G36*
X0233886Y0155214D02*
X0238892Y0156745D01*
X0239410Y0155052D01*
X0234404Y0153521D01*
X0233886Y0155214D01*
G37*
G36*
X0217706Y0151270D02*
X0222877Y0152089D01*
X0223154Y0150340D01*
X0217983Y0149521D01*
X0217706Y0151270D01*
G37*
G36*
X0389932Y0248822D02*
X0390751Y0243651D01*
X0389002Y0243374D01*
X0388183Y0248545D01*
X0389932Y0248822D01*
G37*
G36*
X0388278Y0265393D02*
X0388369Y0260158D01*
X0386598Y0260127D01*
X0386507Y0265362D01*
X0388278Y0265393D01*
G37*
G36*
X0388947Y0282033D02*
X0388309Y0276837D01*
X0386551Y0277053D01*
X0387189Y0282249D01*
X0388947Y0282033D01*
G37*
G36*
X0391925Y0298418D02*
X0390570Y0293361D01*
X0388859Y0293820D01*
X0390214Y0298877D01*
X0391925Y0298418D01*
G37*
G36*
X0397154Y0314229D02*
X0395109Y0309410D01*
X0393478Y0310103D01*
X0395523Y0314922D01*
X0397154Y0314229D01*
G37*
G36*
X0404532Y0329159D02*
X0401837Y0324672D01*
X0400318Y0325585D01*
X0403013Y0330072D01*
X0404532Y0329159D01*
G37*
G36*
X0413918Y0342916D02*
X0410623Y0338848D01*
X0409246Y0339964D01*
X0412541Y0344032D01*
X0413918Y0342916D01*
G37*
G36*
X0425125Y0355233D02*
X0421297Y0351663D01*
X0420089Y0352959D01*
X0423917Y0356529D01*
X0425125Y0355233D01*
G37*
G36*
X0437939Y0365871D02*
X0433651Y0362869D01*
X0432635Y0364321D01*
X0436923Y0367323D01*
X0437939Y0365871D01*
G37*
G36*
X0452108Y0374622D02*
X0447444Y0372246D01*
X0446640Y0373824D01*
X0451304Y0376200D01*
X0452108Y0374622D01*
G37*
G36*
X0467357Y0381315D02*
X0462408Y0379611D01*
X0461831Y0381287D01*
X0466780Y0382991D01*
X0467357Y0381315D01*
G37*
G36*
X0483389Y0385822D02*
X0478251Y0384823D01*
X0477913Y0386562D01*
X0483051Y0387561D01*
X0483389Y0385822D01*
G37*
G36*
X0499893Y0388054D02*
X0494665Y0387780D01*
X0494573Y0389548D01*
X0499801Y0389822D01*
X0499893Y0388054D01*
G37*
G36*
X0516546Y0387967D02*
X0511331Y0388423D01*
X0511486Y0390187D01*
X0516701Y0389731D01*
X0516546Y0387967D01*
G37*
G36*
X0533025Y0385562D02*
X0527924Y0386740D01*
X0528323Y0388466D01*
X0533424Y0387288D01*
X0533025Y0385562D01*
G37*
G36*
X0549009Y0380888D02*
X0544122Y0382764D01*
X0544757Y0384418D01*
X0549644Y0382542D01*
X0549009Y0380888D01*
G37*
G36*
X0564188Y0374034D02*
X0559609Y0376572D01*
X0560468Y0378122D01*
X0565047Y0375584D01*
X0564188Y0374034D01*
G37*
G36*
X0578264Y0365135D02*
X0574083Y0368285D01*
X0575150Y0369701D01*
X0579331Y0366551D01*
X0578264Y0365135D01*
G37*
G36*
X0590965Y0354364D02*
X0587264Y0358065D01*
X0588517Y0359318D01*
X0592218Y0355617D01*
X0590965Y0354364D01*
G37*
G36*
X0602043Y0341929D02*
X0598893Y0346110D01*
X0600309Y0347177D01*
X0603459Y0342996D01*
X0602043Y0341929D01*
G37*
G36*
X0611283Y0328074D02*
X0608745Y0332653D01*
X0610295Y0333512D01*
X0612833Y0328933D01*
X0611283Y0328074D01*
G37*
G36*
X0618505Y0313069D02*
X0616629Y0317956D01*
X0618283Y0318591D01*
X0620159Y0313704D01*
X0618505Y0313069D01*
G37*
G36*
X0623569Y0297203D02*
X0622391Y0302304D01*
X0624117Y0302703D01*
X0625295Y0297602D01*
X0623569Y0297203D01*
G37*
G36*
X0626374Y0280787D02*
X0625918Y0286002D01*
X0627682Y0286157D01*
X0628138Y0280942D01*
X0626374Y0280787D01*
G37*
G36*
X0626869Y0264141D02*
X0627143Y0269369D01*
X0628911Y0269277D01*
X0628637Y0264049D01*
X0626869Y0264141D01*
G37*
G36*
X0625040Y0247589D02*
X0626039Y0252727D01*
X0627778Y0252389D01*
X0626779Y0247251D01*
X0625040Y0247589D01*
G37*
G36*
X0620927Y0231452D02*
X0622631Y0236401D01*
X0624307Y0235824D01*
X0622603Y0230875D01*
X0620927Y0231452D01*
G37*
G36*
X0614608Y0216043D02*
X0616984Y0220707D01*
X0618562Y0219903D01*
X0616186Y0215239D01*
X0614608Y0216043D01*
G37*
G36*
X0606205Y0201665D02*
X0609207Y0205953D01*
X0610659Y0204937D01*
X0607657Y0200649D01*
X0606205Y0201665D01*
G37*
G36*
X0595884Y0188596D02*
X0599454Y0192424D01*
X0600750Y0191216D01*
X0597180Y0187388D01*
X0595884Y0188596D01*
G37*
G36*
X0583843Y0177090D02*
X0587911Y0180385D01*
X0589027Y0179008D01*
X0584959Y0175713D01*
X0583843Y0177090D01*
G37*
G36*
X0570319Y0167373D02*
X0574806Y0170068D01*
X0575719Y0168549D01*
X0571232Y0165854D01*
X0570319Y0167373D01*
G37*
G36*
X0555574Y0159631D02*
X0560393Y0161676D01*
X0561086Y0160045D01*
X0556267Y0158000D01*
X0555574Y0159631D01*
G37*
G36*
X0539895Y0154017D02*
X0544952Y0155372D01*
X0545411Y0153661D01*
X0540354Y0152306D01*
X0539895Y0154017D01*
G37*
G36*
X0523588Y0150640D02*
X0528784Y0151278D01*
X0529000Y0149520D01*
X0523804Y0148882D01*
X0523588Y0150640D01*
G37*
G36*
X0506969Y0149565D02*
X0512204Y0149474D01*
X0512173Y0147703D01*
X0506938Y0147794D01*
X0506969Y0149565D01*
G37*
G36*
X0490362Y0150814D02*
X0495533Y0149995D01*
X0495256Y0148246D01*
X0490085Y0149065D01*
X0490362Y0150814D01*
G37*
G36*
X0474091Y0154362D02*
X0479097Y0152831D01*
X0478579Y0151138D01*
X0473573Y0152669D01*
X0474091Y0154362D01*
G37*
G36*
X0458472Y0160140D02*
X0463217Y0157928D01*
X0462468Y0156322D01*
X0457723Y0158534D01*
X0458472Y0160140D01*
G37*
G36*
X0443809Y0168035D02*
X0448200Y0165185D01*
X0447235Y0163699D01*
X0442844Y0166549D01*
X0443809Y0168035D01*
G37*
G36*
X0430388Y0177895D02*
X0434339Y0174461D01*
X0433176Y0173123D01*
X0429225Y0176557D01*
X0430388Y0177895D01*
G37*
G36*
X0418470Y0189526D02*
X0421904Y0185575D01*
X0420566Y0184412D01*
X0417132Y0188363D01*
X0418470Y0189526D01*
G37*
G36*
X0408286Y0202703D02*
X0411136Y0198312D01*
X0409650Y0197347D01*
X0406800Y0201738D01*
X0408286Y0202703D01*
G37*
G36*
X0400034Y0217169D02*
X0402246Y0212424D01*
X0400640Y0211675D01*
X0398428Y0216420D01*
X0400034Y0217169D01*
G37*
G36*
X0393876Y0232642D02*
X0395407Y0227636D01*
X0393714Y0227118D01*
X0392183Y0232124D01*
X0393876Y0232642D01*
G37*
G36*
X0419242Y0243751D02*
X0420597Y0238694D01*
X0418886Y0238235D01*
X0417531Y0243292D01*
X0419242Y0243751D01*
G37*
G36*
X0416211Y0259475D02*
X0416667Y0254260D01*
X0414903Y0254105D01*
X0414447Y0259320D01*
X0416211Y0259475D01*
G37*
G36*
X0415957Y0275487D02*
X0415501Y0270272D01*
X0413737Y0270427D01*
X0414193Y0275642D01*
X0415957Y0275487D01*
G37*
G36*
X0418488Y0291301D02*
X0417133Y0286244D01*
X0415422Y0286703D01*
X0416777Y0291760D01*
X0418488Y0291301D01*
G37*
G36*
X0423726Y0306434D02*
X0421514Y0301689D01*
X0419908Y0302438D01*
X0422120Y0307183D01*
X0423726Y0306434D01*
G37*
G36*
X0431512Y0320428D02*
X0428510Y0316140D01*
X0427058Y0317156D01*
X0430060Y0321444D01*
X0431512Y0320428D01*
G37*
G36*
X0441609Y0332857D02*
X0437908Y0329156D01*
X0436655Y0330409D01*
X0440356Y0334110D01*
X0441609Y0332857D01*
G37*
G36*
X0453712Y0343344D02*
X0449424Y0340342D01*
X0448408Y0341794D01*
X0452696Y0344796D01*
X0453712Y0343344D01*
G37*
G36*
X0467453Y0351570D02*
X0462708Y0349358D01*
X0461959Y0350964D01*
X0466704Y0353176D01*
X0467453Y0351570D01*
G37*
G36*
X0482413Y0357286D02*
X0477356Y0355931D01*
X0476897Y0357642D01*
X0481954Y0358997D01*
X0482413Y0357286D01*
G37*
G36*
X0498137Y0360317D02*
X0492922Y0359861D01*
X0492767Y0361625D01*
X0497982Y0362081D01*
X0498137Y0360317D01*
G37*
G36*
X0514149Y0360571D02*
X0508934Y0361027D01*
X0509089Y0362791D01*
X0514304Y0362335D01*
X0514149Y0360571D01*
G37*
G36*
X0529963Y0358041D02*
X0524906Y0359396D01*
X0525365Y0361107D01*
X0530422Y0359752D01*
X0529963Y0358041D01*
G37*
G36*
X0545096Y0352803D02*
X0540351Y0355015D01*
X0541100Y0356621D01*
X0545845Y0354409D01*
X0545096Y0352803D01*
G37*
G36*
X0559090Y0345016D02*
X0554802Y0348018D01*
X0555818Y0349470D01*
X0560106Y0346468D01*
X0559090Y0345016D01*
G37*
G36*
X0571519Y0334919D02*
X0567818Y0338620D01*
X0569071Y0339873D01*
X0572772Y0336172D01*
X0571519Y0334919D01*
G37*
G36*
X0582006Y0322816D02*
X0579004Y0327104D01*
X0580456Y0328120D01*
X0583458Y0323832D01*
X0582006Y0322816D01*
G37*
G36*
X0590233Y0309075D02*
X0588021Y0313820D01*
X0589627Y0314569D01*
X0591839Y0309824D01*
X0590233Y0309075D01*
G37*
G36*
X0595948Y0294115D02*
X0594593Y0299172D01*
X0596304Y0299631D01*
X0597659Y0294574D01*
X0595948Y0294115D01*
G37*
G36*
X0598979Y0278391D02*
X0598523Y0283606D01*
X0600287Y0283761D01*
X0600743Y0278546D01*
X0598979Y0278391D01*
G37*
G36*
X0599233Y0262379D02*
X0599689Y0267594D01*
X0601453Y0267439D01*
X0600997Y0262224D01*
X0599233Y0262379D01*
G37*
G36*
X0596703Y0246566D02*
X0598058Y0251623D01*
X0599769Y0251164D01*
X0598414Y0246107D01*
X0596703Y0246566D01*
G37*
G36*
X0591465Y0231432D02*
X0593677Y0236177D01*
X0595283Y0235428D01*
X0593071Y0230683D01*
X0591465Y0231432D01*
G37*
G36*
X0583678Y0217438D02*
X0586680Y0221726D01*
X0588132Y0220710D01*
X0585130Y0216422D01*
X0583678Y0217438D01*
G37*
G36*
X0573581Y0205009D02*
X0577282Y0208710D01*
X0578535Y0207457D01*
X0574834Y0203756D01*
X0573581Y0205009D01*
G37*
G36*
X0561478Y0194522D02*
X0565766Y0197524D01*
X0566782Y0196072D01*
X0562494Y0193070D01*
X0561478Y0194522D01*
G37*
G36*
X0547737Y0186296D02*
X0552482Y0188508D01*
X0553231Y0186902D01*
X0548486Y0184690D01*
X0547737Y0186296D01*
G37*
G36*
X0532778Y0180580D02*
X0537835Y0181935D01*
X0538294Y0180224D01*
X0533237Y0178869D01*
X0532778Y0180580D01*
G37*
G36*
X0517053Y0177549D02*
X0522268Y0178005D01*
X0522423Y0176241D01*
X0517208Y0175785D01*
X0517053Y0177549D01*
G37*
G36*
X0501041Y0177295D02*
X0506256Y0176839D01*
X0506101Y0175075D01*
X0500886Y0175531D01*
X0501041Y0177295D01*
G37*
G36*
X0485228Y0179826D02*
X0490285Y0178471D01*
X0489826Y0176760D01*
X0484769Y0178115D01*
X0485228Y0179826D01*
G37*
G36*
X0470094Y0185064D02*
X0474839Y0182852D01*
X0474090Y0181246D01*
X0469345Y0183458D01*
X0470094Y0185064D01*
G37*
G36*
X0456100Y0192850D02*
X0460388Y0189848D01*
X0459372Y0188396D01*
X0455084Y0191398D01*
X0456100Y0192850D01*
G37*
G36*
X0443671Y0202947D02*
X0447372Y0199246D01*
X0446119Y0197993D01*
X0442418Y0201694D01*
X0443671Y0202947D01*
G37*
G36*
X0433184Y0215050D02*
X0436186Y0210762D01*
X0434734Y0209746D01*
X0431732Y0214034D01*
X0433184Y0215050D01*
G37*
G36*
X0424958Y0228791D02*
X0427170Y0224046D01*
X0425564Y0223297D01*
X0423352Y0228042D01*
X0424958Y0228791D01*
G37*
G36*
X0449108Y0242035D02*
X0451186Y0237231D01*
X0449560Y0236527D01*
X0447482Y0241331D01*
X0449108Y0242035D01*
G37*
G36*
X0444255Y0257426D02*
X0445074Y0252255D01*
X0443325Y0251978D01*
X0442506Y0257149D01*
X0444255Y0257426D01*
G37*
G36*
X0443383Y0273540D02*
X0442890Y0268328D01*
X0441127Y0268494D01*
X0441620Y0273706D01*
X0443383Y0273540D01*
G37*
G36*
X0446546Y0289363D02*
X0444773Y0284437D01*
X0443106Y0285037D01*
X0444879Y0289963D01*
X0446546Y0289363D01*
G37*
G36*
X0453545Y0303904D02*
X0450603Y0299574D01*
X0449137Y0300570D01*
X0452079Y0304900D01*
X0453545Y0303904D01*
G37*
G36*
X0463940Y0316246D02*
X0460014Y0312785D01*
X0458842Y0314114D01*
X0462768Y0317575D01*
X0463940Y0316246D01*
G37*
G36*
X0477077Y0325617D02*
X0472413Y0323241D01*
X0471609Y0324819D01*
X0476273Y0327195D01*
X0477077Y0325617D01*
G37*
G36*
X0492133Y0331426D02*
X0487024Y0330284D01*
X0486637Y0332012D01*
X0491746Y0333154D01*
X0492133Y0331426D01*
G37*
G36*
X0508160Y0333308D02*
X0502928Y0333472D01*
X0502984Y0335242D01*
X0508216Y0335078D01*
X0508160Y0333308D01*
G37*
G36*
X0524151Y0331144D02*
X0519124Y0332605D01*
X0519619Y0334306D01*
X0524646Y0332845D01*
X0524151Y0331144D01*
G37*
G36*
X0539103Y0325072D02*
X0534597Y0327737D01*
X0535499Y0329262D01*
X0540005Y0326597D01*
X0539103Y0325072D01*
G37*
G36*
X0552074Y0315473D02*
X0548373Y0319174D01*
X0549626Y0320427D01*
X0553327Y0316726D01*
X0552074Y0315473D01*
G37*
G36*
X0562487Y0302567D02*
X0559854Y0307091D01*
X0561385Y0307983D01*
X0564018Y0303459D01*
X0562487Y0302567D01*
G37*
G36*
X0569128Y0287859D02*
X0567702Y0292896D01*
X0569406Y0293379D01*
X0570832Y0288342D01*
X0569128Y0287859D01*
G37*
G36*
X0571901Y0271963D02*
X0571773Y0277196D01*
X0573543Y0277239D01*
X0573671Y0272006D01*
X0571901Y0271963D01*
G37*
G36*
X0570724Y0256316D02*
X0571866Y0261425D01*
X0573594Y0261038D01*
X0572452Y0255929D01*
X0570724Y0256316D01*
G37*
G36*
X0565603Y0241013D02*
X0567979Y0245677D01*
X0569557Y0244873D01*
X0567181Y0240209D01*
X0565603Y0241013D01*
G37*
G36*
X0556837Y0227465D02*
X0560298Y0231391D01*
X0561627Y0230219D01*
X0558166Y0226293D01*
X0556837Y0227465D01*
G37*
G36*
X0544976Y0216522D02*
X0549306Y0219464D01*
X0550302Y0217998D01*
X0545972Y0215056D01*
X0544976Y0216522D01*
G37*
G36*
X0530767Y0208872D02*
X0535693Y0210645D01*
X0536293Y0208978D01*
X0531367Y0207205D01*
X0530767Y0208872D01*
G37*
G36*
X0515103Y0204995D02*
X0520315Y0205488D01*
X0520481Y0203725D01*
X0515269Y0203232D01*
X0515103Y0204995D01*
G37*
G36*
X0498966Y0205137D02*
X0504137Y0204318D01*
X0503860Y0202569D01*
X0498689Y0203388D01*
X0498966Y0205137D01*
G37*
G36*
X0483372Y0209287D02*
X0488176Y0207209D01*
X0487472Y0205583D01*
X0482668Y0207661D01*
X0483372Y0209287D01*
G37*
G36*
X0469300Y0217185D02*
X0473436Y0213977D01*
X0472350Y0212577D01*
X0468214Y0215785D01*
X0469300Y0217185D01*
G37*
G36*
X0457634Y0228335D02*
X0460842Y0224199D01*
X0459442Y0223113D01*
X0456234Y0227249D01*
X0457634Y0228335D01*
G37*
G36*
X0482385Y0241661D02*
X0486086Y0237960D01*
X0484833Y0236707D01*
X0481132Y0240408D01*
X0482385Y0241661D01*
G37*
G36*
X0473868Y0253385D02*
X0475871Y0248549D01*
X0474234Y0247871D01*
X0472231Y0252707D01*
X0473868Y0253385D01*
G37*
G36*
X0502891Y0262168D02*
X0506592Y0258467D01*
X0505339Y0257214D01*
X0501638Y0260915D01*
X0502891Y0262168D01*
G37*
G36*
X0514361Y0264229D02*
X0518062Y0267930D01*
X0519315Y0266677D01*
X0515614Y0262976D01*
X0514361Y0264229D01*
G37*
G36*
X0512299Y0275699D02*
X0508598Y0279400D01*
X0509851Y0280653D01*
X0513552Y0276952D01*
X0512299Y0275699D01*
G37*
G36*
X0500830Y0273637D02*
X0497129Y0269936D01*
X0495876Y0271189D01*
X0499577Y0274890D01*
X0500830Y0273637D01*
G37*
G36*
X0480324Y0294143D02*
X0476623Y0290442D01*
X0475370Y0291695D01*
X0479071Y0295396D01*
X0480324Y0294143D01*
G37*
G36*
X0492047Y0302660D02*
X0487211Y0300657D01*
X0486533Y0302294D01*
X0491369Y0304297D01*
X0492047Y0302660D01*
G37*
X0503520Y0306929D03*
G36*
X0520450Y0303776D02*
X0515614Y0305779D01*
X0516292Y0307416D01*
X0521128Y0305413D01*
X0520450Y0303776D01*
G37*
G36*
X0532805Y0296205D02*
X0529104Y0299906D01*
X0530357Y0301159D01*
X0534058Y0297458D01*
X0532805Y0296205D01*
G37*
G36*
X0541323Y0284481D02*
X0539320Y0289317D01*
X0540957Y0289995D01*
X0542960Y0285159D01*
X0541323Y0284481D01*
G37*
G36*
X0542438Y0256078D02*
X0544441Y0260914D01*
X0546078Y0260236D01*
X0544075Y0255400D01*
X0542438Y0256078D01*
G37*
G36*
X0534867Y0243723D02*
X0538568Y0247424D01*
X0539821Y0246171D01*
X0536120Y0242470D01*
X0534867Y0243723D01*
G37*
G36*
X0523143Y0235206D02*
X0527979Y0237209D01*
X0528657Y0235572D01*
X0523821Y0233569D01*
X0523143Y0235206D01*
G37*
X0511670Y0230937D03*
G36*
X0494740Y0234090D02*
X0499576Y0232087D01*
X0498898Y0230450D01*
X0494062Y0232453D01*
X0494740Y0234090D01*
G37*
G36*
X0472752Y0281788D02*
X0470749Y0276952D01*
X0469112Y0277630D01*
X0471115Y0282466D01*
X0472752Y0281788D01*
G37*
D12*
X0469599Y0264858D03*
X0545591Y0273008D03*
X0235591Y0273008D03*
X0159599Y0264858D03*
M02*
