G75*
%MOIN*%
%OFA0B0*%
%FSLAX25Y25*%
%IPPOS*%
%LPD*%
%AMOC8*
5,1,8,0,0,1.08239X$1,22.5*
%
%ADD10C,0.00787*%
%ADD11R,0.05236X0.01772*%
%ADD12R,0.01772X0.05236*%
D10*
X0139412Y0073992D02*
X0151734Y0068762D01*
X0157118Y0081446D01*
X0144797Y0086677D01*
X0139412Y0073992D01*
X0134760Y0076363D02*
X0141857Y0088174D01*
X0130383Y0095068D01*
X0123286Y0083257D01*
X0134760Y0076363D01*
X0119009Y0086252D02*
X0127681Y0096961D01*
X0117278Y0105385D01*
X0108606Y0094676D01*
X0119009Y0086252D01*
X0104787Y0098237D02*
X0114865Y0107635D01*
X0105736Y0117424D01*
X0095658Y0108027D01*
X0104787Y0098237D01*
X0092372Y0112085D02*
X0103660Y0119988D01*
X0095982Y0130953D01*
X0084695Y0123050D01*
X0092372Y0112085D01*
X0118164Y0123967D02*
X0127629Y0114502D01*
X0137373Y0124245D01*
X0127908Y0133711D01*
X0118164Y0123967D01*
X0114899Y0127858D02*
X0126187Y0135762D01*
X0118509Y0146727D01*
X0107221Y0138823D01*
X0114899Y0127858D01*
X0094283Y0133781D02*
X0082005Y0127525D01*
X0075928Y0139452D01*
X0088206Y0145708D01*
X0094283Y0133781D01*
X0104682Y0143222D02*
X0117170Y0149045D01*
X0111513Y0161177D01*
X0099024Y0155354D01*
X0104682Y0143222D01*
X0086917Y0148745D02*
X0073888Y0144259D01*
X0069530Y0156915D01*
X0082559Y0161401D01*
X0086917Y0148745D01*
X0097287Y0160127D02*
X0110597Y0163693D01*
X0107133Y0176623D01*
X0093823Y0173056D01*
X0097287Y0160127D01*
X0081705Y0164588D02*
X0068179Y0161959D01*
X0065624Y0175099D01*
X0079151Y0177728D01*
X0081705Y0164588D01*
X0092941Y0178059D02*
X0106668Y0179259D01*
X0105501Y0192594D01*
X0091774Y0191393D01*
X0092941Y0178059D01*
X0078749Y0181002D02*
X0064988Y0180281D01*
X0064288Y0193649D01*
X0078048Y0194370D01*
X0078749Y0181002D01*
X0078106Y0197669D02*
X0064379Y0198870D01*
X0065545Y0212204D01*
X0079272Y0211003D01*
X0078106Y0197669D01*
X0091774Y0196473D02*
X0105501Y0195272D01*
X0106668Y0208607D01*
X0092941Y0209808D01*
X0091774Y0196473D01*
X0093823Y0214810D02*
X0107133Y0211243D01*
X0110597Y0224173D01*
X0097287Y0227740D01*
X0093823Y0214810D01*
X0079789Y0214262D02*
X0066362Y0217362D01*
X0069373Y0230404D01*
X0082800Y0227305D01*
X0079789Y0214262D01*
X0099024Y0232513D02*
X0111513Y0226689D01*
X0117170Y0238821D01*
X0104682Y0244644D01*
X0099024Y0232513D01*
X0088561Y0242956D02*
X0083764Y0230460D01*
X0070900Y0235398D01*
X0075697Y0247894D01*
X0088561Y0242956D01*
X0089956Y0245946D02*
X0077904Y0252627D01*
X0084393Y0264334D01*
X0096445Y0257654D01*
X0089956Y0245946D01*
X0107221Y0249043D02*
X0118509Y0241139D01*
X0126187Y0252104D01*
X0114899Y0260008D01*
X0107221Y0249043D01*
X0098242Y0260421D02*
X0087237Y0268713D01*
X0095293Y0279404D01*
X0106298Y0271111D01*
X0098242Y0260421D01*
X0118164Y0263899D02*
X0127908Y0254155D01*
X0137373Y0263621D01*
X0127629Y0273364D01*
X0118164Y0263899D01*
X0108462Y0273601D02*
X0098719Y0283344D01*
X0108184Y0292810D01*
X0117927Y0283066D01*
X0108462Y0273601D01*
X0131520Y0276629D02*
X0139424Y0265342D01*
X0150389Y0273019D01*
X0142485Y0284307D01*
X0131520Y0276629D01*
X0120417Y0285230D02*
X0112124Y0296235D01*
X0122815Y0304291D01*
X0131108Y0293286D01*
X0120417Y0285230D01*
X0133874Y0295083D02*
X0127194Y0307135D01*
X0138901Y0313625D01*
X0145582Y0301573D01*
X0133874Y0295083D01*
X0148572Y0302967D02*
X0143634Y0315831D01*
X0156130Y0320628D01*
X0161069Y0307764D01*
X0148572Y0302967D01*
X0164224Y0308729D02*
X0161124Y0322155D01*
X0174167Y0325166D01*
X0177266Y0311740D01*
X0164224Y0308729D01*
X0163789Y0294241D02*
X0176718Y0297705D01*
X0180285Y0284395D01*
X0167355Y0280931D01*
X0163789Y0294241D01*
X0159016Y0292504D02*
X0146884Y0286847D01*
X0152707Y0274358D01*
X0164839Y0280015D01*
X0159016Y0292504D01*
X0181721Y0298588D02*
X0182922Y0284860D01*
X0196256Y0286027D01*
X0195055Y0299754D01*
X0181721Y0298588D01*
X0200135Y0299754D02*
X0198934Y0286027D01*
X0212269Y0284860D01*
X0213470Y0298588D01*
X0200135Y0299754D01*
X0218472Y0297705D02*
X0214905Y0284395D01*
X0227835Y0280931D01*
X0231402Y0294241D01*
X0218472Y0297705D01*
X0226940Y0309823D02*
X0229569Y0323350D01*
X0216429Y0325904D01*
X0213800Y0312377D01*
X0226940Y0309823D01*
X0230127Y0308969D02*
X0234613Y0321998D01*
X0247269Y0317640D01*
X0242783Y0304611D01*
X0230127Y0308969D01*
X0245820Y0303322D02*
X0252076Y0315600D01*
X0264003Y0309523D01*
X0257747Y0297245D01*
X0245820Y0303322D01*
X0236175Y0292504D02*
X0230351Y0280015D01*
X0242483Y0274358D01*
X0248306Y0286847D01*
X0236175Y0292504D01*
X0252705Y0284307D02*
X0244801Y0273019D01*
X0255767Y0265342D01*
X0263670Y0276629D01*
X0252705Y0284307D01*
X0260575Y0295546D02*
X0271540Y0287868D01*
X0279443Y0299156D01*
X0268478Y0306834D01*
X0260575Y0295546D01*
X0274104Y0285792D02*
X0283501Y0295870D01*
X0293291Y0286741D01*
X0283894Y0276663D01*
X0274104Y0285792D01*
X0286143Y0274250D02*
X0296852Y0282922D01*
X0305276Y0272519D01*
X0294567Y0263848D01*
X0286143Y0274250D01*
X0277026Y0263899D02*
X0267561Y0273364D01*
X0257818Y0263621D01*
X0267283Y0254155D01*
X0277026Y0263899D01*
X0280291Y0260008D02*
X0269004Y0252104D01*
X0276682Y0241139D01*
X0287969Y0249043D01*
X0280291Y0260008D01*
X0296460Y0261145D02*
X0308271Y0268242D01*
X0315165Y0256768D01*
X0303354Y0249671D01*
X0296460Y0261145D01*
X0304852Y0246732D02*
X0317536Y0252116D01*
X0322766Y0239794D01*
X0310082Y0234410D01*
X0304852Y0246732D01*
X0290509Y0244644D02*
X0278020Y0238821D01*
X0283677Y0226689D01*
X0296166Y0232513D01*
X0290509Y0244644D01*
X0311156Y0231291D02*
X0324466Y0234857D01*
X0327931Y0221927D01*
X0314621Y0218361D01*
X0311156Y0231291D01*
X0297903Y0227740D02*
X0284593Y0224173D01*
X0288058Y0211243D01*
X0301368Y0214810D01*
X0297903Y0227740D01*
X0315250Y0215122D02*
X0328927Y0216802D01*
X0330558Y0203516D01*
X0316881Y0201836D01*
X0315250Y0215122D01*
X0302250Y0209808D02*
X0288522Y0208607D01*
X0289689Y0195272D01*
X0303416Y0196473D01*
X0302250Y0209808D01*
X0317054Y0198542D02*
X0330831Y0198301D01*
X0330598Y0184918D01*
X0316820Y0185158D01*
X0317054Y0198542D01*
X0303416Y0191393D02*
X0289689Y0192594D01*
X0288522Y0179259D01*
X0302250Y0178059D01*
X0303416Y0191393D01*
X0316533Y0181872D02*
X0330143Y0179716D01*
X0328049Y0166495D01*
X0314439Y0168650D01*
X0316533Y0181872D01*
X0301368Y0173056D02*
X0288058Y0176623D01*
X0284593Y0163693D01*
X0297903Y0160127D01*
X0301368Y0173056D01*
X0313697Y0165436D02*
X0326874Y0161407D01*
X0322961Y0148606D01*
X0309783Y0152635D01*
X0313697Y0165436D01*
X0296166Y0155354D02*
X0283677Y0161177D01*
X0278020Y0149045D01*
X0290509Y0143222D01*
X0296166Y0155354D01*
X0308601Y0149555D02*
X0321089Y0143732D01*
X0315432Y0131600D01*
X0302944Y0137423D01*
X0308601Y0149555D01*
X0287969Y0138823D02*
X0276682Y0146727D01*
X0269004Y0135762D01*
X0280291Y0127858D01*
X0287969Y0138823D01*
X0301344Y0134538D02*
X0312901Y0127033D01*
X0305610Y0115807D01*
X0294054Y0123312D01*
X0301344Y0134538D01*
X0292068Y0120677D02*
X0302468Y0111637D01*
X0293686Y0101534D01*
X0283287Y0110575D01*
X0292068Y0120677D01*
X0277026Y0123967D02*
X0267283Y0133711D01*
X0257818Y0124245D01*
X0267561Y0114502D01*
X0277026Y0123967D01*
X0263670Y0111237D02*
X0255767Y0122524D01*
X0244801Y0114847D01*
X0252705Y0103559D01*
X0263670Y0111237D01*
X0270851Y0099460D02*
X0279891Y0089060D01*
X0289994Y0097842D01*
X0280954Y0108242D01*
X0270851Y0099460D01*
X0268217Y0097474D02*
X0275721Y0085918D01*
X0264495Y0078627D01*
X0256990Y0090184D01*
X0268217Y0097474D01*
X0254105Y0088584D02*
X0259928Y0076096D01*
X0247797Y0070439D01*
X0241973Y0082927D01*
X0254105Y0088584D01*
X0248306Y0101019D02*
X0236175Y0095362D01*
X0230351Y0107851D01*
X0242483Y0113508D01*
X0248306Y0101019D01*
X0231402Y0093625D02*
X0227835Y0106935D01*
X0214905Y0103471D01*
X0218472Y0090161D01*
X0231402Y0093625D01*
X0213470Y0089279D02*
X0212269Y0103006D01*
X0198934Y0101839D01*
X0200135Y0088112D01*
X0213470Y0089279D01*
X0226092Y0077831D02*
X0238893Y0081745D01*
X0242922Y0068568D01*
X0230121Y0064654D01*
X0226092Y0077831D01*
X0222878Y0077089D02*
X0225033Y0063479D01*
X0211812Y0061385D01*
X0209657Y0074995D01*
X0222878Y0077089D01*
X0206370Y0074708D02*
X0206611Y0060930D01*
X0193227Y0060697D01*
X0192986Y0074474D01*
X0206370Y0074708D01*
X0189692Y0074647D02*
X0188013Y0060970D01*
X0174726Y0062601D01*
X0176406Y0076278D01*
X0189692Y0074647D01*
X0173167Y0076908D02*
X0169601Y0063598D01*
X0156671Y0067062D01*
X0160238Y0080372D01*
X0173167Y0076908D01*
X0181721Y0089279D02*
X0195055Y0088112D01*
X0196256Y0101839D01*
X0182922Y0103006D01*
X0181721Y0089279D01*
X0176718Y0090161D02*
X0180285Y0103471D01*
X0167355Y0106935D01*
X0163789Y0093625D01*
X0176718Y0090161D01*
X0159016Y0095362D02*
X0164839Y0107851D01*
X0152707Y0113508D01*
X0146884Y0101019D01*
X0159016Y0095362D01*
X0142485Y0103559D02*
X0150389Y0114847D01*
X0139424Y0122524D01*
X0131520Y0111237D01*
X0142485Y0103559D01*
X0164829Y0122680D02*
X0177423Y0118146D01*
X0182091Y0131111D01*
X0169497Y0135645D01*
X0164829Y0122680D01*
X0159210Y0125543D02*
X0166955Y0136940D01*
X0155884Y0144464D01*
X0148138Y0133067D01*
X0159210Y0125543D01*
X0143408Y0137238D02*
X0153744Y0146350D01*
X0144892Y0156391D01*
X0134556Y0147279D01*
X0143408Y0137238D01*
X0171937Y0149478D02*
X0184304Y0144356D01*
X0189577Y0157086D01*
X0177210Y0162209D01*
X0171937Y0149478D01*
X0166343Y0153216D02*
X0176087Y0162960D01*
X0166622Y0172425D01*
X0156878Y0162681D01*
X0166343Y0153216D01*
X0190902Y0156823D02*
X0190902Y0143043D01*
X0204288Y0143043D01*
X0204288Y0156823D01*
X0190902Y0156823D01*
X0205613Y0157086D02*
X0210886Y0144356D01*
X0223253Y0149478D01*
X0217980Y0162209D01*
X0205613Y0157086D01*
X0219103Y0162960D02*
X0228847Y0153216D01*
X0238312Y0162681D01*
X0228569Y0172425D01*
X0219103Y0162960D01*
X0229319Y0173548D02*
X0242050Y0168275D01*
X0247172Y0180642D01*
X0234442Y0185915D01*
X0229319Y0173548D01*
X0217806Y0183187D02*
X0208063Y0192931D01*
X0198597Y0183466D01*
X0208341Y0173722D01*
X0217806Y0183187D01*
X0234705Y0187240D02*
X0248485Y0187240D01*
X0248485Y0200626D01*
X0234705Y0200626D01*
X0234705Y0187240D01*
X0217806Y0204679D02*
X0208063Y0194935D01*
X0198597Y0204400D01*
X0208341Y0214144D01*
X0217806Y0204679D01*
X0229319Y0214318D02*
X0242050Y0219591D01*
X0247172Y0207224D01*
X0234442Y0201951D01*
X0229319Y0214318D01*
X0228569Y0215441D02*
X0238312Y0225185D01*
X0228847Y0234650D01*
X0219103Y0224907D01*
X0228569Y0215441D01*
X0217980Y0225657D02*
X0223253Y0238388D01*
X0210886Y0243510D01*
X0205613Y0230780D01*
X0217980Y0225657D01*
X0204288Y0231043D02*
X0204288Y0244823D01*
X0190902Y0244823D01*
X0190902Y0231043D01*
X0204288Y0231043D01*
X0189577Y0230780D02*
X0184304Y0243510D01*
X0171937Y0238388D01*
X0177210Y0225657D01*
X0189577Y0230780D01*
X0176087Y0224907D02*
X0166343Y0234650D01*
X0156878Y0225185D01*
X0166622Y0215441D01*
X0176087Y0224907D01*
X0165871Y0214318D02*
X0153140Y0219591D01*
X0148018Y0207224D01*
X0160748Y0201951D01*
X0165871Y0214318D01*
X0177384Y0204679D02*
X0187128Y0194935D01*
X0196593Y0204400D01*
X0186849Y0214144D01*
X0177384Y0204679D01*
X0160485Y0200626D02*
X0146705Y0200626D01*
X0146705Y0187240D01*
X0160485Y0187240D01*
X0160485Y0200626D01*
X0160748Y0185915D02*
X0148018Y0180642D01*
X0153140Y0168275D01*
X0165871Y0173548D01*
X0160748Y0185915D01*
X0177384Y0183187D02*
X0186849Y0173722D01*
X0196593Y0183466D01*
X0187128Y0192931D01*
X0177384Y0183187D01*
X0143288Y0158751D02*
X0137211Y0170678D01*
X0124934Y0164422D01*
X0131011Y0152495D01*
X0143288Y0158751D01*
X0136245Y0173362D02*
X0122797Y0170356D01*
X0119877Y0183419D01*
X0133325Y0186425D01*
X0136245Y0173362D01*
X0133056Y0189265D02*
X0119284Y0189698D01*
X0119704Y0203077D01*
X0133477Y0202644D01*
X0133056Y0189265D01*
X0133923Y0205462D02*
X0120691Y0209306D01*
X0124425Y0222161D01*
X0137658Y0218316D01*
X0133923Y0205462D01*
X0138791Y0220934D02*
X0126930Y0227949D01*
X0133744Y0239470D01*
X0145605Y0232456D01*
X0138791Y0220934D01*
X0147353Y0234710D02*
X0137609Y0244454D01*
X0147075Y0253919D01*
X0156818Y0244175D01*
X0147353Y0234710D01*
X0159072Y0245924D02*
X0152058Y0257784D01*
X0163580Y0264598D01*
X0170594Y0252738D01*
X0159072Y0245924D01*
X0173212Y0253871D02*
X0169368Y0267103D01*
X0182222Y0270837D01*
X0186066Y0257605D01*
X0173212Y0253871D01*
X0188884Y0258051D02*
X0188451Y0271824D01*
X0201830Y0272245D01*
X0202263Y0258472D01*
X0188884Y0258051D01*
X0205103Y0258203D02*
X0208109Y0271651D01*
X0221173Y0268731D01*
X0218167Y0255283D01*
X0205103Y0258203D01*
X0220851Y0254317D02*
X0227106Y0266595D01*
X0239033Y0260518D01*
X0232777Y0248240D01*
X0220851Y0254317D01*
X0235137Y0246636D02*
X0244249Y0256973D01*
X0254290Y0248120D01*
X0245178Y0237784D01*
X0235137Y0246636D01*
X0247064Y0235644D02*
X0258461Y0243390D01*
X0265985Y0232319D01*
X0254588Y0224573D01*
X0247064Y0235644D01*
X0255883Y0222032D02*
X0268848Y0226699D01*
X0273382Y0214105D01*
X0260418Y0209437D01*
X0255883Y0222032D01*
X0261040Y0206653D02*
X0274758Y0207950D01*
X0276018Y0194623D01*
X0262300Y0193327D01*
X0261040Y0206653D01*
X0262210Y0190475D02*
X0275820Y0188320D01*
X0273726Y0175099D01*
X0260116Y0177254D01*
X0262210Y0190475D01*
X0259320Y0174515D02*
X0271966Y0169042D01*
X0266650Y0156758D01*
X0254004Y0162230D01*
X0259320Y0174515D01*
X0252552Y0159775D02*
X0263440Y0151329D01*
X0255236Y0140752D01*
X0244348Y0149198D01*
X0252552Y0159775D01*
X0242330Y0147181D02*
X0250776Y0136293D01*
X0240199Y0128088D01*
X0231754Y0138976D01*
X0242330Y0147181D01*
X0229298Y0137524D02*
X0234771Y0124878D01*
X0222486Y0119562D01*
X0217013Y0132208D01*
X0229298Y0137524D01*
X0214274Y0131412D02*
X0216429Y0117802D01*
X0203208Y0115708D01*
X0201053Y0129318D01*
X0214274Y0131412D01*
X0198202Y0129229D02*
X0196905Y0115510D01*
X0183578Y0116770D01*
X0184875Y0130488D01*
X0198202Y0129229D01*
X0377142Y0166495D02*
X0390751Y0168650D01*
X0388657Y0181872D01*
X0375048Y0179716D01*
X0377142Y0166495D01*
X0378316Y0161407D02*
X0382230Y0148606D01*
X0395407Y0152635D01*
X0391494Y0165436D01*
X0378316Y0161407D01*
X0384101Y0143732D02*
X0396589Y0149555D01*
X0402247Y0137423D01*
X0389758Y0131600D01*
X0384101Y0143732D01*
X0392290Y0127033D02*
X0403846Y0134538D01*
X0411136Y0123312D01*
X0399580Y0115807D01*
X0392290Y0127033D01*
X0402722Y0111637D02*
X0413122Y0120677D01*
X0421904Y0110575D01*
X0411504Y0101534D01*
X0402722Y0111637D01*
X0415196Y0097842D02*
X0424237Y0108242D01*
X0434339Y0099460D01*
X0425299Y0089060D01*
X0415196Y0097842D01*
X0429469Y0085918D02*
X0440695Y0078627D01*
X0448200Y0090184D01*
X0436974Y0097474D01*
X0429469Y0085918D01*
X0445262Y0076096D02*
X0457394Y0070439D01*
X0463217Y0082927D01*
X0451085Y0088584D01*
X0445262Y0076096D01*
X0462268Y0068568D02*
X0475069Y0064654D01*
X0479098Y0077831D01*
X0466297Y0081745D01*
X0462268Y0068568D01*
X0480157Y0063479D02*
X0482313Y0077089D01*
X0495534Y0074995D01*
X0493378Y0061385D01*
X0480157Y0063479D01*
X0498580Y0060930D02*
X0511963Y0060697D01*
X0512204Y0074474D01*
X0498820Y0074708D01*
X0498580Y0060930D01*
X0517178Y0060970D02*
X0530464Y0062601D01*
X0528785Y0076278D01*
X0515498Y0074647D01*
X0517178Y0060970D01*
X0535589Y0063598D02*
X0548519Y0067062D01*
X0544953Y0080372D01*
X0532023Y0076908D01*
X0535589Y0063598D01*
X0553456Y0068762D02*
X0565778Y0073992D01*
X0560394Y0086677D01*
X0548072Y0081446D01*
X0553456Y0068762D01*
X0570430Y0076363D02*
X0581904Y0083257D01*
X0574807Y0095068D01*
X0563333Y0088174D01*
X0570430Y0076363D01*
X0586181Y0086252D02*
X0596584Y0094676D01*
X0587912Y0105385D01*
X0577510Y0096961D01*
X0586181Y0086252D01*
X0600403Y0098237D02*
X0609532Y0108027D01*
X0599454Y0117424D01*
X0590325Y0107635D01*
X0600403Y0098237D01*
X0612818Y0112085D02*
X0620496Y0123050D01*
X0609208Y0130953D01*
X0601530Y0119988D01*
X0612818Y0112085D01*
X0587026Y0123967D02*
X0577283Y0133711D01*
X0567818Y0124245D01*
X0577561Y0114502D01*
X0587026Y0123967D01*
X0590291Y0127858D02*
X0597969Y0138823D01*
X0586682Y0146727D01*
X0579004Y0135762D01*
X0590291Y0127858D01*
X0610907Y0133781D02*
X0623185Y0127525D01*
X0629262Y0139452D01*
X0616984Y0145708D01*
X0610907Y0133781D01*
X0600509Y0143222D02*
X0606166Y0155354D01*
X0593677Y0161177D01*
X0588020Y0149045D01*
X0600509Y0143222D01*
X0618273Y0148745D02*
X0631302Y0144259D01*
X0635660Y0156915D01*
X0622631Y0161401D01*
X0618273Y0148745D01*
X0607903Y0160127D02*
X0611368Y0173056D01*
X0598058Y0176623D01*
X0594593Y0163693D01*
X0607903Y0160127D01*
X0623485Y0164588D02*
X0637012Y0161959D01*
X0639566Y0175099D01*
X0626039Y0177728D01*
X0623485Y0164588D01*
X0612250Y0178059D02*
X0613416Y0191393D01*
X0599689Y0192594D01*
X0598522Y0179259D01*
X0612250Y0178059D01*
X0626442Y0181002D02*
X0640202Y0180281D01*
X0640903Y0193649D01*
X0627142Y0194370D01*
X0626442Y0181002D01*
X0627084Y0197669D02*
X0640812Y0198870D01*
X0639645Y0212204D01*
X0625918Y0211003D01*
X0627084Y0197669D01*
X0613416Y0196473D02*
X0612250Y0209808D01*
X0598522Y0208607D01*
X0599689Y0195272D01*
X0613416Y0196473D01*
X0611368Y0214810D02*
X0598058Y0211243D01*
X0594593Y0224173D01*
X0607903Y0227740D01*
X0611368Y0214810D01*
X0625402Y0214262D02*
X0622391Y0227305D01*
X0635817Y0230404D01*
X0638828Y0217362D01*
X0625402Y0214262D01*
X0621426Y0230460D02*
X0634290Y0235398D01*
X0629493Y0247894D01*
X0616629Y0242956D01*
X0621426Y0230460D01*
X0606166Y0232513D02*
X0600509Y0244644D01*
X0588020Y0238821D01*
X0593677Y0226689D01*
X0606166Y0232513D01*
X0597969Y0249043D02*
X0586682Y0241139D01*
X0579004Y0252104D01*
X0590291Y0260008D01*
X0597969Y0249043D01*
X0608745Y0257654D02*
X0620797Y0264334D01*
X0627287Y0252627D01*
X0615235Y0245946D01*
X0608745Y0257654D01*
X0606948Y0260421D02*
X0617953Y0268713D01*
X0609897Y0279404D01*
X0598893Y0271111D01*
X0606948Y0260421D01*
X0587026Y0263899D02*
X0577561Y0273364D01*
X0567818Y0263621D01*
X0577283Y0254155D01*
X0587026Y0263899D01*
X0596728Y0273601D02*
X0606472Y0283344D01*
X0597007Y0292810D01*
X0587263Y0283066D01*
X0596728Y0273601D01*
X0573670Y0276629D02*
X0562705Y0284307D01*
X0554801Y0273019D01*
X0565767Y0265342D01*
X0573670Y0276629D01*
X0584773Y0285230D02*
X0593066Y0296235D01*
X0582375Y0304291D01*
X0574083Y0293286D01*
X0584773Y0285230D01*
X0571316Y0295083D02*
X0577996Y0307135D01*
X0566289Y0313625D01*
X0559608Y0301573D01*
X0571316Y0295083D01*
X0556618Y0302967D02*
X0561557Y0315831D01*
X0549060Y0320628D01*
X0544122Y0307764D01*
X0556618Y0302967D01*
X0540967Y0308729D02*
X0544066Y0322155D01*
X0531024Y0325166D01*
X0527924Y0311740D01*
X0540967Y0308729D01*
X0541402Y0294241D02*
X0528472Y0297705D01*
X0524905Y0284395D01*
X0537835Y0280931D01*
X0541402Y0294241D01*
X0546175Y0292504D02*
X0540351Y0280015D01*
X0552483Y0274358D01*
X0558306Y0286847D01*
X0546175Y0292504D01*
X0523470Y0298588D02*
X0522269Y0284860D01*
X0508934Y0286027D01*
X0510135Y0299754D01*
X0523470Y0298588D01*
X0505055Y0299754D02*
X0491721Y0298588D01*
X0492922Y0284860D01*
X0506256Y0286027D01*
X0505055Y0299754D01*
X0486718Y0297705D02*
X0473789Y0294241D01*
X0477355Y0280931D01*
X0490285Y0284395D01*
X0486718Y0297705D01*
X0478250Y0309823D02*
X0475621Y0323350D01*
X0488761Y0325904D01*
X0491390Y0312377D01*
X0478250Y0309823D01*
X0475064Y0308969D02*
X0470577Y0321998D01*
X0457921Y0317640D01*
X0462407Y0304611D01*
X0475064Y0308969D01*
X0459370Y0303322D02*
X0453114Y0315600D01*
X0441188Y0309523D01*
X0447443Y0297245D01*
X0459370Y0303322D01*
X0469016Y0292504D02*
X0456884Y0286847D01*
X0462707Y0274358D01*
X0474839Y0280015D01*
X0469016Y0292504D01*
X0452485Y0284307D02*
X0441520Y0276629D01*
X0449424Y0265342D01*
X0460389Y0273019D01*
X0452485Y0284307D01*
X0444615Y0295546D02*
X0436712Y0306834D01*
X0425747Y0299156D01*
X0433650Y0287868D01*
X0444615Y0295546D01*
X0431087Y0285792D02*
X0421689Y0295870D01*
X0411899Y0286741D01*
X0421297Y0276663D01*
X0431087Y0285792D01*
X0419047Y0274250D02*
X0408338Y0282922D01*
X0399914Y0272519D01*
X0410623Y0263848D01*
X0419047Y0274250D01*
X0428164Y0263899D02*
X0437629Y0273364D01*
X0447373Y0263621D01*
X0437908Y0254155D01*
X0428164Y0263899D01*
X0424899Y0260008D02*
X0417221Y0249043D01*
X0428509Y0241139D01*
X0436187Y0252104D01*
X0424899Y0260008D01*
X0408731Y0261145D02*
X0396919Y0268242D01*
X0390025Y0256768D01*
X0401836Y0249671D01*
X0408731Y0261145D01*
X0400339Y0246732D02*
X0387654Y0252116D01*
X0382424Y0239794D01*
X0395108Y0234410D01*
X0400339Y0246732D01*
X0414682Y0244644D02*
X0409024Y0232513D01*
X0421513Y0226689D01*
X0427170Y0238821D01*
X0414682Y0244644D01*
X0394034Y0231291D02*
X0380724Y0234857D01*
X0377260Y0221927D01*
X0390570Y0218361D01*
X0394034Y0231291D01*
X0407287Y0227740D02*
X0403823Y0214810D01*
X0417133Y0211243D01*
X0420597Y0224173D01*
X0407287Y0227740D01*
X0389940Y0215122D02*
X0376263Y0216802D01*
X0374632Y0203516D01*
X0388309Y0201836D01*
X0389940Y0215122D01*
X0402941Y0209808D02*
X0401774Y0196473D01*
X0415501Y0195272D01*
X0416668Y0208607D01*
X0402941Y0209808D01*
X0388136Y0198542D02*
X0374359Y0198301D01*
X0374592Y0184918D01*
X0388370Y0185158D01*
X0388136Y0198542D01*
X0401774Y0191393D02*
X0402941Y0178059D01*
X0416668Y0179259D01*
X0415501Y0192594D01*
X0401774Y0191393D01*
X0403823Y0173056D02*
X0417133Y0176623D01*
X0420597Y0163693D01*
X0407287Y0160127D01*
X0403823Y0173056D01*
X0409024Y0155354D02*
X0421513Y0161177D01*
X0427170Y0149045D01*
X0414682Y0143222D01*
X0409024Y0155354D01*
X0417221Y0138823D02*
X0428509Y0146727D01*
X0436187Y0135762D01*
X0424899Y0127858D01*
X0417221Y0138823D01*
X0428164Y0123967D02*
X0437908Y0133711D01*
X0447373Y0124245D01*
X0437629Y0114502D01*
X0428164Y0123967D01*
X0441520Y0111237D02*
X0449424Y0122524D01*
X0460389Y0114847D01*
X0452485Y0103559D01*
X0441520Y0111237D01*
X0456884Y0101019D02*
X0469016Y0095362D01*
X0474839Y0107851D01*
X0462707Y0113508D01*
X0456884Y0101019D01*
X0473789Y0093625D02*
X0486718Y0090161D01*
X0490285Y0103471D01*
X0477355Y0106935D01*
X0473789Y0093625D01*
X0491721Y0089279D02*
X0505055Y0088112D01*
X0506256Y0101839D01*
X0492922Y0103006D01*
X0491721Y0089279D01*
X0510135Y0088112D02*
X0508934Y0101839D01*
X0522269Y0103006D01*
X0523470Y0089279D01*
X0510135Y0088112D01*
X0528472Y0090161D02*
X0541402Y0093625D01*
X0537835Y0106935D01*
X0524905Y0103471D01*
X0528472Y0090161D01*
X0546175Y0095362D02*
X0558306Y0101019D01*
X0552483Y0113508D01*
X0540351Y0107851D01*
X0546175Y0095362D01*
X0562705Y0103559D02*
X0573670Y0111237D01*
X0565767Y0122524D01*
X0554801Y0114847D01*
X0562705Y0103559D01*
X0540361Y0122680D02*
X0527767Y0118146D01*
X0523099Y0131111D01*
X0535694Y0135645D01*
X0540361Y0122680D01*
X0545981Y0125543D02*
X0557052Y0133067D01*
X0549307Y0144464D01*
X0538235Y0136940D01*
X0545981Y0125543D01*
X0561783Y0137238D02*
X0570635Y0147279D01*
X0560299Y0156391D01*
X0551446Y0146350D01*
X0561783Y0137238D01*
X0533253Y0149478D02*
X0527980Y0162209D01*
X0515613Y0157086D01*
X0520886Y0144356D01*
X0533253Y0149478D01*
X0538847Y0153216D02*
X0548312Y0162681D01*
X0538569Y0172425D01*
X0529103Y0162960D01*
X0538847Y0153216D01*
X0561902Y0158751D02*
X0574180Y0152495D01*
X0580257Y0164422D01*
X0567979Y0170678D01*
X0561902Y0158751D01*
X0552050Y0168275D02*
X0557172Y0180642D01*
X0544442Y0185915D01*
X0539319Y0173548D01*
X0552050Y0168275D01*
X0568945Y0173362D02*
X0582393Y0170356D01*
X0585313Y0183419D01*
X0571865Y0186425D01*
X0568945Y0173362D01*
X0558485Y0187240D02*
X0544705Y0187240D01*
X0544705Y0200626D01*
X0558485Y0200626D01*
X0558485Y0187240D01*
X0572100Y0188815D02*
X0585875Y0189151D01*
X0585548Y0202533D01*
X0571773Y0202196D01*
X0572100Y0188815D01*
X0571346Y0205017D02*
X0584605Y0208769D01*
X0580960Y0221649D01*
X0567701Y0217897D01*
X0571346Y0205017D01*
X0557172Y0207224D02*
X0552050Y0219591D01*
X0539319Y0214318D01*
X0544442Y0201951D01*
X0557172Y0207224D01*
X0548312Y0225185D02*
X0538569Y0215441D01*
X0529103Y0224907D01*
X0538847Y0234650D01*
X0548312Y0225185D01*
X0559853Y0232092D02*
X0571763Y0239023D01*
X0578496Y0227454D01*
X0566587Y0220523D01*
X0559853Y0232092D01*
X0557837Y0234710D02*
X0567581Y0244454D01*
X0558116Y0253919D01*
X0548372Y0244175D01*
X0557837Y0234710D01*
X0546118Y0245924D02*
X0553132Y0257784D01*
X0541611Y0264598D01*
X0534596Y0252738D01*
X0546118Y0245924D01*
X0533253Y0238388D02*
X0520886Y0243510D01*
X0515613Y0230780D01*
X0527980Y0225657D01*
X0533253Y0238388D01*
X0514288Y0244823D02*
X0514288Y0231043D01*
X0500902Y0231043D01*
X0500902Y0244823D01*
X0514288Y0244823D01*
X0519124Y0257605D02*
X0522968Y0270837D01*
X0535823Y0267103D01*
X0531978Y0253871D01*
X0519124Y0257605D01*
X0516306Y0258051D02*
X0516739Y0271824D01*
X0503360Y0272245D01*
X0502927Y0258472D01*
X0516306Y0258051D01*
X0500087Y0258203D02*
X0497081Y0271651D01*
X0484018Y0268731D01*
X0487024Y0255283D01*
X0500087Y0258203D01*
X0484340Y0254317D02*
X0478084Y0266595D01*
X0466157Y0260518D01*
X0472413Y0248240D01*
X0484340Y0254317D01*
X0470053Y0246636D02*
X0460941Y0256973D01*
X0450900Y0248120D01*
X0460013Y0237784D01*
X0470053Y0246636D01*
X0481937Y0238388D02*
X0487210Y0225657D01*
X0499577Y0230780D01*
X0494304Y0243510D01*
X0481937Y0238388D01*
X0476343Y0234650D02*
X0466878Y0225185D01*
X0476622Y0215441D01*
X0486087Y0224907D01*
X0476343Y0234650D01*
X0458126Y0235644D02*
X0446729Y0243390D01*
X0439205Y0232319D01*
X0450602Y0224573D01*
X0458126Y0235644D01*
X0449307Y0222032D02*
X0436342Y0226699D01*
X0431808Y0214105D01*
X0444773Y0209437D01*
X0449307Y0222032D01*
X0463140Y0219591D02*
X0458018Y0207224D01*
X0470748Y0201951D01*
X0475871Y0214318D01*
X0463140Y0219591D01*
X0444150Y0206653D02*
X0430432Y0207950D01*
X0429172Y0194623D01*
X0442891Y0193327D01*
X0444150Y0206653D01*
X0456705Y0200626D02*
X0456705Y0187240D01*
X0470485Y0187240D01*
X0470485Y0200626D01*
X0456705Y0200626D01*
X0442980Y0190475D02*
X0429370Y0188320D01*
X0431464Y0175099D01*
X0445074Y0177254D01*
X0442980Y0190475D01*
X0458018Y0180642D02*
X0463140Y0168275D01*
X0475871Y0173548D01*
X0470748Y0185915D01*
X0458018Y0180642D01*
X0445870Y0174515D02*
X0433224Y0169042D01*
X0438540Y0156758D01*
X0451186Y0162230D01*
X0445870Y0174515D01*
X0466878Y0162681D02*
X0476343Y0153216D01*
X0486087Y0162960D01*
X0476622Y0172425D01*
X0466878Y0162681D01*
X0452638Y0159775D02*
X0441750Y0151329D01*
X0449955Y0140752D01*
X0460843Y0149198D01*
X0452638Y0159775D01*
X0462860Y0147181D02*
X0454414Y0136293D01*
X0464991Y0128088D01*
X0473437Y0138976D01*
X0462860Y0147181D01*
X0475892Y0137524D02*
X0470420Y0124878D01*
X0482705Y0119562D01*
X0488177Y0132208D01*
X0475892Y0137524D01*
X0490916Y0131412D02*
X0488761Y0117802D01*
X0501982Y0115708D01*
X0504137Y0129318D01*
X0490916Y0131412D01*
X0506989Y0129229D02*
X0508286Y0115510D01*
X0521612Y0116770D01*
X0520315Y0130488D01*
X0506989Y0129229D01*
X0500902Y0143043D02*
X0514288Y0143043D01*
X0514288Y0156823D01*
X0500902Y0156823D01*
X0500902Y0143043D01*
X0494304Y0144356D02*
X0499577Y0157086D01*
X0487210Y0162209D01*
X0481937Y0149478D01*
X0494304Y0144356D01*
X0496849Y0173722D02*
X0506593Y0183466D01*
X0497128Y0192931D01*
X0487384Y0183187D01*
X0496849Y0173722D01*
X0508597Y0183466D02*
X0518341Y0173722D01*
X0527806Y0183187D01*
X0518063Y0192931D01*
X0508597Y0183466D01*
X0518063Y0194935D02*
X0527806Y0204679D01*
X0518341Y0214144D01*
X0508597Y0204400D01*
X0518063Y0194935D01*
X0506593Y0204400D02*
X0496849Y0214144D01*
X0487384Y0204679D01*
X0497128Y0194935D01*
X0506593Y0204400D01*
X0494665Y0312779D02*
X0493943Y0326540D01*
X0507311Y0327241D01*
X0508032Y0313480D01*
X0494665Y0312779D01*
X0511331Y0313422D02*
X0512532Y0327150D01*
X0525866Y0325983D01*
X0524666Y0312256D01*
X0511331Y0313422D01*
X0211247Y0326540D02*
X0210526Y0312779D01*
X0197158Y0313480D01*
X0197879Y0327241D01*
X0211247Y0326540D01*
X0192659Y0327150D02*
X0179324Y0325983D01*
X0180525Y0312256D01*
X0193860Y0313422D01*
X0192659Y0327150D01*
D11*
G36*
X0202387Y0313207D02*
X0197159Y0313481D01*
X0197251Y0315249D01*
X0202479Y0314975D01*
X0202387Y0313207D01*
G37*
G36*
X0218939Y0311378D02*
X0213801Y0312377D01*
X0214139Y0314116D01*
X0219277Y0313117D01*
X0218939Y0311378D01*
G37*
G36*
X0235077Y0307265D02*
X0230128Y0308969D01*
X0230705Y0310645D01*
X0235654Y0308941D01*
X0235077Y0307265D01*
G37*
G36*
X0250485Y0300946D02*
X0245821Y0303322D01*
X0246625Y0304900D01*
X0251289Y0302524D01*
X0250485Y0300946D01*
G37*
G36*
X0264864Y0292543D02*
X0260576Y0295545D01*
X0261592Y0296997D01*
X0265880Y0293995D01*
X0264864Y0292543D01*
G37*
G36*
X0277933Y0282221D02*
X0274105Y0285791D01*
X0275313Y0287087D01*
X0279141Y0283517D01*
X0277933Y0282221D01*
G37*
G36*
X0289439Y0270181D02*
X0286144Y0274249D01*
X0287521Y0275365D01*
X0290816Y0271297D01*
X0289439Y0270181D01*
G37*
G36*
X0299155Y0256657D02*
X0296460Y0261144D01*
X0297979Y0262057D01*
X0300674Y0257570D01*
X0299155Y0256657D01*
G37*
G36*
X0306897Y0241912D02*
X0304852Y0246731D01*
X0306483Y0247424D01*
X0308528Y0242605D01*
X0306897Y0241912D01*
G37*
G36*
X0312511Y0226233D02*
X0311156Y0231290D01*
X0312867Y0231749D01*
X0314222Y0226692D01*
X0312511Y0226233D01*
G37*
G36*
X0315888Y0209926D02*
X0315250Y0215122D01*
X0317008Y0215338D01*
X0317646Y0210142D01*
X0315888Y0209926D01*
G37*
G36*
X0316963Y0193307D02*
X0317054Y0198542D01*
X0318825Y0198511D01*
X0318734Y0193276D01*
X0316963Y0193307D01*
G37*
G36*
X0315714Y0176700D02*
X0316533Y0181871D01*
X0318282Y0181594D01*
X0317463Y0176423D01*
X0315714Y0176700D01*
G37*
G36*
X0312166Y0160429D02*
X0313697Y0165435D01*
X0315390Y0164917D01*
X0313859Y0159911D01*
X0312166Y0160429D01*
G37*
G36*
X0306388Y0144810D02*
X0308600Y0149555D01*
X0310206Y0148806D01*
X0307994Y0144061D01*
X0306388Y0144810D01*
G37*
G36*
X0298493Y0130147D02*
X0301343Y0134538D01*
X0302829Y0133573D01*
X0299979Y0129182D01*
X0298493Y0130147D01*
G37*
G36*
X0288633Y0116726D02*
X0292067Y0120677D01*
X0293405Y0119514D01*
X0289971Y0115563D01*
X0288633Y0116726D01*
G37*
G36*
X0277002Y0104808D02*
X0280953Y0108242D01*
X0282116Y0106904D01*
X0278165Y0103470D01*
X0277002Y0104808D01*
G37*
G36*
X0263825Y0094624D02*
X0268216Y0097474D01*
X0269181Y0095988D01*
X0264790Y0093138D01*
X0263825Y0094624D01*
G37*
G36*
X0249359Y0086372D02*
X0254104Y0088584D01*
X0254853Y0086978D01*
X0250108Y0084766D01*
X0249359Y0086372D01*
G37*
G36*
X0233886Y0080214D02*
X0238892Y0081745D01*
X0239410Y0080052D01*
X0234404Y0078521D01*
X0233886Y0080214D01*
G37*
G36*
X0217706Y0076270D02*
X0222877Y0077089D01*
X0223154Y0075340D01*
X0217983Y0074521D01*
X0217706Y0076270D01*
G37*
G36*
X0201135Y0074616D02*
X0206370Y0074707D01*
X0206401Y0072936D01*
X0201166Y0072845D01*
X0201135Y0074616D01*
G37*
G36*
X0184495Y0075285D02*
X0189691Y0074647D01*
X0189475Y0072889D01*
X0184279Y0073527D01*
X0184495Y0075285D01*
G37*
G36*
X0168110Y0078263D02*
X0173167Y0076908D01*
X0172708Y0075197D01*
X0167651Y0076552D01*
X0168110Y0078263D01*
G37*
G36*
X0152299Y0083492D02*
X0157118Y0081447D01*
X0156425Y0079816D01*
X0151606Y0081861D01*
X0152299Y0083492D01*
G37*
G36*
X0137370Y0090870D02*
X0141857Y0088175D01*
X0140944Y0086656D01*
X0136457Y0089351D01*
X0137370Y0090870D01*
G37*
G36*
X0123613Y0100256D02*
X0127681Y0096961D01*
X0126565Y0095584D01*
X0122497Y0098879D01*
X0123613Y0100256D01*
G37*
G36*
X0111295Y0111463D02*
X0114865Y0107635D01*
X0113569Y0106427D01*
X0109999Y0110255D01*
X0111295Y0111463D01*
G37*
G36*
X0100658Y0124277D02*
X0103660Y0119989D01*
X0102208Y0118973D01*
X0099206Y0123261D01*
X0100658Y0124277D01*
G37*
G36*
X0091906Y0138446D02*
X0094282Y0133782D01*
X0092704Y0132978D01*
X0090328Y0137642D01*
X0091906Y0138446D01*
G37*
G36*
X0085213Y0153695D02*
X0086917Y0148746D01*
X0085241Y0148169D01*
X0083537Y0153118D01*
X0085213Y0153695D01*
G37*
G36*
X0080706Y0169727D02*
X0081705Y0164589D01*
X0079966Y0164251D01*
X0078967Y0169389D01*
X0080706Y0169727D01*
G37*
G36*
X0078474Y0186231D02*
X0078748Y0181003D01*
X0076980Y0180911D01*
X0076706Y0186139D01*
X0078474Y0186231D01*
G37*
G36*
X0078562Y0202884D02*
X0078106Y0197669D01*
X0076342Y0197824D01*
X0076798Y0203039D01*
X0078562Y0202884D01*
G37*
G36*
X0080966Y0219363D02*
X0079788Y0214262D01*
X0078062Y0214661D01*
X0079240Y0219762D01*
X0080966Y0219363D01*
G37*
G36*
X0085640Y0235347D02*
X0083764Y0230460D01*
X0082110Y0231095D01*
X0083986Y0235982D01*
X0085640Y0235347D01*
G37*
G36*
X0092494Y0250526D02*
X0089956Y0245947D01*
X0088406Y0246806D01*
X0090944Y0251385D01*
X0092494Y0250526D01*
G37*
G36*
X0101393Y0264602D02*
X0098243Y0260421D01*
X0096827Y0261488D01*
X0099977Y0265669D01*
X0101393Y0264602D01*
G37*
G36*
X0112164Y0277303D02*
X0108463Y0273602D01*
X0107210Y0274855D01*
X0110911Y0278556D01*
X0112164Y0277303D01*
G37*
G36*
X0124599Y0288381D02*
X0120418Y0285231D01*
X0119351Y0286647D01*
X0123532Y0289797D01*
X0124599Y0288381D01*
G37*
G36*
X0138454Y0297621D02*
X0133875Y0295083D01*
X0133016Y0296633D01*
X0137595Y0299171D01*
X0138454Y0297621D01*
G37*
G36*
X0153460Y0304843D02*
X0148573Y0302967D01*
X0147938Y0304621D01*
X0152825Y0306497D01*
X0153460Y0304843D01*
G37*
G36*
X0169325Y0309907D02*
X0164224Y0308729D01*
X0163825Y0310455D01*
X0168926Y0311633D01*
X0169325Y0309907D01*
G37*
G36*
X0185741Y0312712D02*
X0180526Y0312256D01*
X0180371Y0314020D01*
X0185586Y0314476D01*
X0185741Y0312712D01*
G37*
G36*
X0188137Y0285317D02*
X0182922Y0284861D01*
X0182767Y0286625D01*
X0187982Y0287081D01*
X0188137Y0285317D01*
G37*
G36*
X0204149Y0285571D02*
X0198934Y0286027D01*
X0199089Y0287791D01*
X0204304Y0287335D01*
X0204149Y0285571D01*
G37*
G36*
X0219963Y0283041D02*
X0214906Y0284396D01*
X0215365Y0286107D01*
X0220422Y0284752D01*
X0219963Y0283041D01*
G37*
G36*
X0235096Y0277803D02*
X0230351Y0280015D01*
X0231100Y0281621D01*
X0235845Y0279409D01*
X0235096Y0277803D01*
G37*
G36*
X0249090Y0270016D02*
X0244802Y0273018D01*
X0245818Y0274470D01*
X0250106Y0271468D01*
X0249090Y0270016D01*
G37*
G36*
X0261519Y0259919D02*
X0257818Y0263620D01*
X0259071Y0264873D01*
X0262772Y0261172D01*
X0261519Y0259919D01*
G37*
G36*
X0272006Y0247816D02*
X0269004Y0252104D01*
X0270456Y0253120D01*
X0273458Y0248832D01*
X0272006Y0247816D01*
G37*
G36*
X0280233Y0234075D02*
X0278021Y0238820D01*
X0279627Y0239569D01*
X0281839Y0234824D01*
X0280233Y0234075D01*
G37*
G36*
X0285948Y0219115D02*
X0284593Y0224172D01*
X0286304Y0224631D01*
X0287659Y0219574D01*
X0285948Y0219115D01*
G37*
G36*
X0288979Y0203391D02*
X0288523Y0208606D01*
X0290287Y0208761D01*
X0290743Y0203546D01*
X0288979Y0203391D01*
G37*
G36*
X0289233Y0187379D02*
X0289689Y0192594D01*
X0291453Y0192439D01*
X0290997Y0187224D01*
X0289233Y0187379D01*
G37*
G36*
X0286703Y0171566D02*
X0288058Y0176623D01*
X0289769Y0176164D01*
X0288414Y0171107D01*
X0286703Y0171566D01*
G37*
G36*
X0281465Y0156432D02*
X0283677Y0161177D01*
X0285283Y0160428D01*
X0283071Y0155683D01*
X0281465Y0156432D01*
G37*
G36*
X0273678Y0142438D02*
X0276680Y0146726D01*
X0278132Y0145710D01*
X0275130Y0141422D01*
X0273678Y0142438D01*
G37*
G36*
X0263581Y0130009D02*
X0267282Y0133710D01*
X0268535Y0132457D01*
X0264834Y0128756D01*
X0263581Y0130009D01*
G37*
G36*
X0251478Y0119522D02*
X0255766Y0122524D01*
X0256782Y0121072D01*
X0252494Y0118070D01*
X0251478Y0119522D01*
G37*
G36*
X0237737Y0111296D02*
X0242482Y0113508D01*
X0243231Y0111902D01*
X0238486Y0109690D01*
X0237737Y0111296D01*
G37*
G36*
X0222778Y0105580D02*
X0227835Y0106935D01*
X0228294Y0105224D01*
X0223237Y0103869D01*
X0222778Y0105580D01*
G37*
G36*
X0207053Y0102549D02*
X0212268Y0103005D01*
X0212423Y0101241D01*
X0207208Y0100785D01*
X0207053Y0102549D01*
G37*
G36*
X0191041Y0102295D02*
X0196256Y0101839D01*
X0196101Y0100075D01*
X0190886Y0100531D01*
X0191041Y0102295D01*
G37*
G36*
X0175228Y0104826D02*
X0180285Y0103471D01*
X0179826Y0101760D01*
X0174769Y0103115D01*
X0175228Y0104826D01*
G37*
G36*
X0160094Y0110064D02*
X0164839Y0107852D01*
X0164090Y0106246D01*
X0159345Y0108458D01*
X0160094Y0110064D01*
G37*
G36*
X0146100Y0117850D02*
X0150388Y0114848D01*
X0149372Y0113396D01*
X0145084Y0116398D01*
X0146100Y0117850D01*
G37*
G36*
X0133671Y0127947D02*
X0137372Y0124246D01*
X0136119Y0122993D01*
X0132418Y0126694D01*
X0133671Y0127947D01*
G37*
G36*
X0123184Y0140050D02*
X0126186Y0135762D01*
X0124734Y0134746D01*
X0121732Y0139034D01*
X0123184Y0140050D01*
G37*
G36*
X0114958Y0153791D02*
X0117170Y0149046D01*
X0115564Y0148297D01*
X0113352Y0153042D01*
X0114958Y0153791D01*
G37*
G36*
X0109242Y0168751D02*
X0110597Y0163694D01*
X0108886Y0163235D01*
X0107531Y0168292D01*
X0109242Y0168751D01*
G37*
G36*
X0106211Y0184475D02*
X0106667Y0179260D01*
X0104903Y0179105D01*
X0104447Y0184320D01*
X0106211Y0184475D01*
G37*
G36*
X0105957Y0200487D02*
X0105501Y0195272D01*
X0103737Y0195427D01*
X0104193Y0200642D01*
X0105957Y0200487D01*
G37*
G36*
X0108488Y0216301D02*
X0107133Y0211244D01*
X0105422Y0211703D01*
X0106777Y0216760D01*
X0108488Y0216301D01*
G37*
G36*
X0113726Y0231434D02*
X0111514Y0226689D01*
X0109908Y0227438D01*
X0112120Y0232183D01*
X0113726Y0231434D01*
G37*
G36*
X0121512Y0245428D02*
X0118510Y0241140D01*
X0117058Y0242156D01*
X0120060Y0246444D01*
X0121512Y0245428D01*
G37*
G36*
X0131609Y0257857D02*
X0127908Y0254156D01*
X0126655Y0255409D01*
X0130356Y0259110D01*
X0131609Y0257857D01*
G37*
G36*
X0143712Y0268344D02*
X0139424Y0265342D01*
X0138408Y0266794D01*
X0142696Y0269796D01*
X0143712Y0268344D01*
G37*
G36*
X0157453Y0276570D02*
X0152708Y0274358D01*
X0151959Y0275964D01*
X0156704Y0278176D01*
X0157453Y0276570D01*
G37*
G36*
X0172413Y0282286D02*
X0167356Y0280931D01*
X0166897Y0282642D01*
X0171954Y0283997D01*
X0172413Y0282286D01*
G37*
G36*
X0194117Y0258216D02*
X0188885Y0258052D01*
X0188829Y0259822D01*
X0194061Y0259986D01*
X0194117Y0258216D01*
G37*
G36*
X0210212Y0257062D02*
X0205103Y0258204D01*
X0205490Y0259932D01*
X0210599Y0258790D01*
X0210212Y0257062D01*
G37*
G36*
X0225516Y0251941D02*
X0220852Y0254317D01*
X0221656Y0255895D01*
X0226320Y0253519D01*
X0225516Y0251941D01*
G37*
G36*
X0239064Y0243175D02*
X0235138Y0246636D01*
X0236310Y0247965D01*
X0240236Y0244504D01*
X0239064Y0243175D01*
G37*
G36*
X0250007Y0231314D02*
X0247065Y0235644D01*
X0248531Y0236640D01*
X0251473Y0232310D01*
X0250007Y0231314D01*
G37*
G36*
X0257657Y0217105D02*
X0255884Y0222031D01*
X0257551Y0222631D01*
X0259324Y0217705D01*
X0257657Y0217105D01*
G37*
G36*
X0261533Y0201441D02*
X0261040Y0206653D01*
X0262803Y0206819D01*
X0263296Y0201607D01*
X0261533Y0201441D01*
G37*
G36*
X0261391Y0185304D02*
X0262210Y0190475D01*
X0263959Y0190198D01*
X0263140Y0185027D01*
X0261391Y0185304D01*
G37*
G36*
X0232438Y0181078D02*
X0234441Y0185914D01*
X0236078Y0185236D01*
X0234075Y0180400D01*
X0232438Y0181078D01*
G37*
G36*
X0224867Y0168723D02*
X0228568Y0172424D01*
X0229821Y0171171D01*
X0226120Y0167470D01*
X0224867Y0168723D01*
G37*
G36*
X0213143Y0160206D02*
X0217979Y0162209D01*
X0218657Y0160572D01*
X0213821Y0158569D01*
X0213143Y0160206D01*
G37*
X0201670Y0155937D03*
G36*
X0184740Y0159090D02*
X0189576Y0157087D01*
X0188898Y0155450D01*
X0184062Y0157453D01*
X0184740Y0159090D01*
G37*
G36*
X0172385Y0166661D02*
X0176086Y0162960D01*
X0174833Y0161707D01*
X0171132Y0165408D01*
X0172385Y0166661D01*
G37*
G36*
X0163868Y0178385D02*
X0165871Y0173549D01*
X0164234Y0172871D01*
X0162231Y0177707D01*
X0163868Y0178385D01*
G37*
G36*
X0135102Y0178471D02*
X0136244Y0173362D01*
X0134516Y0172975D01*
X0133374Y0178084D01*
X0135102Y0178471D01*
G37*
G36*
X0133220Y0194498D02*
X0133056Y0189266D01*
X0131286Y0189322D01*
X0131450Y0194554D01*
X0133220Y0194498D01*
G37*
G36*
X0162752Y0206788D02*
X0160749Y0201952D01*
X0159112Y0202630D01*
X0161115Y0207466D01*
X0162752Y0206788D01*
G37*
G36*
X0170324Y0219143D02*
X0166623Y0215442D01*
X0165370Y0216695D01*
X0169071Y0220396D01*
X0170324Y0219143D01*
G37*
G36*
X0182047Y0227660D02*
X0177211Y0225657D01*
X0176533Y0227294D01*
X0181369Y0229297D01*
X0182047Y0227660D01*
G37*
X0193520Y0231929D03*
G36*
X0210450Y0228776D02*
X0205614Y0230779D01*
X0206292Y0232416D01*
X0211128Y0230413D01*
X0210450Y0228776D01*
G37*
G36*
X0222805Y0221205D02*
X0219104Y0224906D01*
X0220357Y0226159D01*
X0224058Y0222458D01*
X0222805Y0221205D01*
G37*
G36*
X0231323Y0209481D02*
X0229320Y0214317D01*
X0230957Y0214995D01*
X0232960Y0210159D01*
X0231323Y0209481D01*
G37*
G36*
X0202299Y0200699D02*
X0198598Y0204400D01*
X0199851Y0205653D01*
X0203552Y0201952D01*
X0202299Y0200699D01*
G37*
G36*
X0190830Y0198637D02*
X0187129Y0194936D01*
X0185876Y0196189D01*
X0189577Y0199890D01*
X0190830Y0198637D01*
G37*
G36*
X0204361Y0189229D02*
X0208062Y0192930D01*
X0209315Y0191677D01*
X0205614Y0187976D01*
X0204361Y0189229D01*
G37*
G36*
X0192891Y0187168D02*
X0196592Y0183467D01*
X0195339Y0182214D01*
X0191638Y0185915D01*
X0192891Y0187168D01*
G37*
G36*
X0140911Y0163415D02*
X0143287Y0158751D01*
X0141709Y0157947D01*
X0139333Y0162611D01*
X0140911Y0163415D01*
G37*
G36*
X0150282Y0150278D02*
X0153743Y0146352D01*
X0152414Y0145180D01*
X0148953Y0149106D01*
X0150282Y0150278D01*
G37*
G36*
X0162625Y0139883D02*
X0166955Y0136941D01*
X0165959Y0135475D01*
X0161629Y0138417D01*
X0162625Y0139883D01*
G37*
G36*
X0177165Y0132884D02*
X0182091Y0131111D01*
X0181491Y0129444D01*
X0176565Y0131217D01*
X0177165Y0132884D01*
G37*
G36*
X0192989Y0129721D02*
X0198201Y0129228D01*
X0198035Y0127465D01*
X0192823Y0127958D01*
X0192989Y0129721D01*
G37*
G36*
X0209103Y0130593D02*
X0214274Y0131412D01*
X0214551Y0129663D01*
X0209380Y0128844D01*
X0209103Y0130593D01*
G37*
G36*
X0224493Y0135445D02*
X0229297Y0137523D01*
X0230001Y0135897D01*
X0225197Y0133819D01*
X0224493Y0135445D01*
G37*
G36*
X0238194Y0143972D02*
X0242330Y0147180D01*
X0243416Y0145780D01*
X0239280Y0142572D01*
X0238194Y0143972D01*
G37*
G36*
X0249343Y0155638D02*
X0252551Y0159774D01*
X0253951Y0158688D01*
X0250743Y0154552D01*
X0249343Y0155638D01*
G37*
G36*
X0257241Y0169710D02*
X0259319Y0174514D01*
X0260945Y0173810D01*
X0258867Y0169006D01*
X0257241Y0169710D01*
G37*
G36*
X0135384Y0210489D02*
X0133923Y0205462D01*
X0132222Y0205957D01*
X0133683Y0210984D01*
X0135384Y0210489D01*
G37*
G36*
X0141456Y0225441D02*
X0138791Y0220935D01*
X0137266Y0221837D01*
X0139931Y0226343D01*
X0141456Y0225441D01*
G37*
G36*
X0151055Y0238412D02*
X0147354Y0234711D01*
X0146101Y0235964D01*
X0149802Y0239665D01*
X0151055Y0238412D01*
G37*
G36*
X0163579Y0248589D02*
X0159073Y0245924D01*
X0158171Y0247449D01*
X0162677Y0250114D01*
X0163579Y0248589D01*
G37*
G36*
X0178240Y0255332D02*
X0173213Y0253871D01*
X0172718Y0255572D01*
X0177745Y0257033D01*
X0178240Y0255332D01*
G37*
G36*
X0391925Y0223418D02*
X0390570Y0218361D01*
X0388859Y0218820D01*
X0390214Y0223877D01*
X0391925Y0223418D01*
G37*
G36*
X0397154Y0239229D02*
X0395109Y0234410D01*
X0393478Y0235103D01*
X0395523Y0239922D01*
X0397154Y0239229D01*
G37*
G36*
X0404532Y0254159D02*
X0401837Y0249672D01*
X0400318Y0250585D01*
X0403013Y0255072D01*
X0404532Y0254159D01*
G37*
G36*
X0413918Y0267916D02*
X0410623Y0263848D01*
X0409246Y0264964D01*
X0412541Y0269032D01*
X0413918Y0267916D01*
G37*
G36*
X0425125Y0280233D02*
X0421297Y0276663D01*
X0420089Y0277959D01*
X0423917Y0281529D01*
X0425125Y0280233D01*
G37*
G36*
X0437939Y0290871D02*
X0433651Y0287869D01*
X0432635Y0289321D01*
X0436923Y0292323D01*
X0437939Y0290871D01*
G37*
G36*
X0452108Y0299622D02*
X0447444Y0297246D01*
X0446640Y0298824D01*
X0451304Y0301200D01*
X0452108Y0299622D01*
G37*
G36*
X0467357Y0306315D02*
X0462408Y0304611D01*
X0461831Y0306287D01*
X0466780Y0307991D01*
X0467357Y0306315D01*
G37*
G36*
X0483389Y0310822D02*
X0478251Y0309823D01*
X0477913Y0311562D01*
X0483051Y0312561D01*
X0483389Y0310822D01*
G37*
G36*
X0499893Y0313054D02*
X0494665Y0312780D01*
X0494573Y0314548D01*
X0499801Y0314822D01*
X0499893Y0313054D01*
G37*
G36*
X0516546Y0312967D02*
X0511331Y0313423D01*
X0511486Y0315187D01*
X0516701Y0314731D01*
X0516546Y0312967D01*
G37*
G36*
X0533025Y0310562D02*
X0527924Y0311740D01*
X0528323Y0313466D01*
X0533424Y0312288D01*
X0533025Y0310562D01*
G37*
G36*
X0549009Y0305888D02*
X0544122Y0307764D01*
X0544757Y0309418D01*
X0549644Y0307542D01*
X0549009Y0305888D01*
G37*
G36*
X0564188Y0299034D02*
X0559609Y0301572D01*
X0560468Y0303122D01*
X0565047Y0300584D01*
X0564188Y0299034D01*
G37*
G36*
X0578264Y0290135D02*
X0574083Y0293285D01*
X0575150Y0294701D01*
X0579331Y0291551D01*
X0578264Y0290135D01*
G37*
G36*
X0590965Y0279364D02*
X0587264Y0283065D01*
X0588517Y0284318D01*
X0592218Y0280617D01*
X0590965Y0279364D01*
G37*
G36*
X0602043Y0266929D02*
X0598893Y0271110D01*
X0600309Y0272177D01*
X0603459Y0267996D01*
X0602043Y0266929D01*
G37*
G36*
X0611283Y0253074D02*
X0608745Y0257653D01*
X0610295Y0258512D01*
X0612833Y0253933D01*
X0611283Y0253074D01*
G37*
G36*
X0618505Y0238069D02*
X0616629Y0242956D01*
X0618283Y0243591D01*
X0620159Y0238704D01*
X0618505Y0238069D01*
G37*
G36*
X0623569Y0222203D02*
X0622391Y0227304D01*
X0624117Y0227703D01*
X0625295Y0222602D01*
X0623569Y0222203D01*
G37*
G36*
X0626374Y0205787D02*
X0625918Y0211002D01*
X0627682Y0211157D01*
X0628138Y0205942D01*
X0626374Y0205787D01*
G37*
G36*
X0626869Y0189141D02*
X0627143Y0194369D01*
X0628911Y0194277D01*
X0628637Y0189049D01*
X0626869Y0189141D01*
G37*
G36*
X0599233Y0187379D02*
X0599689Y0192594D01*
X0601453Y0192439D01*
X0600997Y0187224D01*
X0599233Y0187379D01*
G37*
G36*
X0596703Y0171566D02*
X0598058Y0176623D01*
X0599769Y0176164D01*
X0598414Y0171107D01*
X0596703Y0171566D01*
G37*
G36*
X0591465Y0156432D02*
X0593677Y0161177D01*
X0595283Y0160428D01*
X0593071Y0155683D01*
X0591465Y0156432D01*
G37*
G36*
X0565603Y0166013D02*
X0567979Y0170677D01*
X0569557Y0169873D01*
X0567181Y0165209D01*
X0565603Y0166013D01*
G37*
G36*
X0556837Y0152465D02*
X0560298Y0156391D01*
X0561627Y0155219D01*
X0558166Y0151293D01*
X0556837Y0152465D01*
G37*
G36*
X0544976Y0141522D02*
X0549306Y0144464D01*
X0550302Y0142998D01*
X0545972Y0140056D01*
X0544976Y0141522D01*
G37*
G36*
X0530767Y0133872D02*
X0535693Y0135645D01*
X0536293Y0133978D01*
X0531367Y0132205D01*
X0530767Y0133872D01*
G37*
G36*
X0515103Y0129995D02*
X0520315Y0130488D01*
X0520481Y0128725D01*
X0515269Y0128232D01*
X0515103Y0129995D01*
G37*
G36*
X0498966Y0130137D02*
X0504137Y0129318D01*
X0503860Y0127569D01*
X0498689Y0128388D01*
X0498966Y0130137D01*
G37*
G36*
X0483372Y0134287D02*
X0488176Y0132209D01*
X0487472Y0130583D01*
X0482668Y0132661D01*
X0483372Y0134287D01*
G37*
G36*
X0469300Y0142185D02*
X0473436Y0138977D01*
X0472350Y0137577D01*
X0468214Y0140785D01*
X0469300Y0142185D01*
G37*
G36*
X0457634Y0153335D02*
X0460842Y0149199D01*
X0459442Y0148113D01*
X0456234Y0152249D01*
X0457634Y0153335D01*
G37*
G36*
X0449108Y0167035D02*
X0451186Y0162231D01*
X0449560Y0161527D01*
X0447482Y0166331D01*
X0449108Y0167035D01*
G37*
G36*
X0444255Y0182426D02*
X0445074Y0177255D01*
X0443325Y0176978D01*
X0442506Y0182149D01*
X0444255Y0182426D01*
G37*
G36*
X0443383Y0198540D02*
X0442890Y0193328D01*
X0441127Y0193494D01*
X0441620Y0198706D01*
X0443383Y0198540D01*
G37*
G36*
X0446546Y0214363D02*
X0444773Y0209437D01*
X0443106Y0210037D01*
X0444879Y0214963D01*
X0446546Y0214363D01*
G37*
G36*
X0472752Y0206788D02*
X0470749Y0201952D01*
X0469112Y0202630D01*
X0471115Y0207466D01*
X0472752Y0206788D01*
G37*
G36*
X0480324Y0219143D02*
X0476623Y0215442D01*
X0475370Y0216695D01*
X0479071Y0220396D01*
X0480324Y0219143D01*
G37*
G36*
X0492047Y0227660D02*
X0487211Y0225657D01*
X0486533Y0227294D01*
X0491369Y0229297D01*
X0492047Y0227660D01*
G37*
X0503520Y0231929D03*
G36*
X0520450Y0228776D02*
X0515614Y0230779D01*
X0516292Y0232416D01*
X0521128Y0230413D01*
X0520450Y0228776D01*
G37*
G36*
X0532805Y0221205D02*
X0529104Y0224906D01*
X0530357Y0226159D01*
X0534058Y0222458D01*
X0532805Y0221205D01*
G37*
G36*
X0541323Y0209481D02*
X0539320Y0214317D01*
X0540957Y0214995D01*
X0542960Y0210159D01*
X0541323Y0209481D01*
G37*
G36*
X0569128Y0212859D02*
X0567702Y0217896D01*
X0569406Y0218379D01*
X0570832Y0213342D01*
X0569128Y0212859D01*
G37*
G36*
X0571901Y0196963D02*
X0571773Y0202196D01*
X0573543Y0202239D01*
X0573671Y0197006D01*
X0571901Y0196963D01*
G37*
G36*
X0570724Y0181316D02*
X0571866Y0186425D01*
X0573594Y0186038D01*
X0572452Y0180929D01*
X0570724Y0181316D01*
G37*
G36*
X0542438Y0181078D02*
X0544441Y0185914D01*
X0546078Y0185236D01*
X0544075Y0180400D01*
X0542438Y0181078D01*
G37*
G36*
X0534867Y0168723D02*
X0538568Y0172424D01*
X0539821Y0171171D01*
X0536120Y0167470D01*
X0534867Y0168723D01*
G37*
G36*
X0523143Y0160206D02*
X0527979Y0162209D01*
X0528657Y0160572D01*
X0523821Y0158569D01*
X0523143Y0160206D01*
G37*
X0511670Y0155937D03*
G36*
X0494740Y0159090D02*
X0499576Y0157087D01*
X0498898Y0155450D01*
X0494062Y0157453D01*
X0494740Y0159090D01*
G37*
G36*
X0482385Y0166661D02*
X0486086Y0162960D01*
X0484833Y0161707D01*
X0481132Y0165408D01*
X0482385Y0166661D01*
G37*
G36*
X0473868Y0178385D02*
X0475871Y0173549D01*
X0474234Y0172871D01*
X0472231Y0177707D01*
X0473868Y0178385D01*
G37*
G36*
X0502891Y0187168D02*
X0506592Y0183467D01*
X0505339Y0182214D01*
X0501638Y0185915D01*
X0502891Y0187168D01*
G37*
G36*
X0514361Y0189229D02*
X0518062Y0192930D01*
X0519315Y0191677D01*
X0515614Y0187976D01*
X0514361Y0189229D01*
G37*
G36*
X0500830Y0198637D02*
X0497129Y0194936D01*
X0495876Y0196189D01*
X0499577Y0199890D01*
X0500830Y0198637D01*
G37*
G36*
X0512299Y0200699D02*
X0508598Y0204400D01*
X0509851Y0205653D01*
X0513552Y0201952D01*
X0512299Y0200699D01*
G37*
G36*
X0562487Y0227567D02*
X0559854Y0232091D01*
X0561385Y0232983D01*
X0564018Y0228459D01*
X0562487Y0227567D01*
G37*
G36*
X0590233Y0234075D02*
X0588021Y0238820D01*
X0589627Y0239569D01*
X0591839Y0234824D01*
X0590233Y0234075D01*
G37*
G36*
X0595948Y0219115D02*
X0594593Y0224172D01*
X0596304Y0224631D01*
X0597659Y0219574D01*
X0595948Y0219115D01*
G37*
G36*
X0598979Y0203391D02*
X0598523Y0208606D01*
X0600287Y0208761D01*
X0600743Y0203546D01*
X0598979Y0203391D01*
G37*
G36*
X0625040Y0172589D02*
X0626039Y0177727D01*
X0627778Y0177389D01*
X0626779Y0172251D01*
X0625040Y0172589D01*
G37*
G36*
X0620927Y0156452D02*
X0622631Y0161401D01*
X0624307Y0160824D01*
X0622603Y0155875D01*
X0620927Y0156452D01*
G37*
G36*
X0614608Y0141043D02*
X0616984Y0145707D01*
X0618562Y0144903D01*
X0616186Y0140239D01*
X0614608Y0141043D01*
G37*
G36*
X0606205Y0126665D02*
X0609207Y0130953D01*
X0610659Y0129937D01*
X0607657Y0125649D01*
X0606205Y0126665D01*
G37*
G36*
X0595884Y0113596D02*
X0599454Y0117424D01*
X0600750Y0116216D01*
X0597180Y0112388D01*
X0595884Y0113596D01*
G37*
G36*
X0583843Y0102090D02*
X0587911Y0105385D01*
X0589027Y0104008D01*
X0584959Y0100713D01*
X0583843Y0102090D01*
G37*
G36*
X0570319Y0092373D02*
X0574806Y0095068D01*
X0575719Y0093549D01*
X0571232Y0090854D01*
X0570319Y0092373D01*
G37*
G36*
X0555574Y0084631D02*
X0560393Y0086676D01*
X0561086Y0085045D01*
X0556267Y0083000D01*
X0555574Y0084631D01*
G37*
G36*
X0539895Y0079017D02*
X0544952Y0080372D01*
X0545411Y0078661D01*
X0540354Y0077306D01*
X0539895Y0079017D01*
G37*
G36*
X0523588Y0075640D02*
X0528784Y0076278D01*
X0529000Y0074520D01*
X0523804Y0073882D01*
X0523588Y0075640D01*
G37*
G36*
X0506969Y0074565D02*
X0512204Y0074474D01*
X0512173Y0072703D01*
X0506938Y0072794D01*
X0506969Y0074565D01*
G37*
G36*
X0490362Y0075814D02*
X0495533Y0074995D01*
X0495256Y0073246D01*
X0490085Y0074065D01*
X0490362Y0075814D01*
G37*
G36*
X0474091Y0079362D02*
X0479097Y0077831D01*
X0478579Y0076138D01*
X0473573Y0077669D01*
X0474091Y0079362D01*
G37*
G36*
X0458472Y0085140D02*
X0463217Y0082928D01*
X0462468Y0081322D01*
X0457723Y0083534D01*
X0458472Y0085140D01*
G37*
G36*
X0443809Y0093035D02*
X0448200Y0090185D01*
X0447235Y0088699D01*
X0442844Y0091549D01*
X0443809Y0093035D01*
G37*
G36*
X0430388Y0102895D02*
X0434339Y0099461D01*
X0433176Y0098123D01*
X0429225Y0101557D01*
X0430388Y0102895D01*
G37*
G36*
X0418470Y0114526D02*
X0421904Y0110575D01*
X0420566Y0109412D01*
X0417132Y0113363D01*
X0418470Y0114526D01*
G37*
G36*
X0408286Y0127703D02*
X0411136Y0123312D01*
X0409650Y0122347D01*
X0406800Y0126738D01*
X0408286Y0127703D01*
G37*
G36*
X0400034Y0142169D02*
X0402246Y0137424D01*
X0400640Y0136675D01*
X0398428Y0141420D01*
X0400034Y0142169D01*
G37*
G36*
X0393876Y0157642D02*
X0395407Y0152636D01*
X0393714Y0152118D01*
X0392183Y0157124D01*
X0393876Y0157642D01*
G37*
G36*
X0389932Y0173822D02*
X0390751Y0168651D01*
X0389002Y0168374D01*
X0388183Y0173545D01*
X0389932Y0173822D01*
G37*
G36*
X0388278Y0190393D02*
X0388369Y0185158D01*
X0386598Y0185127D01*
X0386507Y0190362D01*
X0388278Y0190393D01*
G37*
G36*
X0388947Y0207033D02*
X0388309Y0201837D01*
X0386551Y0202053D01*
X0387189Y0207249D01*
X0388947Y0207033D01*
G37*
G36*
X0415957Y0200487D02*
X0415501Y0195272D01*
X0413737Y0195427D01*
X0414193Y0200642D01*
X0415957Y0200487D01*
G37*
G36*
X0418488Y0216301D02*
X0417133Y0211244D01*
X0415422Y0211703D01*
X0416777Y0216760D01*
X0418488Y0216301D01*
G37*
G36*
X0423726Y0231434D02*
X0421514Y0226689D01*
X0419908Y0227438D01*
X0422120Y0232183D01*
X0423726Y0231434D01*
G37*
G36*
X0431512Y0245428D02*
X0428510Y0241140D01*
X0427058Y0242156D01*
X0430060Y0246444D01*
X0431512Y0245428D01*
G37*
G36*
X0441609Y0257857D02*
X0437908Y0254156D01*
X0436655Y0255409D01*
X0440356Y0259110D01*
X0441609Y0257857D01*
G37*
G36*
X0453712Y0268344D02*
X0449424Y0265342D01*
X0448408Y0266794D01*
X0452696Y0269796D01*
X0453712Y0268344D01*
G37*
G36*
X0467453Y0276570D02*
X0462708Y0274358D01*
X0461959Y0275964D01*
X0466704Y0278176D01*
X0467453Y0276570D01*
G37*
G36*
X0482413Y0282286D02*
X0477356Y0280931D01*
X0476897Y0282642D01*
X0481954Y0283997D01*
X0482413Y0282286D01*
G37*
G36*
X0498137Y0285317D02*
X0492922Y0284861D01*
X0492767Y0286625D01*
X0497982Y0287081D01*
X0498137Y0285317D01*
G37*
G36*
X0514149Y0285571D02*
X0508934Y0286027D01*
X0509089Y0287791D01*
X0514304Y0287335D01*
X0514149Y0285571D01*
G37*
G36*
X0529963Y0283041D02*
X0524906Y0284396D01*
X0525365Y0286107D01*
X0530422Y0284752D01*
X0529963Y0283041D01*
G37*
G36*
X0545096Y0277803D02*
X0540351Y0280015D01*
X0541100Y0281621D01*
X0545845Y0279409D01*
X0545096Y0277803D01*
G37*
G36*
X0559090Y0270016D02*
X0554802Y0273018D01*
X0555818Y0274470D01*
X0560106Y0271468D01*
X0559090Y0270016D01*
G37*
G36*
X0571519Y0259919D02*
X0567818Y0263620D01*
X0569071Y0264873D01*
X0572772Y0261172D01*
X0571519Y0259919D01*
G37*
G36*
X0582006Y0247816D02*
X0579004Y0252104D01*
X0580456Y0253120D01*
X0583458Y0248832D01*
X0582006Y0247816D01*
G37*
G36*
X0552074Y0240473D02*
X0548373Y0244174D01*
X0549626Y0245427D01*
X0553327Y0241726D01*
X0552074Y0240473D01*
G37*
G36*
X0539103Y0250072D02*
X0534597Y0252737D01*
X0535499Y0254262D01*
X0540005Y0251597D01*
X0539103Y0250072D01*
G37*
G36*
X0524151Y0256144D02*
X0519124Y0257605D01*
X0519619Y0259306D01*
X0524646Y0257845D01*
X0524151Y0256144D01*
G37*
G36*
X0508160Y0258308D02*
X0502928Y0258472D01*
X0502984Y0260242D01*
X0508216Y0260078D01*
X0508160Y0258308D01*
G37*
G36*
X0492133Y0256426D02*
X0487024Y0255284D01*
X0486637Y0257012D01*
X0491746Y0258154D01*
X0492133Y0256426D01*
G37*
G36*
X0477077Y0250617D02*
X0472413Y0248241D01*
X0471609Y0249819D01*
X0476273Y0252195D01*
X0477077Y0250617D01*
G37*
G36*
X0463940Y0241246D02*
X0460014Y0237785D01*
X0458842Y0239114D01*
X0462768Y0242575D01*
X0463940Y0241246D01*
G37*
G36*
X0453545Y0228904D02*
X0450603Y0224574D01*
X0449137Y0225570D01*
X0452079Y0229900D01*
X0453545Y0228904D01*
G37*
G36*
X0416211Y0184475D02*
X0416667Y0179260D01*
X0414903Y0179105D01*
X0414447Y0184320D01*
X0416211Y0184475D01*
G37*
G36*
X0419242Y0168751D02*
X0420597Y0163694D01*
X0418886Y0163235D01*
X0417531Y0168292D01*
X0419242Y0168751D01*
G37*
G36*
X0424958Y0153791D02*
X0427170Y0149046D01*
X0425564Y0148297D01*
X0423352Y0153042D01*
X0424958Y0153791D01*
G37*
G36*
X0433184Y0140050D02*
X0436186Y0135762D01*
X0434734Y0134746D01*
X0431732Y0139034D01*
X0433184Y0140050D01*
G37*
G36*
X0443671Y0127947D02*
X0447372Y0124246D01*
X0446119Y0122993D01*
X0442418Y0126694D01*
X0443671Y0127947D01*
G37*
G36*
X0456100Y0117850D02*
X0460388Y0114848D01*
X0459372Y0113396D01*
X0455084Y0116398D01*
X0456100Y0117850D01*
G37*
G36*
X0470094Y0110064D02*
X0474839Y0107852D01*
X0474090Y0106246D01*
X0469345Y0108458D01*
X0470094Y0110064D01*
G37*
G36*
X0485228Y0104826D02*
X0490285Y0103471D01*
X0489826Y0101760D01*
X0484769Y0103115D01*
X0485228Y0104826D01*
G37*
G36*
X0501041Y0102295D02*
X0506256Y0101839D01*
X0506101Y0100075D01*
X0500886Y0100531D01*
X0501041Y0102295D01*
G37*
G36*
X0517053Y0102549D02*
X0522268Y0103005D01*
X0522423Y0101241D01*
X0517208Y0100785D01*
X0517053Y0102549D01*
G37*
G36*
X0532778Y0105580D02*
X0537835Y0106935D01*
X0538294Y0105224D01*
X0533237Y0103869D01*
X0532778Y0105580D01*
G37*
G36*
X0547737Y0111296D02*
X0552482Y0113508D01*
X0553231Y0111902D01*
X0548486Y0109690D01*
X0547737Y0111296D01*
G37*
G36*
X0561478Y0119522D02*
X0565766Y0122524D01*
X0566782Y0121072D01*
X0562494Y0118070D01*
X0561478Y0119522D01*
G37*
G36*
X0573581Y0130009D02*
X0577282Y0133710D01*
X0578535Y0132457D01*
X0574834Y0128756D01*
X0573581Y0130009D01*
G37*
G36*
X0583678Y0142438D02*
X0586680Y0146726D01*
X0588132Y0145710D01*
X0585130Y0141422D01*
X0583678Y0142438D01*
G37*
D12*
X0545591Y0198008D03*
X0469599Y0189858D03*
X0235591Y0198008D03*
X0159599Y0189858D03*
M02*
