G75*
%MOIN*%
%OFA0B0*%
%FSLAX25Y25*%
%IPPOS*%
%LPD*%
%AMOC8*
5,1,8,0,0,1.08239X$1,22.5*
%
%ADD10C,0.01000*%
%ADD11C,0.01575*%
D10*
X0064721Y0257122D02*
X0071217Y0257122D01*
X0071217Y0260075D01*
X0054485Y0263028D02*
X0054485Y0274839D01*
X0064721Y0280744D02*
X0071217Y0280744D01*
X0071217Y0277791D01*
X0633973Y0277791D02*
X0633973Y0280744D01*
X0640469Y0280744D01*
X0650705Y0274839D02*
X0650705Y0263028D01*
X0640469Y0257122D02*
X0633973Y0257122D01*
X0633973Y0260075D01*
D11*
X0630857Y0278776D02*
X0630859Y0278823D01*
X0630865Y0278869D01*
X0630874Y0278915D01*
X0630888Y0278959D01*
X0630905Y0279003D01*
X0630926Y0279044D01*
X0630950Y0279084D01*
X0630977Y0279122D01*
X0631008Y0279157D01*
X0631041Y0279190D01*
X0631077Y0279220D01*
X0631116Y0279246D01*
X0631156Y0279270D01*
X0631198Y0279289D01*
X0631242Y0279306D01*
X0631287Y0279318D01*
X0631333Y0279327D01*
X0631379Y0279332D01*
X0631426Y0279333D01*
X0631472Y0279330D01*
X0631518Y0279323D01*
X0631564Y0279312D01*
X0631608Y0279298D01*
X0631651Y0279280D01*
X0631692Y0279258D01*
X0631732Y0279233D01*
X0631769Y0279205D01*
X0631804Y0279174D01*
X0631836Y0279140D01*
X0631865Y0279103D01*
X0631890Y0279065D01*
X0631913Y0279024D01*
X0631932Y0278981D01*
X0631947Y0278937D01*
X0631959Y0278892D01*
X0631967Y0278846D01*
X0631971Y0278799D01*
X0631971Y0278753D01*
X0631967Y0278706D01*
X0631959Y0278660D01*
X0631947Y0278615D01*
X0631932Y0278571D01*
X0631913Y0278528D01*
X0631890Y0278487D01*
X0631865Y0278449D01*
X0631836Y0278412D01*
X0631804Y0278378D01*
X0631769Y0278347D01*
X0631732Y0278319D01*
X0631693Y0278294D01*
X0631651Y0278272D01*
X0631608Y0278254D01*
X0631564Y0278240D01*
X0631518Y0278229D01*
X0631472Y0278222D01*
X0631426Y0278219D01*
X0631379Y0278220D01*
X0631333Y0278225D01*
X0631287Y0278234D01*
X0631242Y0278246D01*
X0631198Y0278263D01*
X0631156Y0278282D01*
X0631116Y0278306D01*
X0631077Y0278332D01*
X0631041Y0278362D01*
X0631008Y0278395D01*
X0630977Y0278430D01*
X0630950Y0278468D01*
X0630926Y0278508D01*
X0630905Y0278549D01*
X0630888Y0278593D01*
X0630874Y0278637D01*
X0630865Y0278683D01*
X0630859Y0278729D01*
X0630857Y0278776D01*
X0073219Y0259091D02*
X0073221Y0259138D01*
X0073227Y0259184D01*
X0073236Y0259230D01*
X0073250Y0259274D01*
X0073267Y0259318D01*
X0073288Y0259359D01*
X0073312Y0259399D01*
X0073339Y0259437D01*
X0073370Y0259472D01*
X0073403Y0259505D01*
X0073439Y0259535D01*
X0073478Y0259561D01*
X0073518Y0259585D01*
X0073560Y0259604D01*
X0073604Y0259621D01*
X0073649Y0259633D01*
X0073695Y0259642D01*
X0073741Y0259647D01*
X0073788Y0259648D01*
X0073834Y0259645D01*
X0073880Y0259638D01*
X0073926Y0259627D01*
X0073970Y0259613D01*
X0074013Y0259595D01*
X0074054Y0259573D01*
X0074094Y0259548D01*
X0074131Y0259520D01*
X0074166Y0259489D01*
X0074198Y0259455D01*
X0074227Y0259418D01*
X0074252Y0259380D01*
X0074275Y0259339D01*
X0074294Y0259296D01*
X0074309Y0259252D01*
X0074321Y0259207D01*
X0074329Y0259161D01*
X0074333Y0259114D01*
X0074333Y0259068D01*
X0074329Y0259021D01*
X0074321Y0258975D01*
X0074309Y0258930D01*
X0074294Y0258886D01*
X0074275Y0258843D01*
X0074252Y0258802D01*
X0074227Y0258764D01*
X0074198Y0258727D01*
X0074166Y0258693D01*
X0074131Y0258662D01*
X0074094Y0258634D01*
X0074055Y0258609D01*
X0074013Y0258587D01*
X0073970Y0258569D01*
X0073926Y0258555D01*
X0073880Y0258544D01*
X0073834Y0258537D01*
X0073788Y0258534D01*
X0073741Y0258535D01*
X0073695Y0258540D01*
X0073649Y0258549D01*
X0073604Y0258561D01*
X0073560Y0258578D01*
X0073518Y0258597D01*
X0073478Y0258621D01*
X0073439Y0258647D01*
X0073403Y0258677D01*
X0073370Y0258710D01*
X0073339Y0258745D01*
X0073312Y0258783D01*
X0073288Y0258823D01*
X0073267Y0258864D01*
X0073250Y0258908D01*
X0073236Y0258952D01*
X0073227Y0258998D01*
X0073221Y0259044D01*
X0073219Y0259091D01*
M02*
