G75*
%MOIN*%
%OFA0B0*%
%FSLAX25Y25*%
%IPPOS*%
%LPD*%
%AMOC8*
5,1,8,0,0,1.08239X$1,22.5*
%
%ADD10C,0.00800*%
%ADD11C,0.00600*%
%ADD12C,0.00000*%
D10*
X0119595Y0106433D02*
X0126845Y0113183D01*
X0116845Y0123183D02*
X0110095Y0115933D01*
X0139095Y0125933D02*
X0146345Y0132683D01*
X0136345Y0142683D02*
X0129595Y0135433D01*
X0158595Y0145433D02*
X0165845Y0152183D01*
X0155845Y0162183D02*
X0149095Y0154933D01*
X0178595Y0164933D02*
X0186595Y0172933D01*
X0176595Y0182933D02*
X0168595Y0174933D01*
X0136345Y0142683D02*
X0135114Y0144161D01*
X0133919Y0145668D01*
X0132761Y0147204D01*
X0131641Y0148768D01*
X0130560Y0150358D01*
X0129517Y0151975D01*
X0128514Y0153616D01*
X0127552Y0155281D01*
X0126630Y0156969D01*
X0125750Y0158680D01*
X0124912Y0160411D01*
X0124116Y0162162D01*
X0123363Y0163932D01*
X0122654Y0165720D01*
X0121988Y0167524D01*
X0121367Y0169344D01*
X0120790Y0171179D01*
X0120257Y0173028D01*
X0119771Y0174888D01*
X0119329Y0176760D01*
X0118934Y0178643D01*
X0118584Y0180534D01*
X0118280Y0182433D01*
X0118023Y0184339D01*
X0117813Y0186251D01*
X0117649Y0188168D01*
X0117532Y0190088D01*
X0117461Y0192010D01*
X0117438Y0193933D01*
X0117461Y0195856D01*
X0117532Y0197778D01*
X0117649Y0199698D01*
X0117813Y0201615D01*
X0118023Y0203527D01*
X0118280Y0205433D01*
X0118584Y0207332D01*
X0118934Y0209223D01*
X0119329Y0211106D01*
X0119771Y0212978D01*
X0120257Y0214838D01*
X0120790Y0216687D01*
X0121367Y0218522D01*
X0121988Y0220342D01*
X0122654Y0222146D01*
X0123363Y0223934D01*
X0124116Y0225704D01*
X0124912Y0227455D01*
X0125750Y0229186D01*
X0126630Y0230897D01*
X0127552Y0232585D01*
X0128514Y0234250D01*
X0129517Y0235891D01*
X0130560Y0237508D01*
X0131641Y0239098D01*
X0132761Y0240662D01*
X0133919Y0242198D01*
X0135114Y0243705D01*
X0136345Y0245183D01*
X0129595Y0252433D01*
X0139095Y0261933D02*
X0146345Y0255183D01*
X0158595Y0242433D02*
X0165845Y0235683D01*
X0155845Y0225683D02*
X0149095Y0232933D01*
X0178595Y0222933D02*
X0186345Y0214933D01*
X0186595Y0214933D01*
X0176595Y0204933D02*
X0168595Y0212933D01*
X0146345Y0255183D02*
X0147823Y0256414D01*
X0149330Y0257609D01*
X0150866Y0258767D01*
X0152430Y0259887D01*
X0154020Y0260968D01*
X0155637Y0262011D01*
X0157278Y0263014D01*
X0158943Y0263976D01*
X0160631Y0264898D01*
X0162342Y0265778D01*
X0164073Y0266616D01*
X0165824Y0267412D01*
X0167594Y0268165D01*
X0169382Y0268874D01*
X0171186Y0269540D01*
X0173006Y0270161D01*
X0174841Y0270738D01*
X0176690Y0271271D01*
X0178550Y0271757D01*
X0180422Y0272199D01*
X0182305Y0272594D01*
X0184196Y0272944D01*
X0186095Y0273248D01*
X0188001Y0273505D01*
X0189913Y0273715D01*
X0191830Y0273879D01*
X0193750Y0273996D01*
X0195672Y0274067D01*
X0197595Y0274090D01*
X0199518Y0274067D01*
X0201440Y0273996D01*
X0203360Y0273879D01*
X0205277Y0273715D01*
X0207189Y0273505D01*
X0209095Y0273248D01*
X0210994Y0272944D01*
X0212885Y0272594D01*
X0214768Y0272199D01*
X0216640Y0271757D01*
X0218500Y0271271D01*
X0220349Y0270738D01*
X0222184Y0270161D01*
X0224004Y0269540D01*
X0225808Y0268874D01*
X0227596Y0268165D01*
X0229366Y0267412D01*
X0231117Y0266616D01*
X0232848Y0265778D01*
X0234559Y0264898D01*
X0236247Y0263976D01*
X0237912Y0263014D01*
X0239553Y0262011D01*
X0241170Y0260968D01*
X0242760Y0259887D01*
X0244324Y0258767D01*
X0245860Y0257609D01*
X0247367Y0256414D01*
X0248845Y0255183D01*
X0256095Y0261933D01*
X0265595Y0252433D02*
X0258845Y0245183D01*
X0236595Y0242433D02*
X0229345Y0235683D01*
X0239345Y0225683D02*
X0246095Y0232933D01*
X0216595Y0222933D02*
X0208845Y0214933D01*
X0208595Y0214933D01*
X0218595Y0204933D02*
X0226595Y0212933D01*
X0328095Y0228933D02*
X0327275Y0232054D01*
X0326378Y0235153D01*
X0325406Y0238230D01*
X0324358Y0241282D01*
X0323237Y0244307D01*
X0322042Y0247304D01*
X0320774Y0250271D01*
X0319434Y0253207D01*
X0318023Y0256108D01*
X0316541Y0258974D01*
X0314990Y0261803D01*
X0313370Y0264594D01*
X0311682Y0267344D01*
X0309928Y0270052D01*
X0308108Y0272716D01*
X0306223Y0275335D01*
X0304275Y0277907D01*
X0302265Y0280431D01*
X0300194Y0282905D01*
X0298063Y0285327D01*
X0295873Y0287697D01*
X0293626Y0290013D01*
X0291323Y0292273D01*
X0288966Y0294476D01*
X0286555Y0296621D01*
X0284093Y0298706D01*
X0281581Y0300731D01*
X0279020Y0302693D01*
X0276411Y0304592D01*
X0273758Y0306428D01*
X0271060Y0308197D01*
X0268319Y0309900D01*
X0265538Y0311536D01*
X0262718Y0313104D01*
X0259860Y0314602D01*
X0256967Y0316029D01*
X0254039Y0317386D01*
X0251079Y0318670D01*
X0248089Y0319882D01*
X0245070Y0321021D01*
X0242024Y0322085D01*
X0238953Y0323075D01*
X0235859Y0323989D01*
X0232743Y0324828D01*
X0229608Y0325590D01*
X0226455Y0326275D01*
X0223286Y0326883D01*
X0220103Y0327414D01*
X0216909Y0327866D01*
X0213704Y0328241D01*
X0210491Y0328537D01*
X0207272Y0328754D01*
X0204048Y0328893D01*
X0200822Y0328952D01*
X0197596Y0328933D01*
X0268345Y0274683D02*
X0275595Y0281433D01*
X0285095Y0271933D02*
X0278345Y0264683D01*
X0328095Y0228933D02*
X0376845Y0228933D01*
X0377095Y0228933D01*
X0439595Y0252433D02*
X0446345Y0245183D01*
X0456345Y0255183D02*
X0449095Y0261933D01*
X0426845Y0264683D02*
X0420095Y0271933D01*
X0429595Y0281433D02*
X0436845Y0274683D01*
X0468595Y0242433D02*
X0475845Y0235683D01*
X0465845Y0225683D02*
X0459095Y0232933D01*
X0488595Y0222933D02*
X0496345Y0214933D01*
X0496595Y0214933D01*
X0486595Y0204933D02*
X0478595Y0212933D01*
X0456345Y0255183D02*
X0457823Y0256414D01*
X0459330Y0257609D01*
X0460866Y0258767D01*
X0462430Y0259887D01*
X0464020Y0260968D01*
X0465637Y0262011D01*
X0467278Y0263014D01*
X0468943Y0263976D01*
X0470631Y0264898D01*
X0472342Y0265778D01*
X0474073Y0266616D01*
X0475824Y0267412D01*
X0477594Y0268165D01*
X0479382Y0268874D01*
X0481186Y0269540D01*
X0483006Y0270161D01*
X0484841Y0270738D01*
X0486690Y0271271D01*
X0488550Y0271757D01*
X0490422Y0272199D01*
X0492305Y0272594D01*
X0494196Y0272944D01*
X0496095Y0273248D01*
X0498001Y0273505D01*
X0499913Y0273715D01*
X0501830Y0273879D01*
X0503750Y0273996D01*
X0505672Y0274067D01*
X0507595Y0274090D01*
X0509518Y0274067D01*
X0511440Y0273996D01*
X0513360Y0273879D01*
X0515277Y0273715D01*
X0517189Y0273505D01*
X0519095Y0273248D01*
X0520994Y0272944D01*
X0522885Y0272594D01*
X0524768Y0272199D01*
X0526640Y0271757D01*
X0528500Y0271271D01*
X0530349Y0270738D01*
X0532184Y0270161D01*
X0534004Y0269540D01*
X0535808Y0268874D01*
X0537596Y0268165D01*
X0539366Y0267412D01*
X0541117Y0266616D01*
X0542848Y0265778D01*
X0544559Y0264898D01*
X0546247Y0263976D01*
X0547912Y0263014D01*
X0549553Y0262011D01*
X0551170Y0260968D01*
X0552760Y0259887D01*
X0554324Y0258767D01*
X0555860Y0257609D01*
X0557367Y0256414D01*
X0558845Y0255183D01*
X0566095Y0261933D01*
X0575595Y0252433D02*
X0568845Y0245183D01*
X0546595Y0242433D02*
X0539345Y0235683D01*
X0549345Y0225683D02*
X0556095Y0232933D01*
X0526595Y0222933D02*
X0518845Y0214933D01*
X0518595Y0214933D01*
X0528595Y0204933D02*
X0536595Y0212933D01*
X0568845Y0245183D02*
X0570076Y0243705D01*
X0571271Y0242198D01*
X0572429Y0240662D01*
X0573549Y0239098D01*
X0574630Y0237508D01*
X0575673Y0235891D01*
X0576676Y0234250D01*
X0577638Y0232585D01*
X0578560Y0230897D01*
X0579440Y0229186D01*
X0580278Y0227455D01*
X0581074Y0225704D01*
X0581827Y0223934D01*
X0582536Y0222146D01*
X0583202Y0220342D01*
X0583823Y0218522D01*
X0584400Y0216687D01*
X0584933Y0214838D01*
X0585419Y0212978D01*
X0585861Y0211106D01*
X0586256Y0209223D01*
X0586606Y0207332D01*
X0586910Y0205433D01*
X0587167Y0203527D01*
X0587377Y0201615D01*
X0587541Y0199698D01*
X0587658Y0197778D01*
X0587729Y0195856D01*
X0587752Y0193933D01*
X0587729Y0192010D01*
X0587658Y0190088D01*
X0587541Y0188168D01*
X0587377Y0186251D01*
X0587167Y0184339D01*
X0586910Y0182433D01*
X0586606Y0180534D01*
X0586256Y0178643D01*
X0585861Y0176760D01*
X0585419Y0174888D01*
X0584933Y0173028D01*
X0584400Y0171179D01*
X0583823Y0169344D01*
X0583202Y0167524D01*
X0582536Y0165720D01*
X0581827Y0163932D01*
X0581074Y0162162D01*
X0580278Y0160411D01*
X0579440Y0158680D01*
X0578560Y0156969D01*
X0577638Y0155281D01*
X0576676Y0153616D01*
X0575673Y0151975D01*
X0574630Y0150358D01*
X0573549Y0148768D01*
X0572429Y0147204D01*
X0571271Y0145668D01*
X0570076Y0144161D01*
X0568845Y0142683D01*
X0575595Y0135433D01*
X0566095Y0125933D02*
X0558845Y0132683D01*
X0546595Y0145433D02*
X0539345Y0152183D01*
X0549345Y0162183D02*
X0556095Y0154933D01*
X0526595Y0164933D02*
X0518595Y0172933D01*
X0528595Y0182933D02*
X0536595Y0174933D01*
X0558845Y0132683D02*
X0557367Y0131452D01*
X0555860Y0130257D01*
X0554324Y0129099D01*
X0552760Y0127979D01*
X0551170Y0126898D01*
X0549553Y0125855D01*
X0547912Y0124852D01*
X0546247Y0123890D01*
X0544559Y0122968D01*
X0542848Y0122088D01*
X0541117Y0121250D01*
X0539366Y0120454D01*
X0537596Y0119701D01*
X0535808Y0118992D01*
X0534004Y0118326D01*
X0532184Y0117705D01*
X0530349Y0117128D01*
X0528500Y0116595D01*
X0526640Y0116109D01*
X0524768Y0115667D01*
X0522885Y0115272D01*
X0520994Y0114922D01*
X0519095Y0114618D01*
X0517189Y0114361D01*
X0515277Y0114151D01*
X0513360Y0113987D01*
X0511440Y0113870D01*
X0509518Y0113799D01*
X0507595Y0113776D01*
X0505672Y0113799D01*
X0503750Y0113870D01*
X0501830Y0113987D01*
X0499913Y0114151D01*
X0498001Y0114361D01*
X0496095Y0114618D01*
X0494196Y0114922D01*
X0492305Y0115272D01*
X0490422Y0115667D01*
X0488550Y0116109D01*
X0486690Y0116595D01*
X0484841Y0117128D01*
X0483006Y0117705D01*
X0481186Y0118326D01*
X0479382Y0118992D01*
X0477594Y0119701D01*
X0475824Y0120454D01*
X0474073Y0121250D01*
X0472342Y0122088D01*
X0470631Y0122968D01*
X0468943Y0123890D01*
X0467278Y0124852D01*
X0465637Y0125855D01*
X0464020Y0126898D01*
X0462430Y0127979D01*
X0460866Y0129099D01*
X0459330Y0130257D01*
X0457823Y0131452D01*
X0456345Y0132683D01*
X0449095Y0125933D01*
X0439595Y0135433D02*
X0446345Y0142683D01*
X0459095Y0154933D02*
X0465845Y0162183D01*
X0475845Y0152183D02*
X0468595Y0145433D01*
X0488595Y0164933D02*
X0496595Y0172933D01*
X0486595Y0182933D02*
X0478595Y0174933D01*
X0446345Y0142683D02*
X0445114Y0144161D01*
X0443919Y0145668D01*
X0442761Y0147204D01*
X0441641Y0148768D01*
X0440560Y0150358D01*
X0439517Y0151975D01*
X0438514Y0153616D01*
X0437552Y0155281D01*
X0436630Y0156969D01*
X0435750Y0158680D01*
X0434912Y0160411D01*
X0434116Y0162162D01*
X0433363Y0163932D01*
X0432654Y0165720D01*
X0431988Y0167524D01*
X0431367Y0169344D01*
X0430790Y0171179D01*
X0430257Y0173028D01*
X0429771Y0174888D01*
X0429329Y0176760D01*
X0428934Y0178643D01*
X0428584Y0180534D01*
X0428280Y0182433D01*
X0428023Y0184339D01*
X0427813Y0186251D01*
X0427649Y0188168D01*
X0427532Y0190088D01*
X0427461Y0192010D01*
X0427438Y0193933D01*
X0427461Y0195856D01*
X0427532Y0197778D01*
X0427649Y0199698D01*
X0427813Y0201615D01*
X0428023Y0203527D01*
X0428280Y0205433D01*
X0428584Y0207332D01*
X0428934Y0209223D01*
X0429329Y0211106D01*
X0429771Y0212978D01*
X0430257Y0214838D01*
X0430790Y0216687D01*
X0431367Y0218522D01*
X0431988Y0220342D01*
X0432654Y0222146D01*
X0433363Y0223934D01*
X0434116Y0225704D01*
X0434912Y0227455D01*
X0435750Y0229186D01*
X0436630Y0230897D01*
X0437552Y0232585D01*
X0438514Y0234250D01*
X0439517Y0235891D01*
X0440560Y0237508D01*
X0441641Y0239098D01*
X0442761Y0240662D01*
X0443919Y0242198D01*
X0445114Y0243705D01*
X0446345Y0245183D01*
X0426845Y0264683D02*
X0425160Y0262732D01*
X0423523Y0260741D01*
X0421934Y0258710D01*
X0420395Y0256642D01*
X0418907Y0254538D01*
X0417469Y0252398D01*
X0416084Y0250224D01*
X0414751Y0248017D01*
X0413472Y0245779D01*
X0412248Y0243511D01*
X0411079Y0241213D01*
X0409965Y0238888D01*
X0408908Y0236537D01*
X0407908Y0234161D01*
X0406966Y0231762D01*
X0406082Y0229340D01*
X0405256Y0226898D01*
X0404490Y0224437D01*
X0403783Y0221958D01*
X0403137Y0219462D01*
X0402551Y0216952D01*
X0402025Y0214428D01*
X0401561Y0211893D01*
X0401158Y0209346D01*
X0400817Y0206791D01*
X0400538Y0204229D01*
X0400320Y0201660D01*
X0400164Y0199087D01*
X0400071Y0196511D01*
X0400040Y0193933D01*
X0400071Y0191355D01*
X0400164Y0188779D01*
X0400320Y0186206D01*
X0400538Y0183637D01*
X0400817Y0181075D01*
X0401158Y0178520D01*
X0401561Y0175973D01*
X0402025Y0173438D01*
X0402551Y0170914D01*
X0403137Y0168404D01*
X0403783Y0165908D01*
X0404490Y0163429D01*
X0405256Y0160968D01*
X0406082Y0158526D01*
X0406966Y0156104D01*
X0407908Y0153705D01*
X0408908Y0151329D01*
X0409965Y0148978D01*
X0411079Y0146653D01*
X0412248Y0144355D01*
X0413472Y0142087D01*
X0414751Y0139849D01*
X0416084Y0137642D01*
X0417469Y0135468D01*
X0418907Y0133328D01*
X0420395Y0131224D01*
X0421934Y0129156D01*
X0423523Y0127125D01*
X0425160Y0125134D01*
X0426845Y0123183D01*
X0420095Y0115933D01*
X0429595Y0106433D02*
X0436845Y0113183D01*
X0578345Y0113183D02*
X0585595Y0106433D01*
X0595095Y0115933D02*
X0588345Y0123183D01*
X0638345Y0158933D02*
X0657595Y0158933D01*
X0657735Y0158935D01*
X0657875Y0158941D01*
X0658015Y0158951D01*
X0658155Y0158964D01*
X0658294Y0158982D01*
X0658433Y0159004D01*
X0658570Y0159029D01*
X0658708Y0159058D01*
X0658844Y0159091D01*
X0658979Y0159128D01*
X0659113Y0159169D01*
X0659246Y0159214D01*
X0659378Y0159262D01*
X0659508Y0159314D01*
X0659637Y0159369D01*
X0659764Y0159428D01*
X0659890Y0159491D01*
X0660014Y0159557D01*
X0660135Y0159626D01*
X0660255Y0159699D01*
X0660373Y0159776D01*
X0660488Y0159855D01*
X0660602Y0159938D01*
X0660712Y0160024D01*
X0660821Y0160113D01*
X0660927Y0160205D01*
X0661030Y0160300D01*
X0661131Y0160397D01*
X0661228Y0160498D01*
X0661323Y0160601D01*
X0661415Y0160707D01*
X0661504Y0160816D01*
X0661590Y0160926D01*
X0661673Y0161040D01*
X0661752Y0161155D01*
X0661829Y0161273D01*
X0661902Y0161393D01*
X0661971Y0161514D01*
X0662037Y0161638D01*
X0662100Y0161764D01*
X0662159Y0161891D01*
X0662214Y0162020D01*
X0662266Y0162150D01*
X0662314Y0162282D01*
X0662359Y0162415D01*
X0662400Y0162549D01*
X0662437Y0162684D01*
X0662470Y0162820D01*
X0662499Y0162958D01*
X0662524Y0163095D01*
X0662546Y0163234D01*
X0662564Y0163373D01*
X0662577Y0163513D01*
X0662587Y0163653D01*
X0662593Y0163793D01*
X0662595Y0163933D01*
X0662595Y0223933D01*
X0662593Y0224073D01*
X0662587Y0224213D01*
X0662577Y0224353D01*
X0662564Y0224493D01*
X0662546Y0224632D01*
X0662524Y0224771D01*
X0662499Y0224908D01*
X0662470Y0225046D01*
X0662437Y0225182D01*
X0662400Y0225317D01*
X0662359Y0225451D01*
X0662314Y0225584D01*
X0662266Y0225716D01*
X0662214Y0225846D01*
X0662159Y0225975D01*
X0662100Y0226102D01*
X0662037Y0226228D01*
X0661971Y0226352D01*
X0661902Y0226473D01*
X0661829Y0226593D01*
X0661752Y0226711D01*
X0661673Y0226826D01*
X0661590Y0226940D01*
X0661504Y0227050D01*
X0661415Y0227159D01*
X0661323Y0227265D01*
X0661228Y0227368D01*
X0661131Y0227469D01*
X0661030Y0227566D01*
X0660927Y0227661D01*
X0660821Y0227753D01*
X0660712Y0227842D01*
X0660602Y0227928D01*
X0660488Y0228011D01*
X0660373Y0228090D01*
X0660255Y0228167D01*
X0660135Y0228240D01*
X0660014Y0228309D01*
X0659890Y0228375D01*
X0659764Y0228438D01*
X0659637Y0228497D01*
X0659508Y0228552D01*
X0659378Y0228604D01*
X0659246Y0228652D01*
X0659113Y0228697D01*
X0658979Y0228738D01*
X0658844Y0228775D01*
X0658708Y0228808D01*
X0658570Y0228837D01*
X0658433Y0228862D01*
X0658294Y0228884D01*
X0658155Y0228902D01*
X0658015Y0228915D01*
X0657875Y0228925D01*
X0657735Y0228931D01*
X0657595Y0228933D01*
X0638095Y0228933D01*
X0595095Y0271933D02*
X0588345Y0264683D01*
X0578345Y0274683D02*
X0585595Y0281433D01*
X0578345Y0274683D02*
X0576394Y0276368D01*
X0574403Y0278005D01*
X0572372Y0279594D01*
X0570304Y0281133D01*
X0568200Y0282621D01*
X0566060Y0284059D01*
X0563886Y0285444D01*
X0561679Y0286777D01*
X0559441Y0288056D01*
X0557173Y0289280D01*
X0554875Y0290449D01*
X0552550Y0291563D01*
X0550199Y0292620D01*
X0547823Y0293620D01*
X0545424Y0294562D01*
X0543002Y0295446D01*
X0540560Y0296272D01*
X0538099Y0297038D01*
X0535620Y0297745D01*
X0533124Y0298391D01*
X0530614Y0298977D01*
X0528090Y0299503D01*
X0525555Y0299967D01*
X0523008Y0300370D01*
X0520453Y0300711D01*
X0517891Y0300990D01*
X0515322Y0301208D01*
X0512749Y0301364D01*
X0510173Y0301457D01*
X0507595Y0301488D01*
X0505017Y0301457D01*
X0502441Y0301364D01*
X0499868Y0301208D01*
X0497299Y0300990D01*
X0494737Y0300711D01*
X0492182Y0300370D01*
X0489635Y0299967D01*
X0487100Y0299503D01*
X0484576Y0298977D01*
X0482066Y0298391D01*
X0479570Y0297745D01*
X0477091Y0297038D01*
X0474630Y0296272D01*
X0472188Y0295446D01*
X0469766Y0294562D01*
X0467367Y0293620D01*
X0464991Y0292620D01*
X0462640Y0291563D01*
X0460315Y0290449D01*
X0458017Y0289280D01*
X0455749Y0288056D01*
X0453511Y0286777D01*
X0451304Y0285444D01*
X0449130Y0284059D01*
X0446990Y0282621D01*
X0444886Y0281133D01*
X0442818Y0279594D01*
X0440787Y0278005D01*
X0438796Y0276368D01*
X0436845Y0274683D01*
X0372595Y0193933D02*
X0332595Y0193933D01*
X0246095Y0154933D02*
X0239345Y0162183D01*
X0229345Y0152183D02*
X0236595Y0145433D01*
X0258845Y0142683D02*
X0265595Y0135433D01*
X0256095Y0125933D02*
X0248845Y0132683D01*
X0278345Y0123183D02*
X0285095Y0115933D01*
X0275595Y0106433D02*
X0268345Y0113183D01*
X0216595Y0164933D02*
X0208595Y0172933D01*
X0218595Y0182933D02*
X0226595Y0174933D01*
X0197595Y0328934D02*
X0194263Y0328869D01*
X0190933Y0328724D01*
X0187609Y0328497D01*
X0184290Y0328189D01*
X0180980Y0327801D01*
X0177681Y0327332D01*
X0174394Y0326783D01*
X0171121Y0326154D01*
X0167865Y0325445D01*
X0164627Y0324657D01*
X0161409Y0323791D01*
X0158213Y0322846D01*
X0155041Y0321824D01*
X0151895Y0320725D01*
X0148777Y0319549D01*
X0145688Y0318298D01*
X0142631Y0316972D01*
X0139606Y0315572D01*
X0136617Y0314099D01*
X0133665Y0312553D01*
X0130751Y0310935D01*
X0127877Y0309248D01*
X0125046Y0307490D01*
X0122258Y0305665D01*
X0119515Y0303771D01*
X0116820Y0301812D01*
X0114173Y0299787D01*
X0111576Y0297699D01*
X0109030Y0295548D01*
X0106538Y0293335D01*
X0104101Y0291063D01*
X0101719Y0288731D01*
X0099395Y0286343D01*
X0097130Y0283898D01*
X0094926Y0281399D01*
X0092782Y0278847D01*
X0090702Y0276244D01*
X0088686Y0273591D01*
X0086734Y0270889D01*
X0084850Y0268140D01*
X0083033Y0265347D01*
X0081284Y0262510D01*
X0079605Y0259631D01*
X0077997Y0256712D01*
X0076460Y0253755D01*
X0074996Y0250761D01*
X0073605Y0247733D01*
X0072289Y0244671D01*
X0071047Y0241579D01*
X0069881Y0238457D01*
X0068792Y0235307D01*
X0067780Y0232132D01*
X0066845Y0228934D01*
X0066845Y0228933D02*
X0047595Y0228933D01*
X0047455Y0228931D01*
X0047315Y0228925D01*
X0047175Y0228915D01*
X0047035Y0228902D01*
X0046896Y0228884D01*
X0046757Y0228862D01*
X0046620Y0228837D01*
X0046482Y0228808D01*
X0046346Y0228775D01*
X0046211Y0228738D01*
X0046077Y0228697D01*
X0045944Y0228652D01*
X0045812Y0228604D01*
X0045682Y0228552D01*
X0045553Y0228497D01*
X0045426Y0228438D01*
X0045300Y0228375D01*
X0045176Y0228309D01*
X0045055Y0228240D01*
X0044935Y0228167D01*
X0044817Y0228090D01*
X0044702Y0228011D01*
X0044588Y0227928D01*
X0044478Y0227842D01*
X0044369Y0227753D01*
X0044263Y0227661D01*
X0044160Y0227566D01*
X0044059Y0227469D01*
X0043962Y0227368D01*
X0043867Y0227265D01*
X0043775Y0227159D01*
X0043686Y0227050D01*
X0043600Y0226940D01*
X0043517Y0226826D01*
X0043438Y0226711D01*
X0043361Y0226593D01*
X0043288Y0226473D01*
X0043219Y0226352D01*
X0043153Y0226228D01*
X0043090Y0226102D01*
X0043031Y0225975D01*
X0042976Y0225846D01*
X0042924Y0225716D01*
X0042876Y0225584D01*
X0042831Y0225451D01*
X0042790Y0225317D01*
X0042753Y0225182D01*
X0042720Y0225046D01*
X0042691Y0224908D01*
X0042666Y0224771D01*
X0042644Y0224632D01*
X0042626Y0224493D01*
X0042613Y0224353D01*
X0042603Y0224213D01*
X0042597Y0224073D01*
X0042595Y0223933D01*
X0042595Y0163933D01*
X0042597Y0163793D01*
X0042603Y0163653D01*
X0042613Y0163513D01*
X0042626Y0163373D01*
X0042644Y0163234D01*
X0042666Y0163095D01*
X0042691Y0162958D01*
X0042720Y0162820D01*
X0042753Y0162684D01*
X0042790Y0162549D01*
X0042831Y0162415D01*
X0042876Y0162282D01*
X0042924Y0162150D01*
X0042976Y0162020D01*
X0043031Y0161891D01*
X0043090Y0161764D01*
X0043153Y0161638D01*
X0043219Y0161514D01*
X0043288Y0161393D01*
X0043361Y0161273D01*
X0043438Y0161155D01*
X0043517Y0161040D01*
X0043600Y0160926D01*
X0043686Y0160816D01*
X0043775Y0160707D01*
X0043867Y0160601D01*
X0043962Y0160498D01*
X0044059Y0160397D01*
X0044160Y0160300D01*
X0044263Y0160205D01*
X0044369Y0160113D01*
X0044478Y0160024D01*
X0044588Y0159938D01*
X0044702Y0159855D01*
X0044817Y0159776D01*
X0044935Y0159699D01*
X0045055Y0159626D01*
X0045176Y0159557D01*
X0045300Y0159491D01*
X0045426Y0159428D01*
X0045553Y0159369D01*
X0045682Y0159314D01*
X0045812Y0159262D01*
X0045944Y0159214D01*
X0046077Y0159169D01*
X0046211Y0159128D01*
X0046346Y0159091D01*
X0046482Y0159058D01*
X0046620Y0159029D01*
X0046757Y0159004D01*
X0046896Y0158982D01*
X0047035Y0158964D01*
X0047175Y0158951D01*
X0047315Y0158941D01*
X0047455Y0158935D01*
X0047595Y0158933D01*
X0067095Y0158933D01*
X0116845Y0123183D02*
X0115160Y0125134D01*
X0113523Y0127125D01*
X0111934Y0129156D01*
X0110395Y0131224D01*
X0108907Y0133328D01*
X0107469Y0135468D01*
X0106084Y0137642D01*
X0104751Y0139849D01*
X0103472Y0142087D01*
X0102248Y0144355D01*
X0101079Y0146653D01*
X0099965Y0148978D01*
X0098908Y0151329D01*
X0097908Y0153705D01*
X0096966Y0156104D01*
X0096082Y0158526D01*
X0095256Y0160968D01*
X0094490Y0163429D01*
X0093783Y0165908D01*
X0093137Y0168404D01*
X0092551Y0170914D01*
X0092025Y0173438D01*
X0091561Y0175973D01*
X0091158Y0178520D01*
X0090817Y0181075D01*
X0090538Y0183637D01*
X0090320Y0186206D01*
X0090164Y0188779D01*
X0090071Y0191355D01*
X0090040Y0193933D01*
X0090071Y0196511D01*
X0090164Y0199087D01*
X0090320Y0201660D01*
X0090538Y0204229D01*
X0090817Y0206791D01*
X0091158Y0209346D01*
X0091561Y0211893D01*
X0092025Y0214428D01*
X0092551Y0216952D01*
X0093137Y0219462D01*
X0093783Y0221958D01*
X0094490Y0224437D01*
X0095256Y0226898D01*
X0096082Y0229340D01*
X0096966Y0231762D01*
X0097908Y0234161D01*
X0098908Y0236537D01*
X0099965Y0238888D01*
X0101079Y0241213D01*
X0102248Y0243511D01*
X0103472Y0245779D01*
X0104751Y0248017D01*
X0106084Y0250224D01*
X0107469Y0252398D01*
X0108907Y0254538D01*
X0110395Y0256642D01*
X0111934Y0258710D01*
X0113523Y0260741D01*
X0115160Y0262732D01*
X0116845Y0264683D01*
X0110095Y0271933D01*
X0119595Y0281433D02*
X0126845Y0274683D01*
X0128796Y0276368D01*
X0130787Y0278005D01*
X0132818Y0279594D01*
X0134886Y0281133D01*
X0136990Y0282621D01*
X0139130Y0284059D01*
X0141304Y0285444D01*
X0143511Y0286777D01*
X0145749Y0288056D01*
X0148017Y0289280D01*
X0150315Y0290449D01*
X0152640Y0291563D01*
X0154991Y0292620D01*
X0157367Y0293620D01*
X0159766Y0294562D01*
X0162188Y0295446D01*
X0164630Y0296272D01*
X0167091Y0297038D01*
X0169570Y0297745D01*
X0172066Y0298391D01*
X0174576Y0298977D01*
X0177100Y0299503D01*
X0179635Y0299967D01*
X0182182Y0300370D01*
X0184737Y0300711D01*
X0187299Y0300990D01*
X0189868Y0301208D01*
X0192441Y0301364D01*
X0195017Y0301457D01*
X0197595Y0301488D01*
X0200173Y0301457D01*
X0202749Y0301364D01*
X0205322Y0301208D01*
X0207891Y0300990D01*
X0210453Y0300711D01*
X0213008Y0300370D01*
X0215555Y0299967D01*
X0218090Y0299503D01*
X0220614Y0298977D01*
X0223124Y0298391D01*
X0225620Y0297745D01*
X0228099Y0297038D01*
X0230560Y0296272D01*
X0233002Y0295446D01*
X0235424Y0294562D01*
X0237823Y0293620D01*
X0240199Y0292620D01*
X0242550Y0291563D01*
X0244875Y0290449D01*
X0247173Y0289280D01*
X0249441Y0288056D01*
X0251679Y0286777D01*
X0253886Y0285444D01*
X0256060Y0284059D01*
X0258200Y0282621D01*
X0260304Y0281133D01*
X0262372Y0279594D01*
X0264403Y0278005D01*
X0266394Y0276368D01*
X0268345Y0274683D01*
X0258845Y0245183D02*
X0260076Y0243705D01*
X0261271Y0242198D01*
X0262429Y0240662D01*
X0263549Y0239098D01*
X0264630Y0237508D01*
X0265673Y0235891D01*
X0266676Y0234250D01*
X0267638Y0232585D01*
X0268560Y0230897D01*
X0269440Y0229186D01*
X0270278Y0227455D01*
X0271074Y0225704D01*
X0271827Y0223934D01*
X0272536Y0222146D01*
X0273202Y0220342D01*
X0273823Y0218522D01*
X0274400Y0216687D01*
X0274933Y0214838D01*
X0275419Y0212978D01*
X0275861Y0211106D01*
X0276256Y0209223D01*
X0276606Y0207332D01*
X0276910Y0205433D01*
X0277167Y0203527D01*
X0277377Y0201615D01*
X0277541Y0199698D01*
X0277658Y0197778D01*
X0277729Y0195856D01*
X0277752Y0193933D01*
X0277729Y0192010D01*
X0277658Y0190088D01*
X0277541Y0188168D01*
X0277377Y0186251D01*
X0277167Y0184339D01*
X0276910Y0182433D01*
X0276606Y0180534D01*
X0276256Y0178643D01*
X0275861Y0176760D01*
X0275419Y0174888D01*
X0274933Y0173028D01*
X0274400Y0171179D01*
X0273823Y0169344D01*
X0273202Y0167524D01*
X0272536Y0165720D01*
X0271827Y0163932D01*
X0271074Y0162162D01*
X0270278Y0160411D01*
X0269440Y0158680D01*
X0268560Y0156969D01*
X0267638Y0155281D01*
X0266676Y0153616D01*
X0265673Y0151975D01*
X0264630Y0150358D01*
X0263549Y0148768D01*
X0262429Y0147204D01*
X0261271Y0145668D01*
X0260076Y0144161D01*
X0258845Y0142683D01*
X0248845Y0132683D02*
X0247367Y0131452D01*
X0245860Y0130257D01*
X0244324Y0129099D01*
X0242760Y0127979D01*
X0241170Y0126898D01*
X0239553Y0125855D01*
X0237912Y0124852D01*
X0236247Y0123890D01*
X0234559Y0122968D01*
X0232848Y0122088D01*
X0231117Y0121250D01*
X0229366Y0120454D01*
X0227596Y0119701D01*
X0225808Y0118992D01*
X0224004Y0118326D01*
X0222184Y0117705D01*
X0220349Y0117128D01*
X0218500Y0116595D01*
X0216640Y0116109D01*
X0214768Y0115667D01*
X0212885Y0115272D01*
X0210994Y0114922D01*
X0209095Y0114618D01*
X0207189Y0114361D01*
X0205277Y0114151D01*
X0203360Y0113987D01*
X0201440Y0113870D01*
X0199518Y0113799D01*
X0197595Y0113776D01*
X0195672Y0113799D01*
X0193750Y0113870D01*
X0191830Y0113987D01*
X0189913Y0114151D01*
X0188001Y0114361D01*
X0186095Y0114618D01*
X0184196Y0114922D01*
X0182305Y0115272D01*
X0180422Y0115667D01*
X0178550Y0116109D01*
X0176690Y0116595D01*
X0174841Y0117128D01*
X0173006Y0117705D01*
X0171186Y0118326D01*
X0169382Y0118992D01*
X0167594Y0119701D01*
X0165824Y0120454D01*
X0164073Y0121250D01*
X0162342Y0122088D01*
X0160631Y0122968D01*
X0158943Y0123890D01*
X0157278Y0124852D01*
X0155637Y0125855D01*
X0154020Y0126898D01*
X0152430Y0127979D01*
X0150866Y0129099D01*
X0149330Y0130257D01*
X0147823Y0131452D01*
X0146345Y0132683D01*
X0126845Y0113183D02*
X0128796Y0111498D01*
X0130787Y0109861D01*
X0132818Y0108272D01*
X0134886Y0106733D01*
X0136990Y0105245D01*
X0139130Y0103807D01*
X0141304Y0102422D01*
X0143511Y0101089D01*
X0145749Y0099810D01*
X0148017Y0098586D01*
X0150315Y0097417D01*
X0152640Y0096303D01*
X0154991Y0095246D01*
X0157367Y0094246D01*
X0159766Y0093304D01*
X0162188Y0092420D01*
X0164630Y0091594D01*
X0167091Y0090828D01*
X0169570Y0090121D01*
X0172066Y0089475D01*
X0174576Y0088889D01*
X0177100Y0088363D01*
X0179635Y0087899D01*
X0182182Y0087496D01*
X0184737Y0087155D01*
X0187299Y0086876D01*
X0189868Y0086658D01*
X0192441Y0086502D01*
X0195017Y0086409D01*
X0197595Y0086378D01*
X0200173Y0086409D01*
X0202749Y0086502D01*
X0205322Y0086658D01*
X0207891Y0086876D01*
X0210453Y0087155D01*
X0213008Y0087496D01*
X0215555Y0087899D01*
X0218090Y0088363D01*
X0220614Y0088889D01*
X0223124Y0089475D01*
X0225620Y0090121D01*
X0228099Y0090828D01*
X0230560Y0091594D01*
X0233002Y0092420D01*
X0235424Y0093304D01*
X0237823Y0094246D01*
X0240199Y0095246D01*
X0242550Y0096303D01*
X0244875Y0097417D01*
X0247173Y0098586D01*
X0249441Y0099810D01*
X0251679Y0101089D01*
X0253886Y0102422D01*
X0256060Y0103807D01*
X0258200Y0105245D01*
X0260304Y0106733D01*
X0262372Y0108272D01*
X0264403Y0109861D01*
X0266394Y0111498D01*
X0268345Y0113183D01*
X0278345Y0123183D02*
X0280030Y0125134D01*
X0281667Y0127125D01*
X0283256Y0129156D01*
X0284795Y0131224D01*
X0286283Y0133328D01*
X0287721Y0135468D01*
X0289106Y0137642D01*
X0290439Y0139849D01*
X0291718Y0142087D01*
X0292942Y0144355D01*
X0294111Y0146653D01*
X0295225Y0148978D01*
X0296282Y0151329D01*
X0297282Y0153705D01*
X0298224Y0156104D01*
X0299108Y0158526D01*
X0299934Y0160968D01*
X0300700Y0163429D01*
X0301407Y0165908D01*
X0302053Y0168404D01*
X0302639Y0170914D01*
X0303165Y0173438D01*
X0303629Y0175973D01*
X0304032Y0178520D01*
X0304373Y0181075D01*
X0304652Y0183637D01*
X0304870Y0186206D01*
X0305026Y0188779D01*
X0305119Y0191355D01*
X0305150Y0193933D01*
X0305119Y0196511D01*
X0305026Y0199087D01*
X0304870Y0201660D01*
X0304652Y0204229D01*
X0304373Y0206791D01*
X0304032Y0209346D01*
X0303629Y0211893D01*
X0303165Y0214428D01*
X0302639Y0216952D01*
X0302053Y0219462D01*
X0301407Y0221958D01*
X0300700Y0224437D01*
X0299934Y0226898D01*
X0299108Y0229340D01*
X0298224Y0231762D01*
X0297282Y0234161D01*
X0296282Y0236537D01*
X0295225Y0238888D01*
X0294111Y0241213D01*
X0292942Y0243511D01*
X0291718Y0245779D01*
X0290439Y0248017D01*
X0289106Y0250224D01*
X0287721Y0252398D01*
X0286283Y0254538D01*
X0284795Y0256642D01*
X0283256Y0258710D01*
X0281667Y0260741D01*
X0280030Y0262732D01*
X0278345Y0264683D01*
X0110095Y0271933D02*
X0108237Y0269782D01*
X0106432Y0267587D01*
X0104681Y0265349D01*
X0102984Y0263069D01*
X0101343Y0260749D01*
X0099758Y0258389D01*
X0098231Y0255993D01*
X0096762Y0253560D01*
X0095352Y0251092D01*
X0094002Y0248591D01*
X0092713Y0246058D01*
X0091485Y0243495D01*
X0090320Y0240903D01*
X0089217Y0238284D01*
X0088179Y0235638D01*
X0087204Y0232969D01*
X0086294Y0230276D01*
X0085449Y0227563D01*
X0084670Y0224830D01*
X0083957Y0222078D01*
X0083311Y0219311D01*
X0082732Y0216529D01*
X0082220Y0213733D01*
X0081776Y0210926D01*
X0081400Y0208109D01*
X0081092Y0205284D01*
X0080852Y0202452D01*
X0080680Y0199615D01*
X0080577Y0196775D01*
X0080543Y0193933D01*
X0080577Y0191091D01*
X0080680Y0188251D01*
X0080852Y0185414D01*
X0081092Y0182582D01*
X0081400Y0179757D01*
X0081776Y0176940D01*
X0082220Y0174133D01*
X0082732Y0171337D01*
X0083311Y0168555D01*
X0083957Y0165788D01*
X0084670Y0163036D01*
X0085449Y0160303D01*
X0086294Y0157590D01*
X0087204Y0154897D01*
X0088179Y0152228D01*
X0089217Y0149582D01*
X0090320Y0146963D01*
X0091485Y0144371D01*
X0092713Y0141808D01*
X0094002Y0139275D01*
X0095352Y0136774D01*
X0096762Y0134306D01*
X0098231Y0131873D01*
X0099758Y0129477D01*
X0101343Y0127117D01*
X0102984Y0124797D01*
X0104681Y0122517D01*
X0106432Y0120279D01*
X0108237Y0118084D01*
X0110095Y0115933D01*
X0285095Y0115933D02*
X0286953Y0118084D01*
X0288758Y0120279D01*
X0290509Y0122517D01*
X0292206Y0124797D01*
X0293847Y0127117D01*
X0295432Y0129477D01*
X0296959Y0131873D01*
X0298428Y0134306D01*
X0299838Y0136774D01*
X0301188Y0139275D01*
X0302477Y0141808D01*
X0303705Y0144371D01*
X0304870Y0146963D01*
X0305973Y0149582D01*
X0307011Y0152228D01*
X0307986Y0154897D01*
X0308896Y0157590D01*
X0309741Y0160303D01*
X0310520Y0163036D01*
X0311233Y0165788D01*
X0311879Y0168555D01*
X0312458Y0171337D01*
X0312970Y0174133D01*
X0313414Y0176940D01*
X0313790Y0179757D01*
X0314098Y0182582D01*
X0314338Y0185414D01*
X0314510Y0188251D01*
X0314613Y0191091D01*
X0314647Y0193933D01*
X0314613Y0196775D01*
X0314510Y0199615D01*
X0314338Y0202452D01*
X0314098Y0205284D01*
X0313790Y0208109D01*
X0313414Y0210926D01*
X0312970Y0213733D01*
X0312458Y0216529D01*
X0311879Y0219311D01*
X0311233Y0222078D01*
X0310520Y0224830D01*
X0309741Y0227563D01*
X0308896Y0230276D01*
X0307986Y0232969D01*
X0307011Y0235638D01*
X0305973Y0238284D01*
X0304870Y0240903D01*
X0303705Y0243495D01*
X0302477Y0246058D01*
X0301188Y0248591D01*
X0299838Y0251092D01*
X0298428Y0253560D01*
X0296959Y0255993D01*
X0295432Y0258389D01*
X0293847Y0260749D01*
X0292206Y0263069D01*
X0290509Y0265349D01*
X0288758Y0267587D01*
X0286953Y0269782D01*
X0285095Y0271933D01*
X0275595Y0106433D02*
X0273444Y0104575D01*
X0271249Y0102770D01*
X0269011Y0101019D01*
X0266731Y0099322D01*
X0264411Y0097681D01*
X0262051Y0096096D01*
X0259655Y0094569D01*
X0257222Y0093100D01*
X0254754Y0091690D01*
X0252253Y0090340D01*
X0249720Y0089051D01*
X0247157Y0087823D01*
X0244565Y0086658D01*
X0241946Y0085555D01*
X0239300Y0084517D01*
X0236631Y0083542D01*
X0233938Y0082632D01*
X0231225Y0081787D01*
X0228492Y0081008D01*
X0225740Y0080295D01*
X0222973Y0079649D01*
X0220191Y0079070D01*
X0217395Y0078558D01*
X0214588Y0078114D01*
X0211771Y0077738D01*
X0208946Y0077430D01*
X0206114Y0077190D01*
X0203277Y0077018D01*
X0200437Y0076915D01*
X0197595Y0076881D01*
X0194753Y0076915D01*
X0191913Y0077018D01*
X0189076Y0077190D01*
X0186244Y0077430D01*
X0183419Y0077738D01*
X0180602Y0078114D01*
X0177795Y0078558D01*
X0174999Y0079070D01*
X0172217Y0079649D01*
X0169450Y0080295D01*
X0166698Y0081008D01*
X0163965Y0081787D01*
X0161252Y0082632D01*
X0158559Y0083542D01*
X0155890Y0084517D01*
X0153244Y0085555D01*
X0150625Y0086658D01*
X0148033Y0087823D01*
X0145470Y0089051D01*
X0142937Y0090340D01*
X0140436Y0091690D01*
X0137968Y0093100D01*
X0135535Y0094569D01*
X0133139Y0096096D01*
X0130779Y0097681D01*
X0128459Y0099322D01*
X0126179Y0101019D01*
X0123941Y0102770D01*
X0121746Y0104575D01*
X0119595Y0106433D01*
X0119595Y0281433D02*
X0121746Y0283291D01*
X0123941Y0285096D01*
X0126179Y0286847D01*
X0128459Y0288544D01*
X0130779Y0290185D01*
X0133139Y0291770D01*
X0135535Y0293297D01*
X0137968Y0294766D01*
X0140436Y0296176D01*
X0142937Y0297526D01*
X0145470Y0298815D01*
X0148033Y0300043D01*
X0150625Y0301208D01*
X0153244Y0302311D01*
X0155890Y0303349D01*
X0158559Y0304324D01*
X0161252Y0305234D01*
X0163965Y0306079D01*
X0166698Y0306858D01*
X0169450Y0307571D01*
X0172217Y0308217D01*
X0174999Y0308796D01*
X0177795Y0309308D01*
X0180602Y0309752D01*
X0183419Y0310128D01*
X0186244Y0310436D01*
X0189076Y0310676D01*
X0191913Y0310848D01*
X0194753Y0310951D01*
X0197595Y0310985D01*
X0200437Y0310951D01*
X0203277Y0310848D01*
X0206114Y0310676D01*
X0208946Y0310436D01*
X0211771Y0310128D01*
X0214588Y0309752D01*
X0217395Y0309308D01*
X0220191Y0308796D01*
X0222973Y0308217D01*
X0225740Y0307571D01*
X0228492Y0306858D01*
X0231225Y0306079D01*
X0233938Y0305234D01*
X0236631Y0304324D01*
X0239300Y0303349D01*
X0241946Y0302311D01*
X0244565Y0301208D01*
X0247157Y0300043D01*
X0249720Y0298815D01*
X0252253Y0297526D01*
X0254754Y0296176D01*
X0257222Y0294766D01*
X0259655Y0293297D01*
X0262051Y0291770D01*
X0264411Y0290185D01*
X0266731Y0288544D01*
X0269011Y0286847D01*
X0271249Y0285096D01*
X0273444Y0283291D01*
X0275595Y0281433D01*
X0236595Y0145433D02*
X0235385Y0144495D01*
X0234153Y0143587D01*
X0232899Y0142709D01*
X0231624Y0141862D01*
X0230329Y0141046D01*
X0229014Y0140262D01*
X0227681Y0139511D01*
X0226329Y0138792D01*
X0224960Y0138107D01*
X0223575Y0137455D01*
X0222175Y0136837D01*
X0220759Y0136254D01*
X0219330Y0135705D01*
X0217888Y0135192D01*
X0216434Y0134714D01*
X0214968Y0134271D01*
X0213493Y0133865D01*
X0212007Y0133494D01*
X0210513Y0133160D01*
X0209012Y0132863D01*
X0207503Y0132603D01*
X0205989Y0132379D01*
X0204470Y0132192D01*
X0202946Y0132043D01*
X0201420Y0131931D01*
X0199891Y0131856D01*
X0198360Y0131819D01*
X0196830Y0131819D01*
X0195299Y0131856D01*
X0193770Y0131931D01*
X0192244Y0132043D01*
X0190720Y0132192D01*
X0189201Y0132379D01*
X0187687Y0132603D01*
X0186178Y0132863D01*
X0184677Y0133160D01*
X0183183Y0133494D01*
X0181697Y0133865D01*
X0180222Y0134271D01*
X0178756Y0134714D01*
X0177302Y0135192D01*
X0175860Y0135705D01*
X0174431Y0136254D01*
X0173015Y0136837D01*
X0171615Y0137455D01*
X0170230Y0138107D01*
X0168861Y0138792D01*
X0167509Y0139511D01*
X0166176Y0140262D01*
X0164861Y0141046D01*
X0163566Y0141862D01*
X0162291Y0142709D01*
X0161037Y0143587D01*
X0159805Y0144495D01*
X0158595Y0145433D01*
X0158595Y0242433D02*
X0159805Y0243371D01*
X0161037Y0244279D01*
X0162291Y0245157D01*
X0163566Y0246004D01*
X0164861Y0246820D01*
X0166176Y0247604D01*
X0167509Y0248355D01*
X0168861Y0249074D01*
X0170230Y0249759D01*
X0171615Y0250411D01*
X0173015Y0251029D01*
X0174431Y0251612D01*
X0175860Y0252161D01*
X0177302Y0252674D01*
X0178756Y0253152D01*
X0180222Y0253595D01*
X0181697Y0254001D01*
X0183183Y0254372D01*
X0184677Y0254706D01*
X0186178Y0255003D01*
X0187687Y0255263D01*
X0189201Y0255487D01*
X0190720Y0255674D01*
X0192244Y0255823D01*
X0193770Y0255935D01*
X0195299Y0256010D01*
X0196830Y0256047D01*
X0198360Y0256047D01*
X0199891Y0256010D01*
X0201420Y0255935D01*
X0202946Y0255823D01*
X0204470Y0255674D01*
X0205989Y0255487D01*
X0207503Y0255263D01*
X0209012Y0255003D01*
X0210513Y0254706D01*
X0212007Y0254372D01*
X0213493Y0254001D01*
X0214968Y0253595D01*
X0216434Y0253152D01*
X0217888Y0252674D01*
X0219330Y0252161D01*
X0220759Y0251612D01*
X0222175Y0251029D01*
X0223575Y0250411D01*
X0224960Y0249759D01*
X0226329Y0249074D01*
X0227681Y0248355D01*
X0229014Y0247604D01*
X0230329Y0246820D01*
X0231624Y0246004D01*
X0232899Y0245157D01*
X0234153Y0244279D01*
X0235385Y0243371D01*
X0236595Y0242433D01*
X0256095Y0125934D02*
X0254408Y0124528D01*
X0252687Y0123164D01*
X0250934Y0121843D01*
X0249149Y0120564D01*
X0247334Y0119330D01*
X0245489Y0118140D01*
X0243615Y0116995D01*
X0241714Y0115897D01*
X0239787Y0114845D01*
X0237835Y0113840D01*
X0235859Y0112883D01*
X0233860Y0111975D01*
X0231840Y0111116D01*
X0229799Y0110306D01*
X0227740Y0109546D01*
X0225662Y0108836D01*
X0223568Y0108178D01*
X0221458Y0107570D01*
X0219334Y0107015D01*
X0217197Y0106511D01*
X0215048Y0106059D01*
X0212889Y0105660D01*
X0210721Y0105314D01*
X0208546Y0105020D01*
X0206363Y0104780D01*
X0204176Y0104593D01*
X0201984Y0104459D01*
X0199790Y0104379D01*
X0197595Y0104352D01*
X0195400Y0104379D01*
X0193206Y0104459D01*
X0191014Y0104593D01*
X0188827Y0104780D01*
X0186644Y0105020D01*
X0184469Y0105314D01*
X0182301Y0105660D01*
X0180142Y0106059D01*
X0177993Y0106511D01*
X0175856Y0107015D01*
X0173732Y0107570D01*
X0171622Y0108178D01*
X0169528Y0108836D01*
X0167450Y0109546D01*
X0165391Y0110306D01*
X0163350Y0111116D01*
X0161330Y0111975D01*
X0159331Y0112883D01*
X0157355Y0113840D01*
X0155403Y0114845D01*
X0153476Y0115897D01*
X0151575Y0116995D01*
X0149701Y0118140D01*
X0147856Y0119330D01*
X0146041Y0120564D01*
X0144256Y0121843D01*
X0142503Y0123164D01*
X0140782Y0124528D01*
X0139095Y0125934D01*
X0139095Y0261932D02*
X0140782Y0263338D01*
X0142503Y0264702D01*
X0144256Y0266023D01*
X0146041Y0267302D01*
X0147856Y0268536D01*
X0149701Y0269726D01*
X0151575Y0270871D01*
X0153476Y0271969D01*
X0155403Y0273021D01*
X0157355Y0274026D01*
X0159331Y0274983D01*
X0161330Y0275891D01*
X0163350Y0276750D01*
X0165391Y0277560D01*
X0167450Y0278320D01*
X0169528Y0279030D01*
X0171622Y0279688D01*
X0173732Y0280296D01*
X0175856Y0280851D01*
X0177993Y0281355D01*
X0180142Y0281807D01*
X0182301Y0282206D01*
X0184469Y0282552D01*
X0186644Y0282846D01*
X0188827Y0283086D01*
X0191014Y0283273D01*
X0193206Y0283407D01*
X0195400Y0283487D01*
X0197595Y0283514D01*
X0199790Y0283487D01*
X0201984Y0283407D01*
X0204176Y0283273D01*
X0206363Y0283086D01*
X0208546Y0282846D01*
X0210721Y0282552D01*
X0212889Y0282206D01*
X0215048Y0281807D01*
X0217197Y0281355D01*
X0219334Y0280851D01*
X0221458Y0280296D01*
X0223568Y0279688D01*
X0225662Y0279030D01*
X0227740Y0278320D01*
X0229799Y0277560D01*
X0231840Y0276750D01*
X0233860Y0275891D01*
X0235859Y0274983D01*
X0237835Y0274026D01*
X0239787Y0273021D01*
X0241714Y0271969D01*
X0243615Y0270871D01*
X0245489Y0269726D01*
X0247334Y0268536D01*
X0249149Y0267302D01*
X0250934Y0266023D01*
X0252687Y0264702D01*
X0254408Y0263338D01*
X0256095Y0261932D01*
X0149095Y0232933D02*
X0148157Y0231723D01*
X0147249Y0230491D01*
X0146371Y0229237D01*
X0145524Y0227962D01*
X0144708Y0226667D01*
X0143924Y0225352D01*
X0143173Y0224019D01*
X0142454Y0222667D01*
X0141769Y0221298D01*
X0141117Y0219913D01*
X0140499Y0218513D01*
X0139916Y0217097D01*
X0139367Y0215668D01*
X0138854Y0214226D01*
X0138376Y0212772D01*
X0137933Y0211306D01*
X0137527Y0209831D01*
X0137156Y0208345D01*
X0136822Y0206851D01*
X0136525Y0205350D01*
X0136265Y0203841D01*
X0136041Y0202327D01*
X0135854Y0200808D01*
X0135705Y0199284D01*
X0135593Y0197758D01*
X0135518Y0196229D01*
X0135481Y0194698D01*
X0135481Y0193168D01*
X0135518Y0191637D01*
X0135593Y0190108D01*
X0135705Y0188582D01*
X0135854Y0187058D01*
X0136041Y0185539D01*
X0136265Y0184025D01*
X0136525Y0182516D01*
X0136822Y0181015D01*
X0137156Y0179521D01*
X0137527Y0178035D01*
X0137933Y0176560D01*
X0138376Y0175094D01*
X0138854Y0173640D01*
X0139367Y0172198D01*
X0139916Y0170769D01*
X0140499Y0169353D01*
X0141117Y0167953D01*
X0141769Y0166568D01*
X0142454Y0165199D01*
X0143173Y0163847D01*
X0143924Y0162514D01*
X0144708Y0161199D01*
X0145524Y0159904D01*
X0146371Y0158629D01*
X0147249Y0157375D01*
X0148157Y0156143D01*
X0149095Y0154933D01*
X0246095Y0154933D02*
X0247033Y0156143D01*
X0247941Y0157375D01*
X0248819Y0158629D01*
X0249666Y0159904D01*
X0250482Y0161199D01*
X0251266Y0162514D01*
X0252017Y0163847D01*
X0252736Y0165199D01*
X0253421Y0166568D01*
X0254073Y0167953D01*
X0254691Y0169353D01*
X0255274Y0170769D01*
X0255823Y0172198D01*
X0256336Y0173640D01*
X0256814Y0175094D01*
X0257257Y0176560D01*
X0257663Y0178035D01*
X0258034Y0179521D01*
X0258368Y0181015D01*
X0258665Y0182516D01*
X0258925Y0184025D01*
X0259149Y0185539D01*
X0259336Y0187058D01*
X0259485Y0188582D01*
X0259597Y0190108D01*
X0259672Y0191637D01*
X0259709Y0193168D01*
X0259709Y0194698D01*
X0259672Y0196229D01*
X0259597Y0197758D01*
X0259485Y0199284D01*
X0259336Y0200808D01*
X0259149Y0202327D01*
X0258925Y0203841D01*
X0258665Y0205350D01*
X0258368Y0206851D01*
X0258034Y0208345D01*
X0257663Y0209831D01*
X0257257Y0211306D01*
X0256814Y0212772D01*
X0256336Y0214226D01*
X0255823Y0215668D01*
X0255274Y0217097D01*
X0254691Y0218513D01*
X0254073Y0219913D01*
X0253421Y0221298D01*
X0252736Y0222667D01*
X0252017Y0224019D01*
X0251266Y0225352D01*
X0250482Y0226667D01*
X0249666Y0227962D01*
X0248819Y0229237D01*
X0247941Y0230491D01*
X0247033Y0231723D01*
X0246095Y0232933D01*
X0129596Y0252433D02*
X0128190Y0250746D01*
X0126826Y0249025D01*
X0125505Y0247272D01*
X0124226Y0245487D01*
X0122992Y0243672D01*
X0121802Y0241827D01*
X0120657Y0239953D01*
X0119559Y0238052D01*
X0118507Y0236125D01*
X0117502Y0234173D01*
X0116545Y0232197D01*
X0115637Y0230198D01*
X0114778Y0228178D01*
X0113968Y0226137D01*
X0113208Y0224078D01*
X0112498Y0222000D01*
X0111840Y0219906D01*
X0111232Y0217796D01*
X0110677Y0215672D01*
X0110173Y0213535D01*
X0109721Y0211386D01*
X0109322Y0209227D01*
X0108976Y0207059D01*
X0108682Y0204884D01*
X0108442Y0202701D01*
X0108255Y0200514D01*
X0108121Y0198322D01*
X0108041Y0196128D01*
X0108014Y0193933D01*
X0108041Y0191738D01*
X0108121Y0189544D01*
X0108255Y0187352D01*
X0108442Y0185165D01*
X0108682Y0182982D01*
X0108976Y0180807D01*
X0109322Y0178639D01*
X0109721Y0176480D01*
X0110173Y0174331D01*
X0110677Y0172194D01*
X0111232Y0170070D01*
X0111840Y0167960D01*
X0112498Y0165866D01*
X0113208Y0163788D01*
X0113968Y0161729D01*
X0114778Y0159688D01*
X0115637Y0157668D01*
X0116545Y0155669D01*
X0117502Y0153693D01*
X0118507Y0151741D01*
X0119559Y0149814D01*
X0120657Y0147913D01*
X0121802Y0146039D01*
X0122992Y0144194D01*
X0124226Y0142379D01*
X0125505Y0140594D01*
X0126826Y0138841D01*
X0128190Y0137120D01*
X0129596Y0135433D01*
X0265594Y0135433D02*
X0267000Y0137120D01*
X0268364Y0138841D01*
X0269685Y0140594D01*
X0270964Y0142379D01*
X0272198Y0144194D01*
X0273388Y0146039D01*
X0274533Y0147913D01*
X0275631Y0149814D01*
X0276683Y0151741D01*
X0277688Y0153693D01*
X0278645Y0155669D01*
X0279553Y0157668D01*
X0280412Y0159688D01*
X0281222Y0161729D01*
X0281982Y0163788D01*
X0282692Y0165866D01*
X0283350Y0167960D01*
X0283958Y0170070D01*
X0284513Y0172194D01*
X0285017Y0174331D01*
X0285469Y0176480D01*
X0285868Y0178639D01*
X0286214Y0180807D01*
X0286508Y0182982D01*
X0286748Y0185165D01*
X0286935Y0187352D01*
X0287069Y0189544D01*
X0287149Y0191738D01*
X0287176Y0193933D01*
X0287149Y0196128D01*
X0287069Y0198322D01*
X0286935Y0200514D01*
X0286748Y0202701D01*
X0286508Y0204884D01*
X0286214Y0207059D01*
X0285868Y0209227D01*
X0285469Y0211386D01*
X0285017Y0213535D01*
X0284513Y0215672D01*
X0283958Y0217796D01*
X0283350Y0219906D01*
X0282692Y0222000D01*
X0281982Y0224078D01*
X0281222Y0226137D01*
X0280412Y0228178D01*
X0279553Y0230198D01*
X0278645Y0232197D01*
X0277688Y0234173D01*
X0276683Y0236125D01*
X0275631Y0238052D01*
X0274533Y0239953D01*
X0273388Y0241827D01*
X0272198Y0243672D01*
X0270964Y0245487D01*
X0269685Y0247272D01*
X0268364Y0249025D01*
X0267000Y0250746D01*
X0265594Y0252433D01*
X0226845Y0213183D02*
X0227302Y0212474D01*
X0227742Y0211753D01*
X0228164Y0211022D01*
X0228569Y0210281D01*
X0228955Y0209530D01*
X0229322Y0208771D01*
X0229672Y0208002D01*
X0230002Y0207225D01*
X0230313Y0206441D01*
X0230605Y0205648D01*
X0230878Y0204850D01*
X0231131Y0204044D01*
X0231364Y0203233D01*
X0231578Y0202416D01*
X0231771Y0201595D01*
X0231945Y0200769D01*
X0232098Y0199939D01*
X0232231Y0199105D01*
X0232344Y0198268D01*
X0232437Y0197429D01*
X0232508Y0196588D01*
X0232560Y0195746D01*
X0232591Y0194902D01*
X0232601Y0194058D01*
X0232591Y0193214D01*
X0232560Y0192370D01*
X0232508Y0191528D01*
X0232437Y0190687D01*
X0232344Y0189848D01*
X0232231Y0189011D01*
X0232098Y0188177D01*
X0231945Y0187347D01*
X0231771Y0186521D01*
X0231578Y0185700D01*
X0231364Y0184883D01*
X0231131Y0184072D01*
X0230878Y0183266D01*
X0230605Y0182468D01*
X0230313Y0181675D01*
X0230002Y0180891D01*
X0229672Y0180114D01*
X0229322Y0179345D01*
X0228955Y0178586D01*
X0228569Y0177835D01*
X0228164Y0177094D01*
X0227742Y0176363D01*
X0227302Y0175642D01*
X0226845Y0174933D01*
X0239345Y0162183D02*
X0240103Y0163195D01*
X0240835Y0164226D01*
X0241543Y0165273D01*
X0242225Y0166338D01*
X0242881Y0167419D01*
X0243510Y0168515D01*
X0244113Y0169627D01*
X0244688Y0170752D01*
X0245236Y0171891D01*
X0245757Y0173044D01*
X0246249Y0174208D01*
X0246713Y0175384D01*
X0247148Y0176571D01*
X0247555Y0177768D01*
X0247932Y0178975D01*
X0248280Y0180190D01*
X0248598Y0181414D01*
X0248887Y0182645D01*
X0249145Y0183882D01*
X0249374Y0185125D01*
X0249572Y0186374D01*
X0249740Y0187627D01*
X0249878Y0188884D01*
X0249985Y0190144D01*
X0250062Y0191405D01*
X0250108Y0192669D01*
X0250123Y0193933D01*
X0250108Y0195197D01*
X0250062Y0196461D01*
X0249985Y0197722D01*
X0249878Y0198982D01*
X0249740Y0200239D01*
X0249572Y0201492D01*
X0249374Y0202741D01*
X0249145Y0203984D01*
X0248887Y0205221D01*
X0248598Y0206452D01*
X0248280Y0207676D01*
X0247932Y0208891D01*
X0247555Y0210098D01*
X0247148Y0211295D01*
X0246713Y0212482D01*
X0246249Y0213658D01*
X0245757Y0214822D01*
X0245236Y0215975D01*
X0244688Y0217114D01*
X0244113Y0218239D01*
X0243510Y0219351D01*
X0242881Y0220447D01*
X0242225Y0221528D01*
X0241543Y0222593D01*
X0240835Y0223640D01*
X0240103Y0224671D01*
X0239345Y0225683D01*
X0218595Y0204933D02*
X0218858Y0204424D01*
X0219108Y0203909D01*
X0219345Y0203388D01*
X0219570Y0202862D01*
X0219782Y0202330D01*
X0219980Y0201793D01*
X0220166Y0201251D01*
X0220338Y0200705D01*
X0220497Y0200155D01*
X0220642Y0199601D01*
X0220774Y0199044D01*
X0220892Y0198484D01*
X0220996Y0197921D01*
X0221087Y0197356D01*
X0221163Y0196789D01*
X0221226Y0196219D01*
X0221275Y0195649D01*
X0221310Y0195078D01*
X0221331Y0194505D01*
X0221338Y0193933D01*
X0221331Y0193361D01*
X0221310Y0192788D01*
X0221275Y0192217D01*
X0221226Y0191647D01*
X0221163Y0191077D01*
X0221087Y0190510D01*
X0220996Y0189945D01*
X0220892Y0189382D01*
X0220774Y0188822D01*
X0220642Y0188265D01*
X0220497Y0187711D01*
X0220338Y0187161D01*
X0220166Y0186615D01*
X0219980Y0186073D01*
X0219782Y0185536D01*
X0219570Y0185004D01*
X0219345Y0184478D01*
X0219108Y0183957D01*
X0218858Y0183442D01*
X0218595Y0182933D01*
X0216845Y0164683D02*
X0216136Y0164226D01*
X0215415Y0163786D01*
X0214684Y0163364D01*
X0213943Y0162959D01*
X0213192Y0162573D01*
X0212433Y0162206D01*
X0211664Y0161856D01*
X0210887Y0161526D01*
X0210103Y0161215D01*
X0209310Y0160923D01*
X0208512Y0160650D01*
X0207706Y0160397D01*
X0206895Y0160164D01*
X0206078Y0159950D01*
X0205257Y0159757D01*
X0204431Y0159583D01*
X0203601Y0159430D01*
X0202767Y0159297D01*
X0201930Y0159184D01*
X0201091Y0159091D01*
X0200250Y0159020D01*
X0199408Y0158968D01*
X0198564Y0158937D01*
X0197720Y0158927D01*
X0196876Y0158937D01*
X0196032Y0158968D01*
X0195190Y0159020D01*
X0194349Y0159091D01*
X0193510Y0159184D01*
X0192673Y0159297D01*
X0191839Y0159430D01*
X0191009Y0159583D01*
X0190183Y0159757D01*
X0189362Y0159950D01*
X0188545Y0160164D01*
X0187734Y0160397D01*
X0186928Y0160650D01*
X0186130Y0160923D01*
X0185337Y0161215D01*
X0184553Y0161526D01*
X0183776Y0161856D01*
X0183007Y0162206D01*
X0182248Y0162573D01*
X0181497Y0162959D01*
X0180756Y0163364D01*
X0180025Y0163786D01*
X0179304Y0164226D01*
X0178595Y0164683D01*
X0165845Y0152183D02*
X0166857Y0151425D01*
X0167888Y0150693D01*
X0168935Y0149985D01*
X0170000Y0149303D01*
X0171081Y0148647D01*
X0172177Y0148018D01*
X0173289Y0147415D01*
X0174414Y0146840D01*
X0175553Y0146292D01*
X0176706Y0145771D01*
X0177870Y0145279D01*
X0179046Y0144815D01*
X0180233Y0144380D01*
X0181430Y0143973D01*
X0182637Y0143596D01*
X0183852Y0143248D01*
X0185076Y0142930D01*
X0186307Y0142641D01*
X0187544Y0142383D01*
X0188787Y0142154D01*
X0190036Y0141956D01*
X0191289Y0141788D01*
X0192546Y0141650D01*
X0193806Y0141543D01*
X0195067Y0141466D01*
X0196331Y0141420D01*
X0197595Y0141405D01*
X0198859Y0141420D01*
X0200123Y0141466D01*
X0201384Y0141543D01*
X0202644Y0141650D01*
X0203901Y0141788D01*
X0205154Y0141956D01*
X0206403Y0142154D01*
X0207646Y0142383D01*
X0208883Y0142641D01*
X0210114Y0142930D01*
X0211338Y0143248D01*
X0212553Y0143596D01*
X0213760Y0143973D01*
X0214957Y0144380D01*
X0216144Y0144815D01*
X0217320Y0145279D01*
X0218484Y0145771D01*
X0219637Y0146292D01*
X0220776Y0146840D01*
X0221901Y0147415D01*
X0223013Y0148018D01*
X0224109Y0148647D01*
X0225190Y0149303D01*
X0226255Y0149985D01*
X0227302Y0150693D01*
X0228333Y0151425D01*
X0229345Y0152183D01*
X0208595Y0172933D02*
X0208086Y0172670D01*
X0207571Y0172420D01*
X0207050Y0172183D01*
X0206524Y0171958D01*
X0205992Y0171746D01*
X0205455Y0171548D01*
X0204913Y0171362D01*
X0204367Y0171190D01*
X0203817Y0171031D01*
X0203263Y0170886D01*
X0202706Y0170754D01*
X0202146Y0170636D01*
X0201583Y0170532D01*
X0201018Y0170441D01*
X0200451Y0170365D01*
X0199881Y0170302D01*
X0199311Y0170253D01*
X0198740Y0170218D01*
X0198167Y0170197D01*
X0197595Y0170190D01*
X0197023Y0170197D01*
X0196450Y0170218D01*
X0195879Y0170253D01*
X0195309Y0170302D01*
X0194739Y0170365D01*
X0194172Y0170441D01*
X0193607Y0170532D01*
X0193044Y0170636D01*
X0192484Y0170754D01*
X0191927Y0170886D01*
X0191373Y0171031D01*
X0190823Y0171190D01*
X0190277Y0171362D01*
X0189735Y0171548D01*
X0189198Y0171746D01*
X0188666Y0171958D01*
X0188140Y0172183D01*
X0187619Y0172420D01*
X0187104Y0172670D01*
X0186595Y0172933D01*
X0168345Y0174683D02*
X0167888Y0175392D01*
X0167448Y0176113D01*
X0167026Y0176844D01*
X0166621Y0177585D01*
X0166235Y0178336D01*
X0165868Y0179095D01*
X0165518Y0179864D01*
X0165188Y0180641D01*
X0164877Y0181425D01*
X0164585Y0182218D01*
X0164312Y0183016D01*
X0164059Y0183822D01*
X0163826Y0184633D01*
X0163612Y0185450D01*
X0163419Y0186271D01*
X0163245Y0187097D01*
X0163092Y0187927D01*
X0162959Y0188761D01*
X0162846Y0189598D01*
X0162753Y0190437D01*
X0162682Y0191278D01*
X0162630Y0192120D01*
X0162599Y0192964D01*
X0162589Y0193808D01*
X0162599Y0194652D01*
X0162630Y0195496D01*
X0162682Y0196338D01*
X0162753Y0197179D01*
X0162846Y0198018D01*
X0162959Y0198855D01*
X0163092Y0199689D01*
X0163245Y0200519D01*
X0163419Y0201345D01*
X0163612Y0202166D01*
X0163826Y0202983D01*
X0164059Y0203794D01*
X0164312Y0204600D01*
X0164585Y0205398D01*
X0164877Y0206191D01*
X0165188Y0206975D01*
X0165518Y0207752D01*
X0165868Y0208521D01*
X0166235Y0209280D01*
X0166621Y0210031D01*
X0167026Y0210772D01*
X0167448Y0211503D01*
X0167888Y0212224D01*
X0168345Y0212933D01*
X0155846Y0225683D02*
X0155088Y0224671D01*
X0154356Y0223640D01*
X0153648Y0222593D01*
X0152966Y0221528D01*
X0152310Y0220447D01*
X0151681Y0219351D01*
X0151078Y0218239D01*
X0150503Y0217114D01*
X0149955Y0215975D01*
X0149434Y0214822D01*
X0148942Y0213658D01*
X0148478Y0212482D01*
X0148043Y0211295D01*
X0147636Y0210098D01*
X0147259Y0208891D01*
X0146911Y0207676D01*
X0146593Y0206452D01*
X0146304Y0205221D01*
X0146046Y0203984D01*
X0145817Y0202741D01*
X0145619Y0201492D01*
X0145451Y0200239D01*
X0145313Y0198982D01*
X0145206Y0197722D01*
X0145129Y0196461D01*
X0145083Y0195197D01*
X0145068Y0193933D01*
X0145083Y0192669D01*
X0145129Y0191405D01*
X0145206Y0190144D01*
X0145313Y0188884D01*
X0145451Y0187627D01*
X0145619Y0186374D01*
X0145817Y0185125D01*
X0146046Y0183882D01*
X0146304Y0182645D01*
X0146593Y0181414D01*
X0146911Y0180190D01*
X0147259Y0178975D01*
X0147636Y0177768D01*
X0148043Y0176571D01*
X0148478Y0175384D01*
X0148942Y0174208D01*
X0149434Y0173044D01*
X0149955Y0171891D01*
X0150503Y0170752D01*
X0151078Y0169627D01*
X0151681Y0168515D01*
X0152310Y0167419D01*
X0152966Y0166338D01*
X0153648Y0165273D01*
X0154356Y0164226D01*
X0155088Y0163195D01*
X0155846Y0162183D01*
X0176595Y0182933D02*
X0176332Y0183442D01*
X0176082Y0183957D01*
X0175845Y0184478D01*
X0175620Y0185004D01*
X0175408Y0185536D01*
X0175210Y0186073D01*
X0175024Y0186615D01*
X0174852Y0187161D01*
X0174693Y0187711D01*
X0174548Y0188265D01*
X0174416Y0188822D01*
X0174298Y0189382D01*
X0174194Y0189945D01*
X0174103Y0190510D01*
X0174027Y0191077D01*
X0173964Y0191647D01*
X0173915Y0192217D01*
X0173880Y0192788D01*
X0173859Y0193361D01*
X0173852Y0193933D01*
X0173859Y0194505D01*
X0173880Y0195078D01*
X0173915Y0195649D01*
X0173964Y0196219D01*
X0174027Y0196789D01*
X0174103Y0197356D01*
X0174194Y0197921D01*
X0174298Y0198484D01*
X0174416Y0199044D01*
X0174548Y0199601D01*
X0174693Y0200155D01*
X0174852Y0200705D01*
X0175024Y0201251D01*
X0175210Y0201793D01*
X0175408Y0202330D01*
X0175620Y0202862D01*
X0175845Y0203388D01*
X0176082Y0203909D01*
X0176332Y0204424D01*
X0176595Y0204933D01*
X0178345Y0223183D02*
X0179054Y0223640D01*
X0179775Y0224080D01*
X0180506Y0224502D01*
X0181247Y0224907D01*
X0181998Y0225293D01*
X0182757Y0225660D01*
X0183526Y0226010D01*
X0184303Y0226340D01*
X0185087Y0226651D01*
X0185880Y0226943D01*
X0186678Y0227216D01*
X0187484Y0227469D01*
X0188295Y0227702D01*
X0189112Y0227916D01*
X0189933Y0228109D01*
X0190759Y0228283D01*
X0191589Y0228436D01*
X0192423Y0228569D01*
X0193260Y0228682D01*
X0194099Y0228775D01*
X0194940Y0228846D01*
X0195782Y0228898D01*
X0196626Y0228929D01*
X0197470Y0228939D01*
X0198314Y0228929D01*
X0199158Y0228898D01*
X0200000Y0228846D01*
X0200841Y0228775D01*
X0201680Y0228682D01*
X0202517Y0228569D01*
X0203351Y0228436D01*
X0204181Y0228283D01*
X0205007Y0228109D01*
X0205828Y0227916D01*
X0206645Y0227702D01*
X0207456Y0227469D01*
X0208262Y0227216D01*
X0209060Y0226943D01*
X0209853Y0226651D01*
X0210637Y0226340D01*
X0211414Y0226010D01*
X0212183Y0225660D01*
X0212942Y0225293D01*
X0213693Y0224907D01*
X0214434Y0224502D01*
X0215165Y0224080D01*
X0215886Y0223640D01*
X0216595Y0223183D01*
X0229345Y0235683D02*
X0228333Y0236441D01*
X0227302Y0237173D01*
X0226255Y0237881D01*
X0225190Y0238563D01*
X0224109Y0239219D01*
X0223013Y0239848D01*
X0221901Y0240451D01*
X0220776Y0241026D01*
X0219637Y0241574D01*
X0218484Y0242095D01*
X0217320Y0242587D01*
X0216144Y0243051D01*
X0214957Y0243486D01*
X0213760Y0243893D01*
X0212553Y0244270D01*
X0211338Y0244618D01*
X0210114Y0244936D01*
X0208883Y0245225D01*
X0207646Y0245483D01*
X0206403Y0245712D01*
X0205154Y0245910D01*
X0203901Y0246078D01*
X0202644Y0246216D01*
X0201384Y0246323D01*
X0200123Y0246400D01*
X0198859Y0246446D01*
X0197595Y0246461D01*
X0196331Y0246446D01*
X0195067Y0246400D01*
X0193806Y0246323D01*
X0192546Y0246216D01*
X0191289Y0246078D01*
X0190036Y0245910D01*
X0188787Y0245712D01*
X0187544Y0245483D01*
X0186307Y0245225D01*
X0185076Y0244936D01*
X0183852Y0244618D01*
X0182637Y0244270D01*
X0181430Y0243893D01*
X0180233Y0243486D01*
X0179046Y0243051D01*
X0177870Y0242587D01*
X0176706Y0242095D01*
X0175553Y0241574D01*
X0174414Y0241026D01*
X0173289Y0240451D01*
X0172177Y0239848D01*
X0171081Y0239219D01*
X0170000Y0238563D01*
X0168935Y0237881D01*
X0167888Y0237173D01*
X0166857Y0236441D01*
X0165845Y0235683D01*
X0186595Y0214933D02*
X0187104Y0215196D01*
X0187619Y0215446D01*
X0188140Y0215683D01*
X0188666Y0215908D01*
X0189198Y0216120D01*
X0189735Y0216318D01*
X0190277Y0216504D01*
X0190823Y0216676D01*
X0191373Y0216835D01*
X0191927Y0216980D01*
X0192484Y0217112D01*
X0193044Y0217230D01*
X0193607Y0217334D01*
X0194172Y0217425D01*
X0194739Y0217501D01*
X0195309Y0217564D01*
X0195879Y0217613D01*
X0196450Y0217648D01*
X0197023Y0217669D01*
X0197595Y0217676D01*
X0198167Y0217669D01*
X0198740Y0217648D01*
X0199311Y0217613D01*
X0199881Y0217564D01*
X0200451Y0217501D01*
X0201018Y0217425D01*
X0201583Y0217334D01*
X0202146Y0217230D01*
X0202706Y0217112D01*
X0203263Y0216980D01*
X0203817Y0216835D01*
X0204367Y0216676D01*
X0204913Y0216504D01*
X0205455Y0216318D01*
X0205992Y0216120D01*
X0206524Y0215908D01*
X0207050Y0215683D01*
X0207571Y0215446D01*
X0208086Y0215196D01*
X0208595Y0214933D01*
X0067095Y0158933D02*
X0067985Y0155783D01*
X0068950Y0152656D01*
X0069991Y0149553D01*
X0071107Y0146476D01*
X0072296Y0143428D01*
X0073560Y0140408D01*
X0074896Y0137421D01*
X0076304Y0134466D01*
X0077783Y0131547D01*
X0079332Y0128664D01*
X0080951Y0125820D01*
X0082638Y0123015D01*
X0084393Y0120253D01*
X0086214Y0117533D01*
X0088100Y0114859D01*
X0090051Y0112231D01*
X0092064Y0109651D01*
X0094139Y0107120D01*
X0096276Y0104640D01*
X0098471Y0102213D01*
X0100725Y0099840D01*
X0103035Y0097522D01*
X0105401Y0095261D01*
X0107821Y0093057D01*
X0110293Y0090913D01*
X0112817Y0088829D01*
X0115391Y0086807D01*
X0118012Y0084848D01*
X0120681Y0082953D01*
X0123394Y0081124D01*
X0126151Y0079360D01*
X0128950Y0077664D01*
X0131789Y0076036D01*
X0134667Y0074477D01*
X0137582Y0072988D01*
X0140531Y0071571D01*
X0143515Y0070225D01*
X0146530Y0068952D01*
X0149575Y0067752D01*
X0152648Y0066626D01*
X0155747Y0065575D01*
X0158871Y0064599D01*
X0162018Y0063700D01*
X0165185Y0062877D01*
X0168372Y0062130D01*
X0171576Y0061461D01*
X0174795Y0060870D01*
X0178027Y0060357D01*
X0181271Y0059923D01*
X0184524Y0059567D01*
X0187785Y0059289D01*
X0191052Y0059091D01*
X0194322Y0058973D01*
X0197595Y0058933D01*
X0200857Y0058972D01*
X0204117Y0059091D01*
X0207374Y0059288D01*
X0210624Y0059563D01*
X0213867Y0059917D01*
X0217101Y0060350D01*
X0220323Y0060860D01*
X0223532Y0061448D01*
X0226726Y0062113D01*
X0229903Y0062856D01*
X0233060Y0063675D01*
X0236198Y0064570D01*
X0239312Y0065540D01*
X0242403Y0066586D01*
X0245467Y0067706D01*
X0248503Y0068899D01*
X0251509Y0070166D01*
X0254484Y0071505D01*
X0257426Y0072915D01*
X0260333Y0074396D01*
X0263203Y0075947D01*
X0266035Y0077567D01*
X0268826Y0079255D01*
X0271577Y0081010D01*
X0274284Y0082830D01*
X0276946Y0084716D01*
X0279562Y0086665D01*
X0282130Y0088677D01*
X0284649Y0090750D01*
X0287117Y0092884D01*
X0289532Y0095077D01*
X0291894Y0097327D01*
X0294201Y0099634D01*
X0296451Y0101996D01*
X0298644Y0104411D01*
X0300778Y0106879D01*
X0302851Y0109398D01*
X0304863Y0111966D01*
X0306812Y0114582D01*
X0308698Y0117244D01*
X0310518Y0119951D01*
X0312273Y0122702D01*
X0313961Y0125493D01*
X0315581Y0128325D01*
X0317132Y0131195D01*
X0318613Y0134102D01*
X0320023Y0137044D01*
X0321362Y0140019D01*
X0322629Y0143025D01*
X0323822Y0146061D01*
X0324942Y0149125D01*
X0325988Y0152216D01*
X0326958Y0155330D01*
X0327853Y0158468D01*
X0328672Y0161625D01*
X0329415Y0164802D01*
X0330080Y0167996D01*
X0330668Y0171205D01*
X0331178Y0174427D01*
X0331611Y0177661D01*
X0331965Y0180904D01*
X0332240Y0184154D01*
X0332437Y0187411D01*
X0332556Y0190671D01*
X0332595Y0193933D01*
X0595095Y0115933D02*
X0596953Y0118084D01*
X0598758Y0120279D01*
X0600509Y0122517D01*
X0602206Y0124797D01*
X0603847Y0127117D01*
X0605432Y0129477D01*
X0606959Y0131873D01*
X0608428Y0134306D01*
X0609838Y0136774D01*
X0611188Y0139275D01*
X0612477Y0141808D01*
X0613705Y0144371D01*
X0614870Y0146963D01*
X0615973Y0149582D01*
X0617011Y0152228D01*
X0617986Y0154897D01*
X0618896Y0157590D01*
X0619741Y0160303D01*
X0620520Y0163036D01*
X0621233Y0165788D01*
X0621879Y0168555D01*
X0622458Y0171337D01*
X0622970Y0174133D01*
X0623414Y0176940D01*
X0623790Y0179757D01*
X0624098Y0182582D01*
X0624338Y0185414D01*
X0624510Y0188251D01*
X0624613Y0191091D01*
X0624647Y0193933D01*
X0624613Y0196775D01*
X0624510Y0199615D01*
X0624338Y0202452D01*
X0624098Y0205284D01*
X0623790Y0208109D01*
X0623414Y0210926D01*
X0622970Y0213733D01*
X0622458Y0216529D01*
X0621879Y0219311D01*
X0621233Y0222078D01*
X0620520Y0224830D01*
X0619741Y0227563D01*
X0618896Y0230276D01*
X0617986Y0232969D01*
X0617011Y0235638D01*
X0615973Y0238284D01*
X0614870Y0240903D01*
X0613705Y0243495D01*
X0612477Y0246058D01*
X0611188Y0248591D01*
X0609838Y0251092D01*
X0608428Y0253560D01*
X0606959Y0255993D01*
X0605432Y0258389D01*
X0603847Y0260749D01*
X0602206Y0263069D01*
X0600509Y0265349D01*
X0598758Y0267587D01*
X0596953Y0269782D01*
X0595095Y0271933D01*
X0588345Y0264683D02*
X0590030Y0262732D01*
X0591667Y0260741D01*
X0593256Y0258710D01*
X0594795Y0256642D01*
X0596283Y0254538D01*
X0597721Y0252398D01*
X0599106Y0250224D01*
X0600439Y0248017D01*
X0601718Y0245779D01*
X0602942Y0243511D01*
X0604111Y0241213D01*
X0605225Y0238888D01*
X0606282Y0236537D01*
X0607282Y0234161D01*
X0608224Y0231762D01*
X0609108Y0229340D01*
X0609934Y0226898D01*
X0610700Y0224437D01*
X0611407Y0221958D01*
X0612053Y0219462D01*
X0612639Y0216952D01*
X0613165Y0214428D01*
X0613629Y0211893D01*
X0614032Y0209346D01*
X0614373Y0206791D01*
X0614652Y0204229D01*
X0614870Y0201660D01*
X0615026Y0199087D01*
X0615119Y0196511D01*
X0615150Y0193933D01*
X0615119Y0191355D01*
X0615026Y0188779D01*
X0614870Y0186206D01*
X0614652Y0183637D01*
X0614373Y0181075D01*
X0614032Y0178520D01*
X0613629Y0175973D01*
X0613165Y0173438D01*
X0612639Y0170914D01*
X0612053Y0168404D01*
X0611407Y0165908D01*
X0610700Y0163429D01*
X0609934Y0160968D01*
X0609108Y0158526D01*
X0608224Y0156104D01*
X0607282Y0153705D01*
X0606282Y0151329D01*
X0605225Y0148978D01*
X0604111Y0146653D01*
X0602942Y0144355D01*
X0601718Y0142087D01*
X0600439Y0139849D01*
X0599106Y0137642D01*
X0597721Y0135468D01*
X0596283Y0133328D01*
X0594795Y0131224D01*
X0593256Y0129156D01*
X0591667Y0127125D01*
X0590030Y0125134D01*
X0588345Y0123183D01*
X0578345Y0113183D02*
X0576394Y0111498D01*
X0574403Y0109861D01*
X0572372Y0108272D01*
X0570304Y0106733D01*
X0568200Y0105245D01*
X0566060Y0103807D01*
X0563886Y0102422D01*
X0561679Y0101089D01*
X0559441Y0099810D01*
X0557173Y0098586D01*
X0554875Y0097417D01*
X0552550Y0096303D01*
X0550199Y0095246D01*
X0547823Y0094246D01*
X0545424Y0093304D01*
X0543002Y0092420D01*
X0540560Y0091594D01*
X0538099Y0090828D01*
X0535620Y0090121D01*
X0533124Y0089475D01*
X0530614Y0088889D01*
X0528090Y0088363D01*
X0525555Y0087899D01*
X0523008Y0087496D01*
X0520453Y0087155D01*
X0517891Y0086876D01*
X0515322Y0086658D01*
X0512749Y0086502D01*
X0510173Y0086409D01*
X0507595Y0086378D01*
X0505017Y0086409D01*
X0502441Y0086502D01*
X0499868Y0086658D01*
X0497299Y0086876D01*
X0494737Y0087155D01*
X0492182Y0087496D01*
X0489635Y0087899D01*
X0487100Y0088363D01*
X0484576Y0088889D01*
X0482066Y0089475D01*
X0479570Y0090121D01*
X0477091Y0090828D01*
X0474630Y0091594D01*
X0472188Y0092420D01*
X0469766Y0093304D01*
X0467367Y0094246D01*
X0464991Y0095246D01*
X0462640Y0096303D01*
X0460315Y0097417D01*
X0458017Y0098586D01*
X0455749Y0099810D01*
X0453511Y0101089D01*
X0451304Y0102422D01*
X0449130Y0103807D01*
X0446990Y0105245D01*
X0444886Y0106733D01*
X0442818Y0108272D01*
X0440787Y0109861D01*
X0438796Y0111498D01*
X0436845Y0113183D01*
X0429595Y0281433D02*
X0431746Y0283291D01*
X0433941Y0285096D01*
X0436179Y0286847D01*
X0438459Y0288544D01*
X0440779Y0290185D01*
X0443139Y0291770D01*
X0445535Y0293297D01*
X0447968Y0294766D01*
X0450436Y0296176D01*
X0452937Y0297526D01*
X0455470Y0298815D01*
X0458033Y0300043D01*
X0460625Y0301208D01*
X0463244Y0302311D01*
X0465890Y0303349D01*
X0468559Y0304324D01*
X0471252Y0305234D01*
X0473965Y0306079D01*
X0476698Y0306858D01*
X0479450Y0307571D01*
X0482217Y0308217D01*
X0484999Y0308796D01*
X0487795Y0309308D01*
X0490602Y0309752D01*
X0493419Y0310128D01*
X0496244Y0310436D01*
X0499076Y0310676D01*
X0501913Y0310848D01*
X0504753Y0310951D01*
X0507595Y0310985D01*
X0510437Y0310951D01*
X0513277Y0310848D01*
X0516114Y0310676D01*
X0518946Y0310436D01*
X0521771Y0310128D01*
X0524588Y0309752D01*
X0527395Y0309308D01*
X0530191Y0308796D01*
X0532973Y0308217D01*
X0535740Y0307571D01*
X0538492Y0306858D01*
X0541225Y0306079D01*
X0543938Y0305234D01*
X0546631Y0304324D01*
X0549300Y0303349D01*
X0551946Y0302311D01*
X0554565Y0301208D01*
X0557157Y0300043D01*
X0559720Y0298815D01*
X0562253Y0297526D01*
X0564754Y0296176D01*
X0567222Y0294766D01*
X0569655Y0293297D01*
X0572051Y0291770D01*
X0574411Y0290185D01*
X0576731Y0288544D01*
X0579011Y0286847D01*
X0581249Y0285096D01*
X0583444Y0283291D01*
X0585595Y0281433D01*
X0585595Y0106433D02*
X0583444Y0104575D01*
X0581249Y0102770D01*
X0579011Y0101019D01*
X0576731Y0099322D01*
X0574411Y0097681D01*
X0572051Y0096096D01*
X0569655Y0094569D01*
X0567222Y0093100D01*
X0564754Y0091690D01*
X0562253Y0090340D01*
X0559720Y0089051D01*
X0557157Y0087823D01*
X0554565Y0086658D01*
X0551946Y0085555D01*
X0549300Y0084517D01*
X0546631Y0083542D01*
X0543938Y0082632D01*
X0541225Y0081787D01*
X0538492Y0081008D01*
X0535740Y0080295D01*
X0532973Y0079649D01*
X0530191Y0079070D01*
X0527395Y0078558D01*
X0524588Y0078114D01*
X0521771Y0077738D01*
X0518946Y0077430D01*
X0516114Y0077190D01*
X0513277Y0077018D01*
X0510437Y0076915D01*
X0507595Y0076881D01*
X0504753Y0076915D01*
X0501913Y0077018D01*
X0499076Y0077190D01*
X0496244Y0077430D01*
X0493419Y0077738D01*
X0490602Y0078114D01*
X0487795Y0078558D01*
X0484999Y0079070D01*
X0482217Y0079649D01*
X0479450Y0080295D01*
X0476698Y0081008D01*
X0473965Y0081787D01*
X0471252Y0082632D01*
X0468559Y0083542D01*
X0465890Y0084517D01*
X0463244Y0085555D01*
X0460625Y0086658D01*
X0458033Y0087823D01*
X0455470Y0089051D01*
X0452937Y0090340D01*
X0450436Y0091690D01*
X0447968Y0093100D01*
X0445535Y0094569D01*
X0443139Y0096096D01*
X0440779Y0097681D01*
X0438459Y0099322D01*
X0436179Y0101019D01*
X0433941Y0102770D01*
X0431746Y0104575D01*
X0429595Y0106433D01*
X0507595Y0328934D02*
X0510866Y0328889D01*
X0514135Y0328765D01*
X0517401Y0328563D01*
X0520660Y0328281D01*
X0523912Y0327921D01*
X0527154Y0327483D01*
X0530385Y0326966D01*
X0533602Y0326371D01*
X0536804Y0325699D01*
X0539988Y0324950D01*
X0543154Y0324124D01*
X0546299Y0323222D01*
X0549421Y0322244D01*
X0552518Y0321191D01*
X0555589Y0320063D01*
X0558633Y0318862D01*
X0561646Y0317587D01*
X0564627Y0316240D01*
X0567575Y0314821D01*
X0570488Y0313332D01*
X0573364Y0311772D01*
X0576202Y0310144D01*
X0578999Y0308448D01*
X0581755Y0306684D01*
X0584467Y0304855D01*
X0587134Y0302960D01*
X0589755Y0301002D01*
X0592328Y0298980D01*
X0594851Y0296898D01*
X0597323Y0294755D01*
X0599742Y0292553D01*
X0602108Y0290293D01*
X0604418Y0287976D01*
X0606672Y0285605D01*
X0608868Y0283179D01*
X0611005Y0280702D01*
X0613081Y0278173D01*
X0615095Y0275595D01*
X0617047Y0272969D01*
X0618934Y0270297D01*
X0620757Y0267580D01*
X0622513Y0264820D01*
X0624202Y0262018D01*
X0625823Y0259176D01*
X0627375Y0256296D01*
X0628857Y0253379D01*
X0630268Y0250427D01*
X0631607Y0247442D01*
X0632873Y0244426D01*
X0634067Y0241380D01*
X0635186Y0238306D01*
X0636231Y0235205D01*
X0637201Y0232081D01*
X0638095Y0228934D01*
X0420095Y0271933D02*
X0418237Y0269782D01*
X0416432Y0267587D01*
X0414681Y0265349D01*
X0412984Y0263069D01*
X0411343Y0260749D01*
X0409758Y0258389D01*
X0408231Y0255993D01*
X0406762Y0253560D01*
X0405352Y0251092D01*
X0404002Y0248591D01*
X0402713Y0246058D01*
X0401485Y0243495D01*
X0400320Y0240903D01*
X0399217Y0238284D01*
X0398179Y0235638D01*
X0397204Y0232969D01*
X0396294Y0230276D01*
X0395449Y0227563D01*
X0394670Y0224830D01*
X0393957Y0222078D01*
X0393311Y0219311D01*
X0392732Y0216529D01*
X0392220Y0213733D01*
X0391776Y0210926D01*
X0391400Y0208109D01*
X0391092Y0205284D01*
X0390852Y0202452D01*
X0390680Y0199615D01*
X0390577Y0196775D01*
X0390543Y0193933D01*
X0390577Y0191091D01*
X0390680Y0188251D01*
X0390852Y0185414D01*
X0391092Y0182582D01*
X0391400Y0179757D01*
X0391776Y0176940D01*
X0392220Y0174133D01*
X0392732Y0171337D01*
X0393311Y0168555D01*
X0393957Y0165788D01*
X0394670Y0163036D01*
X0395449Y0160303D01*
X0396294Y0157590D01*
X0397204Y0154897D01*
X0398179Y0152228D01*
X0399217Y0149582D01*
X0400320Y0146963D01*
X0401485Y0144371D01*
X0402713Y0141808D01*
X0404002Y0139275D01*
X0405352Y0136774D01*
X0406762Y0134306D01*
X0408231Y0131873D01*
X0409758Y0129477D01*
X0411343Y0127117D01*
X0412984Y0124797D01*
X0414681Y0122517D01*
X0416432Y0120279D01*
X0418237Y0118084D01*
X0420095Y0115933D01*
X0556095Y0154933D02*
X0557033Y0156143D01*
X0557941Y0157375D01*
X0558819Y0158629D01*
X0559666Y0159904D01*
X0560482Y0161199D01*
X0561266Y0162514D01*
X0562017Y0163847D01*
X0562736Y0165199D01*
X0563421Y0166568D01*
X0564073Y0167953D01*
X0564691Y0169353D01*
X0565274Y0170769D01*
X0565823Y0172198D01*
X0566336Y0173640D01*
X0566814Y0175094D01*
X0567257Y0176560D01*
X0567663Y0178035D01*
X0568034Y0179521D01*
X0568368Y0181015D01*
X0568665Y0182516D01*
X0568925Y0184025D01*
X0569149Y0185539D01*
X0569336Y0187058D01*
X0569485Y0188582D01*
X0569597Y0190108D01*
X0569672Y0191637D01*
X0569709Y0193168D01*
X0569709Y0194698D01*
X0569672Y0196229D01*
X0569597Y0197758D01*
X0569485Y0199284D01*
X0569336Y0200808D01*
X0569149Y0202327D01*
X0568925Y0203841D01*
X0568665Y0205350D01*
X0568368Y0206851D01*
X0568034Y0208345D01*
X0567663Y0209831D01*
X0567257Y0211306D01*
X0566814Y0212772D01*
X0566336Y0214226D01*
X0565823Y0215668D01*
X0565274Y0217097D01*
X0564691Y0218513D01*
X0564073Y0219913D01*
X0563421Y0221298D01*
X0562736Y0222667D01*
X0562017Y0224019D01*
X0561266Y0225352D01*
X0560482Y0226667D01*
X0559666Y0227962D01*
X0558819Y0229237D01*
X0557941Y0230491D01*
X0557033Y0231723D01*
X0556095Y0232933D01*
X0459095Y0232933D02*
X0458157Y0231723D01*
X0457249Y0230491D01*
X0456371Y0229237D01*
X0455524Y0227962D01*
X0454708Y0226667D01*
X0453924Y0225352D01*
X0453173Y0224019D01*
X0452454Y0222667D01*
X0451769Y0221298D01*
X0451117Y0219913D01*
X0450499Y0218513D01*
X0449916Y0217097D01*
X0449367Y0215668D01*
X0448854Y0214226D01*
X0448376Y0212772D01*
X0447933Y0211306D01*
X0447527Y0209831D01*
X0447156Y0208345D01*
X0446822Y0206851D01*
X0446525Y0205350D01*
X0446265Y0203841D01*
X0446041Y0202327D01*
X0445854Y0200808D01*
X0445705Y0199284D01*
X0445593Y0197758D01*
X0445518Y0196229D01*
X0445481Y0194698D01*
X0445481Y0193168D01*
X0445518Y0191637D01*
X0445593Y0190108D01*
X0445705Y0188582D01*
X0445854Y0187058D01*
X0446041Y0185539D01*
X0446265Y0184025D01*
X0446525Y0182516D01*
X0446822Y0181015D01*
X0447156Y0179521D01*
X0447527Y0178035D01*
X0447933Y0176560D01*
X0448376Y0175094D01*
X0448854Y0173640D01*
X0449367Y0172198D01*
X0449916Y0170769D01*
X0450499Y0169353D01*
X0451117Y0167953D01*
X0451769Y0166568D01*
X0452454Y0165199D01*
X0453173Y0163847D01*
X0453924Y0162514D01*
X0454708Y0161199D01*
X0455524Y0159904D01*
X0456371Y0158629D01*
X0457249Y0157375D01*
X0458157Y0156143D01*
X0459095Y0154933D01*
X0575594Y0135433D02*
X0577000Y0137120D01*
X0578364Y0138841D01*
X0579685Y0140594D01*
X0580964Y0142379D01*
X0582198Y0144194D01*
X0583388Y0146039D01*
X0584533Y0147913D01*
X0585631Y0149814D01*
X0586683Y0151741D01*
X0587688Y0153693D01*
X0588645Y0155669D01*
X0589553Y0157668D01*
X0590412Y0159688D01*
X0591222Y0161729D01*
X0591982Y0163788D01*
X0592692Y0165866D01*
X0593350Y0167960D01*
X0593958Y0170070D01*
X0594513Y0172194D01*
X0595017Y0174331D01*
X0595469Y0176480D01*
X0595868Y0178639D01*
X0596214Y0180807D01*
X0596508Y0182982D01*
X0596748Y0185165D01*
X0596935Y0187352D01*
X0597069Y0189544D01*
X0597149Y0191738D01*
X0597176Y0193933D01*
X0597149Y0196128D01*
X0597069Y0198322D01*
X0596935Y0200514D01*
X0596748Y0202701D01*
X0596508Y0204884D01*
X0596214Y0207059D01*
X0595868Y0209227D01*
X0595469Y0211386D01*
X0595017Y0213535D01*
X0594513Y0215672D01*
X0593958Y0217796D01*
X0593350Y0219906D01*
X0592692Y0222000D01*
X0591982Y0224078D01*
X0591222Y0226137D01*
X0590412Y0228178D01*
X0589553Y0230198D01*
X0588645Y0232197D01*
X0587688Y0234173D01*
X0586683Y0236125D01*
X0585631Y0238052D01*
X0584533Y0239953D01*
X0583388Y0241827D01*
X0582198Y0243672D01*
X0580964Y0245487D01*
X0579685Y0247272D01*
X0578364Y0249025D01*
X0577000Y0250746D01*
X0575594Y0252433D01*
X0439596Y0252433D02*
X0438190Y0250746D01*
X0436826Y0249025D01*
X0435505Y0247272D01*
X0434226Y0245487D01*
X0432992Y0243672D01*
X0431802Y0241827D01*
X0430657Y0239953D01*
X0429559Y0238052D01*
X0428507Y0236125D01*
X0427502Y0234173D01*
X0426545Y0232197D01*
X0425637Y0230198D01*
X0424778Y0228178D01*
X0423968Y0226137D01*
X0423208Y0224078D01*
X0422498Y0222000D01*
X0421840Y0219906D01*
X0421232Y0217796D01*
X0420677Y0215672D01*
X0420173Y0213535D01*
X0419721Y0211386D01*
X0419322Y0209227D01*
X0418976Y0207059D01*
X0418682Y0204884D01*
X0418442Y0202701D01*
X0418255Y0200514D01*
X0418121Y0198322D01*
X0418041Y0196128D01*
X0418014Y0193933D01*
X0418041Y0191738D01*
X0418121Y0189544D01*
X0418255Y0187352D01*
X0418442Y0185165D01*
X0418682Y0182982D01*
X0418976Y0180807D01*
X0419322Y0178639D01*
X0419721Y0176480D01*
X0420173Y0174331D01*
X0420677Y0172194D01*
X0421232Y0170070D01*
X0421840Y0167960D01*
X0422498Y0165866D01*
X0423208Y0163788D01*
X0423968Y0161729D01*
X0424778Y0159688D01*
X0425637Y0157668D01*
X0426545Y0155669D01*
X0427502Y0153693D01*
X0428507Y0151741D01*
X0429559Y0149814D01*
X0430657Y0147913D01*
X0431802Y0146039D01*
X0432992Y0144194D01*
X0434226Y0142379D01*
X0435505Y0140594D01*
X0436826Y0138841D01*
X0438190Y0137120D01*
X0439596Y0135433D01*
X0478345Y0174683D02*
X0477888Y0175392D01*
X0477448Y0176113D01*
X0477026Y0176844D01*
X0476621Y0177585D01*
X0476235Y0178336D01*
X0475868Y0179095D01*
X0475518Y0179864D01*
X0475188Y0180641D01*
X0474877Y0181425D01*
X0474585Y0182218D01*
X0474312Y0183016D01*
X0474059Y0183822D01*
X0473826Y0184633D01*
X0473612Y0185450D01*
X0473419Y0186271D01*
X0473245Y0187097D01*
X0473092Y0187927D01*
X0472959Y0188761D01*
X0472846Y0189598D01*
X0472753Y0190437D01*
X0472682Y0191278D01*
X0472630Y0192120D01*
X0472599Y0192964D01*
X0472589Y0193808D01*
X0472599Y0194652D01*
X0472630Y0195496D01*
X0472682Y0196338D01*
X0472753Y0197179D01*
X0472846Y0198018D01*
X0472959Y0198855D01*
X0473092Y0199689D01*
X0473245Y0200519D01*
X0473419Y0201345D01*
X0473612Y0202166D01*
X0473826Y0202983D01*
X0474059Y0203794D01*
X0474312Y0204600D01*
X0474585Y0205398D01*
X0474877Y0206191D01*
X0475188Y0206975D01*
X0475518Y0207752D01*
X0475868Y0208521D01*
X0476235Y0209280D01*
X0476621Y0210031D01*
X0477026Y0210772D01*
X0477448Y0211503D01*
X0477888Y0212224D01*
X0478345Y0212933D01*
X0465846Y0225683D02*
X0465088Y0224671D01*
X0464356Y0223640D01*
X0463648Y0222593D01*
X0462966Y0221528D01*
X0462310Y0220447D01*
X0461681Y0219351D01*
X0461078Y0218239D01*
X0460503Y0217114D01*
X0459955Y0215975D01*
X0459434Y0214822D01*
X0458942Y0213658D01*
X0458478Y0212482D01*
X0458043Y0211295D01*
X0457636Y0210098D01*
X0457259Y0208891D01*
X0456911Y0207676D01*
X0456593Y0206452D01*
X0456304Y0205221D01*
X0456046Y0203984D01*
X0455817Y0202741D01*
X0455619Y0201492D01*
X0455451Y0200239D01*
X0455313Y0198982D01*
X0455206Y0197722D01*
X0455129Y0196461D01*
X0455083Y0195197D01*
X0455068Y0193933D01*
X0455083Y0192669D01*
X0455129Y0191405D01*
X0455206Y0190144D01*
X0455313Y0188884D01*
X0455451Y0187627D01*
X0455619Y0186374D01*
X0455817Y0185125D01*
X0456046Y0183882D01*
X0456304Y0182645D01*
X0456593Y0181414D01*
X0456911Y0180190D01*
X0457259Y0178975D01*
X0457636Y0177768D01*
X0458043Y0176571D01*
X0458478Y0175384D01*
X0458942Y0174208D01*
X0459434Y0173044D01*
X0459955Y0171891D01*
X0460503Y0170752D01*
X0461078Y0169627D01*
X0461681Y0168515D01*
X0462310Y0167419D01*
X0462966Y0166338D01*
X0463648Y0165273D01*
X0464356Y0164226D01*
X0465088Y0163195D01*
X0465846Y0162183D01*
X0468595Y0242433D02*
X0469805Y0243371D01*
X0471037Y0244279D01*
X0472291Y0245157D01*
X0473566Y0246004D01*
X0474861Y0246820D01*
X0476176Y0247604D01*
X0477509Y0248355D01*
X0478861Y0249074D01*
X0480230Y0249759D01*
X0481615Y0250411D01*
X0483015Y0251029D01*
X0484431Y0251612D01*
X0485860Y0252161D01*
X0487302Y0252674D01*
X0488756Y0253152D01*
X0490222Y0253595D01*
X0491697Y0254001D01*
X0493183Y0254372D01*
X0494677Y0254706D01*
X0496178Y0255003D01*
X0497687Y0255263D01*
X0499201Y0255487D01*
X0500720Y0255674D01*
X0502244Y0255823D01*
X0503770Y0255935D01*
X0505299Y0256010D01*
X0506830Y0256047D01*
X0508360Y0256047D01*
X0509891Y0256010D01*
X0511420Y0255935D01*
X0512946Y0255823D01*
X0514470Y0255674D01*
X0515989Y0255487D01*
X0517503Y0255263D01*
X0519012Y0255003D01*
X0520513Y0254706D01*
X0522007Y0254372D01*
X0523493Y0254001D01*
X0524968Y0253595D01*
X0526434Y0253152D01*
X0527888Y0252674D01*
X0529330Y0252161D01*
X0530759Y0251612D01*
X0532175Y0251029D01*
X0533575Y0250411D01*
X0534960Y0249759D01*
X0536329Y0249074D01*
X0537681Y0248355D01*
X0539014Y0247604D01*
X0540329Y0246820D01*
X0541624Y0246004D01*
X0542899Y0245157D01*
X0544153Y0244279D01*
X0545385Y0243371D01*
X0546595Y0242433D01*
X0546595Y0145433D02*
X0545385Y0144495D01*
X0544153Y0143587D01*
X0542899Y0142709D01*
X0541624Y0141862D01*
X0540329Y0141046D01*
X0539014Y0140262D01*
X0537681Y0139511D01*
X0536329Y0138792D01*
X0534960Y0138107D01*
X0533575Y0137455D01*
X0532175Y0136837D01*
X0530759Y0136254D01*
X0529330Y0135705D01*
X0527888Y0135192D01*
X0526434Y0134714D01*
X0524968Y0134271D01*
X0523493Y0133865D01*
X0522007Y0133494D01*
X0520513Y0133160D01*
X0519012Y0132863D01*
X0517503Y0132603D01*
X0515989Y0132379D01*
X0514470Y0132192D01*
X0512946Y0132043D01*
X0511420Y0131931D01*
X0509891Y0131856D01*
X0508360Y0131819D01*
X0506830Y0131819D01*
X0505299Y0131856D01*
X0503770Y0131931D01*
X0502244Y0132043D01*
X0500720Y0132192D01*
X0499201Y0132379D01*
X0497687Y0132603D01*
X0496178Y0132863D01*
X0494677Y0133160D01*
X0493183Y0133494D01*
X0491697Y0133865D01*
X0490222Y0134271D01*
X0488756Y0134714D01*
X0487302Y0135192D01*
X0485860Y0135705D01*
X0484431Y0136254D01*
X0483015Y0136837D01*
X0481615Y0137455D01*
X0480230Y0138107D01*
X0478861Y0138792D01*
X0477509Y0139511D01*
X0476176Y0140262D01*
X0474861Y0141046D01*
X0473566Y0141862D01*
X0472291Y0142709D01*
X0471037Y0143587D01*
X0469805Y0144495D01*
X0468595Y0145433D01*
X0449095Y0261932D02*
X0450782Y0263338D01*
X0452503Y0264702D01*
X0454256Y0266023D01*
X0456041Y0267302D01*
X0457856Y0268536D01*
X0459701Y0269726D01*
X0461575Y0270871D01*
X0463476Y0271969D01*
X0465403Y0273021D01*
X0467355Y0274026D01*
X0469331Y0274983D01*
X0471330Y0275891D01*
X0473350Y0276750D01*
X0475391Y0277560D01*
X0477450Y0278320D01*
X0479528Y0279030D01*
X0481622Y0279688D01*
X0483732Y0280296D01*
X0485856Y0280851D01*
X0487993Y0281355D01*
X0490142Y0281807D01*
X0492301Y0282206D01*
X0494469Y0282552D01*
X0496644Y0282846D01*
X0498827Y0283086D01*
X0501014Y0283273D01*
X0503206Y0283407D01*
X0505400Y0283487D01*
X0507595Y0283514D01*
X0509790Y0283487D01*
X0511984Y0283407D01*
X0514176Y0283273D01*
X0516363Y0283086D01*
X0518546Y0282846D01*
X0520721Y0282552D01*
X0522889Y0282206D01*
X0525048Y0281807D01*
X0527197Y0281355D01*
X0529334Y0280851D01*
X0531458Y0280296D01*
X0533568Y0279688D01*
X0535662Y0279030D01*
X0537740Y0278320D01*
X0539799Y0277560D01*
X0541840Y0276750D01*
X0543860Y0275891D01*
X0545859Y0274983D01*
X0547835Y0274026D01*
X0549787Y0273021D01*
X0551714Y0271969D01*
X0553615Y0270871D01*
X0555489Y0269726D01*
X0557334Y0268536D01*
X0559149Y0267302D01*
X0560934Y0266023D01*
X0562687Y0264702D01*
X0564408Y0263338D01*
X0566095Y0261932D01*
X0566095Y0125934D02*
X0564408Y0124528D01*
X0562687Y0123164D01*
X0560934Y0121843D01*
X0559149Y0120564D01*
X0557334Y0119330D01*
X0555489Y0118140D01*
X0553615Y0116995D01*
X0551714Y0115897D01*
X0549787Y0114845D01*
X0547835Y0113840D01*
X0545859Y0112883D01*
X0543860Y0111975D01*
X0541840Y0111116D01*
X0539799Y0110306D01*
X0537740Y0109546D01*
X0535662Y0108836D01*
X0533568Y0108178D01*
X0531458Y0107570D01*
X0529334Y0107015D01*
X0527197Y0106511D01*
X0525048Y0106059D01*
X0522889Y0105660D01*
X0520721Y0105314D01*
X0518546Y0105020D01*
X0516363Y0104780D01*
X0514176Y0104593D01*
X0511984Y0104459D01*
X0509790Y0104379D01*
X0507595Y0104352D01*
X0505400Y0104379D01*
X0503206Y0104459D01*
X0501014Y0104593D01*
X0498827Y0104780D01*
X0496644Y0105020D01*
X0494469Y0105314D01*
X0492301Y0105660D01*
X0490142Y0106059D01*
X0487993Y0106511D01*
X0485856Y0107015D01*
X0483732Y0107570D01*
X0481622Y0108178D01*
X0479528Y0108836D01*
X0477450Y0109546D01*
X0475391Y0110306D01*
X0473350Y0111116D01*
X0471330Y0111975D01*
X0469331Y0112883D01*
X0467355Y0113840D01*
X0465403Y0114845D01*
X0463476Y0115897D01*
X0461575Y0116995D01*
X0459701Y0118140D01*
X0457856Y0119330D01*
X0456041Y0120564D01*
X0454256Y0121843D01*
X0452503Y0123164D01*
X0450782Y0124528D01*
X0449095Y0125934D01*
X0376844Y0228933D02*
X0377736Y0232087D01*
X0378703Y0235218D01*
X0379747Y0238325D01*
X0380865Y0241406D01*
X0382058Y0244458D01*
X0383324Y0247481D01*
X0384663Y0250472D01*
X0386074Y0253430D01*
X0387557Y0256352D01*
X0389110Y0259238D01*
X0390732Y0262086D01*
X0392423Y0264893D01*
X0394182Y0267659D01*
X0396007Y0270381D01*
X0397897Y0273058D01*
X0399852Y0275688D01*
X0401870Y0278270D01*
X0403950Y0280803D01*
X0406091Y0283284D01*
X0408291Y0285713D01*
X0410550Y0288088D01*
X0412865Y0290407D01*
X0415236Y0292670D01*
X0417661Y0294874D01*
X0420139Y0297019D01*
X0422668Y0299103D01*
X0425247Y0301126D01*
X0427874Y0303085D01*
X0430548Y0304980D01*
X0433267Y0306809D01*
X0436029Y0308573D01*
X0438834Y0310268D01*
X0441678Y0311896D01*
X0444562Y0313453D01*
X0447482Y0314941D01*
X0450437Y0316357D01*
X0453426Y0317701D01*
X0456447Y0318973D01*
X0459497Y0320170D01*
X0462576Y0321294D01*
X0465681Y0322342D01*
X0468810Y0323315D01*
X0471962Y0324212D01*
X0475135Y0325032D01*
X0478327Y0325775D01*
X0481536Y0326441D01*
X0484760Y0327028D01*
X0487998Y0327537D01*
X0491247Y0327968D01*
X0494505Y0328319D01*
X0497771Y0328592D01*
X0501042Y0328785D01*
X0504318Y0328899D01*
X0507595Y0328934D01*
X0638345Y0158933D02*
X0637449Y0155782D01*
X0636477Y0152653D01*
X0635430Y0149549D01*
X0634308Y0146471D01*
X0633111Y0143422D01*
X0631842Y0140402D01*
X0630500Y0137413D01*
X0629085Y0134458D01*
X0627600Y0131538D01*
X0626045Y0128654D01*
X0624420Y0125810D01*
X0622727Y0123005D01*
X0620967Y0120242D01*
X0619141Y0117522D01*
X0617249Y0114848D01*
X0615293Y0112219D01*
X0613274Y0109639D01*
X0611193Y0107109D01*
X0609052Y0104629D01*
X0606852Y0102202D01*
X0604593Y0099829D01*
X0602278Y0097512D01*
X0599907Y0095251D01*
X0597482Y0093047D01*
X0595005Y0090904D01*
X0592477Y0088820D01*
X0589899Y0086799D01*
X0587273Y0084840D01*
X0584600Y0082946D01*
X0581882Y0081116D01*
X0579121Y0079353D01*
X0576318Y0077657D01*
X0573475Y0076030D01*
X0570593Y0074471D01*
X0567675Y0072983D01*
X0564721Y0071566D01*
X0561734Y0070221D01*
X0558715Y0068948D01*
X0555667Y0067748D01*
X0552590Y0066623D01*
X0549487Y0065572D01*
X0546359Y0064597D01*
X0543209Y0063698D01*
X0540038Y0062875D01*
X0536848Y0062129D01*
X0533641Y0061460D01*
X0530419Y0060869D01*
X0527183Y0060357D01*
X0523936Y0059922D01*
X0520679Y0059566D01*
X0517415Y0059289D01*
X0514145Y0059091D01*
X0510871Y0058973D01*
X0507595Y0058933D01*
X0475845Y0152183D02*
X0476857Y0151425D01*
X0477888Y0150693D01*
X0478935Y0149985D01*
X0480000Y0149303D01*
X0481081Y0148647D01*
X0482177Y0148018D01*
X0483289Y0147415D01*
X0484414Y0146840D01*
X0485553Y0146292D01*
X0486706Y0145771D01*
X0487870Y0145279D01*
X0489046Y0144815D01*
X0490233Y0144380D01*
X0491430Y0143973D01*
X0492637Y0143596D01*
X0493852Y0143248D01*
X0495076Y0142930D01*
X0496307Y0142641D01*
X0497544Y0142383D01*
X0498787Y0142154D01*
X0500036Y0141956D01*
X0501289Y0141788D01*
X0502546Y0141650D01*
X0503806Y0141543D01*
X0505067Y0141466D01*
X0506331Y0141420D01*
X0507595Y0141405D01*
X0508859Y0141420D01*
X0510123Y0141466D01*
X0511384Y0141543D01*
X0512644Y0141650D01*
X0513901Y0141788D01*
X0515154Y0141956D01*
X0516403Y0142154D01*
X0517646Y0142383D01*
X0518883Y0142641D01*
X0520114Y0142930D01*
X0521338Y0143248D01*
X0522553Y0143596D01*
X0523760Y0143973D01*
X0524957Y0144380D01*
X0526144Y0144815D01*
X0527320Y0145279D01*
X0528484Y0145771D01*
X0529637Y0146292D01*
X0530776Y0146840D01*
X0531901Y0147415D01*
X0533013Y0148018D01*
X0534109Y0148647D01*
X0535190Y0149303D01*
X0536255Y0149985D01*
X0537302Y0150693D01*
X0538333Y0151425D01*
X0539345Y0152183D01*
X0526845Y0164683D02*
X0526136Y0164226D01*
X0525415Y0163786D01*
X0524684Y0163364D01*
X0523943Y0162959D01*
X0523192Y0162573D01*
X0522433Y0162206D01*
X0521664Y0161856D01*
X0520887Y0161526D01*
X0520103Y0161215D01*
X0519310Y0160923D01*
X0518512Y0160650D01*
X0517706Y0160397D01*
X0516895Y0160164D01*
X0516078Y0159950D01*
X0515257Y0159757D01*
X0514431Y0159583D01*
X0513601Y0159430D01*
X0512767Y0159297D01*
X0511930Y0159184D01*
X0511091Y0159091D01*
X0510250Y0159020D01*
X0509408Y0158968D01*
X0508564Y0158937D01*
X0507720Y0158927D01*
X0506876Y0158937D01*
X0506032Y0158968D01*
X0505190Y0159020D01*
X0504349Y0159091D01*
X0503510Y0159184D01*
X0502673Y0159297D01*
X0501839Y0159430D01*
X0501009Y0159583D01*
X0500183Y0159757D01*
X0499362Y0159950D01*
X0498545Y0160164D01*
X0497734Y0160397D01*
X0496928Y0160650D01*
X0496130Y0160923D01*
X0495337Y0161215D01*
X0494553Y0161526D01*
X0493776Y0161856D01*
X0493007Y0162206D01*
X0492248Y0162573D01*
X0491497Y0162959D01*
X0490756Y0163364D01*
X0490025Y0163786D01*
X0489304Y0164226D01*
X0488595Y0164683D01*
X0496595Y0172933D02*
X0497104Y0172670D01*
X0497619Y0172420D01*
X0498140Y0172183D01*
X0498666Y0171958D01*
X0499198Y0171746D01*
X0499735Y0171548D01*
X0500277Y0171362D01*
X0500823Y0171190D01*
X0501373Y0171031D01*
X0501927Y0170886D01*
X0502484Y0170754D01*
X0503044Y0170636D01*
X0503607Y0170532D01*
X0504172Y0170441D01*
X0504739Y0170365D01*
X0505309Y0170302D01*
X0505879Y0170253D01*
X0506450Y0170218D01*
X0507023Y0170197D01*
X0507595Y0170190D01*
X0508167Y0170197D01*
X0508740Y0170218D01*
X0509311Y0170253D01*
X0509881Y0170302D01*
X0510451Y0170365D01*
X0511018Y0170441D01*
X0511583Y0170532D01*
X0512146Y0170636D01*
X0512706Y0170754D01*
X0513263Y0170886D01*
X0513817Y0171031D01*
X0514367Y0171190D01*
X0514913Y0171362D01*
X0515455Y0171548D01*
X0515992Y0171746D01*
X0516524Y0171958D01*
X0517050Y0172183D01*
X0517571Y0172420D01*
X0518086Y0172670D01*
X0518595Y0172933D01*
X0549345Y0162183D02*
X0550103Y0163195D01*
X0550835Y0164226D01*
X0551543Y0165273D01*
X0552225Y0166338D01*
X0552881Y0167419D01*
X0553510Y0168515D01*
X0554113Y0169627D01*
X0554688Y0170752D01*
X0555236Y0171891D01*
X0555757Y0173044D01*
X0556249Y0174208D01*
X0556713Y0175384D01*
X0557148Y0176571D01*
X0557555Y0177768D01*
X0557932Y0178975D01*
X0558280Y0180190D01*
X0558598Y0181414D01*
X0558887Y0182645D01*
X0559145Y0183882D01*
X0559374Y0185125D01*
X0559572Y0186374D01*
X0559740Y0187627D01*
X0559878Y0188884D01*
X0559985Y0190144D01*
X0560062Y0191405D01*
X0560108Y0192669D01*
X0560123Y0193933D01*
X0560108Y0195197D01*
X0560062Y0196461D01*
X0559985Y0197722D01*
X0559878Y0198982D01*
X0559740Y0200239D01*
X0559572Y0201492D01*
X0559374Y0202741D01*
X0559145Y0203984D01*
X0558887Y0205221D01*
X0558598Y0206452D01*
X0558280Y0207676D01*
X0557932Y0208891D01*
X0557555Y0210098D01*
X0557148Y0211295D01*
X0556713Y0212482D01*
X0556249Y0213658D01*
X0555757Y0214822D01*
X0555236Y0215975D01*
X0554688Y0217114D01*
X0554113Y0218239D01*
X0553510Y0219351D01*
X0552881Y0220447D01*
X0552225Y0221528D01*
X0551543Y0222593D01*
X0550835Y0223640D01*
X0550103Y0224671D01*
X0549345Y0225683D01*
X0536845Y0213183D02*
X0537302Y0212474D01*
X0537742Y0211753D01*
X0538164Y0211022D01*
X0538569Y0210281D01*
X0538955Y0209530D01*
X0539322Y0208771D01*
X0539672Y0208002D01*
X0540002Y0207225D01*
X0540313Y0206441D01*
X0540605Y0205648D01*
X0540878Y0204850D01*
X0541131Y0204044D01*
X0541364Y0203233D01*
X0541578Y0202416D01*
X0541771Y0201595D01*
X0541945Y0200769D01*
X0542098Y0199939D01*
X0542231Y0199105D01*
X0542344Y0198268D01*
X0542437Y0197429D01*
X0542508Y0196588D01*
X0542560Y0195746D01*
X0542591Y0194902D01*
X0542601Y0194058D01*
X0542591Y0193214D01*
X0542560Y0192370D01*
X0542508Y0191528D01*
X0542437Y0190687D01*
X0542344Y0189848D01*
X0542231Y0189011D01*
X0542098Y0188177D01*
X0541945Y0187347D01*
X0541771Y0186521D01*
X0541578Y0185700D01*
X0541364Y0184883D01*
X0541131Y0184072D01*
X0540878Y0183266D01*
X0540605Y0182468D01*
X0540313Y0181675D01*
X0540002Y0180891D01*
X0539672Y0180114D01*
X0539322Y0179345D01*
X0538955Y0178586D01*
X0538569Y0177835D01*
X0538164Y0177094D01*
X0537742Y0176363D01*
X0537302Y0175642D01*
X0536845Y0174933D01*
X0528595Y0182933D02*
X0528858Y0183442D01*
X0529108Y0183957D01*
X0529345Y0184478D01*
X0529570Y0185004D01*
X0529782Y0185536D01*
X0529980Y0186073D01*
X0530166Y0186615D01*
X0530338Y0187161D01*
X0530497Y0187711D01*
X0530642Y0188265D01*
X0530774Y0188822D01*
X0530892Y0189382D01*
X0530996Y0189945D01*
X0531087Y0190510D01*
X0531163Y0191077D01*
X0531226Y0191647D01*
X0531275Y0192217D01*
X0531310Y0192788D01*
X0531331Y0193361D01*
X0531338Y0193933D01*
X0531331Y0194505D01*
X0531310Y0195078D01*
X0531275Y0195649D01*
X0531226Y0196219D01*
X0531163Y0196789D01*
X0531087Y0197356D01*
X0530996Y0197921D01*
X0530892Y0198484D01*
X0530774Y0199044D01*
X0530642Y0199601D01*
X0530497Y0200155D01*
X0530338Y0200705D01*
X0530166Y0201251D01*
X0529980Y0201793D01*
X0529782Y0202330D01*
X0529570Y0202862D01*
X0529345Y0203388D01*
X0529108Y0203909D01*
X0528858Y0204424D01*
X0528595Y0204933D01*
X0539345Y0235683D02*
X0538333Y0236441D01*
X0537302Y0237173D01*
X0536255Y0237881D01*
X0535190Y0238563D01*
X0534109Y0239219D01*
X0533013Y0239848D01*
X0531901Y0240451D01*
X0530776Y0241026D01*
X0529637Y0241574D01*
X0528484Y0242095D01*
X0527320Y0242587D01*
X0526144Y0243051D01*
X0524957Y0243486D01*
X0523760Y0243893D01*
X0522553Y0244270D01*
X0521338Y0244618D01*
X0520114Y0244936D01*
X0518883Y0245225D01*
X0517646Y0245483D01*
X0516403Y0245712D01*
X0515154Y0245910D01*
X0513901Y0246078D01*
X0512644Y0246216D01*
X0511384Y0246323D01*
X0510123Y0246400D01*
X0508859Y0246446D01*
X0507595Y0246461D01*
X0506331Y0246446D01*
X0505067Y0246400D01*
X0503806Y0246323D01*
X0502546Y0246216D01*
X0501289Y0246078D01*
X0500036Y0245910D01*
X0498787Y0245712D01*
X0497544Y0245483D01*
X0496307Y0245225D01*
X0495076Y0244936D01*
X0493852Y0244618D01*
X0492637Y0244270D01*
X0491430Y0243893D01*
X0490233Y0243486D01*
X0489046Y0243051D01*
X0487870Y0242587D01*
X0486706Y0242095D01*
X0485553Y0241574D01*
X0484414Y0241026D01*
X0483289Y0240451D01*
X0482177Y0239848D01*
X0481081Y0239219D01*
X0480000Y0238563D01*
X0478935Y0237881D01*
X0477888Y0237173D01*
X0476857Y0236441D01*
X0475845Y0235683D01*
X0488345Y0223183D02*
X0489054Y0223640D01*
X0489775Y0224080D01*
X0490506Y0224502D01*
X0491247Y0224907D01*
X0491998Y0225293D01*
X0492757Y0225660D01*
X0493526Y0226010D01*
X0494303Y0226340D01*
X0495087Y0226651D01*
X0495880Y0226943D01*
X0496678Y0227216D01*
X0497484Y0227469D01*
X0498295Y0227702D01*
X0499112Y0227916D01*
X0499933Y0228109D01*
X0500759Y0228283D01*
X0501589Y0228436D01*
X0502423Y0228569D01*
X0503260Y0228682D01*
X0504099Y0228775D01*
X0504940Y0228846D01*
X0505782Y0228898D01*
X0506626Y0228929D01*
X0507470Y0228939D01*
X0508314Y0228929D01*
X0509158Y0228898D01*
X0510000Y0228846D01*
X0510841Y0228775D01*
X0511680Y0228682D01*
X0512517Y0228569D01*
X0513351Y0228436D01*
X0514181Y0228283D01*
X0515007Y0228109D01*
X0515828Y0227916D01*
X0516645Y0227702D01*
X0517456Y0227469D01*
X0518262Y0227216D01*
X0519060Y0226943D01*
X0519853Y0226651D01*
X0520637Y0226340D01*
X0521414Y0226010D01*
X0522183Y0225660D01*
X0522942Y0225293D01*
X0523693Y0224907D01*
X0524434Y0224502D01*
X0525165Y0224080D01*
X0525886Y0223640D01*
X0526595Y0223183D01*
X0518595Y0214933D02*
X0518086Y0215196D01*
X0517571Y0215446D01*
X0517050Y0215683D01*
X0516524Y0215908D01*
X0515992Y0216120D01*
X0515455Y0216318D01*
X0514913Y0216504D01*
X0514367Y0216676D01*
X0513817Y0216835D01*
X0513263Y0216980D01*
X0512706Y0217112D01*
X0512146Y0217230D01*
X0511583Y0217334D01*
X0511018Y0217425D01*
X0510451Y0217501D01*
X0509881Y0217564D01*
X0509311Y0217613D01*
X0508740Y0217648D01*
X0508167Y0217669D01*
X0507595Y0217676D01*
X0507023Y0217669D01*
X0506450Y0217648D01*
X0505879Y0217613D01*
X0505309Y0217564D01*
X0504739Y0217501D01*
X0504172Y0217425D01*
X0503607Y0217334D01*
X0503044Y0217230D01*
X0502484Y0217112D01*
X0501927Y0216980D01*
X0501373Y0216835D01*
X0500823Y0216676D01*
X0500277Y0216504D01*
X0499735Y0216318D01*
X0499198Y0216120D01*
X0498666Y0215908D01*
X0498140Y0215683D01*
X0497619Y0215446D01*
X0497104Y0215196D01*
X0496595Y0214933D01*
X0486595Y0204933D02*
X0486332Y0204424D01*
X0486082Y0203909D01*
X0485845Y0203388D01*
X0485620Y0202862D01*
X0485408Y0202330D01*
X0485210Y0201793D01*
X0485024Y0201251D01*
X0484852Y0200705D01*
X0484693Y0200155D01*
X0484548Y0199601D01*
X0484416Y0199044D01*
X0484298Y0198484D01*
X0484194Y0197921D01*
X0484103Y0197356D01*
X0484027Y0196789D01*
X0483964Y0196219D01*
X0483915Y0195649D01*
X0483880Y0195078D01*
X0483859Y0194505D01*
X0483852Y0193933D01*
X0483859Y0193361D01*
X0483880Y0192788D01*
X0483915Y0192217D01*
X0483964Y0191647D01*
X0484027Y0191077D01*
X0484103Y0190510D01*
X0484194Y0189945D01*
X0484298Y0189382D01*
X0484416Y0188822D01*
X0484548Y0188265D01*
X0484693Y0187711D01*
X0484852Y0187161D01*
X0485024Y0186615D01*
X0485210Y0186073D01*
X0485408Y0185536D01*
X0485620Y0185004D01*
X0485845Y0184478D01*
X0486082Y0183957D01*
X0486332Y0183442D01*
X0486595Y0182933D01*
X0372595Y0193933D02*
X0372634Y0190671D01*
X0372753Y0187411D01*
X0372950Y0184154D01*
X0373225Y0180904D01*
X0373579Y0177661D01*
X0374012Y0174427D01*
X0374522Y0171205D01*
X0375110Y0167996D01*
X0375775Y0164802D01*
X0376518Y0161625D01*
X0377337Y0158468D01*
X0378232Y0155330D01*
X0379202Y0152216D01*
X0380248Y0149125D01*
X0381368Y0146061D01*
X0382561Y0143025D01*
X0383828Y0140019D01*
X0385167Y0137044D01*
X0386577Y0134102D01*
X0388058Y0131195D01*
X0389609Y0128325D01*
X0391229Y0125493D01*
X0392917Y0122702D01*
X0394672Y0119951D01*
X0396492Y0117244D01*
X0398378Y0114582D01*
X0400327Y0111966D01*
X0402339Y0109398D01*
X0404412Y0106879D01*
X0406546Y0104411D01*
X0408739Y0101996D01*
X0410989Y0099634D01*
X0413296Y0097327D01*
X0415658Y0095077D01*
X0418073Y0092884D01*
X0420541Y0090750D01*
X0423060Y0088677D01*
X0425628Y0086665D01*
X0428244Y0084716D01*
X0430906Y0082830D01*
X0433613Y0081010D01*
X0436364Y0079255D01*
X0439155Y0077567D01*
X0441987Y0075947D01*
X0444857Y0074396D01*
X0447764Y0072915D01*
X0450706Y0071505D01*
X0453681Y0070166D01*
X0456687Y0068899D01*
X0459723Y0067706D01*
X0462787Y0066586D01*
X0465878Y0065540D01*
X0468992Y0064570D01*
X0472130Y0063675D01*
X0475287Y0062856D01*
X0478464Y0062113D01*
X0481658Y0061448D01*
X0484867Y0060860D01*
X0488089Y0060350D01*
X0491323Y0059917D01*
X0494566Y0059563D01*
X0497816Y0059288D01*
X0501073Y0059091D01*
X0504333Y0058972D01*
X0507595Y0058933D01*
D11*
X0182549Y0082233D02*
X0182549Y0085636D01*
X0184250Y0085636D01*
X0184817Y0085069D01*
X0184817Y0083935D01*
X0184250Y0083367D01*
X0182549Y0083367D01*
X0183683Y0083367D02*
X0184817Y0082233D01*
X0186232Y0082800D02*
X0186799Y0082233D01*
X0187933Y0082233D01*
X0188500Y0082800D01*
X0188500Y0083935D01*
X0187933Y0084502D01*
X0186799Y0084502D01*
X0186232Y0083935D01*
X0186232Y0082800D01*
X0189915Y0082800D02*
X0190482Y0082233D01*
X0192184Y0082233D01*
X0192184Y0084502D01*
X0193598Y0084502D02*
X0194732Y0084502D01*
X0194165Y0085069D02*
X0194165Y0082800D01*
X0194732Y0082233D01*
X0196054Y0082800D02*
X0196621Y0082233D01*
X0197755Y0082233D01*
X0198322Y0083367D02*
X0196054Y0083367D01*
X0196054Y0082800D02*
X0196054Y0083935D01*
X0196621Y0084502D01*
X0197755Y0084502D01*
X0198322Y0083935D01*
X0198322Y0083367D01*
X0203420Y0082800D02*
X0203987Y0082233D01*
X0205121Y0082233D01*
X0205688Y0082800D01*
X0205688Y0083935D01*
X0205121Y0084502D01*
X0203987Y0084502D01*
X0203420Y0083935D01*
X0203420Y0082800D01*
X0207103Y0082800D02*
X0207670Y0082233D01*
X0209372Y0082233D01*
X0209372Y0084502D01*
X0210786Y0084502D02*
X0211920Y0084502D01*
X0211353Y0085069D02*
X0211353Y0082800D01*
X0211920Y0082233D01*
X0207103Y0082800D02*
X0207103Y0084502D01*
X0189915Y0084502D02*
X0189915Y0082800D01*
X0190482Y0109733D02*
X0192184Y0109733D01*
X0192184Y0112002D01*
X0193598Y0112002D02*
X0194732Y0112002D01*
X0194165Y0112569D02*
X0194165Y0110300D01*
X0194732Y0109733D01*
X0196054Y0110300D02*
X0196054Y0111435D01*
X0196621Y0112002D01*
X0197755Y0112002D01*
X0198322Y0111435D01*
X0198322Y0110867D01*
X0196054Y0110867D01*
X0196054Y0110300D02*
X0196621Y0109733D01*
X0197755Y0109733D01*
X0203420Y0110300D02*
X0203987Y0109733D01*
X0205121Y0109733D01*
X0205688Y0110300D01*
X0205688Y0111435D01*
X0205121Y0112002D01*
X0203987Y0112002D01*
X0203420Y0111435D01*
X0203420Y0110300D01*
X0207103Y0110300D02*
X0207670Y0109733D01*
X0209372Y0109733D01*
X0209372Y0112002D01*
X0210786Y0112002D02*
X0211920Y0112002D01*
X0211353Y0112569D02*
X0211353Y0110300D01*
X0211920Y0109733D01*
X0207103Y0110300D02*
X0207103Y0112002D01*
X0190482Y0109733D02*
X0189915Y0110300D01*
X0189915Y0112002D01*
X0188500Y0111435D02*
X0187933Y0112002D01*
X0186799Y0112002D01*
X0186232Y0111435D01*
X0186232Y0110300D01*
X0186799Y0109733D01*
X0187933Y0109733D01*
X0188500Y0110300D01*
X0188500Y0111435D01*
X0184817Y0111435D02*
X0184817Y0112569D01*
X0184250Y0113136D01*
X0182549Y0113136D01*
X0182549Y0109733D01*
X0182549Y0110867D02*
X0184250Y0110867D01*
X0184817Y0111435D01*
X0183683Y0110867D02*
X0184817Y0109733D01*
X0184817Y0137233D02*
X0183683Y0138367D01*
X0184250Y0138367D02*
X0182549Y0138367D01*
X0182549Y0137233D02*
X0182549Y0140636D01*
X0184250Y0140636D01*
X0184817Y0140069D01*
X0184817Y0138935D01*
X0184250Y0138367D01*
X0186232Y0138935D02*
X0186232Y0137800D01*
X0186799Y0137233D01*
X0187933Y0137233D01*
X0188500Y0137800D01*
X0188500Y0138935D01*
X0187933Y0139502D01*
X0186799Y0139502D01*
X0186232Y0138935D01*
X0189915Y0139502D02*
X0189915Y0137800D01*
X0190482Y0137233D01*
X0192184Y0137233D01*
X0192184Y0139502D01*
X0193598Y0139502D02*
X0194732Y0139502D01*
X0194165Y0140069D02*
X0194165Y0137800D01*
X0194732Y0137233D01*
X0196054Y0137800D02*
X0196054Y0138935D01*
X0196621Y0139502D01*
X0197755Y0139502D01*
X0198322Y0138935D01*
X0198322Y0138367D01*
X0196054Y0138367D01*
X0196054Y0137800D02*
X0196621Y0137233D01*
X0197755Y0137233D01*
X0203420Y0137800D02*
X0203420Y0138935D01*
X0203987Y0139502D01*
X0205121Y0139502D01*
X0205688Y0138935D01*
X0205688Y0137800D01*
X0205121Y0137233D01*
X0203987Y0137233D01*
X0203420Y0137800D01*
X0207103Y0137800D02*
X0207103Y0139502D01*
X0207103Y0137800D02*
X0207670Y0137233D01*
X0209372Y0137233D01*
X0209372Y0139502D01*
X0210786Y0139502D02*
X0211920Y0139502D01*
X0211353Y0140069D02*
X0211353Y0137800D01*
X0211920Y0137233D01*
X0211920Y0163483D02*
X0211353Y0164050D01*
X0211353Y0166319D01*
X0210786Y0165752D02*
X0211920Y0165752D01*
X0209372Y0165752D02*
X0209372Y0163483D01*
X0207670Y0163483D01*
X0207103Y0164050D01*
X0207103Y0165752D01*
X0205688Y0165185D02*
X0205688Y0164050D01*
X0205121Y0163483D01*
X0203987Y0163483D01*
X0203420Y0164050D01*
X0203420Y0165185D01*
X0203987Y0165752D01*
X0205121Y0165752D01*
X0205688Y0165185D01*
X0198322Y0165185D02*
X0198322Y0164617D01*
X0196054Y0164617D01*
X0196054Y0164050D02*
X0196054Y0165185D01*
X0196621Y0165752D01*
X0197755Y0165752D01*
X0198322Y0165185D01*
X0197755Y0163483D02*
X0196621Y0163483D01*
X0196054Y0164050D01*
X0194732Y0163483D02*
X0194165Y0164050D01*
X0194165Y0166319D01*
X0193598Y0165752D02*
X0194732Y0165752D01*
X0192184Y0165752D02*
X0192184Y0163483D01*
X0190482Y0163483D01*
X0189915Y0164050D01*
X0189915Y0165752D01*
X0188500Y0165185D02*
X0187933Y0165752D01*
X0186799Y0165752D01*
X0186232Y0165185D01*
X0186232Y0164050D01*
X0186799Y0163483D01*
X0187933Y0163483D01*
X0188500Y0164050D01*
X0188500Y0165185D01*
X0184817Y0165185D02*
X0184250Y0164617D01*
X0182549Y0164617D01*
X0182549Y0163483D02*
X0182549Y0166886D01*
X0184250Y0166886D01*
X0184817Y0166319D01*
X0184817Y0165185D01*
X0183683Y0164617D02*
X0184817Y0163483D01*
X0170545Y0178887D02*
X0167142Y0178887D01*
X0167142Y0180588D01*
X0167709Y0181155D01*
X0168844Y0181155D01*
X0169411Y0180588D01*
X0169411Y0178887D01*
X0169411Y0180021D02*
X0170545Y0181155D01*
X0169978Y0182570D02*
X0170545Y0183137D01*
X0170545Y0184271D01*
X0169978Y0184838D01*
X0168844Y0184838D01*
X0168277Y0184271D01*
X0168277Y0183137D01*
X0168844Y0182570D01*
X0169978Y0182570D01*
X0169978Y0186253D02*
X0170545Y0186820D01*
X0170545Y0188522D01*
X0168277Y0188522D01*
X0168277Y0189936D02*
X0168277Y0191070D01*
X0167709Y0190503D02*
X0169978Y0190503D01*
X0170545Y0191070D01*
X0169978Y0192391D02*
X0168844Y0192391D01*
X0168277Y0192959D01*
X0168277Y0194093D01*
X0168844Y0194660D01*
X0169411Y0194660D01*
X0169411Y0192391D01*
X0169978Y0192391D02*
X0170545Y0192959D01*
X0170545Y0194093D01*
X0169978Y0199758D02*
X0170545Y0200325D01*
X0170545Y0201459D01*
X0169978Y0202026D01*
X0168844Y0202026D01*
X0168277Y0201459D01*
X0168277Y0200325D01*
X0168844Y0199758D01*
X0169978Y0199758D01*
X0169978Y0203441D02*
X0170545Y0204008D01*
X0170545Y0205710D01*
X0168277Y0205710D01*
X0168277Y0207124D02*
X0168277Y0208258D01*
X0167709Y0207691D02*
X0169978Y0207691D01*
X0170545Y0208258D01*
X0169978Y0203441D02*
X0168277Y0203441D01*
X0144295Y0204008D02*
X0144295Y0205710D01*
X0142027Y0205710D01*
X0142027Y0207124D02*
X0142027Y0208258D01*
X0141459Y0207691D02*
X0143728Y0207691D01*
X0144295Y0208258D01*
X0144295Y0204008D02*
X0143728Y0203441D01*
X0142027Y0203441D01*
X0142594Y0202026D02*
X0142027Y0201459D01*
X0142027Y0200325D01*
X0142594Y0199758D01*
X0143728Y0199758D01*
X0144295Y0200325D01*
X0144295Y0201459D01*
X0143728Y0202026D01*
X0142594Y0202026D01*
X0142594Y0194660D02*
X0143161Y0194660D01*
X0143161Y0192391D01*
X0143728Y0192391D02*
X0142594Y0192391D01*
X0142027Y0192959D01*
X0142027Y0194093D01*
X0142594Y0194660D01*
X0144295Y0194093D02*
X0144295Y0192959D01*
X0143728Y0192391D01*
X0144295Y0191070D02*
X0143728Y0190503D01*
X0141459Y0190503D01*
X0142027Y0189936D02*
X0142027Y0191070D01*
X0142027Y0188522D02*
X0144295Y0188522D01*
X0144295Y0186820D01*
X0143728Y0186253D01*
X0142027Y0186253D01*
X0142594Y0184838D02*
X0142027Y0184271D01*
X0142027Y0183137D01*
X0142594Y0182570D01*
X0143728Y0182570D01*
X0144295Y0183137D01*
X0144295Y0184271D01*
X0143728Y0184838D01*
X0142594Y0184838D01*
X0142594Y0181155D02*
X0143161Y0180588D01*
X0143161Y0178887D01*
X0143161Y0180021D02*
X0144295Y0181155D01*
X0142594Y0181155D02*
X0141459Y0181155D01*
X0140892Y0180588D01*
X0140892Y0178887D01*
X0144295Y0178887D01*
X0168277Y0186253D02*
X0169978Y0186253D01*
X0224642Y0180588D02*
X0225209Y0181155D01*
X0226344Y0181155D01*
X0226911Y0180588D01*
X0226911Y0178887D01*
X0226911Y0180021D02*
X0228045Y0181155D01*
X0227478Y0182570D02*
X0228045Y0183137D01*
X0228045Y0184271D01*
X0227478Y0184838D01*
X0226344Y0184838D01*
X0225777Y0184271D01*
X0225777Y0183137D01*
X0226344Y0182570D01*
X0227478Y0182570D01*
X0224642Y0180588D02*
X0224642Y0178887D01*
X0228045Y0178887D01*
X0227478Y0186253D02*
X0225777Y0186253D01*
X0227478Y0186253D02*
X0228045Y0186820D01*
X0228045Y0188522D01*
X0225777Y0188522D01*
X0225777Y0189936D02*
X0225777Y0191070D01*
X0225209Y0190503D02*
X0227478Y0190503D01*
X0228045Y0191070D01*
X0227478Y0192391D02*
X0226344Y0192391D01*
X0225777Y0192959D01*
X0225777Y0194093D01*
X0226344Y0194660D01*
X0226911Y0194660D01*
X0226911Y0192391D01*
X0227478Y0192391D02*
X0228045Y0192959D01*
X0228045Y0194093D01*
X0227478Y0199758D02*
X0228045Y0200325D01*
X0228045Y0201459D01*
X0227478Y0202026D01*
X0226344Y0202026D01*
X0225777Y0201459D01*
X0225777Y0200325D01*
X0226344Y0199758D01*
X0227478Y0199758D01*
X0227478Y0203441D02*
X0225777Y0203441D01*
X0227478Y0203441D02*
X0228045Y0204008D01*
X0228045Y0205710D01*
X0225777Y0205710D01*
X0225777Y0207124D02*
X0225777Y0208258D01*
X0225209Y0207691D02*
X0227478Y0207691D01*
X0228045Y0208258D01*
X0211920Y0220983D02*
X0211353Y0221550D01*
X0211353Y0223819D01*
X0210786Y0223252D02*
X0211920Y0223252D01*
X0209372Y0223252D02*
X0209372Y0220983D01*
X0207670Y0220983D01*
X0207103Y0221550D01*
X0207103Y0223252D01*
X0205688Y0222685D02*
X0205121Y0223252D01*
X0203987Y0223252D01*
X0203420Y0222685D01*
X0203420Y0221550D01*
X0203987Y0220983D01*
X0205121Y0220983D01*
X0205688Y0221550D01*
X0205688Y0222685D01*
X0198322Y0222685D02*
X0198322Y0222117D01*
X0196054Y0222117D01*
X0196054Y0221550D02*
X0196054Y0222685D01*
X0196621Y0223252D01*
X0197755Y0223252D01*
X0198322Y0222685D01*
X0197755Y0220983D02*
X0196621Y0220983D01*
X0196054Y0221550D01*
X0194732Y0220983D02*
X0194165Y0221550D01*
X0194165Y0223819D01*
X0193598Y0223252D02*
X0194732Y0223252D01*
X0192184Y0223252D02*
X0192184Y0220983D01*
X0190482Y0220983D01*
X0189915Y0221550D01*
X0189915Y0223252D01*
X0188500Y0222685D02*
X0187933Y0223252D01*
X0186799Y0223252D01*
X0186232Y0222685D01*
X0186232Y0221550D01*
X0186799Y0220983D01*
X0187933Y0220983D01*
X0188500Y0221550D01*
X0188500Y0222685D01*
X0184817Y0222685D02*
X0184250Y0222117D01*
X0182549Y0222117D01*
X0182549Y0220983D02*
X0182549Y0224386D01*
X0184250Y0224386D01*
X0184817Y0223819D01*
X0184817Y0222685D01*
X0183683Y0222117D02*
X0184817Y0220983D01*
X0184817Y0248733D02*
X0183683Y0249867D01*
X0184250Y0249867D02*
X0182549Y0249867D01*
X0182549Y0248733D02*
X0182549Y0252136D01*
X0184250Y0252136D01*
X0184817Y0251569D01*
X0184817Y0250435D01*
X0184250Y0249867D01*
X0186232Y0249300D02*
X0186799Y0248733D01*
X0187933Y0248733D01*
X0188500Y0249300D01*
X0188500Y0250435D01*
X0187933Y0251002D01*
X0186799Y0251002D01*
X0186232Y0250435D01*
X0186232Y0249300D01*
X0189915Y0249300D02*
X0190482Y0248733D01*
X0192184Y0248733D01*
X0192184Y0251002D01*
X0193598Y0251002D02*
X0194732Y0251002D01*
X0194165Y0251569D02*
X0194165Y0249300D01*
X0194732Y0248733D01*
X0196054Y0249300D02*
X0196054Y0250435D01*
X0196621Y0251002D01*
X0197755Y0251002D01*
X0198322Y0250435D01*
X0198322Y0249867D01*
X0196054Y0249867D01*
X0196054Y0249300D02*
X0196621Y0248733D01*
X0197755Y0248733D01*
X0203420Y0249300D02*
X0203987Y0248733D01*
X0205121Y0248733D01*
X0205688Y0249300D01*
X0205688Y0250435D01*
X0205121Y0251002D01*
X0203987Y0251002D01*
X0203420Y0250435D01*
X0203420Y0249300D01*
X0207103Y0249300D02*
X0207670Y0248733D01*
X0209372Y0248733D01*
X0209372Y0251002D01*
X0210786Y0251002D02*
X0211920Y0251002D01*
X0211353Y0251569D02*
X0211353Y0249300D01*
X0211920Y0248733D01*
X0207103Y0249300D02*
X0207103Y0251002D01*
X0189915Y0251002D02*
X0189915Y0249300D01*
X0190482Y0277233D02*
X0192184Y0277233D01*
X0192184Y0279502D01*
X0193598Y0279502D02*
X0194732Y0279502D01*
X0194165Y0280069D02*
X0194165Y0277800D01*
X0194732Y0277233D01*
X0196054Y0277800D02*
X0196621Y0277233D01*
X0197755Y0277233D01*
X0198322Y0278367D02*
X0196054Y0278367D01*
X0196054Y0277800D02*
X0196054Y0278935D01*
X0196621Y0279502D01*
X0197755Y0279502D01*
X0198322Y0278935D01*
X0198322Y0278367D01*
X0203420Y0277800D02*
X0203987Y0277233D01*
X0205121Y0277233D01*
X0205688Y0277800D01*
X0205688Y0278935D01*
X0205121Y0279502D01*
X0203987Y0279502D01*
X0203420Y0278935D01*
X0203420Y0277800D01*
X0207103Y0277800D02*
X0207670Y0277233D01*
X0209372Y0277233D01*
X0209372Y0279502D01*
X0210786Y0279502D02*
X0211920Y0279502D01*
X0211353Y0280069D02*
X0211353Y0277800D01*
X0211920Y0277233D01*
X0207103Y0277800D02*
X0207103Y0279502D01*
X0190482Y0277233D02*
X0189915Y0277800D01*
X0189915Y0279502D01*
X0188500Y0278935D02*
X0187933Y0279502D01*
X0186799Y0279502D01*
X0186232Y0278935D01*
X0186232Y0277800D01*
X0186799Y0277233D01*
X0187933Y0277233D01*
X0188500Y0277800D01*
X0188500Y0278935D01*
X0184817Y0278935D02*
X0184250Y0278367D01*
X0182549Y0278367D01*
X0182549Y0277233D02*
X0182549Y0280636D01*
X0184250Y0280636D01*
X0184817Y0280069D01*
X0184817Y0278935D01*
X0183683Y0278367D02*
X0184817Y0277233D01*
X0184817Y0304733D02*
X0183683Y0305867D01*
X0184250Y0305867D02*
X0182549Y0305867D01*
X0182549Y0304733D02*
X0182549Y0308136D01*
X0184250Y0308136D01*
X0184817Y0307569D01*
X0184817Y0306435D01*
X0184250Y0305867D01*
X0186232Y0305300D02*
X0186799Y0304733D01*
X0187933Y0304733D01*
X0188500Y0305300D01*
X0188500Y0306435D01*
X0187933Y0307002D01*
X0186799Y0307002D01*
X0186232Y0306435D01*
X0186232Y0305300D01*
X0189915Y0305300D02*
X0190482Y0304733D01*
X0192184Y0304733D01*
X0192184Y0307002D01*
X0193598Y0307002D02*
X0194732Y0307002D01*
X0194165Y0307569D02*
X0194165Y0305300D01*
X0194732Y0304733D01*
X0196054Y0305300D02*
X0196054Y0306435D01*
X0196621Y0307002D01*
X0197755Y0307002D01*
X0198322Y0306435D01*
X0198322Y0305867D01*
X0196054Y0305867D01*
X0196054Y0305300D02*
X0196621Y0304733D01*
X0197755Y0304733D01*
X0203420Y0305300D02*
X0203987Y0304733D01*
X0205121Y0304733D01*
X0205688Y0305300D01*
X0205688Y0306435D01*
X0205121Y0307002D01*
X0203987Y0307002D01*
X0203420Y0306435D01*
X0203420Y0305300D01*
X0207103Y0305300D02*
X0207670Y0304733D01*
X0209372Y0304733D01*
X0209372Y0307002D01*
X0210786Y0307002D02*
X0211920Y0307002D01*
X0211353Y0307569D02*
X0211353Y0305300D01*
X0211920Y0304733D01*
X0207103Y0305300D02*
X0207103Y0307002D01*
X0189915Y0307002D02*
X0189915Y0305300D01*
X0252027Y0208258D02*
X0252027Y0207124D01*
X0251459Y0207691D02*
X0253728Y0207691D01*
X0254295Y0208258D01*
X0254295Y0205710D02*
X0252027Y0205710D01*
X0254295Y0205710D02*
X0254295Y0204008D01*
X0253728Y0203441D01*
X0252027Y0203441D01*
X0252594Y0202026D02*
X0252027Y0201459D01*
X0252027Y0200325D01*
X0252594Y0199758D01*
X0253728Y0199758D01*
X0254295Y0200325D01*
X0254295Y0201459D01*
X0253728Y0202026D01*
X0252594Y0202026D01*
X0252594Y0194660D02*
X0253161Y0194660D01*
X0253161Y0192391D01*
X0253728Y0192391D02*
X0252594Y0192391D01*
X0252027Y0192959D01*
X0252027Y0194093D01*
X0252594Y0194660D01*
X0254295Y0194093D02*
X0254295Y0192959D01*
X0253728Y0192391D01*
X0254295Y0191070D02*
X0253728Y0190503D01*
X0251459Y0190503D01*
X0252027Y0189936D02*
X0252027Y0191070D01*
X0252027Y0188522D02*
X0254295Y0188522D01*
X0254295Y0186820D01*
X0253728Y0186253D01*
X0252027Y0186253D01*
X0252594Y0184838D02*
X0252027Y0184271D01*
X0252027Y0183137D01*
X0252594Y0182570D01*
X0253728Y0182570D01*
X0254295Y0183137D01*
X0254295Y0184271D01*
X0253728Y0184838D01*
X0252594Y0184838D01*
X0252594Y0181155D02*
X0253161Y0180588D01*
X0253161Y0178887D01*
X0253161Y0180021D02*
X0254295Y0181155D01*
X0252594Y0181155D02*
X0251459Y0181155D01*
X0250892Y0180588D01*
X0250892Y0178887D01*
X0254295Y0178887D01*
X0280892Y0178887D02*
X0280892Y0180588D01*
X0281459Y0181155D01*
X0282594Y0181155D01*
X0283161Y0180588D01*
X0283161Y0178887D01*
X0283161Y0180021D02*
X0284295Y0181155D01*
X0283728Y0182570D02*
X0284295Y0183137D01*
X0284295Y0184271D01*
X0283728Y0184838D01*
X0282594Y0184838D01*
X0282027Y0184271D01*
X0282027Y0183137D01*
X0282594Y0182570D01*
X0283728Y0182570D01*
X0283728Y0186253D02*
X0284295Y0186820D01*
X0284295Y0188522D01*
X0282027Y0188522D01*
X0282027Y0189936D02*
X0282027Y0191070D01*
X0281459Y0190503D02*
X0283728Y0190503D01*
X0284295Y0191070D01*
X0283728Y0192391D02*
X0282594Y0192391D01*
X0282027Y0192959D01*
X0282027Y0194093D01*
X0282594Y0194660D01*
X0283161Y0194660D01*
X0283161Y0192391D01*
X0283728Y0192391D02*
X0284295Y0192959D01*
X0284295Y0194093D01*
X0283728Y0199758D02*
X0284295Y0200325D01*
X0284295Y0201459D01*
X0283728Y0202026D01*
X0282594Y0202026D01*
X0282027Y0201459D01*
X0282027Y0200325D01*
X0282594Y0199758D01*
X0283728Y0199758D01*
X0283728Y0203441D02*
X0284295Y0204008D01*
X0284295Y0205710D01*
X0282027Y0205710D01*
X0282027Y0207124D02*
X0282027Y0208258D01*
X0281459Y0207691D02*
X0283728Y0207691D01*
X0284295Y0208258D01*
X0283728Y0203441D02*
X0282027Y0203441D01*
X0308959Y0207691D02*
X0311228Y0207691D01*
X0311795Y0208258D01*
X0309527Y0208258D02*
X0309527Y0207124D01*
X0309527Y0205710D02*
X0311795Y0205710D01*
X0311795Y0204008D01*
X0311228Y0203441D01*
X0309527Y0203441D01*
X0310094Y0202026D02*
X0309527Y0201459D01*
X0309527Y0200325D01*
X0310094Y0199758D01*
X0311228Y0199758D01*
X0311795Y0200325D01*
X0311795Y0201459D01*
X0311228Y0202026D01*
X0310094Y0202026D01*
X0310094Y0194660D02*
X0310661Y0194660D01*
X0310661Y0192391D01*
X0311228Y0192391D02*
X0310094Y0192391D01*
X0309527Y0192959D01*
X0309527Y0194093D01*
X0310094Y0194660D01*
X0311795Y0194093D02*
X0311795Y0192959D01*
X0311228Y0192391D01*
X0311795Y0191070D02*
X0311228Y0190503D01*
X0308959Y0190503D01*
X0309527Y0189936D02*
X0309527Y0191070D01*
X0309527Y0188522D02*
X0311795Y0188522D01*
X0311795Y0186820D01*
X0311228Y0186253D01*
X0309527Y0186253D01*
X0310094Y0184838D02*
X0309527Y0184271D01*
X0309527Y0183137D01*
X0310094Y0182570D01*
X0311228Y0182570D01*
X0311795Y0183137D01*
X0311795Y0184271D01*
X0311228Y0184838D01*
X0310094Y0184838D01*
X0310094Y0181155D02*
X0310661Y0180588D01*
X0310661Y0178887D01*
X0310661Y0180021D02*
X0311795Y0181155D01*
X0310094Y0181155D02*
X0308959Y0181155D01*
X0308392Y0180588D01*
X0308392Y0178887D01*
X0311795Y0178887D01*
X0284295Y0178887D02*
X0280892Y0178887D01*
X0282027Y0186253D02*
X0283728Y0186253D01*
X0393392Y0183088D02*
X0393392Y0181387D01*
X0396795Y0181387D01*
X0395661Y0181387D02*
X0395661Y0183088D01*
X0395094Y0183655D01*
X0393959Y0183655D01*
X0393392Y0183088D01*
X0395661Y0182521D02*
X0396795Y0183655D01*
X0396228Y0185070D02*
X0396795Y0185637D01*
X0396795Y0186771D01*
X0396228Y0187338D01*
X0395094Y0187338D01*
X0394527Y0186771D01*
X0394527Y0185637D01*
X0395094Y0185070D01*
X0396228Y0185070D01*
X0396228Y0188753D02*
X0396795Y0189320D01*
X0396795Y0191022D01*
X0394527Y0191022D01*
X0394527Y0192436D02*
X0394527Y0193570D01*
X0393959Y0193003D02*
X0396228Y0193003D01*
X0396795Y0193570D01*
X0396228Y0194891D02*
X0395094Y0194891D01*
X0394527Y0195459D01*
X0394527Y0196593D01*
X0395094Y0197160D01*
X0395661Y0197160D01*
X0395661Y0194891D01*
X0396228Y0194891D02*
X0396795Y0195459D01*
X0396795Y0196593D01*
X0396228Y0202258D02*
X0396795Y0202825D01*
X0396795Y0203959D01*
X0396228Y0204526D01*
X0395094Y0204526D01*
X0394527Y0203959D01*
X0394527Y0202825D01*
X0395094Y0202258D01*
X0396228Y0202258D01*
X0396228Y0205941D02*
X0396795Y0206508D01*
X0396795Y0208210D01*
X0394527Y0208210D01*
X0394527Y0209624D02*
X0394527Y0210758D01*
X0393959Y0210191D02*
X0396228Y0210191D01*
X0396795Y0210758D01*
X0396228Y0205941D02*
X0394527Y0205941D01*
X0421459Y0210191D02*
X0423728Y0210191D01*
X0424295Y0210758D01*
X0422027Y0210758D02*
X0422027Y0209624D01*
X0422027Y0208210D02*
X0424295Y0208210D01*
X0424295Y0206508D01*
X0423728Y0205941D01*
X0422027Y0205941D01*
X0422594Y0204526D02*
X0422027Y0203959D01*
X0422027Y0202825D01*
X0422594Y0202258D01*
X0423728Y0202258D01*
X0424295Y0202825D01*
X0424295Y0203959D01*
X0423728Y0204526D01*
X0422594Y0204526D01*
X0422594Y0197160D02*
X0423161Y0197160D01*
X0423161Y0194891D01*
X0423728Y0194891D02*
X0422594Y0194891D01*
X0422027Y0195459D01*
X0422027Y0196593D01*
X0422594Y0197160D01*
X0424295Y0196593D02*
X0424295Y0195459D01*
X0423728Y0194891D01*
X0424295Y0193570D02*
X0423728Y0193003D01*
X0421459Y0193003D01*
X0422027Y0192436D02*
X0422027Y0193570D01*
X0422027Y0191022D02*
X0424295Y0191022D01*
X0424295Y0189320D01*
X0423728Y0188753D01*
X0422027Y0188753D01*
X0422594Y0187338D02*
X0422027Y0186771D01*
X0422027Y0185637D01*
X0422594Y0185070D01*
X0423728Y0185070D01*
X0424295Y0185637D01*
X0424295Y0186771D01*
X0423728Y0187338D01*
X0422594Y0187338D01*
X0422594Y0183655D02*
X0423161Y0183088D01*
X0423161Y0181387D01*
X0423161Y0182521D02*
X0424295Y0183655D01*
X0422594Y0183655D02*
X0421459Y0183655D01*
X0420892Y0183088D01*
X0420892Y0181387D01*
X0424295Y0181387D01*
X0448392Y0181387D02*
X0448392Y0183088D01*
X0448959Y0183655D01*
X0450094Y0183655D01*
X0450661Y0183088D01*
X0450661Y0181387D01*
X0450661Y0182521D02*
X0451795Y0183655D01*
X0451228Y0185070D02*
X0451795Y0185637D01*
X0451795Y0186771D01*
X0451228Y0187338D01*
X0450094Y0187338D01*
X0449527Y0186771D01*
X0449527Y0185637D01*
X0450094Y0185070D01*
X0451228Y0185070D01*
X0451228Y0188753D02*
X0451795Y0189320D01*
X0451795Y0191022D01*
X0449527Y0191022D01*
X0449527Y0192436D02*
X0449527Y0193570D01*
X0448959Y0193003D02*
X0451228Y0193003D01*
X0451795Y0193570D01*
X0451228Y0194891D02*
X0450094Y0194891D01*
X0449527Y0195459D01*
X0449527Y0196593D01*
X0450094Y0197160D01*
X0450661Y0197160D01*
X0450661Y0194891D01*
X0451228Y0194891D02*
X0451795Y0195459D01*
X0451795Y0196593D01*
X0451228Y0202258D02*
X0451795Y0202825D01*
X0451795Y0203959D01*
X0451228Y0204526D01*
X0450094Y0204526D01*
X0449527Y0203959D01*
X0449527Y0202825D01*
X0450094Y0202258D01*
X0451228Y0202258D01*
X0451228Y0205941D02*
X0451795Y0206508D01*
X0451795Y0208210D01*
X0449527Y0208210D01*
X0449527Y0209624D02*
X0449527Y0210758D01*
X0448959Y0210191D02*
X0451228Y0210191D01*
X0451795Y0210758D01*
X0451228Y0205941D02*
X0449527Y0205941D01*
X0477709Y0207691D02*
X0479978Y0207691D01*
X0480545Y0208258D01*
X0478277Y0208258D02*
X0478277Y0207124D01*
X0478277Y0205710D02*
X0480545Y0205710D01*
X0480545Y0204008D01*
X0479978Y0203441D01*
X0478277Y0203441D01*
X0478844Y0202026D02*
X0478277Y0201459D01*
X0478277Y0200325D01*
X0478844Y0199758D01*
X0479978Y0199758D01*
X0480545Y0200325D01*
X0480545Y0201459D01*
X0479978Y0202026D01*
X0478844Y0202026D01*
X0478844Y0194660D02*
X0478277Y0194093D01*
X0478277Y0192959D01*
X0478844Y0192391D01*
X0479978Y0192391D01*
X0480545Y0192959D01*
X0480545Y0194093D01*
X0479411Y0194660D02*
X0479411Y0192391D01*
X0480545Y0191070D02*
X0479978Y0190503D01*
X0477709Y0190503D01*
X0478277Y0189936D02*
X0478277Y0191070D01*
X0478277Y0188522D02*
X0480545Y0188522D01*
X0480545Y0186820D01*
X0479978Y0186253D01*
X0478277Y0186253D01*
X0478844Y0184838D02*
X0478277Y0184271D01*
X0478277Y0183137D01*
X0478844Y0182570D01*
X0479978Y0182570D01*
X0480545Y0183137D01*
X0480545Y0184271D01*
X0479978Y0184838D01*
X0478844Y0184838D01*
X0478844Y0181155D02*
X0477709Y0181155D01*
X0477142Y0180588D01*
X0477142Y0178887D01*
X0480545Y0178887D01*
X0479411Y0178887D02*
X0479411Y0180588D01*
X0478844Y0181155D01*
X0479411Y0180021D02*
X0480545Y0181155D01*
X0479411Y0194660D02*
X0478844Y0194660D01*
X0451228Y0188753D02*
X0449527Y0188753D01*
X0448392Y0181387D02*
X0451795Y0181387D01*
X0492549Y0166886D02*
X0492549Y0163483D01*
X0492549Y0164617D02*
X0494250Y0164617D01*
X0494817Y0165185D01*
X0494817Y0166319D01*
X0494250Y0166886D01*
X0492549Y0166886D01*
X0493683Y0164617D02*
X0494817Y0163483D01*
X0496232Y0164050D02*
X0496799Y0163483D01*
X0497933Y0163483D01*
X0498500Y0164050D01*
X0498500Y0165185D01*
X0497933Y0165752D01*
X0496799Y0165752D01*
X0496232Y0165185D01*
X0496232Y0164050D01*
X0499915Y0164050D02*
X0499915Y0165752D01*
X0499915Y0164050D02*
X0500482Y0163483D01*
X0502184Y0163483D01*
X0502184Y0165752D01*
X0503598Y0165752D02*
X0504732Y0165752D01*
X0504165Y0166319D02*
X0504165Y0164050D01*
X0504732Y0163483D01*
X0506054Y0164050D02*
X0506054Y0165185D01*
X0506621Y0165752D01*
X0507755Y0165752D01*
X0508322Y0165185D01*
X0508322Y0164617D01*
X0506054Y0164617D01*
X0506054Y0164050D02*
X0506621Y0163483D01*
X0507755Y0163483D01*
X0513420Y0164050D02*
X0513420Y0165185D01*
X0513987Y0165752D01*
X0515121Y0165752D01*
X0515688Y0165185D01*
X0515688Y0164050D01*
X0515121Y0163483D01*
X0513987Y0163483D01*
X0513420Y0164050D01*
X0517103Y0164050D02*
X0517670Y0163483D01*
X0519372Y0163483D01*
X0519372Y0165752D01*
X0520786Y0165752D02*
X0521920Y0165752D01*
X0521353Y0166319D02*
X0521353Y0164050D01*
X0521920Y0163483D01*
X0517103Y0164050D02*
X0517103Y0165752D01*
X0534642Y0178887D02*
X0534642Y0180588D01*
X0535209Y0181155D01*
X0536344Y0181155D01*
X0536911Y0180588D01*
X0536911Y0178887D01*
X0536911Y0180021D02*
X0538045Y0181155D01*
X0537478Y0182570D02*
X0538045Y0183137D01*
X0538045Y0184271D01*
X0537478Y0184838D01*
X0536344Y0184838D01*
X0535777Y0184271D01*
X0535777Y0183137D01*
X0536344Y0182570D01*
X0537478Y0182570D01*
X0537478Y0186253D02*
X0538045Y0186820D01*
X0538045Y0188522D01*
X0535777Y0188522D01*
X0535777Y0189936D02*
X0535777Y0191070D01*
X0535209Y0190503D02*
X0537478Y0190503D01*
X0538045Y0191070D01*
X0537478Y0192391D02*
X0536344Y0192391D01*
X0535777Y0192959D01*
X0535777Y0194093D01*
X0536344Y0194660D01*
X0536911Y0194660D01*
X0536911Y0192391D01*
X0537478Y0192391D02*
X0538045Y0192959D01*
X0538045Y0194093D01*
X0537478Y0199758D02*
X0538045Y0200325D01*
X0538045Y0201459D01*
X0537478Y0202026D01*
X0536344Y0202026D01*
X0535777Y0201459D01*
X0535777Y0200325D01*
X0536344Y0199758D01*
X0537478Y0199758D01*
X0537478Y0203441D02*
X0538045Y0204008D01*
X0538045Y0205710D01*
X0535777Y0205710D01*
X0535777Y0207124D02*
X0535777Y0208258D01*
X0535209Y0207691D02*
X0537478Y0207691D01*
X0538045Y0208258D01*
X0537478Y0203441D02*
X0535777Y0203441D01*
X0562027Y0203959D02*
X0562027Y0202825D01*
X0562594Y0202258D01*
X0563728Y0202258D01*
X0564295Y0202825D01*
X0564295Y0203959D01*
X0563728Y0204526D01*
X0562594Y0204526D01*
X0562027Y0203959D01*
X0562027Y0205941D02*
X0563728Y0205941D01*
X0564295Y0206508D01*
X0564295Y0208210D01*
X0562027Y0208210D01*
X0562027Y0209624D02*
X0562027Y0210758D01*
X0561459Y0210191D02*
X0563728Y0210191D01*
X0564295Y0210758D01*
X0563161Y0197160D02*
X0563161Y0194891D01*
X0563728Y0194891D02*
X0562594Y0194891D01*
X0562027Y0195459D01*
X0562027Y0196593D01*
X0562594Y0197160D01*
X0563161Y0197160D01*
X0564295Y0196593D02*
X0564295Y0195459D01*
X0563728Y0194891D01*
X0564295Y0193570D02*
X0563728Y0193003D01*
X0561459Y0193003D01*
X0562027Y0192436D02*
X0562027Y0193570D01*
X0562027Y0191022D02*
X0564295Y0191022D01*
X0564295Y0189320D01*
X0563728Y0188753D01*
X0562027Y0188753D01*
X0562594Y0187338D02*
X0562027Y0186771D01*
X0562027Y0185637D01*
X0562594Y0185070D01*
X0563728Y0185070D01*
X0564295Y0185637D01*
X0564295Y0186771D01*
X0563728Y0187338D01*
X0562594Y0187338D01*
X0562594Y0183655D02*
X0563161Y0183088D01*
X0563161Y0181387D01*
X0563161Y0182521D02*
X0564295Y0183655D01*
X0562594Y0183655D02*
X0561459Y0183655D01*
X0560892Y0183088D01*
X0560892Y0181387D01*
X0564295Y0181387D01*
X0588392Y0181387D02*
X0588392Y0183088D01*
X0588959Y0183655D01*
X0590094Y0183655D01*
X0590661Y0183088D01*
X0590661Y0181387D01*
X0590661Y0182521D02*
X0591795Y0183655D01*
X0591228Y0185070D02*
X0591795Y0185637D01*
X0591795Y0186771D01*
X0591228Y0187338D01*
X0590094Y0187338D01*
X0589527Y0186771D01*
X0589527Y0185637D01*
X0590094Y0185070D01*
X0591228Y0185070D01*
X0591228Y0188753D02*
X0591795Y0189320D01*
X0591795Y0191022D01*
X0589527Y0191022D01*
X0589527Y0192436D02*
X0589527Y0193570D01*
X0588959Y0193003D02*
X0591228Y0193003D01*
X0591795Y0193570D01*
X0591228Y0194891D02*
X0591795Y0195459D01*
X0591795Y0196593D01*
X0590661Y0197160D02*
X0590661Y0194891D01*
X0591228Y0194891D02*
X0590094Y0194891D01*
X0589527Y0195459D01*
X0589527Y0196593D01*
X0590094Y0197160D01*
X0590661Y0197160D01*
X0591228Y0202258D02*
X0591795Y0202825D01*
X0591795Y0203959D01*
X0591228Y0204526D01*
X0590094Y0204526D01*
X0589527Y0203959D01*
X0589527Y0202825D01*
X0590094Y0202258D01*
X0591228Y0202258D01*
X0591228Y0205941D02*
X0591795Y0206508D01*
X0591795Y0208210D01*
X0589527Y0208210D01*
X0589527Y0209624D02*
X0589527Y0210758D01*
X0588959Y0210191D02*
X0591228Y0210191D01*
X0591795Y0210758D01*
X0591228Y0205941D02*
X0589527Y0205941D01*
X0589527Y0188753D02*
X0591228Y0188753D01*
X0591795Y0181387D02*
X0588392Y0181387D01*
X0618392Y0181387D02*
X0618392Y0183088D01*
X0618959Y0183655D01*
X0620094Y0183655D01*
X0620661Y0183088D01*
X0620661Y0181387D01*
X0620661Y0182521D02*
X0621795Y0183655D01*
X0621228Y0185070D02*
X0621795Y0185637D01*
X0621795Y0186771D01*
X0621228Y0187338D01*
X0620094Y0187338D01*
X0619527Y0186771D01*
X0619527Y0185637D01*
X0620094Y0185070D01*
X0621228Y0185070D01*
X0621228Y0188753D02*
X0621795Y0189320D01*
X0621795Y0191022D01*
X0619527Y0191022D01*
X0619527Y0192436D02*
X0619527Y0193570D01*
X0618959Y0193003D02*
X0621228Y0193003D01*
X0621795Y0193570D01*
X0621228Y0194891D02*
X0620094Y0194891D01*
X0619527Y0195459D01*
X0619527Y0196593D01*
X0620094Y0197160D01*
X0620661Y0197160D01*
X0620661Y0194891D01*
X0621228Y0194891D02*
X0621795Y0195459D01*
X0621795Y0196593D01*
X0621228Y0202258D02*
X0621795Y0202825D01*
X0621795Y0203959D01*
X0621228Y0204526D01*
X0620094Y0204526D01*
X0619527Y0203959D01*
X0619527Y0202825D01*
X0620094Y0202258D01*
X0621228Y0202258D01*
X0621228Y0205941D02*
X0621795Y0206508D01*
X0621795Y0208210D01*
X0619527Y0208210D01*
X0619527Y0209624D02*
X0619527Y0210758D01*
X0618959Y0210191D02*
X0621228Y0210191D01*
X0621795Y0210758D01*
X0621228Y0205941D02*
X0619527Y0205941D01*
X0619527Y0188753D02*
X0621228Y0188753D01*
X0621795Y0181387D02*
X0618392Y0181387D01*
X0538045Y0178887D02*
X0534642Y0178887D01*
X0535777Y0186253D02*
X0537478Y0186253D01*
X0521920Y0220733D02*
X0521353Y0221300D01*
X0521353Y0223569D01*
X0520786Y0223002D02*
X0521920Y0223002D01*
X0519372Y0223002D02*
X0519372Y0220733D01*
X0517670Y0220733D01*
X0517103Y0221300D01*
X0517103Y0223002D01*
X0515688Y0222435D02*
X0515121Y0223002D01*
X0513987Y0223002D01*
X0513420Y0222435D01*
X0513420Y0221300D01*
X0513987Y0220733D01*
X0515121Y0220733D01*
X0515688Y0221300D01*
X0515688Y0222435D01*
X0508322Y0222435D02*
X0508322Y0221867D01*
X0506054Y0221867D01*
X0506054Y0221300D02*
X0506054Y0222435D01*
X0506621Y0223002D01*
X0507755Y0223002D01*
X0508322Y0222435D01*
X0507755Y0220733D02*
X0506621Y0220733D01*
X0506054Y0221300D01*
X0504732Y0220733D02*
X0504165Y0221300D01*
X0504165Y0223569D01*
X0503598Y0223002D02*
X0504732Y0223002D01*
X0502184Y0223002D02*
X0502184Y0220733D01*
X0500482Y0220733D01*
X0499915Y0221300D01*
X0499915Y0223002D01*
X0498500Y0222435D02*
X0498500Y0221300D01*
X0497933Y0220733D01*
X0496799Y0220733D01*
X0496232Y0221300D01*
X0496232Y0222435D01*
X0496799Y0223002D01*
X0497933Y0223002D01*
X0498500Y0222435D01*
X0494817Y0222435D02*
X0494250Y0221867D01*
X0492549Y0221867D01*
X0492549Y0220733D02*
X0492549Y0224136D01*
X0494250Y0224136D01*
X0494817Y0223569D01*
X0494817Y0222435D01*
X0493683Y0221867D02*
X0494817Y0220733D01*
X0494817Y0249733D02*
X0493683Y0250867D01*
X0494250Y0250867D02*
X0492549Y0250867D01*
X0492549Y0249733D02*
X0492549Y0253136D01*
X0494250Y0253136D01*
X0494817Y0252569D01*
X0494817Y0251435D01*
X0494250Y0250867D01*
X0496232Y0250300D02*
X0496799Y0249733D01*
X0497933Y0249733D01*
X0498500Y0250300D01*
X0498500Y0251435D01*
X0497933Y0252002D01*
X0496799Y0252002D01*
X0496232Y0251435D01*
X0496232Y0250300D01*
X0499915Y0250300D02*
X0499915Y0252002D01*
X0499915Y0250300D02*
X0500482Y0249733D01*
X0502184Y0249733D01*
X0502184Y0252002D01*
X0503598Y0252002D02*
X0504732Y0252002D01*
X0504165Y0252569D02*
X0504165Y0250300D01*
X0504732Y0249733D01*
X0506054Y0250300D02*
X0506054Y0251435D01*
X0506621Y0252002D01*
X0507755Y0252002D01*
X0508322Y0251435D01*
X0508322Y0250867D01*
X0506054Y0250867D01*
X0506054Y0250300D02*
X0506621Y0249733D01*
X0507755Y0249733D01*
X0513420Y0250300D02*
X0513420Y0251435D01*
X0513987Y0252002D01*
X0515121Y0252002D01*
X0515688Y0251435D01*
X0515688Y0250300D01*
X0515121Y0249733D01*
X0513987Y0249733D01*
X0513420Y0250300D01*
X0517103Y0250300D02*
X0517670Y0249733D01*
X0519372Y0249733D01*
X0519372Y0252002D01*
X0520786Y0252002D02*
X0521920Y0252002D01*
X0521353Y0252569D02*
X0521353Y0250300D01*
X0521920Y0249733D01*
X0517103Y0250300D02*
X0517103Y0252002D01*
X0517670Y0277233D02*
X0519372Y0277233D01*
X0519372Y0279502D01*
X0520786Y0279502D02*
X0521920Y0279502D01*
X0521353Y0280069D02*
X0521353Y0277800D01*
X0521920Y0277233D01*
X0517670Y0277233D02*
X0517103Y0277800D01*
X0517103Y0279502D01*
X0515688Y0278935D02*
X0515121Y0279502D01*
X0513987Y0279502D01*
X0513420Y0278935D01*
X0513420Y0277800D01*
X0513987Y0277233D01*
X0515121Y0277233D01*
X0515688Y0277800D01*
X0515688Y0278935D01*
X0508322Y0278935D02*
X0508322Y0278367D01*
X0506054Y0278367D01*
X0506054Y0277800D02*
X0506054Y0278935D01*
X0506621Y0279502D01*
X0507755Y0279502D01*
X0508322Y0278935D01*
X0507755Y0277233D02*
X0506621Y0277233D01*
X0506054Y0277800D01*
X0504732Y0277233D02*
X0504165Y0277800D01*
X0504165Y0280069D01*
X0503598Y0279502D02*
X0504732Y0279502D01*
X0502184Y0279502D02*
X0502184Y0277233D01*
X0500482Y0277233D01*
X0499915Y0277800D01*
X0499915Y0279502D01*
X0498500Y0278935D02*
X0497933Y0279502D01*
X0496799Y0279502D01*
X0496232Y0278935D01*
X0496232Y0277800D01*
X0496799Y0277233D01*
X0497933Y0277233D01*
X0498500Y0277800D01*
X0498500Y0278935D01*
X0494817Y0278935D02*
X0494250Y0278367D01*
X0492549Y0278367D01*
X0492549Y0277233D02*
X0492549Y0280636D01*
X0494250Y0280636D01*
X0494817Y0280069D01*
X0494817Y0278935D01*
X0493683Y0278367D02*
X0494817Y0277233D01*
X0494817Y0304733D02*
X0493683Y0305867D01*
X0494250Y0305867D02*
X0492549Y0305867D01*
X0492549Y0304733D02*
X0492549Y0308136D01*
X0494250Y0308136D01*
X0494817Y0307569D01*
X0494817Y0306435D01*
X0494250Y0305867D01*
X0496232Y0305300D02*
X0496799Y0304733D01*
X0497933Y0304733D01*
X0498500Y0305300D01*
X0498500Y0306435D01*
X0497933Y0307002D01*
X0496799Y0307002D01*
X0496232Y0306435D01*
X0496232Y0305300D01*
X0499915Y0305300D02*
X0500482Y0304733D01*
X0502184Y0304733D01*
X0502184Y0307002D01*
X0503598Y0307002D02*
X0504732Y0307002D01*
X0504165Y0307569D02*
X0504165Y0305300D01*
X0504732Y0304733D01*
X0506054Y0305300D02*
X0506054Y0306435D01*
X0506621Y0307002D01*
X0507755Y0307002D01*
X0508322Y0306435D01*
X0508322Y0305867D01*
X0506054Y0305867D01*
X0506054Y0305300D02*
X0506621Y0304733D01*
X0507755Y0304733D01*
X0513420Y0305300D02*
X0513987Y0304733D01*
X0515121Y0304733D01*
X0515688Y0305300D01*
X0515688Y0306435D01*
X0515121Y0307002D01*
X0513987Y0307002D01*
X0513420Y0306435D01*
X0513420Y0305300D01*
X0517103Y0305300D02*
X0517670Y0304733D01*
X0519372Y0304733D01*
X0519372Y0307002D01*
X0520786Y0307002D02*
X0521920Y0307002D01*
X0521353Y0307569D02*
X0521353Y0305300D01*
X0521920Y0304733D01*
X0517103Y0305300D02*
X0517103Y0307002D01*
X0499915Y0307002D02*
X0499915Y0305300D01*
X0396228Y0188753D02*
X0394527Y0188753D01*
X0492549Y0140636D02*
X0494250Y0140636D01*
X0494817Y0140069D01*
X0494817Y0138935D01*
X0494250Y0138367D01*
X0492549Y0138367D01*
X0492549Y0137233D02*
X0492549Y0140636D01*
X0493683Y0138367D02*
X0494817Y0137233D01*
X0496232Y0137800D02*
X0496799Y0137233D01*
X0497933Y0137233D01*
X0498500Y0137800D01*
X0498500Y0138935D01*
X0497933Y0139502D01*
X0496799Y0139502D01*
X0496232Y0138935D01*
X0496232Y0137800D01*
X0499915Y0137800D02*
X0499915Y0139502D01*
X0499915Y0137800D02*
X0500482Y0137233D01*
X0502184Y0137233D01*
X0502184Y0139502D01*
X0503598Y0139502D02*
X0504732Y0139502D01*
X0504165Y0140069D02*
X0504165Y0137800D01*
X0504732Y0137233D01*
X0506054Y0137800D02*
X0506054Y0138935D01*
X0506621Y0139502D01*
X0507755Y0139502D01*
X0508322Y0138935D01*
X0508322Y0138367D01*
X0506054Y0138367D01*
X0506054Y0137800D02*
X0506621Y0137233D01*
X0507755Y0137233D01*
X0513420Y0137800D02*
X0513420Y0138935D01*
X0513987Y0139502D01*
X0515121Y0139502D01*
X0515688Y0138935D01*
X0515688Y0137800D01*
X0515121Y0137233D01*
X0513987Y0137233D01*
X0513420Y0137800D01*
X0517103Y0137800D02*
X0517670Y0137233D01*
X0519372Y0137233D01*
X0519372Y0139502D01*
X0520786Y0139502D02*
X0521920Y0139502D01*
X0521353Y0140069D02*
X0521353Y0137800D01*
X0521920Y0137233D01*
X0517103Y0137800D02*
X0517103Y0139502D01*
X0521353Y0110069D02*
X0521353Y0107800D01*
X0521920Y0107233D01*
X0521920Y0109502D02*
X0520786Y0109502D01*
X0519372Y0109502D02*
X0519372Y0107233D01*
X0517670Y0107233D01*
X0517103Y0107800D01*
X0517103Y0109502D01*
X0515688Y0108935D02*
X0515121Y0109502D01*
X0513987Y0109502D01*
X0513420Y0108935D01*
X0513420Y0107800D01*
X0513987Y0107233D01*
X0515121Y0107233D01*
X0515688Y0107800D01*
X0515688Y0108935D01*
X0508322Y0108935D02*
X0507755Y0109502D01*
X0506621Y0109502D01*
X0506054Y0108935D01*
X0506054Y0107800D01*
X0506621Y0107233D01*
X0507755Y0107233D01*
X0508322Y0108367D02*
X0506054Y0108367D01*
X0504732Y0107233D02*
X0504165Y0107800D01*
X0504165Y0110069D01*
X0503598Y0109502D02*
X0504732Y0109502D01*
X0502184Y0109502D02*
X0502184Y0107233D01*
X0500482Y0107233D01*
X0499915Y0107800D01*
X0499915Y0109502D01*
X0498500Y0108935D02*
X0497933Y0109502D01*
X0496799Y0109502D01*
X0496232Y0108935D01*
X0496232Y0107800D01*
X0496799Y0107233D01*
X0497933Y0107233D01*
X0498500Y0107800D01*
X0498500Y0108935D01*
X0494817Y0108935D02*
X0494250Y0108367D01*
X0492549Y0108367D01*
X0492549Y0107233D02*
X0492549Y0110636D01*
X0494250Y0110636D01*
X0494817Y0110069D01*
X0494817Y0108935D01*
X0493683Y0108367D02*
X0494817Y0107233D01*
X0508322Y0108367D02*
X0508322Y0108935D01*
X0494250Y0083136D02*
X0494817Y0082569D01*
X0494817Y0081435D01*
X0494250Y0080867D01*
X0492549Y0080867D01*
X0492549Y0079733D02*
X0492549Y0083136D01*
X0494250Y0083136D01*
X0493683Y0080867D02*
X0494817Y0079733D01*
X0496232Y0080300D02*
X0496799Y0079733D01*
X0497933Y0079733D01*
X0498500Y0080300D01*
X0498500Y0081435D01*
X0497933Y0082002D01*
X0496799Y0082002D01*
X0496232Y0081435D01*
X0496232Y0080300D01*
X0499915Y0080300D02*
X0500482Y0079733D01*
X0502184Y0079733D01*
X0502184Y0082002D01*
X0503598Y0082002D02*
X0504732Y0082002D01*
X0504165Y0082569D02*
X0504165Y0080300D01*
X0504732Y0079733D01*
X0506054Y0080300D02*
X0506054Y0081435D01*
X0506621Y0082002D01*
X0507755Y0082002D01*
X0508322Y0081435D01*
X0508322Y0080867D01*
X0506054Y0080867D01*
X0506054Y0080300D02*
X0506621Y0079733D01*
X0507755Y0079733D01*
X0513420Y0080300D02*
X0513987Y0079733D01*
X0515121Y0079733D01*
X0515688Y0080300D01*
X0515688Y0081435D01*
X0515121Y0082002D01*
X0513987Y0082002D01*
X0513420Y0081435D01*
X0513420Y0080300D01*
X0517103Y0080300D02*
X0517670Y0079733D01*
X0519372Y0079733D01*
X0519372Y0082002D01*
X0520786Y0082002D02*
X0521920Y0082002D01*
X0521353Y0082569D02*
X0521353Y0080300D01*
X0521920Y0079733D01*
X0517103Y0080300D02*
X0517103Y0082002D01*
X0499915Y0082002D02*
X0499915Y0080300D01*
X0114295Y0178887D02*
X0110892Y0178887D01*
X0110892Y0180588D01*
X0111459Y0181155D01*
X0112594Y0181155D01*
X0113161Y0180588D01*
X0113161Y0178887D01*
X0113161Y0180021D02*
X0114295Y0181155D01*
X0113728Y0182570D02*
X0112594Y0182570D01*
X0112027Y0183137D01*
X0112027Y0184271D01*
X0112594Y0184838D01*
X0113728Y0184838D01*
X0114295Y0184271D01*
X0114295Y0183137D01*
X0113728Y0182570D01*
X0113728Y0186253D02*
X0112027Y0186253D01*
X0113728Y0186253D02*
X0114295Y0186820D01*
X0114295Y0188522D01*
X0112027Y0188522D01*
X0112027Y0189936D02*
X0112027Y0191070D01*
X0111459Y0190503D02*
X0113728Y0190503D01*
X0114295Y0191070D01*
X0113728Y0192391D02*
X0112594Y0192391D01*
X0112027Y0192959D01*
X0112027Y0194093D01*
X0112594Y0194660D01*
X0113161Y0194660D01*
X0113161Y0192391D01*
X0113728Y0192391D02*
X0114295Y0192959D01*
X0114295Y0194093D01*
X0113728Y0199758D02*
X0112594Y0199758D01*
X0112027Y0200325D01*
X0112027Y0201459D01*
X0112594Y0202026D01*
X0113728Y0202026D01*
X0114295Y0201459D01*
X0114295Y0200325D01*
X0113728Y0199758D01*
X0113728Y0203441D02*
X0112027Y0203441D01*
X0113728Y0203441D02*
X0114295Y0204008D01*
X0114295Y0205710D01*
X0112027Y0205710D01*
X0112027Y0207124D02*
X0112027Y0208258D01*
X0111459Y0207691D02*
X0113728Y0207691D01*
X0114295Y0208258D01*
X0086795Y0208258D02*
X0086228Y0207691D01*
X0083959Y0207691D01*
X0084527Y0207124D02*
X0084527Y0208258D01*
X0084527Y0205710D02*
X0086795Y0205710D01*
X0086795Y0204008D01*
X0086228Y0203441D01*
X0084527Y0203441D01*
X0085094Y0202026D02*
X0084527Y0201459D01*
X0084527Y0200325D01*
X0085094Y0199758D01*
X0086228Y0199758D01*
X0086795Y0200325D01*
X0086795Y0201459D01*
X0086228Y0202026D01*
X0085094Y0202026D01*
X0085094Y0194660D02*
X0085661Y0194660D01*
X0085661Y0192391D01*
X0086228Y0192391D02*
X0085094Y0192391D01*
X0084527Y0192959D01*
X0084527Y0194093D01*
X0085094Y0194660D01*
X0086795Y0194093D02*
X0086795Y0192959D01*
X0086228Y0192391D01*
X0086795Y0191070D02*
X0086228Y0190503D01*
X0083959Y0190503D01*
X0084527Y0189936D02*
X0084527Y0191070D01*
X0084527Y0188522D02*
X0086795Y0188522D01*
X0086795Y0186820D01*
X0086228Y0186253D01*
X0084527Y0186253D01*
X0085094Y0184838D02*
X0084527Y0184271D01*
X0084527Y0183137D01*
X0085094Y0182570D01*
X0086228Y0182570D01*
X0086795Y0183137D01*
X0086795Y0184271D01*
X0086228Y0184838D01*
X0085094Y0184838D01*
X0085094Y0181155D02*
X0085661Y0180588D01*
X0085661Y0178887D01*
X0085661Y0180021D02*
X0086795Y0181155D01*
X0085094Y0181155D02*
X0083959Y0181155D01*
X0083392Y0180588D01*
X0083392Y0178887D01*
X0086795Y0178887D01*
D12*
X0046095Y0168933D02*
X0046097Y0169094D01*
X0046103Y0169254D01*
X0046113Y0169415D01*
X0046127Y0169575D01*
X0046145Y0169735D01*
X0046166Y0169894D01*
X0046192Y0170053D01*
X0046222Y0170211D01*
X0046255Y0170368D01*
X0046293Y0170525D01*
X0046334Y0170680D01*
X0046379Y0170834D01*
X0046428Y0170987D01*
X0046481Y0171139D01*
X0046537Y0171290D01*
X0046598Y0171439D01*
X0046661Y0171587D01*
X0046729Y0171733D01*
X0046800Y0171877D01*
X0046874Y0172019D01*
X0046952Y0172160D01*
X0047034Y0172298D01*
X0047119Y0172435D01*
X0047207Y0172569D01*
X0047299Y0172701D01*
X0047394Y0172831D01*
X0047492Y0172959D01*
X0047593Y0173084D01*
X0047697Y0173206D01*
X0047804Y0173326D01*
X0047914Y0173443D01*
X0048027Y0173558D01*
X0048143Y0173669D01*
X0048262Y0173778D01*
X0048383Y0173883D01*
X0048507Y0173986D01*
X0048633Y0174086D01*
X0048761Y0174182D01*
X0048892Y0174275D01*
X0049026Y0174365D01*
X0049161Y0174452D01*
X0049299Y0174535D01*
X0049438Y0174615D01*
X0049580Y0174691D01*
X0049723Y0174764D01*
X0049868Y0174833D01*
X0050015Y0174899D01*
X0050163Y0174961D01*
X0050313Y0175019D01*
X0050464Y0175074D01*
X0050617Y0175125D01*
X0050771Y0175172D01*
X0050926Y0175215D01*
X0051082Y0175254D01*
X0051238Y0175290D01*
X0051396Y0175321D01*
X0051554Y0175349D01*
X0051713Y0175373D01*
X0051873Y0175393D01*
X0052033Y0175409D01*
X0052193Y0175421D01*
X0052354Y0175429D01*
X0052515Y0175433D01*
X0052675Y0175433D01*
X0052836Y0175429D01*
X0052997Y0175421D01*
X0053157Y0175409D01*
X0053317Y0175393D01*
X0053477Y0175373D01*
X0053636Y0175349D01*
X0053794Y0175321D01*
X0053952Y0175290D01*
X0054108Y0175254D01*
X0054264Y0175215D01*
X0054419Y0175172D01*
X0054573Y0175125D01*
X0054726Y0175074D01*
X0054877Y0175019D01*
X0055027Y0174961D01*
X0055175Y0174899D01*
X0055322Y0174833D01*
X0055467Y0174764D01*
X0055610Y0174691D01*
X0055752Y0174615D01*
X0055891Y0174535D01*
X0056029Y0174452D01*
X0056164Y0174365D01*
X0056298Y0174275D01*
X0056429Y0174182D01*
X0056557Y0174086D01*
X0056683Y0173986D01*
X0056807Y0173883D01*
X0056928Y0173778D01*
X0057047Y0173669D01*
X0057163Y0173558D01*
X0057276Y0173443D01*
X0057386Y0173326D01*
X0057493Y0173206D01*
X0057597Y0173084D01*
X0057698Y0172959D01*
X0057796Y0172831D01*
X0057891Y0172701D01*
X0057983Y0172569D01*
X0058071Y0172435D01*
X0058156Y0172298D01*
X0058238Y0172160D01*
X0058316Y0172019D01*
X0058390Y0171877D01*
X0058461Y0171733D01*
X0058529Y0171587D01*
X0058592Y0171439D01*
X0058653Y0171290D01*
X0058709Y0171139D01*
X0058762Y0170987D01*
X0058811Y0170834D01*
X0058856Y0170680D01*
X0058897Y0170525D01*
X0058935Y0170368D01*
X0058968Y0170211D01*
X0058998Y0170053D01*
X0059024Y0169894D01*
X0059045Y0169735D01*
X0059063Y0169575D01*
X0059077Y0169415D01*
X0059087Y0169254D01*
X0059093Y0169094D01*
X0059095Y0168933D01*
X0059093Y0168772D01*
X0059087Y0168612D01*
X0059077Y0168451D01*
X0059063Y0168291D01*
X0059045Y0168131D01*
X0059024Y0167972D01*
X0058998Y0167813D01*
X0058968Y0167655D01*
X0058935Y0167498D01*
X0058897Y0167341D01*
X0058856Y0167186D01*
X0058811Y0167032D01*
X0058762Y0166879D01*
X0058709Y0166727D01*
X0058653Y0166576D01*
X0058592Y0166427D01*
X0058529Y0166279D01*
X0058461Y0166133D01*
X0058390Y0165989D01*
X0058316Y0165847D01*
X0058238Y0165706D01*
X0058156Y0165568D01*
X0058071Y0165431D01*
X0057983Y0165297D01*
X0057891Y0165165D01*
X0057796Y0165035D01*
X0057698Y0164907D01*
X0057597Y0164782D01*
X0057493Y0164660D01*
X0057386Y0164540D01*
X0057276Y0164423D01*
X0057163Y0164308D01*
X0057047Y0164197D01*
X0056928Y0164088D01*
X0056807Y0163983D01*
X0056683Y0163880D01*
X0056557Y0163780D01*
X0056429Y0163684D01*
X0056298Y0163591D01*
X0056164Y0163501D01*
X0056029Y0163414D01*
X0055891Y0163331D01*
X0055752Y0163251D01*
X0055610Y0163175D01*
X0055467Y0163102D01*
X0055322Y0163033D01*
X0055175Y0162967D01*
X0055027Y0162905D01*
X0054877Y0162847D01*
X0054726Y0162792D01*
X0054573Y0162741D01*
X0054419Y0162694D01*
X0054264Y0162651D01*
X0054108Y0162612D01*
X0053952Y0162576D01*
X0053794Y0162545D01*
X0053636Y0162517D01*
X0053477Y0162493D01*
X0053317Y0162473D01*
X0053157Y0162457D01*
X0052997Y0162445D01*
X0052836Y0162437D01*
X0052675Y0162433D01*
X0052515Y0162433D01*
X0052354Y0162437D01*
X0052193Y0162445D01*
X0052033Y0162457D01*
X0051873Y0162473D01*
X0051713Y0162493D01*
X0051554Y0162517D01*
X0051396Y0162545D01*
X0051238Y0162576D01*
X0051082Y0162612D01*
X0050926Y0162651D01*
X0050771Y0162694D01*
X0050617Y0162741D01*
X0050464Y0162792D01*
X0050313Y0162847D01*
X0050163Y0162905D01*
X0050015Y0162967D01*
X0049868Y0163033D01*
X0049723Y0163102D01*
X0049580Y0163175D01*
X0049438Y0163251D01*
X0049299Y0163331D01*
X0049161Y0163414D01*
X0049026Y0163501D01*
X0048892Y0163591D01*
X0048761Y0163684D01*
X0048633Y0163780D01*
X0048507Y0163880D01*
X0048383Y0163983D01*
X0048262Y0164088D01*
X0048143Y0164197D01*
X0048027Y0164308D01*
X0047914Y0164423D01*
X0047804Y0164540D01*
X0047697Y0164660D01*
X0047593Y0164782D01*
X0047492Y0164907D01*
X0047394Y0165035D01*
X0047299Y0165165D01*
X0047207Y0165297D01*
X0047119Y0165431D01*
X0047034Y0165568D01*
X0046952Y0165706D01*
X0046874Y0165847D01*
X0046800Y0165989D01*
X0046729Y0166133D01*
X0046661Y0166279D01*
X0046598Y0166427D01*
X0046537Y0166576D01*
X0046481Y0166727D01*
X0046428Y0166879D01*
X0046379Y0167032D01*
X0046334Y0167186D01*
X0046293Y0167341D01*
X0046255Y0167498D01*
X0046222Y0167655D01*
X0046192Y0167813D01*
X0046166Y0167972D01*
X0046145Y0168131D01*
X0046127Y0168291D01*
X0046113Y0168451D01*
X0046103Y0168612D01*
X0046097Y0168772D01*
X0046095Y0168933D01*
X0046095Y0218933D02*
X0046097Y0219094D01*
X0046103Y0219254D01*
X0046113Y0219415D01*
X0046127Y0219575D01*
X0046145Y0219735D01*
X0046166Y0219894D01*
X0046192Y0220053D01*
X0046222Y0220211D01*
X0046255Y0220368D01*
X0046293Y0220525D01*
X0046334Y0220680D01*
X0046379Y0220834D01*
X0046428Y0220987D01*
X0046481Y0221139D01*
X0046537Y0221290D01*
X0046598Y0221439D01*
X0046661Y0221587D01*
X0046729Y0221733D01*
X0046800Y0221877D01*
X0046874Y0222019D01*
X0046952Y0222160D01*
X0047034Y0222298D01*
X0047119Y0222435D01*
X0047207Y0222569D01*
X0047299Y0222701D01*
X0047394Y0222831D01*
X0047492Y0222959D01*
X0047593Y0223084D01*
X0047697Y0223206D01*
X0047804Y0223326D01*
X0047914Y0223443D01*
X0048027Y0223558D01*
X0048143Y0223669D01*
X0048262Y0223778D01*
X0048383Y0223883D01*
X0048507Y0223986D01*
X0048633Y0224086D01*
X0048761Y0224182D01*
X0048892Y0224275D01*
X0049026Y0224365D01*
X0049161Y0224452D01*
X0049299Y0224535D01*
X0049438Y0224615D01*
X0049580Y0224691D01*
X0049723Y0224764D01*
X0049868Y0224833D01*
X0050015Y0224899D01*
X0050163Y0224961D01*
X0050313Y0225019D01*
X0050464Y0225074D01*
X0050617Y0225125D01*
X0050771Y0225172D01*
X0050926Y0225215D01*
X0051082Y0225254D01*
X0051238Y0225290D01*
X0051396Y0225321D01*
X0051554Y0225349D01*
X0051713Y0225373D01*
X0051873Y0225393D01*
X0052033Y0225409D01*
X0052193Y0225421D01*
X0052354Y0225429D01*
X0052515Y0225433D01*
X0052675Y0225433D01*
X0052836Y0225429D01*
X0052997Y0225421D01*
X0053157Y0225409D01*
X0053317Y0225393D01*
X0053477Y0225373D01*
X0053636Y0225349D01*
X0053794Y0225321D01*
X0053952Y0225290D01*
X0054108Y0225254D01*
X0054264Y0225215D01*
X0054419Y0225172D01*
X0054573Y0225125D01*
X0054726Y0225074D01*
X0054877Y0225019D01*
X0055027Y0224961D01*
X0055175Y0224899D01*
X0055322Y0224833D01*
X0055467Y0224764D01*
X0055610Y0224691D01*
X0055752Y0224615D01*
X0055891Y0224535D01*
X0056029Y0224452D01*
X0056164Y0224365D01*
X0056298Y0224275D01*
X0056429Y0224182D01*
X0056557Y0224086D01*
X0056683Y0223986D01*
X0056807Y0223883D01*
X0056928Y0223778D01*
X0057047Y0223669D01*
X0057163Y0223558D01*
X0057276Y0223443D01*
X0057386Y0223326D01*
X0057493Y0223206D01*
X0057597Y0223084D01*
X0057698Y0222959D01*
X0057796Y0222831D01*
X0057891Y0222701D01*
X0057983Y0222569D01*
X0058071Y0222435D01*
X0058156Y0222298D01*
X0058238Y0222160D01*
X0058316Y0222019D01*
X0058390Y0221877D01*
X0058461Y0221733D01*
X0058529Y0221587D01*
X0058592Y0221439D01*
X0058653Y0221290D01*
X0058709Y0221139D01*
X0058762Y0220987D01*
X0058811Y0220834D01*
X0058856Y0220680D01*
X0058897Y0220525D01*
X0058935Y0220368D01*
X0058968Y0220211D01*
X0058998Y0220053D01*
X0059024Y0219894D01*
X0059045Y0219735D01*
X0059063Y0219575D01*
X0059077Y0219415D01*
X0059087Y0219254D01*
X0059093Y0219094D01*
X0059095Y0218933D01*
X0059093Y0218772D01*
X0059087Y0218612D01*
X0059077Y0218451D01*
X0059063Y0218291D01*
X0059045Y0218131D01*
X0059024Y0217972D01*
X0058998Y0217813D01*
X0058968Y0217655D01*
X0058935Y0217498D01*
X0058897Y0217341D01*
X0058856Y0217186D01*
X0058811Y0217032D01*
X0058762Y0216879D01*
X0058709Y0216727D01*
X0058653Y0216576D01*
X0058592Y0216427D01*
X0058529Y0216279D01*
X0058461Y0216133D01*
X0058390Y0215989D01*
X0058316Y0215847D01*
X0058238Y0215706D01*
X0058156Y0215568D01*
X0058071Y0215431D01*
X0057983Y0215297D01*
X0057891Y0215165D01*
X0057796Y0215035D01*
X0057698Y0214907D01*
X0057597Y0214782D01*
X0057493Y0214660D01*
X0057386Y0214540D01*
X0057276Y0214423D01*
X0057163Y0214308D01*
X0057047Y0214197D01*
X0056928Y0214088D01*
X0056807Y0213983D01*
X0056683Y0213880D01*
X0056557Y0213780D01*
X0056429Y0213684D01*
X0056298Y0213591D01*
X0056164Y0213501D01*
X0056029Y0213414D01*
X0055891Y0213331D01*
X0055752Y0213251D01*
X0055610Y0213175D01*
X0055467Y0213102D01*
X0055322Y0213033D01*
X0055175Y0212967D01*
X0055027Y0212905D01*
X0054877Y0212847D01*
X0054726Y0212792D01*
X0054573Y0212741D01*
X0054419Y0212694D01*
X0054264Y0212651D01*
X0054108Y0212612D01*
X0053952Y0212576D01*
X0053794Y0212545D01*
X0053636Y0212517D01*
X0053477Y0212493D01*
X0053317Y0212473D01*
X0053157Y0212457D01*
X0052997Y0212445D01*
X0052836Y0212437D01*
X0052675Y0212433D01*
X0052515Y0212433D01*
X0052354Y0212437D01*
X0052193Y0212445D01*
X0052033Y0212457D01*
X0051873Y0212473D01*
X0051713Y0212493D01*
X0051554Y0212517D01*
X0051396Y0212545D01*
X0051238Y0212576D01*
X0051082Y0212612D01*
X0050926Y0212651D01*
X0050771Y0212694D01*
X0050617Y0212741D01*
X0050464Y0212792D01*
X0050313Y0212847D01*
X0050163Y0212905D01*
X0050015Y0212967D01*
X0049868Y0213033D01*
X0049723Y0213102D01*
X0049580Y0213175D01*
X0049438Y0213251D01*
X0049299Y0213331D01*
X0049161Y0213414D01*
X0049026Y0213501D01*
X0048892Y0213591D01*
X0048761Y0213684D01*
X0048633Y0213780D01*
X0048507Y0213880D01*
X0048383Y0213983D01*
X0048262Y0214088D01*
X0048143Y0214197D01*
X0048027Y0214308D01*
X0047914Y0214423D01*
X0047804Y0214540D01*
X0047697Y0214660D01*
X0047593Y0214782D01*
X0047492Y0214907D01*
X0047394Y0215035D01*
X0047299Y0215165D01*
X0047207Y0215297D01*
X0047119Y0215431D01*
X0047034Y0215568D01*
X0046952Y0215706D01*
X0046874Y0215847D01*
X0046800Y0215989D01*
X0046729Y0216133D01*
X0046661Y0216279D01*
X0046598Y0216427D01*
X0046537Y0216576D01*
X0046481Y0216727D01*
X0046428Y0216879D01*
X0046379Y0217032D01*
X0046334Y0217186D01*
X0046293Y0217341D01*
X0046255Y0217498D01*
X0046222Y0217655D01*
X0046192Y0217813D01*
X0046166Y0217972D01*
X0046145Y0218131D01*
X0046127Y0218291D01*
X0046113Y0218451D01*
X0046103Y0218612D01*
X0046097Y0218772D01*
X0046095Y0218933D01*
X0646095Y0218933D02*
X0646097Y0219094D01*
X0646103Y0219254D01*
X0646113Y0219415D01*
X0646127Y0219575D01*
X0646145Y0219735D01*
X0646166Y0219894D01*
X0646192Y0220053D01*
X0646222Y0220211D01*
X0646255Y0220368D01*
X0646293Y0220525D01*
X0646334Y0220680D01*
X0646379Y0220834D01*
X0646428Y0220987D01*
X0646481Y0221139D01*
X0646537Y0221290D01*
X0646598Y0221439D01*
X0646661Y0221587D01*
X0646729Y0221733D01*
X0646800Y0221877D01*
X0646874Y0222019D01*
X0646952Y0222160D01*
X0647034Y0222298D01*
X0647119Y0222435D01*
X0647207Y0222569D01*
X0647299Y0222701D01*
X0647394Y0222831D01*
X0647492Y0222959D01*
X0647593Y0223084D01*
X0647697Y0223206D01*
X0647804Y0223326D01*
X0647914Y0223443D01*
X0648027Y0223558D01*
X0648143Y0223669D01*
X0648262Y0223778D01*
X0648383Y0223883D01*
X0648507Y0223986D01*
X0648633Y0224086D01*
X0648761Y0224182D01*
X0648892Y0224275D01*
X0649026Y0224365D01*
X0649161Y0224452D01*
X0649299Y0224535D01*
X0649438Y0224615D01*
X0649580Y0224691D01*
X0649723Y0224764D01*
X0649868Y0224833D01*
X0650015Y0224899D01*
X0650163Y0224961D01*
X0650313Y0225019D01*
X0650464Y0225074D01*
X0650617Y0225125D01*
X0650771Y0225172D01*
X0650926Y0225215D01*
X0651082Y0225254D01*
X0651238Y0225290D01*
X0651396Y0225321D01*
X0651554Y0225349D01*
X0651713Y0225373D01*
X0651873Y0225393D01*
X0652033Y0225409D01*
X0652193Y0225421D01*
X0652354Y0225429D01*
X0652515Y0225433D01*
X0652675Y0225433D01*
X0652836Y0225429D01*
X0652997Y0225421D01*
X0653157Y0225409D01*
X0653317Y0225393D01*
X0653477Y0225373D01*
X0653636Y0225349D01*
X0653794Y0225321D01*
X0653952Y0225290D01*
X0654108Y0225254D01*
X0654264Y0225215D01*
X0654419Y0225172D01*
X0654573Y0225125D01*
X0654726Y0225074D01*
X0654877Y0225019D01*
X0655027Y0224961D01*
X0655175Y0224899D01*
X0655322Y0224833D01*
X0655467Y0224764D01*
X0655610Y0224691D01*
X0655752Y0224615D01*
X0655891Y0224535D01*
X0656029Y0224452D01*
X0656164Y0224365D01*
X0656298Y0224275D01*
X0656429Y0224182D01*
X0656557Y0224086D01*
X0656683Y0223986D01*
X0656807Y0223883D01*
X0656928Y0223778D01*
X0657047Y0223669D01*
X0657163Y0223558D01*
X0657276Y0223443D01*
X0657386Y0223326D01*
X0657493Y0223206D01*
X0657597Y0223084D01*
X0657698Y0222959D01*
X0657796Y0222831D01*
X0657891Y0222701D01*
X0657983Y0222569D01*
X0658071Y0222435D01*
X0658156Y0222298D01*
X0658238Y0222160D01*
X0658316Y0222019D01*
X0658390Y0221877D01*
X0658461Y0221733D01*
X0658529Y0221587D01*
X0658592Y0221439D01*
X0658653Y0221290D01*
X0658709Y0221139D01*
X0658762Y0220987D01*
X0658811Y0220834D01*
X0658856Y0220680D01*
X0658897Y0220525D01*
X0658935Y0220368D01*
X0658968Y0220211D01*
X0658998Y0220053D01*
X0659024Y0219894D01*
X0659045Y0219735D01*
X0659063Y0219575D01*
X0659077Y0219415D01*
X0659087Y0219254D01*
X0659093Y0219094D01*
X0659095Y0218933D01*
X0659093Y0218772D01*
X0659087Y0218612D01*
X0659077Y0218451D01*
X0659063Y0218291D01*
X0659045Y0218131D01*
X0659024Y0217972D01*
X0658998Y0217813D01*
X0658968Y0217655D01*
X0658935Y0217498D01*
X0658897Y0217341D01*
X0658856Y0217186D01*
X0658811Y0217032D01*
X0658762Y0216879D01*
X0658709Y0216727D01*
X0658653Y0216576D01*
X0658592Y0216427D01*
X0658529Y0216279D01*
X0658461Y0216133D01*
X0658390Y0215989D01*
X0658316Y0215847D01*
X0658238Y0215706D01*
X0658156Y0215568D01*
X0658071Y0215431D01*
X0657983Y0215297D01*
X0657891Y0215165D01*
X0657796Y0215035D01*
X0657698Y0214907D01*
X0657597Y0214782D01*
X0657493Y0214660D01*
X0657386Y0214540D01*
X0657276Y0214423D01*
X0657163Y0214308D01*
X0657047Y0214197D01*
X0656928Y0214088D01*
X0656807Y0213983D01*
X0656683Y0213880D01*
X0656557Y0213780D01*
X0656429Y0213684D01*
X0656298Y0213591D01*
X0656164Y0213501D01*
X0656029Y0213414D01*
X0655891Y0213331D01*
X0655752Y0213251D01*
X0655610Y0213175D01*
X0655467Y0213102D01*
X0655322Y0213033D01*
X0655175Y0212967D01*
X0655027Y0212905D01*
X0654877Y0212847D01*
X0654726Y0212792D01*
X0654573Y0212741D01*
X0654419Y0212694D01*
X0654264Y0212651D01*
X0654108Y0212612D01*
X0653952Y0212576D01*
X0653794Y0212545D01*
X0653636Y0212517D01*
X0653477Y0212493D01*
X0653317Y0212473D01*
X0653157Y0212457D01*
X0652997Y0212445D01*
X0652836Y0212437D01*
X0652675Y0212433D01*
X0652515Y0212433D01*
X0652354Y0212437D01*
X0652193Y0212445D01*
X0652033Y0212457D01*
X0651873Y0212473D01*
X0651713Y0212493D01*
X0651554Y0212517D01*
X0651396Y0212545D01*
X0651238Y0212576D01*
X0651082Y0212612D01*
X0650926Y0212651D01*
X0650771Y0212694D01*
X0650617Y0212741D01*
X0650464Y0212792D01*
X0650313Y0212847D01*
X0650163Y0212905D01*
X0650015Y0212967D01*
X0649868Y0213033D01*
X0649723Y0213102D01*
X0649580Y0213175D01*
X0649438Y0213251D01*
X0649299Y0213331D01*
X0649161Y0213414D01*
X0649026Y0213501D01*
X0648892Y0213591D01*
X0648761Y0213684D01*
X0648633Y0213780D01*
X0648507Y0213880D01*
X0648383Y0213983D01*
X0648262Y0214088D01*
X0648143Y0214197D01*
X0648027Y0214308D01*
X0647914Y0214423D01*
X0647804Y0214540D01*
X0647697Y0214660D01*
X0647593Y0214782D01*
X0647492Y0214907D01*
X0647394Y0215035D01*
X0647299Y0215165D01*
X0647207Y0215297D01*
X0647119Y0215431D01*
X0647034Y0215568D01*
X0646952Y0215706D01*
X0646874Y0215847D01*
X0646800Y0215989D01*
X0646729Y0216133D01*
X0646661Y0216279D01*
X0646598Y0216427D01*
X0646537Y0216576D01*
X0646481Y0216727D01*
X0646428Y0216879D01*
X0646379Y0217032D01*
X0646334Y0217186D01*
X0646293Y0217341D01*
X0646255Y0217498D01*
X0646222Y0217655D01*
X0646192Y0217813D01*
X0646166Y0217972D01*
X0646145Y0218131D01*
X0646127Y0218291D01*
X0646113Y0218451D01*
X0646103Y0218612D01*
X0646097Y0218772D01*
X0646095Y0218933D01*
X0646095Y0168933D02*
X0646097Y0169094D01*
X0646103Y0169254D01*
X0646113Y0169415D01*
X0646127Y0169575D01*
X0646145Y0169735D01*
X0646166Y0169894D01*
X0646192Y0170053D01*
X0646222Y0170211D01*
X0646255Y0170368D01*
X0646293Y0170525D01*
X0646334Y0170680D01*
X0646379Y0170834D01*
X0646428Y0170987D01*
X0646481Y0171139D01*
X0646537Y0171290D01*
X0646598Y0171439D01*
X0646661Y0171587D01*
X0646729Y0171733D01*
X0646800Y0171877D01*
X0646874Y0172019D01*
X0646952Y0172160D01*
X0647034Y0172298D01*
X0647119Y0172435D01*
X0647207Y0172569D01*
X0647299Y0172701D01*
X0647394Y0172831D01*
X0647492Y0172959D01*
X0647593Y0173084D01*
X0647697Y0173206D01*
X0647804Y0173326D01*
X0647914Y0173443D01*
X0648027Y0173558D01*
X0648143Y0173669D01*
X0648262Y0173778D01*
X0648383Y0173883D01*
X0648507Y0173986D01*
X0648633Y0174086D01*
X0648761Y0174182D01*
X0648892Y0174275D01*
X0649026Y0174365D01*
X0649161Y0174452D01*
X0649299Y0174535D01*
X0649438Y0174615D01*
X0649580Y0174691D01*
X0649723Y0174764D01*
X0649868Y0174833D01*
X0650015Y0174899D01*
X0650163Y0174961D01*
X0650313Y0175019D01*
X0650464Y0175074D01*
X0650617Y0175125D01*
X0650771Y0175172D01*
X0650926Y0175215D01*
X0651082Y0175254D01*
X0651238Y0175290D01*
X0651396Y0175321D01*
X0651554Y0175349D01*
X0651713Y0175373D01*
X0651873Y0175393D01*
X0652033Y0175409D01*
X0652193Y0175421D01*
X0652354Y0175429D01*
X0652515Y0175433D01*
X0652675Y0175433D01*
X0652836Y0175429D01*
X0652997Y0175421D01*
X0653157Y0175409D01*
X0653317Y0175393D01*
X0653477Y0175373D01*
X0653636Y0175349D01*
X0653794Y0175321D01*
X0653952Y0175290D01*
X0654108Y0175254D01*
X0654264Y0175215D01*
X0654419Y0175172D01*
X0654573Y0175125D01*
X0654726Y0175074D01*
X0654877Y0175019D01*
X0655027Y0174961D01*
X0655175Y0174899D01*
X0655322Y0174833D01*
X0655467Y0174764D01*
X0655610Y0174691D01*
X0655752Y0174615D01*
X0655891Y0174535D01*
X0656029Y0174452D01*
X0656164Y0174365D01*
X0656298Y0174275D01*
X0656429Y0174182D01*
X0656557Y0174086D01*
X0656683Y0173986D01*
X0656807Y0173883D01*
X0656928Y0173778D01*
X0657047Y0173669D01*
X0657163Y0173558D01*
X0657276Y0173443D01*
X0657386Y0173326D01*
X0657493Y0173206D01*
X0657597Y0173084D01*
X0657698Y0172959D01*
X0657796Y0172831D01*
X0657891Y0172701D01*
X0657983Y0172569D01*
X0658071Y0172435D01*
X0658156Y0172298D01*
X0658238Y0172160D01*
X0658316Y0172019D01*
X0658390Y0171877D01*
X0658461Y0171733D01*
X0658529Y0171587D01*
X0658592Y0171439D01*
X0658653Y0171290D01*
X0658709Y0171139D01*
X0658762Y0170987D01*
X0658811Y0170834D01*
X0658856Y0170680D01*
X0658897Y0170525D01*
X0658935Y0170368D01*
X0658968Y0170211D01*
X0658998Y0170053D01*
X0659024Y0169894D01*
X0659045Y0169735D01*
X0659063Y0169575D01*
X0659077Y0169415D01*
X0659087Y0169254D01*
X0659093Y0169094D01*
X0659095Y0168933D01*
X0659093Y0168772D01*
X0659087Y0168612D01*
X0659077Y0168451D01*
X0659063Y0168291D01*
X0659045Y0168131D01*
X0659024Y0167972D01*
X0658998Y0167813D01*
X0658968Y0167655D01*
X0658935Y0167498D01*
X0658897Y0167341D01*
X0658856Y0167186D01*
X0658811Y0167032D01*
X0658762Y0166879D01*
X0658709Y0166727D01*
X0658653Y0166576D01*
X0658592Y0166427D01*
X0658529Y0166279D01*
X0658461Y0166133D01*
X0658390Y0165989D01*
X0658316Y0165847D01*
X0658238Y0165706D01*
X0658156Y0165568D01*
X0658071Y0165431D01*
X0657983Y0165297D01*
X0657891Y0165165D01*
X0657796Y0165035D01*
X0657698Y0164907D01*
X0657597Y0164782D01*
X0657493Y0164660D01*
X0657386Y0164540D01*
X0657276Y0164423D01*
X0657163Y0164308D01*
X0657047Y0164197D01*
X0656928Y0164088D01*
X0656807Y0163983D01*
X0656683Y0163880D01*
X0656557Y0163780D01*
X0656429Y0163684D01*
X0656298Y0163591D01*
X0656164Y0163501D01*
X0656029Y0163414D01*
X0655891Y0163331D01*
X0655752Y0163251D01*
X0655610Y0163175D01*
X0655467Y0163102D01*
X0655322Y0163033D01*
X0655175Y0162967D01*
X0655027Y0162905D01*
X0654877Y0162847D01*
X0654726Y0162792D01*
X0654573Y0162741D01*
X0654419Y0162694D01*
X0654264Y0162651D01*
X0654108Y0162612D01*
X0653952Y0162576D01*
X0653794Y0162545D01*
X0653636Y0162517D01*
X0653477Y0162493D01*
X0653317Y0162473D01*
X0653157Y0162457D01*
X0652997Y0162445D01*
X0652836Y0162437D01*
X0652675Y0162433D01*
X0652515Y0162433D01*
X0652354Y0162437D01*
X0652193Y0162445D01*
X0652033Y0162457D01*
X0651873Y0162473D01*
X0651713Y0162493D01*
X0651554Y0162517D01*
X0651396Y0162545D01*
X0651238Y0162576D01*
X0651082Y0162612D01*
X0650926Y0162651D01*
X0650771Y0162694D01*
X0650617Y0162741D01*
X0650464Y0162792D01*
X0650313Y0162847D01*
X0650163Y0162905D01*
X0650015Y0162967D01*
X0649868Y0163033D01*
X0649723Y0163102D01*
X0649580Y0163175D01*
X0649438Y0163251D01*
X0649299Y0163331D01*
X0649161Y0163414D01*
X0649026Y0163501D01*
X0648892Y0163591D01*
X0648761Y0163684D01*
X0648633Y0163780D01*
X0648507Y0163880D01*
X0648383Y0163983D01*
X0648262Y0164088D01*
X0648143Y0164197D01*
X0648027Y0164308D01*
X0647914Y0164423D01*
X0647804Y0164540D01*
X0647697Y0164660D01*
X0647593Y0164782D01*
X0647492Y0164907D01*
X0647394Y0165035D01*
X0647299Y0165165D01*
X0647207Y0165297D01*
X0647119Y0165431D01*
X0647034Y0165568D01*
X0646952Y0165706D01*
X0646874Y0165847D01*
X0646800Y0165989D01*
X0646729Y0166133D01*
X0646661Y0166279D01*
X0646598Y0166427D01*
X0646537Y0166576D01*
X0646481Y0166727D01*
X0646428Y0166879D01*
X0646379Y0167032D01*
X0646334Y0167186D01*
X0646293Y0167341D01*
X0646255Y0167498D01*
X0646222Y0167655D01*
X0646192Y0167813D01*
X0646166Y0167972D01*
X0646145Y0168131D01*
X0646127Y0168291D01*
X0646113Y0168451D01*
X0646103Y0168612D01*
X0646097Y0168772D01*
X0646095Y0168933D01*
M02*
