G75*
%MOIN*%
%OFA0B0*%
%FSLAX25Y25*%
%IPPOS*%
%LPD*%
%AMOC8*
5,1,8,0,0,1.08239X$1,22.5*
%
%ADD10R,0.08474X0.05324*%
%ADD11R,0.05915X0.02962*%
%ADD12C,0.13600*%
%ADD13C,0.03000*%
%ADD14C,0.03500*%
%ADD15C,0.04362*%
D10*
X0058127Y0257909D03*
X0058127Y0279957D03*
X0647064Y0279957D03*
X0647064Y0257909D03*
D11*
X0632595Y0263028D03*
X0632595Y0266965D03*
X0632595Y0270902D03*
X0632595Y0274839D03*
X0072595Y0274839D03*
X0072595Y0270902D03*
X0072595Y0266965D03*
X0072595Y0263028D03*
D12*
X0052595Y0243933D03*
X0052595Y0293933D03*
X0652595Y0293933D03*
X0652595Y0243933D03*
D13*
X0172647Y0140585D03*
X0155027Y0145307D03*
X0138236Y0152434D03*
X0122600Y0161829D03*
X0108424Y0173309D03*
X0095983Y0186649D03*
X0085271Y0201592D03*
X0076489Y0217595D03*
X0070550Y0235092D03*
X0096652Y0251134D03*
X0101277Y0233876D03*
X0108828Y0217683D03*
X0119076Y0203047D03*
X0131709Y0190414D03*
X0146345Y0180165D03*
X0162538Y0172615D03*
X0179796Y0167990D03*
X0197595Y0166433D03*
X0215394Y0167990D03*
X0232652Y0172615D03*
X0248845Y0180165D03*
X0263481Y0190414D03*
X0276115Y0203047D03*
X0286363Y0217683D03*
X0311952Y0205544D03*
X0302017Y0190246D03*
X0288345Y0178183D03*
X0289799Y0175479D03*
X0276282Y0164511D03*
X0260984Y0154577D03*
X0244452Y0146867D03*
X0227007Y0141534D03*
X0208991Y0138681D03*
X0190752Y0138362D03*
X0199951Y0193970D03*
X0218519Y0196911D03*
X0235773Y0204377D03*
X0251128Y0209150D03*
X0262151Y0230755D03*
X0237298Y0242405D03*
X0224124Y0229230D03*
X0206911Y0222101D03*
X0188280Y0222101D03*
X0171067Y0229230D03*
X0157892Y0242405D03*
X0135564Y0226777D03*
X0147997Y0212675D03*
X0163546Y0202108D03*
X0181234Y0195739D03*
X0127029Y0243528D03*
X0122928Y0261875D03*
X0150763Y0259618D03*
X0150763Y0278249D03*
X0157892Y0295462D03*
X0175095Y0293933D03*
X0179845Y0301683D03*
X0171067Y0311136D03*
X0157595Y0311433D03*
X0160345Y0321433D03*
X0150627Y0330695D03*
X0140095Y0328933D03*
X0141345Y0341933D03*
X0130459Y0349953D03*
X0117595Y0348933D03*
X0098917Y0354713D03*
X0111815Y0367611D03*
X0126384Y0378589D03*
X0142338Y0387433D03*
X0159368Y0393970D03*
X0177141Y0398073D03*
X0195313Y0399663D03*
X0213530Y0398708D03*
X0231436Y0395228D03*
X0248683Y0389289D03*
X0264936Y0381008D03*
X0279879Y0370545D03*
X0293220Y0358104D03*
X0304699Y0343928D03*
X0314094Y0328292D03*
X0321222Y0311501D03*
X0325943Y0293881D03*
X0328166Y0275776D03*
X0300095Y0268933D03*
X0298538Y0286732D03*
X0293914Y0303990D03*
X0286363Y0320183D03*
X0276115Y0334819D03*
X0263481Y0347453D03*
X0248845Y0357701D03*
X0232652Y0365252D03*
X0215394Y0369876D03*
X0197595Y0371433D03*
X0179796Y0369876D03*
X0162538Y0365252D03*
X0146345Y0357701D03*
X0167809Y0337765D03*
X0185863Y0343010D03*
X0204653Y0343600D03*
X0223000Y0339499D03*
X0239751Y0330964D03*
X0253853Y0318531D03*
X0264421Y0302982D03*
X0270789Y0285294D03*
X0244428Y0278249D03*
X0237298Y0295462D03*
X0224124Y0308636D03*
X0206911Y0315766D03*
X0188280Y0315766D03*
X0202595Y0287683D03*
X0180595Y0283933D03*
X0181845Y0268183D03*
X0181595Y0263683D03*
X0192595Y0268933D03*
X0216345Y0263933D03*
X0192595Y0250183D03*
X0244428Y0259618D03*
X0269617Y0248009D03*
X0272558Y0266577D03*
X0298538Y0251134D03*
X0293914Y0233876D03*
X0319661Y0222076D03*
X0324994Y0239521D03*
X0327848Y0257537D03*
X0377343Y0257537D03*
X0380196Y0239521D03*
X0406652Y0251134D03*
X0411277Y0233876D03*
X0418828Y0217683D03*
X0429076Y0203047D03*
X0448693Y0215522D03*
X0468967Y0204646D03*
X0486169Y0197059D03*
X0504716Y0193988D03*
X0523445Y0195627D03*
X0541177Y0201872D03*
X0557550Y0210080D03*
X0569330Y0226345D03*
X0577982Y0243036D03*
X0603914Y0233876D03*
X0608538Y0251134D03*
X0582211Y0261354D03*
X0554428Y0259618D03*
X0554428Y0278249D03*
X0541845Y0291683D03*
X0544595Y0294433D03*
X0549548Y0295712D03*
X0527624Y0293886D03*
X0528845Y0286933D03*
X0511345Y0286433D03*
X0507595Y0288933D03*
X0507595Y0273933D03*
X0487595Y0273933D03*
X0460763Y0278249D03*
X0467892Y0295462D03*
X0481067Y0308636D03*
X0498280Y0315766D03*
X0516911Y0315766D03*
X0534124Y0308636D03*
X0547595Y0308933D03*
X0562595Y0310183D03*
X0568426Y0314486D03*
X0579595Y0327183D03*
X0567595Y0328933D03*
X0553976Y0327872D03*
X0537861Y0337555D03*
X0519845Y0342926D03*
X0501058Y0343648D03*
X0482683Y0339675D03*
X0465873Y0331257D03*
X0451684Y0318923D03*
X0441009Y0303448D03*
X0434517Y0285804D03*
X0406652Y0286732D03*
X0405095Y0268933D03*
X0377024Y0275776D03*
X0379247Y0293881D03*
X0383969Y0311501D03*
X0391096Y0328292D03*
X0400491Y0343928D03*
X0411971Y0358104D03*
X0425312Y0370545D03*
X0440254Y0381008D03*
X0456507Y0389289D03*
X0473755Y0395228D03*
X0491661Y0398708D03*
X0509877Y0399663D03*
X0528049Y0398073D03*
X0545823Y0393970D03*
X0562852Y0387433D03*
X0578807Y0378589D03*
X0593375Y0367611D03*
X0606273Y0354713D03*
X0587595Y0348933D03*
X0573481Y0347453D03*
X0558845Y0357701D03*
X0542652Y0365252D03*
X0525394Y0369876D03*
X0507595Y0371433D03*
X0489796Y0369876D03*
X0472538Y0365252D03*
X0456345Y0357701D03*
X0441709Y0347453D03*
X0429076Y0334819D03*
X0418828Y0320183D03*
X0411277Y0303990D03*
X0432618Y0267101D03*
X0435429Y0248512D03*
X0442775Y0231207D03*
X0467892Y0242405D03*
X0481067Y0229230D03*
X0498280Y0222101D03*
X0516911Y0222101D03*
X0534124Y0229230D03*
X0547298Y0242405D03*
X0527624Y0263886D03*
X0502624Y0248886D03*
X0460763Y0259618D03*
X0385530Y0222076D03*
X0393239Y0205544D03*
X0403174Y0190246D03*
X0412141Y0177229D03*
X0414845Y0174433D03*
X0428908Y0164511D03*
X0444206Y0154577D03*
X0460739Y0146867D03*
X0478183Y0141534D03*
X0496200Y0138681D03*
X0514438Y0138362D03*
X0532543Y0140585D03*
X0550163Y0145307D03*
X0566954Y0152434D03*
X0582590Y0161829D03*
X0596766Y0173309D03*
X0609207Y0186649D03*
X0619670Y0201592D03*
X0627951Y0217845D03*
X0633890Y0235092D03*
X0637371Y0252999D03*
X0638325Y0271215D03*
X0625845Y0287433D03*
X0636735Y0289387D03*
X0632632Y0307161D03*
X0626095Y0324190D03*
X0617251Y0340145D03*
X0588615Y0335569D03*
X0596363Y0320183D03*
X0603914Y0303990D03*
X0608538Y0286732D03*
X0610095Y0268933D03*
X0581752Y0280148D03*
X0576633Y0298238D03*
X0596363Y0217683D03*
X0586115Y0203047D03*
X0573481Y0190414D03*
X0558845Y0180165D03*
X0542652Y0172615D03*
X0525394Y0167990D03*
X0507595Y0166433D03*
X0489796Y0167990D03*
X0472538Y0172615D03*
X0456345Y0180165D03*
X0441709Y0190414D03*
X0138334Y0314901D03*
X0128764Y0298719D03*
X0123519Y0280666D03*
X0096652Y0286732D03*
X0095095Y0268933D03*
X0067615Y0271465D03*
X0064345Y0264933D03*
X0060095Y0271433D03*
X0066070Y0252749D03*
X0068455Y0289387D03*
X0065095Y0298933D03*
X0072558Y0307161D03*
X0079095Y0324190D03*
X0087939Y0340145D03*
X0119076Y0334819D03*
X0108828Y0320183D03*
X0101277Y0303990D03*
D14*
X0197595Y0288933D03*
X0197595Y0276433D03*
X0221345Y0245183D03*
X0235095Y0231433D03*
X0242595Y0223933D03*
X0255095Y0211433D03*
X0260095Y0206433D03*
X0275095Y0191433D03*
X0280095Y0186433D03*
X0425345Y0186683D03*
X0430345Y0191683D03*
X0445095Y0206183D03*
X0450095Y0211183D03*
X0465095Y0226433D03*
X0470095Y0231433D03*
X0485095Y0246433D03*
X0570345Y0206433D03*
X0585095Y0191433D03*
D15*
X0507595Y0263933D03*
M02*
