G75*
%MOIN*%
%OFA0B0*%
%FSLAX25Y25*%
%IPPOS*%
%LPD*%
%AMOC8*
5,1,8,0,0,1.08239X$1,22.5*
%
%ADD10C,0.01000*%
%ADD11C,0.01575*%
D10*
X0064721Y0182122D02*
X0071217Y0182122D01*
X0071217Y0185075D01*
X0054485Y0188028D02*
X0054485Y0199839D01*
X0064721Y0205744D02*
X0071217Y0205744D01*
X0071217Y0202791D01*
X0633973Y0202791D02*
X0633973Y0205744D01*
X0640469Y0205744D01*
X0650705Y0199839D02*
X0650705Y0188028D01*
X0640469Y0182122D02*
X0633973Y0182122D01*
X0633973Y0185075D01*
D11*
X0630857Y0203776D02*
X0630859Y0203823D01*
X0630865Y0203869D01*
X0630874Y0203915D01*
X0630888Y0203959D01*
X0630905Y0204003D01*
X0630926Y0204044D01*
X0630950Y0204084D01*
X0630977Y0204122D01*
X0631008Y0204157D01*
X0631041Y0204190D01*
X0631077Y0204220D01*
X0631116Y0204246D01*
X0631156Y0204270D01*
X0631198Y0204289D01*
X0631242Y0204306D01*
X0631287Y0204318D01*
X0631333Y0204327D01*
X0631379Y0204332D01*
X0631426Y0204333D01*
X0631472Y0204330D01*
X0631518Y0204323D01*
X0631564Y0204312D01*
X0631608Y0204298D01*
X0631651Y0204280D01*
X0631692Y0204258D01*
X0631732Y0204233D01*
X0631769Y0204205D01*
X0631804Y0204174D01*
X0631836Y0204140D01*
X0631865Y0204103D01*
X0631890Y0204065D01*
X0631913Y0204024D01*
X0631932Y0203981D01*
X0631947Y0203937D01*
X0631959Y0203892D01*
X0631967Y0203846D01*
X0631971Y0203799D01*
X0631971Y0203753D01*
X0631967Y0203706D01*
X0631959Y0203660D01*
X0631947Y0203615D01*
X0631932Y0203571D01*
X0631913Y0203528D01*
X0631890Y0203487D01*
X0631865Y0203449D01*
X0631836Y0203412D01*
X0631804Y0203378D01*
X0631769Y0203347D01*
X0631732Y0203319D01*
X0631693Y0203294D01*
X0631651Y0203272D01*
X0631608Y0203254D01*
X0631564Y0203240D01*
X0631518Y0203229D01*
X0631472Y0203222D01*
X0631426Y0203219D01*
X0631379Y0203220D01*
X0631333Y0203225D01*
X0631287Y0203234D01*
X0631242Y0203246D01*
X0631198Y0203263D01*
X0631156Y0203282D01*
X0631116Y0203306D01*
X0631077Y0203332D01*
X0631041Y0203362D01*
X0631008Y0203395D01*
X0630977Y0203430D01*
X0630950Y0203468D01*
X0630926Y0203508D01*
X0630905Y0203549D01*
X0630888Y0203593D01*
X0630874Y0203637D01*
X0630865Y0203683D01*
X0630859Y0203729D01*
X0630857Y0203776D01*
X0073219Y0184091D02*
X0073221Y0184138D01*
X0073227Y0184184D01*
X0073236Y0184230D01*
X0073250Y0184274D01*
X0073267Y0184318D01*
X0073288Y0184359D01*
X0073312Y0184399D01*
X0073339Y0184437D01*
X0073370Y0184472D01*
X0073403Y0184505D01*
X0073439Y0184535D01*
X0073478Y0184561D01*
X0073518Y0184585D01*
X0073560Y0184604D01*
X0073604Y0184621D01*
X0073649Y0184633D01*
X0073695Y0184642D01*
X0073741Y0184647D01*
X0073788Y0184648D01*
X0073834Y0184645D01*
X0073880Y0184638D01*
X0073926Y0184627D01*
X0073970Y0184613D01*
X0074013Y0184595D01*
X0074054Y0184573D01*
X0074094Y0184548D01*
X0074131Y0184520D01*
X0074166Y0184489D01*
X0074198Y0184455D01*
X0074227Y0184418D01*
X0074252Y0184380D01*
X0074275Y0184339D01*
X0074294Y0184296D01*
X0074309Y0184252D01*
X0074321Y0184207D01*
X0074329Y0184161D01*
X0074333Y0184114D01*
X0074333Y0184068D01*
X0074329Y0184021D01*
X0074321Y0183975D01*
X0074309Y0183930D01*
X0074294Y0183886D01*
X0074275Y0183843D01*
X0074252Y0183802D01*
X0074227Y0183764D01*
X0074198Y0183727D01*
X0074166Y0183693D01*
X0074131Y0183662D01*
X0074094Y0183634D01*
X0074055Y0183609D01*
X0074013Y0183587D01*
X0073970Y0183569D01*
X0073926Y0183555D01*
X0073880Y0183544D01*
X0073834Y0183537D01*
X0073788Y0183534D01*
X0073741Y0183535D01*
X0073695Y0183540D01*
X0073649Y0183549D01*
X0073604Y0183561D01*
X0073560Y0183578D01*
X0073518Y0183597D01*
X0073478Y0183621D01*
X0073439Y0183647D01*
X0073403Y0183677D01*
X0073370Y0183710D01*
X0073339Y0183745D01*
X0073312Y0183783D01*
X0073288Y0183823D01*
X0073267Y0183864D01*
X0073250Y0183908D01*
X0073236Y0183952D01*
X0073227Y0183998D01*
X0073221Y0184044D01*
X0073219Y0184091D01*
M02*
