%
M48
M72
T01C0.0100
T02C0.0150
T03C0.0236
T04C0.1300
%
T01
X17265Y14059
X15503Y14531
X13824Y15243
X12260Y16183
X10842Y17331
X9598Y18665
X8527Y20159
X7649Y21759
X7055Y23509
X9665Y25113
X10128Y23388
X10883Y21768
X11908Y20305
X13171Y19041
X14635Y18017
X16254Y17261
X17980Y16799
X19760Y16643
X21539Y16799
X23265Y17261
X24885Y18017
X26348Y19041
X27611Y20305
X28636Y21768
X31195Y20554
X30202Y19025
X28835Y17818
X28980Y17548
X27628Y16451
X26098Y15458
X24445Y14687
X22701Y14153
X20899Y13868
X19075Y13836
X19995Y19397
X21852Y19691
X23577Y20438
X25113Y20915
X26215Y23075
X23730Y24240
X22412Y22923
X20691Y22210
X18828Y22210
X17107Y22923
X15789Y24240
X13556Y22678
X14800Y21267
X16355Y20211
X18123Y19574
X12703Y24353
X12293Y26187
X15076Y25962
X15076Y27825
X15789Y29546
X17510Y29393
X17985Y30168
X17107Y31114
X15760Y31143
X16035Y32143
X15063Y33069
X14010Y32893
X14135Y34193
X13046Y34995
X11760Y34893
X9892Y35471
X11182Y36761
X12638Y37859
X14234Y38743
X15937Y39397
X17714Y39807
X19531Y39966
X21353Y39871
X23144Y39523
X24868Y38929
X26494Y38101
X27988Y37054
X29322Y35810
X30470Y34393
X31409Y32829
X32122Y31150
X32594Y29388
X32817Y27578
X30010Y26893
X29854Y28673
X29391Y30399
X28636Y32018
X27611Y33482
X26348Y34745
X24885Y35770
X23265Y36525
X21539Y36988
X19760Y37143
X17980Y36988
X16254Y36525
X14635Y35770
X16781Y33776
X18586Y34301
X20465Y34360
X22300Y33950
X23975Y33096
X25385Y31853
X26442Y30298
X27079Y28529
X24443Y27825
X23730Y29546
X22412Y30864
X20691Y31577
X18828Y31577
X20260Y28768
X18060Y28393
X18185Y26818
X18160Y26368
X19260Y26893
X21635Y26393
X19260Y25018
X24443Y25962
X26962Y24801
X27256Y26658
X29854Y25113
X29391Y23388
X31966Y22208
X32499Y23952
X32785Y25754
X37734Y25754
X38020Y23952
X40665Y25113
X41128Y23388
X41883Y21768
X42908Y20305
X44869Y21552
X46897Y20465
X48617Y19706
X50472Y19399
X52344Y19563
X54118Y20187
X55755Y21008
X56933Y22634
X57798Y24304
X60391Y23388
X60854Y25113
X58221Y26135
X55443Y25962
X55443Y27825
X54185Y29168
X54460Y29443
X54955Y29571
X52762Y29389
X52885Y28693
X51135Y28643
X50760Y28893
X50760Y27393
X48760Y27393
X46076Y27825
X46789Y29546
X48107Y30864
X49828Y31577
X51691Y31577
X53412Y30864
X54760Y30893
X56260Y31018
X56843Y31449
X57960Y32718
X56760Y32893
X55398Y32787
X53786Y33756
X51984Y34293
X50106Y34365
X48268Y33967
X46587Y33126
X45168Y31892
X44101Y30345
X43452Y28580
X40665Y28673
X40510Y26893
X37702Y27578
X37925Y29388
X38397Y31150
X39110Y32829
X40049Y34393
X41197Y35810
X42531Y37054
X44025Y38101
X45651Y38929
X47375Y39523
X49166Y39871
X50988Y39966
X52805Y39807
X54582Y39397
X56285Y38743
X57881Y37859
X59337Y36761
X60627Y35471
X58760Y34893
X57348Y34745
X55885Y35770
X54265Y36525
X52539Y36988
X50760Y37143
X48980Y36988
X47254Y36525
X45635Y35770
X44171Y34745
X42908Y33482
X41883Y32018
X41128Y30399
X43262Y26710
X43543Y24851
X44277Y23121
X46789Y24240
X48107Y22923
X49828Y22210
X51691Y22210
X53412Y22923
X54730Y24240
X52762Y26389
X50262Y24889
X46076Y25962
X38553Y22208
X39324Y20554
X40317Y19025
X41214Y17723
X41485Y17443
X42891Y16451
X44421Y15458
X46074Y14687
X47818Y14153
X49620Y13868
X51444Y13836
X53254Y14059
X55016Y14531
X56695Y15243
X58259Y16183
X59677Y17331
X60921Y18665
X61967Y20159
X62795Y21784
X63389Y23509
X63737Y25300
X63833Y27121
X62585Y28743
X63674Y28939
X63263Y30716
X62609Y32419
X61725Y34014
X58861Y33557
X59636Y32018
X60391Y30399
X60854Y28673
X61010Y26893
X58175Y28015
X57663Y29824
X59636Y21768
X58611Y20305
X57348Y19041
X55885Y18017
X54265Y17261
X52539Y16799
X50760Y16643
X48980Y16799
X47254Y17261
X45635Y18017
X44171Y19041
X13833Y31490
X12876Y29872
X12352Y28067
X9665Y28673
X9510Y26893
X6762Y27146
X6435Y26493
X6010Y27143
X6607Y25275
X6845Y28939
X6510Y29893
X7256Y30716
X7910Y32419
X8794Y34014
X11908Y33482
X10883Y32018
X10128Y30399
T02
X19760Y28893
X19760Y27643
X22135Y24518
X23510Y23143
X24260Y22393
X25510Y21143
X26010Y20643
X27510Y19143
X28010Y18643
X42535Y18668
X43035Y19168
X44510Y20618
X45010Y21118
X46510Y22643
X47010Y23143
X48510Y24643
X57035Y20643
X58510Y19143
T03
X50760Y26393
T04
X65260Y24393
X65260Y29393
X5260Y29393
X5260Y24393
M30
