%
M48
M72
T01C0.0120
T02C0.1300
%
T01
X13824Y7743
X15503Y7031
X17265Y6559
X19075Y6336
X20899Y6368
X22701Y6653
X24445Y7187
X26098Y7958
X27628Y8951
X29030Y10048
X28835Y10318
X28010Y11143
X27510Y11643
X26348Y11541
X24885Y10517
X23265Y9761
X21539Y9299
X19760Y9143
X17980Y9299
X16254Y9761
X14635Y10517
X13171Y11541
X11908Y12805
X10883Y14268
X13556Y15178
X14800Y13767
X16355Y12711
X18123Y12074
X19995Y11897
X21852Y12191
X23577Y12938
X25113Y13415
X25510Y13643
X26010Y13143
X27611Y12805
X30202Y11525
X31195Y13054
X28636Y14268
X26215Y15575
X24260Y14893
X23510Y15643
X22412Y15423
X20691Y14710
X18828Y14710
X17107Y15423
X15789Y16740
X12703Y16853
X10128Y15888
X9665Y17613
X12293Y18687
X15076Y18462
X18160Y18868
X18185Y19318
X19260Y19393
X19760Y20143
X18060Y20893
X19760Y21393
X20260Y21268
X17985Y22668
X17510Y21893
X15789Y22046
X12876Y22372
X10128Y22899
X10883Y24518
X11908Y25982
X11760Y27393
X13046Y27495
X14135Y26693
X15063Y25569
X14010Y25393
X16035Y24643
X15760Y23643
X17107Y23614
X18828Y24077
X20691Y24077
X22412Y23364
X23730Y22046
X26442Y22798
X25385Y24353
X23975Y25596
X22300Y26450
X20465Y26860
X18586Y26801
X16781Y26276
X14635Y28270
X16254Y29025
X17980Y29488
X19760Y29643
X21539Y29488
X23265Y29025
X24885Y28270
X26348Y27245
X27611Y25982
X28636Y24518
X31409Y25329
X32122Y23650
X29391Y22899
X29854Y21173
X27079Y21029
X24443Y20325
X27256Y19158
X24443Y18462
X22135Y17018
X23730Y16740
X26962Y17301
X29391Y15888
X31966Y14708
X32499Y16452
X29854Y17613
X30010Y19393
X32817Y20078
X32785Y18254
X37734Y18254
X40510Y19393
X37702Y20078
X40665Y21173
X43452Y21080
X46076Y20325
X48760Y19893
X50760Y19893
X50760Y18893
X52762Y18889
X55443Y18462
X58221Y18635
X60854Y17613
X63737Y17800
X63389Y16009
X62795Y14284
X61967Y12659
X60921Y11165
X58510Y11643
X57348Y11541
X55885Y10517
X54265Y9761
X52539Y9299
X50760Y9143
X48980Y9299
X47254Y9761
X45635Y10517
X44171Y11541
X43035Y11668
X42535Y11168
X41485Y9943
X41214Y10223
X42891Y8951
X44421Y7958
X46074Y7187
X47818Y6653
X49620Y6368
X51444Y6336
X53254Y6559
X55016Y7031
X56695Y7743
X58259Y8683
X59677Y9831
X58611Y12805
X57035Y13143
X55755Y13508
X54118Y12687
X52344Y12063
X50472Y11899
X48617Y12206
X46897Y12965
X45010Y13618
X44869Y14052
X44510Y13118
X42908Y12805
X40317Y11525
X39324Y13054
X41883Y14268
X44277Y15621
X46510Y15143
X47010Y15643
X48107Y15423
X49828Y14710
X51691Y14710
X53412Y15423
X54730Y16740
X57798Y16804
X60391Y15888
X59636Y14268
X56933Y15134
X50262Y17389
X48510Y17143
X46789Y16740
X46076Y18462
X43543Y17351
X41128Y15888
X38553Y14708
X38020Y16452
X40665Y17613
X43262Y19210
X46789Y22046
X48107Y23364
X49828Y24077
X51691Y24077
X53412Y23364
X54760Y23393
X56260Y23518
X56843Y23949
X56760Y25393
X57960Y25218
X58861Y26057
X58760Y27393
X57348Y27245
X55885Y28270
X54265Y29025
X52539Y29488
X50760Y29643
X48980Y29488
X47254Y29025
X45635Y28270
X44171Y27245
X42908Y25982
X41883Y24518
X39110Y25329
X38397Y23650
X41128Y22899
X37925Y21888
X32594Y21888
X30470Y26893
X29322Y28310
X27988Y29554
X26494Y30601
X24868Y31429
X23144Y32023
X21353Y32371
X19531Y32466
X17714Y32307
X15937Y31897
X14234Y31243
X12638Y30359
X11182Y29261
X9892Y27971
X8794Y26514
X7910Y24919
X7256Y23216
X6510Y22393
X6845Y21439
X9665Y21173
X12352Y20567
X15076Y20325
X19260Y17518
X21635Y18893
X13833Y23990
X6762Y19646
X6010Y19643
X6435Y18993
X6607Y17775
X7055Y16009
X7699Y14259
X8527Y12659
X9598Y11165
X10842Y9831
X12260Y8683
X9510Y19393
X40049Y26893
X41197Y28310
X42531Y29554
X44025Y30601
X45651Y31429
X47375Y32023
X49166Y32371
X50988Y32466
X52805Y32307
X54582Y31897
X56285Y31243
X57881Y30359
X59337Y29261
X60627Y27971
X61725Y26514
X62609Y24919
X63263Y23216
X60391Y22899
X57663Y22324
X54955Y22071
X54460Y21943
X54185Y21668
X52885Y21193
X52762Y21889
X51135Y21143
X50760Y21393
X55443Y20325
X58175Y20515
X60854Y21173
X62585Y21243
X63674Y21439
X63833Y19621
X61010Y19393
X59636Y24518
X55398Y25287
X53786Y26256
X51984Y26793
X50106Y26865
X48268Y26467
X46587Y25626
X45168Y24392
X44101Y22845
T02
X65260Y21893
X65260Y16893
X5260Y16893
X5260Y21893
M30
