G75*
%MOIN*%
%OFA0B0*%
%FSLAX25Y25*%
%IPPOS*%
%LPD*%
%AMOC8*
5,1,8,0,0,1.08239X$1,22.5*
%
%ADD10C,0.01100*%
%ADD11C,0.07600*%
%ADD12R,0.07600X0.07600*%
%ADD13R,0.08000X0.08000*%
%ADD14C,0.08000*%
%ADD15C,0.07400*%
%ADD16C,0.06000*%
%ADD17C,0.13000*%
%ADD18C,0.00800*%
%ADD19C,0.02900*%
%ADD20C,0.05000*%
D10*
X0212940Y0037050D02*
X0212940Y0042955D01*
X0215892Y0040003D01*
X0211956Y0040003D01*
X0218401Y0041971D02*
X0218401Y0038034D01*
X0219385Y0037050D01*
X0221354Y0037050D01*
X0222338Y0038034D01*
X0218401Y0041971D01*
X0219385Y0042955D01*
X0221354Y0042955D01*
X0222338Y0041971D01*
X0222338Y0038034D01*
X0224847Y0040987D02*
X0226815Y0037050D01*
X0228783Y0040987D01*
D11*
X0098491Y0120000D03*
D12*
X0118176Y0120000D03*
D13*
X0108333Y0090000D03*
D14*
X0108333Y0070315D03*
D15*
X0098333Y0040000D03*
X0108333Y0040000D03*
X0118333Y0040000D03*
X0128333Y0040000D03*
X0138333Y0040000D03*
X0148333Y0040000D03*
X0158333Y0040000D03*
X0168333Y0040000D03*
X0178333Y0040000D03*
X0188333Y0040000D03*
X0178333Y0050000D03*
X0168333Y0050000D03*
X0158333Y0050000D03*
X0148333Y0050000D03*
X0138333Y0050000D03*
X0128333Y0050000D03*
X0118333Y0050000D03*
X0108333Y0050000D03*
X0133333Y0075000D03*
X0133333Y0085000D03*
X0133333Y0095000D03*
X0128333Y0130000D03*
X0118333Y0130000D03*
X0108333Y0130000D03*
X0098333Y0130000D03*
X0138333Y0130000D03*
X0148333Y0130000D03*
X0158333Y0130000D03*
X0168333Y0130000D03*
X0178333Y0130000D03*
X0188333Y0130000D03*
D16*
X0278333Y0129500D03*
X0288333Y0129500D03*
X0298333Y0129500D03*
X0298333Y0072500D03*
X0278333Y0072500D03*
D17*
X0262333Y0100000D03*
X0314333Y0100000D03*
D18*
X0321277Y0096903D02*
X0321833Y0096903D01*
X0321833Y0096105D02*
X0320946Y0096105D01*
X0320776Y0095695D02*
X0321833Y0098247D01*
X0321833Y0036500D01*
X0228385Y0036500D01*
X0230565Y0040860D01*
X0230133Y0042157D01*
X0228910Y0042768D01*
X0227613Y0042336D01*
X0226815Y0040739D01*
X0226017Y0042336D01*
X0224720Y0042768D01*
X0223988Y0042402D01*
X0223988Y0042654D01*
X0223027Y0043616D01*
X0223004Y0043638D01*
X0222037Y0044605D01*
X0218702Y0044605D01*
X0218688Y0044591D01*
X0217735Y0043638D01*
X0217718Y0043621D01*
X0216807Y0042710D01*
X0216751Y0042654D01*
X0216751Y0041477D01*
X0216576Y0041653D01*
X0213623Y0044605D01*
X0212256Y0044605D01*
X0211290Y0043638D01*
X0211290Y0041653D01*
X0211272Y0041653D01*
X0210306Y0040686D01*
X0210306Y0039319D01*
X0211272Y0038353D01*
X0211290Y0038353D01*
X0211290Y0036500D01*
X0192046Y0036500D01*
X0192223Y0036678D01*
X0192695Y0037327D01*
X0193060Y0038042D01*
X0193308Y0038806D01*
X0193433Y0039599D01*
X0193433Y0039600D01*
X0188733Y0039600D01*
X0188733Y0040400D01*
X0187933Y0040400D01*
X0187933Y0039600D01*
X0183233Y0039600D01*
X0183233Y0039599D01*
X0183359Y0038806D01*
X0183607Y0038042D01*
X0183971Y0037327D01*
X0184443Y0036678D01*
X0184621Y0036500D01*
X0181622Y0036500D01*
X0182403Y0037281D01*
X0183133Y0039045D01*
X0183133Y0040955D01*
X0182449Y0042606D01*
X0182826Y0042450D01*
X0183841Y0042450D01*
X0183862Y0042459D01*
X0183607Y0041958D01*
X0183359Y0041194D01*
X0183233Y0040401D01*
X0183233Y0040400D01*
X0187933Y0040400D01*
X0187933Y0045100D01*
X0187932Y0045100D01*
X0187139Y0044974D01*
X0186376Y0044726D01*
X0185874Y0044471D01*
X0185883Y0044493D01*
X0185883Y0045507D01*
X0185495Y0046444D01*
X0184778Y0047162D01*
X0183841Y0047550D01*
X0182826Y0047550D01*
X0182449Y0047394D01*
X0183133Y0049045D01*
X0183133Y0050955D01*
X0182403Y0052719D01*
X0181622Y0053500D01*
X0187712Y0053500D01*
X0196833Y0044379D01*
X0196833Y0042106D01*
X0196172Y0041444D01*
X0195783Y0040507D01*
X0195783Y0039493D01*
X0196172Y0038556D01*
X0196889Y0037838D01*
X0197826Y0037450D01*
X0198841Y0037450D01*
X0199778Y0037838D01*
X0200495Y0038556D01*
X0200883Y0039493D01*
X0200883Y0040507D01*
X0200495Y0041444D01*
X0199833Y0042106D01*
X0199833Y0045621D01*
X0189833Y0055621D01*
X0188955Y0056500D01*
X0165924Y0056500D01*
X0165045Y0055621D01*
X0162273Y0052849D01*
X0161052Y0054069D01*
X0159288Y0054800D01*
X0157379Y0054800D01*
X0155614Y0054069D01*
X0154264Y0052719D01*
X0153533Y0050955D01*
X0153533Y0049045D01*
X0154264Y0047281D01*
X0155045Y0046500D01*
X0152046Y0046500D01*
X0152223Y0046678D01*
X0152695Y0047327D01*
X0153060Y0048042D01*
X0153308Y0048806D01*
X0153433Y0049599D01*
X0153433Y0049600D01*
X0148733Y0049600D01*
X0148733Y0050400D01*
X0147933Y0050400D01*
X0147933Y0049600D01*
X0143233Y0049600D01*
X0143233Y0049599D01*
X0143359Y0048806D01*
X0143607Y0048042D01*
X0143971Y0047327D01*
X0144443Y0046678D01*
X0144621Y0046500D01*
X0141622Y0046500D01*
X0142403Y0047281D01*
X0143133Y0049045D01*
X0143133Y0050955D01*
X0142403Y0052719D01*
X0141052Y0054069D01*
X0139288Y0054800D01*
X0137379Y0054800D01*
X0135614Y0054069D01*
X0134264Y0052719D01*
X0133533Y0050955D01*
X0133533Y0049045D01*
X0134264Y0047281D01*
X0135045Y0046500D01*
X0131622Y0046500D01*
X0132403Y0047281D01*
X0133133Y0049045D01*
X0133133Y0050955D01*
X0132403Y0052719D01*
X0131052Y0054069D01*
X0129288Y0054800D01*
X0127379Y0054800D01*
X0125614Y0054069D01*
X0124264Y0052719D01*
X0123533Y0050955D01*
X0123533Y0049045D01*
X0124264Y0047281D01*
X0125045Y0046500D01*
X0121622Y0046500D01*
X0122403Y0047281D01*
X0123133Y0049045D01*
X0123133Y0050955D01*
X0122403Y0052719D01*
X0121933Y0053188D01*
X0121933Y0115100D01*
X0122431Y0115100D01*
X0123076Y0115744D01*
X0123076Y0124256D01*
X0122431Y0124900D01*
X0121776Y0124900D01*
X0121776Y0126654D01*
X0122403Y0127281D01*
X0123133Y0129045D01*
X0123133Y0130955D01*
X0122403Y0132719D01*
X0121622Y0133500D01*
X0125045Y0133500D01*
X0124264Y0132719D01*
X0123533Y0130955D01*
X0123533Y0129045D01*
X0124264Y0127281D01*
X0125614Y0125931D01*
X0127379Y0125200D01*
X0129288Y0125200D01*
X0131052Y0125931D01*
X0132403Y0127281D01*
X0133133Y0129045D01*
X0133133Y0130955D01*
X0132403Y0132719D01*
X0131622Y0133500D01*
X0135045Y0133500D01*
X0134264Y0132719D01*
X0133533Y0130955D01*
X0133533Y0129045D01*
X0134264Y0127281D01*
X0135614Y0125931D01*
X0137379Y0125200D01*
X0139288Y0125200D01*
X0141052Y0125931D01*
X0142403Y0127281D01*
X0143133Y0129045D01*
X0143133Y0130955D01*
X0142403Y0132719D01*
X0141622Y0133500D01*
X0145045Y0133500D01*
X0144264Y0132719D01*
X0143533Y0130955D01*
X0143533Y0129045D01*
X0144264Y0127281D01*
X0145614Y0125931D01*
X0147379Y0125200D01*
X0149288Y0125200D01*
X0151052Y0125931D01*
X0152403Y0127281D01*
X0153133Y0129045D01*
X0153133Y0130955D01*
X0152403Y0132719D01*
X0151622Y0133500D01*
X0155045Y0133500D01*
X0154264Y0132719D01*
X0153533Y0130955D01*
X0153533Y0129045D01*
X0154264Y0127281D01*
X0155614Y0125931D01*
X0157379Y0125200D01*
X0159288Y0125200D01*
X0160507Y0125705D01*
X0172712Y0113500D01*
X0231227Y0113500D01*
X0231889Y0112838D01*
X0232826Y0112450D01*
X0233841Y0112450D01*
X0234322Y0112650D01*
X0234322Y0110890D01*
X0235201Y0110011D01*
X0236833Y0108379D01*
X0237712Y0107500D01*
X0242712Y0107500D01*
X0226712Y0091500D01*
X0167712Y0091500D01*
X0166833Y0090621D01*
X0166833Y0089379D01*
X0167712Y0088500D01*
X0227955Y0088500D01*
X0228833Y0089379D01*
X0245905Y0106450D01*
X0246841Y0106450D01*
X0247778Y0106838D01*
X0248495Y0107556D01*
X0248883Y0108493D01*
X0248883Y0109507D01*
X0248495Y0110444D01*
X0247778Y0111162D01*
X0246841Y0111550D01*
X0245826Y0111550D01*
X0244889Y0111162D01*
X0244227Y0110500D01*
X0238955Y0110500D01*
X0237322Y0112132D01*
X0237322Y0113261D01*
X0237383Y0113322D01*
X0237383Y0116678D01*
X0235890Y0118171D01*
X0235011Y0119050D01*
X0231656Y0119050D01*
X0230606Y0118000D01*
X0182455Y0118000D01*
X0172628Y0127826D01*
X0173133Y0129045D01*
X0173133Y0130955D01*
X0172403Y0132719D01*
X0171622Y0133500D01*
X0175045Y0133500D01*
X0174264Y0132719D01*
X0173533Y0130955D01*
X0173533Y0129045D01*
X0174264Y0127281D01*
X0175614Y0125931D01*
X0177379Y0125200D01*
X0179288Y0125200D01*
X0181052Y0125931D01*
X0182403Y0127281D01*
X0183133Y0129045D01*
X0183133Y0130955D01*
X0182403Y0132719D01*
X0181622Y0133500D01*
X0184621Y0133500D01*
X0184443Y0133322D01*
X0183971Y0132673D01*
X0183607Y0131958D01*
X0183359Y0131194D01*
X0183233Y0130401D01*
X0183233Y0130400D01*
X0187933Y0130400D01*
X0187933Y0129600D01*
X0183233Y0129600D01*
X0183233Y0129599D01*
X0183359Y0128806D01*
X0183607Y0128042D01*
X0183971Y0127327D01*
X0184443Y0126678D01*
X0185011Y0126110D01*
X0185660Y0125638D01*
X0186376Y0125274D01*
X0187139Y0125026D01*
X0187932Y0124900D01*
X0187933Y0124900D01*
X0187933Y0129600D01*
X0188733Y0129600D01*
X0188733Y0124900D01*
X0188735Y0124900D01*
X0189528Y0125026D01*
X0190291Y0125274D01*
X0191006Y0125638D01*
X0191656Y0126110D01*
X0192223Y0126678D01*
X0192695Y0127327D01*
X0193060Y0128042D01*
X0193308Y0128806D01*
X0193433Y0129599D01*
X0193433Y0129600D01*
X0188733Y0129600D01*
X0188733Y0130400D01*
X0193433Y0130400D01*
X0193433Y0130401D01*
X0193308Y0131194D01*
X0193060Y0131958D01*
X0192695Y0132673D01*
X0192223Y0133322D01*
X0192046Y0133500D01*
X0277276Y0133500D01*
X0276011Y0132976D01*
X0274858Y0131822D01*
X0274233Y0130316D01*
X0274233Y0128684D01*
X0274858Y0127178D01*
X0276011Y0126024D01*
X0276833Y0125684D01*
X0276833Y0100621D01*
X0267712Y0091500D01*
X0252712Y0091500D01*
X0251833Y0090621D01*
X0246833Y0085621D01*
X0246833Y0075621D01*
X0240212Y0069000D01*
X0128940Y0069000D01*
X0128278Y0069662D01*
X0127341Y0070050D01*
X0126326Y0070050D01*
X0125389Y0069662D01*
X0124672Y0068944D01*
X0124283Y0068007D01*
X0124283Y0066993D01*
X0124672Y0066056D01*
X0125389Y0065338D01*
X0126326Y0064950D01*
X0127341Y0064950D01*
X0128278Y0065338D01*
X0128940Y0066000D01*
X0241455Y0066000D01*
X0248955Y0073500D01*
X0249833Y0074379D01*
X0249833Y0084379D01*
X0253955Y0088500D01*
X0268955Y0088500D01*
X0269833Y0089379D01*
X0278955Y0098500D01*
X0284712Y0098500D01*
X0283914Y0097702D02*
X0278156Y0097702D01*
X0278955Y0098500D02*
X0279833Y0099379D01*
X0279833Y0125684D01*
X0280656Y0126024D01*
X0281809Y0127178D01*
X0282433Y0128684D01*
X0282433Y0130316D01*
X0281809Y0131822D01*
X0280656Y0132976D01*
X0279390Y0133500D01*
X0286492Y0133500D01*
X0286027Y0133263D01*
X0285467Y0132856D01*
X0284977Y0132366D01*
X0284570Y0131806D01*
X0284256Y0131189D01*
X0284042Y0130530D01*
X0283942Y0129900D01*
X0287933Y0129900D01*
X0287933Y0129100D01*
X0283942Y0129100D01*
X0284042Y0128470D01*
X0284256Y0127811D01*
X0284570Y0127194D01*
X0284977Y0126634D01*
X0285467Y0126144D01*
X0286027Y0125737D01*
X0286644Y0125422D01*
X0287303Y0125208D01*
X0287933Y0125109D01*
X0287933Y0129100D01*
X0288733Y0129100D01*
X0288733Y0125109D01*
X0289364Y0125208D01*
X0290022Y0125422D01*
X0290639Y0125737D01*
X0291200Y0126144D01*
X0291689Y0126634D01*
X0292097Y0127194D01*
X0292411Y0127811D01*
X0292625Y0128470D01*
X0292725Y0129100D01*
X0288733Y0129100D01*
X0288733Y0129900D01*
X0292725Y0129900D01*
X0292625Y0130530D01*
X0292411Y0131189D01*
X0292097Y0131806D01*
X0291689Y0132366D01*
X0291200Y0132856D01*
X0290639Y0133263D01*
X0290175Y0133500D01*
X0297276Y0133500D01*
X0296011Y0132976D01*
X0294858Y0131822D01*
X0294233Y0130316D01*
X0294233Y0128684D01*
X0294858Y0127178D01*
X0296011Y0126024D01*
X0296833Y0125684D01*
X0296833Y0110621D01*
X0272712Y0086500D01*
X0257712Y0086500D01*
X0256833Y0085621D01*
X0251833Y0080621D01*
X0251833Y0077106D01*
X0251172Y0076444D01*
X0250783Y0075507D01*
X0250783Y0074493D01*
X0251172Y0073556D01*
X0251889Y0072838D01*
X0252826Y0072450D01*
X0253841Y0072450D01*
X0254778Y0072838D01*
X0255495Y0073556D01*
X0255883Y0074493D01*
X0255883Y0075507D01*
X0255495Y0076444D01*
X0254833Y0077106D01*
X0254833Y0079379D01*
X0258955Y0083500D01*
X0273955Y0083500D01*
X0298955Y0108500D01*
X0299833Y0109379D01*
X0299833Y0125684D01*
X0300656Y0126024D01*
X0301809Y0127178D01*
X0302433Y0128684D01*
X0302433Y0130316D01*
X0301809Y0131822D01*
X0300656Y0132976D01*
X0299390Y0133500D01*
X0321833Y0133500D01*
X0321833Y0101753D01*
X0320776Y0104305D01*
X0318638Y0106443D01*
X0315845Y0107600D01*
X0312822Y0107600D01*
X0310028Y0106443D01*
X0307890Y0104305D01*
X0306733Y0101512D01*
X0306733Y0098488D01*
X0307890Y0095695D01*
X0310028Y0093557D01*
X0312822Y0092400D01*
X0315845Y0092400D01*
X0318638Y0093557D01*
X0320776Y0095695D01*
X0320388Y0095306D02*
X0321833Y0095306D01*
X0321833Y0094508D02*
X0319589Y0094508D01*
X0318791Y0093709D02*
X0321833Y0093709D01*
X0321833Y0092911D02*
X0317078Y0092911D01*
X0321833Y0092112D02*
X0282567Y0092112D01*
X0283365Y0092911D02*
X0311589Y0092911D01*
X0309876Y0093709D02*
X0284164Y0093709D01*
X0284962Y0094508D02*
X0309078Y0094508D01*
X0308279Y0095306D02*
X0285761Y0095306D01*
X0286559Y0096105D02*
X0307721Y0096105D01*
X0307390Y0096903D02*
X0287358Y0096903D01*
X0288156Y0097702D02*
X0307059Y0097702D01*
X0306733Y0098500D02*
X0288955Y0098500D01*
X0289753Y0099299D02*
X0306733Y0099299D01*
X0306733Y0100097D02*
X0290552Y0100097D01*
X0291350Y0100896D02*
X0306733Y0100896D01*
X0306809Y0101694D02*
X0292149Y0101694D01*
X0292947Y0102493D02*
X0307140Y0102493D01*
X0307470Y0103291D02*
X0293746Y0103291D01*
X0294544Y0104090D02*
X0307801Y0104090D01*
X0308474Y0104888D02*
X0295343Y0104888D01*
X0296142Y0105687D02*
X0309272Y0105687D01*
X0310131Y0106485D02*
X0296940Y0106485D01*
X0297739Y0107284D02*
X0312058Y0107284D01*
X0316608Y0107284D02*
X0321833Y0107284D01*
X0321833Y0108082D02*
X0298537Y0108082D01*
X0299336Y0108881D02*
X0321833Y0108881D01*
X0321833Y0109679D02*
X0299833Y0109679D01*
X0299833Y0110478D02*
X0321833Y0110478D01*
X0321833Y0111276D02*
X0299833Y0111276D01*
X0299833Y0112075D02*
X0321833Y0112075D01*
X0321833Y0112873D02*
X0299833Y0112873D01*
X0299833Y0113672D02*
X0321833Y0113672D01*
X0321833Y0114470D02*
X0299833Y0114470D01*
X0299833Y0115269D02*
X0321833Y0115269D01*
X0321833Y0116068D02*
X0299833Y0116068D01*
X0299833Y0116866D02*
X0321833Y0116866D01*
X0321833Y0117665D02*
X0299833Y0117665D01*
X0299833Y0118463D02*
X0321833Y0118463D01*
X0321833Y0119262D02*
X0299833Y0119262D01*
X0299833Y0120060D02*
X0321833Y0120060D01*
X0321833Y0120859D02*
X0299833Y0120859D01*
X0299833Y0121657D02*
X0321833Y0121657D01*
X0321833Y0122456D02*
X0299833Y0122456D01*
X0299833Y0123254D02*
X0321833Y0123254D01*
X0321833Y0124053D02*
X0299833Y0124053D01*
X0299833Y0124851D02*
X0321833Y0124851D01*
X0321833Y0125650D02*
X0299833Y0125650D01*
X0301080Y0126448D02*
X0321833Y0126448D01*
X0321833Y0127247D02*
X0301838Y0127247D01*
X0302169Y0128045D02*
X0321833Y0128045D01*
X0321833Y0128844D02*
X0302433Y0128844D01*
X0302433Y0129642D02*
X0321833Y0129642D01*
X0321833Y0130441D02*
X0302381Y0130441D01*
X0302051Y0131239D02*
X0321833Y0131239D01*
X0321833Y0132038D02*
X0301594Y0132038D01*
X0300795Y0132836D02*
X0321833Y0132836D01*
X0298333Y0129500D02*
X0298333Y0110000D01*
X0273333Y0085000D01*
X0258333Y0085000D01*
X0253333Y0080000D01*
X0253333Y0075000D01*
X0251046Y0076142D02*
X0249833Y0076142D01*
X0249833Y0076940D02*
X0251668Y0076940D01*
X0251833Y0077739D02*
X0249833Y0077739D01*
X0249833Y0078537D02*
X0251833Y0078537D01*
X0251833Y0079336D02*
X0249833Y0079336D01*
X0249833Y0080134D02*
X0251833Y0080134D01*
X0252145Y0080933D02*
X0249833Y0080933D01*
X0249833Y0081732D02*
X0252944Y0081732D01*
X0253742Y0082530D02*
X0249833Y0082530D01*
X0249833Y0083329D02*
X0254541Y0083329D01*
X0255339Y0084127D02*
X0249833Y0084127D01*
X0250380Y0084926D02*
X0256138Y0084926D01*
X0256936Y0085724D02*
X0251179Y0085724D01*
X0251977Y0086523D02*
X0272735Y0086523D01*
X0273533Y0087321D02*
X0252776Y0087321D01*
X0253574Y0088120D02*
X0274332Y0088120D01*
X0275130Y0088918D02*
X0269373Y0088918D01*
X0269833Y0089379D02*
X0269833Y0089379D01*
X0270171Y0089717D02*
X0275929Y0089717D01*
X0276727Y0090515D02*
X0270970Y0090515D01*
X0271768Y0091314D02*
X0277526Y0091314D01*
X0278324Y0092112D02*
X0272567Y0092112D01*
X0273365Y0092911D02*
X0279123Y0092911D01*
X0279921Y0093709D02*
X0274164Y0093709D01*
X0274962Y0094508D02*
X0280720Y0094508D01*
X0281518Y0095306D02*
X0275761Y0095306D01*
X0276559Y0096105D02*
X0282317Y0096105D01*
X0283115Y0096903D02*
X0277358Y0096903D01*
X0278955Y0098500D02*
X0278955Y0098500D01*
X0279753Y0099299D02*
X0285511Y0099299D01*
X0286309Y0100097D02*
X0279833Y0100097D01*
X0279833Y0100896D02*
X0287108Y0100896D01*
X0287906Y0101694D02*
X0279833Y0101694D01*
X0279833Y0102493D02*
X0288705Y0102493D01*
X0289503Y0103291D02*
X0279833Y0103291D01*
X0279833Y0104090D02*
X0290302Y0104090D01*
X0291100Y0104888D02*
X0279833Y0104888D01*
X0279833Y0105687D02*
X0291899Y0105687D01*
X0292697Y0106485D02*
X0279833Y0106485D01*
X0279833Y0107284D02*
X0293496Y0107284D01*
X0294294Y0108082D02*
X0279833Y0108082D01*
X0279833Y0108881D02*
X0295093Y0108881D01*
X0295891Y0109679D02*
X0279833Y0109679D01*
X0279833Y0110478D02*
X0296690Y0110478D01*
X0296833Y0111276D02*
X0279833Y0111276D01*
X0279833Y0112075D02*
X0296833Y0112075D01*
X0296833Y0112873D02*
X0279833Y0112873D01*
X0279833Y0113672D02*
X0296833Y0113672D01*
X0296833Y0114470D02*
X0279833Y0114470D01*
X0279833Y0115269D02*
X0296833Y0115269D01*
X0296833Y0116068D02*
X0279833Y0116068D01*
X0279833Y0116866D02*
X0296833Y0116866D01*
X0296833Y0117665D02*
X0279833Y0117665D01*
X0279833Y0118463D02*
X0296833Y0118463D01*
X0296833Y0119262D02*
X0279833Y0119262D01*
X0279833Y0120060D02*
X0296833Y0120060D01*
X0296833Y0120859D02*
X0279833Y0120859D01*
X0279833Y0121657D02*
X0296833Y0121657D01*
X0296833Y0122456D02*
X0279833Y0122456D01*
X0279833Y0123254D02*
X0296833Y0123254D01*
X0296833Y0124053D02*
X0279833Y0124053D01*
X0279833Y0124851D02*
X0296833Y0124851D01*
X0296833Y0125650D02*
X0290468Y0125650D01*
X0291504Y0126448D02*
X0295587Y0126448D01*
X0294829Y0127247D02*
X0292123Y0127247D01*
X0292487Y0128045D02*
X0294498Y0128045D01*
X0294233Y0128844D02*
X0292684Y0128844D01*
X0292639Y0130441D02*
X0294285Y0130441D01*
X0294233Y0129642D02*
X0288733Y0129642D01*
X0288733Y0128844D02*
X0287933Y0128844D01*
X0287933Y0129642D02*
X0282433Y0129642D01*
X0282433Y0128844D02*
X0283982Y0128844D01*
X0284180Y0128045D02*
X0282169Y0128045D01*
X0281838Y0127247D02*
X0284543Y0127247D01*
X0285163Y0126448D02*
X0281080Y0126448D01*
X0279833Y0125650D02*
X0286198Y0125650D01*
X0287933Y0125650D02*
X0288733Y0125650D01*
X0288733Y0126448D02*
X0287933Y0126448D01*
X0287933Y0127247D02*
X0288733Y0127247D01*
X0288733Y0128045D02*
X0287933Y0128045D01*
X0284027Y0130441D02*
X0282381Y0130441D01*
X0282051Y0131239D02*
X0284281Y0131239D01*
X0284738Y0132038D02*
X0281594Y0132038D01*
X0280795Y0132836D02*
X0285447Y0132836D01*
X0291220Y0132836D02*
X0295871Y0132836D01*
X0295073Y0132038D02*
X0291928Y0132038D01*
X0292385Y0131239D02*
X0294616Y0131239D01*
X0278333Y0129500D02*
X0278333Y0100000D01*
X0268333Y0090000D01*
X0253333Y0090000D01*
X0248333Y0085000D01*
X0248333Y0075000D01*
X0240833Y0067500D01*
X0126833Y0067500D01*
X0124463Y0066560D02*
X0121933Y0066560D01*
X0121933Y0067358D02*
X0124283Y0067358D01*
X0124345Y0068157D02*
X0121933Y0068157D01*
X0121933Y0068955D02*
X0124682Y0068955D01*
X0125611Y0069754D02*
X0121933Y0069754D01*
X0121933Y0070552D02*
X0131528Y0070552D01*
X0132379Y0070200D02*
X0134288Y0070200D01*
X0136052Y0070931D01*
X0137403Y0072281D01*
X0138133Y0074045D01*
X0138133Y0075955D01*
X0137403Y0077719D01*
X0136052Y0079069D01*
X0134288Y0079800D01*
X0132379Y0079800D01*
X0130614Y0079069D01*
X0129264Y0077719D01*
X0128533Y0075955D01*
X0128533Y0074045D01*
X0129264Y0072281D01*
X0130614Y0070931D01*
X0132379Y0070200D01*
X0130194Y0071351D02*
X0121933Y0071351D01*
X0121933Y0072149D02*
X0129396Y0072149D01*
X0128988Y0072948D02*
X0121933Y0072948D01*
X0121933Y0073746D02*
X0128657Y0073746D01*
X0128533Y0074545D02*
X0121933Y0074545D01*
X0121933Y0075343D02*
X0128533Y0075343D01*
X0128611Y0076142D02*
X0121933Y0076142D01*
X0121933Y0076940D02*
X0128942Y0076940D01*
X0129284Y0077739D02*
X0121933Y0077739D01*
X0121933Y0078537D02*
X0130083Y0078537D01*
X0131258Y0079336D02*
X0121933Y0079336D01*
X0121933Y0080134D02*
X0246833Y0080134D01*
X0246833Y0079336D02*
X0135408Y0079336D01*
X0134288Y0080200D02*
X0132379Y0080200D01*
X0130614Y0080931D01*
X0129264Y0082281D01*
X0128533Y0084045D01*
X0128533Y0085955D01*
X0129264Y0087719D01*
X0130614Y0089069D01*
X0132379Y0089800D01*
X0134288Y0089800D01*
X0136052Y0089069D01*
X0137403Y0087719D01*
X0138133Y0085955D01*
X0138133Y0084045D01*
X0137403Y0082281D01*
X0136052Y0080931D01*
X0134288Y0080200D01*
X0136055Y0080933D02*
X0246833Y0080933D01*
X0246833Y0081732D02*
X0136853Y0081732D01*
X0137506Y0082530D02*
X0246833Y0082530D01*
X0246833Y0083329D02*
X0137836Y0083329D01*
X0138133Y0084127D02*
X0246833Y0084127D01*
X0246833Y0084926D02*
X0138133Y0084926D01*
X0138133Y0085724D02*
X0246936Y0085724D01*
X0247735Y0086523D02*
X0137898Y0086523D01*
X0137567Y0087321D02*
X0248533Y0087321D01*
X0249332Y0088120D02*
X0137002Y0088120D01*
X0136203Y0088918D02*
X0167294Y0088918D01*
X0166833Y0089717D02*
X0134489Y0089717D01*
X0134528Y0090026D02*
X0135291Y0090274D01*
X0136006Y0090638D01*
X0136656Y0091110D01*
X0137223Y0091678D01*
X0137695Y0092327D01*
X0138060Y0093042D01*
X0138308Y0093806D01*
X0138433Y0094599D01*
X0138433Y0094600D01*
X0133733Y0094600D01*
X0133733Y0089900D01*
X0133735Y0089900D01*
X0134528Y0090026D01*
X0133733Y0090515D02*
X0132933Y0090515D01*
X0132932Y0089900D02*
X0132139Y0090026D01*
X0131376Y0090274D01*
X0130660Y0090638D01*
X0130011Y0091110D01*
X0129443Y0091678D01*
X0128971Y0092327D01*
X0128607Y0093042D01*
X0128359Y0093806D01*
X0128233Y0094599D01*
X0128233Y0094600D01*
X0132933Y0094600D01*
X0132933Y0095400D01*
X0128233Y0095400D01*
X0128233Y0095401D01*
X0128359Y0096194D01*
X0128607Y0096958D01*
X0128971Y0097673D01*
X0129443Y0098322D01*
X0130011Y0098890D01*
X0130660Y0099362D01*
X0131376Y0099726D01*
X0132139Y0099974D01*
X0132932Y0100100D01*
X0132933Y0100100D01*
X0132933Y0095400D01*
X0133733Y0095400D01*
X0133733Y0100100D01*
X0133735Y0100100D01*
X0134528Y0099974D01*
X0135291Y0099726D01*
X0136006Y0099362D01*
X0136656Y0098890D01*
X0137223Y0098322D01*
X0137695Y0097673D01*
X0138060Y0096958D01*
X0138308Y0096194D01*
X0138433Y0095401D01*
X0138433Y0095400D01*
X0133733Y0095400D01*
X0133733Y0094600D01*
X0132933Y0094600D01*
X0132933Y0089900D01*
X0132932Y0089900D01*
X0132177Y0089717D02*
X0121933Y0089717D01*
X0121933Y0090515D02*
X0130902Y0090515D01*
X0129807Y0091314D02*
X0121933Y0091314D01*
X0121933Y0092112D02*
X0129128Y0092112D01*
X0128674Y0092911D02*
X0121933Y0092911D01*
X0121933Y0093709D02*
X0128390Y0093709D01*
X0128248Y0094508D02*
X0121933Y0094508D01*
X0121933Y0095306D02*
X0132933Y0095306D01*
X0132933Y0094508D02*
X0133733Y0094508D01*
X0133733Y0095306D02*
X0230518Y0095306D01*
X0229720Y0094508D02*
X0138419Y0094508D01*
X0138276Y0093709D02*
X0228921Y0093709D01*
X0228123Y0092911D02*
X0137993Y0092911D01*
X0137539Y0092112D02*
X0227324Y0092112D01*
X0227333Y0090000D02*
X0168333Y0090000D01*
X0167526Y0091314D02*
X0136859Y0091314D01*
X0135765Y0090515D02*
X0166833Y0090515D01*
X0138322Y0096105D02*
X0231317Y0096105D01*
X0232115Y0096903D02*
X0138077Y0096903D01*
X0137674Y0097702D02*
X0232914Y0097702D01*
X0233712Y0098500D02*
X0137046Y0098500D01*
X0136093Y0099299D02*
X0234511Y0099299D01*
X0235309Y0100097D02*
X0133752Y0100097D01*
X0133733Y0100097D02*
X0132933Y0100097D01*
X0132915Y0100097D02*
X0121933Y0100097D01*
X0121933Y0099299D02*
X0130573Y0099299D01*
X0129621Y0098500D02*
X0121933Y0098500D01*
X0121933Y0097702D02*
X0128992Y0097702D01*
X0128589Y0096903D02*
X0121933Y0096903D01*
X0121933Y0096105D02*
X0128345Y0096105D01*
X0132933Y0096105D02*
X0133733Y0096105D01*
X0133733Y0096903D02*
X0132933Y0096903D01*
X0132933Y0097702D02*
X0133733Y0097702D01*
X0133733Y0098500D02*
X0132933Y0098500D01*
X0132933Y0099299D02*
X0133733Y0099299D01*
X0133733Y0093709D02*
X0132933Y0093709D01*
X0132933Y0092911D02*
X0133733Y0092911D01*
X0133733Y0092112D02*
X0132933Y0092112D01*
X0132933Y0091314D02*
X0133733Y0091314D01*
X0130463Y0088918D02*
X0121933Y0088918D01*
X0121933Y0088120D02*
X0129665Y0088120D01*
X0129099Y0087321D02*
X0121933Y0087321D01*
X0121933Y0086523D02*
X0128769Y0086523D01*
X0128533Y0085724D02*
X0121933Y0085724D01*
X0121933Y0084926D02*
X0128533Y0084926D01*
X0128533Y0084127D02*
X0121933Y0084127D01*
X0121933Y0083329D02*
X0128830Y0083329D01*
X0129161Y0082530D02*
X0121933Y0082530D01*
X0121933Y0081732D02*
X0129814Y0081732D01*
X0130612Y0080933D02*
X0121933Y0080933D01*
X0114733Y0080933D02*
X0094833Y0080933D01*
X0094833Y0080134D02*
X0114733Y0080134D01*
X0114733Y0079336D02*
X0094833Y0079336D01*
X0094833Y0078537D02*
X0114733Y0078537D01*
X0114733Y0077739D02*
X0094833Y0077739D01*
X0094833Y0076940D02*
X0114733Y0076940D01*
X0114733Y0076142D02*
X0094833Y0076142D01*
X0094833Y0075343D02*
X0106335Y0075343D01*
X0106260Y0075319D02*
X0105503Y0074933D01*
X0104815Y0074434D01*
X0104214Y0073833D01*
X0103715Y0073145D01*
X0103329Y0072388D01*
X0103066Y0071579D01*
X0102933Y0070740D01*
X0102933Y0070715D01*
X0107933Y0070715D01*
X0107933Y0069915D01*
X0102933Y0069915D01*
X0102933Y0069890D01*
X0103066Y0069050D01*
X0103329Y0068242D01*
X0103715Y0067485D01*
X0104214Y0066797D01*
X0104815Y0066196D01*
X0105503Y0065696D01*
X0106260Y0065311D01*
X0107069Y0065048D01*
X0107908Y0064915D01*
X0107933Y0064915D01*
X0107933Y0069915D01*
X0108733Y0069915D01*
X0108733Y0064915D01*
X0108758Y0064915D01*
X0109598Y0065048D01*
X0110406Y0065311D01*
X0111164Y0065696D01*
X0111851Y0066196D01*
X0112452Y0066797D01*
X0112952Y0067485D01*
X0113338Y0068242D01*
X0113600Y0069050D01*
X0113733Y0069890D01*
X0113733Y0069915D01*
X0108733Y0069915D01*
X0108733Y0070715D01*
X0107933Y0070715D01*
X0107933Y0075715D01*
X0107908Y0075715D01*
X0107069Y0075582D01*
X0106260Y0075319D01*
X0104968Y0074545D02*
X0094833Y0074545D01*
X0094833Y0073746D02*
X0104152Y0073746D01*
X0103614Y0072948D02*
X0094833Y0072948D01*
X0094833Y0072149D02*
X0103251Y0072149D01*
X0103030Y0071351D02*
X0094833Y0071351D01*
X0094833Y0070552D02*
X0107933Y0070552D01*
X0107933Y0069754D02*
X0108733Y0069754D01*
X0108733Y0070552D02*
X0114733Y0070552D01*
X0114733Y0069754D02*
X0113712Y0069754D01*
X0113569Y0068955D02*
X0114733Y0068955D01*
X0114733Y0068157D02*
X0113294Y0068157D01*
X0112860Y0067358D02*
X0114733Y0067358D01*
X0114733Y0066560D02*
X0112215Y0066560D01*
X0111253Y0065761D02*
X0114733Y0065761D01*
X0114733Y0064963D02*
X0109060Y0064963D01*
X0108733Y0064963D02*
X0107933Y0064963D01*
X0107606Y0064963D02*
X0094833Y0064963D01*
X0094833Y0065761D02*
X0105414Y0065761D01*
X0104452Y0066560D02*
X0094833Y0066560D01*
X0094833Y0067358D02*
X0103807Y0067358D01*
X0103372Y0068157D02*
X0094833Y0068157D01*
X0094833Y0068955D02*
X0103097Y0068955D01*
X0102955Y0069754D02*
X0094833Y0069754D01*
X0094833Y0064164D02*
X0114733Y0064164D01*
X0114733Y0063366D02*
X0094833Y0063366D01*
X0094833Y0062567D02*
X0114733Y0062567D01*
X0114733Y0061769D02*
X0094833Y0061769D01*
X0094833Y0060970D02*
X0114733Y0060970D01*
X0114733Y0060172D02*
X0094833Y0060172D01*
X0094833Y0059373D02*
X0114733Y0059373D01*
X0114733Y0058575D02*
X0094833Y0058575D01*
X0094833Y0057776D02*
X0114733Y0057776D01*
X0114733Y0056978D02*
X0094833Y0056978D01*
X0094833Y0056179D02*
X0114733Y0056179D01*
X0114733Y0055381D02*
X0094833Y0055381D01*
X0094833Y0054582D02*
X0106093Y0054582D01*
X0106376Y0054726D02*
X0105660Y0054362D01*
X0105011Y0053890D01*
X0104443Y0053322D01*
X0103971Y0052673D01*
X0103607Y0051958D01*
X0103359Y0051194D01*
X0103233Y0050401D01*
X0103233Y0050400D01*
X0107933Y0050400D01*
X0107933Y0049600D01*
X0103233Y0049600D01*
X0103233Y0049599D01*
X0103359Y0048806D01*
X0103607Y0048042D01*
X0103971Y0047327D01*
X0104443Y0046678D01*
X0105011Y0046110D01*
X0105660Y0045638D01*
X0106376Y0045274D01*
X0107139Y0045026D01*
X0107932Y0044900D01*
X0107933Y0044900D01*
X0107933Y0049600D01*
X0108733Y0049600D01*
X0108733Y0044900D01*
X0108735Y0044900D01*
X0109528Y0045026D01*
X0110291Y0045274D01*
X0111006Y0045638D01*
X0111656Y0046110D01*
X0112223Y0046678D01*
X0112695Y0047327D01*
X0113060Y0048042D01*
X0113308Y0048806D01*
X0113433Y0049599D01*
X0113433Y0049600D01*
X0108733Y0049600D01*
X0108733Y0050400D01*
X0107933Y0050400D01*
X0107933Y0055100D01*
X0107932Y0055100D01*
X0107139Y0054974D01*
X0106376Y0054726D01*
X0107933Y0054582D02*
X0108733Y0054582D01*
X0108733Y0055100D02*
X0108733Y0050400D01*
X0113433Y0050400D01*
X0113433Y0050401D01*
X0113308Y0051194D01*
X0113060Y0051958D01*
X0112695Y0052673D01*
X0112223Y0053322D01*
X0111656Y0053890D01*
X0111006Y0054362D01*
X0110291Y0054726D01*
X0109528Y0054974D01*
X0108735Y0055100D01*
X0108733Y0055100D01*
X0108733Y0053784D02*
X0107933Y0053784D01*
X0107933Y0052985D02*
X0108733Y0052985D01*
X0108733Y0052187D02*
X0107933Y0052187D01*
X0107933Y0051388D02*
X0108733Y0051388D01*
X0108733Y0050590D02*
X0107933Y0050590D01*
X0107933Y0049791D02*
X0094833Y0049791D01*
X0094833Y0048993D02*
X0103329Y0048993D01*
X0103558Y0048194D02*
X0094833Y0048194D01*
X0094833Y0047396D02*
X0103936Y0047396D01*
X0104524Y0046597D02*
X0094833Y0046597D01*
X0094833Y0045799D02*
X0105440Y0045799D01*
X0105934Y0044201D02*
X0100733Y0044201D01*
X0101052Y0044069D02*
X0099288Y0044800D01*
X0097379Y0044800D01*
X0095614Y0044069D01*
X0094833Y0043288D01*
X0094833Y0116304D01*
X0095103Y0116034D01*
X0095765Y0115553D01*
X0096495Y0115181D01*
X0097273Y0114928D01*
X0098082Y0114800D01*
X0098091Y0114800D01*
X0098091Y0119600D01*
X0098891Y0119600D01*
X0098891Y0120400D01*
X0103691Y0120400D01*
X0103691Y0120409D01*
X0103563Y0121218D01*
X0103310Y0121996D01*
X0102938Y0122725D01*
X0102457Y0123388D01*
X0101878Y0123966D01*
X0101216Y0124447D01*
X0100487Y0124819D01*
X0099708Y0125072D01*
X0099683Y0125076D01*
X0100291Y0125274D01*
X0101006Y0125638D01*
X0101656Y0126110D01*
X0102223Y0126678D01*
X0102695Y0127327D01*
X0103060Y0128042D01*
X0103308Y0128806D01*
X0103433Y0129599D01*
X0103433Y0129600D01*
X0098733Y0129600D01*
X0098733Y0124900D01*
X0098735Y0124900D01*
X0098891Y0124925D01*
X0098891Y0120400D01*
X0098091Y0120400D01*
X0098091Y0125200D01*
X0098082Y0125200D01*
X0097933Y0125177D01*
X0097933Y0129600D01*
X0098733Y0129600D01*
X0098733Y0130400D01*
X0103433Y0130400D01*
X0103433Y0130401D01*
X0103308Y0131194D01*
X0103060Y0131958D01*
X0102695Y0132673D01*
X0102223Y0133322D01*
X0102046Y0133500D01*
X0105045Y0133500D01*
X0104264Y0132719D01*
X0103533Y0130955D01*
X0103533Y0129045D01*
X0104264Y0127281D01*
X0105614Y0125931D01*
X0107379Y0125200D01*
X0109288Y0125200D01*
X0111052Y0125931D01*
X0112403Y0127281D01*
X0113133Y0129045D01*
X0113133Y0130955D01*
X0112403Y0132719D01*
X0111622Y0133500D01*
X0115045Y0133500D01*
X0114264Y0132719D01*
X0113533Y0130955D01*
X0113533Y0129045D01*
X0114264Y0127281D01*
X0114576Y0126969D01*
X0114576Y0124900D01*
X0113920Y0124900D01*
X0113276Y0124256D01*
X0113276Y0115744D01*
X0113920Y0115100D01*
X0114733Y0115100D01*
X0114733Y0053188D01*
X0114264Y0052719D01*
X0113533Y0050955D01*
X0113533Y0049045D01*
X0114264Y0047281D01*
X0115045Y0046500D01*
X0112712Y0046500D01*
X0111833Y0045621D01*
X0110507Y0044295D01*
X0109288Y0044800D01*
X0107379Y0044800D01*
X0105614Y0044069D01*
X0104264Y0042719D01*
X0103533Y0040955D01*
X0103533Y0039045D01*
X0104264Y0037281D01*
X0105045Y0036500D01*
X0101622Y0036500D01*
X0102403Y0037281D01*
X0103133Y0039045D01*
X0103133Y0040955D01*
X0102403Y0042719D01*
X0101052Y0044069D01*
X0101719Y0043403D02*
X0104948Y0043403D01*
X0104217Y0042604D02*
X0102450Y0042604D01*
X0102781Y0041806D02*
X0103886Y0041806D01*
X0103555Y0041007D02*
X0103112Y0041007D01*
X0103133Y0040209D02*
X0103533Y0040209D01*
X0103533Y0039410D02*
X0103133Y0039410D01*
X0102954Y0038612D02*
X0103713Y0038612D01*
X0104044Y0037813D02*
X0102623Y0037813D01*
X0102136Y0037015D02*
X0104530Y0037015D01*
X0108333Y0040000D02*
X0113333Y0045000D01*
X0160122Y0045000D01*
X0163533Y0048412D01*
X0163533Y0051988D01*
X0166545Y0055000D01*
X0188333Y0055000D01*
X0198333Y0045000D01*
X0198333Y0040000D01*
X0196533Y0041806D02*
X0193109Y0041806D01*
X0193060Y0041958D02*
X0192695Y0042673D01*
X0192223Y0043322D01*
X0191656Y0043890D01*
X0191006Y0044362D01*
X0190291Y0044726D01*
X0189528Y0044974D01*
X0188735Y0045100D01*
X0188733Y0045100D01*
X0188733Y0040400D01*
X0193433Y0040400D01*
X0193433Y0040401D01*
X0193308Y0041194D01*
X0193060Y0041958D01*
X0192730Y0042604D02*
X0196833Y0042604D01*
X0196833Y0043403D02*
X0192143Y0043403D01*
X0191227Y0044201D02*
X0196833Y0044201D01*
X0196212Y0045000D02*
X0189366Y0045000D01*
X0188733Y0045000D02*
X0187933Y0045000D01*
X0187301Y0045000D02*
X0185883Y0045000D01*
X0185763Y0045799D02*
X0195413Y0045799D01*
X0194615Y0046597D02*
X0185343Y0046597D01*
X0184213Y0047396D02*
X0193816Y0047396D01*
X0193018Y0048194D02*
X0182781Y0048194D01*
X0182453Y0047396D02*
X0182450Y0047396D01*
X0183112Y0048993D02*
X0192219Y0048993D01*
X0191421Y0049791D02*
X0183133Y0049791D01*
X0183133Y0050590D02*
X0190622Y0050590D01*
X0189824Y0051388D02*
X0182954Y0051388D01*
X0182623Y0052187D02*
X0189025Y0052187D01*
X0188227Y0052985D02*
X0182136Y0052985D01*
X0189275Y0056179D02*
X0321833Y0056179D01*
X0321833Y0055381D02*
X0190074Y0055381D01*
X0190873Y0054582D02*
X0321833Y0054582D01*
X0321833Y0053784D02*
X0191671Y0053784D01*
X0192470Y0052985D02*
X0321833Y0052985D01*
X0321833Y0052187D02*
X0193268Y0052187D01*
X0194067Y0051388D02*
X0321833Y0051388D01*
X0321833Y0050590D02*
X0194865Y0050590D01*
X0195664Y0049791D02*
X0321833Y0049791D01*
X0321833Y0048993D02*
X0196462Y0048993D01*
X0197261Y0048194D02*
X0321833Y0048194D01*
X0321833Y0047396D02*
X0198059Y0047396D01*
X0198858Y0046597D02*
X0321833Y0046597D01*
X0321833Y0045799D02*
X0199656Y0045799D01*
X0199833Y0045000D02*
X0321833Y0045000D01*
X0321833Y0044201D02*
X0222441Y0044201D01*
X0223004Y0043638D02*
X0223004Y0043638D01*
X0223239Y0043403D02*
X0321833Y0043403D01*
X0321833Y0042604D02*
X0229237Y0042604D01*
X0228419Y0042604D02*
X0225211Y0042604D01*
X0224393Y0042604D02*
X0223988Y0042604D01*
X0226282Y0041806D02*
X0227348Y0041806D01*
X0226949Y0041007D02*
X0226681Y0041007D01*
X0229840Y0039410D02*
X0321833Y0039410D01*
X0321833Y0038612D02*
X0229441Y0038612D01*
X0229041Y0037813D02*
X0321833Y0037813D01*
X0321833Y0037015D02*
X0228642Y0037015D01*
X0230239Y0040209D02*
X0321833Y0040209D01*
X0321833Y0041007D02*
X0230516Y0041007D01*
X0230249Y0041806D02*
X0321833Y0041806D01*
X0321833Y0056978D02*
X0121933Y0056978D01*
X0121933Y0057776D02*
X0267039Y0057776D01*
X0266889Y0057838D02*
X0267826Y0057450D01*
X0268841Y0057450D01*
X0269778Y0057838D01*
X0270495Y0058556D01*
X0270883Y0059493D01*
X0270883Y0060507D01*
X0270495Y0061444D01*
X0269833Y0062106D01*
X0269833Y0077894D01*
X0270495Y0078556D01*
X0270883Y0079493D01*
X0270883Y0080507D01*
X0270495Y0081444D01*
X0269778Y0082162D01*
X0268841Y0082550D01*
X0267826Y0082550D01*
X0266889Y0082162D01*
X0266172Y0081444D01*
X0265783Y0080507D01*
X0265783Y0079493D01*
X0266172Y0078556D01*
X0266833Y0077894D01*
X0266833Y0062106D01*
X0266172Y0061444D01*
X0265783Y0060507D01*
X0265783Y0059493D01*
X0266172Y0058556D01*
X0266889Y0057838D01*
X0266164Y0058575D02*
X0121933Y0058575D01*
X0121933Y0059373D02*
X0265833Y0059373D01*
X0265783Y0060172D02*
X0121933Y0060172D01*
X0121933Y0060970D02*
X0265975Y0060970D01*
X0266496Y0061769D02*
X0121933Y0061769D01*
X0121933Y0062567D02*
X0266833Y0062567D01*
X0266833Y0063366D02*
X0121933Y0063366D01*
X0121933Y0064164D02*
X0266833Y0064164D01*
X0266833Y0064963D02*
X0127371Y0064963D01*
X0126295Y0064963D02*
X0121933Y0064963D01*
X0121933Y0065761D02*
X0124966Y0065761D01*
X0128701Y0065761D02*
X0266833Y0065761D01*
X0266833Y0066560D02*
X0242014Y0066560D01*
X0242813Y0067358D02*
X0266833Y0067358D01*
X0266833Y0068157D02*
X0243611Y0068157D01*
X0244410Y0068955D02*
X0266833Y0068955D01*
X0266833Y0069754D02*
X0245209Y0069754D01*
X0246007Y0070552D02*
X0266833Y0070552D01*
X0266833Y0071351D02*
X0246806Y0071351D01*
X0247604Y0072149D02*
X0266833Y0072149D01*
X0266833Y0072948D02*
X0254887Y0072948D01*
X0255574Y0073746D02*
X0266833Y0073746D01*
X0266833Y0074545D02*
X0255883Y0074545D01*
X0255883Y0075343D02*
X0266833Y0075343D01*
X0266833Y0076142D02*
X0255620Y0076142D01*
X0254999Y0076940D02*
X0266833Y0076940D01*
X0266833Y0077739D02*
X0254833Y0077739D01*
X0254833Y0078537D02*
X0266190Y0078537D01*
X0265848Y0079336D02*
X0254833Y0079336D01*
X0255589Y0080134D02*
X0265783Y0080134D01*
X0265960Y0080933D02*
X0256388Y0080933D01*
X0257186Y0081732D02*
X0266459Y0081732D01*
X0267778Y0082530D02*
X0257985Y0082530D01*
X0258783Y0083329D02*
X0321833Y0083329D01*
X0321833Y0084127D02*
X0274582Y0084127D01*
X0275380Y0084926D02*
X0321833Y0084926D01*
X0321833Y0085724D02*
X0276179Y0085724D01*
X0276977Y0086523D02*
X0321833Y0086523D01*
X0321833Y0087321D02*
X0277776Y0087321D01*
X0278574Y0088120D02*
X0321833Y0088120D01*
X0321833Y0088918D02*
X0279373Y0088918D01*
X0280171Y0089717D02*
X0321833Y0089717D01*
X0321833Y0090515D02*
X0280970Y0090515D01*
X0281768Y0091314D02*
X0321833Y0091314D01*
X0321833Y0097702D02*
X0321608Y0097702D01*
X0321527Y0102493D02*
X0321833Y0102493D01*
X0321833Y0103291D02*
X0321196Y0103291D01*
X0320865Y0104090D02*
X0321833Y0104090D01*
X0321833Y0104888D02*
X0320193Y0104888D01*
X0319394Y0105687D02*
X0321833Y0105687D01*
X0321833Y0106485D02*
X0318536Y0106485D01*
X0276833Y0106485D02*
X0266536Y0106485D01*
X0266638Y0106443D02*
X0263845Y0107600D01*
X0260822Y0107600D01*
X0258028Y0106443D01*
X0255890Y0104305D01*
X0254733Y0101512D01*
X0254733Y0098488D01*
X0255890Y0095695D01*
X0258028Y0093557D01*
X0260822Y0092400D01*
X0263845Y0092400D01*
X0266638Y0093557D01*
X0268776Y0095695D01*
X0269933Y0098488D01*
X0269933Y0101512D01*
X0268776Y0104305D01*
X0266638Y0106443D01*
X0267394Y0105687D02*
X0276833Y0105687D01*
X0276833Y0104888D02*
X0268193Y0104888D01*
X0268865Y0104090D02*
X0276833Y0104090D01*
X0276833Y0103291D02*
X0269196Y0103291D01*
X0269527Y0102493D02*
X0276833Y0102493D01*
X0276833Y0101694D02*
X0269858Y0101694D01*
X0269933Y0100896D02*
X0276833Y0100896D01*
X0276309Y0100097D02*
X0269933Y0100097D01*
X0269933Y0099299D02*
X0275511Y0099299D01*
X0274712Y0098500D02*
X0269933Y0098500D01*
X0269608Y0097702D02*
X0273914Y0097702D01*
X0273115Y0096903D02*
X0269277Y0096903D01*
X0268946Y0096105D02*
X0272317Y0096105D01*
X0271518Y0095306D02*
X0268388Y0095306D01*
X0267589Y0094508D02*
X0270720Y0094508D01*
X0269921Y0093709D02*
X0266791Y0093709D01*
X0265078Y0092911D02*
X0269123Y0092911D01*
X0268324Y0092112D02*
X0231567Y0092112D01*
X0232365Y0092911D02*
X0259589Y0092911D01*
X0257876Y0093709D02*
X0233164Y0093709D01*
X0233962Y0094508D02*
X0257078Y0094508D01*
X0256279Y0095306D02*
X0234761Y0095306D01*
X0235559Y0096105D02*
X0255721Y0096105D01*
X0255390Y0096903D02*
X0236358Y0096903D01*
X0237156Y0097702D02*
X0255059Y0097702D01*
X0254733Y0098500D02*
X0237955Y0098500D01*
X0238753Y0099299D02*
X0254733Y0099299D01*
X0254733Y0100097D02*
X0239552Y0100097D01*
X0240350Y0100896D02*
X0254733Y0100896D01*
X0254809Y0101694D02*
X0241149Y0101694D01*
X0241947Y0102493D02*
X0255140Y0102493D01*
X0255470Y0103291D02*
X0242746Y0103291D01*
X0243544Y0104090D02*
X0255801Y0104090D01*
X0256474Y0104888D02*
X0244343Y0104888D01*
X0245142Y0105687D02*
X0257272Y0105687D01*
X0258131Y0106485D02*
X0246926Y0106485D01*
X0248223Y0107284D02*
X0260058Y0107284D01*
X0264608Y0107284D02*
X0276833Y0107284D01*
X0276833Y0108082D02*
X0248713Y0108082D01*
X0248883Y0108881D02*
X0276833Y0108881D01*
X0276833Y0109679D02*
X0248812Y0109679D01*
X0248462Y0110478D02*
X0276833Y0110478D01*
X0276833Y0111276D02*
X0247501Y0111276D01*
X0245166Y0111276D02*
X0238178Y0111276D01*
X0237380Y0112075D02*
X0276833Y0112075D01*
X0276833Y0112873D02*
X0237322Y0112873D01*
X0237383Y0113672D02*
X0276833Y0113672D01*
X0276833Y0114470D02*
X0237383Y0114470D01*
X0237383Y0115269D02*
X0276833Y0115269D01*
X0276833Y0116068D02*
X0237383Y0116068D01*
X0237195Y0116866D02*
X0276833Y0116866D01*
X0276833Y0117665D02*
X0236396Y0117665D01*
X0235598Y0118463D02*
X0276833Y0118463D01*
X0276833Y0119262D02*
X0181193Y0119262D01*
X0180395Y0120060D02*
X0276833Y0120060D01*
X0276833Y0120859D02*
X0179596Y0120859D01*
X0178798Y0121657D02*
X0276833Y0121657D01*
X0276833Y0122456D02*
X0177999Y0122456D01*
X0177201Y0123254D02*
X0276833Y0123254D01*
X0276833Y0124053D02*
X0176402Y0124053D01*
X0175604Y0124851D02*
X0276833Y0124851D01*
X0276833Y0125650D02*
X0191022Y0125650D01*
X0191994Y0126448D02*
X0275587Y0126448D01*
X0274829Y0127247D02*
X0192637Y0127247D01*
X0193061Y0128045D02*
X0229182Y0128045D01*
X0229389Y0127838D02*
X0230326Y0127450D01*
X0231341Y0127450D01*
X0232278Y0127838D01*
X0232940Y0128500D01*
X0266227Y0128500D01*
X0266889Y0127838D01*
X0267826Y0127450D01*
X0268841Y0127450D01*
X0269778Y0127838D01*
X0270495Y0128556D01*
X0270883Y0129493D01*
X0270883Y0130507D01*
X0270495Y0131444D01*
X0269778Y0132162D01*
X0268841Y0132550D01*
X0267826Y0132550D01*
X0266889Y0132162D01*
X0266227Y0131500D01*
X0232940Y0131500D01*
X0232278Y0132162D01*
X0231341Y0132550D01*
X0230326Y0132550D01*
X0229389Y0132162D01*
X0228672Y0131444D01*
X0228283Y0130507D01*
X0228283Y0129493D01*
X0228672Y0128556D01*
X0229389Y0127838D01*
X0228552Y0128844D02*
X0193314Y0128844D01*
X0193427Y0130441D02*
X0228283Y0130441D01*
X0228283Y0129642D02*
X0188733Y0129642D01*
X0188733Y0128844D02*
X0187933Y0128844D01*
X0187933Y0129642D02*
X0183133Y0129642D01*
X0183133Y0130441D02*
X0183240Y0130441D01*
X0183374Y0131239D02*
X0183016Y0131239D01*
X0182685Y0132038D02*
X0183648Y0132038D01*
X0184090Y0132836D02*
X0182285Y0132836D01*
X0183050Y0128844D02*
X0183353Y0128844D01*
X0183606Y0128045D02*
X0182719Y0128045D01*
X0182368Y0127247D02*
X0184030Y0127247D01*
X0184673Y0126448D02*
X0181570Y0126448D01*
X0180374Y0125650D02*
X0185644Y0125650D01*
X0187933Y0125650D02*
X0188733Y0125650D01*
X0188733Y0126448D02*
X0187933Y0126448D01*
X0187933Y0127247D02*
X0188733Y0127247D01*
X0188733Y0128045D02*
X0187933Y0128045D01*
X0193293Y0131239D02*
X0228587Y0131239D01*
X0229265Y0132038D02*
X0193019Y0132038D01*
X0192577Y0132836D02*
X0275871Y0132836D01*
X0275073Y0132038D02*
X0269902Y0132038D01*
X0270580Y0131239D02*
X0274616Y0131239D01*
X0274285Y0130441D02*
X0270883Y0130441D01*
X0270883Y0129642D02*
X0274233Y0129642D01*
X0274233Y0128844D02*
X0270614Y0128844D01*
X0269985Y0128045D02*
X0274498Y0128045D01*
X0268333Y0130000D02*
X0230833Y0130000D01*
X0232485Y0128045D02*
X0266682Y0128045D01*
X0266765Y0132038D02*
X0232402Y0132038D01*
X0231069Y0118463D02*
X0181992Y0118463D01*
X0181833Y0116500D02*
X0231227Y0116500D01*
X0232277Y0117550D01*
X0234390Y0117550D01*
X0235883Y0116056D01*
X0235883Y0113944D01*
X0235822Y0113883D01*
X0235822Y0111511D01*
X0238333Y0109000D01*
X0246333Y0109000D01*
X0227333Y0090000D01*
X0228373Y0088918D02*
X0250130Y0088918D01*
X0250929Y0089717D02*
X0229171Y0089717D01*
X0229970Y0090515D02*
X0251727Y0090515D01*
X0252526Y0091314D02*
X0230768Y0091314D01*
X0236108Y0100896D02*
X0121933Y0100896D01*
X0121933Y0101694D02*
X0236906Y0101694D01*
X0237705Y0102493D02*
X0121933Y0102493D01*
X0121933Y0103291D02*
X0238503Y0103291D01*
X0239302Y0104090D02*
X0121933Y0104090D01*
X0121933Y0104888D02*
X0240100Y0104888D01*
X0240899Y0105687D02*
X0121933Y0105687D01*
X0121933Y0106485D02*
X0241697Y0106485D01*
X0242496Y0107284D02*
X0121933Y0107284D01*
X0121933Y0108082D02*
X0237130Y0108082D01*
X0236331Y0108881D02*
X0121933Y0108881D01*
X0121933Y0109679D02*
X0235533Y0109679D01*
X0235201Y0110011D02*
X0235201Y0110011D01*
X0234734Y0110478D02*
X0121933Y0110478D01*
X0121933Y0111276D02*
X0234322Y0111276D01*
X0234322Y0112075D02*
X0121933Y0112075D01*
X0121933Y0112873D02*
X0231854Y0112873D01*
X0233333Y0115000D02*
X0173333Y0115000D01*
X0158333Y0130000D01*
X0153948Y0128045D02*
X0152719Y0128045D01*
X0153050Y0128844D02*
X0153617Y0128844D01*
X0153533Y0129642D02*
X0153133Y0129642D01*
X0153133Y0130441D02*
X0153533Y0130441D01*
X0153651Y0131239D02*
X0153016Y0131239D01*
X0152685Y0132038D02*
X0153982Y0132038D01*
X0154381Y0132836D02*
X0152285Y0132836D01*
X0144381Y0132836D02*
X0142285Y0132836D01*
X0142685Y0132038D02*
X0143982Y0132038D01*
X0143651Y0131239D02*
X0143016Y0131239D01*
X0143133Y0130441D02*
X0143533Y0130441D01*
X0143533Y0129642D02*
X0143133Y0129642D01*
X0143050Y0128844D02*
X0143617Y0128844D01*
X0143948Y0128045D02*
X0142719Y0128045D01*
X0142368Y0127247D02*
X0144298Y0127247D01*
X0145097Y0126448D02*
X0141570Y0126448D01*
X0140374Y0125650D02*
X0146293Y0125650D01*
X0150374Y0125650D02*
X0156293Y0125650D01*
X0155097Y0126448D02*
X0151570Y0126448D01*
X0152368Y0127247D02*
X0154298Y0127247D01*
X0160374Y0125650D02*
X0160562Y0125650D01*
X0161361Y0124851D02*
X0122480Y0124851D01*
X0123076Y0124053D02*
X0162159Y0124053D01*
X0162958Y0123254D02*
X0123076Y0123254D01*
X0123076Y0122456D02*
X0163756Y0122456D01*
X0164555Y0121657D02*
X0123076Y0121657D01*
X0123076Y0120859D02*
X0165353Y0120859D01*
X0166152Y0120060D02*
X0123076Y0120060D01*
X0123076Y0119262D02*
X0166950Y0119262D01*
X0167749Y0118463D02*
X0123076Y0118463D01*
X0123076Y0117665D02*
X0168547Y0117665D01*
X0169346Y0116866D02*
X0123076Y0116866D01*
X0123076Y0116068D02*
X0170144Y0116068D01*
X0170943Y0115269D02*
X0122600Y0115269D01*
X0121933Y0114470D02*
X0171742Y0114470D01*
X0172540Y0113672D02*
X0121933Y0113672D01*
X0114733Y0113672D02*
X0094833Y0113672D01*
X0094833Y0114470D02*
X0114733Y0114470D01*
X0113751Y0115269D02*
X0100660Y0115269D01*
X0100487Y0115181D02*
X0101216Y0115553D01*
X0101878Y0116034D01*
X0102457Y0116612D01*
X0102938Y0117275D01*
X0103310Y0118004D01*
X0103563Y0118782D01*
X0103691Y0119591D01*
X0103691Y0119600D01*
X0098891Y0119600D01*
X0098891Y0114800D01*
X0098900Y0114800D01*
X0099708Y0114928D01*
X0100487Y0115181D01*
X0098891Y0115269D02*
X0098091Y0115269D01*
X0098091Y0116068D02*
X0098891Y0116068D01*
X0098891Y0116866D02*
X0098091Y0116866D01*
X0098091Y0117665D02*
X0098891Y0117665D01*
X0098891Y0118463D02*
X0098091Y0118463D01*
X0098091Y0119262D02*
X0098891Y0119262D01*
X0098891Y0120060D02*
X0113276Y0120060D01*
X0113276Y0119262D02*
X0103639Y0119262D01*
X0103459Y0118463D02*
X0113276Y0118463D01*
X0113276Y0117665D02*
X0103137Y0117665D01*
X0102641Y0116866D02*
X0113276Y0116866D01*
X0113276Y0116068D02*
X0101912Y0116068D01*
X0096322Y0115269D02*
X0094833Y0115269D01*
X0094833Y0116068D02*
X0095069Y0116068D01*
X0094833Y0112873D02*
X0114733Y0112873D01*
X0114733Y0112075D02*
X0094833Y0112075D01*
X0094833Y0111276D02*
X0114733Y0111276D01*
X0114733Y0110478D02*
X0094833Y0110478D01*
X0094833Y0109679D02*
X0114733Y0109679D01*
X0114733Y0108881D02*
X0094833Y0108881D01*
X0094833Y0108082D02*
X0114733Y0108082D01*
X0114733Y0107284D02*
X0094833Y0107284D01*
X0094833Y0106485D02*
X0114733Y0106485D01*
X0114733Y0105687D02*
X0094833Y0105687D01*
X0094833Y0104888D02*
X0114733Y0104888D01*
X0114733Y0104090D02*
X0094833Y0104090D01*
X0094833Y0103291D02*
X0114733Y0103291D01*
X0114733Y0102493D02*
X0094833Y0102493D01*
X0094833Y0101694D02*
X0114733Y0101694D01*
X0114733Y0100896D02*
X0094833Y0100896D01*
X0094833Y0100097D02*
X0114733Y0100097D01*
X0114733Y0099299D02*
X0094833Y0099299D01*
X0094833Y0098500D02*
X0114733Y0098500D01*
X0114733Y0097702D02*
X0094833Y0097702D01*
X0094833Y0096903D02*
X0114733Y0096903D01*
X0114733Y0096105D02*
X0094833Y0096105D01*
X0094833Y0095306D02*
X0114733Y0095306D01*
X0114733Y0094508D02*
X0113381Y0094508D01*
X0113433Y0094456D02*
X0112789Y0095100D01*
X0103878Y0095100D01*
X0103233Y0094456D01*
X0103233Y0085544D01*
X0103878Y0084900D01*
X0112789Y0084900D01*
X0113433Y0085544D01*
X0113433Y0094456D01*
X0113433Y0093709D02*
X0114733Y0093709D01*
X0114733Y0092911D02*
X0113433Y0092911D01*
X0113433Y0092112D02*
X0114733Y0092112D01*
X0114733Y0091314D02*
X0113433Y0091314D01*
X0113433Y0090515D02*
X0114733Y0090515D01*
X0114733Y0089717D02*
X0113433Y0089717D01*
X0113433Y0088918D02*
X0114733Y0088918D01*
X0114733Y0088120D02*
X0113433Y0088120D01*
X0113433Y0087321D02*
X0114733Y0087321D01*
X0114733Y0086523D02*
X0113433Y0086523D01*
X0113433Y0085724D02*
X0114733Y0085724D01*
X0114733Y0084926D02*
X0112815Y0084926D01*
X0114733Y0084127D02*
X0094833Y0084127D01*
X0094833Y0083329D02*
X0114733Y0083329D01*
X0114733Y0082530D02*
X0094833Y0082530D01*
X0094833Y0081732D02*
X0114733Y0081732D01*
X0103852Y0084926D02*
X0094833Y0084926D01*
X0094833Y0085724D02*
X0103233Y0085724D01*
X0103233Y0086523D02*
X0094833Y0086523D01*
X0094833Y0087321D02*
X0103233Y0087321D01*
X0103233Y0088120D02*
X0094833Y0088120D01*
X0094833Y0088918D02*
X0103233Y0088918D01*
X0103233Y0089717D02*
X0094833Y0089717D01*
X0094833Y0090515D02*
X0103233Y0090515D01*
X0103233Y0091314D02*
X0094833Y0091314D01*
X0094833Y0092112D02*
X0103233Y0092112D01*
X0103233Y0092911D02*
X0094833Y0092911D01*
X0094833Y0093709D02*
X0103233Y0093709D01*
X0103285Y0094508D02*
X0094833Y0094508D01*
X0136584Y0078537D02*
X0246833Y0078537D01*
X0246833Y0077739D02*
X0137383Y0077739D01*
X0137725Y0076940D02*
X0246833Y0076940D01*
X0246833Y0076142D02*
X0138056Y0076142D01*
X0138133Y0075343D02*
X0215827Y0075343D01*
X0215389Y0075162D02*
X0214672Y0074444D01*
X0214283Y0073507D01*
X0214283Y0072493D01*
X0214672Y0071556D01*
X0215389Y0070838D01*
X0216326Y0070450D01*
X0217341Y0070450D01*
X0218278Y0070838D01*
X0218940Y0071500D01*
X0236227Y0071500D01*
X0236889Y0070838D01*
X0237826Y0070450D01*
X0238841Y0070450D01*
X0239778Y0070838D01*
X0240495Y0071556D01*
X0240883Y0072493D01*
X0240883Y0073507D01*
X0240495Y0074444D01*
X0239778Y0075162D01*
X0238841Y0075550D01*
X0237826Y0075550D01*
X0236889Y0075162D01*
X0236227Y0074500D01*
X0218940Y0074500D01*
X0218278Y0075162D01*
X0217341Y0075550D01*
X0216326Y0075550D01*
X0215389Y0075162D01*
X0214772Y0074545D02*
X0138133Y0074545D01*
X0138010Y0073746D02*
X0214382Y0073746D01*
X0214283Y0072948D02*
X0137679Y0072948D01*
X0137271Y0072149D02*
X0214426Y0072149D01*
X0214876Y0071351D02*
X0136472Y0071351D01*
X0135139Y0070552D02*
X0216079Y0070552D01*
X0217588Y0070552D02*
X0237579Y0070552D01*
X0236376Y0071351D02*
X0218790Y0071351D01*
X0216833Y0073000D02*
X0238333Y0073000D01*
X0237327Y0075343D02*
X0217839Y0075343D01*
X0218895Y0074545D02*
X0236272Y0074545D01*
X0239339Y0075343D02*
X0246555Y0075343D01*
X0245757Y0074545D02*
X0240395Y0074545D01*
X0240784Y0073746D02*
X0244958Y0073746D01*
X0244160Y0072948D02*
X0240883Y0072948D01*
X0240741Y0072149D02*
X0243361Y0072149D01*
X0242563Y0071351D02*
X0240290Y0071351D01*
X0239088Y0070552D02*
X0241764Y0070552D01*
X0240966Y0069754D02*
X0128055Y0069754D01*
X0114733Y0071351D02*
X0113637Y0071351D01*
X0113600Y0071579D02*
X0113338Y0072388D01*
X0112952Y0073145D01*
X0112452Y0073833D01*
X0111851Y0074434D01*
X0111164Y0074933D01*
X0110406Y0075319D01*
X0109598Y0075582D01*
X0108758Y0075715D01*
X0108733Y0075715D01*
X0108733Y0070715D01*
X0113733Y0070715D01*
X0113733Y0070740D01*
X0113600Y0071579D01*
X0113415Y0072149D02*
X0114733Y0072149D01*
X0114733Y0072948D02*
X0113052Y0072948D01*
X0112515Y0073746D02*
X0114733Y0073746D01*
X0114733Y0074545D02*
X0111698Y0074545D01*
X0110332Y0075343D02*
X0114733Y0075343D01*
X0108733Y0075343D02*
X0107933Y0075343D01*
X0107933Y0074545D02*
X0108733Y0074545D01*
X0108733Y0073746D02*
X0107933Y0073746D01*
X0107933Y0072948D02*
X0108733Y0072948D01*
X0108733Y0072149D02*
X0107933Y0072149D01*
X0107933Y0071351D02*
X0108733Y0071351D01*
X0108733Y0068955D02*
X0107933Y0068955D01*
X0107933Y0068157D02*
X0108733Y0068157D01*
X0108733Y0067358D02*
X0107933Y0067358D01*
X0107933Y0066560D02*
X0108733Y0066560D01*
X0108733Y0065761D02*
X0107933Y0065761D01*
X0121933Y0056179D02*
X0165603Y0056179D01*
X0164804Y0055381D02*
X0121933Y0055381D01*
X0121933Y0054582D02*
X0126853Y0054582D01*
X0125329Y0053784D02*
X0121933Y0053784D01*
X0122136Y0052985D02*
X0124530Y0052985D01*
X0124044Y0052187D02*
X0122623Y0052187D01*
X0122954Y0051388D02*
X0123713Y0051388D01*
X0123533Y0050590D02*
X0123133Y0050590D01*
X0123133Y0049791D02*
X0123533Y0049791D01*
X0123555Y0048993D02*
X0123112Y0048993D01*
X0122781Y0048194D02*
X0123886Y0048194D01*
X0124217Y0047396D02*
X0122450Y0047396D01*
X0121719Y0046597D02*
X0124948Y0046597D01*
X0131719Y0046597D02*
X0134948Y0046597D01*
X0134217Y0047396D02*
X0132450Y0047396D01*
X0132781Y0048194D02*
X0133886Y0048194D01*
X0133555Y0048993D02*
X0133112Y0048993D01*
X0133133Y0049791D02*
X0133533Y0049791D01*
X0133533Y0050590D02*
X0133133Y0050590D01*
X0132954Y0051388D02*
X0133713Y0051388D01*
X0134044Y0052187D02*
X0132623Y0052187D01*
X0132136Y0052985D02*
X0134530Y0052985D01*
X0135329Y0053784D02*
X0131338Y0053784D01*
X0129814Y0054582D02*
X0136853Y0054582D01*
X0139814Y0054582D02*
X0146093Y0054582D01*
X0146376Y0054726D02*
X0145660Y0054362D01*
X0145011Y0053890D01*
X0144443Y0053322D01*
X0143971Y0052673D01*
X0143607Y0051958D01*
X0143359Y0051194D01*
X0143233Y0050401D01*
X0143233Y0050400D01*
X0147933Y0050400D01*
X0147933Y0055100D01*
X0147932Y0055100D01*
X0147139Y0054974D01*
X0146376Y0054726D01*
X0147933Y0054582D02*
X0148733Y0054582D01*
X0148733Y0055100D02*
X0148733Y0050400D01*
X0153433Y0050400D01*
X0153433Y0050401D01*
X0153308Y0051194D01*
X0153060Y0051958D01*
X0152695Y0052673D01*
X0152223Y0053322D01*
X0151656Y0053890D01*
X0151006Y0054362D01*
X0150291Y0054726D01*
X0149528Y0054974D01*
X0148735Y0055100D01*
X0148733Y0055100D01*
X0148733Y0053784D02*
X0147933Y0053784D01*
X0147933Y0052985D02*
X0148733Y0052985D01*
X0148733Y0052187D02*
X0147933Y0052187D01*
X0147933Y0051388D02*
X0148733Y0051388D01*
X0148733Y0050590D02*
X0147933Y0050590D01*
X0147933Y0049791D02*
X0143133Y0049791D01*
X0143133Y0050590D02*
X0143263Y0050590D01*
X0143422Y0051388D02*
X0142954Y0051388D01*
X0142623Y0052187D02*
X0143724Y0052187D01*
X0144198Y0052985D02*
X0142136Y0052985D01*
X0141338Y0053784D02*
X0144904Y0053784D01*
X0150574Y0054582D02*
X0156853Y0054582D01*
X0155329Y0053784D02*
X0151762Y0053784D01*
X0152468Y0052985D02*
X0154530Y0052985D01*
X0154044Y0052187D02*
X0152943Y0052187D01*
X0153245Y0051388D02*
X0153713Y0051388D01*
X0153533Y0050590D02*
X0153404Y0050590D01*
X0153533Y0049791D02*
X0148733Y0049791D01*
X0153109Y0048194D02*
X0153886Y0048194D01*
X0154217Y0047396D02*
X0152730Y0047396D01*
X0152143Y0046597D02*
X0154948Y0046597D01*
X0153555Y0048993D02*
X0153337Y0048993D01*
X0144524Y0046597D02*
X0141719Y0046597D01*
X0142450Y0047396D02*
X0143936Y0047396D01*
X0143558Y0048194D02*
X0142781Y0048194D01*
X0143112Y0048993D02*
X0143329Y0048993D01*
X0159814Y0054582D02*
X0164006Y0054582D01*
X0163207Y0053784D02*
X0161338Y0053784D01*
X0162136Y0052985D02*
X0162409Y0052985D01*
X0173333Y0045000D02*
X0183333Y0045000D01*
X0187933Y0044201D02*
X0188733Y0044201D01*
X0188733Y0043403D02*
X0187933Y0043403D01*
X0187933Y0042604D02*
X0188733Y0042604D01*
X0188733Y0041806D02*
X0187933Y0041806D01*
X0187933Y0041007D02*
X0188733Y0041007D01*
X0188733Y0040209D02*
X0195783Y0040209D01*
X0195817Y0039410D02*
X0193404Y0039410D01*
X0193245Y0038612D02*
X0196148Y0038612D01*
X0196949Y0037813D02*
X0192943Y0037813D01*
X0192468Y0037015D02*
X0211290Y0037015D01*
X0211290Y0037813D02*
X0199718Y0037813D01*
X0200518Y0038612D02*
X0211013Y0038612D01*
X0210306Y0039410D02*
X0200849Y0039410D01*
X0200883Y0040209D02*
X0210306Y0040209D01*
X0210627Y0041007D02*
X0200676Y0041007D01*
X0200134Y0041806D02*
X0211290Y0041806D01*
X0211290Y0042604D02*
X0199833Y0042604D01*
X0199833Y0043403D02*
X0211290Y0043403D01*
X0211853Y0044201D02*
X0199833Y0044201D01*
X0195991Y0041007D02*
X0193337Y0041007D01*
X0187933Y0040209D02*
X0183133Y0040209D01*
X0183133Y0039410D02*
X0183263Y0039410D01*
X0183422Y0038612D02*
X0182954Y0038612D01*
X0182623Y0037813D02*
X0183724Y0037813D01*
X0184198Y0037015D02*
X0182136Y0037015D01*
X0183112Y0041007D02*
X0183329Y0041007D01*
X0183558Y0041806D02*
X0182781Y0041806D01*
X0182453Y0042604D02*
X0182450Y0042604D01*
X0173333Y0045000D02*
X0168333Y0040000D01*
X0214027Y0044201D02*
X0218298Y0044201D01*
X0217735Y0043638D02*
X0217735Y0043638D01*
X0217500Y0043403D02*
X0214825Y0043403D01*
X0215624Y0042604D02*
X0216751Y0042604D01*
X0216751Y0041806D02*
X0216422Y0041806D01*
X0268333Y0060000D02*
X0268333Y0080000D01*
X0270707Y0080933D02*
X0321833Y0080933D01*
X0321833Y0080134D02*
X0270883Y0080134D01*
X0270818Y0079336D02*
X0321833Y0079336D01*
X0321833Y0078537D02*
X0270477Y0078537D01*
X0269833Y0077739D02*
X0321833Y0077739D01*
X0321833Y0076940D02*
X0269833Y0076940D01*
X0269833Y0076142D02*
X0276412Y0076142D01*
X0276011Y0075976D02*
X0274858Y0074822D01*
X0274233Y0073316D01*
X0274233Y0071684D01*
X0274858Y0070178D01*
X0276011Y0069024D01*
X0277518Y0068400D01*
X0279149Y0068400D01*
X0280656Y0069024D01*
X0281809Y0070178D01*
X0282433Y0071684D01*
X0282433Y0073316D01*
X0281809Y0074822D01*
X0280656Y0075976D01*
X0279149Y0076600D01*
X0277518Y0076600D01*
X0276011Y0075976D01*
X0275378Y0075343D02*
X0269833Y0075343D01*
X0269833Y0074545D02*
X0274743Y0074545D01*
X0274412Y0073746D02*
X0269833Y0073746D01*
X0269833Y0072948D02*
X0274233Y0072948D01*
X0274233Y0072149D02*
X0269833Y0072149D01*
X0269833Y0071351D02*
X0274371Y0071351D01*
X0274702Y0070552D02*
X0269833Y0070552D01*
X0269833Y0069754D02*
X0275281Y0069754D01*
X0276177Y0068955D02*
X0269833Y0068955D01*
X0269833Y0068157D02*
X0321833Y0068157D01*
X0321833Y0068955D02*
X0300490Y0068955D01*
X0300656Y0069024D02*
X0301809Y0070178D01*
X0302433Y0071684D01*
X0302433Y0073316D01*
X0301809Y0074822D01*
X0300656Y0075976D01*
X0299149Y0076600D01*
X0297518Y0076600D01*
X0296011Y0075976D01*
X0294858Y0074822D01*
X0294233Y0073316D01*
X0294233Y0071684D01*
X0294858Y0070178D01*
X0296011Y0069024D01*
X0297518Y0068400D01*
X0299149Y0068400D01*
X0300656Y0069024D01*
X0301385Y0069754D02*
X0321833Y0069754D01*
X0321833Y0070552D02*
X0301964Y0070552D01*
X0302295Y0071351D02*
X0321833Y0071351D01*
X0321833Y0072149D02*
X0302433Y0072149D01*
X0302433Y0072948D02*
X0321833Y0072948D01*
X0321833Y0073746D02*
X0302255Y0073746D01*
X0301924Y0074545D02*
X0321833Y0074545D01*
X0321833Y0075343D02*
X0301288Y0075343D01*
X0300255Y0076142D02*
X0321833Y0076142D01*
X0321833Y0081732D02*
X0270208Y0081732D01*
X0268889Y0082530D02*
X0321833Y0082530D01*
X0296412Y0076142D02*
X0280255Y0076142D01*
X0281288Y0075343D02*
X0295378Y0075343D01*
X0294743Y0074545D02*
X0281924Y0074545D01*
X0282255Y0073746D02*
X0294412Y0073746D01*
X0294233Y0072948D02*
X0282433Y0072948D01*
X0282433Y0072149D02*
X0294233Y0072149D01*
X0294371Y0071351D02*
X0282295Y0071351D01*
X0281964Y0070552D02*
X0294702Y0070552D01*
X0295281Y0069754D02*
X0281385Y0069754D01*
X0280490Y0068955D02*
X0296177Y0068955D01*
X0270883Y0060172D02*
X0321833Y0060172D01*
X0321833Y0060970D02*
X0270692Y0060970D01*
X0270171Y0061769D02*
X0321833Y0061769D01*
X0321833Y0062567D02*
X0269833Y0062567D01*
X0269833Y0063366D02*
X0321833Y0063366D01*
X0321833Y0064164D02*
X0269833Y0064164D01*
X0269833Y0064963D02*
X0321833Y0064963D01*
X0321833Y0065761D02*
X0269833Y0065761D01*
X0269833Y0066560D02*
X0321833Y0066560D01*
X0321833Y0067358D02*
X0269833Y0067358D01*
X0251779Y0072948D02*
X0248403Y0072948D01*
X0249201Y0073746D02*
X0251092Y0073746D01*
X0250783Y0074545D02*
X0249833Y0074545D01*
X0249833Y0075343D02*
X0250783Y0075343D01*
X0270834Y0059373D02*
X0321833Y0059373D01*
X0321833Y0058575D02*
X0270503Y0058575D01*
X0269628Y0057776D02*
X0321833Y0057776D01*
X0181833Y0116500D02*
X0168333Y0130000D01*
X0172719Y0128045D02*
X0173948Y0128045D01*
X0173617Y0128844D02*
X0173050Y0128844D01*
X0173133Y0129642D02*
X0173533Y0129642D01*
X0173533Y0130441D02*
X0173133Y0130441D01*
X0173016Y0131239D02*
X0173651Y0131239D01*
X0173982Y0132038D02*
X0172685Y0132038D01*
X0172285Y0132836D02*
X0174381Y0132836D01*
X0174298Y0127247D02*
X0173208Y0127247D01*
X0174006Y0126448D02*
X0175097Y0126448D01*
X0174805Y0125650D02*
X0176293Y0125650D01*
X0136293Y0125650D02*
X0130374Y0125650D01*
X0131570Y0126448D02*
X0135097Y0126448D01*
X0134298Y0127247D02*
X0132368Y0127247D01*
X0132719Y0128045D02*
X0133948Y0128045D01*
X0133617Y0128844D02*
X0133050Y0128844D01*
X0133133Y0129642D02*
X0133533Y0129642D01*
X0133533Y0130441D02*
X0133133Y0130441D01*
X0133016Y0131239D02*
X0133651Y0131239D01*
X0133982Y0132038D02*
X0132685Y0132038D01*
X0132285Y0132836D02*
X0134381Y0132836D01*
X0124381Y0132836D02*
X0122285Y0132836D01*
X0122685Y0132038D02*
X0123982Y0132038D01*
X0123651Y0131239D02*
X0123016Y0131239D01*
X0123133Y0130441D02*
X0123533Y0130441D01*
X0123533Y0129642D02*
X0123133Y0129642D01*
X0123050Y0128844D02*
X0123617Y0128844D01*
X0123948Y0128045D02*
X0122719Y0128045D01*
X0122368Y0127247D02*
X0124298Y0127247D01*
X0125097Y0126448D02*
X0121776Y0126448D01*
X0121776Y0125650D02*
X0126293Y0125650D01*
X0114576Y0125650D02*
X0110374Y0125650D01*
X0111570Y0126448D02*
X0114576Y0126448D01*
X0114298Y0127247D02*
X0112368Y0127247D01*
X0112719Y0128045D02*
X0113948Y0128045D01*
X0113617Y0128844D02*
X0113050Y0128844D01*
X0113133Y0129642D02*
X0113533Y0129642D01*
X0113533Y0130441D02*
X0113133Y0130441D01*
X0113016Y0131239D02*
X0113651Y0131239D01*
X0113982Y0132038D02*
X0112685Y0132038D01*
X0112285Y0132836D02*
X0114381Y0132836D01*
X0104381Y0132836D02*
X0102577Y0132836D01*
X0103019Y0132038D02*
X0103982Y0132038D01*
X0103651Y0131239D02*
X0103293Y0131239D01*
X0103427Y0130441D02*
X0103533Y0130441D01*
X0103533Y0129642D02*
X0098733Y0129642D01*
X0098733Y0128844D02*
X0097933Y0128844D01*
X0097933Y0128045D02*
X0098733Y0128045D01*
X0098733Y0127247D02*
X0097933Y0127247D01*
X0097933Y0126448D02*
X0098733Y0126448D01*
X0098733Y0125650D02*
X0097933Y0125650D01*
X0098091Y0124851D02*
X0098891Y0124851D01*
X0098891Y0124053D02*
X0098091Y0124053D01*
X0098091Y0123254D02*
X0098891Y0123254D01*
X0098891Y0122456D02*
X0098091Y0122456D01*
X0098091Y0121657D02*
X0098891Y0121657D01*
X0098891Y0120859D02*
X0098091Y0120859D01*
X0101760Y0124053D02*
X0113276Y0124053D01*
X0113276Y0123254D02*
X0102554Y0123254D01*
X0103076Y0122456D02*
X0113276Y0122456D01*
X0113276Y0121657D02*
X0103420Y0121657D01*
X0103620Y0120859D02*
X0113276Y0120859D01*
X0113871Y0124851D02*
X0100388Y0124851D01*
X0101022Y0125650D02*
X0106293Y0125650D01*
X0105097Y0126448D02*
X0101994Y0126448D01*
X0102637Y0127247D02*
X0104298Y0127247D01*
X0103948Y0128045D02*
X0103061Y0128045D01*
X0103314Y0128844D02*
X0103617Y0128844D01*
X0110574Y0054582D02*
X0114733Y0054582D01*
X0114733Y0053784D02*
X0111762Y0053784D01*
X0112468Y0052985D02*
X0114530Y0052985D01*
X0114044Y0052187D02*
X0112943Y0052187D01*
X0113245Y0051388D02*
X0113713Y0051388D01*
X0113533Y0050590D02*
X0113404Y0050590D01*
X0113533Y0049791D02*
X0108733Y0049791D01*
X0108733Y0048993D02*
X0107933Y0048993D01*
X0107933Y0048194D02*
X0108733Y0048194D01*
X0108733Y0047396D02*
X0107933Y0047396D01*
X0107933Y0046597D02*
X0108733Y0046597D01*
X0108733Y0045799D02*
X0107933Y0045799D01*
X0107933Y0045000D02*
X0108733Y0045000D01*
X0109366Y0045000D02*
X0111212Y0045000D01*
X0111227Y0045799D02*
X0112011Y0045799D01*
X0112143Y0046597D02*
X0114948Y0046597D01*
X0114217Y0047396D02*
X0112730Y0047396D01*
X0113109Y0048194D02*
X0113886Y0048194D01*
X0113555Y0048993D02*
X0113337Y0048993D01*
X0107301Y0045000D02*
X0094833Y0045000D01*
X0094833Y0044201D02*
X0095934Y0044201D01*
X0094948Y0043403D02*
X0094833Y0043403D01*
X0094833Y0050590D02*
X0103263Y0050590D01*
X0103422Y0051388D02*
X0094833Y0051388D01*
X0094833Y0052187D02*
X0103724Y0052187D01*
X0104198Y0052985D02*
X0094833Y0052985D01*
X0094833Y0053784D02*
X0104904Y0053784D01*
D19*
X0108333Y0059500D03*
X0126833Y0067500D03*
X0124833Y0076000D03*
X0103333Y0097000D03*
X0188333Y0094500D03*
X0195833Y0111500D03*
X0193333Y0120000D03*
X0198333Y0130000D03*
X0230833Y0130000D03*
X0248333Y0124500D03*
X0268333Y0130000D03*
X0233333Y0115000D03*
X0246333Y0109000D03*
X0281833Y0099500D03*
X0288333Y0109500D03*
X0268333Y0080000D03*
X0253333Y0075000D03*
X0238333Y0073000D03*
X0216833Y0073000D03*
X0208333Y0074500D03*
X0268333Y0060000D03*
X0198333Y0049500D03*
X0183333Y0045000D03*
X0198333Y0040000D03*
X0098333Y0050000D03*
D20*
X0118333Y0050000D02*
X0118333Y0119843D01*
X0118176Y0120000D01*
X0118176Y0129843D01*
X0118333Y0130000D01*
X0118176Y0120000D02*
X0118176Y0119843D01*
M02*
