G75*
%MOIN*%
%OFA0B0*%
%FSLAX25Y25*%
%IPPOS*%
%LPD*%
%AMOC8*
5,1,8,0,0,1.08239X$1,22.5*
%
%ADD10R,0.02559X0.08661*%
%ADD11R,0.04331X0.03937*%
%ADD12R,0.11811X0.05512*%
%ADD13C,0.07600*%
%ADD14R,0.07600X0.07600*%
%ADD15R,0.06299X0.07087*%
%ADD16R,0.04724X0.07874*%
%ADD17R,0.02362X0.05315*%
%ADD18R,0.08000X0.08000*%
%ADD19C,0.08000*%
%ADD20C,0.07400*%
%ADD21R,0.03543X0.03150*%
%ADD22R,0.03937X0.04331*%
%ADD23C,0.06000*%
%ADD24C,0.13000*%
%ADD25R,0.03543X0.03937*%
%ADD26R,0.03976X0.03976*%
%ADD27R,0.16024X0.06969*%
%ADD28R,0.06969X0.16024*%
%ADD29R,0.04724X0.02165*%
%ADD30R,0.02165X0.04724*%
%ADD31C,0.00800*%
%ADD32C,0.02900*%
%ADD33C,0.05000*%
%ADD34C,0.07000*%
%ADD35C,0.04000*%
%ADD36C,0.06000*%
D10*
X0157546Y0102520D03*
X0157546Y0117087D03*
D11*
X0202487Y0112500D03*
X0209180Y0112500D03*
X0161680Y0095000D03*
X0154987Y0095000D03*
X0284987Y0067500D03*
X0291680Y0067500D03*
X0291680Y0060000D03*
X0284987Y0060000D03*
D12*
X0247782Y0095000D03*
X0228885Y0095000D03*
D13*
X0098491Y0120000D03*
D14*
X0118176Y0120000D03*
D15*
X0127822Y0110000D03*
X0138845Y0110000D03*
D16*
X0237310Y0129469D03*
X0259357Y0129469D03*
D17*
X0254239Y0115000D03*
X0250302Y0115000D03*
X0246365Y0115000D03*
X0242428Y0115000D03*
D18*
X0108333Y0090000D03*
D19*
X0108333Y0070315D03*
D20*
X0133333Y0075000D03*
X0133333Y0085000D03*
X0133333Y0095000D03*
X0128333Y0130000D03*
X0118333Y0130000D03*
X0108333Y0130000D03*
X0098333Y0130000D03*
X0138333Y0130000D03*
X0148333Y0130000D03*
X0158333Y0130000D03*
X0168333Y0130000D03*
X0178333Y0130000D03*
X0188333Y0130000D03*
X0178333Y0050000D03*
X0168333Y0050000D03*
X0158333Y0050000D03*
X0148333Y0050000D03*
X0138333Y0050000D03*
X0128333Y0050000D03*
X0118333Y0050000D03*
X0108333Y0050000D03*
X0108333Y0040000D03*
X0118333Y0040000D03*
X0128333Y0040000D03*
X0138333Y0040000D03*
X0148333Y0040000D03*
X0158333Y0040000D03*
X0168333Y0040000D03*
X0178333Y0040000D03*
X0188333Y0040000D03*
X0098333Y0040000D03*
D21*
X0141896Y0086260D03*
X0150164Y0090000D03*
X0141896Y0093740D03*
D22*
X0168333Y0078346D03*
X0168333Y0071654D03*
X0238333Y0068346D03*
X0248333Y0068346D03*
X0258333Y0068346D03*
X0258333Y0061654D03*
X0248333Y0061654D03*
X0238333Y0061654D03*
X0213333Y0121654D03*
X0203333Y0121654D03*
X0203333Y0128346D03*
X0213333Y0128346D03*
D23*
X0278333Y0129500D03*
X0288333Y0129500D03*
X0298333Y0129500D03*
X0298333Y0072500D03*
X0278333Y0072500D03*
D24*
X0262333Y0100000D03*
X0314333Y0100000D03*
D25*
X0296404Y0050650D03*
X0280262Y0050650D03*
X0280262Y0044350D03*
X0296404Y0044350D03*
D26*
X0216483Y0067362D03*
X0198727Y0067362D03*
X0189711Y0067362D03*
X0180696Y0067362D03*
X0180696Y0076378D03*
X0180696Y0085394D03*
X0216483Y0085394D03*
D27*
X0203215Y0103386D03*
X0185223Y0103386D03*
D28*
X0216719Y0098898D03*
D29*
X0153452Y0078740D03*
X0153452Y0075000D03*
X0153452Y0071260D03*
X0143215Y0071260D03*
X0143215Y0078740D03*
D30*
X0219593Y0119881D03*
X0223333Y0119881D03*
X0227073Y0119881D03*
X0227073Y0130119D03*
X0219593Y0130119D03*
D31*
X0098333Y0040000D02*
X0094833Y0043500D01*
X0094833Y0065000D01*
X0100783Y0070950D01*
X0100783Y0098056D01*
X0117370Y0114643D01*
X0143781Y0114643D01*
X0148425Y0110000D01*
X0188333Y0110000D01*
X0193902Y0115569D01*
X0218402Y0115569D01*
X0219593Y0116760D01*
X0219593Y0119881D01*
X0217410Y0120060D02*
X0216402Y0120060D01*
X0216402Y0120154D02*
X0216608Y0120154D01*
X0217410Y0120956D01*
X0217410Y0117068D01*
X0193280Y0117068D01*
X0192402Y0116190D01*
X0187712Y0111500D01*
X0159450Y0111500D01*
X0159685Y0111636D01*
X0159946Y0111896D01*
X0160130Y0112216D01*
X0160225Y0112572D01*
X0160225Y0116847D01*
X0157786Y0116847D01*
X0157786Y0117326D01*
X0160225Y0117326D01*
X0160225Y0121602D01*
X0160130Y0121958D01*
X0159946Y0122277D01*
X0159685Y0122538D01*
X0159366Y0122722D01*
X0159010Y0122817D01*
X0157786Y0122817D01*
X0157786Y0117326D01*
X0157306Y0117326D01*
X0157306Y0116847D01*
X0154866Y0116847D01*
X0154866Y0112572D01*
X0154962Y0112216D01*
X0155146Y0111896D01*
X0155407Y0111636D01*
X0155642Y0111500D01*
X0149046Y0111500D01*
X0145281Y0115265D01*
X0144403Y0116143D01*
X0123076Y0116143D01*
X0123076Y0124256D01*
X0122431Y0124900D01*
X0113920Y0124900D01*
X0113276Y0124256D01*
X0113276Y0115744D01*
X0113920Y0115100D01*
X0115706Y0115100D01*
X0100162Y0099556D01*
X0099283Y0098678D01*
X0099283Y0071571D01*
X0094833Y0067121D01*
X0094833Y0116304D01*
X0095103Y0116034D01*
X0095765Y0115553D01*
X0096495Y0115181D01*
X0097273Y0114928D01*
X0098082Y0114800D01*
X0098091Y0114800D01*
X0098091Y0119600D01*
X0098891Y0119600D01*
X0098891Y0120400D01*
X0103691Y0120400D01*
X0103691Y0120409D01*
X0103563Y0121218D01*
X0103310Y0121996D01*
X0102938Y0122725D01*
X0102457Y0123388D01*
X0101878Y0123966D01*
X0101216Y0124447D01*
X0100487Y0124819D01*
X0099708Y0125072D01*
X0099683Y0125076D01*
X0100291Y0125274D01*
X0101006Y0125638D01*
X0101656Y0126110D01*
X0102223Y0126678D01*
X0102695Y0127327D01*
X0103060Y0128042D01*
X0103308Y0128806D01*
X0103433Y0129599D01*
X0103433Y0129600D01*
X0098733Y0129600D01*
X0098733Y0124900D01*
X0098735Y0124900D01*
X0098891Y0124925D01*
X0098891Y0120400D01*
X0098091Y0120400D01*
X0098091Y0125200D01*
X0098082Y0125200D01*
X0097933Y0125177D01*
X0097933Y0129600D01*
X0098733Y0129600D01*
X0098733Y0130400D01*
X0103433Y0130400D01*
X0103433Y0130401D01*
X0103308Y0131194D01*
X0103060Y0131958D01*
X0102695Y0132673D01*
X0102223Y0133322D01*
X0102046Y0133500D01*
X0105045Y0133500D01*
X0104264Y0132719D01*
X0103533Y0130955D01*
X0103533Y0129045D01*
X0104264Y0127281D01*
X0105614Y0125931D01*
X0107379Y0125200D01*
X0109288Y0125200D01*
X0111052Y0125931D01*
X0112403Y0127281D01*
X0113133Y0129045D01*
X0113133Y0130955D01*
X0112403Y0132719D01*
X0111622Y0133500D01*
X0115045Y0133500D01*
X0114264Y0132719D01*
X0113533Y0130955D01*
X0113533Y0129045D01*
X0114264Y0127281D01*
X0115614Y0125931D01*
X0117379Y0125200D01*
X0119288Y0125200D01*
X0121052Y0125931D01*
X0122403Y0127281D01*
X0123133Y0129045D01*
X0123133Y0130955D01*
X0122403Y0132719D01*
X0121622Y0133500D01*
X0125045Y0133500D01*
X0124264Y0132719D01*
X0123533Y0130955D01*
X0123533Y0129045D01*
X0124264Y0127281D01*
X0125614Y0125931D01*
X0127379Y0125200D01*
X0129288Y0125200D01*
X0131052Y0125931D01*
X0132403Y0127281D01*
X0133133Y0129045D01*
X0133133Y0130955D01*
X0132403Y0132719D01*
X0131622Y0133500D01*
X0135045Y0133500D01*
X0134264Y0132719D01*
X0133533Y0130955D01*
X0133533Y0129045D01*
X0134264Y0127281D01*
X0135614Y0125931D01*
X0137379Y0125200D01*
X0139288Y0125200D01*
X0141052Y0125931D01*
X0142403Y0127281D01*
X0143133Y0129045D01*
X0143133Y0130955D01*
X0142403Y0132719D01*
X0141622Y0133500D01*
X0145045Y0133500D01*
X0144264Y0132719D01*
X0143533Y0130955D01*
X0143533Y0129045D01*
X0144264Y0127281D01*
X0145614Y0125931D01*
X0147379Y0125200D01*
X0149288Y0125200D01*
X0151052Y0125931D01*
X0152403Y0127281D01*
X0153133Y0129045D01*
X0153133Y0130955D01*
X0152403Y0132719D01*
X0151622Y0133500D01*
X0155045Y0133500D01*
X0154264Y0132719D01*
X0153533Y0130955D01*
X0153533Y0129045D01*
X0154264Y0127281D01*
X0155614Y0125931D01*
X0157379Y0125200D01*
X0159288Y0125200D01*
X0161052Y0125931D01*
X0162403Y0127281D01*
X0163133Y0129045D01*
X0163133Y0130955D01*
X0162403Y0132719D01*
X0161622Y0133500D01*
X0165045Y0133500D01*
X0164264Y0132719D01*
X0163533Y0130955D01*
X0163533Y0129045D01*
X0164264Y0127281D01*
X0165614Y0125931D01*
X0167379Y0125200D01*
X0169288Y0125200D01*
X0171052Y0125931D01*
X0172403Y0127281D01*
X0173133Y0129045D01*
X0173133Y0130955D01*
X0172403Y0132719D01*
X0171622Y0133500D01*
X0175045Y0133500D01*
X0174264Y0132719D01*
X0173533Y0130955D01*
X0173533Y0129045D01*
X0174264Y0127281D01*
X0175614Y0125931D01*
X0177379Y0125200D01*
X0179288Y0125200D01*
X0180507Y0125705D01*
X0182631Y0123581D01*
X0200265Y0123581D01*
X0200265Y0119033D01*
X0200909Y0118388D01*
X0205757Y0118388D01*
X0206402Y0119033D01*
X0206402Y0120154D01*
X0210265Y0120154D01*
X0210265Y0119033D01*
X0210909Y0118388D01*
X0215757Y0118388D01*
X0216402Y0119033D01*
X0216402Y0120154D01*
X0216402Y0119262D02*
X0217410Y0119262D01*
X0217410Y0118463D02*
X0215832Y0118463D01*
X0217410Y0117665D02*
X0160225Y0117665D01*
X0160225Y0118463D02*
X0200834Y0118463D01*
X0200265Y0119262D02*
X0160225Y0119262D01*
X0160225Y0120060D02*
X0200265Y0120060D01*
X0200265Y0120859D02*
X0160225Y0120859D01*
X0160211Y0121657D02*
X0200265Y0121657D01*
X0200265Y0122456D02*
X0159767Y0122456D01*
X0157786Y0122456D02*
X0157306Y0122456D01*
X0157306Y0122817D02*
X0156082Y0122817D01*
X0155726Y0122722D01*
X0155407Y0122538D01*
X0155146Y0122277D01*
X0154962Y0121958D01*
X0154866Y0121602D01*
X0154866Y0117326D01*
X0157306Y0117326D01*
X0157306Y0122817D01*
X0157306Y0121657D02*
X0157786Y0121657D01*
X0157786Y0120859D02*
X0157306Y0120859D01*
X0157306Y0120060D02*
X0157786Y0120060D01*
X0157786Y0119262D02*
X0157306Y0119262D01*
X0157306Y0118463D02*
X0157786Y0118463D01*
X0157786Y0117665D02*
X0157306Y0117665D01*
X0157306Y0116866D02*
X0123076Y0116866D01*
X0123076Y0117665D02*
X0154866Y0117665D01*
X0154866Y0118463D02*
X0123076Y0118463D01*
X0123076Y0119262D02*
X0154866Y0119262D01*
X0154866Y0120060D02*
X0123076Y0120060D01*
X0123076Y0120859D02*
X0154866Y0120859D01*
X0154881Y0121657D02*
X0123076Y0121657D01*
X0123076Y0122456D02*
X0155325Y0122456D01*
X0156293Y0125650D02*
X0150374Y0125650D01*
X0151570Y0126448D02*
X0155097Y0126448D01*
X0154298Y0127247D02*
X0152368Y0127247D01*
X0152719Y0128045D02*
X0153948Y0128045D01*
X0153617Y0128844D02*
X0153050Y0128844D01*
X0153133Y0129642D02*
X0153533Y0129642D01*
X0153533Y0130441D02*
X0153133Y0130441D01*
X0153016Y0131239D02*
X0153651Y0131239D01*
X0153982Y0132038D02*
X0152685Y0132038D01*
X0152285Y0132836D02*
X0154381Y0132836D01*
X0162285Y0132836D02*
X0164381Y0132836D01*
X0163982Y0132038D02*
X0162685Y0132038D01*
X0163016Y0131239D02*
X0163651Y0131239D01*
X0163533Y0130441D02*
X0163133Y0130441D01*
X0163133Y0129642D02*
X0163533Y0129642D01*
X0163617Y0128844D02*
X0163050Y0128844D01*
X0162719Y0128045D02*
X0163948Y0128045D01*
X0164298Y0127247D02*
X0162368Y0127247D01*
X0161570Y0126448D02*
X0165097Y0126448D01*
X0166293Y0125650D02*
X0160374Y0125650D01*
X0170374Y0125650D02*
X0176293Y0125650D01*
X0175097Y0126448D02*
X0171570Y0126448D01*
X0172368Y0127247D02*
X0174298Y0127247D01*
X0173948Y0128045D02*
X0172719Y0128045D01*
X0173050Y0128844D02*
X0173617Y0128844D01*
X0173533Y0129642D02*
X0173133Y0129642D01*
X0173133Y0130441D02*
X0173533Y0130441D01*
X0173651Y0131239D02*
X0173016Y0131239D01*
X0172685Y0132038D02*
X0173982Y0132038D01*
X0174381Y0132836D02*
X0172285Y0132836D01*
X0178333Y0130000D02*
X0183252Y0125081D01*
X0205757Y0125081D01*
X0209023Y0128346D01*
X0213333Y0128346D01*
X0215680Y0128346D01*
X0217452Y0130119D01*
X0219593Y0130119D01*
X0221715Y0130119D01*
X0223333Y0128500D01*
X0223333Y0127000D01*
X0224333Y0126000D01*
X0229333Y0126000D01*
X0235333Y0120000D01*
X0249333Y0120000D01*
X0250302Y0119031D01*
X0250302Y0115000D01*
X0254048Y0115191D02*
X0254048Y0119057D01*
X0252873Y0119057D01*
X0252517Y0118962D01*
X0252198Y0118778D01*
X0252058Y0118638D01*
X0251939Y0118757D01*
X0251802Y0118757D01*
X0251802Y0119653D01*
X0250923Y0120531D01*
X0250833Y0120621D01*
X0249955Y0121500D01*
X0235955Y0121500D01*
X0229955Y0127500D01*
X0229256Y0127500D01*
X0229256Y0127971D01*
X0229389Y0127838D01*
X0230326Y0127450D01*
X0231341Y0127450D01*
X0232278Y0127838D01*
X0232995Y0128556D01*
X0233383Y0129493D01*
X0233383Y0130507D01*
X0232995Y0131444D01*
X0232278Y0132162D01*
X0231341Y0132550D01*
X0230326Y0132550D01*
X0229389Y0132162D01*
X0229256Y0132029D01*
X0229256Y0132936D01*
X0228692Y0133500D01*
X0233848Y0133500D01*
X0233848Y0125076D01*
X0234492Y0124431D01*
X0240128Y0124431D01*
X0240772Y0125076D01*
X0240772Y0133500D01*
X0255895Y0133500D01*
X0255895Y0125076D01*
X0256539Y0124431D01*
X0262175Y0124431D01*
X0262819Y0125076D01*
X0262819Y0133500D01*
X0277276Y0133500D01*
X0276011Y0132976D01*
X0274858Y0131822D01*
X0274233Y0130316D01*
X0274233Y0128684D01*
X0274858Y0127178D01*
X0276011Y0126024D01*
X0277518Y0125400D01*
X0279149Y0125400D01*
X0280656Y0126024D01*
X0281809Y0127178D01*
X0282433Y0128684D01*
X0282433Y0130316D01*
X0281809Y0131822D01*
X0280656Y0132976D01*
X0279390Y0133500D01*
X0286492Y0133500D01*
X0286027Y0133263D01*
X0285467Y0132856D01*
X0284977Y0132366D01*
X0284570Y0131806D01*
X0284256Y0131189D01*
X0284042Y0130530D01*
X0283942Y0129900D01*
X0287933Y0129900D01*
X0287933Y0129100D01*
X0283942Y0129100D01*
X0284042Y0128470D01*
X0284256Y0127811D01*
X0284570Y0127194D01*
X0284977Y0126634D01*
X0285467Y0126144D01*
X0286027Y0125737D01*
X0286644Y0125422D01*
X0287303Y0125208D01*
X0287933Y0125109D01*
X0287933Y0129100D01*
X0288733Y0129100D01*
X0288733Y0125109D01*
X0289364Y0125208D01*
X0290022Y0125422D01*
X0290639Y0125737D01*
X0291200Y0126144D01*
X0291689Y0126634D01*
X0292097Y0127194D01*
X0292411Y0127811D01*
X0292625Y0128470D01*
X0292725Y0129100D01*
X0288733Y0129100D01*
X0288733Y0129900D01*
X0292725Y0129900D01*
X0292625Y0130530D01*
X0292411Y0131189D01*
X0292097Y0131806D01*
X0291689Y0132366D01*
X0291200Y0132856D01*
X0290639Y0133263D01*
X0290175Y0133500D01*
X0297276Y0133500D01*
X0296011Y0132976D01*
X0294858Y0131822D01*
X0294233Y0130316D01*
X0294233Y0128684D01*
X0294858Y0127178D01*
X0296011Y0126024D01*
X0297518Y0125400D01*
X0299149Y0125400D01*
X0300656Y0126024D01*
X0301809Y0127178D01*
X0302433Y0128684D01*
X0302433Y0130316D01*
X0301809Y0131822D01*
X0300656Y0132976D01*
X0299390Y0133500D01*
X0321833Y0133500D01*
X0321833Y0101753D01*
X0320776Y0104305D01*
X0318638Y0106443D01*
X0315845Y0107600D01*
X0312822Y0107600D01*
X0310028Y0106443D01*
X0307890Y0104305D01*
X0306733Y0101512D01*
X0306733Y0098488D01*
X0307890Y0095695D01*
X0310028Y0093557D01*
X0312822Y0092400D01*
X0315845Y0092400D01*
X0318638Y0093557D01*
X0320776Y0095695D01*
X0321833Y0098247D01*
X0321833Y0036500D01*
X0192046Y0036500D01*
X0192223Y0036678D01*
X0192695Y0037327D01*
X0193060Y0038042D01*
X0193308Y0038806D01*
X0193433Y0039599D01*
X0193433Y0039600D01*
X0188733Y0039600D01*
X0188733Y0040400D01*
X0193433Y0040400D01*
X0193433Y0040401D01*
X0193308Y0041194D01*
X0193060Y0041958D01*
X0192695Y0042673D01*
X0192223Y0043322D01*
X0192046Y0043500D01*
X0243955Y0043500D01*
X0253955Y0053500D01*
X0254833Y0054379D01*
X0254833Y0072894D01*
X0255495Y0073556D01*
X0255883Y0074493D01*
X0255883Y0075507D01*
X0255495Y0076444D01*
X0254778Y0077162D01*
X0253841Y0077550D01*
X0252826Y0077550D01*
X0251889Y0077162D01*
X0251172Y0076444D01*
X0250783Y0075507D01*
X0250783Y0074493D01*
X0251172Y0073556D01*
X0251833Y0072894D01*
X0251833Y0055621D01*
X0242712Y0046500D01*
X0185440Y0046500D01*
X0184778Y0047162D01*
X0183841Y0047550D01*
X0182826Y0047550D01*
X0182449Y0047394D01*
X0183133Y0049045D01*
X0183133Y0050955D01*
X0182403Y0052719D01*
X0181052Y0054069D01*
X0179288Y0054800D01*
X0177379Y0054800D01*
X0175614Y0054069D01*
X0174264Y0052719D01*
X0173533Y0050955D01*
X0173533Y0049045D01*
X0174038Y0047826D01*
X0172712Y0046500D01*
X0171622Y0046500D01*
X0172403Y0047281D01*
X0173133Y0049045D01*
X0173133Y0050955D01*
X0172403Y0052719D01*
X0171052Y0054069D01*
X0169288Y0054800D01*
X0167379Y0054800D01*
X0165614Y0054069D01*
X0164264Y0052719D01*
X0163533Y0050955D01*
X0163533Y0049045D01*
X0164038Y0047826D01*
X0162712Y0046500D01*
X0161622Y0046500D01*
X0162403Y0047281D01*
X0163133Y0049045D01*
X0163133Y0050955D01*
X0162933Y0051438D01*
X0162933Y0055400D01*
X0224248Y0055400D01*
X0225939Y0056100D01*
X0230939Y0061100D01*
X0232233Y0062394D01*
X0232933Y0064085D01*
X0232933Y0078500D01*
X0256833Y0078500D01*
X0256833Y0071612D01*
X0255909Y0071612D01*
X0255265Y0070967D01*
X0255265Y0065725D01*
X0255909Y0065081D01*
X0260757Y0065081D01*
X0261402Y0065725D01*
X0261402Y0070967D01*
X0260757Y0071612D01*
X0259833Y0071612D01*
X0259833Y0078500D01*
X0260212Y0078500D01*
X0279333Y0059379D01*
X0279333Y0059379D01*
X0280212Y0058500D01*
X0281722Y0058500D01*
X0281722Y0057576D01*
X0282366Y0056931D01*
X0287608Y0056931D01*
X0288252Y0057576D01*
X0288252Y0062424D01*
X0287608Y0063068D01*
X0282366Y0063068D01*
X0281722Y0062424D01*
X0281722Y0061500D01*
X0281455Y0061500D01*
X0261455Y0081500D01*
X0232691Y0081500D01*
X0232433Y0082122D01*
X0232433Y0091144D01*
X0235246Y0091144D01*
X0235890Y0091788D01*
X0235890Y0098212D01*
X0235246Y0098856D01*
X0230289Y0098856D01*
X0229700Y0099100D01*
X0228069Y0099100D01*
X0227480Y0098856D01*
X0222523Y0098856D01*
X0222216Y0098549D01*
X0221303Y0098549D01*
X0221303Y0107365D01*
X0220659Y0108009D01*
X0218219Y0108009D01*
X0218219Y0110735D01*
X0215833Y0113121D01*
X0214955Y0114000D01*
X0212445Y0114000D01*
X0212445Y0114069D01*
X0219023Y0114069D01*
X0221093Y0116139D01*
X0221093Y0116419D01*
X0221131Y0116419D01*
X0221251Y0116539D01*
X0221391Y0116399D01*
X0221710Y0116215D01*
X0222066Y0116119D01*
X0223192Y0116119D01*
X0223192Y0119740D01*
X0223475Y0119740D01*
X0223475Y0116119D01*
X0224600Y0116119D01*
X0224956Y0116215D01*
X0225276Y0116399D01*
X0225416Y0116539D01*
X0225535Y0116419D01*
X0228612Y0116419D01*
X0229256Y0117064D01*
X0229256Y0122699D01*
X0228612Y0123344D01*
X0228573Y0123344D01*
X0228573Y0123881D01*
X0227955Y0124500D01*
X0228712Y0124500D01*
X0233833Y0119379D01*
X0234712Y0118500D01*
X0240534Y0118500D01*
X0240147Y0118113D01*
X0240147Y0116500D01*
X0235440Y0116500D01*
X0234778Y0117162D01*
X0233841Y0117550D01*
X0232826Y0117550D01*
X0231889Y0117162D01*
X0231172Y0116444D01*
X0230783Y0115507D01*
X0230783Y0114493D01*
X0231172Y0113556D01*
X0231889Y0112838D01*
X0232826Y0112450D01*
X0233841Y0112450D01*
X0234778Y0112838D01*
X0235440Y0113500D01*
X0240147Y0113500D01*
X0240147Y0111887D01*
X0240791Y0111243D01*
X0244065Y0111243D01*
X0244396Y0111574D01*
X0244728Y0111243D01*
X0244833Y0111243D01*
X0244833Y0111106D01*
X0244172Y0110444D01*
X0243783Y0109507D01*
X0243783Y0108493D01*
X0244172Y0107556D01*
X0244889Y0106838D01*
X0245826Y0106450D01*
X0246841Y0106450D01*
X0247778Y0106838D01*
X0248495Y0107556D01*
X0248883Y0108493D01*
X0248883Y0109507D01*
X0248495Y0110444D01*
X0247833Y0111106D01*
X0247833Y0111243D01*
X0248002Y0111243D01*
X0248333Y0111574D01*
X0248665Y0111243D01*
X0251939Y0111243D01*
X0252058Y0111362D01*
X0252198Y0111222D01*
X0252517Y0111038D01*
X0252873Y0110943D01*
X0254048Y0110943D01*
X0254048Y0114809D01*
X0254429Y0114809D01*
X0254429Y0110943D01*
X0255604Y0110943D01*
X0255960Y0111038D01*
X0256280Y0111222D01*
X0256540Y0111483D01*
X0256725Y0111802D01*
X0256820Y0112158D01*
X0256820Y0114809D01*
X0254429Y0114809D01*
X0254429Y0115191D01*
X0254048Y0115191D01*
X0254048Y0115269D02*
X0254429Y0115269D01*
X0254429Y0115191D02*
X0254429Y0119057D01*
X0255604Y0119057D01*
X0255960Y0118962D01*
X0256280Y0118778D01*
X0256540Y0118517D01*
X0256725Y0118198D01*
X0256820Y0117842D01*
X0256820Y0115191D01*
X0254429Y0115191D01*
X0254429Y0114470D02*
X0254048Y0114470D01*
X0254048Y0113672D02*
X0254429Y0113672D01*
X0254429Y0112873D02*
X0254048Y0112873D01*
X0254048Y0112075D02*
X0254429Y0112075D01*
X0254429Y0111276D02*
X0254048Y0111276D01*
X0252144Y0111276D02*
X0251972Y0111276D01*
X0248631Y0111276D02*
X0248035Y0111276D01*
X0248462Y0110478D02*
X0275734Y0110478D01*
X0274936Y0111276D02*
X0256334Y0111276D01*
X0256798Y0112075D02*
X0274137Y0112075D01*
X0273339Y0112873D02*
X0256820Y0112873D01*
X0256820Y0113672D02*
X0272540Y0113672D01*
X0271742Y0114470D02*
X0256820Y0114470D01*
X0256820Y0115269D02*
X0270943Y0115269D01*
X0270144Y0116068D02*
X0256820Y0116068D01*
X0256820Y0116866D02*
X0269346Y0116866D01*
X0268547Y0117665D02*
X0256820Y0117665D01*
X0256571Y0118463D02*
X0267749Y0118463D01*
X0266950Y0119262D02*
X0251802Y0119262D01*
X0251395Y0120060D02*
X0266833Y0120060D01*
X0266833Y0119379D02*
X0296833Y0089379D01*
X0296833Y0076316D01*
X0296011Y0075976D01*
X0294858Y0074822D01*
X0294233Y0073316D01*
X0294233Y0071684D01*
X0294858Y0070178D01*
X0296011Y0069024D01*
X0296069Y0069000D01*
X0294945Y0069000D01*
X0294945Y0069924D01*
X0294301Y0070568D01*
X0289059Y0070568D01*
X0288466Y0069975D01*
X0288457Y0070009D01*
X0288272Y0070328D01*
X0288012Y0070589D01*
X0287693Y0070773D01*
X0287337Y0070868D01*
X0285387Y0070868D01*
X0285387Y0067900D01*
X0284587Y0067900D01*
X0284587Y0070868D01*
X0282637Y0070868D01*
X0282281Y0070773D01*
X0281985Y0070602D01*
X0282433Y0071684D01*
X0282433Y0073316D01*
X0281809Y0074822D01*
X0280656Y0075976D01*
X0279149Y0076600D01*
X0277518Y0076600D01*
X0276695Y0076259D01*
X0271455Y0081500D01*
X0270440Y0081500D01*
X0269778Y0082162D01*
X0268841Y0082550D01*
X0267826Y0082550D01*
X0266889Y0082162D01*
X0266172Y0081444D01*
X0265783Y0080507D01*
X0265783Y0079493D01*
X0266172Y0078556D01*
X0266889Y0077838D01*
X0267826Y0077450D01*
X0268841Y0077450D01*
X0269778Y0077838D01*
X0270326Y0078386D01*
X0274574Y0074138D01*
X0274233Y0073316D01*
X0274233Y0071684D01*
X0274858Y0070178D01*
X0276011Y0069024D01*
X0277518Y0068400D01*
X0279149Y0068400D01*
X0280656Y0069024D01*
X0281472Y0069840D01*
X0281422Y0069653D01*
X0281422Y0067900D01*
X0284587Y0067900D01*
X0284587Y0067100D01*
X0285387Y0067100D01*
X0285387Y0064131D01*
X0287337Y0064131D01*
X0287693Y0064227D01*
X0288012Y0064411D01*
X0288272Y0064672D01*
X0288457Y0064991D01*
X0288466Y0065025D01*
X0289059Y0064431D01*
X0294301Y0064431D01*
X0294945Y0065076D01*
X0294945Y0066000D01*
X0296833Y0066000D01*
X0296833Y0059379D01*
X0301833Y0054379D01*
X0301833Y0045850D01*
X0299276Y0045850D01*
X0299276Y0046775D01*
X0298631Y0047419D01*
X0294177Y0047419D01*
X0293533Y0046775D01*
X0293533Y0045850D01*
X0283134Y0045850D01*
X0283134Y0046775D01*
X0282490Y0047419D01*
X0278035Y0047419D01*
X0277391Y0046775D01*
X0277391Y0045850D01*
X0247062Y0045850D01*
X0242712Y0041500D01*
X0200440Y0041500D01*
X0199778Y0042162D01*
X0198841Y0042550D01*
X0197826Y0042550D01*
X0196889Y0042162D01*
X0196172Y0041444D01*
X0195783Y0040507D01*
X0195783Y0039493D01*
X0196172Y0038556D01*
X0196889Y0037838D01*
X0197826Y0037450D01*
X0198841Y0037450D01*
X0199778Y0037838D01*
X0200440Y0038500D01*
X0243955Y0038500D01*
X0248305Y0042850D01*
X0277391Y0042850D01*
X0277391Y0041926D01*
X0278035Y0041282D01*
X0282490Y0041282D01*
X0283134Y0041926D01*
X0283134Y0042850D01*
X0293533Y0042850D01*
X0293533Y0041926D01*
X0294177Y0041282D01*
X0298631Y0041282D01*
X0299276Y0041926D01*
X0299276Y0042850D01*
X0303305Y0042850D01*
X0304184Y0043729D01*
X0304833Y0044379D01*
X0304833Y0055621D01*
X0303955Y0056500D01*
X0299833Y0060621D01*
X0299833Y0068684D01*
X0300656Y0069024D01*
X0301809Y0070178D01*
X0302433Y0071684D01*
X0302433Y0073316D01*
X0301809Y0074822D01*
X0300656Y0075976D01*
X0299833Y0076316D01*
X0299833Y0090621D01*
X0269833Y0120621D01*
X0269833Y0127894D01*
X0270495Y0128556D01*
X0270883Y0129493D01*
X0270883Y0130507D01*
X0270495Y0131444D01*
X0269778Y0132162D01*
X0268841Y0132550D01*
X0267826Y0132550D01*
X0266889Y0132162D01*
X0266172Y0131444D01*
X0265783Y0130507D01*
X0265783Y0129493D01*
X0266172Y0128556D01*
X0266833Y0127894D01*
X0266833Y0119379D01*
X0266833Y0120859D02*
X0250596Y0120859D01*
X0254048Y0118463D02*
X0254429Y0118463D01*
X0254429Y0117665D02*
X0254048Y0117665D01*
X0254048Y0116866D02*
X0254429Y0116866D01*
X0254429Y0116068D02*
X0254048Y0116068D01*
X0246365Y0115000D02*
X0246333Y0114969D01*
X0246333Y0109000D01*
X0243953Y0108082D02*
X0218219Y0108082D01*
X0218219Y0108881D02*
X0243783Y0108881D01*
X0243855Y0109679D02*
X0218219Y0109679D01*
X0218219Y0110478D02*
X0244205Y0110478D01*
X0244098Y0111276D02*
X0244694Y0111276D01*
X0240757Y0111276D02*
X0217678Y0111276D01*
X0216880Y0112075D02*
X0240147Y0112075D01*
X0240147Y0112873D02*
X0234813Y0112873D01*
X0233333Y0115000D02*
X0242428Y0115000D01*
X0240147Y0116866D02*
X0235074Y0116866D01*
X0231593Y0116866D02*
X0229059Y0116866D01*
X0229256Y0117665D02*
X0240147Y0117665D01*
X0240497Y0118463D02*
X0229256Y0118463D01*
X0229256Y0119262D02*
X0233950Y0119262D01*
X0233152Y0120060D02*
X0229256Y0120060D01*
X0229256Y0120859D02*
X0232353Y0120859D01*
X0231555Y0121657D02*
X0229256Y0121657D01*
X0229256Y0122456D02*
X0230756Y0122456D01*
X0229958Y0123254D02*
X0228701Y0123254D01*
X0228402Y0124053D02*
X0229159Y0124053D01*
X0227073Y0123260D02*
X0226333Y0124000D01*
X0218333Y0124000D01*
X0215987Y0121654D01*
X0213333Y0121654D01*
X0203333Y0121654D01*
X0206402Y0120060D02*
X0210265Y0120060D01*
X0210265Y0119262D02*
X0206402Y0119262D01*
X0205832Y0118463D02*
X0210834Y0118463D01*
X0217313Y0120859D02*
X0217410Y0120859D01*
X0223192Y0119262D02*
X0223475Y0119262D01*
X0223475Y0118463D02*
X0223192Y0118463D01*
X0223192Y0117665D02*
X0223475Y0117665D01*
X0223475Y0116866D02*
X0223192Y0116866D01*
X0221022Y0116068D02*
X0231015Y0116068D01*
X0230783Y0115269D02*
X0220224Y0115269D01*
X0219425Y0114470D02*
X0230793Y0114470D01*
X0231123Y0113672D02*
X0215283Y0113672D01*
X0216081Y0112873D02*
X0231854Y0112873D01*
X0221303Y0107284D02*
X0244443Y0107284D01*
X0245741Y0106485D02*
X0221303Y0106485D01*
X0221303Y0105687D02*
X0257272Y0105687D01*
X0258028Y0106443D02*
X0255890Y0104305D01*
X0254733Y0101512D01*
X0254733Y0098690D01*
X0254547Y0098876D01*
X0254228Y0099060D01*
X0253872Y0099156D01*
X0248182Y0099156D01*
X0248182Y0095400D01*
X0247382Y0095400D01*
X0247382Y0094600D01*
X0240477Y0094600D01*
X0240477Y0092060D01*
X0240572Y0091704D01*
X0240756Y0091384D01*
X0241017Y0091124D01*
X0241336Y0090940D01*
X0241692Y0090844D01*
X0247382Y0090844D01*
X0247382Y0094600D01*
X0248182Y0094600D01*
X0248182Y0090844D01*
X0253872Y0090844D01*
X0254228Y0090940D01*
X0254547Y0091124D01*
X0254808Y0091384D01*
X0254992Y0091704D01*
X0255088Y0092060D01*
X0255088Y0094600D01*
X0248182Y0094600D01*
X0248182Y0095400D01*
X0255088Y0095400D01*
X0255088Y0097633D01*
X0255890Y0095695D01*
X0258028Y0093557D01*
X0260822Y0092400D01*
X0263845Y0092400D01*
X0266638Y0093557D01*
X0268776Y0095695D01*
X0269933Y0098488D01*
X0269933Y0101512D01*
X0268776Y0104305D01*
X0266638Y0106443D01*
X0263845Y0107600D01*
X0260822Y0107600D01*
X0258028Y0106443D01*
X0258131Y0106485D02*
X0246926Y0106485D01*
X0248223Y0107284D02*
X0260058Y0107284D01*
X0264608Y0107284D02*
X0278928Y0107284D01*
X0278130Y0108082D02*
X0248713Y0108082D01*
X0248883Y0108881D02*
X0277331Y0108881D01*
X0276533Y0109679D02*
X0248812Y0109679D01*
X0255801Y0104090D02*
X0221303Y0104090D01*
X0221303Y0104888D02*
X0256474Y0104888D01*
X0255470Y0103291D02*
X0221303Y0103291D01*
X0221303Y0102493D02*
X0255140Y0102493D01*
X0254809Y0101694D02*
X0221303Y0101694D01*
X0221303Y0100896D02*
X0254733Y0100896D01*
X0254733Y0100097D02*
X0221303Y0100097D01*
X0221303Y0099299D02*
X0254733Y0099299D01*
X0255088Y0096903D02*
X0255390Y0096903D01*
X0255088Y0096105D02*
X0255721Y0096105D01*
X0256279Y0095306D02*
X0248182Y0095306D01*
X0248182Y0094508D02*
X0247382Y0094508D01*
X0247382Y0095306D02*
X0235890Y0095306D01*
X0235890Y0094508D02*
X0240477Y0094508D01*
X0240477Y0093709D02*
X0235890Y0093709D01*
X0235890Y0092911D02*
X0240477Y0092911D01*
X0240477Y0092112D02*
X0235890Y0092112D01*
X0235415Y0091314D02*
X0240827Y0091314D01*
X0247382Y0091314D02*
X0248182Y0091314D01*
X0248182Y0092112D02*
X0247382Y0092112D01*
X0247382Y0092911D02*
X0248182Y0092911D01*
X0248182Y0093709D02*
X0247382Y0093709D01*
X0247382Y0095400D02*
X0240477Y0095400D01*
X0240477Y0097940D01*
X0240572Y0098296D01*
X0240756Y0098616D01*
X0241017Y0098876D01*
X0241336Y0099060D01*
X0241692Y0099156D01*
X0247382Y0099156D01*
X0247382Y0095400D01*
X0247382Y0096105D02*
X0248182Y0096105D01*
X0248182Y0096903D02*
X0247382Y0096903D01*
X0247382Y0097702D02*
X0248182Y0097702D01*
X0248182Y0098500D02*
X0247382Y0098500D01*
X0240690Y0098500D02*
X0235601Y0098500D01*
X0235890Y0097702D02*
X0240477Y0097702D01*
X0240477Y0096903D02*
X0235890Y0096903D01*
X0235890Y0096105D02*
X0240477Y0096105D01*
X0232433Y0090515D02*
X0295697Y0090515D01*
X0296495Y0089717D02*
X0232433Y0089717D01*
X0232433Y0088918D02*
X0296833Y0088918D01*
X0296833Y0088120D02*
X0232433Y0088120D01*
X0232433Y0087321D02*
X0296833Y0087321D01*
X0296833Y0086523D02*
X0232433Y0086523D01*
X0232433Y0085724D02*
X0296833Y0085724D01*
X0296833Y0084926D02*
X0232433Y0084926D01*
X0232433Y0084127D02*
X0296833Y0084127D01*
X0296833Y0083329D02*
X0232433Y0083329D01*
X0232433Y0082530D02*
X0267778Y0082530D01*
X0268889Y0082530D02*
X0296833Y0082530D01*
X0296833Y0081732D02*
X0270208Y0081732D01*
X0270833Y0080000D02*
X0278333Y0072500D01*
X0281288Y0075343D02*
X0295378Y0075343D01*
X0294743Y0074545D02*
X0281924Y0074545D01*
X0282255Y0073746D02*
X0294412Y0073746D01*
X0294233Y0072948D02*
X0282433Y0072948D01*
X0282433Y0072149D02*
X0294233Y0072149D01*
X0294371Y0071351D02*
X0282295Y0071351D01*
X0281449Y0069754D02*
X0281385Y0069754D01*
X0281422Y0068955D02*
X0280490Y0068955D01*
X0281422Y0068157D02*
X0274798Y0068157D01*
X0275596Y0067358D02*
X0284587Y0067358D01*
X0284587Y0067100D02*
X0281422Y0067100D01*
X0281422Y0065347D01*
X0281517Y0064991D01*
X0281701Y0064672D01*
X0281962Y0064411D01*
X0282281Y0064227D01*
X0282637Y0064131D01*
X0284587Y0064131D01*
X0284587Y0067100D01*
X0284587Y0066560D02*
X0285387Y0066560D01*
X0285387Y0065761D02*
X0284587Y0065761D01*
X0284587Y0064963D02*
X0285387Y0064963D01*
X0285387Y0064164D02*
X0284587Y0064164D01*
X0282515Y0064164D02*
X0278790Y0064164D01*
X0277992Y0064963D02*
X0281533Y0064963D01*
X0281422Y0065761D02*
X0277193Y0065761D01*
X0276395Y0066560D02*
X0281422Y0066560D01*
X0284587Y0068157D02*
X0285387Y0068157D01*
X0285387Y0068955D02*
X0284587Y0068955D01*
X0284587Y0069754D02*
X0285387Y0069754D01*
X0285387Y0070552D02*
X0284587Y0070552D01*
X0288048Y0070552D02*
X0289043Y0070552D01*
X0291680Y0067500D02*
X0298333Y0067500D01*
X0298333Y0060000D01*
X0303333Y0055000D01*
X0303333Y0045000D01*
X0302684Y0044350D01*
X0296404Y0044350D01*
X0280262Y0044350D01*
X0247684Y0044350D01*
X0243333Y0040000D01*
X0198333Y0040000D01*
X0198944Y0040610D01*
X0200134Y0041806D02*
X0243018Y0041806D01*
X0243816Y0042604D02*
X0192730Y0042604D01*
X0193109Y0041806D02*
X0196533Y0041806D01*
X0195991Y0041007D02*
X0193337Y0041007D01*
X0193404Y0039410D02*
X0195817Y0039410D01*
X0195783Y0040209D02*
X0188733Y0040209D01*
X0187933Y0040209D02*
X0183133Y0040209D01*
X0183233Y0040400D02*
X0187933Y0040400D01*
X0187933Y0039600D01*
X0183233Y0039600D01*
X0183233Y0039599D01*
X0183359Y0038806D01*
X0183607Y0038042D01*
X0183971Y0037327D01*
X0184443Y0036678D01*
X0184621Y0036500D01*
X0181622Y0036500D01*
X0182403Y0037281D01*
X0183133Y0039045D01*
X0183133Y0040955D01*
X0182449Y0042606D01*
X0182826Y0042450D01*
X0183841Y0042450D01*
X0183862Y0042459D01*
X0183607Y0041958D01*
X0183359Y0041194D01*
X0183233Y0040401D01*
X0183233Y0040400D01*
X0183329Y0041007D02*
X0183112Y0041007D01*
X0182781Y0041806D02*
X0183558Y0041806D01*
X0182453Y0042604D02*
X0182450Y0042604D01*
X0183333Y0045000D02*
X0243333Y0045000D01*
X0253333Y0055000D01*
X0253333Y0075000D01*
X0251046Y0076142D02*
X0232933Y0076142D01*
X0232933Y0076940D02*
X0251668Y0076940D01*
X0250783Y0075343D02*
X0239339Y0075343D01*
X0239778Y0075162D02*
X0238841Y0075550D01*
X0237826Y0075550D01*
X0236889Y0075162D01*
X0236172Y0074444D01*
X0235783Y0073507D01*
X0235783Y0072493D01*
X0236148Y0071612D01*
X0235909Y0071612D01*
X0235265Y0070967D01*
X0235265Y0065725D01*
X0235909Y0065081D01*
X0240757Y0065081D01*
X0241402Y0065725D01*
X0241402Y0070967D01*
X0240757Y0071612D01*
X0240518Y0071612D01*
X0240883Y0072493D01*
X0240883Y0073507D01*
X0240495Y0074444D01*
X0239778Y0075162D01*
X0240395Y0074545D02*
X0250783Y0074545D01*
X0251092Y0073746D02*
X0240784Y0073746D01*
X0240883Y0072948D02*
X0251779Y0072948D01*
X0251833Y0072149D02*
X0240741Y0072149D01*
X0241018Y0071351D02*
X0245233Y0071351D01*
X0245245Y0071371D02*
X0245060Y0071052D01*
X0244965Y0070696D01*
X0244965Y0068746D01*
X0247933Y0068746D01*
X0247933Y0067946D01*
X0244965Y0067946D01*
X0244965Y0065997D01*
X0245060Y0065641D01*
X0245245Y0065321D01*
X0245505Y0065061D01*
X0245824Y0064877D01*
X0245858Y0064868D01*
X0245265Y0064275D01*
X0245265Y0063154D01*
X0241402Y0063154D01*
X0241402Y0064275D01*
X0240757Y0064919D01*
X0235909Y0064919D01*
X0235265Y0064275D01*
X0235265Y0059033D01*
X0235909Y0058388D01*
X0240757Y0058388D01*
X0241402Y0059033D01*
X0241402Y0060154D01*
X0245265Y0060154D01*
X0245265Y0059033D01*
X0245909Y0058388D01*
X0250757Y0058388D01*
X0251402Y0059033D01*
X0251402Y0064275D01*
X0250809Y0064868D01*
X0250842Y0064877D01*
X0251161Y0065061D01*
X0251422Y0065321D01*
X0251606Y0065641D01*
X0251702Y0065997D01*
X0251702Y0067946D01*
X0248733Y0067946D01*
X0248733Y0068746D01*
X0251702Y0068746D01*
X0251702Y0070696D01*
X0251606Y0071052D01*
X0251422Y0071371D01*
X0251161Y0071632D01*
X0250842Y0071816D01*
X0250486Y0071912D01*
X0248733Y0071912D01*
X0248733Y0068746D01*
X0247933Y0068746D01*
X0247933Y0071912D01*
X0246180Y0071912D01*
X0245824Y0071816D01*
X0245505Y0071632D01*
X0245245Y0071371D01*
X0244965Y0070552D02*
X0241402Y0070552D01*
X0241402Y0069754D02*
X0244965Y0069754D01*
X0244965Y0068955D02*
X0241402Y0068955D01*
X0241402Y0068157D02*
X0247933Y0068157D01*
X0247933Y0068955D02*
X0248733Y0068955D01*
X0248733Y0068157D02*
X0251833Y0068157D01*
X0251833Y0068955D02*
X0251702Y0068955D01*
X0251702Y0069754D02*
X0251833Y0069754D01*
X0251833Y0070552D02*
X0251702Y0070552D01*
X0251833Y0071351D02*
X0251434Y0071351D01*
X0248733Y0071351D02*
X0247933Y0071351D01*
X0247933Y0070552D02*
X0248733Y0070552D01*
X0248733Y0069754D02*
X0247933Y0069754D01*
X0244965Y0067358D02*
X0241402Y0067358D01*
X0241402Y0066560D02*
X0244965Y0066560D01*
X0245028Y0065761D02*
X0241402Y0065761D01*
X0241402Y0064164D02*
X0245265Y0064164D01*
X0245265Y0063366D02*
X0241402Y0063366D01*
X0238333Y0061654D02*
X0248333Y0061654D01*
X0251402Y0061769D02*
X0251833Y0061769D01*
X0251833Y0062567D02*
X0251402Y0062567D01*
X0251402Y0063366D02*
X0251833Y0063366D01*
X0251833Y0064164D02*
X0251402Y0064164D01*
X0250992Y0064963D02*
X0251833Y0064963D01*
X0251833Y0065761D02*
X0251639Y0065761D01*
X0251702Y0066560D02*
X0251833Y0066560D01*
X0251833Y0067358D02*
X0251702Y0067358D01*
X0254833Y0067358D02*
X0255265Y0067358D01*
X0255265Y0066560D02*
X0254833Y0066560D01*
X0254833Y0065761D02*
X0255265Y0065761D01*
X0254833Y0064963D02*
X0273749Y0064963D01*
X0272951Y0065761D02*
X0261402Y0065761D01*
X0261402Y0066560D02*
X0272152Y0066560D01*
X0271354Y0067358D02*
X0261402Y0067358D01*
X0261402Y0068157D02*
X0270555Y0068157D01*
X0269757Y0068955D02*
X0261402Y0068955D01*
X0261402Y0069754D02*
X0268958Y0069754D01*
X0268160Y0070552D02*
X0261402Y0070552D01*
X0261018Y0071351D02*
X0267361Y0071351D01*
X0266563Y0072149D02*
X0259833Y0072149D01*
X0259833Y0072948D02*
X0265764Y0072948D01*
X0264966Y0073746D02*
X0259833Y0073746D01*
X0259833Y0074545D02*
X0264167Y0074545D01*
X0263369Y0075343D02*
X0259833Y0075343D01*
X0259833Y0076142D02*
X0262570Y0076142D01*
X0261772Y0076940D02*
X0259833Y0076940D01*
X0259833Y0077739D02*
X0260973Y0077739D01*
X0260833Y0080000D02*
X0280833Y0060000D01*
X0284987Y0060000D01*
X0288252Y0060172D02*
X0288414Y0060172D01*
X0288414Y0060970D02*
X0288252Y0060970D01*
X0288252Y0061769D02*
X0288414Y0061769D01*
X0288414Y0062424D02*
X0288414Y0057576D01*
X0289059Y0056931D01*
X0290180Y0056931D01*
X0290180Y0052150D01*
X0283134Y0052150D01*
X0283134Y0053074D01*
X0282490Y0053718D01*
X0278035Y0053718D01*
X0277391Y0053074D01*
X0277391Y0048225D01*
X0278035Y0047581D01*
X0282490Y0047581D01*
X0283134Y0048225D01*
X0283134Y0049150D01*
X0293533Y0049150D01*
X0293533Y0048225D01*
X0294177Y0047581D01*
X0298631Y0047581D01*
X0299276Y0048225D01*
X0299276Y0053074D01*
X0298631Y0053718D01*
X0294177Y0053718D01*
X0293533Y0053074D01*
X0293533Y0052150D01*
X0293180Y0052150D01*
X0293180Y0056931D01*
X0294301Y0056931D01*
X0294945Y0057576D01*
X0294945Y0062424D01*
X0294301Y0063068D01*
X0289059Y0063068D01*
X0288414Y0062424D01*
X0288558Y0062567D02*
X0288109Y0062567D01*
X0287459Y0064164D02*
X0296833Y0064164D01*
X0296833Y0063366D02*
X0279589Y0063366D01*
X0280387Y0062567D02*
X0281865Y0062567D01*
X0281722Y0061769D02*
X0281186Y0061769D01*
X0279339Y0059373D02*
X0270834Y0059373D01*
X0270883Y0059493D02*
X0270495Y0058556D01*
X0269778Y0057838D01*
X0268841Y0057450D01*
X0267826Y0057450D01*
X0266889Y0057838D01*
X0266227Y0058500D01*
X0260869Y0058500D01*
X0260757Y0058388D01*
X0255909Y0058388D01*
X0255265Y0059033D01*
X0255265Y0064275D01*
X0255909Y0064919D01*
X0260757Y0064919D01*
X0261402Y0064275D01*
X0261402Y0061500D01*
X0266227Y0061500D01*
X0266889Y0062162D01*
X0267826Y0062550D01*
X0268841Y0062550D01*
X0269778Y0062162D01*
X0270495Y0061444D01*
X0270883Y0060507D01*
X0270883Y0059493D01*
X0270883Y0060172D02*
X0278540Y0060172D01*
X0277742Y0060970D02*
X0270692Y0060970D01*
X0270171Y0061769D02*
X0276943Y0061769D01*
X0276145Y0062567D02*
X0261402Y0062567D01*
X0261402Y0061769D02*
X0266496Y0061769D01*
X0268333Y0060000D02*
X0259987Y0060000D01*
X0258333Y0061654D01*
X0255265Y0061769D02*
X0254833Y0061769D01*
X0254833Y0062567D02*
X0255265Y0062567D01*
X0255265Y0063366D02*
X0254833Y0063366D01*
X0254833Y0064164D02*
X0255265Y0064164D01*
X0261402Y0064164D02*
X0274548Y0064164D01*
X0275346Y0063366D02*
X0261402Y0063366D01*
X0255265Y0060970D02*
X0254833Y0060970D01*
X0254833Y0060172D02*
X0255265Y0060172D01*
X0255265Y0059373D02*
X0254833Y0059373D01*
X0254833Y0058575D02*
X0255723Y0058575D01*
X0254833Y0057776D02*
X0267039Y0057776D01*
X0269628Y0057776D02*
X0281722Y0057776D01*
X0282320Y0056978D02*
X0254833Y0056978D01*
X0254833Y0056179D02*
X0290180Y0056179D01*
X0290180Y0055381D02*
X0254833Y0055381D01*
X0254833Y0054582D02*
X0290180Y0054582D01*
X0290180Y0053784D02*
X0254238Y0053784D01*
X0253440Y0052985D02*
X0277391Y0052985D01*
X0277391Y0052187D02*
X0252641Y0052187D01*
X0251843Y0051388D02*
X0277391Y0051388D01*
X0277391Y0050590D02*
X0251044Y0050590D01*
X0250246Y0049791D02*
X0277391Y0049791D01*
X0277391Y0048993D02*
X0249447Y0048993D01*
X0248649Y0048194D02*
X0277422Y0048194D01*
X0278012Y0047396D02*
X0247850Y0047396D01*
X0247052Y0046597D02*
X0277391Y0046597D01*
X0282513Y0047396D02*
X0294154Y0047396D01*
X0293564Y0048194D02*
X0283103Y0048194D01*
X0283134Y0048993D02*
X0293533Y0048993D01*
X0291680Y0050650D02*
X0280262Y0050650D01*
X0283134Y0052187D02*
X0290180Y0052187D01*
X0290180Y0052985D02*
X0283134Y0052985D01*
X0291680Y0050650D02*
X0296404Y0050650D01*
X0299276Y0050590D02*
X0301833Y0050590D01*
X0301833Y0051388D02*
X0299276Y0051388D01*
X0299276Y0052187D02*
X0301833Y0052187D01*
X0301833Y0052985D02*
X0299276Y0052985D01*
X0301833Y0053784D02*
X0293180Y0053784D01*
X0293180Y0054582D02*
X0301630Y0054582D01*
X0300831Y0055381D02*
X0293180Y0055381D01*
X0293180Y0056179D02*
X0300033Y0056179D01*
X0299234Y0056978D02*
X0294347Y0056978D01*
X0294945Y0057776D02*
X0298436Y0057776D01*
X0297637Y0058575D02*
X0294945Y0058575D01*
X0294945Y0059373D02*
X0296839Y0059373D01*
X0296833Y0060172D02*
X0294945Y0060172D01*
X0294945Y0060970D02*
X0296833Y0060970D01*
X0296833Y0061769D02*
X0294945Y0061769D01*
X0294802Y0062567D02*
X0296833Y0062567D01*
X0296833Y0064963D02*
X0294832Y0064963D01*
X0294945Y0065761D02*
X0296833Y0065761D01*
X0298333Y0067500D02*
X0298333Y0072500D01*
X0298333Y0090000D01*
X0268333Y0120000D01*
X0268333Y0130000D01*
X0266052Y0128844D02*
X0262819Y0128844D01*
X0262819Y0129642D02*
X0265783Y0129642D01*
X0265783Y0130441D02*
X0262819Y0130441D01*
X0262819Y0131239D02*
X0266087Y0131239D01*
X0266765Y0132038D02*
X0262819Y0132038D01*
X0262819Y0132836D02*
X0275871Y0132836D01*
X0275073Y0132038D02*
X0269902Y0132038D01*
X0270580Y0131239D02*
X0274616Y0131239D01*
X0274285Y0130441D02*
X0270883Y0130441D01*
X0270883Y0129642D02*
X0274233Y0129642D01*
X0274233Y0128844D02*
X0270614Y0128844D01*
X0269985Y0128045D02*
X0274498Y0128045D01*
X0274829Y0127247D02*
X0269833Y0127247D01*
X0269833Y0126448D02*
X0275587Y0126448D01*
X0276915Y0125650D02*
X0269833Y0125650D01*
X0269833Y0124851D02*
X0321833Y0124851D01*
X0321833Y0124053D02*
X0269833Y0124053D01*
X0269833Y0123254D02*
X0321833Y0123254D01*
X0321833Y0122456D02*
X0269833Y0122456D01*
X0269833Y0121657D02*
X0321833Y0121657D01*
X0321833Y0120859D02*
X0269833Y0120859D01*
X0270395Y0120060D02*
X0321833Y0120060D01*
X0321833Y0119262D02*
X0271193Y0119262D01*
X0271992Y0118463D02*
X0321833Y0118463D01*
X0321833Y0117665D02*
X0272790Y0117665D01*
X0273589Y0116866D02*
X0321833Y0116866D01*
X0321833Y0116068D02*
X0274387Y0116068D01*
X0275186Y0115269D02*
X0321833Y0115269D01*
X0321833Y0114470D02*
X0275984Y0114470D01*
X0276783Y0113672D02*
X0321833Y0113672D01*
X0321833Y0112873D02*
X0277581Y0112873D01*
X0278380Y0112075D02*
X0321833Y0112075D01*
X0321833Y0111276D02*
X0279178Y0111276D01*
X0279977Y0110478D02*
X0321833Y0110478D01*
X0321833Y0109679D02*
X0280775Y0109679D01*
X0281574Y0108881D02*
X0321833Y0108881D01*
X0321833Y0108082D02*
X0282372Y0108082D01*
X0283171Y0107284D02*
X0312058Y0107284D01*
X0310131Y0106485D02*
X0283969Y0106485D01*
X0284768Y0105687D02*
X0309272Y0105687D01*
X0308474Y0104888D02*
X0285566Y0104888D01*
X0286365Y0104090D02*
X0307801Y0104090D01*
X0307470Y0103291D02*
X0287163Y0103291D01*
X0287962Y0102493D02*
X0307140Y0102493D01*
X0306809Y0101694D02*
X0288760Y0101694D01*
X0289559Y0100896D02*
X0306733Y0100896D01*
X0306733Y0100097D02*
X0290357Y0100097D01*
X0291156Y0099299D02*
X0306733Y0099299D01*
X0306733Y0098500D02*
X0291954Y0098500D01*
X0292753Y0097702D02*
X0307059Y0097702D01*
X0307390Y0096903D02*
X0293551Y0096903D01*
X0294350Y0096105D02*
X0307721Y0096105D01*
X0308279Y0095306D02*
X0295148Y0095306D01*
X0295947Y0094508D02*
X0309078Y0094508D01*
X0309876Y0093709D02*
X0296745Y0093709D01*
X0297544Y0092911D02*
X0311589Y0092911D01*
X0317078Y0092911D02*
X0321833Y0092911D01*
X0321833Y0093709D02*
X0318791Y0093709D01*
X0319589Y0094508D02*
X0321833Y0094508D01*
X0321833Y0095306D02*
X0320388Y0095306D01*
X0320946Y0096105D02*
X0321833Y0096105D01*
X0321833Y0096903D02*
X0321277Y0096903D01*
X0321608Y0097702D02*
X0321833Y0097702D01*
X0321833Y0102493D02*
X0321527Y0102493D01*
X0321833Y0103291D02*
X0321196Y0103291D01*
X0320865Y0104090D02*
X0321833Y0104090D01*
X0321833Y0104888D02*
X0320193Y0104888D01*
X0319394Y0105687D02*
X0321833Y0105687D01*
X0321833Y0106485D02*
X0318536Y0106485D01*
X0316608Y0107284D02*
X0321833Y0107284D01*
X0290906Y0095306D02*
X0268388Y0095306D01*
X0268946Y0096105D02*
X0290107Y0096105D01*
X0289309Y0096903D02*
X0269277Y0096903D01*
X0269608Y0097702D02*
X0288510Y0097702D01*
X0287712Y0098500D02*
X0269933Y0098500D01*
X0269933Y0099299D02*
X0286913Y0099299D01*
X0286115Y0100097D02*
X0269933Y0100097D01*
X0269933Y0100896D02*
X0285316Y0100896D01*
X0284518Y0101694D02*
X0269858Y0101694D01*
X0269527Y0102493D02*
X0283719Y0102493D01*
X0282921Y0103291D02*
X0269196Y0103291D01*
X0268865Y0104090D02*
X0282122Y0104090D01*
X0281324Y0104888D02*
X0268193Y0104888D01*
X0267394Y0105687D02*
X0280525Y0105687D01*
X0279727Y0106485D02*
X0266536Y0106485D01*
X0267589Y0094508D02*
X0291704Y0094508D01*
X0292503Y0093709D02*
X0266791Y0093709D01*
X0265078Y0092911D02*
X0293301Y0092911D01*
X0294100Y0092112D02*
X0255088Y0092112D01*
X0255088Y0092911D02*
X0259589Y0092911D01*
X0257876Y0093709D02*
X0255088Y0093709D01*
X0255088Y0094508D02*
X0257078Y0094508D01*
X0254737Y0091314D02*
X0294898Y0091314D01*
X0298342Y0092112D02*
X0321833Y0092112D01*
X0321833Y0091314D02*
X0299141Y0091314D01*
X0299833Y0090515D02*
X0321833Y0090515D01*
X0321833Y0089717D02*
X0299833Y0089717D01*
X0299833Y0088918D02*
X0321833Y0088918D01*
X0321833Y0088120D02*
X0299833Y0088120D01*
X0299833Y0087321D02*
X0321833Y0087321D01*
X0321833Y0086523D02*
X0299833Y0086523D01*
X0299833Y0085724D02*
X0321833Y0085724D01*
X0321833Y0084926D02*
X0299833Y0084926D01*
X0299833Y0084127D02*
X0321833Y0084127D01*
X0321833Y0083329D02*
X0299833Y0083329D01*
X0299833Y0082530D02*
X0321833Y0082530D01*
X0321833Y0081732D02*
X0299833Y0081732D01*
X0299833Y0080933D02*
X0321833Y0080933D01*
X0321833Y0080134D02*
X0299833Y0080134D01*
X0299833Y0079336D02*
X0321833Y0079336D01*
X0321833Y0078537D02*
X0299833Y0078537D01*
X0299833Y0077739D02*
X0321833Y0077739D01*
X0321833Y0076940D02*
X0299833Y0076940D01*
X0300255Y0076142D02*
X0321833Y0076142D01*
X0321833Y0075343D02*
X0301288Y0075343D01*
X0301924Y0074545D02*
X0321833Y0074545D01*
X0321833Y0073746D02*
X0302255Y0073746D01*
X0302433Y0072948D02*
X0321833Y0072948D01*
X0321833Y0072149D02*
X0302433Y0072149D01*
X0302295Y0071351D02*
X0321833Y0071351D01*
X0321833Y0070552D02*
X0301964Y0070552D01*
X0301385Y0069754D02*
X0321833Y0069754D01*
X0321833Y0068955D02*
X0300490Y0068955D01*
X0299833Y0068157D02*
X0321833Y0068157D01*
X0321833Y0067358D02*
X0299833Y0067358D01*
X0299833Y0066560D02*
X0321833Y0066560D01*
X0321833Y0065761D02*
X0299833Y0065761D01*
X0299833Y0064963D02*
X0321833Y0064963D01*
X0321833Y0064164D02*
X0299833Y0064164D01*
X0299833Y0063366D02*
X0321833Y0063366D01*
X0321833Y0062567D02*
X0299833Y0062567D01*
X0299833Y0061769D02*
X0321833Y0061769D01*
X0321833Y0060970D02*
X0299833Y0060970D01*
X0300283Y0060172D02*
X0321833Y0060172D01*
X0321833Y0059373D02*
X0301081Y0059373D01*
X0301880Y0058575D02*
X0321833Y0058575D01*
X0321833Y0057776D02*
X0302678Y0057776D01*
X0303477Y0056978D02*
X0321833Y0056978D01*
X0321833Y0056179D02*
X0304275Y0056179D01*
X0304833Y0055381D02*
X0321833Y0055381D01*
X0321833Y0054582D02*
X0304833Y0054582D01*
X0304833Y0053784D02*
X0321833Y0053784D01*
X0321833Y0052985D02*
X0304833Y0052985D01*
X0304833Y0052187D02*
X0321833Y0052187D01*
X0321833Y0051388D02*
X0304833Y0051388D01*
X0304833Y0050590D02*
X0321833Y0050590D01*
X0321833Y0049791D02*
X0304833Y0049791D01*
X0304833Y0048993D02*
X0321833Y0048993D01*
X0321833Y0048194D02*
X0304833Y0048194D01*
X0304833Y0047396D02*
X0321833Y0047396D01*
X0321833Y0046597D02*
X0304833Y0046597D01*
X0304833Y0045799D02*
X0321833Y0045799D01*
X0321833Y0045000D02*
X0304833Y0045000D01*
X0304656Y0044201D02*
X0321833Y0044201D01*
X0321833Y0043403D02*
X0303858Y0043403D01*
X0301833Y0046597D02*
X0299276Y0046597D01*
X0298655Y0047396D02*
X0301833Y0047396D01*
X0301833Y0048194D02*
X0299244Y0048194D01*
X0299276Y0048993D02*
X0301833Y0048993D01*
X0301833Y0049791D02*
X0299276Y0049791D01*
X0293533Y0052187D02*
X0293180Y0052187D01*
X0293180Y0052985D02*
X0293533Y0052985D01*
X0291680Y0050650D02*
X0291680Y0060000D01*
X0288414Y0059373D02*
X0288252Y0059373D01*
X0288252Y0058575D02*
X0288414Y0058575D01*
X0288414Y0057776D02*
X0288252Y0057776D01*
X0287654Y0056978D02*
X0289013Y0056978D01*
X0280137Y0058575D02*
X0270503Y0058575D01*
X0251833Y0058575D02*
X0250944Y0058575D01*
X0251402Y0059373D02*
X0251833Y0059373D01*
X0251833Y0060172D02*
X0251402Y0060172D01*
X0251402Y0060970D02*
X0251833Y0060970D01*
X0245265Y0059373D02*
X0241402Y0059373D01*
X0240944Y0058575D02*
X0245723Y0058575D01*
X0251833Y0057776D02*
X0227615Y0057776D01*
X0226816Y0056978D02*
X0251833Y0056978D01*
X0251833Y0056179D02*
X0226018Y0056179D01*
X0228413Y0058575D02*
X0235723Y0058575D01*
X0235265Y0059373D02*
X0229212Y0059373D01*
X0230010Y0060172D02*
X0235265Y0060172D01*
X0235265Y0060970D02*
X0230809Y0060970D01*
X0231607Y0061769D02*
X0235265Y0061769D01*
X0235265Y0062567D02*
X0232305Y0062567D01*
X0232635Y0063366D02*
X0235265Y0063366D01*
X0235265Y0064164D02*
X0232933Y0064164D01*
X0232933Y0064963D02*
X0245675Y0064963D01*
X0238333Y0068346D02*
X0238333Y0073000D01*
X0237327Y0075343D02*
X0232933Y0075343D01*
X0232933Y0074545D02*
X0236272Y0074545D01*
X0235882Y0073746D02*
X0232933Y0073746D01*
X0232933Y0072948D02*
X0235783Y0072948D01*
X0235926Y0072149D02*
X0232933Y0072149D01*
X0232933Y0071351D02*
X0235648Y0071351D01*
X0235265Y0070552D02*
X0232933Y0070552D01*
X0232933Y0069754D02*
X0235265Y0069754D01*
X0235265Y0068955D02*
X0232933Y0068955D01*
X0232933Y0068157D02*
X0235265Y0068157D01*
X0235265Y0067358D02*
X0232933Y0067358D01*
X0232933Y0066560D02*
X0235265Y0066560D01*
X0235265Y0065761D02*
X0232933Y0065761D01*
X0223733Y0066905D02*
X0221428Y0064600D01*
X0219253Y0064600D01*
X0219571Y0064918D01*
X0219571Y0069806D01*
X0218927Y0070450D01*
X0217983Y0070450D01*
X0217983Y0070716D01*
X0218278Y0070838D01*
X0218995Y0071556D01*
X0219383Y0072493D01*
X0219383Y0073507D01*
X0218995Y0074444D01*
X0218278Y0075162D01*
X0217341Y0075550D01*
X0216326Y0075550D01*
X0215389Y0075162D01*
X0214672Y0074444D01*
X0214283Y0073507D01*
X0214283Y0072493D01*
X0214672Y0071556D01*
X0214983Y0071244D01*
X0214983Y0070450D01*
X0214039Y0070450D01*
X0213395Y0069806D01*
X0213395Y0064918D01*
X0213713Y0064600D01*
X0201885Y0064600D01*
X0202020Y0064834D01*
X0202115Y0065190D01*
X0202115Y0066962D01*
X0199127Y0066962D01*
X0199127Y0067762D01*
X0202115Y0067762D01*
X0202115Y0069535D01*
X0202020Y0069891D01*
X0201835Y0070210D01*
X0201575Y0070471D01*
X0201256Y0070655D01*
X0200900Y0070750D01*
X0199127Y0070750D01*
X0199127Y0067762D01*
X0198327Y0067762D01*
X0198327Y0066962D01*
X0195339Y0066962D01*
X0195339Y0065190D01*
X0195434Y0064834D01*
X0195569Y0064600D01*
X0192481Y0064600D01*
X0192799Y0064918D01*
X0192799Y0069806D01*
X0192155Y0070450D01*
X0187267Y0070450D01*
X0186623Y0069806D01*
X0186623Y0064918D01*
X0186941Y0064600D01*
X0183465Y0064600D01*
X0183784Y0064918D01*
X0183784Y0069806D01*
X0183139Y0070450D01*
X0178252Y0070450D01*
X0177607Y0069806D01*
X0177607Y0064918D01*
X0177926Y0064600D01*
X0169833Y0064600D01*
X0169833Y0068388D01*
X0170757Y0068388D01*
X0171402Y0069033D01*
X0171402Y0074275D01*
X0170757Y0074919D01*
X0165909Y0074919D01*
X0165265Y0074275D01*
X0165265Y0069033D01*
X0165909Y0068388D01*
X0166833Y0068388D01*
X0166833Y0064600D01*
X0122418Y0064600D01*
X0120728Y0063900D01*
X0119434Y0062606D01*
X0119434Y0062606D01*
X0115728Y0058900D01*
X0115728Y0058900D01*
X0114434Y0057606D01*
X0113733Y0055915D01*
X0113733Y0051438D01*
X0113533Y0050955D01*
X0113533Y0049045D01*
X0114264Y0047281D01*
X0115045Y0046500D01*
X0112046Y0046500D01*
X0112223Y0046678D01*
X0112695Y0047327D01*
X0113060Y0048042D01*
X0113308Y0048806D01*
X0113433Y0049599D01*
X0113433Y0049600D01*
X0108733Y0049600D01*
X0108733Y0050400D01*
X0107933Y0050400D01*
X0107933Y0055100D01*
X0107932Y0055100D01*
X0107139Y0054974D01*
X0106376Y0054726D01*
X0105660Y0054362D01*
X0105011Y0053890D01*
X0104443Y0053322D01*
X0103971Y0052673D01*
X0103607Y0051958D01*
X0103359Y0051194D01*
X0103333Y0051033D01*
X0103333Y0060379D01*
X0103955Y0061000D01*
X0111455Y0061000D01*
X0116455Y0066000D01*
X0124727Y0066000D01*
X0125389Y0065338D01*
X0126326Y0064950D01*
X0127341Y0064950D01*
X0128278Y0065338D01*
X0128995Y0066056D01*
X0129383Y0066993D01*
X0129383Y0068007D01*
X0128995Y0068944D01*
X0128278Y0069662D01*
X0127341Y0070050D01*
X0126326Y0070050D01*
X0125389Y0069662D01*
X0124727Y0069000D01*
X0115212Y0069000D01*
X0110212Y0064000D01*
X0102712Y0064000D01*
X0101833Y0063121D01*
X0101212Y0062500D01*
X0100333Y0061621D01*
X0100333Y0045879D01*
X0101212Y0045000D01*
X0096333Y0045000D01*
X0096333Y0044367D02*
X0096333Y0064379D01*
X0101405Y0069450D01*
X0102283Y0070329D01*
X0102283Y0097435D01*
X0104733Y0099885D01*
X0104733Y0095100D01*
X0103878Y0095100D01*
X0103233Y0094456D01*
X0103233Y0085544D01*
X0103878Y0084900D01*
X0112789Y0084900D01*
X0113433Y0085544D01*
X0113433Y0094456D01*
X0112789Y0095100D01*
X0111933Y0095100D01*
X0111933Y0098509D01*
X0119824Y0106400D01*
X0123572Y0106400D01*
X0123572Y0106001D01*
X0124216Y0105357D01*
X0126322Y0105357D01*
X0126322Y0082390D01*
X0129333Y0079379D01*
X0130129Y0078583D01*
X0129264Y0077719D01*
X0128533Y0075955D01*
X0128533Y0074045D01*
X0129264Y0072281D01*
X0130614Y0070931D01*
X0132379Y0070200D01*
X0134288Y0070200D01*
X0136052Y0070931D01*
X0137403Y0072281D01*
X0137907Y0073500D01*
X0141212Y0073500D01*
X0141270Y0073443D01*
X0140397Y0073443D01*
X0139753Y0072798D01*
X0139753Y0069722D01*
X0140397Y0069077D01*
X0146033Y0069077D01*
X0146677Y0069722D01*
X0146677Y0072798D01*
X0146033Y0073443D01*
X0144715Y0073443D01*
X0144715Y0074240D01*
X0143836Y0075118D01*
X0142455Y0076500D01*
X0137907Y0076500D01*
X0137403Y0077719D01*
X0136622Y0078500D01*
X0139455Y0078500D01*
X0139753Y0078798D01*
X0139753Y0077202D01*
X0140397Y0076557D01*
X0146033Y0076557D01*
X0146677Y0077202D01*
X0146677Y0080000D01*
X0149990Y0080000D01*
X0149990Y0077202D01*
X0150109Y0077082D01*
X0149969Y0076942D01*
X0149785Y0076623D01*
X0149690Y0076267D01*
X0149690Y0075141D01*
X0153310Y0075141D01*
X0153310Y0074859D01*
X0149690Y0074859D01*
X0149690Y0073733D01*
X0149785Y0073377D01*
X0149969Y0073058D01*
X0150109Y0072918D01*
X0149990Y0072798D01*
X0149990Y0069722D01*
X0150634Y0069077D01*
X0156270Y0069077D01*
X0156914Y0069722D01*
X0156914Y0069760D01*
X0157214Y0069760D01*
X0158093Y0070639D01*
X0159333Y0071879D01*
X0159333Y0081121D01*
X0158455Y0082000D01*
X0157455Y0083000D01*
X0139712Y0083000D01*
X0138833Y0082121D01*
X0138212Y0081500D01*
X0136622Y0081500D01*
X0137403Y0082281D01*
X0138133Y0084045D01*
X0138133Y0085955D01*
X0137628Y0087174D01*
X0138817Y0088362D01*
X0138725Y0088019D01*
X0138725Y0086647D01*
X0141509Y0086647D01*
X0141509Y0085872D01*
X0142284Y0085872D01*
X0142284Y0083285D01*
X0143852Y0083285D01*
X0144208Y0083380D01*
X0144528Y0083565D01*
X0144788Y0083825D01*
X0144973Y0084145D01*
X0145068Y0084501D01*
X0145068Y0085872D01*
X0142284Y0085872D01*
X0142284Y0086647D01*
X0145068Y0086647D01*
X0145068Y0088019D01*
X0144973Y0088375D01*
X0144788Y0088694D01*
X0144528Y0088955D01*
X0144208Y0089139D01*
X0143852Y0089235D01*
X0142284Y0089235D01*
X0142284Y0086647D01*
X0141509Y0086647D01*
X0141509Y0089054D01*
X0142518Y0090063D01*
X0143396Y0090942D01*
X0143396Y0091065D01*
X0144124Y0091065D01*
X0144768Y0091710D01*
X0144768Y0095771D01*
X0144124Y0096415D01*
X0139669Y0096415D01*
X0139025Y0095771D01*
X0139025Y0091710D01*
X0139234Y0091500D01*
X0137712Y0091500D01*
X0136833Y0090621D01*
X0135507Y0089295D01*
X0134288Y0089800D01*
X0132379Y0089800D01*
X0130614Y0089069D01*
X0129322Y0087776D01*
X0129322Y0091845D01*
X0129443Y0091678D01*
X0130011Y0091110D01*
X0130660Y0090638D01*
X0131376Y0090274D01*
X0132139Y0090026D01*
X0132932Y0089900D01*
X0132933Y0089900D01*
X0132933Y0094600D01*
X0133733Y0094600D01*
X0133733Y0089900D01*
X0133735Y0089900D01*
X0134528Y0090026D01*
X0135291Y0090274D01*
X0136006Y0090638D01*
X0136656Y0091110D01*
X0137223Y0091678D01*
X0137695Y0092327D01*
X0138060Y0093042D01*
X0138308Y0093806D01*
X0138433Y0094599D01*
X0138433Y0094600D01*
X0133733Y0094600D01*
X0133733Y0095400D01*
X0132933Y0095400D01*
X0132933Y0100100D01*
X0132932Y0100100D01*
X0132139Y0099974D01*
X0131376Y0099726D01*
X0130660Y0099362D01*
X0130011Y0098890D01*
X0129443Y0098322D01*
X0129322Y0098155D01*
X0129322Y0105357D01*
X0131427Y0105357D01*
X0132071Y0106001D01*
X0132071Y0113143D01*
X0134596Y0113143D01*
X0134596Y0106001D01*
X0135240Y0105357D01*
X0142450Y0105357D01*
X0142668Y0105574D01*
X0147762Y0100480D01*
X0148774Y0099468D01*
X0150098Y0098920D01*
X0155166Y0098920D01*
X0155166Y0098068D01*
X0152366Y0098068D01*
X0151722Y0097424D01*
X0151722Y0092675D01*
X0147937Y0092675D01*
X0147292Y0092030D01*
X0147292Y0087970D01*
X0147937Y0087325D01*
X0152391Y0087325D01*
X0153036Y0087970D01*
X0153036Y0088500D01*
X0167712Y0088500D01*
X0171440Y0084772D01*
X0172318Y0083894D01*
X0177607Y0083894D01*
X0177607Y0082950D01*
X0178252Y0082306D01*
X0183139Y0082306D01*
X0183784Y0082950D01*
X0183784Y0087838D01*
X0183139Y0088482D01*
X0178252Y0088482D01*
X0177607Y0087838D01*
X0177607Y0086894D01*
X0173561Y0086894D01*
X0168955Y0091500D01*
X0156487Y0091500D01*
X0156487Y0091931D01*
X0157608Y0091931D01*
X0158252Y0092576D01*
X0158252Y0097089D01*
X0158414Y0097089D01*
X0158414Y0092576D01*
X0159059Y0091931D01*
X0164301Y0091931D01*
X0164945Y0092576D01*
X0164945Y0097424D01*
X0164301Y0098068D01*
X0163180Y0098068D01*
X0163180Y0098920D01*
X0176638Y0098920D01*
X0176756Y0098802D01*
X0193691Y0098802D01*
X0194027Y0099138D01*
X0194083Y0099042D01*
X0194344Y0098781D01*
X0194663Y0098597D01*
X0195019Y0098502D01*
X0202815Y0098502D01*
X0202815Y0102986D01*
X0203615Y0102986D01*
X0203615Y0098502D01*
X0211411Y0098502D01*
X0211767Y0098597D01*
X0212087Y0098781D01*
X0212135Y0098830D01*
X0212135Y0090430D01*
X0212779Y0089786D01*
X0213619Y0089786D01*
X0213619Y0088062D01*
X0213395Y0087838D01*
X0213395Y0086039D01*
X0213383Y0086010D01*
X0213383Y0084777D01*
X0213395Y0084749D01*
X0213395Y0082950D01*
X0214039Y0082306D01*
X0215838Y0082306D01*
X0215866Y0082294D01*
X0217377Y0082294D01*
X0217397Y0082306D01*
X0218927Y0082306D01*
X0219571Y0082950D01*
X0219571Y0084306D01*
X0219819Y0084736D01*
X0219819Y0089786D01*
X0220659Y0089786D01*
X0221222Y0090349D01*
X0224233Y0090349D01*
X0224233Y0082122D01*
X0223733Y0080915D01*
X0223733Y0066905D01*
X0223733Y0067358D02*
X0219571Y0067358D01*
X0219571Y0066560D02*
X0223388Y0066560D01*
X0222589Y0065761D02*
X0219571Y0065761D01*
X0219571Y0064963D02*
X0221791Y0064963D01*
X0223733Y0068157D02*
X0219571Y0068157D01*
X0219571Y0068955D02*
X0223733Y0068955D01*
X0223733Y0069754D02*
X0219571Y0069754D01*
X0218790Y0071351D02*
X0223733Y0071351D01*
X0223733Y0072149D02*
X0219241Y0072149D01*
X0219383Y0072948D02*
X0223733Y0072948D01*
X0223733Y0073746D02*
X0219284Y0073746D01*
X0218895Y0074545D02*
X0223733Y0074545D01*
X0223733Y0075343D02*
X0217839Y0075343D01*
X0215827Y0075343D02*
X0183784Y0075343D01*
X0183784Y0074545D02*
X0214772Y0074545D01*
X0214382Y0073746D02*
X0183596Y0073746D01*
X0183784Y0073934D02*
X0183139Y0073290D01*
X0178252Y0073290D01*
X0177607Y0073934D01*
X0177607Y0074878D01*
X0173834Y0074878D01*
X0172955Y0075757D01*
X0171866Y0076846D01*
X0171402Y0076846D01*
X0171402Y0075725D01*
X0170757Y0075081D01*
X0165909Y0075081D01*
X0165265Y0075725D01*
X0165265Y0080967D01*
X0165909Y0081612D01*
X0170757Y0081612D01*
X0171402Y0080967D01*
X0171402Y0079846D01*
X0173108Y0079846D01*
X0175077Y0077878D01*
X0177607Y0077878D01*
X0177607Y0078822D01*
X0178252Y0079466D01*
X0183139Y0079466D01*
X0183784Y0078822D01*
X0183784Y0073934D01*
X0177795Y0073746D02*
X0171402Y0073746D01*
X0171402Y0072948D02*
X0214283Y0072948D01*
X0214426Y0072149D02*
X0171402Y0072149D01*
X0171402Y0071351D02*
X0214876Y0071351D01*
X0214983Y0070552D02*
X0201433Y0070552D01*
X0202056Y0069754D02*
X0213395Y0069754D01*
X0213395Y0068955D02*
X0202115Y0068955D01*
X0202115Y0068157D02*
X0213395Y0068157D01*
X0213395Y0067358D02*
X0199127Y0067358D01*
X0199127Y0068157D02*
X0198327Y0068157D01*
X0198327Y0067762D02*
X0198327Y0070750D01*
X0196555Y0070750D01*
X0196198Y0070655D01*
X0195879Y0070471D01*
X0195619Y0070210D01*
X0195434Y0069891D01*
X0195339Y0069535D01*
X0195339Y0067762D01*
X0198327Y0067762D01*
X0198327Y0067358D02*
X0192799Y0067358D01*
X0192799Y0066560D02*
X0195339Y0066560D01*
X0195339Y0065761D02*
X0192799Y0065761D01*
X0192799Y0064963D02*
X0195400Y0064963D01*
X0202054Y0064963D02*
X0213395Y0064963D01*
X0213395Y0065761D02*
X0202115Y0065761D01*
X0202115Y0066560D02*
X0213395Y0066560D01*
X0216483Y0067362D02*
X0216483Y0072650D01*
X0216833Y0073000D01*
X0217983Y0070552D02*
X0223733Y0070552D01*
X0223733Y0076142D02*
X0183784Y0076142D01*
X0183784Y0076940D02*
X0223733Y0076940D01*
X0223733Y0077739D02*
X0183784Y0077739D01*
X0183784Y0078537D02*
X0223733Y0078537D01*
X0223733Y0079336D02*
X0183270Y0079336D01*
X0180696Y0076378D02*
X0174455Y0076378D01*
X0172487Y0078346D01*
X0168333Y0078346D01*
X0165265Y0078537D02*
X0159333Y0078537D01*
X0159333Y0077739D02*
X0165265Y0077739D01*
X0165265Y0076940D02*
X0159333Y0076940D01*
X0159333Y0076142D02*
X0165265Y0076142D01*
X0165647Y0075343D02*
X0159333Y0075343D01*
X0159333Y0074545D02*
X0165535Y0074545D01*
X0165265Y0073746D02*
X0159333Y0073746D01*
X0159333Y0072948D02*
X0165265Y0072948D01*
X0165265Y0072149D02*
X0159333Y0072149D01*
X0158806Y0071351D02*
X0165265Y0071351D01*
X0165265Y0070552D02*
X0158007Y0070552D01*
X0156914Y0069754D02*
X0165265Y0069754D01*
X0165342Y0068955D02*
X0128984Y0068955D01*
X0129321Y0068157D02*
X0166833Y0068157D01*
X0166833Y0067358D02*
X0129383Y0067358D01*
X0129204Y0066560D02*
X0166833Y0066560D01*
X0166833Y0065761D02*
X0128701Y0065761D01*
X0127371Y0064963D02*
X0166833Y0064963D01*
X0169833Y0064963D02*
X0177607Y0064963D01*
X0177607Y0065761D02*
X0169833Y0065761D01*
X0169833Y0066560D02*
X0177607Y0066560D01*
X0177607Y0067358D02*
X0169833Y0067358D01*
X0169833Y0068157D02*
X0177607Y0068157D01*
X0177607Y0068955D02*
X0171325Y0068955D01*
X0171402Y0069754D02*
X0177607Y0069754D01*
X0183784Y0069754D02*
X0186623Y0069754D01*
X0186623Y0068955D02*
X0183784Y0068955D01*
X0183784Y0068157D02*
X0186623Y0068157D01*
X0186623Y0067358D02*
X0183784Y0067358D01*
X0183784Y0066560D02*
X0186623Y0066560D01*
X0186623Y0065761D02*
X0183784Y0065761D01*
X0183784Y0064963D02*
X0186623Y0064963D01*
X0192799Y0068157D02*
X0195339Y0068157D01*
X0195339Y0068955D02*
X0192799Y0068955D01*
X0192799Y0069754D02*
X0195398Y0069754D01*
X0196021Y0070552D02*
X0171402Y0070552D01*
X0168333Y0071654D02*
X0168333Y0060000D01*
X0162933Y0055381D02*
X0251593Y0055381D01*
X0250794Y0054582D02*
X0179814Y0054582D01*
X0181338Y0053784D02*
X0249996Y0053784D01*
X0249197Y0052985D02*
X0182136Y0052985D01*
X0182623Y0052187D02*
X0248399Y0052187D01*
X0247600Y0051388D02*
X0182954Y0051388D01*
X0183133Y0050590D02*
X0246802Y0050590D01*
X0246003Y0049791D02*
X0183133Y0049791D01*
X0183112Y0048993D02*
X0245205Y0048993D01*
X0244406Y0048194D02*
X0182781Y0048194D01*
X0182453Y0047396D02*
X0182450Y0047396D01*
X0184213Y0047396D02*
X0243608Y0047396D01*
X0242809Y0046597D02*
X0185343Y0046597D01*
X0192143Y0043403D02*
X0244615Y0043403D01*
X0244656Y0044201D02*
X0245413Y0044201D01*
X0245455Y0045000D02*
X0246212Y0045000D01*
X0246253Y0045799D02*
X0247011Y0045799D01*
X0248059Y0042604D02*
X0277391Y0042604D01*
X0277511Y0041806D02*
X0247261Y0041806D01*
X0246462Y0041007D02*
X0321833Y0041007D01*
X0321833Y0040209D02*
X0245664Y0040209D01*
X0244865Y0039410D02*
X0321833Y0039410D01*
X0321833Y0038612D02*
X0244067Y0038612D01*
X0283014Y0041806D02*
X0293653Y0041806D01*
X0293533Y0042604D02*
X0283134Y0042604D01*
X0283134Y0046597D02*
X0293533Y0046597D01*
X0299276Y0042604D02*
X0321833Y0042604D01*
X0321833Y0041806D02*
X0299156Y0041806D01*
X0321833Y0037813D02*
X0199718Y0037813D01*
X0196949Y0037813D02*
X0192943Y0037813D01*
X0193245Y0038612D02*
X0196148Y0038612D01*
X0192468Y0037015D02*
X0321833Y0037015D01*
X0288527Y0064963D02*
X0288440Y0064963D01*
X0294945Y0069754D02*
X0295281Y0069754D01*
X0294702Y0070552D02*
X0294317Y0070552D01*
X0296412Y0076142D02*
X0280255Y0076142D01*
X0276014Y0076940D02*
X0296833Y0076940D01*
X0296833Y0077739D02*
X0275216Y0077739D01*
X0274417Y0078537D02*
X0296833Y0078537D01*
X0296833Y0079336D02*
X0273619Y0079336D01*
X0272820Y0080134D02*
X0296833Y0080134D01*
X0296833Y0080933D02*
X0272022Y0080933D01*
X0270833Y0080000D02*
X0268333Y0080000D01*
X0265960Y0080933D02*
X0262022Y0080933D01*
X0262820Y0080134D02*
X0265783Y0080134D01*
X0265848Y0079336D02*
X0263619Y0079336D01*
X0264417Y0078537D02*
X0266190Y0078537D01*
X0267128Y0077739D02*
X0265216Y0077739D01*
X0266014Y0076940D02*
X0271772Y0076940D01*
X0272570Y0076142D02*
X0266813Y0076142D01*
X0267611Y0075343D02*
X0273369Y0075343D01*
X0274167Y0074545D02*
X0268410Y0074545D01*
X0269208Y0073746D02*
X0274412Y0073746D01*
X0274233Y0072948D02*
X0270007Y0072948D01*
X0270805Y0072149D02*
X0274233Y0072149D01*
X0274371Y0071351D02*
X0271604Y0071351D01*
X0272402Y0070552D02*
X0274702Y0070552D01*
X0275281Y0069754D02*
X0273201Y0069754D01*
X0273999Y0068955D02*
X0276177Y0068955D01*
X0258333Y0068346D02*
X0258333Y0080000D01*
X0228333Y0080000D01*
X0224072Y0081732D02*
X0158723Y0081732D01*
X0159333Y0080933D02*
X0165265Y0080933D01*
X0165265Y0080134D02*
X0159333Y0080134D01*
X0159333Y0079336D02*
X0165265Y0079336D01*
X0171402Y0080134D02*
X0223733Y0080134D01*
X0223741Y0080933D02*
X0171402Y0080933D01*
X0173619Y0079336D02*
X0178122Y0079336D01*
X0177607Y0078537D02*
X0174417Y0078537D01*
X0172570Y0076142D02*
X0171402Y0076142D01*
X0171020Y0075343D02*
X0173369Y0075343D01*
X0171131Y0074545D02*
X0177607Y0074545D01*
X0178027Y0082530D02*
X0157925Y0082530D01*
X0156833Y0081500D02*
X0157833Y0080500D01*
X0157833Y0078740D01*
X0153452Y0078740D01*
X0149990Y0078537D02*
X0146677Y0078537D01*
X0146677Y0077739D02*
X0149990Y0077739D01*
X0149968Y0076940D02*
X0146416Y0076940D01*
X0146677Y0079336D02*
X0149990Y0079336D01*
X0149690Y0076142D02*
X0142813Y0076142D01*
X0143611Y0075343D02*
X0149690Y0075343D01*
X0149690Y0074545D02*
X0144410Y0074545D01*
X0144715Y0073746D02*
X0149690Y0073746D01*
X0150079Y0072948D02*
X0146527Y0072948D01*
X0146677Y0072149D02*
X0149990Y0072149D01*
X0149990Y0071351D02*
X0146677Y0071351D01*
X0146677Y0070552D02*
X0149990Y0070552D01*
X0149990Y0069754D02*
X0146677Y0069754D01*
X0143215Y0071260D02*
X0143215Y0073619D01*
X0141833Y0075000D01*
X0133333Y0075000D01*
X0137725Y0076940D02*
X0140014Y0076940D01*
X0139753Y0077739D02*
X0137383Y0077739D01*
X0139492Y0078537D02*
X0139753Y0078537D01*
X0138833Y0080000D02*
X0140333Y0081500D01*
X0156833Y0081500D01*
X0157833Y0078740D02*
X0157833Y0072500D01*
X0156593Y0071260D01*
X0153452Y0071260D01*
X0139902Y0072948D02*
X0137679Y0072948D01*
X0137271Y0072149D02*
X0139753Y0072149D01*
X0139753Y0071351D02*
X0136472Y0071351D01*
X0135139Y0070552D02*
X0139753Y0070552D01*
X0139753Y0069754D02*
X0128055Y0069754D01*
X0125611Y0069754D02*
X0113712Y0069754D01*
X0113733Y0069890D02*
X0113733Y0069915D01*
X0108733Y0069915D01*
X0108733Y0064915D01*
X0108758Y0064915D01*
X0109598Y0065048D01*
X0110406Y0065311D01*
X0111164Y0065696D01*
X0111851Y0066196D01*
X0112452Y0066797D01*
X0112952Y0067485D01*
X0113338Y0068242D01*
X0113600Y0069050D01*
X0113733Y0069890D01*
X0113733Y0070715D02*
X0113733Y0070740D01*
X0113600Y0071579D01*
X0113338Y0072388D01*
X0112952Y0073145D01*
X0112452Y0073833D01*
X0111851Y0074434D01*
X0111164Y0074933D01*
X0110406Y0075319D01*
X0109598Y0075582D01*
X0108758Y0075715D01*
X0108733Y0075715D01*
X0108733Y0070715D01*
X0107933Y0070715D01*
X0107933Y0069915D01*
X0102933Y0069915D01*
X0102933Y0069890D01*
X0103066Y0069050D01*
X0103329Y0068242D01*
X0103715Y0067485D01*
X0104214Y0066797D01*
X0104815Y0066196D01*
X0105503Y0065696D01*
X0106260Y0065311D01*
X0107069Y0065048D01*
X0107908Y0064915D01*
X0107933Y0064915D01*
X0107933Y0069915D01*
X0108733Y0069915D01*
X0108733Y0070715D01*
X0113733Y0070715D01*
X0113637Y0071351D02*
X0130194Y0071351D01*
X0129396Y0072149D02*
X0113415Y0072149D01*
X0113052Y0072948D02*
X0128988Y0072948D01*
X0128657Y0073746D02*
X0112515Y0073746D01*
X0111698Y0074545D02*
X0128533Y0074545D01*
X0128533Y0075343D02*
X0110332Y0075343D01*
X0108733Y0075343D02*
X0107933Y0075343D01*
X0107933Y0075715D02*
X0107908Y0075715D01*
X0107069Y0075582D01*
X0106260Y0075319D01*
X0105503Y0074933D01*
X0104815Y0074434D01*
X0104214Y0073833D01*
X0103715Y0073145D01*
X0103329Y0072388D01*
X0103066Y0071579D01*
X0102933Y0070740D01*
X0102933Y0070715D01*
X0107933Y0070715D01*
X0107933Y0075715D01*
X0107933Y0074545D02*
X0108733Y0074545D01*
X0108733Y0073746D02*
X0107933Y0073746D01*
X0107933Y0072948D02*
X0108733Y0072948D01*
X0108733Y0072149D02*
X0107933Y0072149D01*
X0107933Y0071351D02*
X0108733Y0071351D01*
X0108733Y0070552D02*
X0131528Y0070552D01*
X0126833Y0067500D02*
X0115833Y0067500D01*
X0110833Y0062500D01*
X0103333Y0062500D01*
X0101833Y0061000D01*
X0101833Y0046500D01*
X0103333Y0045000D01*
X0113333Y0045000D01*
X0113333Y0045000D01*
X0123333Y0045000D01*
X0128333Y0040000D01*
X0138333Y0040000D02*
X0138333Y0050000D01*
X0143333Y0047500D02*
X0145833Y0045000D01*
X0148333Y0045000D01*
X0148333Y0040000D01*
X0158333Y0040000D02*
X0161833Y0043500D01*
X0164333Y0043500D01*
X0165833Y0045000D01*
X0173333Y0045000D01*
X0178333Y0050000D01*
X0173886Y0048194D02*
X0172781Y0048194D01*
X0173112Y0048993D02*
X0173555Y0048993D01*
X0173533Y0049791D02*
X0173133Y0049791D01*
X0173133Y0050590D02*
X0173533Y0050590D01*
X0173713Y0051388D02*
X0172954Y0051388D01*
X0172623Y0052187D02*
X0174044Y0052187D01*
X0174530Y0052985D02*
X0172136Y0052985D01*
X0171338Y0053784D02*
X0175329Y0053784D01*
X0176853Y0054582D02*
X0169814Y0054582D01*
X0166853Y0054582D02*
X0162933Y0054582D01*
X0162933Y0053784D02*
X0165329Y0053784D01*
X0164530Y0052985D02*
X0162933Y0052985D01*
X0162933Y0052187D02*
X0164044Y0052187D01*
X0163713Y0051388D02*
X0162954Y0051388D01*
X0163133Y0050590D02*
X0163533Y0050590D01*
X0163533Y0049791D02*
X0163133Y0049791D01*
X0163112Y0048993D02*
X0163555Y0048993D01*
X0163886Y0048194D02*
X0162781Y0048194D01*
X0162450Y0047396D02*
X0163608Y0047396D01*
X0162809Y0046597D02*
X0161719Y0046597D01*
X0163333Y0045000D02*
X0148333Y0045000D01*
X0152046Y0046500D02*
X0152223Y0046678D01*
X0152695Y0047327D01*
X0153060Y0048042D01*
X0153308Y0048806D01*
X0153433Y0049599D01*
X0153433Y0049600D01*
X0148733Y0049600D01*
X0148733Y0050400D01*
X0147933Y0050400D01*
X0147933Y0055100D01*
X0147932Y0055100D01*
X0147139Y0054974D01*
X0146376Y0054726D01*
X0145660Y0054362D01*
X0145011Y0053890D01*
X0144538Y0053417D01*
X0143955Y0054000D01*
X0142555Y0055400D01*
X0153733Y0055400D01*
X0153733Y0051438D01*
X0153533Y0050955D01*
X0153533Y0049045D01*
X0154264Y0047281D01*
X0155045Y0046500D01*
X0152046Y0046500D01*
X0152143Y0046597D02*
X0154948Y0046597D01*
X0154217Y0047396D02*
X0152730Y0047396D01*
X0153109Y0048194D02*
X0153886Y0048194D01*
X0153555Y0048993D02*
X0153337Y0048993D01*
X0153533Y0049791D02*
X0148733Y0049791D01*
X0148733Y0050400D02*
X0153433Y0050400D01*
X0153433Y0050401D01*
X0153308Y0051194D01*
X0153060Y0051958D01*
X0152695Y0052673D01*
X0152223Y0053322D01*
X0151656Y0053890D01*
X0151006Y0054362D01*
X0150291Y0054726D01*
X0149528Y0054974D01*
X0148735Y0055100D01*
X0148733Y0055100D01*
X0148733Y0050400D01*
X0148733Y0050590D02*
X0147933Y0050590D01*
X0147933Y0051388D02*
X0148733Y0051388D01*
X0148733Y0052187D02*
X0147933Y0052187D01*
X0147933Y0052985D02*
X0148733Y0052985D01*
X0148733Y0053784D02*
X0147933Y0053784D01*
X0147933Y0054582D02*
X0148733Y0054582D01*
X0150574Y0054582D02*
X0153733Y0054582D01*
X0153733Y0053784D02*
X0151762Y0053784D01*
X0152468Y0052985D02*
X0153733Y0052985D01*
X0153733Y0052187D02*
X0152943Y0052187D01*
X0153245Y0051388D02*
X0153713Y0051388D01*
X0153533Y0050590D02*
X0153404Y0050590D01*
X0146093Y0054582D02*
X0143373Y0054582D01*
X0144171Y0053784D02*
X0144904Y0053784D01*
X0143333Y0052500D02*
X0143333Y0047500D01*
X0143333Y0052500D02*
X0140833Y0055000D01*
X0133333Y0055000D01*
X0128333Y0050000D01*
X0114948Y0046597D02*
X0112143Y0046597D01*
X0112730Y0047396D02*
X0114217Y0047396D01*
X0113886Y0048194D02*
X0113109Y0048194D01*
X0113337Y0048993D02*
X0113555Y0048993D01*
X0113533Y0049791D02*
X0108733Y0049791D01*
X0108733Y0050400D02*
X0113433Y0050400D01*
X0113433Y0050401D01*
X0113308Y0051194D01*
X0113060Y0051958D01*
X0112695Y0052673D01*
X0112223Y0053322D01*
X0111656Y0053890D01*
X0111006Y0054362D01*
X0110291Y0054726D01*
X0109528Y0054974D01*
X0108735Y0055100D01*
X0108733Y0055100D01*
X0108733Y0050400D01*
X0108733Y0050590D02*
X0107933Y0050590D01*
X0107933Y0051388D02*
X0108733Y0051388D01*
X0108733Y0052187D02*
X0107933Y0052187D01*
X0107933Y0052985D02*
X0108733Y0052985D01*
X0108733Y0053784D02*
X0107933Y0053784D01*
X0107933Y0054582D02*
X0108733Y0054582D01*
X0110574Y0054582D02*
X0113733Y0054582D01*
X0113733Y0053784D02*
X0111762Y0053784D01*
X0112468Y0052985D02*
X0113733Y0052985D01*
X0113733Y0052187D02*
X0112943Y0052187D01*
X0113245Y0051388D02*
X0113713Y0051388D01*
X0113533Y0050590D02*
X0113404Y0050590D01*
X0106093Y0054582D02*
X0103333Y0054582D01*
X0103333Y0053784D02*
X0104904Y0053784D01*
X0104198Y0052985D02*
X0103333Y0052985D01*
X0103333Y0052187D02*
X0103724Y0052187D01*
X0103422Y0051388D02*
X0103333Y0051388D01*
X0100333Y0051388D02*
X0096333Y0051388D01*
X0096333Y0050590D02*
X0100333Y0050590D01*
X0100333Y0049791D02*
X0096333Y0049791D01*
X0096333Y0048993D02*
X0100333Y0048993D01*
X0100333Y0048194D02*
X0096333Y0048194D01*
X0096333Y0047396D02*
X0100333Y0047396D01*
X0100333Y0046597D02*
X0096333Y0046597D01*
X0096333Y0045799D02*
X0100413Y0045799D01*
X0101212Y0045000D02*
X0102712Y0043500D01*
X0105045Y0043500D01*
X0104264Y0042719D01*
X0103533Y0040955D01*
X0103533Y0039045D01*
X0104264Y0037281D01*
X0105045Y0036500D01*
X0101622Y0036500D01*
X0102403Y0037281D01*
X0103133Y0039045D01*
X0103133Y0040955D01*
X0102403Y0042719D01*
X0101052Y0044069D01*
X0099288Y0044800D01*
X0097379Y0044800D01*
X0096333Y0044367D01*
X0100733Y0044201D02*
X0102011Y0044201D01*
X0101719Y0043403D02*
X0104948Y0043403D01*
X0104217Y0042604D02*
X0102450Y0042604D01*
X0102781Y0041806D02*
X0103886Y0041806D01*
X0103555Y0041007D02*
X0103112Y0041007D01*
X0103133Y0040209D02*
X0103533Y0040209D01*
X0103533Y0039410D02*
X0103133Y0039410D01*
X0102954Y0038612D02*
X0103713Y0038612D01*
X0104044Y0037813D02*
X0102623Y0037813D01*
X0102136Y0037015D02*
X0104530Y0037015D01*
X0100333Y0052187D02*
X0096333Y0052187D01*
X0096333Y0052985D02*
X0100333Y0052985D01*
X0100333Y0053784D02*
X0096333Y0053784D01*
X0096333Y0054582D02*
X0100333Y0054582D01*
X0100333Y0055381D02*
X0096333Y0055381D01*
X0096333Y0056179D02*
X0100333Y0056179D01*
X0100333Y0056978D02*
X0096333Y0056978D01*
X0096333Y0057776D02*
X0100333Y0057776D01*
X0100333Y0058575D02*
X0096333Y0058575D01*
X0096333Y0059373D02*
X0100333Y0059373D01*
X0100333Y0060172D02*
X0096333Y0060172D01*
X0096333Y0060970D02*
X0100333Y0060970D01*
X0100481Y0061769D02*
X0096333Y0061769D01*
X0096333Y0062567D02*
X0101279Y0062567D01*
X0101833Y0063121D02*
X0101833Y0063121D01*
X0102078Y0063366D02*
X0096333Y0063366D01*
X0096333Y0064164D02*
X0110376Y0064164D01*
X0111175Y0064963D02*
X0109060Y0064963D01*
X0108733Y0064963D02*
X0107933Y0064963D01*
X0107606Y0064963D02*
X0096917Y0064963D01*
X0097716Y0065761D02*
X0105414Y0065761D01*
X0104452Y0066560D02*
X0098514Y0066560D01*
X0099313Y0067358D02*
X0103807Y0067358D01*
X0103372Y0068157D02*
X0100111Y0068157D01*
X0100910Y0068955D02*
X0103097Y0068955D01*
X0102955Y0069754D02*
X0101709Y0069754D01*
X0102283Y0070552D02*
X0107933Y0070552D01*
X0107933Y0069754D02*
X0108733Y0069754D01*
X0108733Y0068955D02*
X0107933Y0068955D01*
X0107933Y0068157D02*
X0108733Y0068157D01*
X0108733Y0067358D02*
X0107933Y0067358D01*
X0107933Y0066560D02*
X0108733Y0066560D01*
X0108733Y0065761D02*
X0107933Y0065761D01*
X0111253Y0065761D02*
X0111973Y0065761D01*
X0112215Y0066560D02*
X0112772Y0066560D01*
X0112860Y0067358D02*
X0113570Y0067358D01*
X0113294Y0068157D02*
X0114369Y0068157D01*
X0115167Y0068955D02*
X0113569Y0068955D01*
X0116216Y0065761D02*
X0124966Y0065761D01*
X0126295Y0064963D02*
X0115417Y0064963D01*
X0114619Y0064164D02*
X0121366Y0064164D01*
X0120194Y0063366D02*
X0113820Y0063366D01*
X0113022Y0062567D02*
X0119395Y0062567D01*
X0118597Y0061769D02*
X0112223Y0061769D01*
X0116201Y0059373D02*
X0103333Y0059373D01*
X0103333Y0058575D02*
X0115403Y0058575D01*
X0114604Y0057776D02*
X0103333Y0057776D01*
X0103333Y0056978D02*
X0114174Y0056978D01*
X0113843Y0056179D02*
X0103333Y0056179D01*
X0103333Y0055381D02*
X0113733Y0055381D01*
X0117000Y0060172D02*
X0103333Y0060172D01*
X0103925Y0060970D02*
X0117798Y0060970D01*
X0098264Y0070552D02*
X0094833Y0070552D01*
X0094833Y0069754D02*
X0097466Y0069754D01*
X0096667Y0068955D02*
X0094833Y0068955D01*
X0094833Y0068157D02*
X0095869Y0068157D01*
X0095070Y0067358D02*
X0094833Y0067358D01*
X0094833Y0071351D02*
X0099063Y0071351D01*
X0099283Y0072149D02*
X0094833Y0072149D01*
X0094833Y0072948D02*
X0099283Y0072948D01*
X0099283Y0073746D02*
X0094833Y0073746D01*
X0094833Y0074545D02*
X0099283Y0074545D01*
X0099283Y0075343D02*
X0094833Y0075343D01*
X0094833Y0076142D02*
X0099283Y0076142D01*
X0099283Y0076940D02*
X0094833Y0076940D01*
X0094833Y0077739D02*
X0099283Y0077739D01*
X0099283Y0078537D02*
X0094833Y0078537D01*
X0094833Y0079336D02*
X0099283Y0079336D01*
X0099283Y0080134D02*
X0094833Y0080134D01*
X0094833Y0080933D02*
X0099283Y0080933D01*
X0099283Y0081732D02*
X0094833Y0081732D01*
X0094833Y0082530D02*
X0099283Y0082530D01*
X0099283Y0083329D02*
X0094833Y0083329D01*
X0094833Y0084127D02*
X0099283Y0084127D01*
X0099283Y0084926D02*
X0094833Y0084926D01*
X0094833Y0085724D02*
X0099283Y0085724D01*
X0099283Y0086523D02*
X0094833Y0086523D01*
X0094833Y0087321D02*
X0099283Y0087321D01*
X0099283Y0088120D02*
X0094833Y0088120D01*
X0094833Y0088918D02*
X0099283Y0088918D01*
X0099283Y0089717D02*
X0094833Y0089717D01*
X0094833Y0090515D02*
X0099283Y0090515D01*
X0099283Y0091314D02*
X0094833Y0091314D01*
X0094833Y0092112D02*
X0099283Y0092112D01*
X0099283Y0092911D02*
X0094833Y0092911D01*
X0094833Y0093709D02*
X0099283Y0093709D01*
X0099283Y0094508D02*
X0094833Y0094508D01*
X0094833Y0095306D02*
X0099283Y0095306D01*
X0099283Y0096105D02*
X0094833Y0096105D01*
X0094833Y0096903D02*
X0099283Y0096903D01*
X0099283Y0097702D02*
X0094833Y0097702D01*
X0094833Y0098500D02*
X0099283Y0098500D01*
X0099905Y0099299D02*
X0094833Y0099299D01*
X0094833Y0100097D02*
X0100703Y0100097D01*
X0101502Y0100896D02*
X0094833Y0100896D01*
X0094833Y0101694D02*
X0102300Y0101694D01*
X0103099Y0102493D02*
X0094833Y0102493D01*
X0094833Y0103291D02*
X0103897Y0103291D01*
X0104696Y0104090D02*
X0094833Y0104090D01*
X0094833Y0104888D02*
X0105494Y0104888D01*
X0106293Y0105687D02*
X0094833Y0105687D01*
X0094833Y0106485D02*
X0107091Y0106485D01*
X0107890Y0107284D02*
X0094833Y0107284D01*
X0094833Y0108082D02*
X0108688Y0108082D01*
X0109487Y0108881D02*
X0094833Y0108881D01*
X0094833Y0109679D02*
X0110285Y0109679D01*
X0111084Y0110478D02*
X0094833Y0110478D01*
X0094833Y0111276D02*
X0111882Y0111276D01*
X0112681Y0112075D02*
X0094833Y0112075D01*
X0094833Y0112873D02*
X0113479Y0112873D01*
X0114278Y0113672D02*
X0094833Y0113672D01*
X0094833Y0114470D02*
X0115076Y0114470D01*
X0113751Y0115269D02*
X0100660Y0115269D01*
X0100487Y0115181D02*
X0101216Y0115553D01*
X0101878Y0116034D01*
X0102457Y0116612D01*
X0102938Y0117275D01*
X0103310Y0118004D01*
X0103563Y0118782D01*
X0103691Y0119591D01*
X0103691Y0119600D01*
X0098891Y0119600D01*
X0098891Y0114800D01*
X0098900Y0114800D01*
X0099708Y0114928D01*
X0100487Y0115181D01*
X0098891Y0115269D02*
X0098091Y0115269D01*
X0098091Y0116068D02*
X0098891Y0116068D01*
X0098891Y0116866D02*
X0098091Y0116866D01*
X0098091Y0117665D02*
X0098891Y0117665D01*
X0098891Y0118463D02*
X0098091Y0118463D01*
X0098091Y0119262D02*
X0098891Y0119262D01*
X0098891Y0120060D02*
X0113276Y0120060D01*
X0113276Y0119262D02*
X0103639Y0119262D01*
X0103459Y0118463D02*
X0113276Y0118463D01*
X0113276Y0117665D02*
X0103137Y0117665D01*
X0102641Y0116866D02*
X0113276Y0116866D01*
X0113276Y0116068D02*
X0101912Y0116068D01*
X0096322Y0115269D02*
X0094833Y0115269D01*
X0094833Y0116068D02*
X0095069Y0116068D01*
X0098091Y0120859D02*
X0098891Y0120859D01*
X0098891Y0121657D02*
X0098091Y0121657D01*
X0098091Y0122456D02*
X0098891Y0122456D01*
X0098891Y0123254D02*
X0098091Y0123254D01*
X0098091Y0124053D02*
X0098891Y0124053D01*
X0098891Y0124851D02*
X0098091Y0124851D01*
X0097933Y0125650D02*
X0098733Y0125650D01*
X0098733Y0126448D02*
X0097933Y0126448D01*
X0097933Y0127247D02*
X0098733Y0127247D01*
X0098733Y0128045D02*
X0097933Y0128045D01*
X0097933Y0128844D02*
X0098733Y0128844D01*
X0098733Y0129642D02*
X0103533Y0129642D01*
X0103533Y0130441D02*
X0103427Y0130441D01*
X0103293Y0131239D02*
X0103651Y0131239D01*
X0103982Y0132038D02*
X0103019Y0132038D01*
X0102577Y0132836D02*
X0104381Y0132836D01*
X0103617Y0128844D02*
X0103314Y0128844D01*
X0103061Y0128045D02*
X0103948Y0128045D01*
X0104298Y0127247D02*
X0102637Y0127247D01*
X0101994Y0126448D02*
X0105097Y0126448D01*
X0106293Y0125650D02*
X0101022Y0125650D01*
X0100388Y0124851D02*
X0113871Y0124851D01*
X0113276Y0124053D02*
X0101760Y0124053D01*
X0102554Y0123254D02*
X0113276Y0123254D01*
X0113276Y0122456D02*
X0103076Y0122456D01*
X0103420Y0121657D02*
X0113276Y0121657D01*
X0113276Y0120859D02*
X0103620Y0120859D01*
X0110374Y0125650D02*
X0116293Y0125650D01*
X0115097Y0126448D02*
X0111570Y0126448D01*
X0112368Y0127247D02*
X0114298Y0127247D01*
X0113948Y0128045D02*
X0112719Y0128045D01*
X0113050Y0128844D02*
X0113617Y0128844D01*
X0113533Y0129642D02*
X0113133Y0129642D01*
X0113133Y0130441D02*
X0113533Y0130441D01*
X0113651Y0131239D02*
X0113016Y0131239D01*
X0112685Y0132038D02*
X0113982Y0132038D01*
X0114381Y0132836D02*
X0112285Y0132836D01*
X0122285Y0132836D02*
X0124381Y0132836D01*
X0123982Y0132038D02*
X0122685Y0132038D01*
X0123016Y0131239D02*
X0123651Y0131239D01*
X0123533Y0130441D02*
X0123133Y0130441D01*
X0123133Y0129642D02*
X0123533Y0129642D01*
X0123617Y0128844D02*
X0123050Y0128844D01*
X0122719Y0128045D02*
X0123948Y0128045D01*
X0124298Y0127247D02*
X0122368Y0127247D01*
X0121570Y0126448D02*
X0125097Y0126448D01*
X0126293Y0125650D02*
X0120374Y0125650D01*
X0122480Y0124851D02*
X0181361Y0124851D01*
X0182159Y0124053D02*
X0123076Y0124053D01*
X0123076Y0123254D02*
X0200265Y0123254D01*
X0199965Y0126581D02*
X0192127Y0126581D01*
X0192223Y0126678D01*
X0192695Y0127327D01*
X0193060Y0128042D01*
X0193308Y0128806D01*
X0193433Y0129599D01*
X0193433Y0129600D01*
X0188733Y0129600D01*
X0188733Y0130400D01*
X0193433Y0130400D01*
X0193433Y0130401D01*
X0193308Y0131194D01*
X0193060Y0131958D01*
X0192695Y0132673D01*
X0192223Y0133322D01*
X0192046Y0133500D01*
X0217974Y0133500D01*
X0217410Y0132936D01*
X0217410Y0131618D01*
X0216830Y0131618D01*
X0216291Y0131079D01*
X0215757Y0131612D01*
X0210909Y0131612D01*
X0210265Y0130967D01*
X0210265Y0129846D01*
X0208401Y0129846D01*
X0206502Y0127946D01*
X0203733Y0127946D01*
X0203733Y0128746D01*
X0206702Y0128746D01*
X0206702Y0130696D01*
X0206606Y0131052D01*
X0206422Y0131371D01*
X0206161Y0131632D01*
X0205842Y0131816D01*
X0205486Y0131912D01*
X0203733Y0131912D01*
X0203733Y0128746D01*
X0202933Y0128746D01*
X0202933Y0127946D01*
X0199965Y0127946D01*
X0199965Y0126581D01*
X0199965Y0127247D02*
X0192637Y0127247D01*
X0193061Y0128045D02*
X0202933Y0128045D01*
X0202933Y0128746D02*
X0199965Y0128746D01*
X0199965Y0130696D01*
X0200060Y0131052D01*
X0200245Y0131371D01*
X0200505Y0131632D01*
X0200824Y0131816D01*
X0201180Y0131912D01*
X0202933Y0131912D01*
X0202933Y0128746D01*
X0202933Y0128844D02*
X0203733Y0128844D01*
X0203733Y0129642D02*
X0202933Y0129642D01*
X0202933Y0130441D02*
X0203733Y0130441D01*
X0203733Y0131239D02*
X0202933Y0131239D01*
X0200168Y0131239D02*
X0193293Y0131239D01*
X0193427Y0130441D02*
X0199965Y0130441D01*
X0199965Y0129642D02*
X0188733Y0129642D01*
X0187933Y0129642D02*
X0183133Y0129642D01*
X0183233Y0129600D02*
X0183233Y0129599D01*
X0183359Y0128806D01*
X0183607Y0128042D01*
X0183971Y0127327D01*
X0184443Y0126678D01*
X0184540Y0126581D01*
X0183874Y0126581D01*
X0182628Y0127826D01*
X0183133Y0129045D01*
X0183133Y0130955D01*
X0182403Y0132719D01*
X0181622Y0133500D01*
X0184621Y0133500D01*
X0184443Y0133322D01*
X0183971Y0132673D01*
X0183607Y0131958D01*
X0183359Y0131194D01*
X0183233Y0130401D01*
X0183233Y0130400D01*
X0187933Y0130400D01*
X0187933Y0129600D01*
X0183233Y0129600D01*
X0183353Y0128844D02*
X0183050Y0128844D01*
X0182719Y0128045D02*
X0183606Y0128045D01*
X0183208Y0127247D02*
X0184030Y0127247D01*
X0180562Y0125650D02*
X0180374Y0125650D01*
X0183133Y0130441D02*
X0183240Y0130441D01*
X0183374Y0131239D02*
X0183016Y0131239D01*
X0182685Y0132038D02*
X0183648Y0132038D01*
X0184090Y0132836D02*
X0182285Y0132836D01*
X0192577Y0132836D02*
X0217410Y0132836D01*
X0217410Y0132038D02*
X0193019Y0132038D01*
X0193314Y0128844D02*
X0199965Y0128844D01*
X0203733Y0128045D02*
X0206600Y0128045D01*
X0206702Y0128844D02*
X0207399Y0128844D01*
X0206702Y0129642D02*
X0208197Y0129642D01*
X0206702Y0130441D02*
X0210265Y0130441D01*
X0210537Y0131239D02*
X0206498Y0131239D01*
X0216130Y0131239D02*
X0216451Y0131239D01*
X0227073Y0130119D02*
X0230715Y0130119D01*
X0230833Y0130000D01*
X0233114Y0128844D02*
X0233848Y0128844D01*
X0233848Y0129642D02*
X0233383Y0129642D01*
X0233383Y0130441D02*
X0233848Y0130441D01*
X0233848Y0131239D02*
X0233080Y0131239D01*
X0232402Y0132038D02*
X0233848Y0132038D01*
X0233848Y0132836D02*
X0229256Y0132836D01*
X0229256Y0132038D02*
X0229265Y0132038D01*
X0232485Y0128045D02*
X0233848Y0128045D01*
X0233848Y0127247D02*
X0230208Y0127247D01*
X0231006Y0126448D02*
X0233848Y0126448D01*
X0233848Y0125650D02*
X0231805Y0125650D01*
X0232604Y0124851D02*
X0234072Y0124851D01*
X0233402Y0124053D02*
X0266833Y0124053D01*
X0266833Y0124851D02*
X0262594Y0124851D01*
X0262819Y0125650D02*
X0266833Y0125650D01*
X0266833Y0126448D02*
X0262819Y0126448D01*
X0262819Y0127247D02*
X0266833Y0127247D01*
X0266682Y0128045D02*
X0262819Y0128045D01*
X0255895Y0128045D02*
X0240772Y0128045D01*
X0240772Y0127247D02*
X0255895Y0127247D01*
X0255895Y0126448D02*
X0240772Y0126448D01*
X0240772Y0125650D02*
X0255895Y0125650D01*
X0256119Y0124851D02*
X0240547Y0124851D01*
X0234201Y0123254D02*
X0266833Y0123254D01*
X0266833Y0122456D02*
X0234999Y0122456D01*
X0235798Y0121657D02*
X0266833Y0121657D01*
X0279752Y0125650D02*
X0286198Y0125650D01*
X0285163Y0126448D02*
X0281080Y0126448D01*
X0281838Y0127247D02*
X0284543Y0127247D01*
X0284180Y0128045D02*
X0282169Y0128045D01*
X0282433Y0128844D02*
X0283982Y0128844D01*
X0284027Y0130441D02*
X0282381Y0130441D01*
X0282433Y0129642D02*
X0287933Y0129642D01*
X0287933Y0128844D02*
X0288733Y0128844D01*
X0288733Y0129642D02*
X0294233Y0129642D01*
X0294233Y0128844D02*
X0292684Y0128844D01*
X0292487Y0128045D02*
X0294498Y0128045D01*
X0294829Y0127247D02*
X0292123Y0127247D01*
X0291504Y0126448D02*
X0295587Y0126448D01*
X0296915Y0125650D02*
X0290468Y0125650D01*
X0288733Y0125650D02*
X0287933Y0125650D01*
X0287933Y0126448D02*
X0288733Y0126448D01*
X0288733Y0127247D02*
X0287933Y0127247D01*
X0287933Y0128045D02*
X0288733Y0128045D01*
X0292639Y0130441D02*
X0294285Y0130441D01*
X0294616Y0131239D02*
X0292385Y0131239D01*
X0291928Y0132038D02*
X0295073Y0132038D01*
X0295871Y0132836D02*
X0291220Y0132836D01*
X0285447Y0132836D02*
X0280795Y0132836D01*
X0281594Y0132038D02*
X0284738Y0132038D01*
X0284281Y0131239D02*
X0282051Y0131239D01*
X0299752Y0125650D02*
X0321833Y0125650D01*
X0321833Y0126448D02*
X0301080Y0126448D01*
X0301838Y0127247D02*
X0321833Y0127247D01*
X0321833Y0128045D02*
X0302169Y0128045D01*
X0302433Y0128844D02*
X0321833Y0128844D01*
X0321833Y0129642D02*
X0302433Y0129642D01*
X0302381Y0130441D02*
X0321833Y0130441D01*
X0321833Y0131239D02*
X0302051Y0131239D01*
X0301594Y0132038D02*
X0321833Y0132038D01*
X0321833Y0132836D02*
X0300795Y0132836D01*
X0255895Y0132836D02*
X0240772Y0132836D01*
X0240772Y0132038D02*
X0255895Y0132038D01*
X0255895Y0131239D02*
X0240772Y0131239D01*
X0240772Y0130441D02*
X0255895Y0130441D01*
X0255895Y0129642D02*
X0240772Y0129642D01*
X0240772Y0128844D02*
X0255895Y0128844D01*
X0227073Y0123260D02*
X0227073Y0119881D01*
X0216719Y0110114D02*
X0214333Y0112500D01*
X0209180Y0112500D01*
X0212445Y0111000D02*
X0213712Y0111000D01*
X0215219Y0109493D01*
X0215219Y0108009D01*
X0212779Y0108009D01*
X0212403Y0107633D01*
X0212347Y0107730D01*
X0212087Y0107990D01*
X0211767Y0108175D01*
X0211411Y0108270D01*
X0203615Y0108270D01*
X0203615Y0103786D01*
X0202815Y0103786D01*
X0202815Y0108270D01*
X0195019Y0108270D01*
X0194663Y0108175D01*
X0194344Y0107990D01*
X0194083Y0107730D01*
X0194027Y0107633D01*
X0193691Y0107970D01*
X0176756Y0107970D01*
X0176111Y0107326D01*
X0176111Y0106120D01*
X0159925Y0106120D01*
X0159925Y0107306D01*
X0159281Y0107950D01*
X0155811Y0107950D01*
X0155166Y0107306D01*
X0155166Y0106120D01*
X0152305Y0106120D01*
X0149924Y0108500D01*
X0188955Y0108500D01*
X0194523Y0114069D01*
X0198922Y0114069D01*
X0198922Y0112900D01*
X0202087Y0112900D01*
X0202087Y0112100D01*
X0202887Y0112100D01*
X0202887Y0109131D01*
X0204837Y0109131D01*
X0205193Y0109227D01*
X0205512Y0109411D01*
X0205772Y0109672D01*
X0205957Y0109991D01*
X0205966Y0110025D01*
X0206559Y0109431D01*
X0211801Y0109431D01*
X0212445Y0110076D01*
X0212445Y0111000D01*
X0212445Y0110478D02*
X0214234Y0110478D01*
X0215033Y0109679D02*
X0212049Y0109679D01*
X0211927Y0108082D02*
X0215219Y0108082D01*
X0215219Y0108881D02*
X0189336Y0108881D01*
X0190134Y0109679D02*
X0199197Y0109679D01*
X0199201Y0109672D02*
X0199462Y0109411D01*
X0199781Y0109227D01*
X0200137Y0109131D01*
X0202087Y0109131D01*
X0202087Y0112100D01*
X0198922Y0112100D01*
X0198922Y0110347D01*
X0199017Y0109991D01*
X0199201Y0109672D01*
X0198922Y0110478D02*
X0190933Y0110478D01*
X0191731Y0111276D02*
X0198922Y0111276D01*
X0198922Y0112075D02*
X0192530Y0112075D01*
X0193328Y0112873D02*
X0202087Y0112873D01*
X0202087Y0112075D02*
X0202887Y0112075D01*
X0202887Y0111276D02*
X0202087Y0111276D01*
X0202087Y0110478D02*
X0202887Y0110478D01*
X0202887Y0109679D02*
X0202087Y0109679D01*
X0202815Y0108082D02*
X0203615Y0108082D01*
X0203615Y0107284D02*
X0202815Y0107284D01*
X0202815Y0106485D02*
X0203615Y0106485D01*
X0203615Y0105687D02*
X0202815Y0105687D01*
X0202815Y0104888D02*
X0203615Y0104888D01*
X0203615Y0104090D02*
X0202815Y0104090D01*
X0202815Y0102493D02*
X0203615Y0102493D01*
X0203615Y0101694D02*
X0202815Y0101694D01*
X0202815Y0100896D02*
X0203615Y0100896D01*
X0203615Y0100097D02*
X0202815Y0100097D01*
X0202815Y0099299D02*
X0203615Y0099299D01*
X0212135Y0098500D02*
X0163180Y0098500D01*
X0164668Y0097702D02*
X0212135Y0097702D01*
X0212135Y0096903D02*
X0164945Y0096903D01*
X0164945Y0096105D02*
X0212135Y0096105D01*
X0212135Y0095306D02*
X0164945Y0095306D01*
X0164945Y0094508D02*
X0212135Y0094508D01*
X0212135Y0093709D02*
X0164945Y0093709D01*
X0164945Y0092911D02*
X0212135Y0092911D01*
X0212135Y0092112D02*
X0164481Y0092112D01*
X0168333Y0090000D02*
X0172940Y0085394D01*
X0180696Y0085394D01*
X0183784Y0085724D02*
X0213383Y0085724D01*
X0213383Y0084926D02*
X0183784Y0084926D01*
X0183784Y0084127D02*
X0213395Y0084127D01*
X0213395Y0083329D02*
X0183784Y0083329D01*
X0183364Y0082530D02*
X0213815Y0082530D01*
X0219151Y0082530D02*
X0224233Y0082530D01*
X0224233Y0083329D02*
X0219571Y0083329D01*
X0219571Y0084127D02*
X0224233Y0084127D01*
X0224233Y0084926D02*
X0219819Y0084926D01*
X0219819Y0085724D02*
X0224233Y0085724D01*
X0224233Y0086523D02*
X0219819Y0086523D01*
X0219819Y0087321D02*
X0224233Y0087321D01*
X0224233Y0088120D02*
X0219819Y0088120D01*
X0219819Y0088918D02*
X0224233Y0088918D01*
X0224233Y0089717D02*
X0219819Y0089717D01*
X0213619Y0089717D02*
X0170738Y0089717D01*
X0169939Y0090515D02*
X0212135Y0090515D01*
X0212135Y0091314D02*
X0169141Y0091314D01*
X0168333Y0090000D02*
X0154987Y0090000D01*
X0154987Y0095000D01*
X0158252Y0095306D02*
X0158414Y0095306D01*
X0158414Y0094508D02*
X0158252Y0094508D01*
X0158252Y0093709D02*
X0158414Y0093709D01*
X0158414Y0092911D02*
X0158252Y0092911D01*
X0157789Y0092112D02*
X0158878Y0092112D01*
X0154987Y0090000D02*
X0150164Y0090000D01*
X0147292Y0089717D02*
X0142171Y0089717D01*
X0142284Y0088918D02*
X0141509Y0088918D01*
X0141509Y0088120D02*
X0142284Y0088120D01*
X0142284Y0087321D02*
X0141509Y0087321D01*
X0141509Y0086523D02*
X0137898Y0086523D01*
X0137776Y0087321D02*
X0138725Y0087321D01*
X0138752Y0088120D02*
X0138574Y0088120D01*
X0138333Y0090000D02*
X0140333Y0090000D01*
X0141896Y0091563D01*
X0141896Y0093740D01*
X0139025Y0093709D02*
X0138276Y0093709D01*
X0138419Y0094508D02*
X0139025Y0094508D01*
X0139025Y0095306D02*
X0133733Y0095306D01*
X0133733Y0095400D02*
X0138433Y0095400D01*
X0138433Y0095401D01*
X0138308Y0096194D01*
X0138060Y0096958D01*
X0137695Y0097673D01*
X0137223Y0098322D01*
X0136656Y0098890D01*
X0136006Y0099362D01*
X0135291Y0099726D01*
X0134528Y0099974D01*
X0133735Y0100100D01*
X0133733Y0100100D01*
X0133733Y0095400D01*
X0133733Y0096105D02*
X0132933Y0096105D01*
X0132933Y0096903D02*
X0133733Y0096903D01*
X0133733Y0097702D02*
X0132933Y0097702D01*
X0132933Y0098500D02*
X0133733Y0098500D01*
X0133733Y0099299D02*
X0132933Y0099299D01*
X0132933Y0100097D02*
X0133733Y0100097D01*
X0133752Y0100097D02*
X0148145Y0100097D01*
X0147346Y0100896D02*
X0129322Y0100896D01*
X0129322Y0101694D02*
X0146548Y0101694D01*
X0145749Y0102493D02*
X0129322Y0102493D01*
X0129322Y0103291D02*
X0144951Y0103291D01*
X0144152Y0104090D02*
X0129322Y0104090D01*
X0129322Y0104888D02*
X0143354Y0104888D01*
X0150342Y0108082D02*
X0194503Y0108082D01*
X0188287Y0112075D02*
X0160049Y0112075D01*
X0160225Y0112873D02*
X0189085Y0112873D01*
X0189884Y0113672D02*
X0160225Y0113672D01*
X0160225Y0114470D02*
X0190682Y0114470D01*
X0191481Y0115269D02*
X0160225Y0115269D01*
X0160225Y0116068D02*
X0192280Y0116068D01*
X0193078Y0116866D02*
X0157786Y0116866D01*
X0154866Y0116068D02*
X0144478Y0116068D01*
X0145277Y0115269D02*
X0154866Y0115269D01*
X0154866Y0114470D02*
X0146075Y0114470D01*
X0146874Y0113672D02*
X0154866Y0113672D01*
X0154866Y0112873D02*
X0147672Y0112873D01*
X0148471Y0112075D02*
X0155043Y0112075D01*
X0155166Y0107284D02*
X0151141Y0107284D01*
X0151939Y0106485D02*
X0155166Y0106485D01*
X0159925Y0106485D02*
X0176111Y0106485D01*
X0176111Y0107284D02*
X0159925Y0107284D01*
X0161680Y0100866D02*
X0161680Y0095000D01*
X0158414Y0096105D02*
X0158252Y0096105D01*
X0158252Y0096903D02*
X0158414Y0096903D01*
X0155166Y0098500D02*
X0137046Y0098500D01*
X0137674Y0097702D02*
X0151999Y0097702D01*
X0151722Y0096903D02*
X0138077Y0096903D01*
X0138322Y0096105D02*
X0139359Y0096105D01*
X0144434Y0096105D02*
X0151722Y0096105D01*
X0151722Y0095306D02*
X0144768Y0095306D01*
X0144768Y0094508D02*
X0151722Y0094508D01*
X0151722Y0093709D02*
X0144768Y0093709D01*
X0144768Y0092911D02*
X0151722Y0092911D01*
X0147374Y0092112D02*
X0144768Y0092112D01*
X0144372Y0091314D02*
X0147292Y0091314D01*
X0147292Y0090515D02*
X0142970Y0090515D01*
X0144564Y0088918D02*
X0147292Y0088918D01*
X0147292Y0088120D02*
X0145041Y0088120D01*
X0145068Y0087321D02*
X0168891Y0087321D01*
X0169689Y0086523D02*
X0142284Y0086523D01*
X0142284Y0085724D02*
X0141509Y0085724D01*
X0141509Y0085872D02*
X0141509Y0083285D01*
X0139940Y0083285D01*
X0139584Y0083380D01*
X0139265Y0083565D01*
X0139004Y0083825D01*
X0138820Y0084145D01*
X0138725Y0084501D01*
X0138725Y0085872D01*
X0141509Y0085872D01*
X0141509Y0084926D02*
X0142284Y0084926D01*
X0142284Y0084127D02*
X0141509Y0084127D01*
X0141509Y0083329D02*
X0142284Y0083329D01*
X0144015Y0083329D02*
X0177607Y0083329D01*
X0172085Y0084127D02*
X0144962Y0084127D01*
X0145068Y0084926D02*
X0171286Y0084926D01*
X0170488Y0085724D02*
X0145068Y0085724D01*
X0139778Y0083329D02*
X0137836Y0083329D01*
X0138133Y0084127D02*
X0138830Y0084127D01*
X0138725Y0084926D02*
X0138133Y0084926D01*
X0138133Y0085724D02*
X0138725Y0085724D01*
X0138333Y0090000D02*
X0133333Y0085000D01*
X0136853Y0081732D02*
X0138444Y0081732D01*
X0139242Y0082530D02*
X0137506Y0082530D01*
X0138833Y0080000D02*
X0130833Y0080000D01*
X0127822Y0083012D01*
X0127822Y0110000D01*
X0132071Y0109679D02*
X0134596Y0109679D01*
X0134596Y0108881D02*
X0132071Y0108881D01*
X0132071Y0108082D02*
X0134596Y0108082D01*
X0134596Y0107284D02*
X0132071Y0107284D01*
X0132071Y0106485D02*
X0134596Y0106485D01*
X0134910Y0105687D02*
X0131757Y0105687D01*
X0126322Y0104888D02*
X0118313Y0104888D01*
X0117514Y0104090D02*
X0126322Y0104090D01*
X0126322Y0103291D02*
X0116716Y0103291D01*
X0115917Y0102493D02*
X0126322Y0102493D01*
X0126322Y0101694D02*
X0115119Y0101694D01*
X0114320Y0100896D02*
X0126322Y0100896D01*
X0126322Y0100097D02*
X0113522Y0100097D01*
X0112723Y0099299D02*
X0126322Y0099299D01*
X0126322Y0098500D02*
X0111933Y0098500D01*
X0111933Y0097702D02*
X0126322Y0097702D01*
X0126322Y0096903D02*
X0111933Y0096903D01*
X0111933Y0096105D02*
X0126322Y0096105D01*
X0126322Y0095306D02*
X0111933Y0095306D01*
X0113381Y0094508D02*
X0126322Y0094508D01*
X0126322Y0093709D02*
X0113433Y0093709D01*
X0113433Y0092911D02*
X0126322Y0092911D01*
X0126322Y0092112D02*
X0113433Y0092112D01*
X0113433Y0091314D02*
X0126322Y0091314D01*
X0126322Y0090515D02*
X0113433Y0090515D01*
X0113433Y0089717D02*
X0126322Y0089717D01*
X0126322Y0088918D02*
X0113433Y0088918D01*
X0113433Y0088120D02*
X0126322Y0088120D01*
X0126322Y0087321D02*
X0113433Y0087321D01*
X0113433Y0086523D02*
X0126322Y0086523D01*
X0126322Y0085724D02*
X0113433Y0085724D01*
X0112815Y0084926D02*
X0126322Y0084926D01*
X0126322Y0084127D02*
X0102283Y0084127D01*
X0102283Y0083329D02*
X0126322Y0083329D01*
X0126322Y0082530D02*
X0102283Y0082530D01*
X0102283Y0081732D02*
X0126980Y0081732D01*
X0127779Y0080933D02*
X0102283Y0080933D01*
X0102283Y0080134D02*
X0128577Y0080134D01*
X0129376Y0079336D02*
X0102283Y0079336D01*
X0102283Y0078537D02*
X0130083Y0078537D01*
X0129284Y0077739D02*
X0102283Y0077739D01*
X0102283Y0076940D02*
X0128942Y0076940D01*
X0128611Y0076142D02*
X0102283Y0076142D01*
X0102283Y0075343D02*
X0106335Y0075343D01*
X0104968Y0074545D02*
X0102283Y0074545D01*
X0102283Y0073746D02*
X0104152Y0073746D01*
X0103614Y0072948D02*
X0102283Y0072948D01*
X0102283Y0072149D02*
X0103251Y0072149D01*
X0103030Y0071351D02*
X0102283Y0071351D01*
X0102283Y0084926D02*
X0103852Y0084926D01*
X0103233Y0085724D02*
X0102283Y0085724D01*
X0102283Y0086523D02*
X0103233Y0086523D01*
X0103233Y0087321D02*
X0102283Y0087321D01*
X0102283Y0088120D02*
X0103233Y0088120D01*
X0103233Y0088918D02*
X0102283Y0088918D01*
X0102283Y0089717D02*
X0103233Y0089717D01*
X0103233Y0090515D02*
X0102283Y0090515D01*
X0102283Y0091314D02*
X0103233Y0091314D01*
X0103233Y0092112D02*
X0102283Y0092112D01*
X0102283Y0092911D02*
X0103233Y0092911D01*
X0103233Y0093709D02*
X0102283Y0093709D01*
X0102283Y0094508D02*
X0103285Y0094508D01*
X0102283Y0095306D02*
X0104733Y0095306D01*
X0104733Y0096105D02*
X0102283Y0096105D01*
X0102283Y0096903D02*
X0104733Y0096903D01*
X0104733Y0097702D02*
X0102550Y0097702D01*
X0103349Y0098500D02*
X0104733Y0098500D01*
X0104733Y0099299D02*
X0104147Y0099299D01*
X0119111Y0105687D02*
X0123886Y0105687D01*
X0132071Y0110478D02*
X0134596Y0110478D01*
X0134596Y0111276D02*
X0132071Y0111276D01*
X0132071Y0112075D02*
X0134596Y0112075D01*
X0134596Y0112873D02*
X0132071Y0112873D01*
X0130374Y0125650D02*
X0136293Y0125650D01*
X0135097Y0126448D02*
X0131570Y0126448D01*
X0132368Y0127247D02*
X0134298Y0127247D01*
X0133948Y0128045D02*
X0132719Y0128045D01*
X0133050Y0128844D02*
X0133617Y0128844D01*
X0133533Y0129642D02*
X0133133Y0129642D01*
X0133133Y0130441D02*
X0133533Y0130441D01*
X0133651Y0131239D02*
X0133016Y0131239D01*
X0132685Y0132038D02*
X0133982Y0132038D01*
X0134381Y0132836D02*
X0132285Y0132836D01*
X0142285Y0132836D02*
X0144381Y0132836D01*
X0143982Y0132038D02*
X0142685Y0132038D01*
X0143016Y0131239D02*
X0143651Y0131239D01*
X0143533Y0130441D02*
X0143133Y0130441D01*
X0143133Y0129642D02*
X0143533Y0129642D01*
X0143617Y0128844D02*
X0143050Y0128844D01*
X0142719Y0128045D02*
X0143948Y0128045D01*
X0144298Y0127247D02*
X0142368Y0127247D01*
X0141570Y0126448D02*
X0145097Y0126448D01*
X0146293Y0125650D02*
X0140374Y0125650D01*
X0194127Y0113672D02*
X0198922Y0113672D01*
X0205777Y0109679D02*
X0206311Y0109679D01*
X0216719Y0110114D02*
X0216719Y0098898D01*
X0213619Y0088918D02*
X0171537Y0088918D01*
X0172335Y0088120D02*
X0177889Y0088120D01*
X0177607Y0087321D02*
X0173134Y0087321D01*
X0168092Y0088120D02*
X0153036Y0088120D01*
X0139025Y0092112D02*
X0137539Y0092112D01*
X0137526Y0091314D02*
X0136859Y0091314D01*
X0136727Y0090515D02*
X0135765Y0090515D01*
X0135929Y0089717D02*
X0134489Y0089717D01*
X0133733Y0090515D02*
X0132933Y0090515D01*
X0132933Y0091314D02*
X0133733Y0091314D01*
X0133733Y0092112D02*
X0132933Y0092112D01*
X0132933Y0092911D02*
X0133733Y0092911D01*
X0133733Y0093709D02*
X0132933Y0093709D01*
X0132933Y0094508D02*
X0133733Y0094508D01*
X0137993Y0092911D02*
X0139025Y0092911D01*
X0132177Y0089717D02*
X0129322Y0089717D01*
X0129322Y0090515D02*
X0130902Y0090515D01*
X0129807Y0091314D02*
X0129322Y0091314D01*
X0129322Y0088918D02*
X0130463Y0088918D01*
X0129665Y0088120D02*
X0129322Y0088120D01*
X0129322Y0098500D02*
X0129621Y0098500D01*
X0129322Y0099299D02*
X0130573Y0099299D01*
X0129322Y0100097D02*
X0132915Y0100097D01*
X0136093Y0099299D02*
X0149182Y0099299D01*
X0161679Y0100866D02*
X0161681Y0100945D01*
X0161686Y0101023D01*
X0161696Y0101101D01*
X0161709Y0101179D01*
X0161726Y0101256D01*
X0161746Y0101332D01*
X0161770Y0101407D01*
X0161797Y0101481D01*
X0161828Y0101553D01*
X0161863Y0101624D01*
X0161901Y0101693D01*
X0161942Y0101760D01*
X0161986Y0101825D01*
X0162033Y0101888D01*
X0162083Y0101949D01*
X0162136Y0102007D01*
X0162192Y0102063D01*
X0162250Y0102116D01*
X0162311Y0102166D01*
X0162374Y0102213D01*
X0162439Y0102257D01*
X0162506Y0102298D01*
X0162575Y0102336D01*
X0162646Y0102371D01*
X0162718Y0102402D01*
X0162792Y0102429D01*
X0162867Y0102453D01*
X0162943Y0102473D01*
X0163020Y0102490D01*
X0163098Y0102503D01*
X0163176Y0102513D01*
X0163254Y0102518D01*
X0163333Y0102520D01*
X0183502Y0088120D02*
X0213619Y0088120D01*
X0213395Y0087321D02*
X0183784Y0087321D01*
X0183784Y0086523D02*
X0213395Y0086523D01*
X0232595Y0081732D02*
X0266459Y0081732D01*
X0260833Y0080000D02*
X0258333Y0080000D01*
X0256833Y0077739D02*
X0232933Y0077739D01*
X0254999Y0076940D02*
X0256833Y0076940D01*
X0256833Y0076142D02*
X0255620Y0076142D01*
X0255883Y0075343D02*
X0256833Y0075343D01*
X0256833Y0074545D02*
X0255883Y0074545D01*
X0255574Y0073746D02*
X0256833Y0073746D01*
X0256833Y0072948D02*
X0254887Y0072948D01*
X0254833Y0072149D02*
X0256833Y0072149D01*
X0255648Y0071351D02*
X0254833Y0071351D01*
X0254833Y0070552D02*
X0255265Y0070552D01*
X0255265Y0069754D02*
X0254833Y0069754D01*
X0254833Y0068955D02*
X0255265Y0068955D01*
X0255265Y0068157D02*
X0254833Y0068157D01*
X0269538Y0077739D02*
X0270973Y0077739D01*
X0199127Y0070552D02*
X0198327Y0070552D01*
X0198327Y0069754D02*
X0199127Y0069754D01*
X0199127Y0068955D02*
X0198327Y0068955D01*
X0168333Y0050000D02*
X0163333Y0045000D01*
X0171719Y0046597D02*
X0172809Y0046597D01*
X0172450Y0047396D02*
X0173608Y0047396D01*
X0183133Y0039410D02*
X0183263Y0039410D01*
X0183422Y0038612D02*
X0182954Y0038612D01*
X0182623Y0037813D02*
X0183724Y0037813D01*
X0184198Y0037015D02*
X0182136Y0037015D01*
X0153733Y0055381D02*
X0142574Y0055381D01*
D32*
X0126833Y0067500D03*
X0124833Y0076000D03*
X0108333Y0059500D03*
X0098333Y0050000D03*
X0183333Y0045000D03*
X0198333Y0049500D03*
X0198333Y0040000D03*
X0268333Y0060000D03*
X0238333Y0073000D03*
X0253333Y0075000D03*
X0268333Y0080000D03*
X0281833Y0099500D03*
X0288333Y0109500D03*
X0246333Y0109000D03*
X0233333Y0115000D03*
X0248333Y0124500D03*
X0230833Y0130000D03*
X0198333Y0130000D03*
X0193333Y0120000D03*
X0195833Y0111500D03*
X0188333Y0094500D03*
X0208333Y0074500D03*
X0216833Y0073000D03*
X0103333Y0097000D03*
X0268333Y0130000D03*
D33*
X0185223Y0103386D02*
X0184357Y0102520D01*
X0163333Y0102520D01*
X0157546Y0102520D01*
X0150814Y0102520D01*
X0143333Y0110000D01*
X0138845Y0110000D01*
X0127822Y0110000D02*
X0118333Y0110000D01*
X0108333Y0100000D01*
X0108333Y0090000D01*
X0118176Y0120000D02*
X0118333Y0120157D01*
D34*
X0228333Y0080000D02*
X0228333Y0065000D01*
X0223333Y0060000D01*
X0168333Y0060000D01*
X0158333Y0060000D01*
X0158333Y0050000D01*
X0158333Y0060000D02*
X0123333Y0060000D01*
X0118333Y0055000D01*
X0118333Y0050000D01*
D35*
X0216483Y0085394D02*
X0216511Y0085396D01*
X0216539Y0085401D01*
X0216567Y0085409D01*
X0216593Y0085421D01*
X0216617Y0085436D01*
X0216639Y0085453D01*
X0216660Y0085474D01*
X0216677Y0085496D01*
X0216692Y0085520D01*
X0216704Y0085546D01*
X0216712Y0085574D01*
X0216717Y0085602D01*
X0216719Y0085630D01*
X0216719Y0098898D01*
D36*
X0216719Y0094449D01*
X0228333Y0094449D01*
X0228885Y0095000D01*
X0228333Y0094449D02*
X0228333Y0080000D01*
M02*
