G75*
%MOIN*%
%OFA0B0*%
%FSLAX25Y25*%
%IPPOS*%
%LPD*%
%AMOC8*
5,1,8,0,0,1.08239X$1,22.5*
%
%ADD10R,0.02559X0.08661*%
%ADD11R,0.04331X0.03937*%
%ADD12R,0.11811X0.05512*%
%ADD13R,0.06299X0.07087*%
%ADD14R,0.03543X0.03150*%
%ADD15R,0.03937X0.04331*%
%ADD16R,0.06000X0.03000*%
%ADD17R,0.03976X0.03976*%
%ADD18R,0.16024X0.06969*%
%ADD19R,0.06969X0.16024*%
%ADD20R,0.04724X0.02165*%
D10*
X0157546Y0110853D03*
X0157546Y0125420D03*
D11*
X0202487Y0125833D03*
X0209180Y0125833D03*
X0171680Y0098333D03*
X0164987Y0098333D03*
X0284987Y0073333D03*
X0291680Y0073333D03*
X0299987Y0073333D03*
X0306680Y0073333D03*
D12*
X0247782Y0103333D03*
X0228885Y0103333D03*
D13*
X0138845Y0118333D03*
X0127822Y0118333D03*
D14*
X0146896Y0102073D03*
X0155164Y0098333D03*
X0146896Y0094593D03*
D15*
X0168333Y0086680D03*
X0168333Y0079987D03*
X0238333Y0079987D03*
X0248333Y0079987D03*
X0248333Y0086680D03*
X0238333Y0086680D03*
D16*
X0277333Y0065833D03*
X0299333Y0065833D03*
X0299333Y0050833D03*
X0277333Y0050833D03*
D17*
X0216483Y0080696D03*
X0198727Y0080696D03*
X0189711Y0080696D03*
X0180696Y0080696D03*
X0180696Y0089711D03*
X0180696Y0098727D03*
X0216483Y0098727D03*
D18*
X0203215Y0116719D03*
X0185223Y0116719D03*
D19*
X0216719Y0112231D03*
D20*
X0148215Y0079593D03*
X0158452Y0079593D03*
X0158452Y0083333D03*
X0158452Y0087073D03*
X0148215Y0087073D03*
M02*
