G75*
%MOIN*%
%OFA0B0*%
%FSLAX25Y25*%
%IPPOS*%
%LPD*%
%AMOC8*
5,1,8,0,0,1.08239X$1,22.5*
%
%ADD10R,0.03359X0.09461*%
%ADD11R,0.05131X0.04737*%
%ADD12R,0.12611X0.06312*%
%ADD13C,0.08400*%
%ADD14R,0.08400X0.08400*%
%ADD15R,0.07099X0.07887*%
%ADD16R,0.05524X0.08674*%
%ADD17R,0.03162X0.06115*%
%ADD18R,0.08800X0.08800*%
%ADD19C,0.08800*%
%ADD20C,0.08200*%
%ADD21R,0.04343X0.03950*%
%ADD22R,0.04737X0.05131*%
%ADD23C,0.06800*%
%ADD24C,0.13800*%
%ADD25R,0.04343X0.04737*%
%ADD26R,0.04776X0.04776*%
%ADD27R,0.16824X0.07769*%
%ADD28R,0.07769X0.16824*%
%ADD29R,0.05524X0.02965*%
%ADD30R,0.02965X0.05524*%
D10*
X0157546Y0102520D03*
X0157546Y0117087D03*
D11*
X0202487Y0112500D03*
X0209180Y0112500D03*
X0161680Y0095000D03*
X0154987Y0095000D03*
X0284987Y0067500D03*
X0291680Y0067500D03*
X0291680Y0060000D03*
X0284987Y0060000D03*
D12*
X0247782Y0095000D03*
X0228885Y0095000D03*
D13*
X0098491Y0120000D03*
D14*
X0118176Y0120000D03*
D15*
X0127822Y0110000D03*
X0138845Y0110000D03*
D16*
X0237310Y0129469D03*
X0259357Y0129469D03*
D17*
X0254239Y0115000D03*
X0250302Y0115000D03*
X0246365Y0115000D03*
X0242428Y0115000D03*
D18*
X0108333Y0090000D03*
D19*
X0108333Y0070315D03*
D20*
X0098333Y0040000D03*
X0108333Y0040000D03*
X0118333Y0040000D03*
X0128333Y0040000D03*
X0138333Y0040000D03*
X0148333Y0040000D03*
X0158333Y0040000D03*
X0168333Y0040000D03*
X0178333Y0040000D03*
X0188333Y0040000D03*
X0178333Y0050000D03*
X0168333Y0050000D03*
X0158333Y0050000D03*
X0148333Y0050000D03*
X0138333Y0050000D03*
X0128333Y0050000D03*
X0118333Y0050000D03*
X0108333Y0050000D03*
X0133333Y0075000D03*
X0133333Y0085000D03*
X0133333Y0095000D03*
X0128333Y0130000D03*
X0118333Y0130000D03*
X0108333Y0130000D03*
X0098333Y0130000D03*
X0138333Y0130000D03*
X0148333Y0130000D03*
X0158333Y0130000D03*
X0168333Y0130000D03*
X0178333Y0130000D03*
X0188333Y0130000D03*
D21*
X0141896Y0093740D03*
X0150164Y0090000D03*
X0141896Y0086260D03*
D22*
X0168333Y0078346D03*
X0168333Y0071654D03*
X0238333Y0068346D03*
X0248333Y0068346D03*
X0258333Y0068346D03*
X0258333Y0061654D03*
X0248333Y0061654D03*
X0238333Y0061654D03*
X0213333Y0121654D03*
X0203333Y0121654D03*
X0203333Y0128346D03*
X0213333Y0128346D03*
D23*
X0278333Y0129500D03*
X0288333Y0129500D03*
X0298333Y0129500D03*
X0298333Y0072500D03*
X0278333Y0072500D03*
D24*
X0262333Y0100000D03*
X0314333Y0100000D03*
D25*
X0296404Y0050650D03*
X0280262Y0050650D03*
X0280262Y0044350D03*
X0296404Y0044350D03*
D26*
X0216483Y0067362D03*
X0198727Y0067362D03*
X0189711Y0067362D03*
X0180696Y0067362D03*
X0180696Y0076378D03*
X0180696Y0085394D03*
X0216483Y0085394D03*
D27*
X0203215Y0103386D03*
X0185223Y0103386D03*
D28*
X0216719Y0098898D03*
D29*
X0153452Y0078740D03*
X0153452Y0075000D03*
X0153452Y0071260D03*
X0143215Y0071260D03*
X0143215Y0078740D03*
D30*
X0219593Y0119881D03*
X0223333Y0119881D03*
X0227073Y0119881D03*
X0227073Y0130119D03*
X0219593Y0130119D03*
M02*
