G75*
%MOIN*%
%OFA0B0*%
%FSLAX25Y25*%
%IPPOS*%
%LPD*%
%AMOC8*
5,1,8,0,0,1.08239X$1,22.5*
%
%ADD10R,0.01457X0.00157*%
%ADD11R,0.03622X0.00157*%
%ADD12R,0.04803X0.00118*%
%ADD13R,0.05669X0.00157*%
%ADD14R,0.06417X0.00157*%
%ADD15R,0.07126X0.00118*%
%ADD16R,0.07756X0.00157*%
%ADD17R,0.08465X0.00157*%
%ADD18R,0.03189X0.00118*%
%ADD19R,0.03346X0.00118*%
%ADD20R,0.02795X0.00157*%
%ADD21R,0.02756X0.00157*%
%ADD22R,0.02638X0.00157*%
%ADD23R,0.02598X0.00157*%
%ADD24R,0.02480X0.00157*%
%ADD25R,0.02323X0.00157*%
%ADD26R,0.02165X0.00118*%
%ADD27R,0.02205X0.00118*%
%ADD28R,0.02205X0.00157*%
%ADD29R,0.02047X0.00157*%
%ADD30R,0.02047X0.00118*%
%ADD31R,0.01890X0.00118*%
%ADD32R,0.01890X0.00157*%
%ADD33R,0.01732X0.00157*%
%ADD34R,0.01929X0.00118*%
%ADD35R,0.01732X0.00118*%
%ADD36R,0.01772X0.00157*%
%ADD37R,0.01614X0.00157*%
%ADD38R,0.01575X0.00118*%
%ADD39R,0.01457X0.00118*%
%ADD40R,0.01299X0.00157*%
%ADD41R,0.01339X0.00118*%
%ADD42R,0.01614X0.00118*%
%ADD43R,0.01181X0.00118*%
%ADD44R,0.01181X0.00157*%
%ADD45R,0.01575X0.00157*%
%ADD46R,0.01142X0.00118*%
%ADD47R,0.01024X0.00157*%
%ADD48R,0.04803X0.00157*%
%ADD49R,0.06850X0.00157*%
%ADD50R,0.01024X0.00118*%
%ADD51R,0.07323X0.00118*%
%ADD52R,0.07717X0.00157*%
%ADD53R,0.08622X0.00157*%
%ADD54R,0.03504X0.00118*%
%ADD55R,0.05236X0.00118*%
%ADD56R,0.03189X0.00157*%
%ADD57R,0.02913X0.00157*%
%ADD58R,0.02008X0.00157*%
%ADD59R,0.02756X0.00118*%
%ADD60R,0.01772X0.00118*%
%ADD61R,0.02165X0.00157*%
%ADD62R,0.00276X0.00118*%
%ADD63R,0.00906X0.00157*%
%ADD64R,0.03386X0.00118*%
%ADD65R,0.01496X0.00157*%
%ADD66R,0.04094X0.00157*%
%ADD67R,0.00866X0.00157*%
%ADD68R,0.01142X0.00157*%
%ADD69R,0.01299X0.00118*%
%ADD70R,0.00551X0.00118*%
%ADD71R,0.00591X0.00157*%
%ADD72R,0.00866X0.00118*%
%ADD73R,0.00591X0.00118*%
%ADD74R,0.00433X0.00157*%
%ADD75R,0.01339X0.00157*%
%ADD76R,0.00984X0.00118*%
%ADD77R,0.00472X0.00118*%
%ADD78R,0.00984X0.00157*%
%ADD79R,0.00748X0.00118*%
%ADD80R,0.00433X0.00118*%
%ADD81R,0.00906X0.00118*%
%ADD82R,0.02638X0.00118*%
%ADD83R,0.00748X0.00157*%
%ADD84R,0.00709X0.00157*%
%ADD85R,0.00709X0.00118*%
%ADD86R,0.03386X0.00157*%
%ADD87R,0.00551X0.00157*%
%ADD88R,0.00472X0.00157*%
%ADD89R,0.00276X0.00157*%
%ADD90R,0.01929X0.00157*%
%ADD91R,0.00118X0.00118*%
%ADD92R,0.03819X0.00157*%
%ADD93R,0.00157X0.00157*%
%ADD94R,0.04055X0.00157*%
%ADD95R,0.00315X0.00157*%
%ADD96R,0.04646X0.00118*%
%ADD97R,0.00157X0.00118*%
%ADD98R,0.02480X0.00118*%
%ADD99R,0.05236X0.00157*%
%ADD100R,0.00118X0.00157*%
%ADD101R,0.04961X0.00157*%
%ADD102R,0.05394X0.00157*%
%ADD103R,0.04094X0.00118*%
%ADD104R,0.00315X0.00118*%
%ADD105R,0.03780X0.00157*%
%ADD106R,0.04252X0.00157*%
%ADD107R,0.03228X0.00157*%
%ADD108R,0.03071X0.00157*%
%ADD109R,0.02913X0.00118*%
%ADD110R,0.02362X0.00118*%
%ADD111R,0.04370X0.00118*%
%ADD112R,0.04370X0.00157*%
%ADD113R,0.02362X0.00157*%
%ADD114R,0.03031X0.00157*%
%ADD115R,0.04409X0.00157*%
%ADD116R,0.03937X0.00118*%
%ADD117R,0.02008X0.00118*%
%ADD118R,0.04646X0.00157*%
%ADD119R,0.05984X0.00157*%
%ADD120R,0.05669X0.00118*%
%ADD121R,0.02323X0.00118*%
%ADD122R,0.12992X0.00118*%
%ADD123R,0.13110X0.00118*%
%ADD124R,0.13583X0.00118*%
%ADD125R,0.13543X0.00118*%
%ADD126R,0.12992X0.00157*%
%ADD127R,0.13110X0.00157*%
%ADD128R,0.13425X0.00157*%
%ADD129R,0.13386X0.00157*%
%ADD130R,0.13268X0.00157*%
%ADD131R,0.12953X0.00157*%
%ADD132R,0.12835X0.00157*%
%ADD133R,0.12677X0.00118*%
%ADD134R,0.12559X0.00157*%
%ADD135R,0.12677X0.00157*%
%ADD136R,0.12402X0.00157*%
%ADD137R,0.12520X0.00157*%
%ADD138R,0.12402X0.00118*%
%ADD139R,0.12362X0.00118*%
%ADD140R,0.12244X0.00157*%
%ADD141R,0.12087X0.00157*%
%ADD142R,0.11969X0.00157*%
%ADD143R,0.11929X0.00157*%
%ADD144R,0.02795X0.00118*%
%ADD145R,0.02598X0.00118*%
%ADD146R,0.10787X0.00157*%
%ADD147R,0.10669X0.00157*%
%ADD148R,0.10512X0.00118*%
%ADD149R,0.06850X0.00118*%
%ADD150R,0.10354X0.00157*%
%ADD151R,0.10197X0.00157*%
%ADD152R,0.10079X0.00118*%
%ADD153R,0.09921X0.00157*%
%ADD154R,0.09764X0.00157*%
%ADD155R,0.09764X0.00118*%
%ADD156R,0.09646X0.00157*%
%ADD157R,0.09488X0.00157*%
%ADD158R,0.09331X0.00157*%
%ADD159R,0.09173X0.00118*%
%ADD160R,0.12126X0.00118*%
%ADD161R,0.12244X0.00118*%
%ADD162R,0.12559X0.00118*%
%ADD163R,0.12835X0.00118*%
%ADD164R,0.13150X0.00157*%
%ADD165R,0.13268X0.00118*%
%ADD166R,0.13425X0.00118*%
%ADD167R,0.13583X0.00157*%
%ADD168R,0.13543X0.00157*%
D10*
X0273601Y0108003D03*
X0273916Y0108436D03*
X0278995Y0107412D03*
X0279900Y0108593D03*
X0281042Y0110207D03*
X0281633Y0110916D03*
X0286160Y0107570D03*
X0286436Y0107412D03*
X0296081Y0111940D03*
X0296357Y0111664D03*
X0296514Y0111507D03*
X0288798Y0115444D03*
X0298995Y0102018D03*
X0297538Y0098081D03*
X0286003Y0094892D03*
X0278562Y0098081D03*
X0275806Y0100286D03*
X0283404Y0100562D03*
X0285294Y0089066D03*
X0284979Y0088908D03*
X0285294Y0087451D03*
X0290255Y0087451D03*
X0291711Y0085995D03*
X0292735Y0086861D03*
X0292577Y0088908D03*
X0298129Y0076231D03*
X0298247Y0076073D03*
D11*
X0278936Y0103042D03*
X0288857Y0115286D03*
D12*
X0288857Y0115148D03*
D13*
X0288857Y0115010D03*
X0276455Y0109184D03*
D14*
X0288916Y0114853D03*
D15*
X0288995Y0114715D03*
D16*
X0288995Y0114577D03*
D17*
X0289073Y0114420D03*
D18*
X0291987Y0114282D03*
D19*
X0286239Y0114282D03*
X0283601Y0101448D03*
X0292223Y0099991D03*
X0284349Y0082196D03*
D20*
X0297026Y0098672D03*
X0292499Y0114144D03*
X0303636Y0115223D03*
X0304227Y0115932D03*
X0305684Y0117703D03*
X0284975Y0121640D03*
X0283951Y0122940D03*
X0283518Y0123373D03*
X0283085Y0123963D03*
X0282928Y0124121D03*
X0281471Y0125853D03*
X0281038Y0126444D03*
X0280605Y0126877D03*
X0278991Y0128766D03*
X0278558Y0129357D03*
X0278125Y0129948D03*
X0277692Y0130381D03*
X0277534Y0130538D03*
X0268203Y0124987D03*
X0267770Y0125420D03*
X0267337Y0126010D03*
X0265881Y0127743D03*
X0265723Y0127900D03*
X0265290Y0128491D03*
X0264857Y0128924D03*
X0263833Y0130223D03*
X0262810Y0131404D03*
X0270251Y0122507D03*
X0270684Y0121916D03*
X0271117Y0121483D03*
D21*
X0270979Y0121640D03*
X0270388Y0122349D03*
X0270113Y0122664D03*
X0269522Y0123373D03*
X0269365Y0123530D03*
X0269089Y0123963D03*
X0268932Y0124121D03*
X0268656Y0124396D03*
X0268499Y0124554D03*
X0268341Y0124829D03*
X0267908Y0125262D03*
X0267475Y0125853D03*
X0267042Y0126286D03*
X0266885Y0126601D03*
X0266609Y0126877D03*
X0266451Y0127034D03*
X0265585Y0128058D03*
X0265428Y0128333D03*
X0264995Y0128766D03*
X0264562Y0129357D03*
X0264404Y0129514D03*
X0264129Y0129790D03*
X0263696Y0130381D03*
X0263538Y0130538D03*
X0262948Y0131247D03*
X0276963Y0131247D03*
X0277239Y0130971D03*
X0277396Y0130814D03*
X0277829Y0130223D03*
X0278420Y0129514D03*
X0278696Y0129199D03*
X0279286Y0128491D03*
X0279444Y0128333D03*
X0279719Y0127900D03*
X0279877Y0127743D03*
X0280152Y0127467D03*
X0280310Y0127310D03*
X0280467Y0127034D03*
X0280900Y0126601D03*
X0281333Y0126010D03*
X0281766Y0125577D03*
X0281924Y0125262D03*
X0282199Y0124987D03*
X0282357Y0124829D03*
X0282633Y0124396D03*
X0283223Y0123806D03*
X0283381Y0123530D03*
X0283814Y0123097D03*
X0284089Y0122664D03*
X0284247Y0122507D03*
X0284404Y0122349D03*
X0284680Y0122073D03*
X0285113Y0121483D03*
X0285270Y0121325D03*
X0285786Y0114144D03*
X0276888Y0108003D03*
X0275156Y0100877D03*
X0303066Y0114475D03*
X0303499Y0115066D03*
X0304365Y0116089D03*
X0279802Y0081034D03*
D22*
X0301042Y0079144D03*
X0277262Y0110207D03*
X0292853Y0113987D03*
X0303125Y0114633D03*
X0303282Y0114790D03*
X0304739Y0116522D03*
X0305014Y0116955D03*
X0305172Y0117113D03*
X0305605Y0117546D03*
X0306038Y0118136D03*
X0306471Y0118727D03*
X0306786Y0119003D03*
X0307062Y0119436D03*
X0307219Y0119593D03*
X0307495Y0119869D03*
X0307652Y0120026D03*
X0307652Y0120184D03*
X0308085Y0120617D03*
X0308676Y0121325D03*
X0308951Y0121640D03*
X0309109Y0121916D03*
X0309266Y0122073D03*
X0309542Y0122349D03*
X0309699Y0122507D03*
X0309975Y0122940D03*
X0310133Y0123097D03*
X0310723Y0123806D03*
X0310999Y0124121D03*
X0311589Y0124829D03*
X0282573Y0124554D03*
X0281117Y0126286D03*
X0279660Y0128058D03*
X0278912Y0128924D03*
X0278203Y0129790D03*
X0267692Y0125577D03*
X0266235Y0127310D03*
X0263322Y0130814D03*
X0263164Y0130971D03*
X0269148Y0123806D03*
X0269739Y0123097D03*
X0269896Y0122940D03*
X0270605Y0122073D03*
X0271196Y0121325D03*
D23*
X0266963Y0126444D03*
X0266097Y0127467D03*
X0264640Y0129199D03*
X0264050Y0129948D03*
X0276885Y0131404D03*
X0281845Y0125420D03*
X0284759Y0121916D03*
X0303853Y0115499D03*
X0304010Y0115656D03*
X0304444Y0116247D03*
X0304877Y0116680D03*
X0305467Y0117388D03*
X0305900Y0117979D03*
X0306333Y0118412D03*
X0306333Y0118570D03*
X0306924Y0119160D03*
X0307948Y0120459D03*
X0308381Y0120892D03*
X0308381Y0121050D03*
X0308814Y0121483D03*
X0310861Y0123963D03*
X0311294Y0124554D03*
X0311727Y0124987D03*
X0285432Y0113987D03*
X0285432Y0082491D03*
D24*
X0285924Y0082648D03*
X0290451Y0085404D03*
X0290609Y0085562D03*
X0302105Y0074459D03*
X0299073Y0099538D03*
X0299073Y0099696D03*
X0299073Y0099853D03*
X0283601Y0101743D03*
X0275294Y0100719D03*
X0274428Y0101152D03*
X0274703Y0109026D03*
X0283325Y0108751D03*
X0293247Y0113829D03*
X0309778Y0122664D03*
X0310329Y0123373D03*
X0310487Y0123530D03*
X0311235Y0124396D03*
D25*
X0285136Y0113829D03*
X0281357Y0105089D03*
X0274192Y0101310D03*
X0295333Y0094459D03*
X0284113Y0088475D03*
X0289940Y0084971D03*
X0290097Y0085129D03*
X0292420Y0086270D03*
X0286593Y0082924D03*
X0275963Y0083790D03*
X0300885Y0078987D03*
D26*
X0300806Y0078849D03*
X0289585Y0084676D03*
X0288995Y0084243D03*
X0288562Y0098534D03*
X0293522Y0113692D03*
D27*
X0284920Y0113692D03*
X0287243Y0083219D03*
D28*
X0286967Y0083081D03*
X0289448Y0084538D03*
X0277636Y0080010D03*
X0302125Y0080168D03*
X0295274Y0094302D03*
X0288424Y0096940D03*
X0293818Y0113554D03*
D29*
X0294014Y0113396D03*
X0284566Y0113554D03*
X0284408Y0113396D03*
X0276810Y0108160D03*
X0281337Y0105247D03*
X0275510Y0100562D03*
X0288503Y0083948D03*
X0288345Y0083790D03*
X0288778Y0084105D03*
X0289211Y0084381D03*
X0287755Y0083514D03*
X0277558Y0079853D03*
X0302203Y0080010D03*
X0304877Y0127310D03*
X0304877Y0127467D03*
X0304877Y0127743D03*
X0304877Y0127900D03*
X0304877Y0128058D03*
X0304877Y0128333D03*
X0304877Y0128491D03*
X0304877Y0128766D03*
X0304877Y0128924D03*
X0304877Y0129199D03*
X0304877Y0129357D03*
X0304877Y0129514D03*
X0304877Y0129790D03*
X0304877Y0129948D03*
X0304877Y0130223D03*
X0304877Y0130381D03*
X0304877Y0130538D03*
X0304877Y0130814D03*
X0304877Y0130971D03*
X0304877Y0131247D03*
X0304877Y0131404D03*
D30*
X0304877Y0131542D03*
X0304877Y0131109D03*
X0304877Y0130676D03*
X0304877Y0130085D03*
X0304877Y0129652D03*
X0304877Y0129062D03*
X0304877Y0128629D03*
X0304877Y0128196D03*
X0304877Y0127605D03*
X0304877Y0127172D03*
X0294329Y0113259D03*
X0284566Y0108298D03*
X0274329Y0108888D03*
X0274054Y0101448D03*
X0275668Y0084676D03*
D31*
X0284487Y0088613D03*
X0292361Y0088613D03*
X0277479Y0079715D03*
X0299644Y0075345D03*
X0299054Y0101448D03*
X0273699Y0101881D03*
X0284172Y0113259D03*
X0315900Y0118865D03*
X0315900Y0119298D03*
X0315900Y0119731D03*
X0315900Y0120322D03*
X0315900Y0120755D03*
X0315900Y0121188D03*
X0315900Y0121778D03*
X0315900Y0122211D03*
X0315900Y0122802D03*
X0315900Y0123235D03*
X0315900Y0123668D03*
X0315900Y0124259D03*
X0315900Y0124692D03*
X0315900Y0125125D03*
X0315900Y0125715D03*
X0315900Y0126148D03*
X0315900Y0126739D03*
X0315900Y0127172D03*
X0315900Y0127605D03*
X0315900Y0128196D03*
X0315900Y0128629D03*
X0315900Y0129062D03*
X0315900Y0129652D03*
X0315900Y0130085D03*
X0315900Y0130676D03*
X0315900Y0131109D03*
X0315900Y0131542D03*
D32*
X0315900Y0131404D03*
X0315900Y0131247D03*
X0315900Y0130971D03*
X0315900Y0130814D03*
X0315900Y0130538D03*
X0315900Y0130381D03*
X0315900Y0130223D03*
X0315900Y0129948D03*
X0315900Y0129790D03*
X0315900Y0129514D03*
X0315900Y0129357D03*
X0315900Y0129199D03*
X0315900Y0128924D03*
X0315900Y0128766D03*
X0315900Y0128491D03*
X0315900Y0128333D03*
X0315900Y0128058D03*
X0315900Y0127900D03*
X0315900Y0127743D03*
X0315900Y0127467D03*
X0315900Y0127310D03*
X0315900Y0127034D03*
X0315900Y0126877D03*
X0315900Y0126601D03*
X0315900Y0126444D03*
X0315900Y0126286D03*
X0315900Y0126010D03*
X0315900Y0125853D03*
X0315900Y0125577D03*
X0315900Y0125420D03*
X0315900Y0125262D03*
X0315900Y0124987D03*
X0315900Y0124829D03*
X0315900Y0124554D03*
X0315900Y0124396D03*
X0315900Y0124121D03*
X0315900Y0123963D03*
X0315900Y0123806D03*
X0315900Y0123530D03*
X0315900Y0123373D03*
X0315900Y0123097D03*
X0315900Y0122940D03*
X0315900Y0122664D03*
X0315900Y0122507D03*
X0315900Y0122349D03*
X0315900Y0122073D03*
X0315900Y0121916D03*
X0315900Y0121640D03*
X0315900Y0121483D03*
X0315900Y0121325D03*
X0315900Y0121050D03*
X0315900Y0120892D03*
X0315900Y0120617D03*
X0315900Y0120459D03*
X0315900Y0120184D03*
X0315900Y0120026D03*
X0315900Y0119869D03*
X0315900Y0119593D03*
X0315900Y0119436D03*
X0315900Y0119160D03*
X0315900Y0119003D03*
X0315900Y0118727D03*
X0315900Y0118570D03*
X0294841Y0112963D03*
X0294526Y0113121D03*
X0283739Y0112963D03*
X0284920Y0108160D03*
X0279093Y0103475D03*
X0273699Y0101743D03*
X0295274Y0094144D03*
X0299054Y0101585D03*
X0285353Y0087727D03*
X0284054Y0086585D03*
X0277322Y0079577D03*
D33*
X0299290Y0075483D03*
X0300589Y0078711D03*
X0302203Y0079853D03*
X0286888Y0089932D03*
X0286731Y0089774D03*
X0285274Y0108003D03*
X0283385Y0112688D03*
X0283975Y0113121D03*
X0295196Y0112688D03*
X0295353Y0112530D03*
D34*
X0294979Y0112825D03*
D35*
X0283542Y0112825D03*
X0283818Y0101881D03*
X0283385Y0100424D03*
X0275668Y0100424D03*
X0285274Y0087589D03*
X0277125Y0079282D03*
D36*
X0277262Y0079420D03*
X0279152Y0080877D03*
X0290097Y0087294D03*
X0284546Y0094302D03*
X0283680Y0095759D03*
X0297381Y0098396D03*
X0274192Y0108751D03*
X0283247Y0112530D03*
X0301908Y0079577D03*
X0298995Y0075640D03*
D37*
X0298483Y0075916D03*
X0276908Y0078987D03*
X0284034Y0086428D03*
X0284782Y0088751D03*
X0291475Y0085837D03*
X0292499Y0088751D03*
X0297459Y0098239D03*
X0299073Y0101743D03*
X0288129Y0098672D03*
X0278640Y0107570D03*
X0273995Y0108593D03*
X0281278Y0110483D03*
X0281711Y0111073D03*
X0281987Y0111349D03*
X0282144Y0111507D03*
X0282302Y0111664D03*
X0282577Y0111940D03*
X0282735Y0112097D03*
X0283010Y0112373D03*
X0295570Y0112373D03*
X0295845Y0112097D03*
D38*
X0295707Y0112235D03*
X0282873Y0112235D03*
X0282440Y0111802D03*
X0281416Y0105385D03*
X0291337Y0085699D03*
D39*
X0291396Y0088180D03*
X0302184Y0079715D03*
X0276672Y0078849D03*
X0298562Y0099991D03*
X0281475Y0110778D03*
X0281199Y0110345D03*
X0273759Y0108298D03*
X0296199Y0111802D03*
D40*
X0296593Y0111349D03*
X0296869Y0111073D03*
X0297026Y0110916D03*
X0288404Y0106113D03*
X0288562Y0105955D03*
X0287696Y0106703D03*
X0287262Y0106979D03*
X0286948Y0107136D03*
X0280688Y0108160D03*
X0280097Y0108436D03*
X0273680Y0108160D03*
X0273404Y0107570D03*
X0278207Y0102176D03*
X0287971Y0098829D03*
X0287971Y0096782D03*
X0283601Y0096349D03*
X0277617Y0097215D03*
X0287105Y0090207D03*
X0287262Y0090365D03*
X0285215Y0087294D03*
X0284782Y0086861D03*
X0290609Y0087727D03*
X0290885Y0087885D03*
X0291199Y0088042D03*
X0291633Y0088318D03*
X0293089Y0089341D03*
X0276593Y0083357D03*
X0278640Y0080601D03*
X0276593Y0078711D03*
X0297026Y0077097D03*
X0297459Y0076664D03*
X0300373Y0077530D03*
X0300373Y0077688D03*
X0300373Y0077963D03*
X0300373Y0078554D03*
X0300530Y0077097D03*
X0300530Y0076940D03*
X0300806Y0076231D03*
X0298916Y0102176D03*
D41*
X0287400Y0106841D03*
X0280392Y0108298D03*
X0273542Y0107865D03*
X0296731Y0111211D03*
X0276455Y0083652D03*
D42*
X0286948Y0090070D03*
X0295136Y0094007D03*
X0299507Y0099400D03*
X0299073Y0101881D03*
X0285491Y0107865D03*
X0281869Y0111211D03*
X0298759Y0075778D03*
D43*
X0300747Y0076369D03*
X0300589Y0076802D03*
X0301022Y0075778D03*
X0301455Y0075345D03*
X0296810Y0077392D03*
X0296062Y0078259D03*
X0295629Y0078849D03*
X0301613Y0080306D03*
X0292873Y0087156D03*
X0283818Y0086133D03*
X0283385Y0085699D03*
X0282951Y0085266D03*
X0274644Y0086723D03*
X0274644Y0089203D03*
X0275668Y0092117D03*
X0276101Y0093140D03*
X0276534Y0094007D03*
X0286455Y0095030D03*
X0278581Y0097944D03*
X0280904Y0099991D03*
X0281770Y0101014D03*
X0283385Y0099991D03*
X0289211Y0105385D03*
X0288778Y0105818D03*
X0281062Y0107865D03*
X0273188Y0106841D03*
X0273030Y0106408D03*
X0297085Y0110778D03*
X0300589Y0097944D03*
X0302046Y0095030D03*
D44*
X0297085Y0097373D03*
X0299723Y0099105D03*
X0299999Y0098829D03*
X0300156Y0098672D03*
X0300747Y0097806D03*
X0287912Y0096625D03*
X0279605Y0096625D03*
X0277125Y0095759D03*
X0277125Y0095601D03*
X0276967Y0095168D03*
X0276534Y0094144D03*
X0276377Y0093711D03*
X0276101Y0093003D03*
X0275944Y0092845D03*
X0275944Y0092688D03*
X0275510Y0091822D03*
X0275077Y0090798D03*
X0274920Y0090365D03*
X0274644Y0086585D03*
X0275077Y0084971D03*
X0276534Y0083514D03*
X0276967Y0082491D03*
X0283542Y0085837D03*
X0285707Y0089341D03*
X0287322Y0090522D03*
X0291849Y0088475D03*
X0293306Y0089499D03*
X0300747Y0082058D03*
X0295196Y0079577D03*
X0296219Y0077963D03*
X0296652Y0077530D03*
X0300589Y0076664D03*
X0301022Y0075916D03*
X0301180Y0075640D03*
X0275944Y0100129D03*
X0281495Y0105522D03*
X0280314Y0106703D03*
X0279881Y0106979D03*
X0279605Y0107136D03*
X0280904Y0108003D03*
X0281337Y0107727D03*
X0288936Y0105680D03*
X0289369Y0105247D03*
X0297243Y0110483D03*
X0297243Y0110640D03*
X0297518Y0110207D03*
X0297676Y0109892D03*
X0297833Y0109617D03*
X0273463Y0107727D03*
X0273188Y0106979D03*
X0273030Y0106270D03*
X0273030Y0106113D03*
D45*
X0279526Y0108751D03*
X0280983Y0110050D03*
X0281416Y0110640D03*
X0277046Y0079144D03*
D46*
X0276829Y0082786D03*
X0276672Y0083219D03*
X0296357Y0077825D03*
X0300294Y0078259D03*
X0275215Y0091093D03*
X0275373Y0091526D03*
X0275806Y0092550D03*
X0286160Y0101448D03*
X0272892Y0103928D03*
X0272892Y0104361D03*
X0272892Y0104951D03*
X0273325Y0107274D03*
X0297381Y0110345D03*
X0299861Y0098967D03*
X0300885Y0097510D03*
D47*
X0300944Y0097373D03*
X0301101Y0097215D03*
X0301259Y0096940D03*
X0301377Y0096625D03*
X0301534Y0096349D03*
X0301534Y0096192D03*
X0301692Y0095916D03*
X0301849Y0095759D03*
X0301849Y0095601D03*
X0301967Y0095325D03*
X0301967Y0095168D03*
X0302125Y0094892D03*
X0302125Y0094735D03*
X0302282Y0094459D03*
X0302282Y0094302D03*
X0302282Y0094144D03*
X0302400Y0093711D03*
X0302400Y0093436D03*
X0302400Y0093278D03*
X0302400Y0093003D03*
X0302400Y0092845D03*
X0302400Y0092688D03*
X0302400Y0092412D03*
X0302400Y0092255D03*
X0302400Y0091979D03*
X0302400Y0091822D03*
X0302400Y0091664D03*
X0302400Y0091388D03*
X0302400Y0091231D03*
X0302282Y0090798D03*
X0302282Y0090522D03*
X0302125Y0090207D03*
X0302125Y0089932D03*
X0301967Y0089499D03*
X0301849Y0089066D03*
X0301692Y0088751D03*
X0301377Y0087727D03*
X0301259Y0087294D03*
X0300944Y0086270D03*
X0300668Y0084971D03*
X0300510Y0083948D03*
X0300510Y0083790D03*
X0300510Y0083514D03*
X0300510Y0083357D03*
X0300510Y0083081D03*
X0300510Y0082924D03*
X0300668Y0082648D03*
X0300668Y0082491D03*
X0300668Y0082333D03*
X0300825Y0081900D03*
X0300825Y0081625D03*
X0300944Y0081467D03*
X0300944Y0081192D03*
X0301101Y0081034D03*
X0301101Y0080877D03*
X0301259Y0080601D03*
X0301377Y0080444D03*
X0296140Y0078121D03*
X0295865Y0078554D03*
X0295707Y0078711D03*
X0295550Y0078987D03*
X0295432Y0079144D03*
X0295274Y0079420D03*
X0294841Y0080168D03*
X0294684Y0080444D03*
X0294684Y0080601D03*
X0294526Y0080877D03*
X0294526Y0081034D03*
X0294408Y0081192D03*
X0294251Y0081625D03*
X0294093Y0081900D03*
X0294093Y0082058D03*
X0293975Y0082333D03*
X0293975Y0082491D03*
X0293818Y0082924D03*
X0293660Y0083357D03*
X0293660Y0083514D03*
X0293503Y0083790D03*
X0293503Y0083948D03*
X0293503Y0084105D03*
X0293385Y0084381D03*
X0293385Y0084538D03*
X0293227Y0084971D03*
X0293227Y0085129D03*
X0293227Y0085404D03*
X0293070Y0085562D03*
X0293070Y0085837D03*
X0293070Y0085995D03*
X0292951Y0087294D03*
X0293503Y0089774D03*
X0293660Y0089932D03*
X0293975Y0090365D03*
X0289290Y0087018D03*
X0282873Y0085129D03*
X0282282Y0084538D03*
X0282164Y0084381D03*
X0281849Y0084105D03*
X0281692Y0083948D03*
X0281573Y0083790D03*
X0281259Y0083514D03*
X0281140Y0083357D03*
X0280550Y0082648D03*
X0280392Y0082491D03*
X0280235Y0082333D03*
X0279959Y0082058D03*
X0277203Y0081900D03*
X0277046Y0082333D03*
X0276888Y0082648D03*
X0275156Y0084814D03*
X0274999Y0085129D03*
X0274999Y0085404D03*
X0274841Y0085562D03*
X0274841Y0085837D03*
X0274723Y0085995D03*
X0274723Y0086270D03*
X0274723Y0086428D03*
X0274566Y0086861D03*
X0274566Y0087018D03*
X0274566Y0087294D03*
X0274566Y0087451D03*
X0274566Y0087727D03*
X0274566Y0087885D03*
X0274566Y0088042D03*
X0274566Y0088318D03*
X0274566Y0088475D03*
X0274566Y0088751D03*
X0274566Y0088908D03*
X0274566Y0089066D03*
X0274723Y0089341D03*
X0274723Y0089499D03*
X0274723Y0089774D03*
X0274841Y0090207D03*
X0274999Y0090522D03*
X0275156Y0090955D03*
X0275432Y0091664D03*
X0275589Y0091979D03*
X0275747Y0092255D03*
X0276455Y0093869D03*
X0277046Y0095325D03*
X0277203Y0095916D03*
X0277322Y0096192D03*
X0277322Y0096349D03*
X0277322Y0096625D03*
X0277479Y0096782D03*
X0280550Y0098239D03*
X0280550Y0098396D03*
X0280825Y0099538D03*
X0280825Y0099696D03*
X0280825Y0099853D03*
X0273266Y0102018D03*
X0273109Y0102176D03*
X0273109Y0102333D03*
X0272951Y0102609D03*
X0272951Y0102766D03*
X0272951Y0103042D03*
X0272951Y0103199D03*
X0272951Y0103475D03*
X0272951Y0103633D03*
X0272951Y0103790D03*
X0272951Y0105522D03*
X0272951Y0105680D03*
X0272951Y0105955D03*
X0273109Y0106546D03*
X0273109Y0106703D03*
X0273266Y0107136D03*
X0280550Y0106546D03*
X0281692Y0107412D03*
X0281573Y0107570D03*
X0282282Y0106979D03*
X0282597Y0106703D03*
X0282715Y0106546D03*
X0280235Y0104656D03*
X0289448Y0105089D03*
X0289723Y0104814D03*
X0298778Y0105955D03*
X0298778Y0106113D03*
X0298778Y0106270D03*
X0298778Y0106546D03*
X0298778Y0106703D03*
X0298621Y0106979D03*
X0298621Y0107136D03*
X0298621Y0107412D03*
X0298463Y0107727D03*
X0298463Y0108003D03*
X0298345Y0108436D03*
X0298188Y0108593D03*
X0298188Y0108751D03*
X0298030Y0109026D03*
X0298030Y0109184D03*
X0297912Y0109459D03*
X0297597Y0110050D03*
X0298778Y0103042D03*
X0298778Y0102766D03*
X0298778Y0102609D03*
X0298621Y0101310D03*
X0298621Y0101152D03*
X0298463Y0100719D03*
X0298463Y0100129D03*
X0300510Y0098081D03*
X0300825Y0097648D03*
X0297164Y0097215D03*
X0296888Y0097648D03*
X0294684Y0098672D03*
X0289133Y0097215D03*
X0286652Y0095168D03*
X0282164Y0095168D03*
X0294684Y0094735D03*
X0275865Y0078121D03*
D48*
X0281259Y0081467D03*
X0277636Y0110050D03*
D49*
X0278227Y0109892D03*
X0292711Y0125262D03*
X0292711Y0125420D03*
X0292711Y0125577D03*
X0292711Y0125853D03*
X0292711Y0126010D03*
X0292711Y0126286D03*
X0292711Y0126444D03*
X0292711Y0126601D03*
X0292711Y0126877D03*
X0292711Y0127034D03*
D50*
X0297755Y0109755D03*
X0297912Y0109322D03*
X0298188Y0108888D03*
X0298345Y0108298D03*
X0298463Y0107865D03*
X0298621Y0107274D03*
X0298778Y0106408D03*
X0298778Y0102904D03*
X0298778Y0102471D03*
X0300235Y0098534D03*
X0301101Y0097077D03*
X0301377Y0096487D03*
X0301692Y0096054D03*
X0301849Y0095463D03*
X0302125Y0094597D03*
X0302282Y0094007D03*
X0302400Y0093573D03*
X0302400Y0093140D03*
X0302400Y0092550D03*
X0302400Y0092117D03*
X0302400Y0091526D03*
X0302400Y0091093D03*
X0302282Y0090660D03*
X0302125Y0090070D03*
X0301967Y0089636D03*
X0301849Y0089203D03*
X0301692Y0088613D03*
X0301534Y0088180D03*
X0301101Y0086723D03*
X0300825Y0085699D03*
X0293385Y0084676D03*
X0293227Y0085266D03*
X0293070Y0085699D03*
X0289881Y0085699D03*
X0289566Y0087156D03*
X0293385Y0089636D03*
X0287558Y0090660D03*
X0282440Y0095030D03*
X0277322Y0096487D03*
X0277203Y0096054D03*
X0277046Y0095463D03*
X0276888Y0095030D03*
X0276298Y0093573D03*
X0274999Y0090660D03*
X0274841Y0090070D03*
X0274723Y0089636D03*
X0274566Y0088613D03*
X0274566Y0088180D03*
X0274566Y0087589D03*
X0274566Y0087156D03*
X0274723Y0086133D03*
X0274841Y0085699D03*
X0274999Y0085266D03*
X0277046Y0082196D03*
X0277203Y0081762D03*
X0280117Y0082196D03*
X0281416Y0083652D03*
X0282007Y0084243D03*
X0293818Y0082786D03*
X0294408Y0081329D03*
X0294841Y0080306D03*
X0295117Y0079715D03*
X0295432Y0079282D03*
X0300944Y0081329D03*
X0300825Y0081762D03*
X0300668Y0082196D03*
X0300510Y0083219D03*
X0300510Y0083652D03*
X0301259Y0080739D03*
X0276022Y0078259D03*
X0287676Y0096487D03*
X0287833Y0098967D03*
X0283306Y0099400D03*
X0280550Y0098534D03*
X0280392Y0102904D03*
X0280117Y0106841D03*
X0281849Y0107274D03*
X0282440Y0106841D03*
X0289566Y0104951D03*
X0294526Y0098534D03*
X0296888Y0097510D03*
X0272951Y0102904D03*
X0272951Y0103337D03*
X0272951Y0105385D03*
X0272951Y0105818D03*
D51*
X0277991Y0109755D03*
D52*
X0278070Y0109617D03*
D53*
X0278207Y0109459D03*
D54*
X0281199Y0109322D03*
D55*
X0276396Y0109322D03*
D56*
X0281790Y0109184D03*
X0300885Y0075050D03*
D57*
X0301180Y0079420D03*
X0284999Y0082333D03*
X0295353Y0099105D03*
X0283542Y0101585D03*
X0282361Y0109026D03*
D58*
X0284113Y0108436D03*
X0278719Y0109026D03*
X0287617Y0083357D03*
D59*
X0301101Y0079282D03*
X0278936Y0103337D03*
X0282873Y0108888D03*
X0302908Y0114337D03*
X0304955Y0116818D03*
X0284837Y0121778D03*
X0283656Y0123235D03*
X0282790Y0124259D03*
X0281176Y0126148D03*
X0280743Y0126739D03*
X0278853Y0129062D03*
X0277987Y0130085D03*
X0268066Y0125125D03*
X0266018Y0127605D03*
X0265152Y0128629D03*
X0263105Y0131109D03*
X0262672Y0131542D03*
X0269955Y0122802D03*
X0270546Y0122211D03*
X0270822Y0121778D03*
D60*
X0279152Y0108888D03*
X0292577Y0086723D03*
D61*
X0292499Y0086428D03*
X0277774Y0080168D03*
X0275885Y0083948D03*
X0275885Y0084105D03*
X0275727Y0084381D03*
X0275727Y0084538D03*
X0283759Y0108593D03*
D62*
X0276672Y0108298D03*
X0277262Y0101448D03*
X0277696Y0101448D03*
X0277105Y0101014D03*
X0277105Y0100424D03*
X0277105Y0099991D03*
X0278877Y0099400D03*
X0279152Y0098967D03*
X0279585Y0098967D03*
X0279743Y0099400D03*
X0279743Y0099991D03*
X0279310Y0101448D03*
X0281790Y0098967D03*
X0281790Y0097510D03*
X0283680Y0097510D03*
X0284703Y0097510D03*
X0285136Y0097077D03*
X0284703Y0098534D03*
X0284546Y0098967D03*
X0285136Y0098967D03*
X0288483Y0086133D03*
X0298995Y0085266D03*
X0299428Y0086133D03*
D63*
X0300885Y0085995D03*
X0300885Y0085837D03*
X0301318Y0087451D03*
X0301908Y0089341D03*
X0302341Y0090955D03*
X0294467Y0091231D03*
X0294467Y0091388D03*
X0294034Y0090522D03*
X0293010Y0087727D03*
X0293010Y0087451D03*
X0290097Y0085995D03*
X0289073Y0086861D03*
X0286160Y0088042D03*
X0287617Y0090798D03*
X0288050Y0091664D03*
X0288050Y0091822D03*
X0294467Y0094892D03*
X0287617Y0096349D03*
X0281633Y0095759D03*
X0281633Y0100877D03*
X0278286Y0101743D03*
X0278286Y0102333D03*
X0281199Y0105955D03*
X0283680Y0105522D03*
X0285136Y0103199D03*
X0290097Y0104223D03*
X0298404Y0100562D03*
X0298404Y0100286D03*
X0299861Y0100719D03*
X0299861Y0100877D03*
X0298404Y0108160D03*
X0282656Y0084971D03*
X0276239Y0084814D03*
X0276239Y0085129D03*
X0277262Y0081625D03*
X0277262Y0081467D03*
X0277262Y0081192D03*
X0277262Y0081034D03*
X0277262Y0080877D03*
X0277262Y0080601D03*
D64*
X0277046Y0107865D03*
D65*
X0285865Y0107727D03*
X0281928Y0101152D03*
D66*
X0296377Y0098829D03*
X0283227Y0088042D03*
X0277125Y0107727D03*
D67*
X0275353Y0107570D03*
X0275235Y0107412D03*
X0280038Y0104499D03*
X0279605Y0104066D03*
X0279290Y0103633D03*
X0280629Y0102766D03*
X0281495Y0105680D03*
X0281062Y0106113D03*
X0280904Y0106270D03*
X0282085Y0107136D03*
X0282951Y0106270D03*
X0283109Y0106113D03*
X0283227Y0105955D03*
X0283542Y0105680D03*
X0283818Y0105247D03*
X0283975Y0105089D03*
X0284251Y0104656D03*
X0284566Y0104223D03*
X0285707Y0102018D03*
X0285865Y0101743D03*
X0286022Y0101585D03*
X0290235Y0104066D03*
X0290392Y0103790D03*
X0289959Y0104499D03*
X0289802Y0104656D03*
X0298542Y0107570D03*
X0299723Y0101310D03*
X0298542Y0100877D03*
X0298109Y0099262D03*
X0298109Y0099105D03*
X0296652Y0096625D03*
X0294329Y0095325D03*
X0294762Y0092688D03*
X0294605Y0091979D03*
X0294605Y0091822D03*
X0294329Y0090955D03*
X0294172Y0090798D03*
X0293896Y0090207D03*
X0290392Y0086585D03*
X0290235Y0086270D03*
X0289959Y0085837D03*
X0293306Y0084814D03*
X0293739Y0083081D03*
X0293896Y0082648D03*
X0294329Y0081467D03*
X0300589Y0084105D03*
X0300589Y0084381D03*
X0300589Y0084538D03*
X0300589Y0084814D03*
X0300747Y0085129D03*
X0300747Y0085404D03*
X0300747Y0085562D03*
X0301022Y0086428D03*
X0301022Y0086585D03*
X0301180Y0086861D03*
X0301180Y0087018D03*
X0301455Y0087885D03*
X0301455Y0088042D03*
X0301613Y0088318D03*
X0301613Y0088475D03*
X0301770Y0088908D03*
X0302046Y0089774D03*
X0302203Y0090365D03*
X0287912Y0091231D03*
X0287912Y0091388D03*
X0287755Y0090955D03*
X0287046Y0089341D03*
X0286022Y0087885D03*
X0284841Y0087885D03*
X0283385Y0087727D03*
X0283385Y0087451D03*
X0283385Y0087294D03*
X0283542Y0087018D03*
X0283542Y0086861D03*
X0282518Y0084814D03*
X0280904Y0083081D03*
X0280747Y0082924D03*
X0277125Y0082058D03*
X0277125Y0080444D03*
X0282085Y0095325D03*
X0283385Y0096782D03*
X0283227Y0097373D03*
X0280747Y0097373D03*
X0280629Y0098672D03*
X0280747Y0099262D03*
X0279290Y0097215D03*
X0289211Y0097373D03*
X0289211Y0098239D03*
X0294329Y0098396D03*
D68*
X0289073Y0098396D03*
X0283680Y0095601D03*
X0280609Y0097215D03*
X0276829Y0094892D03*
X0276829Y0094735D03*
X0276672Y0094459D03*
X0276672Y0094302D03*
X0276239Y0093436D03*
X0276239Y0093278D03*
X0275806Y0092412D03*
X0275215Y0091231D03*
X0274782Y0089932D03*
X0281199Y0088475D03*
X0283680Y0085995D03*
X0283247Y0085562D03*
X0283089Y0085404D03*
X0276829Y0082924D03*
X0276672Y0083081D03*
X0276239Y0078396D03*
X0295924Y0078396D03*
X0296514Y0077688D03*
X0296948Y0077255D03*
X0300294Y0078121D03*
X0300294Y0078396D03*
X0300451Y0077255D03*
X0300885Y0076073D03*
X0301318Y0075483D03*
X0302341Y0093869D03*
X0301318Y0096782D03*
X0300451Y0098239D03*
X0300294Y0098396D03*
X0298837Y0102333D03*
X0289073Y0105522D03*
X0273325Y0107412D03*
X0272892Y0105247D03*
X0272892Y0105089D03*
X0272892Y0104814D03*
X0272892Y0104656D03*
X0272892Y0104499D03*
X0272892Y0104223D03*
X0272892Y0104066D03*
D69*
X0279388Y0107274D03*
X0286672Y0107274D03*
X0287971Y0106408D03*
X0288995Y0097077D03*
X0285491Y0089203D03*
X0290451Y0087589D03*
X0292932Y0089203D03*
X0285058Y0087156D03*
X0278798Y0080739D03*
X0297302Y0076802D03*
X0297892Y0076369D03*
X0300373Y0077392D03*
X0300373Y0077825D03*
X0302262Y0074322D03*
D70*
X0280471Y0089636D03*
X0279448Y0092550D03*
X0280904Y0097510D03*
X0276967Y0097944D03*
X0276534Y0101881D03*
X0283385Y0103337D03*
X0285865Y0099400D03*
X0291259Y0101881D03*
X0275077Y0107274D03*
D71*
X0274940Y0107136D03*
X0274782Y0106979D03*
X0274625Y0106546D03*
X0274507Y0106270D03*
X0274507Y0106113D03*
X0274349Y0105680D03*
X0274192Y0105247D03*
X0274192Y0105089D03*
X0274192Y0104814D03*
X0274192Y0104656D03*
X0274192Y0104499D03*
X0274192Y0103633D03*
X0274192Y0103475D03*
X0274192Y0103199D03*
X0274192Y0103042D03*
X0274192Y0102766D03*
X0274192Y0102609D03*
X0274349Y0102176D03*
X0274349Y0102018D03*
X0276672Y0102176D03*
X0277105Y0102766D03*
X0277696Y0102018D03*
X0277262Y0101152D03*
X0276239Y0099853D03*
X0277538Y0098829D03*
X0277538Y0098672D03*
X0276829Y0098239D03*
X0277105Y0097806D03*
X0277262Y0097648D03*
X0278562Y0096625D03*
X0278562Y0096349D03*
X0278562Y0096192D03*
X0278562Y0095916D03*
X0278562Y0095759D03*
X0278562Y0095601D03*
X0278719Y0094892D03*
X0278877Y0094302D03*
X0279152Y0093436D03*
X0279310Y0093003D03*
X0279310Y0092845D03*
X0279585Y0092255D03*
X0279585Y0091979D03*
X0279743Y0091822D03*
X0279743Y0091664D03*
X0279900Y0091388D03*
X0279900Y0091231D03*
X0280018Y0090955D03*
X0280018Y0090798D03*
X0280176Y0090522D03*
X0280176Y0090365D03*
X0280176Y0090207D03*
X0280333Y0089932D03*
X0280333Y0089774D03*
X0280609Y0089066D03*
X0280766Y0088908D03*
X0280766Y0088751D03*
X0276081Y0087018D03*
X0276081Y0086861D03*
X0276081Y0086585D03*
X0276081Y0086428D03*
X0276081Y0086270D03*
X0276081Y0085995D03*
X0276081Y0085837D03*
X0275215Y0083514D03*
X0298837Y0082491D03*
X0299270Y0081625D03*
X0299585Y0081192D03*
X0299585Y0081034D03*
X0299703Y0080877D03*
X0299703Y0080601D03*
X0299861Y0080444D03*
X0299861Y0080168D03*
X0300018Y0079853D03*
X0300018Y0079577D03*
X0296357Y0094735D03*
X0296514Y0094892D03*
X0296514Y0095168D03*
X0296514Y0095601D03*
X0296514Y0095759D03*
X0296514Y0095916D03*
X0296514Y0096192D03*
X0296514Y0096349D03*
X0297105Y0097806D03*
X0293877Y0097373D03*
X0293877Y0097215D03*
X0293877Y0096940D03*
X0293877Y0096782D03*
X0294034Y0096192D03*
X0289231Y0096782D03*
X0289073Y0095759D03*
X0289073Y0095601D03*
X0288916Y0094892D03*
X0287774Y0097215D03*
X0287774Y0097373D03*
X0287774Y0097648D03*
X0287774Y0097806D03*
X0287774Y0098081D03*
X0287774Y0098239D03*
X0287774Y0098396D03*
X0287459Y0099538D03*
X0287184Y0100129D03*
X0285412Y0100286D03*
X0284113Y0102176D03*
X0283837Y0102609D03*
X0283089Y0103790D03*
X0282814Y0104223D03*
X0282656Y0104499D03*
X0282499Y0104656D03*
X0282381Y0104814D03*
X0279310Y0102766D03*
X0279743Y0102333D03*
X0278877Y0102018D03*
X0281042Y0102176D03*
X0281357Y0101585D03*
X0281199Y0100129D03*
X0282656Y0100286D03*
X0283247Y0097806D03*
X0282499Y0096192D03*
X0281357Y0096192D03*
X0281042Y0096782D03*
X0280766Y0098081D03*
X0279900Y0097648D03*
X0279585Y0097373D03*
X0279152Y0098239D03*
X0284979Y0095168D03*
X0285136Y0095325D03*
X0285412Y0095601D03*
X0289349Y0098672D03*
X0289349Y0098829D03*
X0291396Y0101152D03*
X0291396Y0101310D03*
X0291121Y0102333D03*
X0290963Y0102609D03*
D72*
X0298542Y0101014D03*
X0298109Y0099400D03*
X0297085Y0097077D03*
X0294762Y0092550D03*
X0294329Y0091093D03*
X0294172Y0090660D03*
X0293739Y0090070D03*
X0288188Y0092117D03*
X0288345Y0092550D03*
X0287755Y0091093D03*
X0286298Y0088180D03*
X0282361Y0084676D03*
X0281062Y0083219D03*
X0280629Y0082786D03*
X0275235Y0083652D03*
X0293581Y0083652D03*
X0293739Y0083219D03*
X0294172Y0081762D03*
X0294605Y0080739D03*
X0300589Y0082786D03*
X0300589Y0084243D03*
X0300589Y0084676D03*
X0300747Y0085266D03*
X0301180Y0087156D03*
X0284684Y0095030D03*
X0280747Y0099400D03*
X0276101Y0099991D03*
X0273030Y0102471D03*
X0281337Y0105818D03*
X0282794Y0106408D03*
X0283385Y0105818D03*
X0298699Y0106841D03*
X0298857Y0105818D03*
D73*
X0291396Y0101448D03*
X0287459Y0099400D03*
X0287774Y0097944D03*
X0287774Y0097510D03*
X0286003Y0098967D03*
X0285570Y0099991D03*
X0285294Y0100424D03*
X0284546Y0099991D03*
X0280766Y0097944D03*
X0279743Y0097510D03*
X0278562Y0096487D03*
X0278562Y0095463D03*
X0281199Y0096487D03*
X0282656Y0096054D03*
X0284546Y0096054D03*
X0285294Y0095463D03*
X0285727Y0096054D03*
X0288640Y0093573D03*
X0296514Y0095030D03*
X0296514Y0096054D03*
X0297105Y0097944D03*
X0294034Y0097944D03*
X0293877Y0097510D03*
X0293877Y0097077D03*
X0280018Y0101881D03*
X0279585Y0102471D03*
X0276829Y0102471D03*
X0274192Y0102904D03*
X0274192Y0103337D03*
X0274192Y0104951D03*
X0274349Y0105818D03*
X0274782Y0106841D03*
X0283680Y0102904D03*
X0276396Y0099400D03*
X0276672Y0098534D03*
X0277420Y0098967D03*
X0279585Y0092117D03*
X0279743Y0091526D03*
X0279900Y0091093D03*
X0280018Y0090660D03*
X0280333Y0090070D03*
X0280609Y0089203D03*
X0276081Y0086723D03*
X0276081Y0086133D03*
X0298995Y0082196D03*
X0299428Y0081329D03*
X0299703Y0080739D03*
X0299861Y0080306D03*
X0300018Y0079715D03*
D74*
X0299349Y0081467D03*
X0299073Y0082058D03*
X0298916Y0082333D03*
X0298759Y0082648D03*
X0298759Y0082924D03*
X0298640Y0083081D03*
X0298640Y0083357D03*
X0298640Y0083514D03*
X0298640Y0083790D03*
X0298640Y0083948D03*
X0298759Y0084381D03*
X0298759Y0084538D03*
X0298916Y0084971D03*
X0298916Y0085129D03*
X0299073Y0085404D03*
X0288562Y0086270D03*
X0288562Y0086428D03*
X0276318Y0087727D03*
X0276318Y0087885D03*
X0276160Y0087451D03*
X0276160Y0087294D03*
X0275136Y0083357D03*
X0279231Y0093278D03*
X0279073Y0093711D03*
X0278955Y0094144D03*
X0278798Y0094459D03*
X0278798Y0094735D03*
X0278640Y0095168D03*
X0278640Y0095325D03*
X0281987Y0096940D03*
X0282144Y0096625D03*
X0281869Y0097373D03*
X0281711Y0098081D03*
X0281711Y0098239D03*
X0281711Y0098396D03*
X0281869Y0099105D03*
X0281869Y0099262D03*
X0281987Y0099538D03*
X0282144Y0099853D03*
X0280530Y0100129D03*
X0280530Y0100286D03*
X0280412Y0100562D03*
X0280412Y0100719D03*
X0280412Y0100877D03*
X0280255Y0101152D03*
X0280255Y0101310D03*
X0280097Y0101585D03*
X0280097Y0101743D03*
X0279822Y0102176D03*
X0279231Y0101585D03*
X0279073Y0101743D03*
X0279388Y0101310D03*
X0278207Y0101310D03*
X0277341Y0101585D03*
X0277184Y0101310D03*
X0276475Y0101585D03*
X0276475Y0101743D03*
X0276593Y0102018D03*
X0276751Y0102333D03*
X0276318Y0101310D03*
X0276318Y0101152D03*
X0276318Y0099696D03*
X0276318Y0099538D03*
X0276475Y0099262D03*
X0276475Y0099105D03*
X0276593Y0098829D03*
X0276593Y0098672D03*
X0276751Y0098396D03*
X0276908Y0098081D03*
X0277774Y0098396D03*
X0277932Y0098239D03*
X0278365Y0098829D03*
X0279231Y0098396D03*
X0279507Y0098829D03*
X0279664Y0099262D03*
X0280097Y0098081D03*
X0278207Y0100129D03*
X0277184Y0099696D03*
X0277184Y0099538D03*
X0277341Y0099262D03*
X0277341Y0099105D03*
X0274270Y0102333D03*
X0274113Y0103790D03*
X0274113Y0104066D03*
X0274113Y0104223D03*
X0274270Y0105522D03*
X0274428Y0105955D03*
X0274703Y0106703D03*
X0284625Y0099853D03*
X0284782Y0099696D03*
X0284900Y0099538D03*
X0285058Y0099262D03*
X0285058Y0099105D03*
X0285215Y0098672D03*
X0285924Y0099105D03*
X0285924Y0099262D03*
X0285806Y0099538D03*
X0285806Y0099696D03*
X0285648Y0099853D03*
X0285491Y0100129D03*
X0285215Y0100562D03*
X0286081Y0098829D03*
X0286081Y0098672D03*
X0286081Y0098396D03*
X0286081Y0098239D03*
X0286081Y0098081D03*
X0286081Y0097806D03*
X0286081Y0097648D03*
X0286081Y0097373D03*
X0286081Y0097215D03*
X0286081Y0096940D03*
X0285924Y0096782D03*
X0285924Y0096625D03*
X0285806Y0096349D03*
X0285806Y0096192D03*
X0285648Y0095916D03*
X0285491Y0095759D03*
X0284782Y0096192D03*
X0284782Y0096349D03*
X0285058Y0096625D03*
X0285058Y0096782D03*
X0285215Y0097215D03*
X0284467Y0096782D03*
X0284349Y0096625D03*
X0296593Y0095325D03*
D75*
X0299644Y0099262D03*
X0288266Y0106270D03*
X0287833Y0106546D03*
X0280392Y0104814D03*
X0285944Y0089499D03*
X0284920Y0087018D03*
X0283896Y0086270D03*
X0292794Y0087018D03*
X0292794Y0089066D03*
X0278503Y0080444D03*
X0276455Y0078554D03*
X0297164Y0076940D03*
X0297755Y0076507D03*
X0300668Y0076507D03*
D76*
X0276751Y0094597D03*
X0280688Y0098967D03*
X0298916Y0103337D03*
X0298916Y0103928D03*
X0298916Y0104361D03*
X0298916Y0104951D03*
X0298916Y0105385D03*
X0280688Y0106408D03*
D77*
X0274566Y0106408D03*
X0277479Y0101881D03*
X0278503Y0096054D03*
D78*
X0280688Y0098829D03*
X0280688Y0099105D03*
X0275294Y0091388D03*
X0294979Y0080010D03*
X0294979Y0079853D03*
X0298916Y0103199D03*
X0298916Y0103475D03*
X0298916Y0103633D03*
X0298916Y0103790D03*
X0298916Y0104066D03*
X0298916Y0104223D03*
X0298916Y0104499D03*
X0298916Y0104656D03*
X0298916Y0104814D03*
X0298916Y0105089D03*
X0298916Y0105247D03*
X0298916Y0105522D03*
X0298916Y0105680D03*
D79*
X0299782Y0101014D03*
X0299940Y0100424D03*
X0298050Y0098967D03*
X0293955Y0096487D03*
X0294113Y0096054D03*
X0294388Y0095030D03*
X0289152Y0096054D03*
X0289152Y0096487D03*
X0288995Y0095463D03*
X0288995Y0095030D03*
X0288562Y0093140D03*
X0287971Y0091526D03*
X0292932Y0088180D03*
X0290609Y0087156D03*
X0290451Y0086723D03*
X0290176Y0086133D03*
X0294546Y0091526D03*
X0287696Y0097077D03*
X0289428Y0098967D03*
X0289428Y0099400D03*
X0289428Y0099991D03*
X0291475Y0101014D03*
X0291042Y0102471D03*
X0290609Y0103337D03*
X0285491Y0102471D03*
X0285215Y0102904D03*
X0285058Y0103337D03*
X0283759Y0105385D03*
X0282735Y0104361D03*
X0279822Y0104361D03*
X0277341Y0102904D03*
X0281278Y0101881D03*
X0278207Y0099400D03*
X0277341Y0097510D03*
X0276160Y0085699D03*
X0276160Y0085266D03*
D80*
X0276160Y0087156D03*
X0276160Y0087589D03*
X0276475Y0088180D03*
X0275018Y0083219D03*
X0279231Y0093140D03*
X0279073Y0093573D03*
X0278955Y0094007D03*
X0278798Y0094597D03*
X0278640Y0095030D03*
X0282302Y0096487D03*
X0281711Y0097944D03*
X0281711Y0098534D03*
X0282302Y0099991D03*
X0283325Y0098967D03*
X0283325Y0098534D03*
X0284900Y0099400D03*
X0286081Y0098534D03*
X0286081Y0097944D03*
X0286081Y0097510D03*
X0286081Y0097077D03*
X0285924Y0096487D03*
X0284900Y0096487D03*
X0284625Y0097077D03*
X0284192Y0096487D03*
X0280097Y0097944D03*
X0279388Y0098534D03*
X0278798Y0098534D03*
X0277617Y0098534D03*
X0277184Y0099400D03*
X0276475Y0098967D03*
X0279664Y0100424D03*
X0279507Y0101014D03*
X0280255Y0101448D03*
X0280412Y0101014D03*
X0280412Y0100424D03*
X0278955Y0101881D03*
X0276475Y0101448D03*
X0276318Y0101014D03*
X0274270Y0102471D03*
X0274113Y0103928D03*
X0274113Y0104361D03*
X0274270Y0105385D03*
X0296593Y0095463D03*
X0297892Y0097944D03*
X0298759Y0084676D03*
X0298759Y0084243D03*
X0298640Y0083652D03*
X0298640Y0083219D03*
X0298759Y0082786D03*
X0299192Y0081762D03*
D81*
X0294034Y0082196D03*
X0293444Y0084243D03*
X0300885Y0086133D03*
X0301318Y0087589D03*
X0293010Y0087589D03*
X0286593Y0088613D03*
X0277262Y0081329D03*
X0277262Y0080739D03*
X0298404Y0100424D03*
X0299861Y0099991D03*
X0290097Y0104361D03*
X0284113Y0104951D03*
D82*
X0281357Y0104951D03*
X0303715Y0115361D03*
X0304148Y0115794D03*
X0304581Y0116385D03*
X0305329Y0117251D03*
X0305762Y0117841D03*
X0306196Y0118274D03*
X0306629Y0118865D03*
X0307062Y0119298D03*
X0308243Y0120755D03*
X0308518Y0121188D03*
X0310566Y0123668D03*
X0311432Y0124692D03*
X0284030Y0122802D03*
X0271353Y0121188D03*
X0264778Y0129062D03*
X0263912Y0130085D03*
X0276747Y0131542D03*
X0277455Y0130676D03*
D83*
X0284192Y0104814D03*
X0284625Y0104066D03*
X0285215Y0103042D03*
X0285491Y0102333D03*
X0285648Y0102176D03*
X0284192Y0102018D03*
X0284034Y0102333D03*
X0283759Y0102766D03*
X0283601Y0103042D03*
X0283168Y0103633D03*
X0281121Y0102018D03*
X0281278Y0101743D03*
X0280688Y0102609D03*
X0279664Y0104223D03*
X0281554Y0100719D03*
X0281278Y0100286D03*
X0284192Y0100286D03*
X0285058Y0100719D03*
X0287105Y0100286D03*
X0287538Y0099262D03*
X0287696Y0099105D03*
X0289428Y0099105D03*
X0289428Y0099262D03*
X0289428Y0099538D03*
X0289428Y0099696D03*
X0289428Y0099853D03*
X0291475Y0100719D03*
X0291475Y0100877D03*
X0290609Y0103475D03*
X0290451Y0103633D03*
X0299782Y0101152D03*
X0299940Y0100562D03*
X0299940Y0100286D03*
X0299940Y0100129D03*
X0294113Y0098081D03*
X0293955Y0097806D03*
X0293955Y0097648D03*
X0293955Y0096625D03*
X0293955Y0096349D03*
X0294113Y0095916D03*
X0294388Y0095168D03*
X0296869Y0096940D03*
X0289152Y0096625D03*
X0289152Y0096349D03*
X0289152Y0096192D03*
X0289152Y0095916D03*
X0288995Y0095325D03*
X0288995Y0095168D03*
X0288562Y0093436D03*
X0288562Y0093278D03*
X0288129Y0091979D03*
X0287105Y0089499D03*
X0286672Y0088751D03*
X0286514Y0088475D03*
X0290451Y0086861D03*
X0290609Y0087018D03*
X0292932Y0087885D03*
X0292932Y0088042D03*
X0292932Y0088318D03*
X0292932Y0088475D03*
X0294546Y0091664D03*
X0287105Y0095601D03*
X0287105Y0095759D03*
X0283601Y0096192D03*
X0281711Y0095601D03*
X0281554Y0095916D03*
X0281278Y0096349D03*
X0281121Y0096625D03*
X0276160Y0085562D03*
X0276160Y0085404D03*
X0276318Y0084971D03*
X0299940Y0080010D03*
D84*
X0290314Y0086428D03*
X0286377Y0088318D03*
X0286810Y0088908D03*
X0286810Y0089066D03*
X0288266Y0092255D03*
X0288266Y0092412D03*
X0288424Y0092688D03*
X0288424Y0092845D03*
X0288424Y0093003D03*
X0288699Y0093711D03*
X0288699Y0093869D03*
X0288857Y0094302D03*
X0288857Y0094459D03*
X0288857Y0094735D03*
X0287243Y0095916D03*
X0287400Y0096192D03*
X0286810Y0095325D03*
X0282873Y0095916D03*
X0280825Y0097806D03*
X0278503Y0098396D03*
X0277479Y0097373D03*
X0281416Y0100562D03*
X0280983Y0102333D03*
X0279369Y0103790D03*
X0282873Y0104066D03*
X0283306Y0103475D03*
X0283463Y0103199D03*
X0284762Y0103790D03*
X0284920Y0103633D03*
X0284920Y0103475D03*
X0285353Y0102766D03*
X0285353Y0102609D03*
X0284329Y0104499D03*
X0290747Y0103199D03*
X0290747Y0103042D03*
X0290904Y0102766D03*
X0291180Y0102176D03*
X0291180Y0102018D03*
X0291337Y0101585D03*
X0287400Y0099696D03*
X0289290Y0098081D03*
X0289290Y0097806D03*
X0289290Y0097648D03*
X0294251Y0098239D03*
X0294251Y0095759D03*
X0294251Y0095601D03*
X0294684Y0093869D03*
X0294684Y0093711D03*
X0294841Y0093278D03*
X0294841Y0093003D03*
X0294841Y0092845D03*
X0294684Y0092412D03*
X0294684Y0092255D03*
X0296731Y0096782D03*
D85*
X0296573Y0096487D03*
X0294251Y0095463D03*
X0294684Y0093573D03*
X0294841Y0093140D03*
X0294684Y0092117D03*
X0288699Y0094007D03*
X0288857Y0094597D03*
X0287400Y0096054D03*
X0286967Y0095463D03*
X0281849Y0095463D03*
X0281416Y0096054D03*
X0281416Y0100424D03*
X0281416Y0101448D03*
X0280825Y0102471D03*
X0279093Y0102904D03*
X0279526Y0103928D03*
X0283030Y0103928D03*
X0284487Y0104361D03*
X0284762Y0103928D03*
X0283896Y0102471D03*
X0285786Y0101881D03*
X0286967Y0100424D03*
X0287243Y0099991D03*
X0289290Y0097944D03*
X0289290Y0097510D03*
X0290904Y0102904D03*
X0290314Y0103928D03*
X0286967Y0089203D03*
X0283306Y0087589D03*
X0283463Y0087156D03*
X0280825Y0088613D03*
X0288857Y0086723D03*
D86*
X0278936Y0103199D03*
D87*
X0279448Y0102609D03*
X0276967Y0102609D03*
X0283385Y0100129D03*
X0283385Y0099538D03*
X0284408Y0100129D03*
X0287322Y0099853D03*
X0291259Y0101743D03*
X0280904Y0097648D03*
X0284408Y0095916D03*
X0288778Y0094144D03*
X0294762Y0093436D03*
X0280471Y0089499D03*
X0280471Y0089341D03*
X0279448Y0092412D03*
X0279448Y0092688D03*
X0279014Y0093869D03*
X0288778Y0086585D03*
X0299133Y0081900D03*
X0275510Y0077963D03*
D88*
X0282440Y0096349D03*
X0283896Y0096940D03*
X0279959Y0097806D03*
X0282440Y0100129D03*
X0279959Y0102018D03*
X0277479Y0101743D03*
D89*
X0277853Y0101585D03*
X0278719Y0101585D03*
X0279152Y0100719D03*
X0279585Y0100719D03*
X0279585Y0100562D03*
X0279585Y0100877D03*
X0279743Y0100286D03*
X0279743Y0100129D03*
X0279743Y0099853D03*
X0279743Y0099696D03*
X0279743Y0099538D03*
X0279310Y0099538D03*
X0279310Y0099696D03*
X0279310Y0099853D03*
X0279152Y0099105D03*
X0279585Y0099105D03*
X0278129Y0099696D03*
X0277853Y0099105D03*
X0277105Y0099853D03*
X0277105Y0100129D03*
X0277105Y0100286D03*
X0277105Y0100562D03*
X0277105Y0100719D03*
X0277105Y0100877D03*
X0282066Y0099696D03*
X0282656Y0099696D03*
X0282814Y0099853D03*
X0282814Y0099262D03*
X0281790Y0098829D03*
X0281790Y0098672D03*
X0281790Y0097806D03*
X0281790Y0097648D03*
X0282066Y0096782D03*
X0282656Y0097215D03*
X0284113Y0097215D03*
X0284546Y0096940D03*
X0284703Y0097215D03*
X0284703Y0097373D03*
X0284703Y0097648D03*
X0284703Y0098081D03*
X0284703Y0098239D03*
X0284703Y0098396D03*
X0284703Y0098672D03*
X0284546Y0099105D03*
X0284270Y0099538D03*
X0284113Y0099696D03*
X0284113Y0098829D03*
X0285136Y0098829D03*
X0285136Y0096940D03*
X0276672Y0088475D03*
X0276396Y0088042D03*
X0298837Y0084814D03*
X0299270Y0085837D03*
X0299270Y0085995D03*
D90*
X0292499Y0086585D03*
X0282144Y0101310D03*
X0273837Y0101585D03*
D91*
X0277774Y0101014D03*
X0278207Y0100424D03*
X0279231Y0100424D03*
X0279231Y0099991D03*
X0279231Y0099400D03*
X0278798Y0101448D03*
X0284192Y0098534D03*
X0284192Y0097510D03*
X0282735Y0097077D03*
X0303286Y0080306D03*
D92*
X0301908Y0074774D03*
X0285570Y0101310D03*
D93*
X0283739Y0098672D03*
X0283463Y0098396D03*
X0283896Y0098239D03*
X0283896Y0098081D03*
X0283739Y0097806D03*
X0283739Y0097648D03*
X0283306Y0097648D03*
X0282873Y0098081D03*
X0282873Y0098239D03*
X0282597Y0098239D03*
X0282597Y0098396D03*
X0282597Y0098672D03*
X0282597Y0098829D03*
X0282282Y0098829D03*
X0282282Y0098672D03*
X0282282Y0098396D03*
X0282282Y0098239D03*
X0282282Y0098081D03*
X0282282Y0097806D03*
X0282440Y0097648D03*
X0282597Y0097373D03*
X0282282Y0097215D03*
X0282440Y0096940D03*
X0282597Y0096782D03*
X0282597Y0098081D03*
X0282873Y0098672D03*
X0283030Y0098829D03*
X0282282Y0099105D03*
X0284762Y0097806D03*
X0279093Y0098829D03*
X0278936Y0099538D03*
X0278936Y0099696D03*
X0278936Y0099853D03*
X0278936Y0100129D03*
X0278936Y0100286D03*
X0278660Y0100286D03*
X0278660Y0100129D03*
X0278660Y0099853D03*
X0278660Y0099696D03*
X0278503Y0099538D03*
X0278345Y0099853D03*
X0278345Y0100286D03*
X0278070Y0100286D03*
X0277912Y0100562D03*
X0278070Y0100719D03*
X0278345Y0100719D03*
X0278503Y0100562D03*
X0278660Y0100877D03*
X0278936Y0101152D03*
X0278936Y0101310D03*
X0279093Y0100877D03*
X0277636Y0101310D03*
X0277479Y0100877D03*
X0277479Y0099853D03*
X0277636Y0099538D03*
X0277912Y0099538D03*
X0296573Y0097806D03*
X0299644Y0086585D03*
X0299487Y0086428D03*
X0299487Y0086270D03*
X0288424Y0085995D03*
X0288424Y0085837D03*
X0304014Y0075050D03*
D94*
X0283680Y0082058D03*
X0286160Y0101152D03*
D95*
X0283975Y0099853D03*
X0283818Y0099262D03*
X0283975Y0099105D03*
X0284408Y0099262D03*
X0285274Y0098396D03*
X0285274Y0098239D03*
X0285274Y0098081D03*
X0285274Y0097806D03*
X0285274Y0097648D03*
X0285274Y0097373D03*
X0282951Y0096940D03*
X0281928Y0097215D03*
X0279448Y0098672D03*
X0279014Y0098672D03*
X0278581Y0097806D03*
X0277558Y0100129D03*
X0277558Y0100286D03*
X0277558Y0100562D03*
X0277558Y0100719D03*
X0277991Y0101152D03*
X0278424Y0101152D03*
X0279448Y0101152D03*
X0282518Y0099538D03*
X0282361Y0099262D03*
X0283385Y0100719D03*
X0276534Y0088318D03*
X0298699Y0084105D03*
X0299133Y0085562D03*
D96*
X0286731Y0101014D03*
D97*
X0282440Y0099400D03*
X0282597Y0098967D03*
X0282282Y0098967D03*
X0282282Y0098534D03*
X0282597Y0098534D03*
X0282873Y0098534D03*
X0282873Y0097944D03*
X0282597Y0097944D03*
X0282282Y0097944D03*
X0282440Y0097510D03*
X0282873Y0097510D03*
X0283463Y0097944D03*
X0283896Y0097944D03*
X0284329Y0097944D03*
X0284762Y0097944D03*
X0283739Y0098534D03*
X0284054Y0098967D03*
X0282873Y0096487D03*
X0278070Y0098534D03*
X0277636Y0099400D03*
X0277479Y0099991D03*
X0277912Y0099991D03*
X0278345Y0099991D03*
X0278660Y0099991D03*
X0278936Y0099991D03*
X0278936Y0100424D03*
X0279093Y0101014D03*
X0278660Y0101014D03*
X0277479Y0101014D03*
X0276888Y0088613D03*
X0299802Y0086723D03*
D98*
X0292341Y0086133D03*
X0290294Y0085266D03*
X0295412Y0094597D03*
X0274703Y0101014D03*
X0309030Y0121778D03*
X0311077Y0124259D03*
D99*
X0287184Y0100877D03*
X0281633Y0081625D03*
D100*
X0274861Y0083081D03*
X0282735Y0096625D03*
X0282735Y0097648D03*
X0282735Y0097806D03*
X0283168Y0098081D03*
X0283168Y0098239D03*
X0283168Y0098396D03*
X0283601Y0098829D03*
X0284192Y0098672D03*
X0284192Y0098396D03*
X0284192Y0098239D03*
X0284192Y0097806D03*
X0284192Y0097648D03*
X0284192Y0097373D03*
X0284625Y0098829D03*
X0282735Y0099105D03*
X0282144Y0097648D03*
X0279231Y0099262D03*
X0278798Y0099262D03*
X0278798Y0099105D03*
X0278207Y0099262D03*
X0277774Y0099262D03*
X0277774Y0099696D03*
X0277774Y0099853D03*
X0277774Y0100877D03*
X0278207Y0100877D03*
X0278798Y0100719D03*
X0278798Y0100562D03*
X0279231Y0100562D03*
X0279231Y0100286D03*
X0279231Y0100129D03*
D101*
X0288188Y0100719D03*
D102*
X0289152Y0100562D03*
D103*
X0289959Y0100424D03*
D104*
X0285274Y0098534D03*
X0285274Y0097944D03*
X0285274Y0097510D03*
X0283975Y0097077D03*
X0281928Y0097077D03*
X0278581Y0098967D03*
X0277991Y0098967D03*
X0277558Y0100424D03*
X0281928Y0099400D03*
X0284408Y0099400D03*
X0299133Y0085699D03*
D105*
X0280471Y0081192D03*
X0290825Y0100286D03*
D106*
X0291180Y0100129D03*
D107*
X0292715Y0099853D03*
X0293306Y0099696D03*
X0284408Y0094459D03*
X0300589Y0075207D03*
X0302046Y0074617D03*
D108*
X0294841Y0099262D03*
X0293818Y0099538D03*
D109*
X0294329Y0099400D03*
X0295786Y0098967D03*
D110*
X0297243Y0098534D03*
X0286298Y0082786D03*
D111*
X0280924Y0081329D03*
X0283089Y0088180D03*
X0279152Y0097077D03*
X0301751Y0074912D03*
D112*
X0279152Y0096940D03*
D113*
X0279448Y0096782D03*
X0282951Y0087885D03*
X0289802Y0084814D03*
D114*
X0283601Y0094892D03*
D115*
X0284408Y0094735D03*
D116*
X0284487Y0094597D03*
D117*
X0286593Y0089636D03*
X0284113Y0086723D03*
X0288050Y0083652D03*
X0275806Y0084243D03*
D118*
X0282951Y0088318D03*
D119*
X0282282Y0081900D03*
D120*
X0282007Y0081762D03*
D121*
X0277853Y0080306D03*
D122*
X0267633Y0119298D03*
X0310349Y0132133D03*
X0310349Y0132566D03*
X0310349Y0132999D03*
X0310349Y0133589D03*
D123*
X0295841Y0133589D03*
X0295841Y0132999D03*
X0295841Y0132566D03*
X0295841Y0132133D03*
X0280684Y0132999D03*
X0266668Y0132999D03*
X0295841Y0120322D03*
X0295841Y0119731D03*
X0295841Y0119298D03*
X0295841Y0118865D03*
D124*
X0280448Y0133589D03*
D125*
X0266451Y0133589D03*
D126*
X0280743Y0132861D03*
X0310349Y0132861D03*
X0310349Y0132703D03*
X0310349Y0132428D03*
X0310349Y0132270D03*
X0310349Y0131995D03*
X0310349Y0131837D03*
X0310349Y0131680D03*
X0310349Y0133136D03*
X0310349Y0133294D03*
X0310349Y0133451D03*
X0281766Y0119160D03*
D127*
X0267692Y0119160D03*
X0295841Y0119160D03*
X0295841Y0119003D03*
X0295841Y0118727D03*
X0295841Y0118570D03*
X0295841Y0119436D03*
X0295841Y0119593D03*
X0295841Y0119869D03*
X0295841Y0120026D03*
X0295841Y0120184D03*
X0295841Y0120459D03*
X0295841Y0131680D03*
X0295841Y0131837D03*
X0295841Y0131995D03*
X0295841Y0132270D03*
X0295841Y0132428D03*
X0295841Y0132703D03*
X0295841Y0132861D03*
X0295841Y0133136D03*
X0295841Y0133294D03*
X0295841Y0133451D03*
X0280684Y0133136D03*
D128*
X0280526Y0133451D03*
X0281983Y0118727D03*
X0267849Y0118727D03*
D129*
X0266530Y0133294D03*
X0266530Y0133451D03*
D130*
X0266589Y0133136D03*
X0280605Y0133294D03*
X0267770Y0119003D03*
D131*
X0266747Y0132861D03*
D132*
X0266806Y0132703D03*
X0280822Y0132703D03*
X0281688Y0119436D03*
X0267554Y0119436D03*
X0267554Y0119593D03*
D133*
X0267475Y0119731D03*
X0266885Y0132566D03*
X0280900Y0132566D03*
D134*
X0280959Y0132428D03*
D135*
X0266885Y0132428D03*
X0281609Y0119593D03*
D136*
X0281471Y0119869D03*
X0267337Y0120026D03*
X0281038Y0132270D03*
D137*
X0266963Y0132270D03*
X0267396Y0119869D03*
D138*
X0281038Y0132133D03*
D139*
X0267042Y0132133D03*
D140*
X0267101Y0131995D03*
X0281117Y0131995D03*
X0281392Y0120184D03*
X0281392Y0120026D03*
X0267259Y0120184D03*
D141*
X0267180Y0131837D03*
X0281196Y0131837D03*
D142*
X0281255Y0131680D03*
D143*
X0267259Y0131680D03*
D144*
X0263400Y0130676D03*
X0264266Y0129652D03*
X0266314Y0127172D03*
X0266747Y0126739D03*
X0267180Y0126148D03*
X0268794Y0124259D03*
X0269227Y0123668D03*
X0269660Y0123235D03*
X0279148Y0128629D03*
X0279581Y0128196D03*
X0280014Y0127605D03*
X0281629Y0125715D03*
X0282062Y0125125D03*
X0282495Y0124692D03*
X0284542Y0122211D03*
X0285408Y0121188D03*
X0277101Y0131109D03*
D145*
X0278341Y0129652D03*
X0280388Y0127172D03*
X0283302Y0123668D03*
X0268420Y0124692D03*
X0267554Y0125715D03*
X0265507Y0128196D03*
X0303420Y0114928D03*
X0307357Y0119731D03*
X0307790Y0120322D03*
X0309404Y0122211D03*
X0309837Y0122802D03*
X0310270Y0123235D03*
D146*
X0309247Y0127034D03*
D147*
X0309188Y0126877D03*
D148*
X0309109Y0126739D03*
D149*
X0292711Y0126739D03*
X0292711Y0126148D03*
X0292711Y0125715D03*
X0292711Y0125125D03*
D150*
X0309030Y0126444D03*
X0309030Y0126601D03*
D151*
X0308951Y0126286D03*
D152*
X0308892Y0126148D03*
D153*
X0308814Y0126010D03*
D154*
X0308735Y0125853D03*
D155*
X0308735Y0125715D03*
D156*
X0308676Y0125577D03*
D157*
X0308597Y0125420D03*
D158*
X0308518Y0125262D03*
D159*
X0308440Y0125125D03*
D160*
X0281333Y0120322D03*
D161*
X0267259Y0120322D03*
D162*
X0281550Y0119731D03*
D163*
X0281688Y0119298D03*
D164*
X0281845Y0119003D03*
D165*
X0281904Y0118865D03*
D166*
X0267849Y0118865D03*
D167*
X0282062Y0118570D03*
X0282062Y0118412D03*
D168*
X0268066Y0118412D03*
X0267908Y0118570D03*
M02*
