G75*
%MOIN*%
%OFA0B0*%
%FSLAX25Y25*%
%IPPOS*%
%LPD*%
%AMOC8*
5,1,8,0,0,1.08239X$1,22.5*
%
%ADD10C,0.00600*%
%ADD11C,0.01100*%
%ADD12C,0.00800*%
%ADD13C,0.00400*%
%ADD14C,0.00700*%
%ADD15C,0.01000*%
%ADD16C,0.01000*%
%ADD17R,0.12992X0.00118*%
%ADD18R,0.13110X0.00118*%
%ADD19R,0.13583X0.00118*%
%ADD20R,0.13543X0.00118*%
%ADD21R,0.12992X0.00157*%
%ADD22R,0.13110X0.00157*%
%ADD23R,0.13425X0.00157*%
%ADD24R,0.13386X0.00157*%
%ADD25R,0.13268X0.00157*%
%ADD26R,0.12953X0.00157*%
%ADD27R,0.12835X0.00157*%
%ADD28R,0.12677X0.00118*%
%ADD29R,0.12559X0.00157*%
%ADD30R,0.12677X0.00157*%
%ADD31R,0.12402X0.00157*%
%ADD32R,0.12520X0.00157*%
%ADD33R,0.12402X0.00118*%
%ADD34R,0.12362X0.00118*%
%ADD35R,0.12244X0.00157*%
%ADD36R,0.12087X0.00157*%
%ADD37R,0.11969X0.00157*%
%ADD38R,0.11929X0.00157*%
%ADD39R,0.01890X0.00118*%
%ADD40R,0.02047X0.00118*%
%ADD41R,0.02638X0.00118*%
%ADD42R,0.02756X0.00118*%
%ADD43R,0.01890X0.00157*%
%ADD44R,0.02047X0.00157*%
%ADD45R,0.02598X0.00157*%
%ADD46R,0.02795X0.00157*%
%ADD47R,0.02756X0.00157*%
%ADD48R,0.02795X0.00118*%
%ADD49R,0.02638X0.00157*%
%ADD50R,0.02598X0.00118*%
%ADD51R,0.10787X0.00157*%
%ADD52R,0.06850X0.00157*%
%ADD53R,0.10669X0.00157*%
%ADD54R,0.10512X0.00118*%
%ADD55R,0.06850X0.00118*%
%ADD56R,0.10354X0.00157*%
%ADD57R,0.10197X0.00157*%
%ADD58R,0.10079X0.00118*%
%ADD59R,0.09921X0.00157*%
%ADD60R,0.09764X0.00157*%
%ADD61R,0.09764X0.00118*%
%ADD62R,0.09646X0.00157*%
%ADD63R,0.09488X0.00157*%
%ADD64R,0.09331X0.00157*%
%ADD65R,0.09173X0.00118*%
%ADD66R,0.02480X0.00157*%
%ADD67R,0.02480X0.00118*%
%ADD68R,0.12126X0.00118*%
%ADD69R,0.12244X0.00118*%
%ADD70R,0.12559X0.00118*%
%ADD71R,0.12835X0.00118*%
%ADD72R,0.13150X0.00157*%
%ADD73R,0.13268X0.00118*%
%ADD74R,0.13425X0.00118*%
%ADD75R,0.13583X0.00157*%
%ADD76R,0.13543X0.00157*%
D10*
X0107133Y0064336D02*
X0111404Y0064336D01*
X0108268Y0113201D02*
X0108268Y0117471D01*
X0106133Y0115336D02*
X0110404Y0115336D01*
D11*
X0256383Y0079788D02*
X0256383Y0078804D01*
X0258352Y0076836D01*
X0258352Y0073883D01*
X0258352Y0076836D02*
X0260320Y0078804D01*
X0260320Y0079788D01*
X0266383Y0079788D02*
X0269336Y0079788D01*
X0270320Y0078804D01*
X0270320Y0077820D01*
X0269336Y0076836D01*
X0266383Y0076836D01*
X0266383Y0079788D02*
X0266383Y0073883D01*
X0269336Y0073883D01*
X0270320Y0074867D01*
X0270320Y0075852D01*
X0269336Y0076836D01*
D12*
X0273333Y0083333D02*
X0263333Y0083333D01*
X0263333Y0098333D01*
X0283333Y0083333D02*
X0293333Y0083333D01*
X0303333Y0083333D02*
X0313333Y0083333D01*
X0313333Y0098333D01*
X0313333Y0118333D02*
X0313333Y0133333D01*
X0263333Y0133333D01*
X0263333Y0118333D01*
X0167979Y0112034D02*
X0163648Y0107703D01*
X0159711Y0107703D01*
X0155577Y0107703D02*
X0151444Y0107703D01*
X0147113Y0112034D01*
X0147113Y0128570D01*
X0155381Y0128570D01*
X0159711Y0128570D02*
X0167979Y0128570D01*
X0167979Y0112034D01*
X0155577Y0108491D02*
X0155343Y0108545D01*
X0155109Y0108603D01*
X0154878Y0108668D01*
X0154648Y0108738D01*
X0154420Y0108814D01*
X0154193Y0108895D01*
X0153969Y0108981D01*
X0153747Y0109074D01*
X0153527Y0109171D01*
X0153310Y0109274D01*
X0153095Y0109382D01*
X0152883Y0109495D01*
X0152673Y0109614D01*
X0152467Y0109737D01*
X0152264Y0109865D01*
X0152064Y0109999D01*
X0151867Y0110137D01*
X0151673Y0110280D01*
X0151483Y0110427D01*
X0151297Y0110579D01*
X0151115Y0110736D01*
X0150936Y0110897D01*
X0150762Y0111062D01*
X0150591Y0111232D01*
X0150425Y0111405D01*
X0150262Y0111583D01*
X0150105Y0111764D01*
X0149951Y0111950D01*
X0149803Y0112139D01*
X0149659Y0112331D01*
X0149519Y0112527D01*
X0149385Y0112726D01*
X0149255Y0112929D01*
X0149130Y0113134D01*
X0149010Y0113343D01*
X0148896Y0113554D01*
X0148786Y0113768D01*
X0148682Y0113985D01*
X0148583Y0114204D01*
X0148490Y0114426D01*
X0148402Y0114650D01*
X0148319Y0114875D01*
X0148242Y0115103D01*
X0148171Y0115333D01*
X0148105Y0115564D01*
X0148044Y0115797D01*
X0147990Y0116031D01*
X0147941Y0116266D01*
X0147898Y0116503D01*
X0147860Y0116740D01*
X0147829Y0116979D01*
X0147803Y0117218D01*
X0147783Y0117458D01*
X0147769Y0117698D01*
X0147760Y0117938D01*
X0147758Y0118178D01*
X0147761Y0118419D01*
X0147771Y0118659D01*
X0147786Y0118899D01*
X0147807Y0119139D01*
X0147833Y0119378D01*
X0147866Y0119616D01*
X0147904Y0119853D01*
X0147948Y0120090D01*
X0147998Y0120325D01*
X0148054Y0120559D01*
X0148115Y0120791D01*
X0148182Y0121022D01*
X0148254Y0121252D01*
X0148332Y0121479D01*
X0148416Y0121705D01*
X0148505Y0121928D01*
X0148599Y0122149D01*
X0148699Y0122368D01*
X0148804Y0122584D01*
X0148914Y0122798D01*
X0149029Y0123009D01*
X0149150Y0123217D01*
X0149275Y0123422D01*
X0149406Y0123624D01*
X0149541Y0123823D01*
X0149681Y0124018D01*
X0149826Y0124210D01*
X0149976Y0124398D01*
X0150130Y0124583D01*
X0150288Y0124764D01*
X0150451Y0124941D01*
X0150618Y0125114D01*
X0150789Y0125283D01*
X0150965Y0125447D01*
X0151144Y0125608D01*
X0151327Y0125763D01*
X0151514Y0125915D01*
X0151704Y0126062D01*
X0151898Y0126204D01*
X0152096Y0126341D01*
X0152296Y0126474D01*
X0152500Y0126601D01*
X0152707Y0126724D01*
X0152917Y0126841D01*
X0153129Y0126954D01*
X0153344Y0127061D01*
X0153562Y0127163D01*
X0153782Y0127260D01*
X0154005Y0127351D01*
X0154230Y0127437D01*
X0154456Y0127517D01*
X0154685Y0127592D01*
X0154915Y0127661D01*
X0155147Y0127724D01*
X0155380Y0127782D01*
X0159711Y0127782D02*
X0159943Y0127729D01*
X0160174Y0127670D01*
X0160403Y0127606D01*
X0160630Y0127535D01*
X0160856Y0127460D01*
X0161080Y0127379D01*
X0161302Y0127292D01*
X0161521Y0127200D01*
X0161738Y0127103D01*
X0161953Y0127000D01*
X0162165Y0126892D01*
X0162375Y0126779D01*
X0162582Y0126661D01*
X0162785Y0126538D01*
X0162986Y0126410D01*
X0163184Y0126277D01*
X0163378Y0126140D01*
X0163569Y0125997D01*
X0163756Y0125850D01*
X0163940Y0125699D01*
X0164119Y0125543D01*
X0164295Y0125383D01*
X0164467Y0125218D01*
X0164635Y0125049D01*
X0164799Y0124877D01*
X0164959Y0124700D01*
X0165114Y0124519D01*
X0165265Y0124335D01*
X0165411Y0124147D01*
X0165552Y0123956D01*
X0165689Y0123761D01*
X0165821Y0123563D01*
X0165948Y0123362D01*
X0166071Y0123157D01*
X0166188Y0122950D01*
X0166300Y0122740D01*
X0166407Y0122527D01*
X0166509Y0122312D01*
X0166605Y0122095D01*
X0166696Y0121875D01*
X0166782Y0121653D01*
X0166862Y0121428D01*
X0166937Y0121202D01*
X0167006Y0120975D01*
X0167070Y0120745D01*
X0167128Y0120514D01*
X0167180Y0120282D01*
X0167227Y0120049D01*
X0167268Y0119814D01*
X0167303Y0119579D01*
X0167332Y0119343D01*
X0167356Y0119106D01*
X0167374Y0118868D01*
X0167386Y0118631D01*
X0167392Y0118393D01*
X0167392Y0118155D01*
X0167387Y0117917D01*
X0167376Y0117679D01*
X0167359Y0117441D01*
X0167336Y0117204D01*
X0167308Y0116968D01*
X0167273Y0116732D01*
X0167233Y0116498D01*
X0167188Y0116264D01*
X0167136Y0116032D01*
X0167079Y0115801D01*
X0167016Y0115571D01*
X0166948Y0115343D01*
X0166874Y0115117D01*
X0166795Y0114892D01*
X0166710Y0114670D01*
X0166620Y0114449D01*
X0166524Y0114231D01*
X0166423Y0114016D01*
X0166317Y0113803D01*
X0166206Y0113592D01*
X0166089Y0113385D01*
X0165968Y0113180D01*
X0165841Y0112978D01*
X0165710Y0112780D01*
X0165574Y0112584D01*
X0165433Y0112392D01*
X0165288Y0112204D01*
X0165138Y0112019D01*
X0164983Y0111838D01*
X0164824Y0111661D01*
X0164661Y0111487D01*
X0164494Y0111318D01*
X0164322Y0111153D01*
X0164147Y0110992D01*
X0163968Y0110835D01*
X0163785Y0110683D01*
X0163598Y0110535D01*
X0163408Y0110392D01*
X0163214Y0110254D01*
X0163017Y0110120D01*
X0162817Y0109992D01*
X0162614Y0109868D01*
X0162407Y0109749D01*
X0162198Y0109635D01*
X0161986Y0109526D01*
X0161772Y0109423D01*
X0161555Y0109325D01*
X0161336Y0109232D01*
X0161114Y0109145D01*
X0160891Y0109063D01*
X0160666Y0108986D01*
X0160438Y0108915D01*
X0160209Y0108850D01*
X0159979Y0108790D01*
X0159747Y0108736D01*
X0159514Y0108687D01*
X0153589Y0103845D02*
X0150440Y0103845D01*
X0153589Y0103845D02*
X0153589Y0101483D01*
X0138333Y0100833D02*
X0138333Y0105833D01*
X0135833Y0108333D01*
X0130833Y0108333D01*
X0128333Y0105833D01*
X0128333Y0100833D01*
X0130833Y0098333D01*
X0135833Y0098333D01*
X0138333Y0100833D01*
X0135833Y0098333D02*
X0130833Y0098333D01*
X0128333Y0095833D01*
X0128333Y0090833D01*
X0130833Y0088333D01*
X0135833Y0088333D01*
X0138333Y0090833D01*
X0138333Y0095833D01*
X0135833Y0098333D01*
X0150440Y0092822D02*
X0153589Y0092822D01*
X0153589Y0095184D01*
X0155024Y0088333D02*
X0151643Y0088333D01*
X0150543Y0084390D02*
X0150543Y0082277D01*
X0151643Y0078333D02*
X0155024Y0078333D01*
X0138333Y0080833D02*
X0138333Y0085833D01*
X0135833Y0088333D01*
X0130833Y0088333D01*
X0128333Y0085833D01*
X0128333Y0080833D01*
X0130833Y0078333D01*
X0135833Y0078333D01*
X0138333Y0080833D01*
X0124869Y0066444D02*
X0099278Y0066444D01*
X0099278Y0110538D01*
X0124869Y0110538D01*
X0124869Y0066444D01*
X0099278Y0066444D02*
X0095341Y0066444D01*
X0095341Y0110538D01*
X0099278Y0110538D01*
X0088648Y0128333D02*
X0088654Y0128816D01*
X0088672Y0129299D01*
X0088701Y0129781D01*
X0088743Y0130262D01*
X0088796Y0130743D01*
X0088861Y0131221D01*
X0088938Y0131698D01*
X0089026Y0132173D01*
X0089126Y0132646D01*
X0089238Y0133116D01*
X0089361Y0133583D01*
X0089496Y0134047D01*
X0089642Y0134508D01*
X0089799Y0134965D01*
X0089967Y0135418D01*
X0090146Y0135866D01*
X0090337Y0136310D01*
X0090538Y0136749D01*
X0090750Y0137184D01*
X0090972Y0137612D01*
X0091205Y0138036D01*
X0091449Y0138453D01*
X0091702Y0138864D01*
X0091966Y0139269D01*
X0092239Y0139668D01*
X0092522Y0140059D01*
X0092814Y0140444D01*
X0093116Y0140821D01*
X0093427Y0141191D01*
X0093747Y0141553D01*
X0094076Y0141907D01*
X0094414Y0142252D01*
X0094759Y0142590D01*
X0095113Y0142919D01*
X0095475Y0143239D01*
X0095845Y0143550D01*
X0096222Y0143852D01*
X0096607Y0144144D01*
X0096998Y0144427D01*
X0097397Y0144700D01*
X0097802Y0144964D01*
X0098213Y0145217D01*
X0098630Y0145461D01*
X0099054Y0145694D01*
X0099482Y0145916D01*
X0099917Y0146128D01*
X0100356Y0146329D01*
X0100800Y0146520D01*
X0101248Y0146699D01*
X0101701Y0146867D01*
X0102158Y0147024D01*
X0102619Y0147170D01*
X0103083Y0147305D01*
X0103550Y0147428D01*
X0104020Y0147540D01*
X0104493Y0147640D01*
X0104968Y0147728D01*
X0105445Y0147805D01*
X0105923Y0147870D01*
X0106404Y0147923D01*
X0106885Y0147965D01*
X0107367Y0147994D01*
X0107850Y0148012D01*
X0108333Y0148018D01*
X0108816Y0148012D01*
X0109299Y0147994D01*
X0109781Y0147965D01*
X0110262Y0147923D01*
X0110743Y0147870D01*
X0111221Y0147805D01*
X0111698Y0147728D01*
X0112173Y0147640D01*
X0112646Y0147540D01*
X0113116Y0147428D01*
X0113583Y0147305D01*
X0114047Y0147170D01*
X0114508Y0147024D01*
X0114965Y0146867D01*
X0115418Y0146699D01*
X0115866Y0146520D01*
X0116310Y0146329D01*
X0116749Y0146128D01*
X0117184Y0145916D01*
X0117612Y0145694D01*
X0118036Y0145461D01*
X0118453Y0145217D01*
X0118864Y0144964D01*
X0119269Y0144700D01*
X0119668Y0144427D01*
X0120059Y0144144D01*
X0120444Y0143852D01*
X0120821Y0143550D01*
X0121191Y0143239D01*
X0121553Y0142919D01*
X0121907Y0142590D01*
X0122252Y0142252D01*
X0122590Y0141907D01*
X0122919Y0141553D01*
X0123239Y0141191D01*
X0123550Y0140821D01*
X0123852Y0140444D01*
X0124144Y0140059D01*
X0124427Y0139668D01*
X0124700Y0139269D01*
X0124964Y0138864D01*
X0125217Y0138453D01*
X0125461Y0138036D01*
X0125694Y0137612D01*
X0125916Y0137184D01*
X0126128Y0136749D01*
X0126329Y0136310D01*
X0126520Y0135866D01*
X0126699Y0135418D01*
X0126867Y0134965D01*
X0127024Y0134508D01*
X0127170Y0134047D01*
X0127305Y0133583D01*
X0127428Y0133116D01*
X0127540Y0132646D01*
X0127640Y0132173D01*
X0127728Y0131698D01*
X0127805Y0131221D01*
X0127870Y0130743D01*
X0127923Y0130262D01*
X0127965Y0129781D01*
X0127994Y0129299D01*
X0128012Y0128816D01*
X0128018Y0128333D01*
X0128012Y0127850D01*
X0127994Y0127367D01*
X0127965Y0126885D01*
X0127923Y0126404D01*
X0127870Y0125923D01*
X0127805Y0125445D01*
X0127728Y0124968D01*
X0127640Y0124493D01*
X0127540Y0124020D01*
X0127428Y0123550D01*
X0127305Y0123083D01*
X0127170Y0122619D01*
X0127024Y0122158D01*
X0126867Y0121701D01*
X0126699Y0121248D01*
X0126520Y0120800D01*
X0126329Y0120356D01*
X0126128Y0119917D01*
X0125916Y0119482D01*
X0125694Y0119054D01*
X0125461Y0118630D01*
X0125217Y0118213D01*
X0124964Y0117802D01*
X0124700Y0117397D01*
X0124427Y0116998D01*
X0124144Y0116607D01*
X0123852Y0116222D01*
X0123550Y0115845D01*
X0123239Y0115475D01*
X0122919Y0115113D01*
X0122590Y0114759D01*
X0122252Y0114414D01*
X0121907Y0114076D01*
X0121553Y0113747D01*
X0121191Y0113427D01*
X0120821Y0113116D01*
X0120444Y0112814D01*
X0120059Y0112522D01*
X0119668Y0112239D01*
X0119269Y0111966D01*
X0118864Y0111702D01*
X0118453Y0111449D01*
X0118036Y0111205D01*
X0117612Y0110972D01*
X0117184Y0110750D01*
X0116749Y0110538D01*
X0116310Y0110337D01*
X0115866Y0110146D01*
X0115418Y0109967D01*
X0114965Y0109799D01*
X0114508Y0109642D01*
X0114047Y0109496D01*
X0113583Y0109361D01*
X0113116Y0109238D01*
X0112646Y0109126D01*
X0112173Y0109026D01*
X0111698Y0108938D01*
X0111221Y0108861D01*
X0110743Y0108796D01*
X0110262Y0108743D01*
X0109781Y0108701D01*
X0109299Y0108672D01*
X0108816Y0108654D01*
X0108333Y0108648D01*
X0107850Y0108654D01*
X0107367Y0108672D01*
X0106885Y0108701D01*
X0106404Y0108743D01*
X0105923Y0108796D01*
X0105445Y0108861D01*
X0104968Y0108938D01*
X0104493Y0109026D01*
X0104020Y0109126D01*
X0103550Y0109238D01*
X0103083Y0109361D01*
X0102619Y0109496D01*
X0102158Y0109642D01*
X0101701Y0109799D01*
X0101248Y0109967D01*
X0100800Y0110146D01*
X0100356Y0110337D01*
X0099917Y0110538D01*
X0099482Y0110750D01*
X0099054Y0110972D01*
X0098630Y0111205D01*
X0098213Y0111449D01*
X0097802Y0111702D01*
X0097397Y0111966D01*
X0096998Y0112239D01*
X0096607Y0112522D01*
X0096222Y0112814D01*
X0095845Y0113116D01*
X0095475Y0113427D01*
X0095113Y0113747D01*
X0094759Y0114076D01*
X0094414Y0114414D01*
X0094076Y0114759D01*
X0093747Y0115113D01*
X0093427Y0115475D01*
X0093116Y0115845D01*
X0092814Y0116222D01*
X0092522Y0116607D01*
X0092239Y0116998D01*
X0091966Y0117397D01*
X0091702Y0117802D01*
X0091449Y0118213D01*
X0091205Y0118630D01*
X0090972Y0119054D01*
X0090750Y0119482D01*
X0090538Y0119917D01*
X0090337Y0120356D01*
X0090146Y0120800D01*
X0089967Y0121248D01*
X0089799Y0121701D01*
X0089642Y0122158D01*
X0089496Y0122619D01*
X0089361Y0123083D01*
X0089238Y0123550D01*
X0089126Y0124020D01*
X0089026Y0124493D01*
X0088938Y0124968D01*
X0088861Y0125445D01*
X0088796Y0125923D01*
X0088743Y0126404D01*
X0088701Y0126885D01*
X0088672Y0127367D01*
X0088654Y0127850D01*
X0088648Y0128333D01*
X0095833Y0138333D02*
X0100833Y0138333D01*
X0115833Y0138333D02*
X0120833Y0138333D01*
X0118333Y0140833D02*
X0118333Y0135833D01*
X0282270Y0068333D02*
X0294396Y0068333D01*
X0298333Y0063215D02*
X0298333Y0053451D01*
X0294396Y0048333D02*
X0282270Y0048333D01*
X0278333Y0053451D02*
X0278333Y0063333D01*
X0283333Y0058333D02*
X0283335Y0058474D01*
X0283341Y0058615D01*
X0283351Y0058755D01*
X0283365Y0058895D01*
X0283383Y0059035D01*
X0283404Y0059174D01*
X0283430Y0059313D01*
X0283459Y0059451D01*
X0283493Y0059587D01*
X0283530Y0059723D01*
X0283571Y0059858D01*
X0283616Y0059992D01*
X0283665Y0060124D01*
X0283717Y0060255D01*
X0283773Y0060384D01*
X0283833Y0060511D01*
X0283896Y0060637D01*
X0283962Y0060761D01*
X0284033Y0060884D01*
X0284106Y0061004D01*
X0284183Y0061122D01*
X0284263Y0061238D01*
X0284347Y0061351D01*
X0284433Y0061462D01*
X0284523Y0061571D01*
X0284616Y0061677D01*
X0284711Y0061780D01*
X0284810Y0061881D01*
X0284911Y0061979D01*
X0285015Y0062074D01*
X0285122Y0062166D01*
X0285231Y0062255D01*
X0285343Y0062340D01*
X0285457Y0062423D01*
X0285573Y0062503D01*
X0285692Y0062579D01*
X0285813Y0062651D01*
X0285935Y0062721D01*
X0286060Y0062786D01*
X0286186Y0062849D01*
X0286314Y0062907D01*
X0286444Y0062962D01*
X0286575Y0063014D01*
X0286708Y0063061D01*
X0286842Y0063105D01*
X0286977Y0063146D01*
X0287113Y0063182D01*
X0287250Y0063214D01*
X0287388Y0063243D01*
X0287526Y0063268D01*
X0287666Y0063288D01*
X0287806Y0063305D01*
X0287946Y0063318D01*
X0288087Y0063327D01*
X0288227Y0063332D01*
X0288368Y0063333D01*
X0288509Y0063330D01*
X0288650Y0063323D01*
X0288790Y0063312D01*
X0288930Y0063297D01*
X0289070Y0063278D01*
X0289209Y0063256D01*
X0289347Y0063229D01*
X0289485Y0063199D01*
X0289621Y0063164D01*
X0289757Y0063126D01*
X0289891Y0063084D01*
X0290025Y0063038D01*
X0290157Y0062989D01*
X0290287Y0062935D01*
X0290416Y0062878D01*
X0290543Y0062818D01*
X0290669Y0062754D01*
X0290792Y0062686D01*
X0290914Y0062615D01*
X0291034Y0062541D01*
X0291151Y0062463D01*
X0291266Y0062382D01*
X0291379Y0062298D01*
X0291490Y0062211D01*
X0291598Y0062120D01*
X0291703Y0062027D01*
X0291806Y0061930D01*
X0291906Y0061831D01*
X0292003Y0061729D01*
X0292097Y0061624D01*
X0292188Y0061517D01*
X0292276Y0061407D01*
X0292361Y0061295D01*
X0292443Y0061180D01*
X0292522Y0061063D01*
X0292597Y0060944D01*
X0292669Y0060823D01*
X0292737Y0060700D01*
X0292802Y0060575D01*
X0292864Y0060448D01*
X0292921Y0060319D01*
X0292976Y0060189D01*
X0293026Y0060058D01*
X0293073Y0059925D01*
X0293116Y0059791D01*
X0293155Y0059655D01*
X0293190Y0059519D01*
X0293222Y0059382D01*
X0293249Y0059244D01*
X0293273Y0059105D01*
X0293293Y0058965D01*
X0293309Y0058825D01*
X0293321Y0058685D01*
X0293329Y0058544D01*
X0293333Y0058403D01*
X0293333Y0058263D01*
X0293329Y0058122D01*
X0293321Y0057981D01*
X0293309Y0057841D01*
X0293293Y0057701D01*
X0293273Y0057561D01*
X0293249Y0057422D01*
X0293222Y0057284D01*
X0293190Y0057147D01*
X0293155Y0057011D01*
X0293116Y0056875D01*
X0293073Y0056741D01*
X0293026Y0056608D01*
X0292976Y0056477D01*
X0292921Y0056347D01*
X0292864Y0056218D01*
X0292802Y0056091D01*
X0292737Y0055966D01*
X0292669Y0055843D01*
X0292597Y0055722D01*
X0292522Y0055603D01*
X0292443Y0055486D01*
X0292361Y0055371D01*
X0292276Y0055259D01*
X0292188Y0055149D01*
X0292097Y0055042D01*
X0292003Y0054937D01*
X0291906Y0054835D01*
X0291806Y0054736D01*
X0291703Y0054639D01*
X0291598Y0054546D01*
X0291490Y0054455D01*
X0291379Y0054368D01*
X0291266Y0054284D01*
X0291151Y0054203D01*
X0291034Y0054125D01*
X0290914Y0054051D01*
X0290792Y0053980D01*
X0290669Y0053912D01*
X0290543Y0053848D01*
X0290416Y0053788D01*
X0290287Y0053731D01*
X0290157Y0053677D01*
X0290025Y0053628D01*
X0289891Y0053582D01*
X0289757Y0053540D01*
X0289621Y0053502D01*
X0289485Y0053467D01*
X0289347Y0053437D01*
X0289209Y0053410D01*
X0289070Y0053388D01*
X0288930Y0053369D01*
X0288790Y0053354D01*
X0288650Y0053343D01*
X0288509Y0053336D01*
X0288368Y0053333D01*
X0288227Y0053334D01*
X0288087Y0053339D01*
X0287946Y0053348D01*
X0287806Y0053361D01*
X0287666Y0053378D01*
X0287526Y0053398D01*
X0287388Y0053423D01*
X0287250Y0053452D01*
X0287113Y0053484D01*
X0286977Y0053520D01*
X0286842Y0053561D01*
X0286708Y0053605D01*
X0286575Y0053652D01*
X0286444Y0053704D01*
X0286314Y0053759D01*
X0286186Y0053817D01*
X0286060Y0053880D01*
X0285935Y0053945D01*
X0285813Y0054015D01*
X0285692Y0054087D01*
X0285573Y0054163D01*
X0285457Y0054243D01*
X0285343Y0054326D01*
X0285231Y0054411D01*
X0285122Y0054500D01*
X0285015Y0054592D01*
X0284911Y0054687D01*
X0284810Y0054785D01*
X0284711Y0054886D01*
X0284616Y0054989D01*
X0284523Y0055095D01*
X0284433Y0055204D01*
X0284347Y0055315D01*
X0284263Y0055428D01*
X0284183Y0055544D01*
X0284106Y0055662D01*
X0284033Y0055782D01*
X0283962Y0055905D01*
X0283896Y0056029D01*
X0283833Y0056155D01*
X0283773Y0056282D01*
X0283717Y0056411D01*
X0283665Y0056542D01*
X0283616Y0056674D01*
X0283571Y0056808D01*
X0283530Y0056943D01*
X0283493Y0057079D01*
X0283459Y0057215D01*
X0283430Y0057353D01*
X0283404Y0057492D01*
X0283383Y0057631D01*
X0283365Y0057771D01*
X0283351Y0057911D01*
X0283341Y0058051D01*
X0283335Y0058192D01*
X0283333Y0058333D01*
D13*
X0251129Y0090538D02*
X0232231Y0090538D01*
X0225538Y0097231D01*
X0225538Y0099593D01*
X0226718Y0107073D02*
X0226813Y0107356D01*
X0226915Y0107637D01*
X0227024Y0107914D01*
X0227139Y0108190D01*
X0227261Y0108462D01*
X0227390Y0108731D01*
X0227525Y0108997D01*
X0227667Y0109259D01*
X0227815Y0109518D01*
X0227969Y0109774D01*
X0228130Y0110025D01*
X0228297Y0110273D01*
X0228469Y0110516D01*
X0228648Y0110755D01*
X0228832Y0110990D01*
X0229022Y0111220D01*
X0229218Y0111445D01*
X0229419Y0111665D01*
X0229625Y0111881D01*
X0229837Y0112091D01*
X0230053Y0112296D01*
X0230275Y0112496D01*
X0230502Y0112690D01*
X0230733Y0112879D01*
X0230968Y0113062D01*
X0231208Y0113239D01*
X0231453Y0113410D01*
X0231701Y0113575D01*
X0231954Y0113734D01*
X0232210Y0113887D01*
X0232470Y0114034D01*
X0232733Y0114174D01*
X0233000Y0114308D01*
X0233270Y0114435D01*
X0233543Y0114555D01*
X0233818Y0114669D01*
X0234097Y0114776D01*
X0234378Y0114876D01*
X0234661Y0114969D01*
X0234947Y0115056D01*
X0235235Y0115135D01*
X0235524Y0115207D01*
X0235815Y0115272D01*
X0236108Y0115330D01*
X0236402Y0115381D01*
X0236697Y0115425D01*
X0236993Y0115461D01*
X0237290Y0115490D01*
X0237588Y0115512D01*
X0237886Y0115527D01*
X0238184Y0115534D01*
X0238482Y0115534D01*
X0238780Y0115527D01*
X0239078Y0115512D01*
X0239376Y0115490D01*
X0239673Y0115461D01*
X0239969Y0115425D01*
X0240264Y0115381D01*
X0240558Y0115330D01*
X0240851Y0115272D01*
X0241142Y0115207D01*
X0241431Y0115135D01*
X0241719Y0115056D01*
X0242005Y0114969D01*
X0242288Y0114876D01*
X0242569Y0114776D01*
X0242848Y0114669D01*
X0243123Y0114555D01*
X0243396Y0114435D01*
X0243666Y0114308D01*
X0243933Y0114174D01*
X0244196Y0114034D01*
X0244456Y0113887D01*
X0244712Y0113734D01*
X0244965Y0113575D01*
X0245213Y0113410D01*
X0245458Y0113239D01*
X0245698Y0113062D01*
X0245933Y0112879D01*
X0246164Y0112690D01*
X0246391Y0112496D01*
X0246613Y0112296D01*
X0246829Y0112091D01*
X0247041Y0111881D01*
X0247247Y0111665D01*
X0247448Y0111445D01*
X0247644Y0111220D01*
X0247834Y0110990D01*
X0248018Y0110755D01*
X0248197Y0110516D01*
X0248369Y0110273D01*
X0248536Y0110025D01*
X0248697Y0109774D01*
X0248851Y0109518D01*
X0248999Y0109259D01*
X0249141Y0108997D01*
X0249276Y0108731D01*
X0249405Y0108462D01*
X0249527Y0108190D01*
X0249642Y0107914D01*
X0249751Y0107637D01*
X0249853Y0107356D01*
X0249948Y0107073D01*
X0251129Y0107073D02*
X0251129Y0116129D01*
X0232231Y0116129D01*
X0225538Y0109436D01*
X0225538Y0107073D01*
X0226718Y0099593D02*
X0226813Y0099310D01*
X0226915Y0099029D01*
X0227024Y0098752D01*
X0227139Y0098476D01*
X0227261Y0098204D01*
X0227390Y0097935D01*
X0227525Y0097669D01*
X0227667Y0097407D01*
X0227815Y0097148D01*
X0227969Y0096892D01*
X0228130Y0096641D01*
X0228297Y0096393D01*
X0228469Y0096150D01*
X0228648Y0095911D01*
X0228832Y0095676D01*
X0229022Y0095446D01*
X0229218Y0095221D01*
X0229419Y0095001D01*
X0229625Y0094785D01*
X0229837Y0094575D01*
X0230053Y0094370D01*
X0230275Y0094170D01*
X0230502Y0093976D01*
X0230733Y0093787D01*
X0230968Y0093604D01*
X0231208Y0093427D01*
X0231453Y0093256D01*
X0231701Y0093091D01*
X0231954Y0092932D01*
X0232210Y0092779D01*
X0232470Y0092632D01*
X0232733Y0092492D01*
X0233000Y0092358D01*
X0233270Y0092231D01*
X0233543Y0092111D01*
X0233818Y0091997D01*
X0234097Y0091890D01*
X0234378Y0091790D01*
X0234661Y0091697D01*
X0234947Y0091610D01*
X0235235Y0091531D01*
X0235524Y0091459D01*
X0235815Y0091394D01*
X0236108Y0091336D01*
X0236402Y0091285D01*
X0236697Y0091241D01*
X0236993Y0091205D01*
X0237290Y0091176D01*
X0237588Y0091154D01*
X0237886Y0091139D01*
X0238184Y0091132D01*
X0238482Y0091132D01*
X0238780Y0091139D01*
X0239078Y0091154D01*
X0239376Y0091176D01*
X0239673Y0091205D01*
X0239969Y0091241D01*
X0240264Y0091285D01*
X0240558Y0091336D01*
X0240851Y0091394D01*
X0241142Y0091459D01*
X0241431Y0091531D01*
X0241719Y0091610D01*
X0242005Y0091697D01*
X0242288Y0091790D01*
X0242569Y0091890D01*
X0242848Y0091997D01*
X0243123Y0092111D01*
X0243396Y0092231D01*
X0243666Y0092358D01*
X0243933Y0092492D01*
X0244196Y0092632D01*
X0244456Y0092779D01*
X0244712Y0092932D01*
X0244965Y0093091D01*
X0245213Y0093256D01*
X0245458Y0093427D01*
X0245698Y0093604D01*
X0245933Y0093787D01*
X0246164Y0093976D01*
X0246391Y0094170D01*
X0246613Y0094370D01*
X0246829Y0094575D01*
X0247041Y0094785D01*
X0247247Y0095001D01*
X0247448Y0095221D01*
X0247644Y0095446D01*
X0247834Y0095676D01*
X0248018Y0095911D01*
X0248197Y0096150D01*
X0248369Y0096393D01*
X0248536Y0096641D01*
X0248697Y0096892D01*
X0248851Y0097148D01*
X0248999Y0097407D01*
X0249141Y0097669D01*
X0249276Y0097935D01*
X0249405Y0098204D01*
X0249527Y0098476D01*
X0249642Y0098752D01*
X0249751Y0099029D01*
X0249853Y0099310D01*
X0249948Y0099593D01*
X0251129Y0099593D02*
X0251129Y0090538D01*
D14*
X0221849Y0074818D02*
X0221849Y0121849D01*
X0174818Y0121849D01*
X0174818Y0074818D01*
X0221849Y0074818D01*
X0175033Y0119733D02*
X0177033Y0121733D01*
D15*
X0175933Y0121633D02*
X0175033Y0120733D01*
D16*
X0157333Y0077033D03*
D17*
X0155778Y0073089D03*
X0155778Y0072499D03*
X0155778Y0072066D03*
X0155778Y0071633D03*
X0198495Y0058798D03*
D18*
X0170286Y0058798D03*
X0170286Y0059231D03*
X0170286Y0059822D03*
X0170286Y0058365D03*
X0170286Y0071633D03*
X0170286Y0072066D03*
X0170286Y0072499D03*
X0170286Y0073089D03*
X0185444Y0072499D03*
X0199459Y0072499D03*
D19*
X0185680Y0073089D03*
D20*
X0199676Y0073089D03*
D21*
X0185385Y0072361D03*
X0155778Y0072361D03*
X0155778Y0072203D03*
X0155778Y0071928D03*
X0155778Y0071770D03*
X0155778Y0071495D03*
X0155778Y0071337D03*
X0155778Y0071180D03*
X0155778Y0072636D03*
X0155778Y0072794D03*
X0155778Y0072951D03*
X0184361Y0058660D03*
D22*
X0170286Y0058660D03*
X0170286Y0058503D03*
X0170286Y0058227D03*
X0170286Y0058070D03*
X0170286Y0058936D03*
X0170286Y0059093D03*
X0170286Y0059369D03*
X0170286Y0059526D03*
X0170286Y0059684D03*
X0170286Y0059959D03*
X0170286Y0071180D03*
X0170286Y0071337D03*
X0170286Y0071495D03*
X0170286Y0071770D03*
X0170286Y0071928D03*
X0170286Y0072203D03*
X0170286Y0072361D03*
X0170286Y0072636D03*
X0170286Y0072794D03*
X0170286Y0072951D03*
X0185444Y0072636D03*
X0198436Y0058660D03*
D23*
X0198278Y0058227D03*
X0184144Y0058227D03*
X0185601Y0072951D03*
D24*
X0199597Y0072951D03*
X0199597Y0072794D03*
D25*
X0199538Y0072636D03*
X0185522Y0072794D03*
X0198357Y0058503D03*
D26*
X0199381Y0072361D03*
D27*
X0199322Y0072203D03*
X0185306Y0072203D03*
X0184440Y0058936D03*
X0198573Y0058936D03*
X0198573Y0059093D03*
D28*
X0198652Y0059231D03*
X0199243Y0072066D03*
X0185227Y0072066D03*
D29*
X0185168Y0071928D03*
D30*
X0199243Y0071928D03*
X0184518Y0059093D03*
D31*
X0184656Y0059369D03*
X0198790Y0059526D03*
X0185089Y0071770D03*
D32*
X0199164Y0071770D03*
X0198731Y0059369D03*
D33*
X0185089Y0071633D03*
D34*
X0199085Y0071633D03*
D35*
X0199026Y0071495D03*
X0185010Y0071495D03*
X0184735Y0059684D03*
X0184735Y0059526D03*
X0198869Y0059684D03*
D36*
X0198948Y0071337D03*
X0184932Y0071337D03*
D37*
X0184873Y0071180D03*
D38*
X0198869Y0071180D03*
D39*
X0150227Y0071042D03*
X0150227Y0070609D03*
X0150227Y0070176D03*
X0150227Y0069585D03*
X0150227Y0069152D03*
X0150227Y0068562D03*
X0150227Y0068129D03*
X0150227Y0067696D03*
X0150227Y0067105D03*
X0150227Y0066672D03*
X0150227Y0066239D03*
X0150227Y0065648D03*
X0150227Y0065215D03*
X0150227Y0064625D03*
X0150227Y0064192D03*
X0150227Y0063759D03*
X0150227Y0063168D03*
X0150227Y0062735D03*
X0150227Y0062302D03*
X0150227Y0061711D03*
X0150227Y0061278D03*
X0150227Y0060688D03*
X0150227Y0060255D03*
X0150227Y0059822D03*
X0150227Y0059231D03*
X0150227Y0058798D03*
X0150227Y0058365D03*
D40*
X0161251Y0066672D03*
X0161251Y0067105D03*
X0161251Y0067696D03*
X0161251Y0068129D03*
X0161251Y0068562D03*
X0161251Y0069152D03*
X0161251Y0069585D03*
X0161251Y0070176D03*
X0161251Y0070609D03*
X0161251Y0071042D03*
D41*
X0154696Y0064192D03*
X0155562Y0063168D03*
X0157609Y0060688D03*
X0157885Y0060255D03*
X0159066Y0058798D03*
X0159499Y0058365D03*
X0159932Y0057774D03*
X0160365Y0057341D03*
X0160798Y0056751D03*
X0161546Y0055885D03*
X0161979Y0055294D03*
X0162412Y0054861D03*
X0182097Y0062302D03*
X0194774Y0060688D03*
X0201349Y0068562D03*
X0202215Y0069585D03*
X0189381Y0071042D03*
X0188672Y0070176D03*
D42*
X0188140Y0069585D03*
X0187274Y0068562D03*
X0185385Y0066239D03*
X0184951Y0065648D03*
X0183337Y0063759D03*
X0182471Y0062735D03*
X0181290Y0061278D03*
X0195306Y0061278D03*
X0195581Y0061711D03*
X0196172Y0062302D03*
X0198062Y0064625D03*
X0200109Y0067105D03*
X0200975Y0068129D03*
X0203022Y0070609D03*
X0203455Y0071042D03*
X0163219Y0053837D03*
X0161172Y0056318D03*
D43*
X0150227Y0058070D03*
X0150227Y0058227D03*
X0150227Y0058503D03*
X0150227Y0058660D03*
X0150227Y0058936D03*
X0150227Y0059093D03*
X0150227Y0059369D03*
X0150227Y0059526D03*
X0150227Y0059684D03*
X0150227Y0059959D03*
X0150227Y0060117D03*
X0150227Y0060392D03*
X0150227Y0060550D03*
X0150227Y0060825D03*
X0150227Y0060983D03*
X0150227Y0061140D03*
X0150227Y0061416D03*
X0150227Y0061573D03*
X0150227Y0061849D03*
X0150227Y0062007D03*
X0150227Y0062164D03*
X0150227Y0062440D03*
X0150227Y0062597D03*
X0150227Y0062873D03*
X0150227Y0063030D03*
X0150227Y0063306D03*
X0150227Y0063463D03*
X0150227Y0063621D03*
X0150227Y0063896D03*
X0150227Y0064054D03*
X0150227Y0064329D03*
X0150227Y0064487D03*
X0150227Y0064762D03*
X0150227Y0064920D03*
X0150227Y0065077D03*
X0150227Y0065353D03*
X0150227Y0065510D03*
X0150227Y0065786D03*
X0150227Y0065944D03*
X0150227Y0066101D03*
X0150227Y0066377D03*
X0150227Y0066534D03*
X0150227Y0066810D03*
X0150227Y0066967D03*
X0150227Y0067243D03*
X0150227Y0067400D03*
X0150227Y0067558D03*
X0150227Y0067833D03*
X0150227Y0067991D03*
X0150227Y0068266D03*
X0150227Y0068424D03*
X0150227Y0068699D03*
X0150227Y0068857D03*
X0150227Y0069014D03*
X0150227Y0069290D03*
X0150227Y0069448D03*
X0150227Y0069723D03*
X0150227Y0069881D03*
X0150227Y0070038D03*
X0150227Y0070314D03*
X0150227Y0070471D03*
X0150227Y0070747D03*
X0150227Y0070904D03*
D44*
X0161251Y0070904D03*
X0161251Y0070747D03*
X0161251Y0070471D03*
X0161251Y0070314D03*
X0161251Y0070038D03*
X0161251Y0069881D03*
X0161251Y0069723D03*
X0161251Y0069448D03*
X0161251Y0069290D03*
X0161251Y0069014D03*
X0161251Y0068857D03*
X0161251Y0068699D03*
X0161251Y0068424D03*
X0161251Y0068266D03*
X0161251Y0067991D03*
X0161251Y0067833D03*
X0161251Y0067558D03*
X0161251Y0067400D03*
X0161251Y0067243D03*
X0161251Y0066967D03*
X0161251Y0066810D03*
D45*
X0155266Y0063463D03*
X0154833Y0064054D03*
X0154400Y0064487D03*
X0157314Y0060983D03*
X0157747Y0060550D03*
X0157747Y0060392D03*
X0158180Y0059959D03*
X0159203Y0058660D03*
X0159794Y0058070D03*
X0159794Y0057912D03*
X0160227Y0057479D03*
X0160660Y0056888D03*
X0161251Y0056180D03*
X0161684Y0055747D03*
X0162117Y0055156D03*
X0162274Y0054999D03*
X0181369Y0061416D03*
X0184282Y0064920D03*
X0189243Y0070904D03*
X0200030Y0066967D03*
X0199164Y0065944D03*
X0201487Y0068699D03*
X0202077Y0069448D03*
D46*
X0202294Y0069723D03*
X0203318Y0070904D03*
X0201270Y0068424D03*
X0200837Y0067991D03*
X0200404Y0067400D03*
X0200247Y0067243D03*
X0198790Y0065510D03*
X0198357Y0064920D03*
X0197924Y0064487D03*
X0195877Y0062007D03*
X0195444Y0061416D03*
X0195010Y0060983D03*
X0185522Y0066377D03*
X0185089Y0065944D03*
X0184656Y0065353D03*
X0183199Y0063621D03*
X0183042Y0063463D03*
X0182609Y0062873D03*
X0182176Y0062440D03*
X0181152Y0061140D03*
X0187136Y0068266D03*
X0187570Y0068857D03*
X0188003Y0069448D03*
X0188436Y0069881D03*
X0188593Y0070038D03*
X0160444Y0057203D03*
X0161900Y0055432D03*
X0162491Y0054723D03*
D47*
X0162629Y0054566D03*
X0163062Y0053975D03*
X0161762Y0055589D03*
X0180857Y0060825D03*
X0181014Y0060983D03*
X0181448Y0061573D03*
X0181723Y0061849D03*
X0181881Y0062007D03*
X0182038Y0062164D03*
X0182314Y0062597D03*
X0182747Y0063030D03*
X0182904Y0063306D03*
X0183495Y0063896D03*
X0183770Y0064329D03*
X0183928Y0064487D03*
X0184203Y0064762D03*
X0184361Y0065077D03*
X0184794Y0065510D03*
X0185227Y0066101D03*
X0185660Y0066534D03*
X0185818Y0066810D03*
X0185975Y0066967D03*
X0186251Y0067243D03*
X0186408Y0067400D03*
X0186684Y0067833D03*
X0186841Y0067991D03*
X0187432Y0068699D03*
X0187707Y0069014D03*
X0188298Y0069723D03*
X0188731Y0070314D03*
X0188888Y0070471D03*
X0189164Y0070747D03*
X0198652Y0065353D03*
X0199085Y0065786D03*
X0199243Y0066101D03*
X0199518Y0066377D03*
X0199676Y0066534D03*
X0200542Y0067558D03*
X0200699Y0067833D03*
X0201133Y0068266D03*
X0201566Y0068857D03*
X0201723Y0069014D03*
X0201999Y0069290D03*
X0202432Y0069881D03*
X0202589Y0070038D03*
X0203180Y0070747D03*
X0198219Y0064762D03*
X0197786Y0064329D03*
X0197629Y0064054D03*
X0197471Y0063896D03*
X0197196Y0063621D03*
X0197038Y0063463D03*
X0196762Y0063030D03*
X0196605Y0062873D03*
X0196014Y0062164D03*
X0195739Y0061849D03*
X0195148Y0061140D03*
D48*
X0196467Y0062735D03*
X0196900Y0063168D03*
X0197333Y0063759D03*
X0198948Y0065648D03*
X0199381Y0066239D03*
X0199814Y0066672D03*
X0201861Y0069152D03*
X0202727Y0070176D03*
X0189026Y0070609D03*
X0186979Y0068129D03*
X0186546Y0067696D03*
X0186113Y0067105D03*
X0184499Y0065215D03*
X0184066Y0064625D03*
X0183633Y0064192D03*
X0181585Y0061711D03*
X0180719Y0060688D03*
D49*
X0183554Y0064054D03*
X0185010Y0065786D03*
X0186467Y0067558D03*
X0187215Y0068424D03*
X0187924Y0069290D03*
X0196979Y0063306D03*
X0196388Y0062597D03*
X0196231Y0062440D03*
X0195522Y0061573D03*
X0194932Y0060825D03*
X0198436Y0065077D03*
X0199892Y0066810D03*
X0202806Y0070314D03*
X0202963Y0070471D03*
X0163003Y0054133D03*
X0162845Y0054290D03*
X0161388Y0056022D03*
X0161113Y0056455D03*
X0160955Y0056613D03*
X0160522Y0057046D03*
X0160089Y0057636D03*
X0159656Y0058227D03*
X0159341Y0058503D03*
X0159066Y0058936D03*
X0158908Y0059093D03*
X0158633Y0059369D03*
X0158475Y0059526D03*
X0158475Y0059684D03*
X0158042Y0060117D03*
X0157451Y0060825D03*
X0157176Y0061140D03*
X0157018Y0061416D03*
X0156861Y0061573D03*
X0156585Y0061849D03*
X0156428Y0062007D03*
X0156152Y0062440D03*
X0155995Y0062597D03*
X0155404Y0063306D03*
X0155129Y0063621D03*
X0154538Y0064329D03*
D50*
X0155857Y0062735D03*
X0156290Y0062302D03*
X0156723Y0061711D03*
X0158337Y0059822D03*
X0158770Y0059231D03*
X0162707Y0054428D03*
X0182825Y0063168D03*
X0185739Y0066672D03*
X0187786Y0069152D03*
X0197707Y0064192D03*
X0198573Y0065215D03*
X0200621Y0067696D03*
D51*
X0156881Y0066534D03*
D52*
X0173416Y0066534D03*
X0173416Y0066377D03*
X0173416Y0066101D03*
X0173416Y0065944D03*
X0173416Y0065786D03*
X0173416Y0065510D03*
X0173416Y0065353D03*
X0173416Y0065077D03*
X0173416Y0064920D03*
X0173416Y0064762D03*
D53*
X0156940Y0066377D03*
D54*
X0157018Y0066239D03*
D55*
X0173416Y0066239D03*
X0173416Y0065648D03*
X0173416Y0065215D03*
X0173416Y0064625D03*
D56*
X0157097Y0065944D03*
X0157097Y0066101D03*
D57*
X0157176Y0065786D03*
D58*
X0157235Y0065648D03*
D59*
X0157314Y0065510D03*
D60*
X0157392Y0065353D03*
D61*
X0157392Y0065215D03*
D62*
X0157451Y0065077D03*
D63*
X0157530Y0064920D03*
D64*
X0157609Y0064762D03*
D65*
X0157688Y0064625D03*
D66*
X0155798Y0062873D03*
X0155640Y0063030D03*
X0156349Y0062164D03*
X0154892Y0063896D03*
D67*
X0155050Y0063759D03*
X0157097Y0061278D03*
D68*
X0184794Y0059822D03*
D69*
X0198869Y0059822D03*
D70*
X0184577Y0059231D03*
D71*
X0184440Y0058798D03*
D72*
X0184282Y0058503D03*
D73*
X0184223Y0058365D03*
D74*
X0198278Y0058365D03*
D75*
X0184066Y0058070D03*
X0184066Y0057912D03*
D76*
X0198062Y0057912D03*
X0198219Y0058070D03*
M02*
