%
M48
M72
T01C0.0150
T02C0.0354
T03C0.0400
T04C0.0512
T05C0.0900
%
T01
X9833Y5500
X19833Y4950
X19833Y4000
X26833Y6000
X27333Y6000
X23833Y7300
X21683Y7300
X26833Y8000
X25333Y11500
X19833Y11500
X19833Y13000
X10333Y9700
T02
X9849Y12000
X11818Y12000
T03
X9833Y4000
X10833Y4000
X11833Y4000
X12833Y4000
X13833Y4000
X14833Y4000
X15833Y4000
X16833Y4000
X17833Y4000
X18833Y4000
X17833Y5000
X16833Y5000
X15833Y5000
X14833Y5000
X13833Y5000
X12833Y5000
X11833Y5000
X10833Y5000
X13333Y7500
X13333Y8500
X13333Y9500
X12833Y13000
X11833Y13000
X10833Y13000
X9833Y13000
X13833Y13000
X14833Y13000
X15833Y13000
X16833Y13000
X17833Y13000
X18833Y13000
X27833Y12950
X28833Y12950
X29833Y12950
X29833Y7250
X27833Y7250
T04
X10833Y7031
X10833Y9000
T05
X26233Y10000
X31433Y10000
M30
