G75*
%MOIN*%
%OFA0B0*%
%FSLAX25Y25*%
%IPPOS*%
%LPD*%
%AMOC8*
5,1,8,0,0,1.08239X$1,22.5*
%
%ADD10R,0.02559X0.08661*%
%ADD11R,0.04331X0.03937*%
%ADD12R,0.11811X0.05512*%
%ADD13R,0.06299X0.07087*%
%ADD14R,0.04724X0.07874*%
%ADD15R,0.02362X0.05315*%
%ADD16R,0.03543X0.03150*%
%ADD17R,0.03937X0.04331*%
%ADD18R,0.03543X0.03937*%
%ADD19R,0.03976X0.03976*%
%ADD20R,0.16024X0.06969*%
%ADD21R,0.06969X0.16024*%
%ADD22R,0.04724X0.02165*%
D10*
X0157546Y0102520D03*
X0157546Y0117087D03*
D11*
X0154987Y0095000D03*
X0161680Y0095000D03*
X0209987Y0115000D03*
X0216680Y0115000D03*
X0284987Y0067500D03*
X0291680Y0067500D03*
X0291680Y0060000D03*
X0284987Y0060000D03*
D12*
X0247782Y0090000D03*
X0228885Y0090000D03*
D13*
X0138845Y0110000D03*
X0127822Y0110000D03*
D14*
X0222310Y0129469D03*
X0244357Y0129469D03*
D15*
X0239239Y0115000D03*
X0235302Y0115000D03*
X0231365Y0115000D03*
X0227428Y0115000D03*
D16*
X0150164Y0090000D03*
X0141896Y0093740D03*
X0141896Y0086260D03*
D17*
X0168333Y0078346D03*
X0168333Y0071654D03*
X0238333Y0068346D03*
X0248333Y0068346D03*
X0258333Y0068346D03*
X0258333Y0061654D03*
X0248333Y0061654D03*
X0238333Y0061654D03*
D18*
X0280262Y0050650D03*
X0296404Y0050650D03*
X0296404Y0044350D03*
X0280262Y0044350D03*
D19*
X0216483Y0067362D03*
X0198727Y0067362D03*
X0189711Y0067362D03*
X0180696Y0067362D03*
X0180696Y0076378D03*
X0180696Y0085394D03*
X0216483Y0085394D03*
D20*
X0203215Y0103386D03*
X0185223Y0103386D03*
D21*
X0216719Y0098898D03*
D22*
X0143215Y0071260D03*
X0153452Y0071260D03*
X0153452Y0075000D03*
X0153452Y0078740D03*
X0143215Y0078740D03*
M02*
