%
M48
M72
T01C0.0150
T02C0.0354
T03C0.0400
T04C0.0512
T05C0.0900
%
T01
X17818Y6833
X21333Y5783
X23833Y7483
X22183Y8133
X20833Y8283
X18833Y10283
X19583Y12483
X27833Y7333
X31333Y7333
T02
X11818Y12833
X9849Y12833
T03
X11833Y4833
X12833Y4833
X13833Y4833
X14833Y4833
X15833Y4833
X16833Y4833
X17833Y4833
X18833Y4833
X19833Y4833
X20833Y4833
X21833Y4833
X22833Y4833
X23833Y4833
X24833Y4833
X25833Y4833
X26833Y4833
X26833Y5833
X25833Y5833
X24833Y5833
X23833Y5833
X23833Y6833
X24833Y6833
X25833Y6833
X26833Y6833
X27833Y8083
X29833Y8083
X29833Y13783
X28833Y13783
X27833Y13783
X22833Y13833
X21833Y13833
X20833Y13833
X19833Y13833
X18833Y13833
X17833Y13833
X16833Y13833
X15833Y13833
X14833Y13833
X13833Y13833
X12833Y13833
X11833Y13833
X13333Y10333
X13333Y9333
X13333Y8333
T04
X10833Y7865
X10833Y9833
T05
X26233Y10833
X31433Y10833
M30
