G75*
%MOIN*%
%OFA0B0*%
%FSLAX25Y25*%
%IPPOS*%
%LPD*%
%AMOC8*
5,1,8,0,0,1.08239X$1,22.5*
%
%ADD10C,0.08400*%
%ADD11R,0.08400X0.08400*%
%ADD12R,0.08800X0.08800*%
%ADD13C,0.08800*%
%ADD14C,0.08200*%
%ADD15C,0.06800*%
%ADD16C,0.13800*%
D10*
X0098491Y0128333D03*
D11*
X0118176Y0128333D03*
D12*
X0108333Y0098333D03*
D13*
X0108333Y0078648D03*
D14*
X0118333Y0048333D03*
X0128333Y0048333D03*
X0138333Y0048333D03*
X0148333Y0048333D03*
X0158333Y0048333D03*
X0168333Y0048333D03*
X0178333Y0048333D03*
X0188333Y0048333D03*
X0198333Y0048333D03*
X0208333Y0048333D03*
X0218333Y0048333D03*
X0228333Y0048333D03*
X0238333Y0048333D03*
X0248333Y0048333D03*
X0258333Y0048333D03*
X0268333Y0048333D03*
X0268333Y0058333D03*
X0258333Y0058333D03*
X0248333Y0058333D03*
X0238333Y0058333D03*
X0238333Y0068333D03*
X0248333Y0068333D03*
X0258333Y0068333D03*
X0268333Y0068333D03*
X0133333Y0083333D03*
X0133333Y0093333D03*
X0133333Y0103333D03*
X0128333Y0138333D03*
X0118333Y0138333D03*
X0138333Y0138333D03*
X0148333Y0138333D03*
X0158333Y0138333D03*
X0168333Y0138333D03*
X0178333Y0138333D03*
X0188333Y0138333D03*
X0198333Y0138333D03*
X0208333Y0138333D03*
X0218333Y0138333D03*
X0228333Y0138333D03*
D15*
X0278333Y0137833D03*
X0288333Y0137833D03*
X0298333Y0137833D03*
X0298333Y0080833D03*
X0278333Y0080833D03*
D16*
X0262333Y0108333D03*
X0314333Y0108333D03*
M02*
