G75*
%MOIN*%
%OFA0B0*%
%FSLAX25Y25*%
%IPPOS*%
%LPD*%
%AMOC8*
5,1,8,0,0,1.08239X$1,22.5*
%
%ADD10R,0.02559X0.08661*%
%ADD11R,0.04331X0.03937*%
%ADD12R,0.11811X0.05512*%
%ADD13C,0.07600*%
%ADD14R,0.07600X0.07600*%
%ADD15R,0.06299X0.07087*%
%ADD16R,0.08000X0.08000*%
%ADD17C,0.08000*%
%ADD18C,0.07400*%
%ADD19R,0.03543X0.03150*%
%ADD20R,0.03937X0.04331*%
%ADD21C,0.06000*%
%ADD22C,0.13000*%
%ADD23R,0.06000X0.03000*%
%ADD24R,0.03976X0.03976*%
%ADD25R,0.16024X0.06969*%
%ADD26R,0.06969X0.16024*%
%ADD27R,0.04724X0.02165*%
%ADD28C,0.00800*%
%ADD29C,0.02900*%
%ADD30C,0.05000*%
%ADD31C,0.04000*%
%ADD32C,0.06000*%
%ADD33C,0.07000*%
D10*
X0157546Y0110853D03*
X0157546Y0125420D03*
D11*
X0202487Y0125833D03*
X0209180Y0125833D03*
X0171680Y0098333D03*
X0164987Y0098333D03*
X0284987Y0073333D03*
X0291680Y0073333D03*
X0299987Y0073333D03*
X0306680Y0073333D03*
D12*
X0247782Y0103333D03*
X0228885Y0103333D03*
D13*
X0098491Y0128333D03*
D14*
X0118176Y0128333D03*
D15*
X0127822Y0118333D03*
X0138845Y0118333D03*
D16*
X0108333Y0098333D03*
D17*
X0108333Y0078648D03*
D18*
X0133333Y0083333D03*
X0133333Y0093333D03*
X0133333Y0103333D03*
X0128333Y0138333D03*
X0118333Y0138333D03*
X0138333Y0138333D03*
X0148333Y0138333D03*
X0158333Y0138333D03*
X0168333Y0138333D03*
X0178333Y0138333D03*
X0188333Y0138333D03*
X0198333Y0138333D03*
X0208333Y0138333D03*
X0218333Y0138333D03*
X0228333Y0138333D03*
X0238333Y0068333D03*
X0248333Y0068333D03*
X0258333Y0068333D03*
X0268333Y0068333D03*
X0268333Y0058333D03*
X0258333Y0058333D03*
X0248333Y0058333D03*
X0238333Y0058333D03*
X0238333Y0048333D03*
X0228333Y0048333D03*
X0218333Y0048333D03*
X0208333Y0048333D03*
X0198333Y0048333D03*
X0188333Y0048333D03*
X0178333Y0048333D03*
X0168333Y0048333D03*
X0158333Y0048333D03*
X0148333Y0048333D03*
X0138333Y0048333D03*
X0128333Y0048333D03*
X0118333Y0048333D03*
X0248333Y0048333D03*
X0258333Y0048333D03*
X0268333Y0048333D03*
D19*
X0146896Y0094593D03*
X0155164Y0098333D03*
X0146896Y0102073D03*
D20*
X0168333Y0086680D03*
X0168333Y0079987D03*
X0238333Y0079987D03*
X0248333Y0079987D03*
X0248333Y0086680D03*
X0238333Y0086680D03*
D21*
X0278333Y0080833D03*
X0298333Y0080833D03*
X0298333Y0137833D03*
X0288333Y0137833D03*
X0278333Y0137833D03*
D22*
X0262333Y0108333D03*
X0314333Y0108333D03*
D23*
X0299333Y0065833D03*
X0277333Y0065833D03*
X0277333Y0050833D03*
X0299333Y0050833D03*
D24*
X0216483Y0080696D03*
X0198727Y0080696D03*
X0189711Y0080696D03*
X0180696Y0080696D03*
X0180696Y0089711D03*
X0180696Y0098727D03*
X0216483Y0098727D03*
D25*
X0203215Y0116719D03*
X0185223Y0116719D03*
D26*
X0216719Y0112231D03*
D27*
X0158452Y0087073D03*
X0158452Y0083333D03*
X0158452Y0079593D03*
X0148215Y0079593D03*
X0148215Y0087073D03*
D28*
X0094833Y0124637D02*
X0094833Y0044833D01*
X0115045Y0044833D01*
X0114264Y0045614D01*
X0113533Y0047379D01*
X0113533Y0049288D01*
X0114264Y0051052D01*
X0115614Y0052403D01*
X0117379Y0053133D01*
X0119288Y0053133D01*
X0121052Y0052403D01*
X0122403Y0051052D01*
X0123133Y0049288D01*
X0123133Y0047379D01*
X0122403Y0045614D01*
X0121622Y0044833D01*
X0125045Y0044833D01*
X0124264Y0045614D01*
X0123533Y0047379D01*
X0123533Y0049288D01*
X0124264Y0051052D01*
X0125614Y0052403D01*
X0127379Y0053133D01*
X0129288Y0053133D01*
X0131052Y0052403D01*
X0132403Y0051052D01*
X0133133Y0049288D01*
X0133133Y0047379D01*
X0132403Y0045614D01*
X0131622Y0044833D01*
X0135045Y0044833D01*
X0134264Y0045614D01*
X0133533Y0047379D01*
X0133533Y0049288D01*
X0134264Y0051052D01*
X0135614Y0052403D01*
X0137379Y0053133D01*
X0139288Y0053133D01*
X0141052Y0052403D01*
X0142403Y0051052D01*
X0143133Y0049288D01*
X0143133Y0047379D01*
X0142403Y0045614D01*
X0141622Y0044833D01*
X0144621Y0044833D01*
X0144443Y0045011D01*
X0143971Y0045660D01*
X0143607Y0046376D01*
X0143359Y0047139D01*
X0143233Y0047932D01*
X0143233Y0047933D01*
X0147933Y0047933D01*
X0147933Y0048733D01*
X0143233Y0048733D01*
X0143233Y0048735D01*
X0143359Y0049528D01*
X0143607Y0050291D01*
X0143971Y0051006D01*
X0144443Y0051656D01*
X0145011Y0052223D01*
X0145660Y0052695D01*
X0146376Y0053060D01*
X0147139Y0053308D01*
X0147932Y0053433D01*
X0147933Y0053433D01*
X0147933Y0048733D01*
X0148733Y0048733D01*
X0148733Y0053433D01*
X0148735Y0053433D01*
X0149528Y0053308D01*
X0150291Y0053060D01*
X0151006Y0052695D01*
X0151656Y0052223D01*
X0152223Y0051656D01*
X0152695Y0051006D01*
X0153060Y0050291D01*
X0153308Y0049528D01*
X0153433Y0048735D01*
X0153433Y0048733D01*
X0148733Y0048733D01*
X0148733Y0047933D01*
X0153433Y0047933D01*
X0153433Y0047932D01*
X0153308Y0047139D01*
X0153060Y0046376D01*
X0152695Y0045660D01*
X0152223Y0045011D01*
X0152046Y0044833D01*
X0155045Y0044833D01*
X0154264Y0045614D01*
X0153533Y0047379D01*
X0153533Y0049288D01*
X0154264Y0051052D01*
X0155614Y0052403D01*
X0157379Y0053133D01*
X0159288Y0053133D01*
X0161052Y0052403D01*
X0162403Y0051052D01*
X0163133Y0049288D01*
X0163133Y0047379D01*
X0162403Y0045614D01*
X0161622Y0044833D01*
X0165045Y0044833D01*
X0164264Y0045614D01*
X0163533Y0047379D01*
X0163533Y0049288D01*
X0164264Y0051052D01*
X0165614Y0052403D01*
X0167379Y0053133D01*
X0169288Y0053133D01*
X0171052Y0052403D01*
X0172403Y0051052D01*
X0173133Y0049288D01*
X0173133Y0047379D01*
X0172403Y0045614D01*
X0171622Y0044833D01*
X0175045Y0044833D01*
X0174264Y0045614D01*
X0173533Y0047379D01*
X0173533Y0049288D01*
X0174264Y0051052D01*
X0175614Y0052403D01*
X0177379Y0053133D01*
X0179288Y0053133D01*
X0181052Y0052403D01*
X0182403Y0051052D01*
X0183133Y0049288D01*
X0183133Y0047379D01*
X0182403Y0045614D01*
X0181622Y0044833D01*
X0185045Y0044833D01*
X0184264Y0045614D01*
X0183533Y0047379D01*
X0183533Y0049288D01*
X0184264Y0051052D01*
X0185614Y0052403D01*
X0187379Y0053133D01*
X0189288Y0053133D01*
X0191052Y0052403D01*
X0192403Y0051052D01*
X0193133Y0049288D01*
X0193133Y0047379D01*
X0192403Y0045614D01*
X0191622Y0044833D01*
X0195045Y0044833D01*
X0194264Y0045614D01*
X0193533Y0047379D01*
X0193533Y0049288D01*
X0194264Y0051052D01*
X0195614Y0052403D01*
X0197379Y0053133D01*
X0199288Y0053133D01*
X0201052Y0052403D01*
X0202403Y0051052D01*
X0203133Y0049288D01*
X0203133Y0047379D01*
X0202403Y0045614D01*
X0201622Y0044833D01*
X0205045Y0044833D01*
X0204264Y0045614D01*
X0203533Y0047379D01*
X0203533Y0049288D01*
X0204264Y0051052D01*
X0205614Y0052403D01*
X0207379Y0053133D01*
X0209288Y0053133D01*
X0211052Y0052403D01*
X0212403Y0051052D01*
X0213133Y0049288D01*
X0213133Y0047379D01*
X0212403Y0045614D01*
X0211622Y0044833D01*
X0215045Y0044833D01*
X0214264Y0045614D01*
X0213533Y0047379D01*
X0213533Y0049288D01*
X0214264Y0051052D01*
X0215614Y0052403D01*
X0217379Y0053133D01*
X0219288Y0053133D01*
X0221052Y0052403D01*
X0222403Y0051052D01*
X0223133Y0049288D01*
X0223133Y0047379D01*
X0222403Y0045614D01*
X0221622Y0044833D01*
X0225045Y0044833D01*
X0224264Y0045614D01*
X0223533Y0047379D01*
X0223533Y0049288D01*
X0224264Y0051052D01*
X0225614Y0052403D01*
X0227379Y0053133D01*
X0229288Y0053133D01*
X0231052Y0052403D01*
X0232403Y0051052D01*
X0233133Y0049288D01*
X0233133Y0047379D01*
X0232403Y0045614D01*
X0231622Y0044833D01*
X0235045Y0044833D01*
X0234264Y0045614D01*
X0233533Y0047379D01*
X0233533Y0049288D01*
X0234264Y0051052D01*
X0235614Y0052403D01*
X0237379Y0053133D01*
X0239288Y0053133D01*
X0241052Y0052403D01*
X0242403Y0051052D01*
X0243133Y0049288D01*
X0243133Y0047379D01*
X0242403Y0045614D01*
X0241622Y0044833D01*
X0245045Y0044833D01*
X0244264Y0045614D01*
X0243533Y0047379D01*
X0243533Y0049288D01*
X0244264Y0051052D01*
X0245614Y0052403D01*
X0247379Y0053133D01*
X0249288Y0053133D01*
X0250507Y0052628D01*
X0254038Y0056160D01*
X0253533Y0057379D01*
X0253533Y0059288D01*
X0254264Y0061052D01*
X0255614Y0062403D01*
X0256833Y0062907D01*
X0256833Y0063759D01*
X0255614Y0064264D01*
X0254264Y0065614D01*
X0253533Y0067379D01*
X0253533Y0069288D01*
X0254264Y0071052D01*
X0255614Y0072403D01*
X0257379Y0073133D01*
X0259288Y0073133D01*
X0261052Y0072403D01*
X0262403Y0071052D01*
X0263133Y0069288D01*
X0263133Y0067379D01*
X0262403Y0065614D01*
X0261052Y0064264D01*
X0259833Y0063759D01*
X0259833Y0062907D01*
X0261052Y0062403D01*
X0262403Y0061052D01*
X0263133Y0059288D01*
X0263133Y0057379D01*
X0262403Y0055614D01*
X0261052Y0054264D01*
X0259288Y0053533D01*
X0257379Y0053533D01*
X0256160Y0054038D01*
X0252628Y0050507D01*
X0253133Y0049288D01*
X0253133Y0047379D01*
X0252403Y0045614D01*
X0251622Y0044833D01*
X0255045Y0044833D01*
X0254264Y0045614D01*
X0253533Y0047379D01*
X0253533Y0049288D01*
X0254264Y0051052D01*
X0255614Y0052403D01*
X0257379Y0053133D01*
X0259288Y0053133D01*
X0260507Y0052628D01*
X0264038Y0056160D01*
X0263533Y0057379D01*
X0263533Y0059288D01*
X0264264Y0061052D01*
X0265614Y0062403D01*
X0267379Y0063133D01*
X0269288Y0063133D01*
X0271052Y0062403D01*
X0271833Y0061622D01*
X0271833Y0062712D01*
X0270507Y0064038D01*
X0269288Y0063533D01*
X0267379Y0063533D01*
X0265614Y0064264D01*
X0264264Y0065614D01*
X0263533Y0067379D01*
X0263533Y0069288D01*
X0264264Y0071052D01*
X0265614Y0072403D01*
X0267379Y0073133D01*
X0269288Y0073133D01*
X0271052Y0072403D01*
X0272403Y0071052D01*
X0273133Y0069288D01*
X0273133Y0067379D01*
X0272628Y0066160D01*
X0273233Y0065555D01*
X0273233Y0067789D01*
X0273878Y0068433D01*
X0275833Y0068433D01*
X0275833Y0068712D01*
X0271833Y0072712D01*
X0271833Y0122712D01*
X0266712Y0127833D01*
X0212445Y0127833D01*
X0212445Y0127333D01*
X0214955Y0127333D01*
X0218219Y0124069D01*
X0218219Y0121343D01*
X0220659Y0121343D01*
X0221303Y0120698D01*
X0221303Y0106882D01*
X0222216Y0106882D01*
X0222523Y0107189D01*
X0226953Y0107189D01*
X0227418Y0107382D01*
X0227945Y0107382D01*
X0228069Y0107433D01*
X0229700Y0107433D01*
X0230289Y0107189D01*
X0235246Y0107189D01*
X0235890Y0106545D01*
X0235890Y0100122D01*
X0235246Y0099477D01*
X0232933Y0099477D01*
X0232933Y0072933D01*
X0236627Y0072933D01*
X0236172Y0073389D01*
X0235783Y0074326D01*
X0235783Y0075341D01*
X0236172Y0076278D01*
X0236615Y0076722D01*
X0235909Y0076722D01*
X0235265Y0077366D01*
X0235265Y0082608D01*
X0235909Y0083252D01*
X0240757Y0083252D01*
X0241402Y0082608D01*
X0241402Y0077366D01*
X0240757Y0076722D01*
X0240051Y0076722D01*
X0240495Y0076278D01*
X0240883Y0075341D01*
X0240883Y0074326D01*
X0240495Y0073389D01*
X0239961Y0072855D01*
X0241052Y0072403D01*
X0242403Y0071052D01*
X0243133Y0069288D01*
X0243133Y0067379D01*
X0242933Y0066896D01*
X0242933Y0059771D01*
X0243133Y0059288D01*
X0243133Y0057379D01*
X0242403Y0055614D01*
X0241052Y0054264D01*
X0239288Y0053533D01*
X0237379Y0053533D01*
X0235614Y0054264D01*
X0234264Y0055614D01*
X0233533Y0057379D01*
X0233533Y0059288D01*
X0233733Y0059771D01*
X0233733Y0063733D01*
X0177261Y0063733D01*
X0175570Y0064434D01*
X0174276Y0065728D01*
X0173576Y0067418D01*
X0173576Y0069248D01*
X0174034Y0070354D01*
X0167666Y0076722D01*
X0165909Y0076722D01*
X0165265Y0077366D01*
X0165265Y0082608D01*
X0165909Y0083252D01*
X0170757Y0083252D01*
X0171402Y0082608D01*
X0171402Y0077366D01*
X0171333Y0077297D01*
X0176155Y0072475D01*
X0177261Y0072933D01*
X0223733Y0072933D01*
X0223733Y0079627D01*
X0223278Y0079172D01*
X0222341Y0078783D01*
X0221326Y0078783D01*
X0220389Y0079172D01*
X0220365Y0079196D01*
X0219571Y0079196D01*
X0219571Y0078252D01*
X0218927Y0077607D01*
X0214039Y0077607D01*
X0213395Y0078252D01*
X0213395Y0083139D01*
X0214039Y0083784D01*
X0218927Y0083784D01*
X0219571Y0083139D01*
X0219571Y0082535D01*
X0219672Y0082778D01*
X0220389Y0083495D01*
X0221326Y0083883D01*
X0222341Y0083883D01*
X0223278Y0083495D01*
X0223733Y0083040D01*
X0223733Y0098682D01*
X0219819Y0098682D01*
X0219819Y0098069D01*
X0219571Y0097640D01*
X0219571Y0096283D01*
X0218927Y0095639D01*
X0217397Y0095639D01*
X0217377Y0095627D01*
X0215866Y0095627D01*
X0215838Y0095639D01*
X0214039Y0095639D01*
X0213395Y0096283D01*
X0213395Y0098082D01*
X0213383Y0098110D01*
X0213383Y0099344D01*
X0213395Y0099372D01*
X0213395Y0100308D01*
X0213243Y0100460D01*
X0212619Y0101967D01*
X0212619Y0103279D01*
X0212135Y0103764D01*
X0212135Y0112163D01*
X0212087Y0112115D01*
X0211767Y0111930D01*
X0211411Y0111835D01*
X0203615Y0111835D01*
X0203615Y0116319D01*
X0202815Y0116319D01*
X0202815Y0111835D01*
X0195019Y0111835D01*
X0194663Y0111930D01*
X0194344Y0112115D01*
X0194083Y0112375D01*
X0194027Y0112472D01*
X0193691Y0112135D01*
X0185730Y0112135D01*
X0182409Y0108814D01*
X0181396Y0107801D01*
X0180073Y0107253D01*
X0173180Y0107253D01*
X0173180Y0101402D01*
X0174301Y0101402D01*
X0174945Y0100757D01*
X0174945Y0095909D01*
X0174869Y0095833D01*
X0178057Y0095833D01*
X0177607Y0096283D01*
X0177607Y0101171D01*
X0178252Y0101815D01*
X0183139Y0101815D01*
X0183784Y0101171D01*
X0183784Y0096283D01*
X0183139Y0095639D01*
X0182196Y0095639D01*
X0182196Y0095074D01*
X0181317Y0094196D01*
X0179955Y0092833D01*
X0160212Y0092833D01*
X0159333Y0093712D01*
X0158333Y0094712D01*
X0158333Y0096833D01*
X0158036Y0096833D01*
X0158036Y0096303D01*
X0157391Y0095659D01*
X0152937Y0095659D01*
X0152292Y0096303D01*
X0152292Y0100364D01*
X0152937Y0101008D01*
X0157391Y0101008D01*
X0158036Y0100364D01*
X0158036Y0099833D01*
X0161722Y0099833D01*
X0161722Y0100757D01*
X0162366Y0101402D01*
X0167608Y0101402D01*
X0168252Y0100757D01*
X0168252Y0095909D01*
X0168176Y0095833D01*
X0168490Y0095833D01*
X0168414Y0095909D01*
X0168414Y0100757D01*
X0169059Y0101402D01*
X0170180Y0101402D01*
X0170180Y0107253D01*
X0159925Y0107253D01*
X0159925Y0106067D01*
X0159281Y0105422D01*
X0155811Y0105422D01*
X0155166Y0106067D01*
X0155166Y0107253D01*
X0150098Y0107253D01*
X0148774Y0107801D01*
X0147762Y0108814D01*
X0142668Y0113908D01*
X0142450Y0113690D01*
X0135240Y0113690D01*
X0134596Y0114334D01*
X0134596Y0122332D01*
X0135240Y0122977D01*
X0142450Y0122977D01*
X0143095Y0122332D01*
X0143095Y0121933D01*
X0144049Y0121933D01*
X0145373Y0121385D01*
X0152305Y0114453D01*
X0155166Y0114453D01*
X0155166Y0115639D01*
X0155811Y0116284D01*
X0159281Y0116284D01*
X0159925Y0115639D01*
X0159925Y0114453D01*
X0176111Y0114453D01*
X0176111Y0120659D01*
X0176756Y0121303D01*
X0193691Y0121303D01*
X0194027Y0120967D01*
X0194083Y0121063D01*
X0194344Y0121324D01*
X0194663Y0121508D01*
X0195019Y0121603D01*
X0202815Y0121603D01*
X0202815Y0117119D01*
X0203615Y0117119D01*
X0203615Y0121603D01*
X0211411Y0121603D01*
X0211767Y0121508D01*
X0212087Y0121324D01*
X0212347Y0121063D01*
X0212403Y0120967D01*
X0212779Y0121343D01*
X0215219Y0121343D01*
X0215219Y0122826D01*
X0213712Y0124333D01*
X0212445Y0124333D01*
X0212445Y0123409D01*
X0211801Y0122765D01*
X0206559Y0122765D01*
X0205966Y0123358D01*
X0205957Y0123324D01*
X0205772Y0123005D01*
X0205512Y0122745D01*
X0205193Y0122560D01*
X0204837Y0122465D01*
X0202887Y0122465D01*
X0202887Y0125433D01*
X0202087Y0125433D01*
X0202087Y0122465D01*
X0200137Y0122465D01*
X0199781Y0122560D01*
X0199462Y0122745D01*
X0199201Y0123005D01*
X0199017Y0123324D01*
X0198922Y0123680D01*
X0198922Y0125433D01*
X0202087Y0125433D01*
X0202087Y0126233D01*
X0198922Y0126233D01*
X0198922Y0127833D01*
X0172712Y0127833D01*
X0166833Y0133712D01*
X0166833Y0133759D01*
X0165614Y0134264D01*
X0164264Y0135614D01*
X0163533Y0137379D01*
X0163533Y0139288D01*
X0164264Y0141052D01*
X0165045Y0141833D01*
X0161622Y0141833D01*
X0162403Y0141052D01*
X0163133Y0139288D01*
X0163133Y0137379D01*
X0162403Y0135614D01*
X0161052Y0134264D01*
X0159288Y0133533D01*
X0157379Y0133533D01*
X0155614Y0134264D01*
X0154264Y0135614D01*
X0153533Y0137379D01*
X0153533Y0139288D01*
X0154264Y0141052D01*
X0155045Y0141833D01*
X0151622Y0141833D01*
X0152403Y0141052D01*
X0153133Y0139288D01*
X0153133Y0137379D01*
X0152403Y0135614D01*
X0151052Y0134264D01*
X0149288Y0133533D01*
X0147379Y0133533D01*
X0145614Y0134264D01*
X0144264Y0135614D01*
X0143533Y0137379D01*
X0143533Y0139288D01*
X0144264Y0141052D01*
X0145045Y0141833D01*
X0141622Y0141833D01*
X0142403Y0141052D01*
X0143133Y0139288D01*
X0143133Y0137379D01*
X0142403Y0135614D01*
X0141052Y0134264D01*
X0139288Y0133533D01*
X0138624Y0133533D01*
X0130373Y0125281D01*
X0129049Y0124733D01*
X0123076Y0124733D01*
X0123076Y0124078D01*
X0122431Y0123433D01*
X0113920Y0123433D01*
X0113276Y0124078D01*
X0113276Y0132589D01*
X0113920Y0133233D01*
X0122431Y0133233D01*
X0123076Y0132589D01*
X0123076Y0131933D01*
X0126842Y0131933D01*
X0128442Y0133533D01*
X0127379Y0133533D01*
X0125614Y0134264D01*
X0124264Y0135614D01*
X0123533Y0137379D01*
X0123533Y0139288D01*
X0124264Y0141052D01*
X0125045Y0141833D01*
X0121622Y0141833D01*
X0122403Y0141052D01*
X0123133Y0139288D01*
X0123133Y0137379D01*
X0122403Y0135614D01*
X0121052Y0134264D01*
X0119288Y0133533D01*
X0117379Y0133533D01*
X0115614Y0134264D01*
X0114264Y0135614D01*
X0113533Y0137379D01*
X0113533Y0139288D01*
X0114264Y0141052D01*
X0115045Y0141833D01*
X0094833Y0141833D01*
X0094833Y0132030D01*
X0095103Y0132300D01*
X0095765Y0132781D01*
X0096495Y0133152D01*
X0097273Y0133405D01*
X0098082Y0133533D01*
X0098091Y0133533D01*
X0098091Y0128733D01*
X0098891Y0128733D01*
X0103691Y0128733D01*
X0103691Y0128743D01*
X0103563Y0129551D01*
X0103310Y0130329D01*
X0102938Y0131059D01*
X0102457Y0131721D01*
X0101878Y0132300D01*
X0101216Y0132781D01*
X0100487Y0133152D01*
X0099708Y0133405D01*
X0098900Y0133533D01*
X0098891Y0133533D01*
X0098891Y0128733D01*
X0098891Y0127933D01*
X0098891Y0123133D01*
X0098900Y0123133D01*
X0099708Y0123261D01*
X0100487Y0123514D01*
X0101216Y0123886D01*
X0101878Y0124367D01*
X0102457Y0124946D01*
X0102938Y0125608D01*
X0103310Y0126337D01*
X0103563Y0127116D01*
X0103691Y0127924D01*
X0103691Y0127933D01*
X0098891Y0127933D01*
X0098091Y0127933D01*
X0098091Y0123133D01*
X0098082Y0123133D01*
X0097273Y0123261D01*
X0096495Y0123514D01*
X0095765Y0123886D01*
X0095103Y0124367D01*
X0094833Y0124637D01*
X0094833Y0123983D02*
X0095632Y0123983D01*
X0094833Y0123184D02*
X0097759Y0123184D01*
X0098091Y0123184D02*
X0098891Y0123184D01*
X0099223Y0123184D02*
X0154866Y0123184D01*
X0154866Y0122386D02*
X0143041Y0122386D01*
X0144884Y0121587D02*
X0154866Y0121587D01*
X0154866Y0120905D02*
X0154962Y0120549D01*
X0155146Y0120230D01*
X0155407Y0119969D01*
X0155726Y0119785D01*
X0156082Y0119689D01*
X0157306Y0119689D01*
X0157306Y0125180D01*
X0157786Y0125180D01*
X0157786Y0125660D01*
X0157306Y0125660D01*
X0157306Y0131151D01*
X0156082Y0131151D01*
X0155726Y0131055D01*
X0155407Y0130871D01*
X0155146Y0130610D01*
X0154962Y0130291D01*
X0154866Y0129935D01*
X0154866Y0125660D01*
X0157306Y0125660D01*
X0157306Y0125180D01*
X0154866Y0125180D01*
X0154866Y0120905D01*
X0154897Y0120789D02*
X0145969Y0120789D01*
X0146767Y0119990D02*
X0155385Y0119990D01*
X0157306Y0119990D02*
X0157786Y0119990D01*
X0157786Y0119689D02*
X0159010Y0119689D01*
X0159366Y0119785D01*
X0159685Y0119969D01*
X0159946Y0120230D01*
X0160130Y0120549D01*
X0160225Y0120905D01*
X0160225Y0125180D01*
X0157786Y0125180D01*
X0157786Y0119689D01*
X0157786Y0120789D02*
X0157306Y0120789D01*
X0157306Y0121587D02*
X0157786Y0121587D01*
X0157786Y0122386D02*
X0157306Y0122386D01*
X0157306Y0123184D02*
X0157786Y0123184D01*
X0157786Y0123983D02*
X0157306Y0123983D01*
X0157306Y0124781D02*
X0157786Y0124781D01*
X0157786Y0125580D02*
X0202087Y0125580D01*
X0202087Y0124781D02*
X0202887Y0124781D01*
X0202887Y0123983D02*
X0202087Y0123983D01*
X0202087Y0123184D02*
X0202887Y0123184D01*
X0202815Y0121587D02*
X0203615Y0121587D01*
X0203615Y0120789D02*
X0202815Y0120789D01*
X0202815Y0119990D02*
X0203615Y0119990D01*
X0203615Y0119192D02*
X0202815Y0119192D01*
X0202815Y0118393D02*
X0203615Y0118393D01*
X0203615Y0117595D02*
X0202815Y0117595D01*
X0202815Y0115998D02*
X0203615Y0115998D01*
X0203615Y0115199D02*
X0202815Y0115199D01*
X0202815Y0114401D02*
X0203615Y0114401D01*
X0203615Y0113602D02*
X0202815Y0113602D01*
X0202815Y0112804D02*
X0203615Y0112804D01*
X0203615Y0112005D02*
X0202815Y0112005D01*
X0194533Y0112005D02*
X0185600Y0112005D01*
X0184802Y0111207D02*
X0212135Y0111207D01*
X0212135Y0112005D02*
X0211897Y0112005D01*
X0212135Y0110408D02*
X0184003Y0110408D01*
X0183205Y0109610D02*
X0212135Y0109610D01*
X0212135Y0108811D02*
X0182406Y0108811D01*
X0181608Y0108013D02*
X0212135Y0108013D01*
X0212135Y0107214D02*
X0173180Y0107214D01*
X0173180Y0106416D02*
X0212135Y0106416D01*
X0212135Y0105617D02*
X0173180Y0105617D01*
X0173180Y0104819D02*
X0212135Y0104819D01*
X0212135Y0104020D02*
X0173180Y0104020D01*
X0173180Y0103222D02*
X0212619Y0103222D01*
X0212619Y0102423D02*
X0173180Y0102423D01*
X0173180Y0101625D02*
X0178061Y0101625D01*
X0177607Y0100826D02*
X0174876Y0100826D01*
X0174945Y0100028D02*
X0177607Y0100028D01*
X0177607Y0099229D02*
X0174945Y0099229D01*
X0174945Y0098431D02*
X0177607Y0098431D01*
X0177607Y0097632D02*
X0174945Y0097632D01*
X0174945Y0096834D02*
X0177607Y0096834D01*
X0177855Y0096035D02*
X0174945Y0096035D01*
X0171680Y0098333D02*
X0171680Y0110853D01*
X0170180Y0107214D02*
X0159925Y0107214D01*
X0159925Y0106416D02*
X0170180Y0106416D01*
X0170180Y0105617D02*
X0159476Y0105617D01*
X0155616Y0105617D02*
X0137893Y0105617D01*
X0138060Y0105291D02*
X0137695Y0106006D01*
X0137223Y0106656D01*
X0136656Y0107223D01*
X0136006Y0107695D01*
X0135291Y0108060D01*
X0134528Y0108308D01*
X0133735Y0108433D01*
X0133733Y0108433D01*
X0133733Y0103733D01*
X0132933Y0103733D01*
X0132933Y0108433D01*
X0132932Y0108433D01*
X0132139Y0108308D01*
X0131376Y0108060D01*
X0130660Y0107695D01*
X0130011Y0107223D01*
X0129443Y0106656D01*
X0129322Y0106488D01*
X0129322Y0113690D01*
X0131427Y0113690D01*
X0132071Y0114334D01*
X0132071Y0122332D01*
X0131427Y0122977D01*
X0124216Y0122977D01*
X0123572Y0122332D01*
X0123572Y0121933D01*
X0117617Y0121933D01*
X0116294Y0121385D01*
X0105281Y0110373D01*
X0104733Y0109049D01*
X0104733Y0103433D01*
X0103878Y0103433D01*
X0103233Y0102789D01*
X0103233Y0093878D01*
X0103878Y0093233D01*
X0112789Y0093233D01*
X0113433Y0093878D01*
X0113433Y0102789D01*
X0112789Y0103433D01*
X0111933Y0103433D01*
X0111933Y0106842D01*
X0119824Y0114733D01*
X0123572Y0114733D01*
X0123572Y0114334D01*
X0124216Y0113690D01*
X0126322Y0113690D01*
X0126322Y0090724D01*
X0129333Y0087712D01*
X0130129Y0086917D01*
X0129264Y0086052D01*
X0128533Y0084288D01*
X0128533Y0082379D01*
X0129264Y0080614D01*
X0130614Y0079264D01*
X0132379Y0078533D01*
X0134288Y0078533D01*
X0136052Y0079264D01*
X0137403Y0080614D01*
X0137907Y0081833D01*
X0146212Y0081833D01*
X0146270Y0081776D01*
X0145397Y0081776D01*
X0144753Y0081131D01*
X0144753Y0078055D01*
X0145397Y0077410D01*
X0151033Y0077410D01*
X0151677Y0078055D01*
X0151677Y0081131D01*
X0151033Y0081776D01*
X0149715Y0081776D01*
X0149715Y0082573D01*
X0148836Y0083452D01*
X0147455Y0084833D01*
X0137907Y0084833D01*
X0137403Y0086052D01*
X0136622Y0086833D01*
X0144455Y0086833D01*
X0144753Y0087131D01*
X0144753Y0085535D01*
X0145397Y0084891D01*
X0151033Y0084891D01*
X0151677Y0085535D01*
X0151677Y0088333D01*
X0154990Y0088333D01*
X0154990Y0085535D01*
X0155109Y0085416D01*
X0154969Y0085276D01*
X0154785Y0084956D01*
X0154690Y0084600D01*
X0154690Y0083475D01*
X0158310Y0083475D01*
X0158310Y0083192D01*
X0154690Y0083192D01*
X0154690Y0082066D01*
X0154785Y0081710D01*
X0154969Y0081391D01*
X0155109Y0081251D01*
X0154990Y0081131D01*
X0154990Y0078055D01*
X0155634Y0077410D01*
X0161270Y0077410D01*
X0161914Y0078055D01*
X0161914Y0078093D01*
X0162214Y0078093D01*
X0163093Y0078972D01*
X0164333Y0080212D01*
X0164333Y0089455D01*
X0163455Y0090333D01*
X0162455Y0091333D01*
X0144712Y0091333D01*
X0143833Y0090455D01*
X0143212Y0089833D01*
X0136622Y0089833D01*
X0137403Y0090614D01*
X0137907Y0091833D01*
X0139955Y0091833D01*
X0140833Y0092712D01*
X0141955Y0093833D01*
X0142833Y0094712D01*
X0142833Y0099212D01*
X0144025Y0100403D01*
X0144025Y0100043D01*
X0144669Y0099399D01*
X0149124Y0099399D01*
X0149768Y0100043D01*
X0149768Y0104104D01*
X0149124Y0104748D01*
X0144669Y0104748D01*
X0144025Y0104104D01*
X0144025Y0103573D01*
X0142952Y0103573D01*
X0140712Y0101333D01*
X0139833Y0100455D01*
X0139833Y0095955D01*
X0138712Y0094833D01*
X0137907Y0094833D01*
X0137403Y0096052D01*
X0136052Y0097403D01*
X0134288Y0098133D01*
X0132379Y0098133D01*
X0130614Y0097403D01*
X0129322Y0096110D01*
X0129322Y0100179D01*
X0129443Y0100011D01*
X0130011Y0099443D01*
X0130660Y0098971D01*
X0131376Y0098607D01*
X0132139Y0098359D01*
X0132932Y0098233D01*
X0132933Y0098233D01*
X0132933Y0102933D01*
X0133733Y0102933D01*
X0133733Y0098233D01*
X0133735Y0098233D01*
X0134528Y0098359D01*
X0135291Y0098607D01*
X0136006Y0098971D01*
X0136656Y0099443D01*
X0137223Y0100011D01*
X0137695Y0100660D01*
X0138060Y0101376D01*
X0138308Y0102139D01*
X0138433Y0102932D01*
X0138433Y0102933D01*
X0133733Y0102933D01*
X0133733Y0103733D01*
X0138433Y0103733D01*
X0138433Y0103735D01*
X0138308Y0104528D01*
X0138060Y0105291D01*
X0138213Y0104819D02*
X0170180Y0104819D01*
X0170180Y0104020D02*
X0149768Y0104020D01*
X0149768Y0103222D02*
X0170180Y0103222D01*
X0170180Y0102423D02*
X0149768Y0102423D01*
X0149768Y0101625D02*
X0170180Y0101625D01*
X0168483Y0100826D02*
X0168184Y0100826D01*
X0168252Y0100028D02*
X0168414Y0100028D01*
X0168414Y0099229D02*
X0168252Y0099229D01*
X0168252Y0098431D02*
X0168414Y0098431D01*
X0168414Y0097632D02*
X0168252Y0097632D01*
X0168252Y0096834D02*
X0168414Y0096834D01*
X0168414Y0096035D02*
X0168252Y0096035D01*
X0164987Y0098333D02*
X0159833Y0098333D01*
X0159833Y0095333D01*
X0160833Y0094333D01*
X0179333Y0094333D01*
X0180696Y0095696D01*
X0180696Y0098727D01*
X0183784Y0098431D02*
X0213383Y0098431D01*
X0213383Y0099229D02*
X0183784Y0099229D01*
X0183784Y0100028D02*
X0213395Y0100028D01*
X0213092Y0100826D02*
X0183784Y0100826D01*
X0183330Y0101625D02*
X0212761Y0101625D01*
X0213395Y0097632D02*
X0183784Y0097632D01*
X0183784Y0096834D02*
X0213395Y0096834D01*
X0213643Y0096035D02*
X0183536Y0096035D01*
X0182196Y0095237D02*
X0223733Y0095237D01*
X0223733Y0096035D02*
X0219323Y0096035D01*
X0219571Y0096834D02*
X0223733Y0096834D01*
X0223733Y0097632D02*
X0219571Y0097632D01*
X0219819Y0098431D02*
X0223733Y0098431D01*
X0223733Y0094438D02*
X0181559Y0094438D01*
X0180761Y0093640D02*
X0223733Y0093640D01*
X0223733Y0092841D02*
X0179962Y0092841D01*
X0178252Y0092799D02*
X0177607Y0092155D01*
X0177607Y0088744D01*
X0177043Y0088180D01*
X0171402Y0088180D01*
X0171402Y0089301D01*
X0170757Y0089945D01*
X0165909Y0089945D01*
X0165265Y0089301D01*
X0165265Y0084059D01*
X0165909Y0083414D01*
X0170757Y0083414D01*
X0171402Y0084059D01*
X0171402Y0085180D01*
X0178285Y0085180D01*
X0179729Y0086623D01*
X0183139Y0086623D01*
X0183784Y0087267D01*
X0183784Y0092155D01*
X0183139Y0092799D01*
X0178252Y0092799D01*
X0177607Y0092043D02*
X0149672Y0092043D01*
X0149788Y0092159D02*
X0149973Y0092478D01*
X0150068Y0092834D01*
X0150068Y0094206D01*
X0147284Y0094206D01*
X0147284Y0094981D01*
X0146509Y0094981D01*
X0146509Y0097568D01*
X0144940Y0097568D01*
X0144584Y0097473D01*
X0144265Y0097288D01*
X0144004Y0097028D01*
X0143820Y0096708D01*
X0143725Y0096352D01*
X0143725Y0094981D01*
X0146509Y0094981D01*
X0146509Y0094206D01*
X0143725Y0094206D01*
X0143725Y0092834D01*
X0143820Y0092478D01*
X0144004Y0092159D01*
X0144265Y0091898D01*
X0144584Y0091714D01*
X0144940Y0091618D01*
X0146509Y0091618D01*
X0146509Y0094206D01*
X0147284Y0094206D01*
X0147284Y0091618D01*
X0148852Y0091618D01*
X0149208Y0091714D01*
X0149528Y0091898D01*
X0149788Y0092159D01*
X0150068Y0092841D02*
X0160204Y0092841D01*
X0159406Y0093640D02*
X0150068Y0093640D01*
X0150068Y0094981D02*
X0150068Y0096352D01*
X0149973Y0096708D01*
X0149788Y0097028D01*
X0149528Y0097288D01*
X0149208Y0097473D01*
X0148852Y0097568D01*
X0147284Y0097568D01*
X0147284Y0094981D01*
X0150068Y0094981D01*
X0150068Y0095237D02*
X0158333Y0095237D01*
X0158333Y0096035D02*
X0157768Y0096035D01*
X0158607Y0094438D02*
X0147284Y0094438D01*
X0146509Y0094438D02*
X0142559Y0094438D01*
X0142833Y0095237D02*
X0143725Y0095237D01*
X0143725Y0096035D02*
X0142833Y0096035D01*
X0142833Y0096834D02*
X0143892Y0096834D01*
X0142833Y0097632D02*
X0152292Y0097632D01*
X0152292Y0096834D02*
X0149900Y0096834D01*
X0150068Y0096035D02*
X0152560Y0096035D01*
X0152292Y0098431D02*
X0142833Y0098431D01*
X0142850Y0099229D02*
X0152292Y0099229D01*
X0152292Y0100028D02*
X0149753Y0100028D01*
X0149768Y0100826D02*
X0152755Y0100826D01*
X0155164Y0098333D02*
X0158333Y0098333D01*
X0158333Y0098333D01*
X0159833Y0098333D01*
X0158036Y0100028D02*
X0161722Y0100028D01*
X0161790Y0100826D02*
X0157573Y0100826D01*
X0146896Y0102073D02*
X0143573Y0102073D01*
X0141333Y0099833D01*
X0141333Y0095333D01*
X0139333Y0093333D01*
X0133333Y0093333D01*
X0137740Y0095237D02*
X0139115Y0095237D01*
X0139833Y0096035D02*
X0137410Y0096035D01*
X0136621Y0096834D02*
X0139833Y0096834D01*
X0139833Y0097632D02*
X0135498Y0097632D01*
X0134748Y0098431D02*
X0139833Y0098431D01*
X0139833Y0099229D02*
X0136361Y0099229D01*
X0137236Y0100028D02*
X0139833Y0100028D01*
X0140205Y0100826D02*
X0137780Y0100826D01*
X0138141Y0101625D02*
X0141003Y0101625D01*
X0141802Y0102423D02*
X0138353Y0102423D01*
X0138388Y0104020D02*
X0144025Y0104020D01*
X0142600Y0103222D02*
X0133733Y0103222D01*
X0133733Y0104020D02*
X0132933Y0104020D01*
X0132933Y0104819D02*
X0133733Y0104819D01*
X0133733Y0105617D02*
X0132933Y0105617D01*
X0132933Y0106416D02*
X0133733Y0106416D01*
X0133733Y0107214D02*
X0132933Y0107214D01*
X0132933Y0108013D02*
X0133733Y0108013D01*
X0135383Y0108013D02*
X0148563Y0108013D01*
X0147764Y0108811D02*
X0129322Y0108811D01*
X0129322Y0108013D02*
X0131284Y0108013D01*
X0130002Y0107214D02*
X0129322Y0107214D01*
X0126322Y0107214D02*
X0112305Y0107214D01*
X0111933Y0106416D02*
X0126322Y0106416D01*
X0126322Y0105617D02*
X0111933Y0105617D01*
X0111933Y0104819D02*
X0126322Y0104819D01*
X0126322Y0104020D02*
X0111933Y0104020D01*
X0113001Y0103222D02*
X0126322Y0103222D01*
X0126322Y0102423D02*
X0113433Y0102423D01*
X0113433Y0101625D02*
X0126322Y0101625D01*
X0126322Y0100826D02*
X0113433Y0100826D01*
X0113433Y0100028D02*
X0126322Y0100028D01*
X0126322Y0099229D02*
X0113433Y0099229D01*
X0113433Y0098431D02*
X0126322Y0098431D01*
X0126322Y0097632D02*
X0113433Y0097632D01*
X0113433Y0096834D02*
X0126322Y0096834D01*
X0126322Y0096035D02*
X0113433Y0096035D01*
X0113433Y0095237D02*
X0126322Y0095237D01*
X0126322Y0094438D02*
X0113433Y0094438D01*
X0113195Y0093640D02*
X0126322Y0093640D01*
X0126322Y0092841D02*
X0094833Y0092841D01*
X0094833Y0092043D02*
X0126322Y0092043D01*
X0126322Y0091244D02*
X0094833Y0091244D01*
X0094833Y0090445D02*
X0126600Y0090445D01*
X0127398Y0089647D02*
X0094833Y0089647D01*
X0094833Y0088848D02*
X0128197Y0088848D01*
X0128995Y0088050D02*
X0094833Y0088050D01*
X0094833Y0087251D02*
X0129794Y0087251D01*
X0129665Y0086453D02*
X0094833Y0086453D01*
X0094833Y0085654D02*
X0129099Y0085654D01*
X0128769Y0084856D02*
X0094833Y0084856D01*
X0094833Y0084057D02*
X0128533Y0084057D01*
X0128533Y0083259D02*
X0111174Y0083259D01*
X0111164Y0083267D02*
X0110406Y0083653D01*
X0109598Y0083915D01*
X0108758Y0084048D01*
X0108733Y0084048D01*
X0108733Y0079048D01*
X0107933Y0079048D01*
X0107933Y0078248D01*
X0102933Y0078248D01*
X0102933Y0078223D01*
X0103066Y0077384D01*
X0103329Y0076575D01*
X0103715Y0075818D01*
X0104214Y0075130D01*
X0104815Y0074529D01*
X0105503Y0074030D01*
X0106260Y0073644D01*
X0107069Y0073381D01*
X0107908Y0073248D01*
X0107933Y0073248D01*
X0107933Y0078248D01*
X0108733Y0078248D01*
X0108733Y0073248D01*
X0108758Y0073248D01*
X0109598Y0073381D01*
X0110406Y0073644D01*
X0111164Y0074030D01*
X0111851Y0074529D01*
X0112452Y0075130D01*
X0112952Y0075818D01*
X0113338Y0076575D01*
X0113600Y0077384D01*
X0113733Y0078223D01*
X0113733Y0078248D01*
X0108733Y0078248D01*
X0108733Y0079048D01*
X0113733Y0079048D01*
X0113733Y0079073D01*
X0113600Y0079913D01*
X0113338Y0080721D01*
X0112952Y0081479D01*
X0112452Y0082166D01*
X0111851Y0082767D01*
X0111164Y0083267D01*
X0112158Y0082460D02*
X0128533Y0082460D01*
X0128830Y0081662D02*
X0112819Y0081662D01*
X0113265Y0080863D02*
X0129161Y0080863D01*
X0129814Y0080065D02*
X0113551Y0080065D01*
X0113703Y0079266D02*
X0130612Y0079266D01*
X0136055Y0079266D02*
X0144753Y0079266D01*
X0144753Y0078468D02*
X0108733Y0078468D01*
X0108733Y0079266D02*
X0107933Y0079266D01*
X0107933Y0079048D02*
X0107933Y0084048D01*
X0107908Y0084048D01*
X0107069Y0083915D01*
X0106260Y0083653D01*
X0105503Y0083267D01*
X0104815Y0082767D01*
X0104214Y0082166D01*
X0103715Y0081479D01*
X0103329Y0080721D01*
X0103066Y0079913D01*
X0102933Y0079073D01*
X0102933Y0079048D01*
X0107933Y0079048D01*
X0107933Y0078468D02*
X0094833Y0078468D01*
X0094833Y0079266D02*
X0102964Y0079266D01*
X0103116Y0080065D02*
X0094833Y0080065D01*
X0094833Y0080863D02*
X0103401Y0080863D01*
X0103848Y0081662D02*
X0094833Y0081662D01*
X0094833Y0082460D02*
X0104509Y0082460D01*
X0105492Y0083259D02*
X0094833Y0083259D01*
X0094833Y0077669D02*
X0103021Y0077669D01*
X0103233Y0076871D02*
X0094833Y0076871D01*
X0094833Y0076072D02*
X0103585Y0076072D01*
X0104110Y0075274D02*
X0094833Y0075274D01*
X0094833Y0074475D02*
X0104890Y0074475D01*
X0106196Y0073677D02*
X0094833Y0073677D01*
X0094833Y0072878D02*
X0171510Y0072878D01*
X0172308Y0072080D02*
X0094833Y0072080D01*
X0094833Y0071281D02*
X0173107Y0071281D01*
X0173905Y0070483D02*
X0094833Y0070483D01*
X0094833Y0069684D02*
X0173756Y0069684D01*
X0173576Y0068886D02*
X0094833Y0068886D01*
X0094833Y0068087D02*
X0173576Y0068087D01*
X0173630Y0067289D02*
X0094833Y0067289D01*
X0094833Y0066490D02*
X0173960Y0066490D01*
X0174312Y0065692D02*
X0094833Y0065692D01*
X0094833Y0064893D02*
X0175111Y0064893D01*
X0176389Y0064095D02*
X0094833Y0064095D01*
X0094833Y0063296D02*
X0233733Y0063296D01*
X0233733Y0062498D02*
X0094833Y0062498D01*
X0094833Y0061699D02*
X0233733Y0061699D01*
X0233733Y0060901D02*
X0094833Y0060901D01*
X0094833Y0060102D02*
X0233733Y0060102D01*
X0233540Y0059304D02*
X0094833Y0059304D01*
X0094833Y0058505D02*
X0233533Y0058505D01*
X0233533Y0057707D02*
X0094833Y0057707D01*
X0094833Y0056908D02*
X0233728Y0056908D01*
X0234059Y0056110D02*
X0094833Y0056110D01*
X0094833Y0055311D02*
X0234567Y0055311D01*
X0235366Y0054512D02*
X0094833Y0054512D01*
X0094833Y0053714D02*
X0236942Y0053714D01*
X0236853Y0052915D02*
X0229814Y0052915D01*
X0231338Y0052117D02*
X0235329Y0052117D01*
X0234530Y0051318D02*
X0232136Y0051318D01*
X0232623Y0050520D02*
X0234044Y0050520D01*
X0233713Y0049721D02*
X0232954Y0049721D01*
X0233133Y0048923D02*
X0233533Y0048923D01*
X0233533Y0048124D02*
X0233133Y0048124D01*
X0233112Y0047326D02*
X0233555Y0047326D01*
X0233886Y0046527D02*
X0232781Y0046527D01*
X0232450Y0045729D02*
X0234217Y0045729D01*
X0234948Y0044930D02*
X0231719Y0044930D01*
X0224948Y0044930D02*
X0221719Y0044930D01*
X0222450Y0045729D02*
X0224217Y0045729D01*
X0223886Y0046527D02*
X0222781Y0046527D01*
X0223112Y0047326D02*
X0223555Y0047326D01*
X0223533Y0048124D02*
X0223133Y0048124D01*
X0223133Y0048923D02*
X0223533Y0048923D01*
X0223713Y0049721D02*
X0222954Y0049721D01*
X0222623Y0050520D02*
X0224044Y0050520D01*
X0224530Y0051318D02*
X0222136Y0051318D01*
X0221338Y0052117D02*
X0225329Y0052117D01*
X0226853Y0052915D02*
X0219814Y0052915D01*
X0216853Y0052915D02*
X0209814Y0052915D01*
X0211338Y0052117D02*
X0215329Y0052117D01*
X0214530Y0051318D02*
X0212136Y0051318D01*
X0212623Y0050520D02*
X0214044Y0050520D01*
X0213713Y0049721D02*
X0212954Y0049721D01*
X0213133Y0048923D02*
X0213533Y0048923D01*
X0213533Y0048124D02*
X0213133Y0048124D01*
X0213112Y0047326D02*
X0213555Y0047326D01*
X0213886Y0046527D02*
X0212781Y0046527D01*
X0212450Y0045729D02*
X0214217Y0045729D01*
X0214948Y0044930D02*
X0211719Y0044930D01*
X0204948Y0044930D02*
X0201719Y0044930D01*
X0202450Y0045729D02*
X0204217Y0045729D01*
X0203886Y0046527D02*
X0202781Y0046527D01*
X0203112Y0047326D02*
X0203555Y0047326D01*
X0203533Y0048124D02*
X0203133Y0048124D01*
X0203133Y0048923D02*
X0203533Y0048923D01*
X0203713Y0049721D02*
X0202954Y0049721D01*
X0202623Y0050520D02*
X0204044Y0050520D01*
X0204530Y0051318D02*
X0202136Y0051318D01*
X0201338Y0052117D02*
X0205329Y0052117D01*
X0206853Y0052915D02*
X0199814Y0052915D01*
X0196853Y0052915D02*
X0189814Y0052915D01*
X0191338Y0052117D02*
X0195329Y0052117D01*
X0194530Y0051318D02*
X0192136Y0051318D01*
X0192623Y0050520D02*
X0194044Y0050520D01*
X0193713Y0049721D02*
X0192954Y0049721D01*
X0193133Y0048923D02*
X0193533Y0048923D01*
X0193533Y0048124D02*
X0193133Y0048124D01*
X0193112Y0047326D02*
X0193555Y0047326D01*
X0193886Y0046527D02*
X0192781Y0046527D01*
X0192450Y0045729D02*
X0194217Y0045729D01*
X0194948Y0044930D02*
X0191719Y0044930D01*
X0184948Y0044930D02*
X0181719Y0044930D01*
X0182450Y0045729D02*
X0184217Y0045729D01*
X0183886Y0046527D02*
X0182781Y0046527D01*
X0183112Y0047326D02*
X0183555Y0047326D01*
X0183533Y0048124D02*
X0183133Y0048124D01*
X0183133Y0048923D02*
X0183533Y0048923D01*
X0183713Y0049721D02*
X0182954Y0049721D01*
X0182623Y0050520D02*
X0184044Y0050520D01*
X0184530Y0051318D02*
X0182136Y0051318D01*
X0181338Y0052117D02*
X0185329Y0052117D01*
X0186853Y0052915D02*
X0179814Y0052915D01*
X0176853Y0052915D02*
X0169814Y0052915D01*
X0171338Y0052117D02*
X0175329Y0052117D01*
X0174530Y0051318D02*
X0172136Y0051318D01*
X0172623Y0050520D02*
X0174044Y0050520D01*
X0173713Y0049721D02*
X0172954Y0049721D01*
X0173133Y0048923D02*
X0173533Y0048923D01*
X0173533Y0048124D02*
X0173133Y0048124D01*
X0173112Y0047326D02*
X0173555Y0047326D01*
X0173886Y0046527D02*
X0172781Y0046527D01*
X0172450Y0045729D02*
X0174217Y0045729D01*
X0174948Y0044930D02*
X0171719Y0044930D01*
X0164948Y0044930D02*
X0161719Y0044930D01*
X0162450Y0045729D02*
X0164217Y0045729D01*
X0163886Y0046527D02*
X0162781Y0046527D01*
X0163112Y0047326D02*
X0163555Y0047326D01*
X0163533Y0048124D02*
X0163133Y0048124D01*
X0163133Y0048923D02*
X0163533Y0048923D01*
X0163713Y0049721D02*
X0162954Y0049721D01*
X0162623Y0050520D02*
X0164044Y0050520D01*
X0164530Y0051318D02*
X0162136Y0051318D01*
X0161338Y0052117D02*
X0165329Y0052117D01*
X0166853Y0052915D02*
X0159814Y0052915D01*
X0156853Y0052915D02*
X0150574Y0052915D01*
X0151762Y0052117D02*
X0155329Y0052117D01*
X0154530Y0051318D02*
X0152468Y0051318D01*
X0152943Y0050520D02*
X0154044Y0050520D01*
X0153713Y0049721D02*
X0153245Y0049721D01*
X0153404Y0048923D02*
X0153533Y0048923D01*
X0153533Y0048124D02*
X0148733Y0048124D01*
X0148733Y0048923D02*
X0147933Y0048923D01*
X0147933Y0049721D02*
X0148733Y0049721D01*
X0148733Y0050520D02*
X0147933Y0050520D01*
X0147933Y0051318D02*
X0148733Y0051318D01*
X0148733Y0052117D02*
X0147933Y0052117D01*
X0147933Y0052915D02*
X0148733Y0052915D01*
X0146093Y0052915D02*
X0139814Y0052915D01*
X0141338Y0052117D02*
X0144904Y0052117D01*
X0144198Y0051318D02*
X0142136Y0051318D01*
X0142623Y0050520D02*
X0143724Y0050520D01*
X0143422Y0049721D02*
X0142954Y0049721D01*
X0143133Y0048923D02*
X0143263Y0048923D01*
X0143133Y0048124D02*
X0147933Y0048124D01*
X0143558Y0046527D02*
X0142781Y0046527D01*
X0142450Y0045729D02*
X0143936Y0045729D01*
X0144524Y0044930D02*
X0141719Y0044930D01*
X0143112Y0047326D02*
X0143329Y0047326D01*
X0134948Y0044930D02*
X0131719Y0044930D01*
X0132450Y0045729D02*
X0134217Y0045729D01*
X0133886Y0046527D02*
X0132781Y0046527D01*
X0133112Y0047326D02*
X0133555Y0047326D01*
X0133533Y0048124D02*
X0133133Y0048124D01*
X0133133Y0048923D02*
X0133533Y0048923D01*
X0133713Y0049721D02*
X0132954Y0049721D01*
X0132623Y0050520D02*
X0134044Y0050520D01*
X0134530Y0051318D02*
X0132136Y0051318D01*
X0131338Y0052117D02*
X0135329Y0052117D01*
X0136853Y0052915D02*
X0129814Y0052915D01*
X0126853Y0052915D02*
X0119814Y0052915D01*
X0121338Y0052117D02*
X0125329Y0052117D01*
X0124530Y0051318D02*
X0122136Y0051318D01*
X0122623Y0050520D02*
X0124044Y0050520D01*
X0123713Y0049721D02*
X0122954Y0049721D01*
X0123133Y0048923D02*
X0123533Y0048923D01*
X0123533Y0048124D02*
X0123133Y0048124D01*
X0123112Y0047326D02*
X0123555Y0047326D01*
X0123886Y0046527D02*
X0122781Y0046527D01*
X0122450Y0045729D02*
X0124217Y0045729D01*
X0124948Y0044930D02*
X0121719Y0044930D01*
X0114948Y0044930D02*
X0094833Y0044930D01*
X0094833Y0045729D02*
X0114217Y0045729D01*
X0113886Y0046527D02*
X0094833Y0046527D01*
X0094833Y0047326D02*
X0113555Y0047326D01*
X0113533Y0048124D02*
X0094833Y0048124D01*
X0094833Y0048923D02*
X0113533Y0048923D01*
X0113713Y0049721D02*
X0094833Y0049721D01*
X0094833Y0050520D02*
X0114044Y0050520D01*
X0114530Y0051318D02*
X0094833Y0051318D01*
X0094833Y0052117D02*
X0115329Y0052117D01*
X0116853Y0052915D02*
X0094833Y0052915D01*
X0107933Y0073677D02*
X0108733Y0073677D01*
X0108733Y0074475D02*
X0107933Y0074475D01*
X0107933Y0075274D02*
X0108733Y0075274D01*
X0108733Y0076072D02*
X0107933Y0076072D01*
X0107933Y0076871D02*
X0108733Y0076871D01*
X0108733Y0077669D02*
X0107933Y0077669D01*
X0107933Y0080065D02*
X0108733Y0080065D01*
X0108733Y0080863D02*
X0107933Y0080863D01*
X0107933Y0081662D02*
X0108733Y0081662D01*
X0108733Y0082460D02*
X0107933Y0082460D01*
X0107933Y0083259D02*
X0108733Y0083259D01*
X0113646Y0077669D02*
X0145138Y0077669D01*
X0144753Y0080065D02*
X0136853Y0080065D01*
X0137506Y0080863D02*
X0144753Y0080863D01*
X0145283Y0081662D02*
X0137836Y0081662D01*
X0133333Y0083333D02*
X0146833Y0083333D01*
X0148215Y0081952D01*
X0148215Y0079593D01*
X0151677Y0079266D02*
X0154990Y0079266D01*
X0154990Y0078468D02*
X0151677Y0078468D01*
X0151291Y0077669D02*
X0155375Y0077669D01*
X0154990Y0080065D02*
X0151677Y0080065D01*
X0151677Y0080863D02*
X0154990Y0080863D01*
X0154813Y0081662D02*
X0151147Y0081662D01*
X0149715Y0082460D02*
X0154690Y0082460D01*
X0154690Y0084057D02*
X0148231Y0084057D01*
X0149029Y0083259D02*
X0158310Y0083259D01*
X0154758Y0084856D02*
X0137898Y0084856D01*
X0137567Y0085654D02*
X0144753Y0085654D01*
X0144753Y0086453D02*
X0137002Y0086453D01*
X0130833Y0088333D02*
X0143833Y0088333D01*
X0145333Y0089833D01*
X0161833Y0089833D01*
X0162833Y0088833D01*
X0162833Y0087073D01*
X0158452Y0087073D01*
X0154990Y0087251D02*
X0151677Y0087251D01*
X0151677Y0086453D02*
X0154990Y0086453D01*
X0154990Y0085654D02*
X0151677Y0085654D01*
X0151677Y0088050D02*
X0154990Y0088050D01*
X0162833Y0087073D02*
X0162833Y0080833D01*
X0161593Y0079593D01*
X0158452Y0079593D01*
X0161528Y0077669D02*
X0165265Y0077669D01*
X0165265Y0078468D02*
X0162589Y0078468D01*
X0163388Y0079266D02*
X0165265Y0079266D01*
X0165265Y0080065D02*
X0164186Y0080065D01*
X0164333Y0080863D02*
X0165265Y0080863D01*
X0165265Y0081662D02*
X0164333Y0081662D01*
X0164333Y0082460D02*
X0165265Y0082460D01*
X0164333Y0083259D02*
X0177727Y0083259D01*
X0177607Y0083139D02*
X0177607Y0078252D01*
X0178252Y0077607D01*
X0183139Y0077607D01*
X0183784Y0078252D01*
X0183784Y0083139D01*
X0183139Y0083784D01*
X0178252Y0083784D01*
X0177607Y0083139D01*
X0177607Y0082460D02*
X0171402Y0082460D01*
X0171402Y0081662D02*
X0177607Y0081662D01*
X0177607Y0080863D02*
X0171402Y0080863D01*
X0171402Y0080065D02*
X0177607Y0080065D01*
X0177607Y0079266D02*
X0171402Y0079266D01*
X0171402Y0078468D02*
X0177607Y0078468D01*
X0178190Y0077669D02*
X0171402Y0077669D01*
X0171760Y0076871D02*
X0223733Y0076871D01*
X0223733Y0077669D02*
X0218989Y0077669D01*
X0219571Y0078468D02*
X0223733Y0078468D01*
X0223733Y0079266D02*
X0223373Y0079266D01*
X0221833Y0081333D02*
X0221196Y0080696D01*
X0216483Y0080696D01*
X0213395Y0080863D02*
X0199127Y0080863D01*
X0199127Y0081095D02*
X0202115Y0081095D01*
X0202115Y0082868D01*
X0202020Y0083224D01*
X0201835Y0083543D01*
X0201575Y0083804D01*
X0201256Y0083988D01*
X0200900Y0084084D01*
X0199127Y0084084D01*
X0199127Y0081096D01*
X0198327Y0081096D01*
X0198327Y0084084D01*
X0196555Y0084084D01*
X0196198Y0083988D01*
X0195879Y0083804D01*
X0195619Y0083543D01*
X0195434Y0083224D01*
X0195339Y0082868D01*
X0195339Y0081095D01*
X0198327Y0081095D01*
X0198327Y0080296D01*
X0195339Y0080296D01*
X0195339Y0078523D01*
X0195434Y0078167D01*
X0195619Y0077848D01*
X0195879Y0077587D01*
X0196198Y0077403D01*
X0196555Y0077307D01*
X0198327Y0077307D01*
X0198327Y0080295D01*
X0199127Y0080295D01*
X0199127Y0077307D01*
X0200900Y0077307D01*
X0201256Y0077403D01*
X0201575Y0077587D01*
X0201835Y0077848D01*
X0202020Y0078167D01*
X0202115Y0078523D01*
X0202115Y0080296D01*
X0199127Y0080296D01*
X0199127Y0081095D01*
X0199127Y0081662D02*
X0198327Y0081662D01*
X0198327Y0082460D02*
X0199127Y0082460D01*
X0199127Y0083259D02*
X0198327Y0083259D01*
X0198327Y0084057D02*
X0199127Y0084057D01*
X0200998Y0084057D02*
X0223733Y0084057D01*
X0223733Y0083259D02*
X0223514Y0083259D01*
X0223733Y0084856D02*
X0171402Y0084856D01*
X0171400Y0084057D02*
X0196456Y0084057D01*
X0195454Y0083259D02*
X0192680Y0083259D01*
X0192799Y0083139D02*
X0192155Y0083784D01*
X0187267Y0083784D01*
X0186623Y0083139D01*
X0186623Y0078252D01*
X0187267Y0077607D01*
X0192155Y0077607D01*
X0192799Y0078252D01*
X0192799Y0083139D01*
X0192799Y0082460D02*
X0195339Y0082460D01*
X0195339Y0081662D02*
X0192799Y0081662D01*
X0192799Y0080863D02*
X0198327Y0080863D01*
X0198327Y0080065D02*
X0199127Y0080065D01*
X0199127Y0079266D02*
X0198327Y0079266D01*
X0198327Y0078468D02*
X0199127Y0078468D01*
X0199127Y0077669D02*
X0198327Y0077669D01*
X0195797Y0077669D02*
X0192217Y0077669D01*
X0192799Y0078468D02*
X0195354Y0078468D01*
X0195339Y0079266D02*
X0192799Y0079266D01*
X0192799Y0080065D02*
X0195339Y0080065D01*
X0201657Y0077669D02*
X0213977Y0077669D01*
X0213395Y0078468D02*
X0202100Y0078468D01*
X0202115Y0079266D02*
X0213395Y0079266D01*
X0213395Y0080065D02*
X0202115Y0080065D01*
X0202115Y0081662D02*
X0213395Y0081662D01*
X0213395Y0082460D02*
X0202115Y0082460D01*
X0202000Y0083259D02*
X0213514Y0083259D01*
X0219452Y0083259D02*
X0220153Y0083259D01*
X0223733Y0085654D02*
X0178760Y0085654D01*
X0179559Y0086453D02*
X0223733Y0086453D01*
X0223733Y0087251D02*
X0183768Y0087251D01*
X0183784Y0088050D02*
X0223733Y0088050D01*
X0223733Y0088848D02*
X0183784Y0088848D01*
X0183784Y0089647D02*
X0223733Y0089647D01*
X0223733Y0090445D02*
X0183784Y0090445D01*
X0183784Y0091244D02*
X0223733Y0091244D01*
X0223733Y0092043D02*
X0183784Y0092043D01*
X0180696Y0089711D02*
X0177664Y0086680D01*
X0168333Y0086680D01*
X0165265Y0086453D02*
X0164333Y0086453D01*
X0164333Y0087251D02*
X0165265Y0087251D01*
X0165265Y0088050D02*
X0164333Y0088050D01*
X0164333Y0088848D02*
X0165265Y0088848D01*
X0165611Y0089647D02*
X0164141Y0089647D01*
X0163455Y0090333D02*
X0163455Y0090333D01*
X0163342Y0090445D02*
X0177607Y0090445D01*
X0177607Y0089647D02*
X0171056Y0089647D01*
X0171402Y0088848D02*
X0177607Y0088848D01*
X0177607Y0091244D02*
X0162544Y0091244D01*
X0164333Y0085654D02*
X0165265Y0085654D01*
X0165265Y0084856D02*
X0164333Y0084856D01*
X0164333Y0084057D02*
X0165266Y0084057D01*
X0168333Y0079987D02*
X0168333Y0078176D01*
X0178176Y0068333D01*
X0177128Y0072878D02*
X0175752Y0072878D01*
X0174954Y0073677D02*
X0223733Y0073677D01*
X0223733Y0074475D02*
X0174155Y0074475D01*
X0173357Y0075274D02*
X0223733Y0075274D01*
X0223733Y0076072D02*
X0172558Y0076072D01*
X0170711Y0073677D02*
X0110471Y0073677D01*
X0111777Y0074475D02*
X0169913Y0074475D01*
X0169114Y0075274D02*
X0112556Y0075274D01*
X0113081Y0076072D02*
X0168316Y0076072D01*
X0165760Y0076871D02*
X0113434Y0076871D01*
X0127822Y0091345D02*
X0130833Y0088333D01*
X0137234Y0090445D02*
X0143824Y0090445D01*
X0144623Y0091244D02*
X0137663Y0091244D01*
X0140164Y0092043D02*
X0144121Y0092043D01*
X0143725Y0092841D02*
X0140962Y0092841D01*
X0140833Y0092712D02*
X0140833Y0092712D01*
X0141761Y0093640D02*
X0143725Y0093640D01*
X0141955Y0093833D02*
X0141955Y0093833D01*
X0146509Y0093640D02*
X0147284Y0093640D01*
X0147284Y0092841D02*
X0146509Y0092841D01*
X0146509Y0092043D02*
X0147284Y0092043D01*
X0147284Y0095237D02*
X0146509Y0095237D01*
X0146509Y0096035D02*
X0147284Y0096035D01*
X0147284Y0096834D02*
X0146509Y0096834D01*
X0144040Y0100028D02*
X0143649Y0100028D01*
X0133733Y0100028D02*
X0132933Y0100028D01*
X0132933Y0100826D02*
X0133733Y0100826D01*
X0133733Y0101625D02*
X0132933Y0101625D01*
X0132933Y0102423D02*
X0133733Y0102423D01*
X0133733Y0099229D02*
X0132933Y0099229D01*
X0132933Y0098431D02*
X0133733Y0098431D01*
X0131918Y0098431D02*
X0129322Y0098431D01*
X0129322Y0099229D02*
X0130306Y0099229D01*
X0129431Y0100028D02*
X0129322Y0100028D01*
X0129322Y0097632D02*
X0131169Y0097632D01*
X0130045Y0096834D02*
X0129322Y0096834D01*
X0127822Y0091345D02*
X0127822Y0118333D01*
X0132071Y0118393D02*
X0134596Y0118393D01*
X0134596Y0117595D02*
X0132071Y0117595D01*
X0132071Y0116796D02*
X0134596Y0116796D01*
X0134596Y0115998D02*
X0132071Y0115998D01*
X0132071Y0115199D02*
X0134596Y0115199D01*
X0134596Y0114401D02*
X0132071Y0114401D01*
X0129322Y0113602D02*
X0142973Y0113602D01*
X0143772Y0112804D02*
X0129322Y0112804D01*
X0129322Y0112005D02*
X0144570Y0112005D01*
X0145369Y0111207D02*
X0129322Y0111207D01*
X0129322Y0110408D02*
X0146167Y0110408D01*
X0146966Y0109610D02*
X0129322Y0109610D01*
X0126322Y0109610D02*
X0114701Y0109610D01*
X0115499Y0110408D02*
X0126322Y0110408D01*
X0126322Y0111207D02*
X0116298Y0111207D01*
X0117096Y0112005D02*
X0126322Y0112005D01*
X0126322Y0112804D02*
X0117895Y0112804D01*
X0118693Y0113602D02*
X0126322Y0113602D01*
X0123572Y0114401D02*
X0119492Y0114401D01*
X0112504Y0117595D02*
X0094833Y0117595D01*
X0094833Y0118393D02*
X0113302Y0118393D01*
X0114101Y0119192D02*
X0094833Y0119192D01*
X0094833Y0119990D02*
X0114899Y0119990D01*
X0115698Y0120789D02*
X0094833Y0120789D01*
X0094833Y0121587D02*
X0116782Y0121587D01*
X0113371Y0123983D02*
X0101350Y0123983D01*
X0102293Y0124781D02*
X0113276Y0124781D01*
X0113276Y0125580D02*
X0102918Y0125580D01*
X0103323Y0126379D02*
X0113276Y0126379D01*
X0113276Y0127177D02*
X0103572Y0127177D01*
X0103686Y0128774D02*
X0113276Y0128774D01*
X0113276Y0127976D02*
X0098891Y0127976D01*
X0098891Y0128774D02*
X0098091Y0128774D01*
X0098091Y0129573D02*
X0098891Y0129573D01*
X0098891Y0130371D02*
X0098091Y0130371D01*
X0098091Y0131170D02*
X0098891Y0131170D01*
X0098891Y0131968D02*
X0098091Y0131968D01*
X0098091Y0132767D02*
X0098891Y0132767D01*
X0101236Y0132767D02*
X0113453Y0132767D01*
X0113276Y0131968D02*
X0102210Y0131968D01*
X0102858Y0131170D02*
X0113276Y0131170D01*
X0113276Y0130371D02*
X0103289Y0130371D01*
X0103556Y0129573D02*
X0113276Y0129573D01*
X0123076Y0131968D02*
X0126877Y0131968D01*
X0127675Y0132767D02*
X0122898Y0132767D01*
X0121152Y0134364D02*
X0125515Y0134364D01*
X0124716Y0135162D02*
X0121950Y0135162D01*
X0122546Y0135961D02*
X0124121Y0135961D01*
X0123790Y0136759D02*
X0122877Y0136759D01*
X0123133Y0137558D02*
X0123533Y0137558D01*
X0123533Y0138356D02*
X0123133Y0138356D01*
X0123133Y0139155D02*
X0123533Y0139155D01*
X0123809Y0139953D02*
X0122858Y0139953D01*
X0122527Y0140752D02*
X0124140Y0140752D01*
X0124762Y0141550D02*
X0121905Y0141550D01*
X0114762Y0141550D02*
X0094833Y0141550D01*
X0094833Y0140752D02*
X0114140Y0140752D01*
X0113809Y0139953D02*
X0094833Y0139953D01*
X0094833Y0139155D02*
X0113533Y0139155D01*
X0113533Y0138356D02*
X0094833Y0138356D01*
X0094833Y0137558D02*
X0113533Y0137558D01*
X0113790Y0136759D02*
X0094833Y0136759D01*
X0094833Y0135961D02*
X0114121Y0135961D01*
X0114716Y0135162D02*
X0094833Y0135162D01*
X0094833Y0134364D02*
X0115515Y0134364D01*
X0117302Y0133565D02*
X0094833Y0133565D01*
X0094833Y0132767D02*
X0095746Y0132767D01*
X0098091Y0127177D02*
X0098891Y0127177D01*
X0098891Y0126379D02*
X0098091Y0126379D01*
X0098091Y0125580D02*
X0098891Y0125580D01*
X0098891Y0124781D02*
X0098091Y0124781D01*
X0098091Y0123983D02*
X0098891Y0123983D01*
X0094833Y0122386D02*
X0123626Y0122386D01*
X0122981Y0123983D02*
X0154866Y0123983D01*
X0154866Y0124781D02*
X0129166Y0124781D01*
X0130671Y0125580D02*
X0157306Y0125580D01*
X0157786Y0125660D02*
X0157786Y0131151D01*
X0159010Y0131151D01*
X0159366Y0131055D01*
X0159685Y0130871D01*
X0159946Y0130610D01*
X0160130Y0130291D01*
X0160225Y0129935D01*
X0160225Y0125660D01*
X0157786Y0125660D01*
X0157786Y0126379D02*
X0157306Y0126379D01*
X0157306Y0127177D02*
X0157786Y0127177D01*
X0157786Y0127976D02*
X0157306Y0127976D01*
X0157306Y0128774D02*
X0157786Y0128774D01*
X0157786Y0129573D02*
X0157306Y0129573D01*
X0157306Y0130371D02*
X0157786Y0130371D01*
X0160084Y0130371D02*
X0170174Y0130371D01*
X0169376Y0131170D02*
X0136261Y0131170D01*
X0137059Y0131968D02*
X0168577Y0131968D01*
X0167779Y0132767D02*
X0137858Y0132767D01*
X0139365Y0133565D02*
X0147302Y0133565D01*
X0145515Y0134364D02*
X0141152Y0134364D01*
X0141950Y0135162D02*
X0144716Y0135162D01*
X0144121Y0135961D02*
X0142546Y0135961D01*
X0142877Y0136759D02*
X0143790Y0136759D01*
X0143533Y0137558D02*
X0143133Y0137558D01*
X0143133Y0138356D02*
X0143533Y0138356D01*
X0143533Y0139155D02*
X0143133Y0139155D01*
X0142858Y0139953D02*
X0143809Y0139953D01*
X0144140Y0140752D02*
X0142527Y0140752D01*
X0141905Y0141550D02*
X0144762Y0141550D01*
X0151905Y0141550D02*
X0154762Y0141550D01*
X0154140Y0140752D02*
X0152527Y0140752D01*
X0152858Y0139953D02*
X0153809Y0139953D01*
X0153533Y0139155D02*
X0153133Y0139155D01*
X0153133Y0138356D02*
X0153533Y0138356D01*
X0153533Y0137558D02*
X0153133Y0137558D01*
X0152877Y0136759D02*
X0153790Y0136759D01*
X0154121Y0135961D02*
X0152546Y0135961D01*
X0151950Y0135162D02*
X0154716Y0135162D01*
X0155515Y0134364D02*
X0151152Y0134364D01*
X0149365Y0133565D02*
X0157302Y0133565D01*
X0159365Y0133565D02*
X0166980Y0133565D01*
X0168333Y0134333D02*
X0173333Y0129333D01*
X0267333Y0129333D01*
X0273333Y0123333D01*
X0273333Y0073333D01*
X0277333Y0069333D01*
X0277333Y0065833D01*
X0284833Y0065833D01*
X0284987Y0065987D01*
X0284987Y0073333D01*
X0281722Y0073677D02*
X0275111Y0073677D01*
X0274833Y0073955D02*
X0274833Y0078569D01*
X0274858Y0078511D01*
X0276011Y0077358D01*
X0277518Y0076733D01*
X0279149Y0076733D01*
X0280656Y0077358D01*
X0281809Y0078511D01*
X0282150Y0079333D01*
X0290212Y0079333D01*
X0292844Y0076702D01*
X0292080Y0076702D01*
X0292080Y0073733D01*
X0291280Y0073733D01*
X0291280Y0076702D01*
X0289330Y0076702D01*
X0288974Y0076606D01*
X0288655Y0076422D01*
X0288394Y0076161D01*
X0288210Y0075842D01*
X0288201Y0075809D01*
X0287608Y0076402D01*
X0282366Y0076402D01*
X0281722Y0075757D01*
X0281722Y0070909D01*
X0282366Y0070265D01*
X0283487Y0070265D01*
X0283487Y0067333D01*
X0281433Y0067333D01*
X0281433Y0067789D01*
X0280789Y0068433D01*
X0278833Y0068433D01*
X0278833Y0069955D01*
X0274833Y0073955D01*
X0274833Y0074475D02*
X0281722Y0074475D01*
X0281722Y0075274D02*
X0274833Y0075274D01*
X0274833Y0076072D02*
X0282036Y0076072D01*
X0280968Y0077669D02*
X0291876Y0077669D01*
X0292675Y0076871D02*
X0279481Y0076871D01*
X0277186Y0076871D02*
X0274833Y0076871D01*
X0274833Y0077669D02*
X0275699Y0077669D01*
X0274901Y0078468D02*
X0274833Y0078468D01*
X0271833Y0078468D02*
X0251702Y0078468D01*
X0251702Y0079266D02*
X0271833Y0079266D01*
X0271833Y0080065D02*
X0248733Y0080065D01*
X0248733Y0080387D02*
X0248733Y0079587D01*
X0248733Y0076422D01*
X0250486Y0076422D01*
X0250842Y0076517D01*
X0251161Y0076701D01*
X0251422Y0076962D01*
X0251606Y0077281D01*
X0251702Y0077637D01*
X0251702Y0079587D01*
X0248733Y0079587D01*
X0247933Y0079587D01*
X0244965Y0079587D01*
X0244965Y0077637D01*
X0245060Y0077281D01*
X0245245Y0076962D01*
X0245505Y0076701D01*
X0245824Y0076517D01*
X0246180Y0076422D01*
X0247933Y0076422D01*
X0247933Y0079587D01*
X0247933Y0080387D01*
X0244965Y0080387D01*
X0244965Y0082337D01*
X0245060Y0082693D01*
X0245245Y0083012D01*
X0245505Y0083272D01*
X0245824Y0083457D01*
X0245858Y0083466D01*
X0245265Y0084059D01*
X0245265Y0085180D01*
X0241402Y0085180D01*
X0241402Y0084059D01*
X0240757Y0083414D01*
X0235909Y0083414D01*
X0235265Y0084059D01*
X0235265Y0089301D01*
X0235909Y0089945D01*
X0240757Y0089945D01*
X0241402Y0089301D01*
X0241402Y0088180D01*
X0245265Y0088180D01*
X0245265Y0089301D01*
X0245909Y0089945D01*
X0250757Y0089945D01*
X0251402Y0089301D01*
X0251402Y0084059D01*
X0250809Y0083466D01*
X0250842Y0083457D01*
X0251161Y0083272D01*
X0251422Y0083012D01*
X0251606Y0082693D01*
X0251702Y0082337D01*
X0251702Y0080387D01*
X0248733Y0080387D01*
X0247933Y0080065D02*
X0241402Y0080065D01*
X0241402Y0080863D02*
X0244965Y0080863D01*
X0244965Y0081662D02*
X0241402Y0081662D01*
X0241402Y0082460D02*
X0244998Y0082460D01*
X0245492Y0083259D02*
X0232933Y0083259D01*
X0232933Y0084057D02*
X0235266Y0084057D01*
X0235265Y0084856D02*
X0232933Y0084856D01*
X0232933Y0085654D02*
X0235265Y0085654D01*
X0235265Y0086453D02*
X0232933Y0086453D01*
X0232933Y0087251D02*
X0235265Y0087251D01*
X0235265Y0088050D02*
X0232933Y0088050D01*
X0232933Y0088848D02*
X0235265Y0088848D01*
X0235611Y0089647D02*
X0232933Y0089647D01*
X0232933Y0090445D02*
X0271833Y0090445D01*
X0271833Y0089647D02*
X0251056Y0089647D01*
X0251402Y0088848D02*
X0271833Y0088848D01*
X0271833Y0088050D02*
X0251402Y0088050D01*
X0251402Y0087251D02*
X0271833Y0087251D01*
X0271833Y0086453D02*
X0251402Y0086453D01*
X0251402Y0085654D02*
X0271833Y0085654D01*
X0271833Y0084856D02*
X0251402Y0084856D01*
X0251400Y0084057D02*
X0271833Y0084057D01*
X0271833Y0083259D02*
X0251175Y0083259D01*
X0251669Y0082460D02*
X0271833Y0082460D01*
X0271833Y0081662D02*
X0251702Y0081662D01*
X0251702Y0080863D02*
X0271833Y0080863D01*
X0278333Y0080833D02*
X0290833Y0080833D01*
X0296333Y0075333D01*
X0296333Y0070833D01*
X0298583Y0068583D01*
X0303583Y0068583D01*
X0304333Y0067833D01*
X0304333Y0064333D01*
X0302833Y0062833D01*
X0289833Y0062833D01*
X0288333Y0061333D01*
X0288333Y0058333D01*
X0295833Y0058333D01*
X0299333Y0054833D01*
X0299333Y0050833D01*
X0295233Y0050520D02*
X0281433Y0050520D01*
X0281433Y0051318D02*
X0295233Y0051318D01*
X0295233Y0052117D02*
X0281433Y0052117D01*
X0281433Y0052789D02*
X0280789Y0053433D01*
X0278833Y0053433D01*
X0278833Y0054212D01*
X0281455Y0056833D01*
X0295212Y0056833D01*
X0297833Y0054212D01*
X0297833Y0053433D01*
X0295878Y0053433D01*
X0295233Y0052789D01*
X0295233Y0048878D01*
X0295878Y0048233D01*
X0302789Y0048233D01*
X0303433Y0048878D01*
X0303433Y0052789D01*
X0302789Y0053433D01*
X0300833Y0053433D01*
X0300833Y0055455D01*
X0299955Y0056333D01*
X0297333Y0058955D01*
X0296455Y0059833D01*
X0289833Y0059833D01*
X0289833Y0060712D01*
X0290455Y0061333D01*
X0303455Y0061333D01*
X0304333Y0062212D01*
X0305833Y0063712D01*
X0305833Y0068455D01*
X0305083Y0069205D01*
X0304321Y0069967D01*
X0304330Y0069965D01*
X0306280Y0069965D01*
X0306280Y0072933D01*
X0307080Y0072933D01*
X0307080Y0069965D01*
X0309029Y0069965D01*
X0309386Y0070060D01*
X0309705Y0070245D01*
X0309965Y0070505D01*
X0310150Y0070824D01*
X0310245Y0071180D01*
X0310245Y0072933D01*
X0307080Y0072933D01*
X0307080Y0073733D01*
X0310245Y0073733D01*
X0310245Y0075486D01*
X0310150Y0075842D01*
X0309965Y0076161D01*
X0309705Y0076422D01*
X0309386Y0076606D01*
X0309029Y0076702D01*
X0307080Y0076702D01*
X0307080Y0073733D01*
X0306280Y0073733D01*
X0306280Y0076702D01*
X0304330Y0076702D01*
X0303974Y0076606D01*
X0303655Y0076422D01*
X0303394Y0076161D01*
X0303210Y0075842D01*
X0303201Y0075809D01*
X0302608Y0076402D01*
X0301487Y0076402D01*
X0301487Y0078189D01*
X0301809Y0078511D01*
X0302433Y0080018D01*
X0302433Y0081649D01*
X0301809Y0083156D01*
X0300656Y0084309D01*
X0299833Y0084650D01*
X0299833Y0101955D01*
X0298955Y0102833D01*
X0269955Y0131833D01*
X0274455Y0131833D01*
X0275333Y0132712D01*
X0276695Y0134074D01*
X0277518Y0133733D01*
X0279149Y0133733D01*
X0280656Y0134358D01*
X0281809Y0135511D01*
X0282433Y0137018D01*
X0282433Y0138649D01*
X0281809Y0140156D01*
X0280656Y0141309D01*
X0279390Y0141833D01*
X0286492Y0141833D01*
X0286027Y0141597D01*
X0285467Y0141189D01*
X0284977Y0140700D01*
X0284570Y0140139D01*
X0284256Y0139522D01*
X0284042Y0138864D01*
X0283942Y0138233D01*
X0287933Y0138233D01*
X0287933Y0137433D01*
X0288733Y0137433D01*
X0288733Y0133442D01*
X0289364Y0133542D01*
X0290022Y0133756D01*
X0290639Y0134070D01*
X0291200Y0134477D01*
X0291689Y0134967D01*
X0292097Y0135527D01*
X0292411Y0136144D01*
X0292625Y0136803D01*
X0292725Y0137433D01*
X0288733Y0137433D01*
X0288733Y0138233D01*
X0292725Y0138233D01*
X0292625Y0138864D01*
X0292411Y0139522D01*
X0292097Y0140139D01*
X0291689Y0140700D01*
X0291200Y0141189D01*
X0290639Y0141597D01*
X0290175Y0141833D01*
X0297276Y0141833D01*
X0296011Y0141309D01*
X0294858Y0140156D01*
X0294233Y0138649D01*
X0294233Y0137018D01*
X0294858Y0135511D01*
X0296011Y0134358D01*
X0297518Y0133733D01*
X0299149Y0133733D01*
X0300656Y0134358D01*
X0301809Y0135511D01*
X0302433Y0137018D01*
X0302433Y0138649D01*
X0301809Y0140156D01*
X0300656Y0141309D01*
X0299390Y0141833D01*
X0321833Y0141833D01*
X0321833Y0110086D01*
X0320776Y0112638D01*
X0318638Y0114776D01*
X0315845Y0115933D01*
X0312822Y0115933D01*
X0310028Y0114776D01*
X0307890Y0112638D01*
X0306733Y0109845D01*
X0306733Y0106822D01*
X0307890Y0104028D01*
X0310028Y0101890D01*
X0312822Y0100733D01*
X0315845Y0100733D01*
X0318638Y0101890D01*
X0320776Y0104028D01*
X0321833Y0106580D01*
X0321833Y0044833D01*
X0271622Y0044833D01*
X0272403Y0045614D01*
X0273133Y0047379D01*
X0273133Y0049288D01*
X0272628Y0050507D01*
X0273233Y0051112D01*
X0273233Y0048878D01*
X0273878Y0048233D01*
X0280789Y0048233D01*
X0281433Y0048878D01*
X0281433Y0052789D01*
X0281307Y0052915D02*
X0295360Y0052915D01*
X0297833Y0053714D02*
X0278833Y0053714D01*
X0279134Y0054512D02*
X0297533Y0054512D01*
X0296734Y0055311D02*
X0279932Y0055311D01*
X0280731Y0056110D02*
X0295936Y0056110D01*
X0298581Y0057707D02*
X0321833Y0057707D01*
X0321833Y0058505D02*
X0297783Y0058505D01*
X0296984Y0059304D02*
X0321833Y0059304D01*
X0321833Y0060102D02*
X0289833Y0060102D01*
X0290022Y0060901D02*
X0321833Y0060901D01*
X0321833Y0061699D02*
X0303820Y0061699D01*
X0304619Y0062498D02*
X0321833Y0062498D01*
X0321833Y0063296D02*
X0305417Y0063296D01*
X0305833Y0064095D02*
X0321833Y0064095D01*
X0321833Y0064893D02*
X0305833Y0064893D01*
X0305833Y0065692D02*
X0321833Y0065692D01*
X0321833Y0066490D02*
X0305833Y0066490D01*
X0305833Y0067289D02*
X0321833Y0067289D01*
X0321833Y0068087D02*
X0305833Y0068087D01*
X0305402Y0068886D02*
X0321833Y0068886D01*
X0321833Y0069684D02*
X0304604Y0069684D01*
X0306280Y0070483D02*
X0307080Y0070483D01*
X0307080Y0071281D02*
X0306280Y0071281D01*
X0306280Y0072080D02*
X0307080Y0072080D01*
X0307080Y0072878D02*
X0306280Y0072878D01*
X0307080Y0073677D02*
X0321833Y0073677D01*
X0321833Y0074475D02*
X0310245Y0074475D01*
X0310245Y0075274D02*
X0321833Y0075274D01*
X0321833Y0076072D02*
X0310017Y0076072D01*
X0307080Y0076072D02*
X0306280Y0076072D01*
X0306280Y0075274D02*
X0307080Y0075274D01*
X0307080Y0074475D02*
X0306280Y0074475D01*
X0303343Y0076072D02*
X0302937Y0076072D01*
X0301487Y0076871D02*
X0321833Y0076871D01*
X0321833Y0077669D02*
X0301487Y0077669D01*
X0301766Y0078468D02*
X0321833Y0078468D01*
X0321833Y0079266D02*
X0302122Y0079266D01*
X0302433Y0080065D02*
X0321833Y0080065D01*
X0321833Y0080863D02*
X0302433Y0080863D01*
X0302428Y0081662D02*
X0321833Y0081662D01*
X0321833Y0082460D02*
X0302097Y0082460D01*
X0301706Y0083259D02*
X0321833Y0083259D01*
X0321833Y0084057D02*
X0300908Y0084057D01*
X0299833Y0084856D02*
X0321833Y0084856D01*
X0321833Y0085654D02*
X0299833Y0085654D01*
X0299833Y0086453D02*
X0321833Y0086453D01*
X0321833Y0087251D02*
X0299833Y0087251D01*
X0299833Y0088050D02*
X0321833Y0088050D01*
X0321833Y0088848D02*
X0299833Y0088848D01*
X0299833Y0089647D02*
X0321833Y0089647D01*
X0321833Y0090445D02*
X0299833Y0090445D01*
X0299833Y0091244D02*
X0321833Y0091244D01*
X0321833Y0092043D02*
X0299833Y0092043D01*
X0299833Y0092841D02*
X0321833Y0092841D01*
X0321833Y0093640D02*
X0299833Y0093640D01*
X0299833Y0094438D02*
X0321833Y0094438D01*
X0321833Y0095237D02*
X0299833Y0095237D01*
X0299833Y0096035D02*
X0321833Y0096035D01*
X0321833Y0096834D02*
X0299833Y0096834D01*
X0299833Y0097632D02*
X0321833Y0097632D01*
X0321833Y0098431D02*
X0299833Y0098431D01*
X0299833Y0099229D02*
X0321833Y0099229D01*
X0321833Y0100028D02*
X0299833Y0100028D01*
X0299833Y0100826D02*
X0312598Y0100826D01*
X0310670Y0101625D02*
X0299833Y0101625D01*
X0299365Y0102423D02*
X0309495Y0102423D01*
X0308697Y0103222D02*
X0298566Y0103222D01*
X0297768Y0104020D02*
X0307898Y0104020D01*
X0307563Y0104819D02*
X0296969Y0104819D01*
X0296171Y0105617D02*
X0307232Y0105617D01*
X0306901Y0106416D02*
X0295372Y0106416D01*
X0294574Y0107214D02*
X0306733Y0107214D01*
X0306733Y0108013D02*
X0293775Y0108013D01*
X0292977Y0108811D02*
X0306733Y0108811D01*
X0306733Y0109610D02*
X0292178Y0109610D01*
X0291380Y0110408D02*
X0306967Y0110408D01*
X0307297Y0111207D02*
X0290581Y0111207D01*
X0289783Y0112005D02*
X0307628Y0112005D01*
X0308056Y0112804D02*
X0288984Y0112804D01*
X0288186Y0113602D02*
X0308854Y0113602D01*
X0309653Y0114401D02*
X0287387Y0114401D01*
X0286589Y0115199D02*
X0311050Y0115199D01*
X0317617Y0115199D02*
X0321833Y0115199D01*
X0321833Y0114401D02*
X0319014Y0114401D01*
X0319812Y0113602D02*
X0321833Y0113602D01*
X0321833Y0112804D02*
X0320611Y0112804D01*
X0321039Y0112005D02*
X0321833Y0112005D01*
X0321833Y0111207D02*
X0321369Y0111207D01*
X0321700Y0110408D02*
X0321833Y0110408D01*
X0321765Y0106416D02*
X0321833Y0106416D01*
X0321833Y0105617D02*
X0321434Y0105617D01*
X0321104Y0104819D02*
X0321833Y0104819D01*
X0321833Y0104020D02*
X0320768Y0104020D01*
X0319970Y0103222D02*
X0321833Y0103222D01*
X0321833Y0102423D02*
X0319171Y0102423D01*
X0317997Y0101625D02*
X0321833Y0101625D01*
X0321833Y0100826D02*
X0316069Y0100826D01*
X0298333Y0101333D02*
X0298333Y0080833D01*
X0299987Y0079180D01*
X0299987Y0073333D01*
X0295712Y0069333D02*
X0294833Y0070212D01*
X0294833Y0070373D01*
X0294705Y0070245D01*
X0294386Y0070060D01*
X0294029Y0069965D01*
X0292080Y0069965D01*
X0292080Y0072933D01*
X0291280Y0072933D01*
X0291280Y0069965D01*
X0289330Y0069965D01*
X0288974Y0070060D01*
X0288655Y0070245D01*
X0288394Y0070505D01*
X0288210Y0070824D01*
X0288201Y0070858D01*
X0287608Y0070265D01*
X0286487Y0070265D01*
X0286487Y0067333D01*
X0295233Y0067333D01*
X0295233Y0067789D01*
X0295878Y0068433D01*
X0296612Y0068433D01*
X0295712Y0069333D01*
X0295361Y0069684D02*
X0286487Y0069684D01*
X0286487Y0068886D02*
X0296160Y0068886D01*
X0295532Y0068087D02*
X0286487Y0068087D01*
X0284833Y0065833D02*
X0288333Y0065833D01*
X0299333Y0065833D01*
X0292080Y0070483D02*
X0291280Y0070483D01*
X0291280Y0071281D02*
X0292080Y0071281D01*
X0292080Y0072080D02*
X0291280Y0072080D01*
X0291280Y0072878D02*
X0292080Y0072878D01*
X0292080Y0074475D02*
X0291280Y0074475D01*
X0291280Y0075274D02*
X0292080Y0075274D01*
X0292080Y0076072D02*
X0291280Y0076072D01*
X0291077Y0078468D02*
X0281766Y0078468D01*
X0282122Y0079266D02*
X0290279Y0079266D01*
X0288343Y0076072D02*
X0287937Y0076072D01*
X0281722Y0072878D02*
X0275910Y0072878D01*
X0276708Y0072080D02*
X0281722Y0072080D01*
X0281722Y0071281D02*
X0277507Y0071281D01*
X0278305Y0070483D02*
X0282148Y0070483D01*
X0283487Y0069684D02*
X0278833Y0069684D01*
X0278833Y0068886D02*
X0283487Y0068886D01*
X0283487Y0068087D02*
X0281135Y0068087D01*
X0275660Y0068886D02*
X0273133Y0068886D01*
X0273133Y0068087D02*
X0273532Y0068087D01*
X0273233Y0067289D02*
X0273096Y0067289D01*
X0273233Y0066490D02*
X0272765Y0066490D01*
X0273096Y0065692D02*
X0273233Y0065692D01*
X0273333Y0063333D02*
X0268333Y0068333D01*
X0263901Y0066490D02*
X0262765Y0066490D01*
X0262435Y0065692D02*
X0264232Y0065692D01*
X0264985Y0064893D02*
X0261681Y0064893D01*
X0260643Y0064095D02*
X0266023Y0064095D01*
X0265844Y0062498D02*
X0260823Y0062498D01*
X0261756Y0061699D02*
X0264911Y0061699D01*
X0264201Y0060901D02*
X0262465Y0060901D01*
X0262796Y0060102D02*
X0263870Y0060102D01*
X0263540Y0059304D02*
X0263127Y0059304D01*
X0263133Y0058505D02*
X0263533Y0058505D01*
X0263533Y0057707D02*
X0263133Y0057707D01*
X0262938Y0056908D02*
X0263728Y0056908D01*
X0263988Y0056110D02*
X0262608Y0056110D01*
X0262099Y0055311D02*
X0263190Y0055311D01*
X0262391Y0054512D02*
X0261301Y0054512D01*
X0261593Y0053714D02*
X0259724Y0053714D01*
X0259814Y0052915D02*
X0260794Y0052915D01*
X0256942Y0053714D02*
X0255835Y0053714D01*
X0255037Y0052915D02*
X0256853Y0052915D01*
X0255329Y0052117D02*
X0254238Y0052117D01*
X0254530Y0051318D02*
X0253440Y0051318D01*
X0254044Y0050520D02*
X0252641Y0050520D01*
X0252954Y0049721D02*
X0253713Y0049721D01*
X0253533Y0048923D02*
X0253133Y0048923D01*
X0253133Y0048124D02*
X0253533Y0048124D01*
X0253555Y0047326D02*
X0253112Y0047326D01*
X0252781Y0046527D02*
X0253886Y0046527D01*
X0254217Y0045729D02*
X0252450Y0045729D01*
X0251719Y0044930D02*
X0254948Y0044930D01*
X0258333Y0048333D02*
X0268333Y0058333D01*
X0271756Y0061699D02*
X0271833Y0061699D01*
X0271833Y0062498D02*
X0270823Y0062498D01*
X0271249Y0063296D02*
X0259833Y0063296D01*
X0256833Y0063296D02*
X0249563Y0063296D01*
X0249528Y0063308D02*
X0249366Y0063333D01*
X0249528Y0063359D01*
X0250291Y0063607D01*
X0251006Y0063971D01*
X0251656Y0064443D01*
X0252223Y0065011D01*
X0252695Y0065660D01*
X0253060Y0066376D01*
X0253308Y0067139D01*
X0253433Y0067932D01*
X0253433Y0067933D01*
X0248733Y0067933D01*
X0248733Y0063433D01*
X0248733Y0058733D01*
X0253433Y0058733D01*
X0253433Y0058735D01*
X0253308Y0059528D01*
X0253060Y0060291D01*
X0252695Y0061006D01*
X0252223Y0061656D01*
X0251656Y0062223D01*
X0251006Y0062695D01*
X0250291Y0063060D01*
X0249528Y0063308D01*
X0248733Y0063296D02*
X0247933Y0063296D01*
X0247301Y0063333D02*
X0247139Y0063308D01*
X0246376Y0063060D01*
X0245660Y0062695D01*
X0245011Y0062223D01*
X0244443Y0061656D01*
X0243971Y0061006D01*
X0243607Y0060291D01*
X0243359Y0059528D01*
X0243233Y0058735D01*
X0243233Y0058733D01*
X0247933Y0058733D01*
X0247933Y0057933D01*
X0248733Y0057933D01*
X0248733Y0053233D01*
X0248735Y0053233D01*
X0249528Y0053359D01*
X0250291Y0053607D01*
X0251006Y0053971D01*
X0251656Y0054443D01*
X0252223Y0055011D01*
X0252695Y0055660D01*
X0253060Y0056376D01*
X0253308Y0057139D01*
X0253433Y0057932D01*
X0253433Y0057933D01*
X0248733Y0057933D01*
X0248733Y0058733D01*
X0247933Y0058733D01*
X0247933Y0067933D01*
X0243233Y0067933D01*
X0243233Y0067932D01*
X0243359Y0067139D01*
X0243607Y0066376D01*
X0243971Y0065660D01*
X0244443Y0065011D01*
X0245011Y0064443D01*
X0245660Y0063971D01*
X0246376Y0063607D01*
X0247139Y0063359D01*
X0247301Y0063333D01*
X0247103Y0063296D02*
X0242933Y0063296D01*
X0242933Y0062498D02*
X0245388Y0062498D01*
X0244487Y0061699D02*
X0242933Y0061699D01*
X0242933Y0060901D02*
X0243918Y0060901D01*
X0243546Y0060102D02*
X0242933Y0060102D01*
X0243127Y0059304D02*
X0243323Y0059304D01*
X0243133Y0058505D02*
X0247933Y0058505D01*
X0247933Y0057933D02*
X0243233Y0057933D01*
X0243233Y0057932D01*
X0243359Y0057139D01*
X0243607Y0056376D01*
X0243971Y0055660D01*
X0244443Y0055011D01*
X0245011Y0054443D01*
X0245660Y0053971D01*
X0246376Y0053607D01*
X0247139Y0053359D01*
X0247932Y0053233D01*
X0247933Y0053233D01*
X0247933Y0057933D01*
X0247933Y0057707D02*
X0248733Y0057707D01*
X0248733Y0058505D02*
X0253533Y0058505D01*
X0253533Y0057707D02*
X0253398Y0057707D01*
X0253233Y0056908D02*
X0253728Y0056908D01*
X0253988Y0056110D02*
X0252924Y0056110D01*
X0253190Y0055311D02*
X0252441Y0055311D01*
X0252391Y0054512D02*
X0251725Y0054512D01*
X0251593Y0053714D02*
X0250501Y0053714D01*
X0250794Y0052915D02*
X0249814Y0052915D01*
X0248733Y0053714D02*
X0247933Y0053714D01*
X0247933Y0054512D02*
X0248733Y0054512D01*
X0248733Y0055311D02*
X0247933Y0055311D01*
X0247933Y0056110D02*
X0248733Y0056110D01*
X0248733Y0056908D02*
X0247933Y0056908D01*
X0247933Y0059304D02*
X0248733Y0059304D01*
X0248733Y0060102D02*
X0247933Y0060102D01*
X0247933Y0060901D02*
X0248733Y0060901D01*
X0248733Y0061699D02*
X0247933Y0061699D01*
X0247933Y0062498D02*
X0248733Y0062498D01*
X0248733Y0064095D02*
X0247933Y0064095D01*
X0247933Y0064893D02*
X0248733Y0064893D01*
X0248733Y0065692D02*
X0247933Y0065692D01*
X0247933Y0066490D02*
X0248733Y0066490D01*
X0248733Y0067289D02*
X0247933Y0067289D01*
X0247933Y0067933D02*
X0248733Y0067933D01*
X0248733Y0068733D01*
X0253433Y0068733D01*
X0253433Y0068735D01*
X0253308Y0069528D01*
X0253060Y0070291D01*
X0252695Y0071006D01*
X0252223Y0071656D01*
X0251656Y0072223D01*
X0251006Y0072695D01*
X0250291Y0073060D01*
X0249528Y0073308D01*
X0248735Y0073433D01*
X0248733Y0073433D01*
X0248733Y0068733D01*
X0247933Y0068733D01*
X0247933Y0067933D01*
X0247933Y0068087D02*
X0243133Y0068087D01*
X0243233Y0068733D02*
X0247933Y0068733D01*
X0247933Y0073433D01*
X0247932Y0073433D01*
X0247139Y0073308D01*
X0246376Y0073060D01*
X0245660Y0072695D01*
X0245011Y0072223D01*
X0244443Y0071656D01*
X0243971Y0071006D01*
X0243607Y0070291D01*
X0243359Y0069528D01*
X0243233Y0068735D01*
X0243233Y0068733D01*
X0243257Y0068886D02*
X0243133Y0068886D01*
X0242969Y0069684D02*
X0243410Y0069684D01*
X0243705Y0070483D02*
X0242638Y0070483D01*
X0242174Y0071281D02*
X0244171Y0071281D01*
X0244867Y0072080D02*
X0241375Y0072080D01*
X0239984Y0072878D02*
X0246020Y0072878D01*
X0247933Y0072878D02*
X0248733Y0072878D01*
X0248733Y0072080D02*
X0247933Y0072080D01*
X0247933Y0071281D02*
X0248733Y0071281D01*
X0248733Y0070483D02*
X0247933Y0070483D01*
X0247933Y0069684D02*
X0248733Y0069684D01*
X0248733Y0068886D02*
X0247933Y0068886D01*
X0248733Y0068087D02*
X0253533Y0068087D01*
X0253533Y0068886D02*
X0253409Y0068886D01*
X0253257Y0069684D02*
X0253697Y0069684D01*
X0254028Y0070483D02*
X0252962Y0070483D01*
X0252495Y0071281D02*
X0254493Y0071281D01*
X0255292Y0072080D02*
X0251799Y0072080D01*
X0250647Y0072878D02*
X0256763Y0072878D01*
X0259904Y0072878D02*
X0266763Y0072878D01*
X0265292Y0072080D02*
X0261375Y0072080D01*
X0262174Y0071281D02*
X0264493Y0071281D01*
X0264028Y0070483D02*
X0262638Y0070483D01*
X0262969Y0069684D02*
X0263697Y0069684D01*
X0263533Y0068886D02*
X0263133Y0068886D01*
X0263133Y0068087D02*
X0263533Y0068087D01*
X0263571Y0067289D02*
X0263096Y0067289D01*
X0258333Y0068333D02*
X0258333Y0058333D01*
X0248333Y0048333D01*
X0243886Y0046527D02*
X0242781Y0046527D01*
X0242450Y0045729D02*
X0244217Y0045729D01*
X0244948Y0044930D02*
X0241719Y0044930D01*
X0243112Y0047326D02*
X0243555Y0047326D01*
X0243533Y0048124D02*
X0243133Y0048124D01*
X0243133Y0048923D02*
X0243533Y0048923D01*
X0243713Y0049721D02*
X0242954Y0049721D01*
X0242623Y0050520D02*
X0244044Y0050520D01*
X0244530Y0051318D02*
X0242136Y0051318D01*
X0241338Y0052117D02*
X0245329Y0052117D01*
X0246853Y0052915D02*
X0239814Y0052915D01*
X0239724Y0053714D02*
X0246166Y0053714D01*
X0244942Y0054512D02*
X0241301Y0054512D01*
X0242099Y0055311D02*
X0244225Y0055311D01*
X0243743Y0056110D02*
X0242608Y0056110D01*
X0242938Y0056908D02*
X0243434Y0056908D01*
X0243269Y0057707D02*
X0243133Y0057707D01*
X0252749Y0060901D02*
X0254201Y0060901D01*
X0253870Y0060102D02*
X0253121Y0060102D01*
X0253343Y0059304D02*
X0253540Y0059304D01*
X0252180Y0061699D02*
X0254911Y0061699D01*
X0255844Y0062498D02*
X0251278Y0062498D01*
X0251176Y0064095D02*
X0256023Y0064095D01*
X0254985Y0064893D02*
X0252106Y0064893D01*
X0252711Y0065692D02*
X0254232Y0065692D01*
X0253901Y0066490D02*
X0253097Y0066490D01*
X0253331Y0067289D02*
X0253571Y0067289D01*
X0245491Y0064095D02*
X0242933Y0064095D01*
X0242933Y0064893D02*
X0244561Y0064893D01*
X0243955Y0065692D02*
X0242933Y0065692D01*
X0242933Y0066490D02*
X0243570Y0066490D01*
X0243335Y0067289D02*
X0243096Y0067289D01*
X0240614Y0073677D02*
X0271833Y0073677D01*
X0271833Y0074475D02*
X0240883Y0074475D01*
X0240883Y0075274D02*
X0271833Y0075274D01*
X0271833Y0076072D02*
X0240580Y0076072D01*
X0240907Y0076871D02*
X0245336Y0076871D01*
X0244965Y0077669D02*
X0241402Y0077669D01*
X0241402Y0078468D02*
X0244965Y0078468D01*
X0244965Y0079266D02*
X0241402Y0079266D01*
X0238333Y0079987D02*
X0238333Y0074833D01*
X0236052Y0073677D02*
X0232933Y0073677D01*
X0232933Y0074475D02*
X0235783Y0074475D01*
X0235783Y0075274D02*
X0232933Y0075274D01*
X0232933Y0076072D02*
X0236086Y0076072D01*
X0235760Y0076871D02*
X0232933Y0076871D01*
X0232933Y0077669D02*
X0235265Y0077669D01*
X0235265Y0078468D02*
X0232933Y0078468D01*
X0232933Y0079266D02*
X0235265Y0079266D01*
X0235265Y0080065D02*
X0232933Y0080065D01*
X0232933Y0080863D02*
X0235265Y0080863D01*
X0235265Y0081662D02*
X0232933Y0081662D01*
X0232933Y0082460D02*
X0235265Y0082460D01*
X0238333Y0086680D02*
X0248333Y0086680D01*
X0245265Y0084856D02*
X0241402Y0084856D01*
X0241400Y0084057D02*
X0245266Y0084057D01*
X0245265Y0088848D02*
X0241402Y0088848D01*
X0241056Y0089647D02*
X0245611Y0089647D01*
X0232933Y0091244D02*
X0271833Y0091244D01*
X0271833Y0092043D02*
X0232933Y0092043D01*
X0232933Y0092841D02*
X0271833Y0092841D01*
X0271833Y0093640D02*
X0232933Y0093640D01*
X0232933Y0094438D02*
X0271833Y0094438D01*
X0271833Y0095237D02*
X0232933Y0095237D01*
X0232933Y0096035D02*
X0271833Y0096035D01*
X0271833Y0096834D02*
X0232933Y0096834D01*
X0232933Y0097632D02*
X0271833Y0097632D01*
X0271833Y0098431D02*
X0232933Y0098431D01*
X0232933Y0099229D02*
X0241499Y0099229D01*
X0241336Y0099273D02*
X0241692Y0099177D01*
X0247382Y0099177D01*
X0247382Y0102933D01*
X0248182Y0102933D01*
X0248182Y0099177D01*
X0253872Y0099177D01*
X0254228Y0099273D01*
X0254547Y0099457D01*
X0254808Y0099718D01*
X0254992Y0100037D01*
X0255088Y0100393D01*
X0255088Y0102933D01*
X0248182Y0102933D01*
X0248182Y0103733D01*
X0255088Y0103733D01*
X0255088Y0105966D01*
X0255890Y0104028D01*
X0258028Y0101890D01*
X0260822Y0100733D01*
X0263845Y0100733D01*
X0266638Y0101890D01*
X0268776Y0104028D01*
X0269933Y0106822D01*
X0269933Y0109845D01*
X0268776Y0112638D01*
X0266638Y0114776D01*
X0263845Y0115933D01*
X0260822Y0115933D01*
X0258028Y0114776D01*
X0255890Y0112638D01*
X0254733Y0109845D01*
X0254733Y0107023D01*
X0254547Y0107209D01*
X0254228Y0107394D01*
X0253872Y0107489D01*
X0248182Y0107489D01*
X0248182Y0103733D01*
X0247382Y0103733D01*
X0247382Y0102933D01*
X0240477Y0102933D01*
X0240477Y0100393D01*
X0240572Y0100037D01*
X0240756Y0099718D01*
X0241017Y0099457D01*
X0241336Y0099273D01*
X0240577Y0100028D02*
X0235796Y0100028D01*
X0235890Y0100826D02*
X0240477Y0100826D01*
X0240477Y0101625D02*
X0235890Y0101625D01*
X0235890Y0102423D02*
X0240477Y0102423D01*
X0240477Y0103733D02*
X0247382Y0103733D01*
X0247382Y0107489D01*
X0241692Y0107489D01*
X0241336Y0107394D01*
X0241017Y0107209D01*
X0240756Y0106949D01*
X0240572Y0106630D01*
X0240477Y0106274D01*
X0240477Y0103733D01*
X0240477Y0104020D02*
X0235890Y0104020D01*
X0235890Y0103222D02*
X0247382Y0103222D01*
X0247382Y0104020D02*
X0248182Y0104020D01*
X0248182Y0103222D02*
X0256697Y0103222D01*
X0255898Y0104020D02*
X0255088Y0104020D01*
X0255088Y0104819D02*
X0255563Y0104819D01*
X0255232Y0105617D02*
X0255088Y0105617D01*
X0254733Y0107214D02*
X0254539Y0107214D01*
X0254733Y0108013D02*
X0221303Y0108013D01*
X0221303Y0108811D02*
X0254733Y0108811D01*
X0254733Y0109610D02*
X0221303Y0109610D01*
X0221303Y0110408D02*
X0254967Y0110408D01*
X0255297Y0111207D02*
X0221303Y0111207D01*
X0221303Y0112005D02*
X0255628Y0112005D01*
X0256056Y0112804D02*
X0221303Y0112804D01*
X0221303Y0113602D02*
X0256854Y0113602D01*
X0257653Y0114401D02*
X0221303Y0114401D01*
X0221303Y0115199D02*
X0259050Y0115199D01*
X0265617Y0115199D02*
X0271833Y0115199D01*
X0271833Y0114401D02*
X0267014Y0114401D01*
X0267812Y0113602D02*
X0271833Y0113602D01*
X0271833Y0112804D02*
X0268611Y0112804D01*
X0269039Y0112005D02*
X0271833Y0112005D01*
X0271833Y0111207D02*
X0269369Y0111207D01*
X0269700Y0110408D02*
X0271833Y0110408D01*
X0271833Y0109610D02*
X0269933Y0109610D01*
X0269933Y0108811D02*
X0271833Y0108811D01*
X0271833Y0108013D02*
X0269933Y0108013D01*
X0269933Y0107214D02*
X0271833Y0107214D01*
X0271833Y0106416D02*
X0269765Y0106416D01*
X0269434Y0105617D02*
X0271833Y0105617D01*
X0271833Y0104819D02*
X0269104Y0104819D01*
X0268768Y0104020D02*
X0271833Y0104020D01*
X0271833Y0103222D02*
X0267970Y0103222D01*
X0267171Y0102423D02*
X0271833Y0102423D01*
X0271833Y0101625D02*
X0265997Y0101625D01*
X0264069Y0100826D02*
X0271833Y0100826D01*
X0271833Y0100028D02*
X0254987Y0100028D01*
X0255088Y0100826D02*
X0260598Y0100826D01*
X0258670Y0101625D02*
X0255088Y0101625D01*
X0255088Y0102423D02*
X0257495Y0102423D01*
X0254065Y0099229D02*
X0271833Y0099229D01*
X0248182Y0099229D02*
X0247382Y0099229D01*
X0247382Y0100028D02*
X0248182Y0100028D01*
X0248182Y0100826D02*
X0247382Y0100826D01*
X0247382Y0101625D02*
X0248182Y0101625D01*
X0248182Y0102423D02*
X0247382Y0102423D01*
X0247382Y0104819D02*
X0248182Y0104819D01*
X0248182Y0105617D02*
X0247382Y0105617D01*
X0247382Y0106416D02*
X0248182Y0106416D01*
X0248182Y0107214D02*
X0247382Y0107214D01*
X0241025Y0107214D02*
X0230229Y0107214D01*
X0227013Y0107214D02*
X0221303Y0107214D01*
X0216719Y0112231D02*
X0216719Y0123448D01*
X0214333Y0125833D01*
X0209180Y0125833D01*
X0212445Y0123983D02*
X0214062Y0123983D01*
X0214861Y0123184D02*
X0212220Y0123184D01*
X0211471Y0121587D02*
X0215219Y0121587D01*
X0215219Y0122386D02*
X0160225Y0122386D01*
X0160225Y0123184D02*
X0199098Y0123184D01*
X0198922Y0123983D02*
X0160225Y0123983D01*
X0160225Y0124781D02*
X0198922Y0124781D01*
X0198922Y0126379D02*
X0160225Y0126379D01*
X0160225Y0127177D02*
X0198922Y0127177D01*
X0205876Y0123184D02*
X0206139Y0123184D01*
X0194960Y0121587D02*
X0160225Y0121587D01*
X0160194Y0120789D02*
X0176241Y0120789D01*
X0176111Y0119990D02*
X0159707Y0119990D01*
X0159567Y0115998D02*
X0176111Y0115998D01*
X0176111Y0116796D02*
X0149961Y0116796D01*
X0149163Y0117595D02*
X0176111Y0117595D01*
X0176111Y0118393D02*
X0148364Y0118393D01*
X0147566Y0119192D02*
X0176111Y0119192D01*
X0176111Y0115199D02*
X0159925Y0115199D01*
X0155525Y0115998D02*
X0150760Y0115998D01*
X0151558Y0115199D02*
X0155166Y0115199D01*
X0155166Y0107214D02*
X0136665Y0107214D01*
X0137398Y0106416D02*
X0155166Y0106416D01*
X0134596Y0119192D02*
X0132071Y0119192D01*
X0132071Y0119990D02*
X0134596Y0119990D01*
X0134596Y0120789D02*
X0132071Y0120789D01*
X0132071Y0121587D02*
X0134596Y0121587D01*
X0134649Y0122386D02*
X0132017Y0122386D01*
X0131470Y0126379D02*
X0154866Y0126379D01*
X0154866Y0127177D02*
X0132268Y0127177D01*
X0133067Y0127976D02*
X0154866Y0127976D01*
X0154866Y0128774D02*
X0133865Y0128774D01*
X0134664Y0129573D02*
X0154866Y0129573D01*
X0155008Y0130371D02*
X0135462Y0130371D01*
X0127302Y0133565D02*
X0119365Y0133565D01*
X0111705Y0116796D02*
X0094833Y0116796D01*
X0094833Y0115998D02*
X0110907Y0115998D01*
X0110108Y0115199D02*
X0094833Y0115199D01*
X0094833Y0114401D02*
X0109310Y0114401D01*
X0108511Y0113602D02*
X0094833Y0113602D01*
X0094833Y0112804D02*
X0107713Y0112804D01*
X0106914Y0112005D02*
X0094833Y0112005D01*
X0094833Y0111207D02*
X0106116Y0111207D01*
X0105317Y0110408D02*
X0094833Y0110408D01*
X0094833Y0109610D02*
X0104965Y0109610D01*
X0104733Y0108811D02*
X0094833Y0108811D01*
X0094833Y0108013D02*
X0104733Y0108013D01*
X0104733Y0107214D02*
X0094833Y0107214D01*
X0094833Y0106416D02*
X0104733Y0106416D01*
X0104733Y0105617D02*
X0094833Y0105617D01*
X0094833Y0104819D02*
X0104733Y0104819D01*
X0104733Y0104020D02*
X0094833Y0104020D01*
X0094833Y0103222D02*
X0103666Y0103222D01*
X0103233Y0102423D02*
X0094833Y0102423D01*
X0094833Y0101625D02*
X0103233Y0101625D01*
X0103233Y0100826D02*
X0094833Y0100826D01*
X0094833Y0100028D02*
X0103233Y0100028D01*
X0103233Y0099229D02*
X0094833Y0099229D01*
X0094833Y0098431D02*
X0103233Y0098431D01*
X0103233Y0097632D02*
X0094833Y0097632D01*
X0094833Y0096834D02*
X0103233Y0096834D01*
X0103233Y0096035D02*
X0094833Y0096035D01*
X0094833Y0095237D02*
X0103233Y0095237D01*
X0103233Y0094438D02*
X0094833Y0094438D01*
X0094833Y0093640D02*
X0103471Y0093640D01*
X0113104Y0108013D02*
X0126322Y0108013D01*
X0126322Y0108811D02*
X0113902Y0108811D01*
X0160225Y0127976D02*
X0172570Y0127976D01*
X0171771Y0128774D02*
X0160225Y0128774D01*
X0160225Y0129573D02*
X0170973Y0129573D01*
X0168333Y0134333D02*
X0168333Y0138333D01*
X0163533Y0138356D02*
X0163133Y0138356D01*
X0163133Y0137558D02*
X0163533Y0137558D01*
X0163790Y0136759D02*
X0162877Y0136759D01*
X0162546Y0135961D02*
X0164121Y0135961D01*
X0164716Y0135162D02*
X0161950Y0135162D01*
X0161152Y0134364D02*
X0165515Y0134364D01*
X0163533Y0139155D02*
X0163133Y0139155D01*
X0162858Y0139953D02*
X0163809Y0139953D01*
X0164140Y0140752D02*
X0162527Y0140752D01*
X0161905Y0141550D02*
X0164762Y0141550D01*
X0178333Y0138333D02*
X0185333Y0131333D01*
X0268333Y0131333D01*
X0298333Y0101333D01*
X0285790Y0115998D02*
X0321833Y0115998D01*
X0321833Y0116796D02*
X0284992Y0116796D01*
X0284193Y0117595D02*
X0321833Y0117595D01*
X0321833Y0118393D02*
X0283395Y0118393D01*
X0282596Y0119192D02*
X0321833Y0119192D01*
X0321833Y0119990D02*
X0281798Y0119990D01*
X0280999Y0120789D02*
X0321833Y0120789D01*
X0321833Y0121587D02*
X0280201Y0121587D01*
X0279402Y0122386D02*
X0321833Y0122386D01*
X0321833Y0123184D02*
X0278604Y0123184D01*
X0277805Y0123983D02*
X0321833Y0123983D01*
X0321833Y0124781D02*
X0277006Y0124781D01*
X0276208Y0125580D02*
X0321833Y0125580D01*
X0321833Y0126379D02*
X0275409Y0126379D01*
X0274611Y0127177D02*
X0321833Y0127177D01*
X0321833Y0127976D02*
X0273812Y0127976D01*
X0273014Y0128774D02*
X0321833Y0128774D01*
X0321833Y0129573D02*
X0272215Y0129573D01*
X0271417Y0130371D02*
X0321833Y0130371D01*
X0321833Y0131170D02*
X0270618Y0131170D01*
X0274589Y0131968D02*
X0321833Y0131968D01*
X0321833Y0132767D02*
X0275388Y0132767D01*
X0276186Y0133565D02*
X0287231Y0133565D01*
X0287303Y0133542D02*
X0287933Y0133442D01*
X0287933Y0137433D01*
X0283942Y0137433D01*
X0284042Y0136803D01*
X0284256Y0136144D01*
X0284570Y0135527D01*
X0284977Y0134967D01*
X0285467Y0134477D01*
X0286027Y0134070D01*
X0286644Y0133756D01*
X0287303Y0133542D01*
X0287933Y0133565D02*
X0288733Y0133565D01*
X0289436Y0133565D02*
X0321833Y0133565D01*
X0321833Y0134364D02*
X0300662Y0134364D01*
X0301460Y0135162D02*
X0321833Y0135162D01*
X0321833Y0135961D02*
X0301995Y0135961D01*
X0302326Y0136759D02*
X0321833Y0136759D01*
X0321833Y0137558D02*
X0302433Y0137558D01*
X0302433Y0138356D02*
X0321833Y0138356D01*
X0321833Y0139155D02*
X0302224Y0139155D01*
X0301893Y0139953D02*
X0321833Y0139953D01*
X0321833Y0140752D02*
X0301213Y0140752D01*
X0300074Y0141550D02*
X0321833Y0141550D01*
X0296593Y0141550D02*
X0290703Y0141550D01*
X0291637Y0140752D02*
X0295453Y0140752D01*
X0294774Y0139953D02*
X0292191Y0139953D01*
X0292530Y0139155D02*
X0294443Y0139155D01*
X0294233Y0138356D02*
X0292705Y0138356D01*
X0292611Y0136759D02*
X0294340Y0136759D01*
X0294233Y0137558D02*
X0288733Y0137558D01*
X0288733Y0136759D02*
X0287933Y0136759D01*
X0287933Y0135961D02*
X0288733Y0135961D01*
X0288733Y0135162D02*
X0287933Y0135162D01*
X0287933Y0134364D02*
X0288733Y0134364D01*
X0291043Y0134364D02*
X0296005Y0134364D01*
X0295206Y0135162D02*
X0291831Y0135162D01*
X0292317Y0135961D02*
X0294671Y0135961D01*
X0287933Y0137558D02*
X0282433Y0137558D01*
X0282433Y0138356D02*
X0283961Y0138356D01*
X0284136Y0139155D02*
X0282224Y0139155D01*
X0281893Y0139953D02*
X0284475Y0139953D01*
X0285029Y0140752D02*
X0281213Y0140752D01*
X0280074Y0141550D02*
X0285963Y0141550D01*
X0284056Y0136759D02*
X0282326Y0136759D01*
X0281995Y0135961D02*
X0284349Y0135961D01*
X0284835Y0135162D02*
X0281460Y0135162D01*
X0280662Y0134364D02*
X0285623Y0134364D01*
X0278333Y0137833D02*
X0273833Y0133333D01*
X0213333Y0133333D01*
X0208333Y0138333D01*
X0215111Y0127177D02*
X0267368Y0127177D01*
X0268167Y0126379D02*
X0215909Y0126379D01*
X0216708Y0125580D02*
X0268965Y0125580D01*
X0269764Y0124781D02*
X0217506Y0124781D01*
X0218219Y0123983D02*
X0270562Y0123983D01*
X0271361Y0123184D02*
X0218219Y0123184D01*
X0218219Y0122386D02*
X0271833Y0122386D01*
X0271833Y0121587D02*
X0218219Y0121587D01*
X0221213Y0120789D02*
X0271833Y0120789D01*
X0271833Y0119990D02*
X0221303Y0119990D01*
X0221303Y0119192D02*
X0271833Y0119192D01*
X0271833Y0118393D02*
X0221303Y0118393D01*
X0221303Y0117595D02*
X0271833Y0117595D01*
X0271833Y0116796D02*
X0221303Y0116796D01*
X0221303Y0115998D02*
X0271833Y0115998D01*
X0240515Y0106416D02*
X0235890Y0106416D01*
X0235890Y0105617D02*
X0240477Y0105617D01*
X0240477Y0104819D02*
X0235890Y0104819D01*
X0186743Y0083259D02*
X0183664Y0083259D01*
X0183784Y0082460D02*
X0186623Y0082460D01*
X0186623Y0081662D02*
X0183784Y0081662D01*
X0183784Y0080863D02*
X0186623Y0080863D01*
X0186623Y0080065D02*
X0183784Y0080065D01*
X0183784Y0079266D02*
X0186623Y0079266D01*
X0186623Y0078468D02*
X0183784Y0078468D01*
X0183201Y0077669D02*
X0187205Y0077669D01*
X0247933Y0077669D02*
X0248733Y0077669D01*
X0248733Y0076871D02*
X0247933Y0076871D01*
X0247933Y0078468D02*
X0248733Y0078468D01*
X0248733Y0079266D02*
X0247933Y0079266D01*
X0251702Y0077669D02*
X0271833Y0077669D01*
X0271833Y0076871D02*
X0251331Y0076871D01*
X0269904Y0072878D02*
X0271833Y0072878D01*
X0271375Y0072080D02*
X0272466Y0072080D01*
X0272174Y0071281D02*
X0273264Y0071281D01*
X0272638Y0070483D02*
X0274063Y0070483D01*
X0274861Y0069684D02*
X0272969Y0069684D01*
X0273333Y0063333D02*
X0273333Y0053333D01*
X0268333Y0048333D01*
X0272781Y0046527D02*
X0321833Y0046527D01*
X0321833Y0045729D02*
X0272450Y0045729D01*
X0271719Y0044930D02*
X0321833Y0044930D01*
X0321833Y0047326D02*
X0273112Y0047326D01*
X0273133Y0048124D02*
X0321833Y0048124D01*
X0321833Y0048923D02*
X0303433Y0048923D01*
X0303433Y0049721D02*
X0321833Y0049721D01*
X0321833Y0050520D02*
X0303433Y0050520D01*
X0303433Y0051318D02*
X0321833Y0051318D01*
X0321833Y0052117D02*
X0303433Y0052117D01*
X0303307Y0052915D02*
X0321833Y0052915D01*
X0321833Y0053714D02*
X0300833Y0053714D01*
X0300833Y0054512D02*
X0321833Y0054512D01*
X0321833Y0055311D02*
X0300833Y0055311D01*
X0300178Y0056110D02*
X0321833Y0056110D01*
X0321833Y0056908D02*
X0299380Y0056908D01*
X0288333Y0058333D02*
X0280833Y0058333D01*
X0277333Y0054833D01*
X0277333Y0050833D01*
X0273233Y0050520D02*
X0272641Y0050520D01*
X0272954Y0049721D02*
X0273233Y0049721D01*
X0273233Y0048923D02*
X0273133Y0048923D01*
X0281433Y0048923D02*
X0295233Y0048923D01*
X0295233Y0049721D02*
X0281433Y0049721D01*
X0287826Y0070483D02*
X0288417Y0070483D01*
X0309943Y0070483D02*
X0321833Y0070483D01*
X0321833Y0071281D02*
X0310245Y0071281D01*
X0310245Y0072080D02*
X0321833Y0072080D01*
X0321833Y0072878D02*
X0310245Y0072878D01*
X0154948Y0044930D02*
X0152143Y0044930D01*
X0152730Y0045729D02*
X0154217Y0045729D01*
X0153886Y0046527D02*
X0153109Y0046527D01*
X0153337Y0047326D02*
X0153555Y0047326D01*
D29*
X0178176Y0068333D03*
X0213333Y0057833D03*
X0238333Y0074833D03*
X0221833Y0081333D03*
X0208333Y0082833D03*
X0188333Y0102833D03*
X0195833Y0124833D03*
X0278333Y0073333D03*
X0313333Y0073333D03*
D30*
X0185223Y0116719D02*
X0179357Y0110853D01*
X0171680Y0110853D01*
X0166680Y0110853D01*
X0163333Y0110853D01*
X0157546Y0110853D01*
X0150814Y0110853D01*
X0143333Y0118333D01*
X0138845Y0118333D01*
X0127822Y0118333D02*
X0118333Y0118333D01*
X0108333Y0108333D01*
X0108333Y0098333D01*
X0118176Y0128333D02*
X0128176Y0128333D01*
X0128333Y0128333D01*
X0138333Y0138333D01*
D31*
X0216719Y0112231D02*
X0216719Y0098963D01*
X0216717Y0098935D01*
X0216712Y0098907D01*
X0216704Y0098879D01*
X0216692Y0098853D01*
X0216677Y0098829D01*
X0216660Y0098807D01*
X0216639Y0098786D01*
X0216617Y0098769D01*
X0216593Y0098754D01*
X0216567Y0098742D01*
X0216539Y0098734D01*
X0216511Y0098729D01*
X0216483Y0098727D01*
D32*
X0216719Y0102782D02*
X0228333Y0102782D01*
X0228885Y0103333D01*
X0216719Y0102782D02*
X0216719Y0112231D01*
D33*
X0228333Y0102782D02*
X0228333Y0068333D01*
X0178176Y0068333D01*
X0228333Y0068333D02*
X0238333Y0068333D01*
X0238333Y0058333D01*
M02*
